<?xml version="1.0" encoding="UTF-8"?>
<svg id="_레이어_1" data-name="레이어 1" xmlns="http://www.w3.org/2000/svg" viewBox="0 0 36.91 56.67">
  <defs>
    <style>
      .cls-1 {
        fill: #968375;
      }

      .cls-2 {
        fill: #19100a;
      }

      .cls-3 {
        fill: #896c4f;
      }

      .cls-4 {
        fill: #0b0604;
      }

      .cls-5 {
        fill: #f48511;
      }

      .cls-6 {
        fill: #f58610;
      }

      .cls-7 {
        fill: #2f1808;
      }

      .cls-8 {
        fill: #362413;
      }

      .cls-9 {
        fill: #1f0b04;
      }

      .cls-10 {
        fill: #342213;
      }

      .cls-11 {
        fill: #221a13;
      }

      .cls-12 {
        fill: #a18b7d;
      }

      .cls-13 {
        fill: #658d2b;
      }

      .cls-14 {
        fill: #9f8b7c;
      }

      .cls-15 {
        fill: #332010;
      }

      .cls-16 {
        fill: #2d211a;
      }

      .cls-17 {
        fill: #2c2017;
      }

      .cls-18 {
        fill: #678d2b;
      }
    </style>
  </defs>
  <path class="cls-8" d="M1.68,18.5c.08-.22.45-1.14.4-1.2-2.39-.83-2.28-3.12-.61-4.73.33-.32.82-.4,1.1-.7.41-.45.53-1.4.85-1.95,1.57-2.64,3.86-4.71,6.86-5.58,2.2-.64,4.53-.66,6.79-.52.26-.18-.27-3.87,1.91-3.81s3.1,3.51,3.44,3.62c2.44-.92,6.45-1.32,5.86,2.51-.26,1.69-1.92,2.06-3.39,1.92.21,1.41,1.11,2.43,1.46,3.87.14.55,0,1.38.17,1.83.05.14,1.32.85,1.58,1.23.23.33.52,1.23.58,1.64.12.89-.77,1.96-1.7,2.07,0,.46-.07,1-.08,1.42-.04,1.53.11,3.56.2,5.13.01.25-.12.69.2.7.25-.06.49-.25.7-.41,1.22-.93,1.28-1.86,3.11-2.21,2.36-.45,4.63-.45,5.23,2.28.16.75.06,1.51.37,2.14,0,.07,0,.14,0,.2-.6.66-.7,1.81-1,2.61-.93,2.46-5.49,7.07-7.8,8.44-.07.04-.38-.13-.41.12.17,2.66.34,5.35.22,8.03-.08,1.8-.29,4.8-.61,6.52-.29,1.57-.81,2.1-2.31,2.6-1.67.55-7.34.88-7.84-1.34-.36-1.63,1.68-4.9-2.05-4.47-.05,2.7-1.06,5.84-4.28,5.41l-.24.42c-.85-.69-1.63.21-1.77.21-1.56-.03-4.05-.59-4.58-2.26-.37-1.18.16-1.06.38-1.77.36-1.14-.42-2.23-.34-3.4-.68-.25-1.73-.55-2.25-1.06-.31-.31-.24-.47-.32-.58-.15-.2-.56-.69-.6-.76-.19-.36-.21-1.15-.38-1.57l.18-4.1c.53-1.65.95-2.6,1.66-4.07.51-1.06.76-2.46,1.76-3.08.09-.55-1.38-1.68-1.78-2.23-1.51-2.06-1.88-5.19-1.84-7.7.5-.15.35-.54.4-.9.2-1.38.4-2.29.8-3.62.08-.27.38-.73,0-.91ZM21.09,5.24c.33-3.43-4.04-6.24-2.42-.73l2.42.73ZM27.04,4.69c-.89-1.11-4.88.11-4.73,1.02.65,1.18,3.63,1.59,4.49.74.4-.39.6-1.32.24-1.76ZM25.09,13.07c-.12-2.14-1.25-4.47-2.91-5.82-1.15-.94-1.13-.56-2.31-.9-1.69-.48-3.34-1.4-5.09-1.51-2.32-.15-5.69,1.04-7.5,2.51-.89.72-2.84,2.92-3,4.02-.08.57.85.21,1.27.31.37.09.34.43,1.64.4s.73.17,1.19.22c1.64.19,3.91-.04,5.63.17.38.05.19.38.57.43.76.1,1.52-.24,2-.22.13,0,.02.37.4.42.76.11,2.28-.02,3.21,0,1.64.03,3.28-.04,4.91,0ZM3.22,13.12c-.84.17-1.52.97-1.9,1.7-.23,1.34,3.2,1.71,4.09,1.85,4.81.73,16.11,2.05,20.54,1.18,1.86-.36,2.05-1.6.53-2.65s-6.53-.75-8.69-.92c-3.81-.3-7.83-1.01-11.61-1.2-.8-.04-2.21-.11-2.95.04ZM1.88,23.32c-.17,1.38-.2,1.62,0,3.01,1.2,8.32,10.15,10.22,17.16,8.09s7.74-8.85,6.65-15.33c-.49.15-.89.19-1.4.2.11-.61-.31-.39-.69-.4-1.23-.04-2.48.03-3.71,0-2.12-.05-4.28-.09-6.4-.2-1.95-.1-3.65-.37-5.52-.59-1.55-.18-3.12-.28-4.67-.39-.7,1.92-1.18,3.57-1.42,5.6ZM33.81,31.68c1.44-2.19,3.34-8.01-1.01-7.77-1.26.07-3.35,1.67-4.32,2.51-.56.49-.31,1.05-1.4.81-.24.75-.36,1.64-.64,2.37-2.88,7.54-13.55,7.77-20.02,5.32-.46-.17-.9-.39-1.25-.75-1.72,2.67-5.66,9.83-2.9,12.56.46.45,1.16.76,1.8.7.04-.96-.07-1.93.03-2.89.1-1.01.66-3.9,1-4.79.18-.48.82-.77,1.19-.23-.44,3.28-1.3,6.45-1.01,9.81.09,1.05.84,2.78.45,3.67-.21.48-1.01.76-.39,1.4.57.6,1.6.32,2.21.46.16.04.05.36.42.41.49.07,2.3-.08,2.77-.23.17-.05.16-.31.31-.37.83-.34,1.58-.43,2.05-1.32.96-1.81-.55-4.51,2.5-4.34,1.55.09,2.03.7,2.53,2.08.68,1.86.01,1.57-.05,2.85-.04.87,1.03,1.36,1.77,1.47.45.07.69-.18.93-.17.13,0,.01.37.4.42,1.28.18,1.47-.38,1.65-.42.36-.08.73.14,1.09.1.52-.06,1.58-.86,1.86-1.31.18-.29.44-1.15.5-1.51.2-1.37.36-3.59.43-5,.14-3.01-.19-6.01-.17-9.01.16-.55,2.89-2.27,3.56-2.85,1.02-.88,3-2.91,3.72-4Z"/>
  <path class="cls-11" d="M27.89,39c.38,4.59.21,9.21-.39,13.77-.05.38.07.72-.41.9.32-1.72.53-4.72.61-6.52.12-2.67-.05-5.37-.22-8.03.03-.24.34-.07.41-.12Z"/>
  <path class="cls-17" d="M.68,41.01l-.18,4.1c.17.43.19,1.22.38,1.57.03.06.45.55.6.76-1.84-.84-1.62-4.49-1.15-6.09.09-.3.34-.32.35-.34Z"/>
  <path class="cls-2" d="M.48,23.93c.04-2.12.52-3.49,1.2-5.43.39.18.09.64,0,.91-.4,1.33-.6,2.23-.8,3.62-.05.36.09.76-.4.9Z"/>
  <path class="cls-4" d="M27.29,25.94c-.32-.01-.19-.46-.2-.7-.09-1.57-.24-3.59-.2-5.13.7,1.79.48,3.94.4,5.83Z"/>
  <path class="cls-16" d="M31.09,23.32c-.13-.66,1.71-.76,2.1-.76.83,0,1,.43,1.15.49.2.07.59-.17,1.02.26.17.18.11.44.2.54.17.19.46.23.63.48.42.59.7,1.79.72,2.52.01.51-.2.73-.22.9-.31-.63-.21-1.39-.37-2.14-.6-2.73-2.87-2.73-5.23-2.28Z"/>
  <path class="cls-6" d="M33.81,31.68c-.72,1.09-2.7,3.12-3.72,4-.67.58-3.41,2.31-3.56,2.85-.02,3,.3,6,.17,9.01-.06,1.41-.22,3.63-.43,5-.05.36-.31,1.22-.5,1.51-.28.45-1.34,1.25-1.86,1.31-.36.04-.73-.17-1.09-.1-.18.04-.37.6-1.65.42-.38-.05-.27-.42-.4-.42-.25,0-.49.24-.93.17-.74-.11-1.81-.61-1.77-1.47.06-1.28.73-1,.05-2.85-.5-1.38-.98-1.99-2.53-2.08-3.05-.17-1.54,2.53-2.5,4.34-.47.88-1.22.97-2.05,1.32-.14.06-.14.32-.31.37-.47.15-2.28.3-2.77.23-.37-.05-.26-.38-.42-.41-.61-.13-1.64.14-2.21-.46-.62-.65.18-.93.39-1.4.39-.89-.36-2.62-.45-3.67-.29-3.36.56-6.53,1.01-9.81-.37-.54-1.01-.25-1.19.23-.34.89-.89,3.78-1,4.79-.1.96.02,1.93-.03,2.89-.64.06-1.34-.25-1.8-.7-2.76-2.73,1.18-9.89,2.9-12.56.35.37.79.58,1.25.75,6.47,2.44,17.14,2.22,20.02-5.32.28-.73.4-1.62.64-2.37,1.09.24.83-.32,1.4-.81.96-.84,3.05-2.44,4.32-2.51,4.35-.24,2.46,5.58,1.01,7.77Z"/>
  <path class="cls-14" d="M13.48,18.7l6,.6c1.6-.03,3.21.04,4.8,0,.51-.01.91-.05,1.4-.2,1.09,6.48.49,13.16-6.65,15.33s-15.95.22-17.16-8.09c.33-.74.34-2.23,0-3.01.24-2.03.72-3.69,1.42-5.6,1.55.11,3.12.21,4.67.39,1.87.22,3.56.49,5.52.59ZM13.68,28.15c-.28.12-2.72,0-3.3,0-.07,0-1.04-.58-1.12-.69-1.03-1.42,1.67-4.89,1.27-5.88-.33-.83-.91-.51-1.45-.77-.32-.15-.52-.66-1-.81-1.14-.36-3.16-.08-4.02.81-.42.43-.42.52-.17,1.1,1.3.12,1.49-.94,2.88-.74,1.01.15,1.28.93,2.3.76.44.39-3.42,5.22-.34,6.87,1.02.55,1.46.16,2.21.36.19.05.11.38.13.4.42.31.36-.35.52-.4.8-.22,3.27.4,3.78-.6.42-.84-.53-3.96-.52-5.13.01-1.65,1.73-1.98,3.11-1.7.67.13.67.67,1.06,1,1.33,1.1,2.22-.55.31-1.78-1.13-.73-3.47-.71-4.67-.13-1.28.61-.58,1.46-.96,2.61l.38,4.03c-.12.11-.38.68-.42.69ZM19.94,29.1c.28.25,1.64.3,2.06.25,1.98-.22,2.25-3.7.59-4.02-.61-.12-1.78-.12-2.21.38s-.97,2.91-.43,3.38ZM6.61,29.77c-1.04.97,1.11,2.13,1.88,2.49,1.45.68,2.66.87,4.28.69.94-.11,5.13-1.17,5.13-2.29-.03-.33-.37-.71-.7-.71-.16,0-2.18,1.13-2.9,1.31-1.6.4-2.96.48-4.54-.07-.8-.27-2.55-1.61-3.14-1.42Z"/>
  <path class="cls-5" d="M25.09,13.07c-1.63-.03-3.28.04-4.91,0-.93-.01-2.45.11-3.21,0-.38-.05-.27-.42-.4-.42-.48-.02-1.24.32-2,.22-.38-.05-.19-.39-.57-.43-1.72-.21-3.99.02-5.63-.17-.46-.05.11-.25-1.19-.22s-1.27-.31-1.64-.4c-.42-.1-1.35.27-1.27-.31.16-1.1,2.11-3.31,3-4.02,1.82-1.47,5.18-2.66,7.5-2.51,1.76.12,3.4,1.03,5.09,1.51,1.17.34,1.16-.04,2.31.9,1.66,1.35,2.79,3.68,2.91,5.82Z"/>
  <path class="cls-12" d="M3.22,13.12c.74-.15,2.15-.09,2.95-.04,3.78.2,7.8.9,11.61,1.2,2.16.17,7.11-.18,8.69.92s1.33,2.29-.53,2.65c-4.42.86-15.72-.46-20.54-1.18-.88-.13-4.32-.51-4.09-1.85.38-.72,1.06-1.53,1.9-1.7Z"/>
  <path class="cls-13" d="M27.04,4.69c.36.44.16,1.37-.24,1.76-.86.85-3.84.44-4.49-.74-.15-.91,3.84-2.13,4.73-1.02Z"/>
  <path class="cls-18" d="M21.09,5.24l-2.42-.73c-1.63-5.51,2.75-2.7,2.42.73Z"/>
  <path class="cls-7" d="M19.89,18.9c1.23.03,2.48-.04,3.71,0,.39.01.8-.2.69.4-1.6.04-3.21-.03-4.8,0l.4-.4Z"/>
  <path class="cls-9" d="M19.89,18.9l-.4.4-6-.6c2.12.11,4.28.15,6.4.2Z"/>
  <path class="cls-1" d="M1.88,26.34c-.2-1.39-.17-1.64,0-3.01.34.79.33,2.27,0,3.01Z"/>
  <path class="cls-10" d="M13.68,28.15s.3-.58.42-.69l-.38-4.03c.37-1.15-.32-2,.96-2.61,1.21-.57,3.54-.6,4.67.13,1.91,1.23,1.02,2.88-.31,1.78-.39-.33-.39-.87-1.06-1-1.39-.27-3.1.05-3.11,1.7,0,1.16.94,4.28.52,5.13-.5,1-2.98.38-3.78.6-.16.04-.11.7-.52.4-.02-.02.05-.35-.13-.4-.75-.2-1.19.19-2.21-.36-3.08-1.66.78-6.48.34-6.87-1.02.17-1.29-.61-2.3-.76-1.39-.2-1.58.86-2.88.74-.25-.58-.25-.67.17-1.1.87-.88,2.89-1.17,4.02-.81.48.15.68.66,1,.81.54.26,1.12-.06,1.45.77.4,1-2.3,4.46-1.27,5.88.08.11,1.05.69,1.12.69.59,0,3.02.12,3.3,0Z"/>
  <path class="cls-15" d="M6.61,29.77c.59-.19,2.34,1.15,3.14,1.42,1.58.54,2.94.47,4.54.07.72-.18,2.74-1.31,2.9-1.31.33,0,.67.37.7.71,0,1.12-4.19,2.18-5.13,2.29-1.62.18-2.83,0-4.28-.69-.77-.36-2.91-1.52-1.88-2.49Z"/>
  <path class="cls-3" d="M19.94,29.1c-.54-.47,0-2.89.43-3.38s1.61-.5,2.21-.38c1.66.32,1.38,3.8-.59,4.02-.42.05-1.77,0-2.06-.25Z"/>
</svg>