<?xml version="1.0" encoding="UTF-8"?>
<svg id="_레이어_1" data-name="레이어 1" xmlns="http://www.w3.org/2000/svg" viewBox="0 0 397.68 728.91">
  <defs>
    <style>
      .cls-1 {
        fill: #2e2813;
      }

      .cls-2 {
        fill: #f2de9d;
      }

      .cls-3 {
        fill: #e48e22;
      }

      .cls-4 {
        fill: #b4c759;
      }

      .cls-5 {
        fill: #76a8ac;
      }

      .cls-6 {
        fill: #ebe8a8;
      }

      .cls-7 {
        fill: #e5b33b;
      }

      .cls-8 {
        fill: #a5bb57;
      }

      .cls-9 {
        fill: #dc962e;
      }

      .cls-10 {
        fill: #a0b557;
      }

      .cls-11 {
        fill: #a9a654;
      }

      .cls-12 {
        fill: #b1c956;
      }

      .cls-13 {
        fill: #aab96a;
      }

      .cls-14 {
        fill: #abc256;
      }

      .cls-15 {
        fill: #e2eab1;
      }

      .cls-16 {
        fill: #d09a37;
      }

      .cls-17 {
        fill: #e7e197;
      }

      .cls-18 {
        fill: #273323;
      }

      .cls-19 {
        fill: #e6b33a;
      }

      .cls-20 {
        fill: #c3d868;
      }

      .cls-21 {
        fill: #deae3d;
      }

      .cls-22 {
        fill: #d9af4a;
      }
    </style>
  </defs>
  <path class="cls-18" d="M76.99,578.16c.18,3.81-5.74,5.27-6.3,7.74-.61,2.71,2.85,6.64.31,9.32-8.41,8.21-15.09,18.72-24.71,25.3-.75-.19-5.9-14.25-6.03-15.62-.57-5.76,2.89-11.01,2.43-16.71-.97-1.44-4.29-.73-6.07-1.42-5.14-2-11.08-13.06-15.52-17.22-.3-1.8.11-1.27,1.16-1.75,4.65-2.13,12.5,5.05,18.08,2.81.74-.3,1.01-.56,1.01-.79l1.38-.08c.27,1.6.57,3.01.79,3.38,1.58,2.61,3.63-.21,5.05-1.02l.91,3.03c-.33.32-.65.82-.91,1.01-7.1,3.08-13.93-3.42-21.07-4.03-.67.65,5.22,8.14,5.82,8.71,3.87,3.72,7.68,4.09,12.47,5.45-.15,3.47-1.53,6.58-1.8,10.04-.03.33,0,.67,0,1.01-4.15,1.92,2.23,20.23,3.2,20.15.84-.57.98-2.15,1.68-2.66,5.95-4.36,13.46-13.22,18-19.48.02-.01.02-.02.03-.03.1-.15,1.85.95,2.32-1.96.62-3.77-2.88-7.31.42-11.15.32-.32.61-.7.92-1.01,1.84-.51,3.58-1.72,5.11-3.23l1.32.21Z"/>
  <path class="cls-18" d="M108.3,573.35c-3.13,1.2-6.59,2.24-7.29,3.02-1.03,1.14-7.37,17.24-8.46,19.94-.32.79-.69,2.94-1.51,3.11l-9.51-2.57c-.99-1.12-2.41-20.38-4.54-18.69l-1.32-.21c1.18-1.17,2.25-2.51,3.14-3.83.32.02.7-.08.91,0l3.88,20.95,7.12,1.24c.11-.64-.13-1.47,0-2.02.08-.31-.08-.7,0-1.01,1.84-1.53,2.1-3.84,2.75-6.05.09-.3-.09-.7,0-1.01,2.27-1.84,5.19-10.89,6.81-12.17,1.65-1.32,4.9-1.2,7.44-2.15l.58,1.45Z"/>
  <path class="cls-11" d="M141.92,686.98c.6-1.34.95-2.44.82-2.98-2.6-4.69-6.76-6.81-10.42-9.79-2.76-2.24-2.9-5.26-7.29-5.11-3.2.11-6.52,2.67-9.65,3.6-13.16,3.91-31.02,6.37-43.08,12.09-6.83,3.24-13.72,10.18-20.67,13.57-3.1,2.97.07,12.89.75,16.94,3.84.73,6.23,6.02,10.25,6.17,4.11.15,9.43-3.34,12.95-3.86,6.26-.92,10.98.77,17.23.47,2.65-.11,5.58-.6,9.02-1.79,4.6-1.6,26.12-10.24,29.07-12.38.83-.6,4.17-5.41,5.2-6.87,1.05-1.5,4.28-6.6,5.82-10.06ZM128.52,663.23l20.7,21.65-.39,2.46c-2.51,2.24-6.47,6.28-8.21,9.12-3.71,6.07-2.33,9.78-10.07,13.11-2.84,1.23-6.57,1.17-8.99,2.22-8.51,3.69-18.39,10.18-27.79,11.77-7.49,1.27-17.84-2.93-24.16.64-2.24,1.28-3.15,4.3-7.05,4.46-3.94.15-5.79-5.81-7.95-7.75-1.64-1.46-5.62-2.1-6.6-4.34-1.72-3.93.91-12.55-5.02-16.67l-.02-1.48c3.92.15,6.03-3.97,8.87-5.88,17.26-11.6,27.58-15.31,47.18-20.7,9.73-2.67,20.23-3.2,29.5-8.61Z"/>
  <path class="cls-10" d="M151.24,240.82c-2.23,2.48-10.43,1.39-10.95,5.64l-1.74-.07.09-2.2c1.32-.38,2.15-2.59,3.46-3.34,1.78-1.02,5.13-.91,6.36-2.07,1.21-1.16.96-4.14,1.92-5.96,1.02-1.95,9.77-9.07,11.57-9.49,2.4-.56,5.6,2.25,7.85,1.65.97-.25,6.81-5.79,7.06-6.89h2.75c-2.21,2.87-5.26,9.81-9.58,9.95-3,.1-5.73-2.09-9.63-.33-.53.24-7.17,5.48-7.43,5.94-1.4,2.46-.23,5.5-1.73,7.17Z"/>
  <path class="cls-18" d="M252.76,5.91l4.27-5.66c.77,2.3,3.58,4.76,4.39,6.31,2.95,5.67,5.59,11.86,8.15,18.23l-2.06.84c-1.9-4.7-3.89-9.14-6.05-13.01-.34-.6-4.97-6.23-5.35-6.32-.71-.17-1.28.23-1.73.84l-1.62-1.23Z"/>
  <path class="cls-1" d="M101.83,716.29c-3.44,1.19-6.37,1.68-9.02,1.79l-.11-2.2c.24-.01.47-.03.7-.06,3.56-.41,34.2-13.39,36.3-15.58,1.98-2.06,4.1-6.6,5.84-9.21.69-1.02,2.95-2.47,3.77-4.19l2.61.14c-1.54,3.46-4.77,8.56-5.82,10.06-1.03,1.46-4.37,6.27-5.2,6.87-2.95,2.14-24.47,10.78-29.07,12.38Z"/>
  <path class="cls-2" d="M199.04,292.54c-1.46-6.03,6.7-13.22,11.25-8.89,2.3-.49.62-7.74,2.53-9.85,2.34-2.58,9.39-.89,10.57-5,1.89-6.62-.92-7.22,7.28-10.14,3.43-1.23,17.15-5.03,20.16-4.97,2.51.06,9.66,6.44,11.72,6.43l-.08,1.7c-4.67-.06-8-5.24-12.77-5.47-2.26-.11-20.83,5.39-21.6,6.79-1.18,2.15-.46,6-2.02,8.13-2.24,3.07-9.02,2.73-10.28,4.3l-1.49,9.95c-.86,1.53-13.94-1.31-12.62,6.1l4.33,3.1-1.07,1.49c-1.91-1.33-5.62-3.13-5.91-3.67Z"/>
  <path class="cls-8" d="M98.31,152.64v.14s-10.73-1.13-10.73-1.13c-3.9,4.18-.41,6.37,1.31,9.96-1.42-.3-4.03.72-5.1-.94l-.39-12.17c.84-.98,11.14,3.62,13.36,3.95.51.07,1.03.14,1.55.19Z"/>
  <path class="cls-10" d="M208.02,371.4c-2.76,5.79,3.46,10.36-1.72,15.83l.28,1.34c1.59,2.69,15.97,7.32,19.68,9.65,2.84,1.78,6.83,6.22,9.72,8.46,3.17,2.47,11.77,4.87,10.39,10.39-.25.99-1.15,1.84-2.09,2.73l-1.42-1.63.04-.04-1.37-4.45c-5.33-2.91-9.68-7.76-14.71-11.03-2.6-1.69-22.49-12.26-23.79-12.14-2.69.25-5.37,7.1-9.18,9.17-1.2.65-2.92,1.07-4.61,1.49l-.6-2.36c.97-.32,2.17-.85,3.73-1.77.82-.48,10.76-10.53,11.43-11.58,2.2-3.49,1.95-7.98-.95-10.9-6.41-.22-20.68-.35-25.58-5.13-1.6-1.56-2.7-5.51-3.84-10.02l2.04-.38c.75,3.08,1.55,5.69,2.57,7.04,4.92,6.51,20.23,6.39,27.23,5.33.87-.14,1.92.17,2.75,0Z"/>
  <path class="cls-20" d="M144.27,345.19c2.01.38,3.69,3.14,5.39,2.81,1.87-.36,9.3-7.19,11.38-7.68,7.49-1.75,10.04,9.85,12.39,19.09,1.14,4.51,2.24,8.46,3.84,10.02,4.9,4.78,19.17,4.91,25.58,5.13,2.9,2.92,3.15,7.41.95,10.9-.67,1.05-10.61,11.1-11.43,11.58-1.56.92-2.76,1.45-3.73,1.77-4.17,1.4-3.88-.99-9.05,8.15-2.23,3.95-7.59,15-8.07,19.67-.32,3.21,1.55,6.14.58,9.61-.64,2.27-3.6,2.67-3.59,6.27.02,3.5,4.62,6.79,5.82,9.83,2.71,6.84-3.69,13.53-6.63,18.91-.68.01-1.9.02-1.84,1-.5-.17-1.39.2-1.83,0-1.75-3.72-1.62-1.31-3.67-3.02-.6-.51-1.26-1.37-1.83-2.02-1.83-2.09-.43-2.91-3.66-4.03-4.07-1.42-5.87,3.47-9.66,6.01-9.04,6.06-7.7-.59-15.52-1.04-5.97-.34-12.33,4.56-18.81,3.1l-.39-8.19c-3.02-2.67-3.57-10.36-8.24-9.99-1.87.14-3.1,2.3-5.34,1.85-1.61-.33-2.69-1.65-3.49-3.03-1.03-1.79-1.6-3.68-2.22-3.74-2.95.6-7.4,6.16-9.4,6.79-2.87.91-6.44-1.93-9.71-.68-3.33,1.28-8.26,18.71-17.11,12.95h-.01c-.62-.43-.82-2.78-3.21-3.02-2.2-.23-6.13,1.86-8.43,1.73-2.4-.14-9.26-3.71-8.51-7.79.55-.64.9-2.4,1.81-3.52,3.12-3.85,7.08-7.76,10.13-12.08l22.89-3.57c-.85-14.04-14.07-5.23-22.38-9-.25-.01-.42-.17-.53-.39-.27-.59-.1-1.68.07-2.12.52-1.38,20.71-14.81,23.1-15.92,2.72-1.27,6-.71,8.51-2.77,1.21-1.92-3.19-7.07-3.3-9.72-.05-1.52,1.41-4.06,1.86-6.46.15-.84-.04-2.06,0-3.03,0-.04.01-.09.03-.14.02,0,.04.01.06.02.02-.43,1.1-1.55.85-2.42l-1.44-1.46-14.99-1.16v-5.94c4.31.12,8.7-.48,12.93-1.3,4.84-.93,10.78-1.35,13.69-4.85.1-.12.2-.25.29-.38.16-.19.3-.4.42-.61.9-1.5,1.33-3.46,1.08-6.08l-23.15,1.82-19.08-15.58c.25-2.85.71-5.84,2.35-7.93.09-.12.19-.24.29-.35.28-.3.59-.58.93-.83v-.04s.07-.05.1-.08c.21-4.83,5.67-12.57,5.65-16.88-.03-5.36-8.74-7.37-10.82-12.06.5-4.58,9.51-13.45,7.17-17.2-1.71-2.75-6.45-3.7-7.27-8.27-.91-5.1,3.46-15.25,1.67-21.45-.65.47-1.23,1.02-1.76,1.61-.13.14-.26.28-.37.42-.22.25-.42.5-.61.76-1.19,1.54-2.19,3.29-3.28,4.93-.21.32-.43.63-.65.94-.11.15-.22.3-.34.45-.31.41-.63.8-.98,1.17-1.15,1.21-2.5,2.2-4.24,2.72-2.83-1.92-8.49-7.88-11.35-8.72-4.56-1.35-12.51,2.63-17.71.33-2.01-1.59-.01-11.33-3.61-12.21l-.02-1.89c.73-.29,1.52-.98,2.32-1.88.44-.47.88-1.01,1.32-1.57,1.31-1.67,2.65-3.64,3.89-5.22.34-.43.68-.82,1-1.17.11-.12.21-.23.32-.34.63-.63,1.23-1.07,1.76-1.19,4.41-1.02,5.6,12.05,9.77,10.78.68-.21,10.73-8.39,11.35-9.25.01-.01.02-.02.03-.04.03-.03.05-.06.07-.08,1.22-1.67,2.11-7.95,3.22-9.5.1-.12.2-.19.31-.22l3.98.04c.36,2.49-1.15,10.19,1.48,11.02.77.24,11.77-2.72,13.18-3.44.92-.47,1.61-1.12,2.16-1.77.52-.6.92-1.22,1.31-1.72.49-.62.95-1.07,1.55-1.15,2.73-.35,15.32,3.89,17.94,5.57,4.27,2.75,2.64,5.44,4.26,9.41.65,1.58,3.93,3.38,3.02,7.3.37.38.77.35,1.19.03,1.93-.91,4.34-6.73,5.32-9.23.21-.31.47-.7.73-1.13,1.12-1.05,2.8-.84,4.67-1.77,1.4-.71,2.18-1.21,2.76-1.67.01,0,.01-.01.02-.01s.01-.01.02-.02c1.12-.79,2-1.61,2.7-2.34,3.8-2.85,5.6-1.25,8.93-2.77,3.25-1.48,4.19-6.59,9.61-5.09,1.89.53,14.21,9.44,15.4,11.35.96,1.56.68,3.59,1.81,5.07,1.51,1.95,9.38,5.74,9.98,8.26.04,6.25-5.73,2.77-8.69,6.3-.54.64-.99,1.32-1.36,2.02-5.3,10.05,5.35,25.91.44,36.31-1.33,2.82-2.52,5.02-3.57,7.13-1.98,4.05-3.4,7.75-4.05,14.73-.38,4.13.52,12.48,3.1,15.57,1.61,1.95,5.27-.57,8.2-.02Z"/>
  <path class="cls-10" d="M122.25,235.25c4.11.44,13.2,9.87,16.39,8.94l-.09,2.2-.14,3.43c-1.19-1.91-13.51-10.82-15.4-11.35-5.42-1.5-6.36,3.61-9.61,5.09-3.33,1.52-5.13-.08-8.93,2.77-.24-2.3.76-4.23,2.75-5.04.7-.29,2.3.15,3.65-.47,3.59-1.66,7.8-5.96,11.38-5.57Z"/>
  <path class="cls-6" d="M307.31,231.96c-1.38.16-6.17-2.2-8.57-2.77.3-1.34-.54-2.16-1.78-2.64l.73-1.82,11.09,4.43,1.43.94c-.68.91-1.6,1.71-2.9,1.86Z"/>
  <path class="cls-10" d="M143.03,288.92c.21.71,1.59.76,1.73,1.49.66,3.38-.39,8.46,1.13,12.18l7.94,1.36,1.11,5.84c14.69-.12,11.28,9.43,9.25,18.41l-1.54-.34c.68-3.03,1.25-5.76,1.33-6.49,1.36-13.41-8.31-6.72-11.02-8.89l-2.33-5.51c-1.5-.59-5.7-.17-7.07.8-.35.24-4.12,6.37-4.85,7.71l-1.69-.57c1.05-2.11,2.24-4.31,3.57-7.13,4.91-10.4-5.74-26.26-.44-36.31l2.26.46c-2.54,4.88-.85,12.07.62,16.99Z"/>
  <path class="cls-18" d="M46.07,313.42c2.08,4.69,10.79,6.7,10.82,12.06.03,4.3-5.41,12.01-5.65,16.84-.35.26-.66.55-.93.87-.1.11-.2.23-.29.35-1.72,2.1-2.19,5.14-2.44,8.05l-1.04,1.1-2.2-2.07,10.49-25.25-11.35-11.05c-.22-2.15,5.76-14.67,7.95-16.17l-5.01-5.72,1.25-1.09c1.79,1.95,4.39,2.99,5.57,4.88,2.34,3.75-6.67,12.62-7.17,17.2Z"/>
  <path class="cls-18" d="M91.75,256.25c-1.08,2.34-2.35,5.38-3.5,6.25-.21.1-.41.15-.6.12-.17-.02-.33-.11-.49-.27.91-3.92-2.37-5.72-3.02-7.3-1.63-3.97.01-6.66-4.26-9.41-2.62-1.68-15.21-5.92-17.94-5.57-.65.08-1.13.59-1.65,1.27-.39.5-.79,1.12-1.31,1.72-.54.61-1.19,1.2-2.06,1.65-1.41.72-12.41,3.68-13.18,3.44-2.63-.83-1.12-8.53-1.48-11.02l-3.98-.04c-.14.04-.27.15-.41.34-1.15,1.31-2.06,7.81-3.29,9.58,0,.02-.02.03-.03.04-1.23,1.31-10.59,8.93-11.25,9.13-4.17,1.27-5.36-11.8-9.77-10.78-.56.13-1.19.61-1.86,1.31-.08.07-.15.14-.22.22l-1.35-1.29,4.26-4.47,2.32.63c1.34,3.36,3.25,7.24,5.17,10.21.36.55,0,1.92,1.57,1.22.51-.23,8.33-6.91,8.77-7.5,2.71-3.52,2.02-8.89,3.15-10.66,1.46-2.3,7.29-.34,9.56.15l.11,9.98c3.39-2.05,7.86-1.41,11.24-3.24,2.96-1.61,3.17-5.92,6.61-5.73,1.04.06,18.01,6.81,19.48,7.74,1.82,1.15,3.79,4.22,4.81,6.28-.41,3.31-.2,4.1,2.74,5.04l1.86.96Z"/>
  <path class="cls-18" d="M133.79,553.95c.98,2.74,4.1,2.48,4.29,5.64.87,14.61-7.82,16.63-18.96,17.04l-1.82,5.56,4.92.62-.2,1.55c-2.87-.33-6.62-.04-8.4-.15-.06-1,.08-2.03.01-3.03l4.57-7.59c2.31-1.57,5.58,1.03,8.5.37,5.55-1.26,9.11-6.27,8.96-12.5-.1-4.1-5.19-6.55-8.26-5.01-2.8,1.42-10.93,12.08-14.92,14.89-1.01.71-2.55,1.38-4.18,2.01l-.58-1.45c.84-.31,1.6-.73,2.2-1.36l19.29-18.61h.91c.39,1.94,1.71,1.54,2.75,2.02.26.12.65-.11.92,0Z"/>
  <path class="cls-4" d="M82.9,138.43c3.37-.1,8.94,4.78,5.99,9.06-2.4-.84-4.73-2.04-7.33-2.01v16.13c-4.66-.08-3.81,7.73-3.67,11.1-.43-.51-.78-1.09-1.07-1.71-1.3-2.7-1.59-6.23-2.65-8.61-.37-.83-1.5-.98-1.74-1.54-1.57-3.68-4-12.25-5.49-14.66-1.78-2.85-9.86-3.98-10.17-5.42l.09-15.42,8.2-1.06.67,7.75.24,2.85,10.09,2.52c-1.81,1.1-2.17,1.58-1.84,4.03,3.77,2,6.99-2.96,8.68-3.01Z"/>
  <path class="cls-18" d="M88.79,371.31c-.12.22-.25.42-.39.61-.09.13-.19.26-.29.38-2.94,3.39-8.81,3.81-13.59,4.73-4.26.83-8.69,1.43-13.03,1.3v.12h-.1v6.06l14.99,1.16,1.44,1.46c.23.79-.64,1.78-.81,2.28-5.71-2.24-11.26-2.09-17.25-2.1l-1.94-9.97c1.27-.15,2.43-.75,3.68-1.02,3.84-.83,23.91-2.83,25.25-4.99.05-.07.09-.15.13-.23l1.91.21Z"/>
  <path class="cls-18" d="M91.75,256.25c.67-1.45,1.26-2.63,1.72-2.86.23-.56.5-.96.83-1.25-.26.43-.52.82-.73,1.13-.98,2.5-3.39,8.32-5.32,9.23,1.15-.87,2.42-3.91,3.5-6.25Z"/>
  <path class="cls-10" d="M352.8,460.15c-1.22.01-2.44,0-3.66,0-.03-.33.01-.67,0-1.01,6.96-2.41,15.15-.27,21.07,4.04-.25,1.49.25,3.53,0,5.04-.76-1.89-7.14-6.26-8.24-5.04-.17.18.32,1.96-.19,2.75-.12.2-2.46,1.87-4.01,2.94l-.36-1.58c.25-.05.51-.12.76-.22,2.69-7.23.18-6.95-5.37-6.92Z"/>
  <path class="cls-22" d="M70.56,581.18c2.49-2.42,5.22-7.26,8.25-7.06-.89,1.32-1.96,2.66-3.14,3.83-1.53,1.51-3.27,2.72-5.11,3.23Z"/>
  <path class="cls-10" d="M152.88,266.85c-1.1,3.49-9.01,2.77-10.02,4.32-.16.25-.31.5-.45.76l-2.26-.46c.37-.7.82-1.38,1.36-2.02,2.96-3.53,8.73-.05,8.69-6.3-.6-2.52-8.47-6.31-9.98-8.26-1.13-1.48-.85-3.51-1.81-5.07l.14-3.43,1.74.07c-.14,1.24.36,2.93,1.86,5.3,3.3,5.21,13.54,6.21,10.73,15.09Z"/>
  <path class="cls-18" d="M37.55,503.78c.73,1.22,2.84,1.17,2.81,3.24,0,5.36-3.25,7.02-3.69,12.15-.64,7.41,1.37,14.31.9,21.67l-1.84.09c-.29-6.88-2.26-14.16-1.86-20.81.26-4.38,3.22-9.59,2.79-12.99-.46-3.71-6.55-10.11-7.28-15.27.35-2.42.32-5.09.13-7.86l1.5-.1c.37,6.63,1.9,12.19,6.54,19.88Z"/>
  <path class="cls-18" d="M89.33,220.13c1.4,3.37-.23,5.81-.38,8.27h-1.93c.11-2.34.42-4.89-.09-6.67-.52-1.79-2.37-1.34-2.62-1.62-3.87-4.15-9.15-7.51-12.29-11.19-1.27-1.49-8.01-13.39-8.42-14.98-1.51-5.7,14.44-3.42,14.15-8.43-2.08-4.1-1.51-9.54-2.94-13.75l2.01-.76c.29.62.64,1.2,1.07,1.71.02.33-.02.67,0,1,.42,5.59,2.9,10.62,2.63,16.04-.52.41-1.45-.06-1.71.1l-12.83,3.04c1.86,3.21,3.37,6.86,5.23,10.18,1.23,2.22,2.61,4.29,4.35,5.99.87.85,2.08.74,2.33.96,2.22,2,10.76,8.48,11.44,10.11Z"/>
  <path class="cls-6" d="M129.69,468.15c7.82.45,6.48,7.1,15.52,1.04,3.79-2.54,5.59-7.43,9.66-6.01.02.67-.04,1.35,0,2.01-3.68-.26-5.08,3.69-7.94,5.9-10.8,8.31-10.28-.6-18.29-.84-1.94-.06-3.33,1.68-5.23,2.18-2.47.64-13.8,4.1-15.15,1.7.95-3.68-2.79-17.9-6.03-17.99l-5.99,1.53-3.24-5.53.42-.25c.8,1.38,1.88,2.7,3.49,3.03,2.24.45,3.47-1.71,5.34-1.85,4.67-.37,5.22,7.32,8.24,9.99l.39,8.19c6.48,1.46,12.84-3.44,18.81-3.1Z"/>
  <path class="cls-15" d="M141.08,66.36c.48.2.92.5,1.34.85l-1.4,1.72-12.79-.55-2.22-9.65-10.55-4.03c2.16-1.44,4.29-2.65,6.42-4.03-.84,4.94,6.16,3.99,7.78,8.08.8,2.01-.03,5.54,1.32,6.61,3.31,1.2,6.8-.4,10.1,1Z"/>
  <path class="cls-8" d="M126.29,151.74c.49.54.03,1.44.17,1.8-.33.31-.61.67-.92,1.01-.87-1.92-1.27-1.94-3.12-2.09-7.6-.58-16.53.92-24.11.18-.52-.05-1.04-.12-1.55-.19-2.22-.33-12.52-4.93-13.36-3.95l.39,12.17c1.07,1.66,3.68.64,5.1.94.29.06.62-.04.91,0l.92,1.01v6.06c7.72-.8,15.19-2.49,22.91-1.01l.92,4.03c-.57.04-1.29.08-1.84,0-3.21-.5-4.8-3.01-5.11-3.03-1.68-.1-5.27,1.79-6.8,2.02-.59.09-1.24-.09-1.83,0-1.46.22-9.73,1.41-10.08,1.01.83-6.08-1.13-8.28-6.42-9.08-.15-.09-.36-1-.91-1.01v-16.13c2.6-.03,4.93,1.17,7.33,2.01,2.91,1.02,5.56,2.66,8.7,3.03,5.24.63,25.97-1.27,28.7,1.22Z"/>
  <path class="cls-20" d="M193.35,207c1.39-9.39,3.74-18.65,5.26-28.01.95-5.89.5-16.12,2.95-20.7.74-1.38,3.92-1.31,2.72-5.16-.75-2.41-13.04-3.51-16.02-4.58-4.46-1.59-11.03-9.02-15.07-5.09-.2-.08-1.68,1.68-3.65-1.02l-1.84,3.03c.99-2.43-.4-5.2-.02-7.36.11-.67,2.92-.98,2.76-5.75.33-2.53,2.56-6.37,2.64-8.53.11-3.21-2.85-7.39-2.5-9.9.43-3.11,4.69-4.99,4.44-9.23-.07-1.22-7.22-14.08-7.98-14.48-1.76-.92-5.12-.57-6.43-1.5-2.33-1.66-2.61-9.44-4.17-11.55-1.53-2.05-6.77-2.63-9.24-4.45-1.62-1.2-2.97-3.94-4.78-5.51-.42-.35-.86-.65-1.34-.85-3.3-1.4-6.79.2-10.1-1-1.35-1.07-.52-4.6-1.32-6.61-1.62-4.09-8.62-3.14-7.78-8.08,2.2-1.43,7.07-6.49,9.43-7.01.08-.02.15-.03.22-.04,6.78,2.29,14.1.02,20.97,1.08,2.54.4,5.09,2.41,7.34,2.91.34.07.67.12,1,.11,2.64-.03,4.43-2.9,6.82-3.64,3.21-.98,18.24.89,22.41,1.63,2.71.48,5.43,2.75,7.46,2.9,2.31.17,5.49-1.7,8.2-1.97,2.54-.25,4.85-.07,7.09.17,4.2.45,8.13,1.12,12.81-.46,7.86-2.65,16.33-9.14,24.39-11.98,1.12-6.64,1.25-14.89,2.55-21.69.17-.89.36-1.76.58-2.6.21-.77.6-2.07,1.23-2.94.45-.61,1.02-1.01,1.73-.84.38.09,5.01,5.72,5.35,6.32,2.16,3.87,4.15,8.31,6.05,13.01,4.9,12.08,9.27,25.93,14.88,36.52,9.62,18.2,33.81,45.63,47.14,63.05.95,1.25,3.01,1.87,3.58,3.11.43.94.58,1.92.58,2.9,0,2.82-1.21,5.67-.39,7.91.81,2.22,6.67,9.89,8.49,12.63,2.53,3.81,6.06,8.34,9.09,12.71,1.41,2.06,2.72,4.07,3.77,5.97,2.75,4.97,4.78,18,7.25,21.01,1.53,1.87,4.34,1.32,5.56,2.45l-.15,21.52c-3.25,1.5-8.15,10.52-10.41,10.78-3.65.42-5.89-4.67-8.37-4.9-1.93-.18-5.11,4.65-8.06,4.75-4.65.18-11.72-5.65-16.07-3.39-1.38.71-1.85,3.17-4.18,3.54-5.01.8-9.65-9.1-11.44,2.97l-11.09-4.43-24.24-9.67-5.87,2.02c.68-11.42-3.22-8.4-10.99-8.07l1.81-5.56-2.46-3.36c-9.79,2.44-19.91-1.72-29.02,3.94l-5.2-6.23-2.37-2.84c-1.56-.3-9.45,11.18-8.58,14.05-1.97,1.18-6.15,3.47-8.25,2.02-.16-.11.62-3-2.3-2.04-.33.11-.42,2.04-.97,2.08-1.57.09-6.33-1.43-5.9-4.07Z"/>
  <path class="cls-8" d="M171.36,471.25c4.52-5.91,8.44-12.24,6.23-20.47-.7-2.62-6.16-5.47-6.07-8.12.77-2.81,3.45-3.46,4-6.69.5-3-1.45-5.57-1.35-8.52.17-4.75,4.13-9.56,5.69-12.94,1.18-2.54,2.79-9.7,4.33-11.34.91-.96,2.95-1.48,5.05-2,1.69-.42,3.41-.84,4.61-1.49,3.81-2.07,6.49-8.92,9.18-9.17,1.3-.12,21.19,10.45,23.79,12.14,5.03,3.27,9.38,8.12,14.71,11.03l1.37,4.45-.04.04-8.27,7.2c-.67,3.51,5.85,2.23,7.7,2.61,7.02,1.41,16.79,5.3,23.71,3.71,1.87-.43,3.99-2.26,6.1-3.14,1.44-.61,2.88-.78,4.23.24,2.23,1.68,1.86,4.65,5.68,5.9,8.64,2.82,22.21.82,31.35,1.71,2.85-1.69,8.56-7.07,11.49-6.58.13.02.25.05.36.08,1.66.5,1.51,2.26,2.64,3.01,3.46,2.28,1.73-.35,4.79,4.04.3.43.35.73.92,1.01-.53,4.87,6.77,8.1,7.79,10.09.76,1.48.15,3.27.72,4.78.28.75,5.45,5.9,7.07,5.3.04.33-.01.68,0,1.01.01.34-.03.68,0,1.01.04.67-.06,1.35,0,2.02h3.15s.51-2.02.51-2.02c5.55-.03,8.06-.31,5.37,6.92-.25.1-.51.17-.76.22-2.73.49-5.77-1.84-8.24-.61-1.28.65-2.7,3.46-4.16,4.56-3.72,2.8-6.92,3.55-10.1,8.05-1.86,2.64-2.76,6.97-3.83,8.15-4.86,5.39-18.69-.17-17.77,12.95l-9.99.11c-7.27-2.65-11.18-10.77-16.93-14.16-5.98-3.51-5.89,7.22-3.51,11.9.66,1.31,1.87.96,2.17,1.86.09.3.09.73-.06,1.4-3.3.78-6.09-2.5-8.92-2.81-4.87-.54-13.24,9.79-18.56,11.4-.4,1.74.61,1.65,1.79,2.01,1.66.51,3.42.5,5.17.63,1.36.11,2.72.3,4.02.89.66,4.15-2.5,4.4-4.58,6.04-3.27,2.58-1.49,4.43-.92,8.06l-3.18.06c-.17-3.46-2.1-2.83-2.31-3.08-.36-.43,1.13-2.52-2.1-1.85-2.37.49-2.61,2.61-4.31,3.87-6.19,2.12-12.38,3.85-18.78,5.04-2.38-.26-4.87-4.67-6.32-6.71-.36-.51-1.48-.27-1.48-.35v-15.13c-2.16-.64-1.55.63-2.09,1.29-1.52,1.87-3.66,6.06-5.46,7.04-3.99,2.15-18.06,3.57-23.61,4.78l.82-9.97c-8.6-.06-7.16-10.56-10.24-13.95-2.3-2.54-7.7-1.55-10.74-7.34l-.07-.15-.26-.57-.58-1.3c-.35-1.95-.05-5.8,0-8.07,0-.19,1.09-1.5,1.01-3.45-.11-2.47-1.62-4.27-1.93-6.63Z"/>
  <path class="cls-3" d="M210.29,283.65c-4.55-4.33-12.71,2.86-11.25,8.89.29.54,4,2.34,5.91,3.67.43.31.78.59.96.83,2.08,2.71-.58,18.47.02,23.15-1.15,5.72-8.85,8.4-7.62,13.89.26,1.19,3.45,7.98,4.45,8.43,7.86,1.33,15.66-5.21,20.83,4.19.31,2.13-.31,1.19-1.26,1.6-2.46,1.06-4.95.95-7.02,3.42-4.63,5.54-2.62,15.73-10.04,19.68-7,1.06-22.31,1.18-27.23-5.33-1.02-1.35-1.82-3.96-2.57-7.04-1.79-7.29-3.36-17.2-7.09-19.17-2.38-1.26-4.6.56-5.07-3.5-.29-2.43.23-5.27.88-8.16,2.03-8.98,5.44-18.53-9.25-18.41l-1.11-5.84-7.94-1.36c-1.52-3.72-.47-8.8-1.13-12.18-.14-.73-1.52-.78-1.73-1.49-1.47-4.92-3.16-12.11-.62-16.99.14-.26.29-.51.45-.76,1.01-1.55,8.92-.83,10.02-4.32,2.81-8.88-7.43-9.88-10.73-15.09-1.5-2.37-2-4.06-1.86-5.3.52-4.25,8.72-3.16,10.95-5.64,1.5-1.67.33-4.71,1.73-7.17.26-.46,6.9-5.7,7.43-5.94,3.9-1.76,6.63.43,9.63.33,4.32-.14,7.37-7.08,9.58-9.95.17-.21,2.94.73,1.84-4.04,4.7,2.4,5.08-.56,7.9-4.11l4.78,2.26-.78,1.85c4.22,1.13,2.91-3.28,6.77-.93l2.4-2.09c2.1,1.45,6.28-.84,8.25-2.02.23-.14,1.04.24,1.57-.26,1.53-1.44,5.47-10.46,8.03-9.82l3.23,10.09c4.36,1.27,6.51-4.01,9.81-4.84,1.95-.49,14.76-1.31,17.11-1.17,1.1.06,2.18.95,3.31.97l-2.74,8.05,12.24-.86c2.35.88,1.07,3.68,1.5,4.9l.05.06s.01.01.02.01l.85.94c.11.32-.14.81,0,1.01.4.62.45,1.67,1.5,1.84,7.17-1.13,12.59,2.39,19.11,4.22,2.63.74,1.07,1.78,1.38,4.03-.29.1-.66-.11-.92,0-2.26.97-3.45,1.36-5.49,3.02-.15.12.14.89,0,1.01-.73.63-1.75,1.16-2.75,2.02-2.91,2.5-5.21,6.15-8.96,7.29-2.2,4.92,2.16,11.55-2.07,15.37-.49.44-4.71,3.22-5,3.23-2.06.01-9.21-6.37-11.72-6.43-3.01-.06-16.73,3.74-20.16,4.97-8.2,2.92-5.39,3.52-7.28,10.14-1.18,4.11-8.23,2.42-10.57,5-1.91,2.11-.23,9.36-2.53,9.85Z"/>
  <path class="cls-9" d="M78.96,513.94c8.71,2.84,16.63-4.18,25.38-3.49l2.43-14.26.36-2.11c-.66-2.12-6.21-3.09-8.16-3.67-5.79-1.71-21.92-2.08-27.49,0,2.28-3.3-1.24-2-2.51-1.25-6.05,3.58-8.89,7.96-7.53,15.64.42,2.38,9.7,5.03,12.13,6,1.94.77,3.47,2.51,5.39,3.14ZM145.7,542.86c-.5.2-1.6-.41-2.52.22-2.82,1.95-1.98,10.54-2.06,13.9-3.13.77-4.79-1.97-7.33-3.03-.27-.11-.66.12-.92,0v-2.02s-2.75,0-2.75,0h-.91c-1.24.04-8.04,4.84-9.36,6.05-2.1,1.9-6.89,9.22-8.99,10.55-2.36,1.5-8.54,1.96-9.85,2.8-.51.33-.78,2.14-1.52,2.85-4.68,4.47-4.11,5.36-6.02,12.04-.09.31.09.71,0,1.01-1.8,1.55-2.15,3.82-2.75,6.05-.08.31.08.7,0,1.01-10.06,3.18-6.57-18.44-11-20.17-.21-.08-.59.02-.91,0-3.03-.2-5.76,4.64-8.25,7.06-.31.31-.6.69-.92,1.01-.64.67-2.63.54-2.82,1.66.42,2.8,1.88,9.23.08,11.45-.01,0-.01.02-.03.03-.48.41-4.64,2.78-5.9,4.04-2.16,2.15-9.07,10.88-10.98,11-6.94-.68-6.3-6.91-6-13.05,0-.34-.03-.68,0-1.01l3.6-10.01c-3.91-.73-6.26-4.91-10.4-4.11-2.14-6.74,5.07-2.41,7.93-3.22,1.46-.41,2.36-2.05,3.45-2.83.26-.19.58-.69.91-1.01.15-.14,1.17.28,1.63-.17,1.71-1.69,1.18-4.97-2.54-2.86-1.42.81-3.47,3.63-5.05,1.02-.22-.37-.52-1.78-.79-3.38-.34-2.05-.64-4.4-.65-5.2-.16-12.01,6.93-7.85,13.74-13.2,8.91-7,1.63-11.08.99-20.58-1.65-1.33-4.76,5.53-5.82,6.69-4.22,4.59-7.87,3.39-13.42,3.39.47-7.36-1.54-14.26-.9-21.67.44-5.13,3.69-6.79,3.69-12.15.03-2.07-2.08-2.02-2.81-3.24-4.64-7.69-6.17-13.25-6.54-19.88-.22-3.95-.04-8.28.15-13.66.07-2.01-.06-4.05,0-6.06,4.67-1.29,6.89,4.55,11.55,5.04,1.36.15,9.53-.72,11.37-1,8.09,9.23,14.76-8.16,19.48-10.33,2.93-1.35,5.86-.36,8.95-1.24,4.07-1.15,5.69-6.63,9.95-5.45l.55.94,3.24,5.53,5.99-1.53c3.24.09,6.98,14.31,6.03,17.99,1.35,2.4,12.68-1.06,15.15-1.7,1.9-.5,3.29-2.24,5.23-2.18,8.01.24,7.49,9.15,18.29.84,2.86-2.21,4.26-6.16,7.94-5.9.07,1.28,3.3,4.14,4.58,5.05,1.71,1.22,3.1,1.38,4.58,2.01,1.81,3.86,5.04,6.56,5.73,8.32,1.8,4.61-.51,8.22,3.04,13.8,2.93,4.61,6.05,3.95,8.71,6.55,3.42,3.34,2.55,13.13,9.94,13.78l.09,2.41c-2.49,1.11-3.11,3.88-3.68,6.58-5.44,1.27-10.91,3.1-16.41,4.13l.04,12.88,15.51,3.78-.06,8.46c-3.28.03-6.77-1.73-10.08-1.01-2.13.47-3.81,4.31-5.03,4.08-2.37-.44-2.43-3.07-4.13-5.09-.09-.09-1.15.34-1.89-.65-2.81-3.78-4.91-9.32-7.28-13.47-.35-.62-.49-1.17-1.33-1.06-4.14-.57-3.3,2.05-4.83,3.11-1.85,1.28-4.68,1.35-5.75,4.01-.26.11-.65-.11-.92,0Z"/>
  <path class="cls-18" d="M222.22,515.63c-4.27,8.26-14.66,6.68-22.62,8.38-8.45,1.81-16.87,3.91-25.27,5.97l-1.08,8.79,15.13,3.01.07,2.66-1.45.04-15.51-3.78-.04-12.88c5.5-1.03,10.97-2.86,16.41-4.13,1.67-.39,3.65-.6,5.49-1.01,5.55-1.21,19.62-2.63,23.61-4.78,1.8-.98,3.94-5.17,5.46-7.04.54-.66-.07-1.93,2.09-1.29v15.13l-1.91.06c-.23-1.82.03-4.35-.38-9.13Z"/>
  <path class="cls-19" d="M220.19,339.33c-4.5-1.49-9.39,2.79-15.21-.43-.21-.11-3.29-3.28-3.35-3.53-1.38-6.03,1.42-4.85,3.66-7.82,5.27-7.03,2.4-21.62,4.4-30.2l-3.67-2.63-4.33-3.1c-1.32-7.41,11.76-4.57,12.62-6.1l1.49-9.95c1.26-1.57,8.04-1.23,10.28-4.3,1.56-2.13.84-5.98,2.02-8.13.77-1.4,19.34-6.9,21.6-6.79,4.77.23,8.1,5.41,12.77,5.47,1.03,0,2.12-.22,3.3-.81.89-.45,6.9-4.39,7.11-4.79,1.77-3.42-2.99-5.67-1.63-11.18.57-2.34,11.82-10.1,14.18-11.85,6.49-4.8,2.98-6.48,13.31-4,2.4.57,7.19,2.93,8.57,2.77,1.3-.15,2.22-.95,2.9-1.86,1-1.33,1.5-2.89,1.98-3,2.92-.68,7.35,3.26,8.87,2.94s3.17-4.6,6.59-4.85c4.93-.37,12.18,5.91,16.89,3.48,1.35-.69,2.19-3.58,4.14-3.56,1.38,0,7.07,5.94,9.93,5,2.71-3.39,7.06-10.35,11.6-10,3.96.31,4.57,3.89,4.37,7.98-.16,3.39-.88,7.14-.69,9.66.21,2.77,1.79,11.81,2.59,14.26.66,2.04,5.63,6.02,6.61,7.88,3.6,6.84-1.79,20.4-4.65,27.05-.27.62-1.49.75-2.07,2.01-.71,1.55-2.51,6.77-2.56,8.33l.14,1.41c1.4.22,2.5.56,3.36.98,6.01,2.99-.16,10.52-2,16.31-1.61,5.07-6.58,20.17-5.83,24.41.26,1.43,2.75,7.04,3.77,9.39.06.15.13.29.18.42,1.08,2.5,2.9,8.04,5.02,8.1.58.65-4.79,4.37-5.26,5.26-2.24,4.23,5.55,14.34,7.55,17.9,4.42-2.62,6.06-9.93,11.02-12.07,1.74-.75,1.17.72,1.38,1.47,2.19,7.91-.35,17.25-2.34,25.82-.17.74-.34,1.47-.5,2.19-1.69,7.66-4.32,17.48-6.34,25.98-3.87,1.88-8.07-3.33-10.5-3.08-2.56.27-4.13,5.47-9,3.92-2.57-.82-5.2-8.07-8.01-9.39-4.51-2.12-10.6,2.28-15.58,1.98l-7.85,12.44-7.49-2.02-3.39-.92c-4.07.14-7.64,5.53-11.9,6.19-3.88.61-14.91-.53-19.28-1.06-2.65-.32-9.99-.91-10.87-3.27-1.65-4.37,4.03-14.42,8.12-14.88,2.84-.32,11.27,3.28,13.34,1.6.27-1.11.51-2.18.72-3.21,1.09-5.34,1.63-9.83,4.11-15.23.22-.48,1.52-.22,1.52-.3v-22.19c-.9.33-1.99-1.01-2.29-1.01h-19.24c-3.67,3.9-4.92,9.52-7.79,14.12-.22.34-.66.62-.92,1.01-.25.38-.65.65-.92,1.01-1.21,1.67-2.38,3.91-3.26,4.98-1.45,1.75-5.51,3.97-6.39,6.16-1.41,3.49,4.41,15.85-5.93,14.08-.71,2.43,1.5,4.61,1.84,6.05.55,2.33,1.18,4.58.92,7.06-7.67.93-14.45-3.39-21.99-4.05-.59-2.24.92-3.7,2.35-5.04.94-.89,1.84-1.74,2.09-2.73,1.38-5.52-7.22-7.92-10.39-10.39-2.89-2.24-6.88-6.68-9.72-8.46-3.71-2.33-18.09-6.96-19.68-9.65l-.28-1.34c5.18-5.47-1.04-10.04,1.72-15.83,4.09-.85,3.1-3.32,4.6-6.34.27-.55,1.36-.67,1.51-1.04,1.85-4.54.71-10.45,6.19-12.87,2.21-.98,7.01-.27,6.97-3.47l-7.1-8.35Z"/>
  <path class="cls-13" d="M77.89,209.01v1.01c-.25-.22-1.46-.11-2.33-.96-1.74-1.7-3.12-3.77-4.35-5.99l.42-.23c.31.39,1.85-.14,2.36.33.5.46.57,2.69,1.15,3.83,1.07,2.07,1.23,1.37,2.75,2.01Z"/>
  <path class="cls-18" d="M354.65,170.43c-1.05-1.9-2.36-3.91-3.77-5.97l1.44-1.01c1.45,2.26,3.5,3.66,5.24,7.56,1.95,4.35,4.25,15.36,6.16,18.19,1.73,2.56,6.66-.48,7.41,7.19,1.05,10.67-4.03,21.2,7.36,26.27l-.02,1.96c-.97.68-1.73.31-1.91,1.98-.04.36-.08.91-.11,1.59l-1.87-.1c.2-4.09-.41-7.67-4.37-7.98-4.33-4.31.27-23.43-2.75-26.22-1.22-1.13-4.03-.58-5.56-2.45-2.47-3.01-4.5-16.04-7.25-21.01Z"/>
  <path class="cls-18" d="M88.82,371.31c-.12.21-.26.42-.42.61.14-.19.27-.39.39-.61h.03Z"/>
  <path class="cls-18" d="M394.03,361.31c-.2,5.09,3.62,13.04,3.39,17.51-.16,3.32-3.57,13.52-4.69,18.31l-1.93-.45c1.99-8.57,4.53-17.91,2.34-25.82-.21-.75.36-2.22-1.38-1.47-4.96,2.14-6.6,9.45-11.02,12.07-2-3.56-9.79-13.67-7.55-17.9.47-.89,5.84-4.61,5.26-5.26-2.12-.06-3.94-5.6-5.02-8.1-.05-.13-.12-.27-.18-.42l2.12-.95c.3.68.62,1.38.96,2.12.64,1.37,2.04,1.56,2.48,2.37,5.93,10.97-2.24,9.34-2.95,12.62-.49,1.76,5.24,10.48,5.81,10.48,1.85-2.65,4.01-5.03,5.99-7.55,1.8-2.31,1.63-2.04,3.29-3.83,1.06-1.14,1.39-3.3,3.08-3.73Z"/>
  <path class="cls-18" d="M392.73,397.13c-.03.16-.07.31-.1.45-2.05,9.4-3.46,17.73-5.8,26.9-1.1,4.26-4.42,19.33-5.77,21.88-1.69,3.19-3.72,1.04-6.26.68-.12.17-.24.9-.35,2.01l-1.72-.21c.25-2.26.36-4.54.24-6.84,2.25-.8,3.43,4.31,5.52,2.55,1.05-.88,2.95-10.2,3.64-12.64.65-2.32,1.27-4.71,1.83-7.06,2.02-8.5,4.65-18.32,6.34-25.98.16-.72.33-1.45.5-2.19l1.93.45Z"/>
  <path class="cls-18" d="M386.69,261.99c1.43,8.13-4.82,24.44-8.28,32-.5,1.1-2.54.26-1.78,2.75l1.72.86-1.04,2.07c-.86-.42-1.96-.76-3.36-.98l-.14-1.41c.05-1.56,1.85-6.78,2.56-8.33.58-1.26,1.8-1.39,2.07-2.01,2.86-6.65,8.25-20.21,4.65-27.05-.98-1.86-5.95-5.84-6.61-7.88-.8-2.45-2.38-11.49-2.59-14.26-.19-2.52.53-6.27.69-9.66l1.87.1c-.15,3.38-.13,9.89.2,11.4.16.74,1.56.58,1.77,1.41.97,3.92.44,8.92,2.58,13.15,1.21,2.4,5.05,4.24,5.69,7.84Z"/>
  <path class="cls-18" d="M382.93,299.91c.57.98-3.76,16.83-4.56,19.25-.27.81-1.43.94-1.64,1.62-4.21,12.98-6.63,15.94-1.36,28.05l-2.12.95c-1.02-2.35-3.51-7.96-3.77-9.39-.75-4.24,4.22-19.34,5.83-24.41,1.84-5.79,8.01-13.32,2-16.31l1.04-2.07,4.58,2.31Z"/>
  <path class="cls-10" d="M383.96,424.85c-.56,2.35-1.18,4.74-1.83,7.06-1.69-2.56-.62-5.23-4.15-6.02-6.62-1.48-9.54,4.43-14.44,2.8-3.03-1-6.28-8.47-7.98-9.39-2.21-1.21-11.8.27-13.73,2.05-4.18,3.85-4.03,13.97-9.19,15.6-3.06-4.39-1.33-1.76-4.79-4.04-1.13-.75-.98-2.51-2.64-3.01l.32-1.2,7.49,2.02,7.85-12.44c4.98.3,11.07-4.1,15.58-1.98,2.81,1.32,5.44,8.57,8.01,9.39,4.87,1.55,6.44-3.65,9-3.92,2.43-.25,6.63,4.96,10.5,3.08Z"/>
  <path class="cls-10" d="M377.98,425.89c3.53.79,2.46,3.46,4.15,6.02-.69,2.44-2.59,11.76-3.64,12.64-2.09,1.76-3.27-3.35-5.52-2.55.12,2.3.01,4.58-.24,6.84-.54,4.83-1.7,9.6-2.52,14.34-5.92-4.31-14.11-6.45-21.07-4.04-.01-.33.04-.68,0-1.01-.11-.84.32-2.53-.12-2.94l-2.52-.15c1.64-9.49-5.18-9.24-8.88-12.99-1.31-1.33-1.05-3.48-1.48-3.92-.64-.66-2.12.06-2.58-.17-.57-.28-.62-.58-.92-1.01,5.16-1.63,5.01-11.75,9.19-15.6,1.93-1.78,11.52-3.26,13.73-2.05,1.7.92,4.95,8.39,7.98,9.39,4.9,1.63,7.82-4.28,14.44-2.8Z"/>
  <path class="cls-18" d="M372.73,448.84l1.72.21c-.53,5.37-1.04,19.66-2.91,23.15-1.44,2.71-6.25,3.39-8.67,6.6-3.11,4.12-4.22,12.34-7.31,16.16-2.48,3.07-16.74,14.66-20.61,17.65-.78.61-.92,1.4-2.3.99,0-4.77-4.3-6.27-4.6-11.09-1.76,1.09-2.89,1.79-5.01,2.04-3.21.38-19.1-.37-21.82-1.24-.38-.12-5.85-4.17-6.61-4.83-1.46-1.26-8.89-10.93-10.53-9.07l3.2,9.98-2.23.71c-.3-.9-1.51-.55-2.17-1.86-2.38-4.68-2.47-15.41,3.51-11.9,5.75,3.39,9.66,11.51,16.93,14.16,2.57.93,8.95,1.93,11.91,2.01,4.83.14,9.16.26,13.32-2.91,2.84,2.89,4.17,5.98,5.46,9.96l20.34-17.44c2.53-3.91,4.23-11.61,6.67-15.08,2.2-3.13,8.21-2.78,9.19-8.82.25-1.51-.25-3.55,0-5.04.82-4.74,1.98-9.51,2.52-14.34Z"/>
  <path class="cls-6" d="M370.21,220.11c-4.54-.35-8.89,6.61-11.6,10-2.86.94-8.55-4.99-9.93-5-1.95-.02-2.79,2.87-4.14,3.56-4.71,2.43-11.96-3.85-16.89-3.48-3.42.25-5.07,4.53-6.59,4.85s-5.95-3.62-8.87-2.94c-.48.11-.98,1.67-1.98,3l-1.43-.94c1.79-12.07,6.43-2.17,11.44-2.97,2.33-.37,2.8-2.83,4.18-3.54,4.35-2.26,11.42,3.57,16.07,3.39,2.95-.1,6.13-4.93,8.06-4.75,2.48.23,4.72,5.32,8.37,4.9,2.26-.26,7.16-9.28,10.41-10.78l.15-21.52c3.02,2.79-1.58,21.91,2.75,26.22Z"/>
  <path class="cls-10" d="M370.21,468.22c-.98,6.04-6.99,5.69-9.19,8.82-2.44,3.47-4.14,11.17-6.67,15.08l-20.34,17.44c-1.29-3.98-2.62-7.07-5.46-9.96-4.16,3.17-8.49,3.05-13.32,2.91-.45-13.65,10.13-6.54,16.48-11.61,2.13-1.7,3.15-5.97,5.03-8.58,1.11-1.54,10.77-11.16,12.03-11.97,3.57-2.3,5.76.25,7.67-.59.09-.04.63-.4,1.33-.89,1.55-1.07,3.89-2.74,4.01-2.94.51-.79.02-2.57.19-2.75,1.1-1.22,7.48,3.15,8.24,5.04Z"/>
  <path class="cls-10" d="M357.41,467.29l.36,1.58c-.7.49-1.24.85-1.33.89-1.91.84-4.1-1.71-7.67.59-1.26.81-10.92,10.43-12.03,11.97-1.88,2.61-2.9,6.88-5.03,8.58-6.35,5.07-16.93-2.04-16.48,11.61-2.96-.08-9.34-1.08-11.91-2.01l9.99-.11c-.92-13.12,12.91-7.56,17.77-12.95,1.07-1.18,1.97-5.51,3.83-8.15,3.18-4.5,6.38-5.25,10.1-8.05,1.46-1.1,2.88-3.91,4.16-4.56,2.47-1.23,5.51,1.1,8.24.61Z"/>
  <path class="cls-10" d="M352.8,460.15l-.51,2.03h-3.15c-.06-.68.04-1.36,0-2.03,1.22,0,2.44.01,3.66,0Z"/>
  <path class="cls-18" d="M352.04,162.99c.09.16.19.31.28.46l-1.44,1.01c-3.03-4.37-6.56-8.9-9.09-12.71-1.82-2.74-7.68-10.41-8.49-12.63-.82-2.24.39-5.09.39-7.91l1.78.03c-.02,1.89-.27,3.87-.03,5.61.7,5,6.4,8.73,8.97,12.32,3.16,4.41,4.97,9.18,7.63,13.82Z"/>
  <path class="cls-10" d="M349.02,455.19c.44.41.01,2.1.12,2.94-1.62.6-6.79-4.55-7.07-5.3-.57-1.51.04-3.3-.72-4.78-1.02-1.99-8.32-5.22-7.79-10.09.46.23,1.94-.49,2.58.17.43.44.17,2.59,1.48,3.92,3.7,3.75,10.52,3.5,8.88,12.99l2.52.15Z"/>
  <path class="cls-18" d="M334.92,127.34c.49,1.17.58,2.51.55,3.9l-1.78-.03c0-.98-.15-1.96-.58-2.9-.57-1.24-2.63-1.86-3.58-3.11-13.33-17.42-37.52-44.85-47.14-63.05-5.61-10.59-9.98-24.44-14.88-36.52l2.06-.84c4.89,12.15,9.5,24.9,15.39,35.71,11.16,20.46,30.21,41.01,44.19,60.12,1.31,1.78,4.94,4.76,5.77,6.72Z"/>
  <path class="cls-10" d="M322.14,427.78l3.39.92-.32,1.2c-.11-.03-.23-.06-.36-.08-2.93-.49-8.64,4.89-11.49,6.58-9.14-.89-22.71,1.11-31.35-1.71-3.82-1.25-3.45-4.22-5.68-5.9-1.35-1.02-2.79-.85-4.23-.24l-.64-2.33c2.28-.63,4.59-1.27,5.78-2.34,1.94-1.73,3.88-7.94,5.9-10.36,4.75-5.67,11.46,1.68,17.43.24l.03-.96,1.67.35c-.21,1.03-.45,2.1-.72,3.21-2.07,1.68-10.5-1.92-13.34-1.6-4.09.46-9.77,10.51-8.12,14.88.88,2.36,8.22,2.95,10.87,3.27,4.37.53,15.4,1.67,19.28,1.06,4.26-.66,7.83-6.05,11.9-6.19Z"/>
  <path class="cls-10" d="M307.9,375.43v22.19c0,.08-1.3-.18-1.52.3-2.48,5.4-3.02,9.89-4.11,15.23l-1.67-.35c.58-12.64,7.78-23.13,3.63-36.36v-2.02h1.38c.3,0,1.39,1.34,2.29,1.01Z"/>
  <path class="cls-21" d="M304.23,376.44c4.15,13.23-3.05,23.72-3.63,36.36l-.03.96c-5.97,1.44-12.68-5.91-17.43-.24-2.02,2.42-3.96,8.63-5.9,10.36-1.19,1.07-3.5,1.71-5.78,2.34-1.8.49-3.59.98-4.79,1.66.43-2.54-1.24-4.29-1.84-6.05-.45-1.32-1.29-2.34-.91-4.03l5.4-.11c1.62-1.58-.51-13.22.16-15.4.49-1.58,3.03-1.46,4.42-3.26,1.23-1.6,2.75-6.17,2.84-8.47.27-.36.67-.63.92-1.01h.92l3.66,1.02c-1.07-4.44,2.29-4.47,3.5-6.75,1.21-2.27.8-7.38,5.21-7.38h13.28Z"/>
  <path class="cls-10" d="M304.23,374.42v2.02h-13.28c-4.41,0-4,5.11-5.21,7.38-1.21,2.28-4.57,2.31-3.5,6.75l-3.66-1.02v-1.01c2.87-4.6,4.12-10.22,7.79-14.12h17.86Z"/>
  <path class="cls-2" d="M296.96,226.55c1.24.48,2.08,1.3,1.78,2.64-10.33-2.48-6.82-.8-13.31,4-2.36,1.75-13.61,9.51-14.18,11.85-1.36,5.51,3.4,7.76,1.63,11.18-.21.4-6.22,4.34-7.11,4.79-1.18.59-2.27.82-3.3.81l.08-1.7c.29,0,4.51-2.79,5-3.23,4.23-3.82-.13-10.45,2.07-15.37,3.75-1.14,6.05-4.79,8.96-7.29,1.36,0,2.34-.55,2.75-2.02.14-.12-.15-.89,0-1.01,1.99-.54,4.61-.69,5.49-3.02.26-.11.63.1.92,0,1.44-.5,3.22-1.92,3.67-2.02,1.19-.25,3.78-.29,5.55.39Z"/>
  <path class="cls-6" d="M297.69,224.73l-.73,1.82c-1.77-.68-4.36-.64-5.55-.39-6.73-5.6-15.77-6.76-23.99-7.85l.16-1.23,5.87-2.02,24.24,9.67Z"/>
  <path class="cls-16" d="M291.41,226.16c-.45.1-2.23,1.52-3.67,2.02-.31-2.25,1.25-3.29-1.38-4.03-6.52-1.83-11.94-5.35-19.11-4.22-1.05-.17-1.1-1.22-1.5-1.84.55.07,1.11.15,1.67.22,8.22,1.09,17.26,2.25,23.99,7.85Z"/>
  <path class="cls-18" d="M287.28,499.39l2.29,7.15c-4.27.99-10.94-5.39-14.14-5.04-1.66.18-10.8,6.05-11.51,7.58-.22,1.29.1,1.57.67,1.58l-.12,2.07c-1.75-.13-3.51-.12-5.17-.63-1.18-.36-2.19-.27-1.79-2.01,5.32-1.61,13.69-11.94,18.56-11.4,2.83.31,5.62,3.59,8.92,2.81.15-.67.15-1.1.06-1.4l2.23-.71Z"/>
  <path class="cls-16" d="M286.82,228.18c-.88,2.33-3.5,2.48-5.49,3.02,2.04-1.66,3.23-2.05,5.49-3.02Z"/>
  <path class="cls-16" d="M281.33,232.21c-.41,1.47-1.39,2.02-2.75,2.02,1-.86,2.02-1.39,2.75-2.02Z"/>
  <path class="cls-17" d="M278.58,388.54v1.01h-.92c.26-.39.7-.67.92-1.01Z"/>
  <path class="cls-21" d="M276.74,390.56c-.09,2.3-1.61,6.87-2.84,8.47-1.39,1.8-3.93,1.68-4.42,3.26-.67,2.18,1.46,13.82-.16,15.4l-5.4.11c-.38,1.69.46,2.71.91,4.03h-1.83c-.34-1.44-2.55-3.62-1.84-6.05,10.34,1.77,4.52-10.59,5.93-14.08.88-2.19,4.94-4.41,6.39-6.16.88-1.07,2.05-3.31,3.26-4.98Z"/>
  <path class="cls-18" d="M273.08,510.59c.87,3.13-1.34,2.58-1.79,3.74-.39,1.02.25,2.91-.48,4.34-.75,1.47-4.51,1.68-4.91,3.6l-1.88.08-.11-2.69c2.08-1.64,5.24-1.89,4.58-6.04-1.3-.59-2.66-.78-4.02-.89l.12-2.07c.43.01,1.01-.13,1.6-.08,2.28.18,4.62-.14,6.89.01Z"/>
  <path class="cls-10" d="M271.46,426.22l.64,2.33c-2.11.88-4.23,2.71-6.1,3.14-6.92,1.59-16.69-2.3-23.71-3.71-1.85-.38-8.37.9-7.7-2.61l8.27-7.2,1.42,1.63c-1.43,1.34-2.94,2.8-2.35,5.04,7.54.66,14.32,4.98,21.99,4.05.26-2.48-.37-4.73-.92-7.06h1.83c.6,1.76,2.27,3.51,1.84,6.05,1.2-.68,2.99-1.17,4.79-1.66Z"/>
  <path class="cls-6" d="M256.59,209.01c7.77-.33,11.67-3.35,10.99,8.07l-.16,1.23c-.56-.07-1.12-.15-1.67-.22-.14-.2.11-.69,0-1.01-.18-.49-.66-.78-.85-.94-.01,0-.02-.01-.02-.01l-.05-.06c-.43-1.22.85-4.02-1.5-4.9l-12.24.86,2.74-8.05c-1.13-.02-2.21-.91-3.31-.97-2.35-.14-15.16.68-17.11,1.17-3.3.83-5.45,6.11-9.81,4.84l-3.23-10.09,1.35-1.13,5.2,6.23c9.11-5.66,19.23-1.5,29.02-3.94l2.46,3.36-1.81,5.56Z"/>
  <path class="cls-18" d="M265.9,522.27l1.67,25.63c-7.51-4.96-10.76-9.3-11.94-19.14-4.22.27-23.08,7.27-25.61,5.54-.56-.38-.81-1.93-1.62-2.56-4.38-3.4-5.5-4.62-5.8-6.98l1.91-.06c0,.08,1.12-.16,1.48.35,1.45,2.04,3.94,6.45,6.32,6.71,6.4-1.19,12.59-2.92,18.78-5.04,2.13-.74,4.1-2.06,6.41-2.02.12,6.73,2.63,12.84,7.32,17.15l-.8-19.5,1.88-.08Z"/>
  <path class="cls-16" d="M265.75,217.08l-.85-.94c.19.16.67.45.85.94Z"/>
  <path class="cls-13" d="M264.02,522.35l.8,19.5c-4.69-4.31-7.2-10.42-7.32-17.15.21.25,2.14-.38,2.31,3.08l3.18-.06c-.57-3.63-2.35-5.48.92-8.06l.11,2.69Z"/>
  <path class="cls-13" d="M257.5,524.7c-2.31-.04-4.28,1.28-6.41,2.02,1.7-1.26,1.94-3.38,4.31-3.87,3.23-.67,1.74,1.42,2.1,1.85Z"/>
  <path class="cls-18" d="M252.76,5.91l1.62,1.23c-.63.87-1.02,2.17-1.23,2.94-.22.84-.41,1.71-.58,2.6l-1.95-.4c.17-.99.14-2.08-.23-3.23l2.37-3.14Z"/>
  <path class="cls-18" d="M250.62,12.28l1.95.4c-1.3,6.8-1.43,15.05-2.55,21.69-8.06,2.84-16.53,9.33-24.39,11.98-4.68,1.58-8.61.91-12.81.46l.24-2.21c.29.03.58.05.87.06,13.09.23,20.79-6.07,32.39-11.34,1.16-1.99,1.38-13.25,2.04-16.25.07-.32,1.82-2.19,2.26-4.79Z"/>
  <path class="cls-2" d="M227.29,347.68c.04,3.2-4.76,2.49-6.97,3.47-5.48,2.42-4.34,8.33-6.19,12.87-.15.37-1.24.49-1.51,1.04-1.5,3.02-.51,5.49-4.6,6.34-.83.17-1.88-.14-2.75,0,7.42-3.95,5.41-14.14,10.04-19.68,2.07-2.47,4.56-2.36,7.02-3.42.95-.41,1.57.53,1.26-1.6-5.17-9.4-12.97-2.86-20.83-4.19-1-.45-4.19-7.24-4.45-8.43-1.23-5.49,6.47-8.17,7.62-13.89-.6-4.68,2.06-20.44-.02-23.15-.18-.24-.53-.52-.96-.83l1.07-1.49,3.67,2.63c-2,8.58.87,23.17-4.4,30.2-2.24,2.97-5.04,1.79-3.66,7.82.06.25,3.14,3.42,3.35,3.53,5.82,3.22,10.71-1.06,15.21.43l7.1,8.35Z"/>
  <path class="cls-6" d="M219.35,194.96l2.37,2.84-1.35,1.13c-2.56-.64-6.5,8.38-8.03,9.82-.53.5-1.34.12-1.57.26-.87-2.87,7.02-14.35,8.58-14.05Z"/>
  <path class="cls-18" d="M213.06,44.6l-.24,2.21c-2.24-.24-4.55-.42-7.09-.17-2.71.27-5.89,2.14-8.2,1.97-2.03-.15-4.75-2.42-7.46-2.9-4.17-.74-19.2-2.61-22.41-1.63-2.39.74-4.18,3.61-6.82,3.64-.33.01-.66-.04-1-.11l.37-2.17c2.25,0,5.94-4.76,9.79-4.93,5.06-.21,17.98,2.23,23.76,3.15,7.86,1.26,6.04.23,12.93-.09,2.33-.11,4.26.78,6.37,1.03Z"/>
  <path class="cls-15" d="M204.28,153.13c1.2,3.85-1.98,3.78-2.72,5.16-2.45,4.58-2,14.81-2.95,20.7-1.52,9.36-3.87,18.62-5.26,28.01l-4.58,1.01c4.62-8.21,6.86-23.75,8.13-33.92.92-7.36-1.2-13.8,3.78-20.54-.67-.6-13.72-1.82-16.71-3.29-3.1-1.52-6.5-5.24-10.78-6.8,4.04-3.93,10.61,3.5,15.07,5.09,2.98,1.07,15.27,2.17,16.02,4.58Z"/>
  <path class="cls-10" d="M202.52,211.03l-2.4,2.09c-3.86-2.35-2.55,2.06-6.77.93l.78-1.85-4.78-2.26c-2.82,3.55-3.2,6.51-7.9,4.11,1.1,4.77-1.67,3.83-1.84,4.04v-6.05c4.28.05,4.16,2.29,7.33-1.01,1.67-1.73,1.09-1.7,1.83-3.02l4.58-1.01c-.43,2.64,4.33,4.16,5.9,4.07.55-.04.64-1.97.97-2.08,2.92-.96,2.14,1.93,2.3,2.04Z"/>
  <path class="cls-14" d="M200.68,153.55c-4.98,6.74-2.86,13.18-3.78,20.54-1.27,10.17-3.51,25.71-8.13,33.92-.74,1.32-.16,1.29-1.83,3.02l-9.22.44c-1.65,1.29-.48,4.94-.86,6.62-.25,1.1-6.09,6.64-7.06,6.89-2.25.6-5.45-2.21-7.85-1.65-1.8.42-10.55,7.54-11.57,9.49-.96,1.82-.71,4.8-1.92,5.96-1.23,1.16-4.58,1.05-6.36,2.07-1.31.75-2.14,2.96-3.46,3.34-3.19.93-12.28-8.5-16.39-8.94-3.58-.39-7.79,3.91-11.38,5.57-1.35.62-2.95.18-3.65.47-.07-1.95.36-3.13,1.25-4.75.3-.54,1.88.26,1.49-1.29-7.19-1.62-7.47,4.66-15.57,0-.08-1.66-3.57-4.4-3.64-4.75-.75-3.66,1.23-7.91.95-9.71-.13-.84-1.78-.95-2.23-1.77-2.22-4.05-2.93-7.2-2.42-12.02-6.28-1.34-3.51,4.41-9.16,2.02-1.52-.64-1.68.06-2.75-2.01l5.37-7.79c.8-3.13-1.74-4.82-1.76-6.8,0-.62,1.71-.46,2.19-1.75.09-.25.17-.5.24-.75.53-1.98.4-4.08.38-6.11.29-.35,5.49.98,6.39,1.55,1.99,1.29,1.19,4.54,4.6,3.49.37-2.04-1.71-2.65-1.84-4.55-.1-1.4.88-2.84.84-4.08-.07-1.77-2.64-3.9-1.75-6.49,3.54.55,6.43-.66,9.17-3.03.59-.09,1.24.09,1.83,0,1.64,1.38,4.18,4.56,6.16,4.89,2.15.37,3.87-1.95,6.67-1.87.15.01,1,1.23,2.24,1.09l1.9-1.08c1.34-5.8,7.91-10.97,9.46-16.95.56-2.12-.39-2.18-.77-3.23-.14-.36.32-1.26-.17-1.8-2.73-2.49-23.46-.59-28.7-1.22-3.14-.37-5.79-2.01-8.7-3.03,2.95-4.28-2.62-9.16-5.99-9.06-1.69.05-4.91,5.01-8.68,3.01-.33-2.45.03-2.93,1.84-4.03.3-.19,1.25.21,1.79-.03.82-6.01-6.78-8.08-5.43-13.39.23-.93,1.91.02,1.91-3.23,0-1.77-2.68-4.93-2.78-9.23-.12-5.04,6.45-16.09,10.41-18.56,2.74-1.7,4.76-.4,7.2-1.15,2.63-.81,5.58-8.37,7.11-11.13,2.63-4.77,8.74-20.07,11.94-22.38,1.85-1.33,5.01-2.11,7.25-3.61l10.55,4.03,2.22,9.65,12.79.55c-.58,7.94,8.85,6.03,11.8,9.2,1.25,1.34,2.24,9.28,4.73,12.42,1.48,1.86,4.08,1.41,5.93,2.58,1.13.71,8.61,10.9,8.73,11.64-1.41,2.17-2.76,5.47-4.11,7.4-.89,1.26-3,.35-2.22,3.03,6.26,3.12,3.74,9.23,3.57,14.67-.07,2.24.99,2.36.99,2.49.16,4.77-2.65,5.08-2.76,5.75-.38,2.16,1.01,4.93.02,7.36l1.84-3.03c1.97,2.7,3.45.94,3.65,1.02,4.28,1.56,7.68,5.28,10.78,6.8,2.99,1.47,16.04,2.69,16.71,3.29Z"/>
  <path class="cls-6" d="M194.17,512.71l-.82,9.97c-1.84.41-3.82.62-5.49,1.01.57-2.7,1.19-5.47,3.68-6.58l-.09-2.41c-7.39-.65-6.52-10.44-9.94-13.78-2.66-2.6-5.78-1.94-8.71-6.55-3.55-5.58-1.24-9.19-3.04-13.8-.69-1.76-3.92-4.46-5.73-8.32.44.2,1.33-.17,1.83,0,2.53.9,4.5,7.11,6.42,9.08-.05,2.27-.35,6.12,0,8.07,0,.07.32.75.58,1.3.1.23.19.43.26.57l.07.15c3.04,5.79,8.44,4.8,10.74,7.34,3.08,3.39,1.64,13.89,10.24,13.95Z"/>
  <path class="cls-10" d="M188.64,398.81l.6,2.36c-2.1.52-4.14,1.04-5.05,2-1.54,1.64-3.15,8.8-4.33,11.34-1.56,3.38-5.52,8.19-5.69,12.94-.1,2.95,1.85,5.52,1.35,8.52-.55,3.23-3.23,3.88-4,6.69-.09,2.65,5.37,5.5,6.07,8.12,2.21,8.23-1.71,14.56-6.23,20.47-1.23.66-2.78-.02-3.66,0,2.94-5.38,9.34-12.07,6.63-18.91-1.2-3.04-5.8-6.33-5.82-9.83-.01-3.6,2.95-4,3.59-6.27.97-3.47-.9-6.4-.58-9.61.48-4.67,5.84-15.72,8.07-19.67,5.17-9.14,4.88-6.75,9.05-8.15Z"/>
  <path class="cls-18" d="M188.45,544.44l.32,11.53c-3.19.4-6.74-2.17-9.82-1.25-4.69,1.39-9.14,10.44-14.47,12.34-1.93-4.19,1.07-9.29.32-13.37-.77-4.2-6.69-9.32-7.2-13.87l-11.7,6.27c-.25,3.64-.77,8.19.5,11.64,1.93,5.25,12.78,11.37,13.95,15.91.59,2.28-1.16,1.29-2.3,1.45-5.42.78-10.58,2.47-16.01,3.07-1.7,1.77,9.12,7.65,9.16,10.07l-21.41,9.01c-2.35-.86-2.82-10.21-4.47-11.78-.64-.61-1.86-.94-3.3-1.1l.2-1.55,4.95.62,2.97,11.87c3.05-1.97,14.6-4.41,13.8-9.49-.1-.61-6.83-4.75-2.69-10.54l15.44-2.17c-1.09-3.21-13.5-13.8-13.75-14.82-.26-1.05-.26-11.6,0-12.69.24-1.06,2.47-1.25,2.76-2.73.27-.11.66.11.92,0,4.04-1.75,7.59-4.95,11.91-6.06,2.37,4.15,4.47,9.69,7.28,13.47.74.99,1.8.56,1.89.65v11.1s9.16-10.09,9.16-10.09c3.31-.72,6.8,1.04,10.08,1.01l.06-8.46,1.45-.04Z"/>
  <path class="cls-15" d="M177.72,211.47l9.22-.44c-3.17,3.3-3.05,1.06-7.33,1.01v6.05h-2.75c.38-1.68-.79-5.33.86-6.62Z"/>
  <path class="cls-11" d="M176.86,551.93l-9.15,10.09v-11.1c1.69,2.02,1.75,4.65,4.12,5.09,1.22.23,2.9-3.61,5.03-4.08Z"/>
  <path class="cls-10" d="M175.47,359.03l-2.04.38c-2.35-9.24-4.9-20.84-12.39-19.09-2.08.49-9.51,7.32-11.38,7.68-1.7.33-3.38-2.43-5.39-2.81-2.93-.55-6.59,1.97-8.2.02-2.58-3.09-3.48-11.44-3.1-15.57.65-6.98,2.07-10.68,4.05-14.73l1.69.57c-.05.09-.08.16-.1.2-3.46,7.87-3.77,19.66-.23,27.47l5.94-3.08,5.35,4.97c.61-.07,10.05-6.68,10.42-7.21.31-.45,1.56-5.53,2.56-9.97l1.54.34c-.65,2.89-1.17,5.73-.88,8.16.47,4.06,2.69,2.24,5.07,3.5,3.73,1.97,5.3,11.88,7.09,19.17Z"/>
  <path class="cls-15" d="M175.02,104.7c.25,4.24-4.01,6.12-4.44,9.23-.35,2.51,2.61,6.69,2.5,9.9-.08,2.16-2.31,6-2.64,8.53,0-.13-1.06-.25-.99-2.49.17-5.44,2.69-11.55-3.57-14.67-.78-2.68,1.33-1.77,2.22-3.03,1.35-1.93,2.7-5.23,4.11-7.4-.12-.74-7.6-10.93-8.73-11.64-1.85-1.17-4.45-.72-5.93-2.58-2.49-3.14-3.48-11.08-4.73-12.42-2.95-3.17-12.38-1.26-11.8-9.2l1.4-1.72c1.81,1.57,3.16,4.31,4.78,5.51,2.47,1.82,7.71,2.4,9.24,4.45,1.56,2.11,1.84,9.89,4.17,11.55,1.31.93,4.67.58,6.43,1.5.76.4,7.91,13.26,7.98,14.48Z"/>
  <path class="cls-15" d="M173.29,477.88c.08,1.95-1.01,3.26-1.01,3.45-1.92-1.97-3.89-8.18-6.42-9.08-.06-.98,1.16-.99,1.84-1,.88-.02,2.43.66,3.66,0,.31,2.36,1.82,4.16,1.93,6.63Z"/>
  <path class="cls-8" d="M172.86,490.7l.26.57c-.07-.14-.16-.34-.26-.57Z"/>
  <path class="cls-8" d="M172.28,489.4l.58,1.3c-.26-.55-.57-1.23-.58-1.3Z"/>
  <path class="cls-5" d="M168.56,601.06c1.13-.58,2.26-1.15,3.39-1.72-1.11.6-2.24,1.17-3.39,1.72Z"/>
  <path class="cls-10" d="M152.96,312.48c2.71,2.17,12.38-4.52,11.02,8.89-.08.73-.65,3.46-1.33,6.49-1,4.44-2.25,9.52-2.56,9.97-.37.53-9.81,7.14-10.42,7.21l-5.35-4.97-5.94,3.08c-3.54-7.81-3.23-19.6.23-27.47.02-.04.05-.11.1-.2.73-1.34,4.5-7.47,4.85-7.71,1.37-.97,5.57-1.39,7.07-.8l2.33,5.51Z"/>
  <path class="cls-15" d="M160.36,469.23c2.05,1.71,1.92-.7,3.67,3.02-1.48-.63-2.87-.79-4.58-2.01l.91-1.01Z"/>
  <path class="cls-6" d="M160.36,469.23l-.91,1.01c-1.28-.91-4.51-3.77-4.58-5.05,1.44.11,2.55,1.17,3.66,2.02.57.65,1.23,1.51,1.83,2.02Z"/>
  <path class="cls-18" d="M160.21,45.44l-.37,2.17c-2.25-.5-4.8-2.51-7.34-2.91-6.87-1.06-14.19,1.21-20.97-1.08-.07.01-.14.02-.22.04l-.32-2.08c4.13-.67,17.77-.49,21.51.1,3.25.51,5.98,3.58,7.55,3.75.05.01.11.01.16.01Z"/>
  <path class="cls-22" d="M157.2,535.74c.84-.11.98.44,1.33,1.06-4.32,1.11-7.87,4.31-11.91,6.06,1.07-2.66,3.9-2.73,5.75-4.01,1.53-1.06.69-3.68,4.83-3.11Z"/>
  <path class="cls-15" d="M154.87,463.18c3.23,1.12,1.83,1.94,3.66,4.03-1.11-.85-2.22-1.91-3.66-2.02-.04-.66.02-1.34,0-2.01Z"/>
  <path class="cls-22" d="M156.69,573.1l-15.44,2.17c-4.14,5.79,2.59,9.93,2.69,10.54.8,5.08-10.75,7.52-13.8,9.49l-2.97-11.87-4.95-.62-4.92-.62,1.82-5.56c11.14-.41,19.83-2.43,18.96-17.04-.19-3.16-3.31-2.9-4.29-5.64,2.54,1.06,4.2,3.8,7.33,3.03.08-3.36-.76-11.95,2.06-13.9.92-.63,2.02-.02,2.52-.22-.29,1.48-2.52,1.67-2.76,2.73-.26,1.09-.26,11.64,0,12.69.25,1.02,12.66,11.61,13.75,14.82Z"/>
  <path class="cls-1" d="M142.74,684c.13.54-.22,1.64-.82,2.98l-2.61-.14c.33-.7.43-1.44.08-2.21l-13.61-11.9-9.59,2.78-.81-2.81c3.13-.93,6.45-3.49,9.65-3.6,4.39-.15,4.53,2.87,7.29,5.11,3.66,2.98,7.82,5.1,10.42,9.79Z"/>
  <path class="cls-7" d="M139.39,684.63c.35.77.25,1.51-.08,2.21-.82,1.72-3.08,3.17-3.77,4.19-1.74,2.61-3.86,7.15-5.84,9.21-2.1,2.19-32.74,15.17-36.3,15.58-.23.03-.46.05-.7.06-4.79.25-11.15-2.2-15.66-2.07-4.18.13-10.23,4.76-14.48,3.93-1.54-.3-6.05-4.49-6.61-5.91-.93-2.34-.1-4.36-.49-6.37-.15-.8-3.01-.73-1.65-3.54l21.18-14.49,41.2-11.92,9.59-2.78,13.61,11.9Z"/>
  <path class="cls-22" d="M132.88,551.93v2.02c-1.05-.48-2.37-.08-2.76-2.02h2.76Z"/>
  <path class="cls-18" d="M130.99,41.58l.32,2.08c-2.36.52-7.23,5.58-9.43,7.01-2.13,1.38-4.26,2.59-6.42,4.03-2.24,1.5-5.4,2.28-7.25,3.61-3.2,2.31-9.31,17.61-11.94,22.38-1.53,2.76-4.48,10.32-7.11,11.13-2.44.75-4.46-.55-7.2,1.15-3.96,2.47-10.53,13.52-10.41,18.56.1,4.3,2.78,7.46,2.78,9.23,0,3.25-1.68,2.3-1.91,3.23-1.35,5.31,6.25,7.38,5.43,13.39-.54.24-1.49-.16-1.79.03l-10.09-2.52-.24-2.85,1.42-.12,7.99,2.45-5.35-5.76c-.83-2.19.74-4.54.77-6.33.08-4.66-1.99-7.83-1.88-11.57.21-6.88,6.44-17.11,12.06-20.09,2.97-1.58,6.92-1.13,8.6-2.64,2.06-1.84,5.28-11.19,6.9-14.38.34-.65,1.46-.83,2.07-2.02,1.38-2.71,4.75-12.84,5.89-13.91,1.97-1.83,6.75-3.22,9.17-4.77,3.51-2.26,14.26-10.65,17.25-11.26.11-.02.24-.04.37-.06Z"/>
  <path class="cls-22" d="M129.21,551.93l-19.29,18.61c-.6.63-1.36,1.05-2.2,1.36-2.54.95-5.79.83-7.44,2.15-1.62,1.28-4.54,10.33-6.81,12.17,1.91-6.68,1.34-7.57,6.02-12.04.74-.71,1.01-2.52,1.52-2.85,1.31-.84,7.49-1.3,9.85-2.8,2.1-1.33,6.89-8.65,8.99-10.55,1.32-1.21,8.12-6.01,9.36-6.05Z"/>
  <path class="cls-8" d="M126.46,153.54c.38,1.05,1.33,1.11.77,3.23-1.55,5.98-8.12,11.15-9.46,16.95l-1.9,1.08c-1.24.14-2.09-1.08-2.24-1.09l-.92-2.01c.55.08,1.27.04,1.84,0,.53-.04,1.16.26,1.65-.17l4.76-8.91c2.1-1.33,2.68-3.89,3.67-6.05.12-.27-.13-.74,0-1.01.11-.24.64-.7.91-1.01.31-.34.59-.7.92-1.01Z"/>
  <path class="cls-8" d="M125.54,154.55c-.27.31-.8.77-.91,1.01l-26.33-2.78v-.14c7.59.74,16.52-.76,24.12-.18,1.85.15,2.25.17,3.12,2.09Z"/>
  <path class="cls-8" d="M124.63,155.56c-.13.27.12.74,0,1.01l-3.67,6.05-4.76,8.91c-.49.43-1.12.13-1.65.17l-.92-4.03c-7.72-1.48-15.19.21-22.91,1.01v-6.06l-.92-1.01c-.29-.04-.62.06-.91,0-1.72-3.59-5.21-5.78-1.31-9.96l10.72,1.13,26.33,2.78Z"/>
  <path class="cls-8" d="M120.96,162.62l3.67-6.05c-.99,2.16-1.57,4.72-3.67,6.05Z"/>
  <path class="cls-1" d="M115.38,672.7l.81,2.81-41.2,11.92-21.18,14.49c-1.36,2.81,1.5,2.74,1.65,3.54.39,2.01-.44,4.03.49,6.37.56,1.42,5.07,5.61,6.61,5.91,4.25.83,10.3-3.8,14.48-3.93,4.51-.13,10.87,2.32,15.66,2.07l.11,2.2c-6.25.3-10.97-1.39-17.23-.47-3.52.52-8.84,4.01-12.95,3.86-4.02-.15-6.41-5.44-10.25-6.17-.68-4.05-3.85-13.97-.75-16.94,6.95-3.39,13.84-10.33,20.67-13.57,12.06-5.72,29.92-8.18,43.08-12.09Z"/>
  <path class="cls-4" d="M112.71,171.7l.92,2.01c-2.8-.08-4.52,2.24-6.67,1.87-1.98-.33-4.52-3.51-6.16-4.89,1.53-.23,5.12-2.12,6.8-2.02.31.02,1.9,2.53,5.11,3.03Z"/>
  <path class="cls-18" d="M109.96,235.25c.39,1.55-1.19.75-1.49,1.29-.89,1.62-1.32,2.8-1.25,4.75-1.99.81-2.99,2.74-2.75,5.04-1.42,1.06-1.84,1.66-2.7,2.34-.01.01-.01.02-.02.02s0,.01-.02.01c-1.51,1.08-2.96,1.75-4.1,2.18.34-.39.72-.98.75-1.71.02-.69-.27-1.2-.34-1.33-.39-.8.64-2.94,6.43-8.56-3.12-.46-.5,2.27-3.97,1.95-3.82-.34-5.13-1.92-7.95-3.97-2.13-1.56-4.91-5.58-5.49-6.06-.11-.85-.09-1.81-.04-2.81h1.93c-.13,2.08.79,4.17,5.44,6.85,8.1,4.67,8.38-1.61,15.57,0Z"/>
  <path class="cls-9" d="M107.13,494.08l-.36,2.11-1.41-.24c-3.05-2.13-4.97-1.08-6.39-5.54,1.95.58,7.5,1.55,8.16,3.67Z"/>
  <path class="cls-9" d="M106.77,496.19l-2.43,14.26c-8.75-.69-16.67,6.33-25.38,3.49-1.92-.63-3.45-2.37-5.39-3.14-2.43-.97-11.71-3.62-12.13-6-1.36-7.68,1.48-12.06,7.53-15.64,1.27-.75,4.79-2.05,2.51,1.25-6.42,2.39-7.29,8.32-6.33,15.03,5.86.29,13.05,7,18.56,6.82,3.37-.12,7.41-2.75,10.43-3.46,2.38-.56,6.83.58,8.06-1.22l3.16-11.63,1.41.24Z"/>
  <path class="cls-9" d="M105.36,495.95l-3.16,11.63c-1.23,1.8-5.68.66-8.06,1.22-3.02.71-7.06,3.34-10.43,3.46-5.51.18-12.7-6.53-18.56-6.82-.96-6.71-.09-12.64,6.33-15.03,5.57-2.08,21.7-1.71,27.49,0,1.42,4.46,3.34,3.41,6.39,5.54Z"/>
  <path class="cls-18" d="M101.77,248.67c.86-.68,1.28-1.28,2.7-2.34-.7.73-1.58,1.55-2.7,2.34Z"/>
  <path class="cls-18" d="M93.53,248.39c3.18-.88,1.95,1.81.77,3.75-.33.29-.6.69-.83,1.25-.46.23-1.05,1.41-1.72,2.86l-1.86-.96c-.14-3.59,1.51-6.32,3.64-6.9Z"/>
  <path class="cls-6" d="M93.42,451.89l-.42.25-.55-.94c-4.26-1.18-5.88,4.3-9.95,5.45-3.09.88-6.02-.11-8.95,1.24-4.72,2.17-11.39,19.56-19.48,10.33.06-.01.02-1.01.9-1.01h.01c8.85,5.76,13.78-11.67,17.11-12.95,3.27-1.25,6.84,1.59,9.71.68,2-.63,6.45-6.19,9.4-6.79.62.06,1.19,1.95,2.22,3.74Z"/>
  <path class="cls-4" d="M90.75,230.49c.07.35,3.56,3.09,3.64,4.75-4.65-2.68-5.57-4.77-5.44-6.84.15-2.46,1.78-4.9.38-8.27-.68-1.63-9.22-8.11-11.44-10.11v-1.01c5.65,2.39,2.88-3.36,9.16-2.02-.51,4.82.2,7.97,2.42,12.02.45.82,2.1.93,2.23,1.77.28,1.8-1.7,6.05-.95,9.71Z"/>
  <path class="cls-22" d="M93.47,587.23c-.65,2.21-.91,4.52-2.75,6.05.6-2.23.95-4.5,2.75-6.05Z"/>
  <path class="cls-4" d="M90.71,184.29c.13,1.9,2.21,2.51,1.84,4.55-3.41,1.05-2.61-2.2-4.6-3.49-.9-.57-6.1-1.9-6.39-1.55.02,2.03.15,4.13-.38,6.11l-.66-.16c.27-5.42-2.21-10.45-2.63-16.04l2.76,7.06c6.14-.94,2.29-6.3,2.67-9.58.31-2.74,7.5-3.95-.85-8.57,5.29.8,7.25,3,6.42,9.08.35.4,8.62-.79,10.08-1.01-2.74,2.37-5.63,3.58-9.17,3.03-.89,2.59,1.68,4.72,1.75,6.49.04,1.24-.94,2.68-.84,4.08Z"/>
  <path class="cls-22" d="M90.72,594.29c-.13.55.11,1.38,0,2.02l-7.12-1.24-3.88-20.95c4.43,1.73.94,23.35,11,20.17Z"/>
  <path class="cls-18" d="M89.9,365.23c.25,2.62-.18,4.58-1.08,6.08h-.03c.86-1.48,1.27-3.41,1.02-5.96l-2.79.22-20.37,1.6-19.07-15.58c.25-2.91.72-5.95,2.44-8.05-1.64,2.09-2.1,5.08-2.35,7.93l19.08,15.58,23.15-1.82Z"/>
  <path class="cls-18" d="M89.81,365.35c.25,2.55-.16,4.48-1.02,5.96l-1.91-.21c.55-1.15.21-2.63.27-3.85l-.13-1.68,2.79-.22Z"/>
  <path class="cls-18" d="M87.02,365.57l.13,1.68c-3.02,1.44-21.16,2.11-21.99,3.02l-18.62-17.58,1.04-1.1,19.07,15.58,20.37-1.6Z"/>
  <path class="cls-12" d="M82.47,162.62c8.35,4.62,1.16,5.83.85,8.57-.38,3.28,3.47,8.64-2.67,9.58l-2.76-7.06c-.02-.33.02-.67,0-1-.14-3.37-.99-11.18,3.67-11.1.55,0,.76.92.91,1.01Z"/>
  <path class="cls-4" d="M80.52,189.75l.66.16c-.07.25-.15.5-.24.75-.48,1.29-2.19,1.13-2.19,1.75.02,1.98,2.56,3.67,1.76,6.8l-5.37,7.79c-.58-1.14-.65-3.37-1.15-3.83-.51-.47-2.05.06-2.36-.33-.51-.63.13-2.42-.2-3.12-.63-1.33-3.02-1-1.67-5.2,2.97-2.23,5.65-2.48,9.05-4.67.26-.16,1.19.31,1.71-.1Z"/>
  <path class="cls-13" d="M65.98,192.89l12.83-3.04c-3.4,2.19-6.08,2.44-9.05,4.67-1.35,4.2,1.04,3.87,1.67,5.2.33.7-.31,2.49.2,3.12l-.42.23c-1.86-3.32-3.37-6.97-5.23-10.18Z"/>
  <path class="cls-18" d="M75.12,399.04c.11,2.65,4.51,7.8,3.3,9.72-2.51,2.06-5.79,1.5-8.51,2.77-2.39,1.11-22.58,14.54-23.1,15.92-.17.44-.34,1.53-.07,2.12l-1.57.92-1.84-3.13,2.03-2.5c10.19-5.06,18.38-15.56,29.79-17.16.56-6.32-4.8-6.24-4.65-11.48l6.48-3.64c-.45,2.4-1.91,4.94-1.86,6.46Z"/>
  <path class="cls-18" d="M77.92,387.01c.25.87-.83,1.99-.85,2.42-.02-.01-.04-.02-.06-.02.17-.5,1.04-1.49.81-2.28l-1.44-1.46-14.99-1.16v-6.06h.1v5.94l14.99,1.16,1.44,1.46Z"/>
  <path class="cls-18" d="M76.82,171l-2.01.76c-.1-.28-.21-.56-.32-.83-.56-1.31-1.83-1.19-2.35-2.52-2.27-5.75-5.29-18.3-9.51-21.77-1.9-1.57-7.91-3.11-8.44-4.83l.28-18.59c3.76-.83,9.38-1.78,13.34-1.95l-.66,10.65-1.42.12-.67-7.75-8.2,1.06-.09,15.42c.31,1.44,8.39,2.57,10.17,5.42,1.49,2.41,3.92,10.98,5.49,14.66.24.56,1.37.71,1.74,1.54,1.06,2.38,1.35,5.91,2.65,8.61Z"/>
  <path class="cls-18" d="M69.65,438.96l-22.89,3.57c-3.05,4.32-7.01,8.23-10.13,12.08-.91,1.12-1.26,2.88-1.81,3.52-.94,1.12-3.22.8-4.18,3.98-.63,2.09-1.11,6.56.52,8.13-.19,5.38-.37,9.71-.15,13.66l-1.5.1c-.54-7.57-2.31-15.93-.88-22.09.42-1.82,16.65-21.73,18.12-22.42,3.03-1.41,18.55-1.79,19.24-2.54v-3.02h-18.8l-2.02-3.44,1.57-.92c.11.22.28.38.53.39,8.31,3.77,21.53-5.04,22.38,9Z"/>
  <path class="cls-22" d="M69.64,582.19c-3.3,3.84.2,7.38-.42,11.15-.47,2.91-2.22,1.81-2.32,1.96,1.8-2.22.34-8.65-.08-11.45.19-1.12,2.18-.99,2.82-1.66Z"/>
  <path class="cls-22" d="M60.97,599.37c1.26-1.26,5.42-3.63,5.9-4.04-4.54,6.26-12.05,15.12-18,19.48-.7.51-.84,2.09-1.68,2.66-.97.08-7.35-18.23-3.2-20.15-.3,6.14-.94,12.37,6,13.05,1.91-.12,8.82-8.85,10.98-11Z"/>
  <path class="cls-18" d="M56.81,530.76c.64,9.5,7.92,13.58-.99,20.58-6.81,5.35-13.9,1.19-13.74,13.2.01.8.31,3.15.65,5.2l-1.38.08c0-.61-1.89-1.01-1.95-1.39-.98-6.18,1.35-8.94,1.84-13.47,8.22-4.74,22.74-5.71,13.28-19.16-3.84,6.55-6.23,8.04-13.28,8.06-1.83.01-3.68.01-5.51.01.04-.97.04-1.95,0-2.94l1.84-.09c5.55,0,9.2,1.2,13.42-3.39,1.06-1.16,4.17-8.02,5.82-6.69Z"/>
  <path class="cls-18" d="M56.99,325.36c.02,4.31-5.44,12.05-5.65,16.88-.03.03-.07.05-.1.08.24-4.83,5.68-12.54,5.65-16.84-.03-5.36-8.74-7.37-10.82-12.06.5-4.58,9.51-13.45,7.17-17.2-1.18-1.89-3.78-2.93-5.57-4.88-.8-.89-1.44-1.97-1.7-3.39-.91-5.1,3.46-15.25,1.67-21.45-.6.44-1.15.94-1.66,1.49.53-.59,1.11-1.14,1.76-1.61,1.79,6.2-2.58,16.35-1.67,21.45.82,4.57,5.56,5.52,7.27,8.27,2.34,3.75-6.67,12.62-7.17,17.2,2.08,4.69,10.79,6.7,10.82,12.06Z"/>
  <path class="cls-17" d="M51.76,464.19c2.39.24,2.59,2.59,3.21,3.02-.88,0-.84,1-.9,1.01-1.84.28-10.01,1.15-11.37,1-4.66-.49-6.88-6.33-11.55-5.04-.05,2.01.08,4.05,0,6.06-1.63-1.57-1.15-6.04-.52-8.13.96-3.18,3.24-2.86,4.18-3.98-.75,4.08,6.11,7.65,8.51,7.79,2.3.13,6.23-1.96,8.43-1.73Z"/>
  <path class="cls-22" d="M48.57,572.1c3.72-2.11,4.25,1.17,2.54,2.86-.46.45-1.48.03-1.63.17l-.91-3.03Z"/>
  <path class="cls-18" d="M47.64,266.5c1.79,6.2-2.58,16.35-1.67,21.45.26,1.42.9,2.5,1.7,3.39l-1.25,1.09-3.12-3.57,1.69-15.41c-1.83,1.23-2.46,4.17-4.08,6.08-1.26,1.48-3.08,2.58-4.61,3.7l-13.25-10.36-19.66,1.69L.25,255.99l9.85-10.35,1.35,1.29s-.07.08-.1.12c-.32.35-.66.74-1,1.17-1.24,1.55-2.58,3.53-3.89,5.22-.44.56-.88,1.1-1.32,1.57-.81.88-1.59,1.55-2.32,1.81v.07s-.07.04-.1.05l.02,1.96c3.6.88,1.61,10.62,3.61,12.21,5.2,2.3,13.15-1.68,17.71-.33,2.86.84,8.52,6.8,11.36,8.72,1.8-.54,3.17-1.57,4.33-2.84.35-.37.67-.76.98-1.17.12-.15.23-.3.34-.45.22-.31.44-.62.65-.94,1.11-1.62,2.1-3.37,3.28-4.93.19-.26.39-.51.61-.76.12-.14.24-.28.37-.42.51-.55,1.06-1.05,1.66-1.49Z"/>
  <path class="cls-22" d="M47.59,586.3l-3.6,10.01c.27-3.46,1.65-6.57,1.8-10.04-4.79-1.36-8.6-1.73-12.47-5.45-.6-.57-6.49-8.06-5.82-8.71,7.14.61,13.97,7.11,21.07,4.03-1.09.78-1.99,2.42-3.45,2.83-2.86.81-10.07-3.52-7.93,3.22,4.14-.8,6.49,3.38,10.4,4.11Z"/>
  <path class="cls-18" d="M45.98,267.99c-.13.14-.25.28-.37.42.11-.14.24-.28.37-.42Z"/>
  <path class="cls-18" d="M37.87,237.43c-1.11,1.55-2,7.83-3.22,9.5-.02.02-.04.05-.07.08,1.23-1.77,2.14-8.27,3.29-9.58Z"/>
  <path class="cls-18" d="M35.51,279.38c1.74-.52,3.09-1.51,4.24-2.72-1.16,1.27-2.53,2.3-4.33,2.84-2.84-1.92-8.5-7.88-11.36-8.72-4.56-1.35-12.51,2.63-17.71.33-2-1.59-.01-11.33-3.61-12.21l-.02-1.96s.07-.03.1-.05l.02,1.89c3.6.88,1.6,10.62,3.61,12.21,5.2,2.3,13.15-1.68,17.71-.33,2.86.84,8.52,6.8,11.35,8.72Z"/>
  <path class="cls-18" d="M10.35,248.22c-1.24,1.58-2.58,3.55-3.89,5.22,1.31-1.69,2.65-3.67,3.89-5.22Z"/>
</svg>