<?xml version="1.0" encoding="UTF-8"?>
<svg id="_레이어_1" data-name="레이어 1" xmlns="http://www.w3.org/2000/svg" viewBox="0 0 42.54 48.57">
  <defs>
    <style>
      .cls-1 {
        fill: #362211;
      }

      .cls-2 {
        fill: #352211;
      }

      .cls-3 {
        fill: #382311;
      }

      .cls-4 {
        fill: #0d0704;
      }

      .cls-5 {
        fill: #0c0a0e;
      }

      .cls-6 {
        fill: #a2661f;
      }

      .cls-7 {
        fill: #362311;
      }

      .cls-8 {
        fill: #f68610;
      }

      .cls-9 {
        fill: #362210;
      }

      .cls-10 {
        fill: #21130e;
      }

      .cls-11 {
        fill: #f3840f;
      }

      .cls-12 {
        fill: #382514;
      }

      .cls-13 {
        fill: #2b1c14;
      }

      .cls-14 {
        fill: #e85513;
      }

      .cls-15 {
        fill: #241911;
      }
    </style>
  </defs>
  <path class="cls-12" d="M36.35,10.13c-.54.43.19,1.43.19,1.85v3.87c0,.26-.15,1.06-.19,1.5,0,.02.17.03.12.35-.15.97-.79,2.04-1.05,3l1.27-.82c1.15-1.19.52-3.26,3.09-3.25,1.47,0,2.26,1.43,2.61,2.6s.01,2.31-.5,3.46c-.83,1.85-4.21,5.03-5.91,6.36-1.1.86-2.38,1.46-3.43,2.37.09,1.03-.64,6.17-.05,6.65.39.31,1,.03,1.45,1,.71,1.52.49,4.22-.77,5.45-.56.55-1.36.63-1.77,1.17-.42-.05-.77-.25-1.18-.36-.29-1.11-2.1-.62-3.04-.72-.75-.08-1.59-.4-2.29-.64-.21-.07-.66-.36-.79-.05-.93-.49-2.06-1.33-2.47-2.32-.11-.27-.11-.56-.13-.84l-2.4-.18c-.04,1.59.42,3.44.19,5.02-.34,2.37-6.7,4.01-8.07,2.19-.38-.5-.28-1.23-.52-1.79-.36-.84-1.03-1.66-1.38-2.57-1.89-4.92-1.18-10.61.11-15.57C5.42,23.91,1.65,19.13.37,13.65l.06-.85-.43-3.55c0-.06.18-.14.19-.18.28-.21.19-.58.19-.88.43-1.77,1.01-3.69,2.65-4.79,1.36-.91,3.54-.86,4.48.57.47.71.14,1.06.28,1.63.04.15.53.32.74,1.53v1.76c-.49.48-.09,1.27,0,1.76.07.38.12.77.19,1.14.05.29-.12.3.36.27.12-1.64.87-3.39,1.71-4.81,6.32-10.69,22.26-9.45,25.56,2.87ZM35.61,11.37c-1.19-3.8-2.91-7.23-6.86-9.06-4.01-1.86-8.7-1.66-12.36.68-4.28,2.74-6.78,7.57-6.37,12.52l.55,1.85v-2.9c0-4.81,5.13-10.42,10.01-11.44,9.98-2.1,15.34,6.32,13.41,14.84-.37,1.65-1.13,3.03-1.54,4.61,2.48-1.5,2.57-4.43,3.34-6.86.04-.14.37-.25,0-.53,0-.64.04-1.31,0-1.94.56-.65-.02-1.25-.19-1.76ZM22.62,3.8c-.06,0-.12,0-.19,0-.2-.31-.76-.15-1.11-.18v.35c-6.68,1.01-10.48,8.08-9.41,14.12,2.03,11.46,19.73,11.42,21.28-1.63.42-.12.36-.45.38-.78.09-1.44-.01-2.89-.32-4.3-.07-.31.08-.66-.43-.55-.81-3.08-3.69-6.22-7.05-6.86.1-.57-.3-.29-.65-.35-.66-.1-1.18-.18-1.86-.18-.35,0-.75-.16-.64.35ZM18.36,40.05c.09-.1.14-.3.26-.36.69-.37,3.3-.31,3.83.44.59.84.17,1.57,1.49,2.46,2.01,1.36,3.73.84,5.79,1.2,1.03.18,1.2,1.24,2.37.23,1.03-.89,1.53-3.76.55-4.77-.47-.49-1.68-.29-1.83-.91l.61-7.28c.21-.64,4.06-3.05,4.93-3.77,1.7-1.41,4.85-4.51,5.01-6.68.09-1.27-.51-3.5-2.28-2.73-.32.14-.37.8-.53,1.09-.15.26-.33.68-.41.79-1.09,1.65-4.58,2.9-6.42,3.85-1.06.55-2.18,1.84-3.3,2.5-4.57,2.7-10.9,1.7-14.6-1.92-1.27-1.24-4.06-5.28-4.61-6.88-.5-1.45-1.51-4.1-1.62-5.5-.09-1.13.28-4.63-.45-5.38-.34-.34-1.09.02-1.38.28-.39.34-1.03,3-1.73,1.62-.57-1.14,1.29-3.39,2.64-3.12-1.37-2.89-4.05-.28-4.85,1.64-1.13,2.72-.86,5.22.03,7.78,1.46,4.18,4.56,9.03,8.02,11.89,1.47,1.22.33,2.46.03,3.86-.85,4.01-.9,8.61.58,12.67.33.9,1.41,2.17,1.54,2.59.23.74-.35,1.3.78,1.73.23.09,1.37.31,1.55.27.14-.03.1-.35.23-.35.31-.02,1.67-.14,1.89-.23.27-.11,1.58-1.7,1.71-1.71.01,0,.08.17.18.18-.02-.91.04-1.83,0-2.74-.01-.34.19-.71-.37-.61-.01-.43-.05-.99,0-1.41h.37s0-.7,0-.7Z"/>
  <path class="cls-13" d="M36.35,17.35c.04-.44.19-1.23.19-1.5v-3.87c0-.41-.72-1.42-.19-1.85.61,2.28.93,5,0,7.22Z"/>
  <path class="cls-15" d="M30.23,45.33c-2.3-.62-3.8-.18-6.12-1.41.13-.32.58-.02.79.05.71.24,1.55.56,2.29.64.94.1,2.75-.39,3.04.72Z"/>
  <path class="cls-4" d="M8.53,10.66c-.09-.49-.49-1.28,0-1.76v1.76Z"/>
  <path class="cls-4" d="M8.53,8.73v-1.58c.07.42.5,1.13,0,1.58Z"/>
  <path class="cls-8" d="M18.17,45.33c-.12.01-1.44,1.6-1.71,1.71-.22.09-1.58.21-1.89.23-.13,0-.1.33-.23.35-.18.04-1.32-.18-1.55-.27-1.12-.42-.55-.98-.78-1.73-.13-.42-1.21-1.69-1.54-2.59-1.48-4.06-1.43-8.66-.58-12.67.3-1.4,1.44-2.64-.03-3.86-3.46-2.86-6.56-7.71-8.02-11.89-.89-2.56-1.16-5.05-.03-7.78.8-1.93,3.49-4.53,4.85-1.64-1.35-.27-3.21,1.98-2.64,3.12.69,1.39,1.34-1.28,1.73-1.62.29-.26,1.04-.62,1.38-.28.74.74.36,4.25.45,5.38.11,1.4,1.12,4.05,1.62,5.5.55,1.6,3.35,5.64,4.61,6.88,3.7,3.62,10.03,4.62,14.6,1.92,1.12-.66,2.23-1.96,3.3-2.5,1.84-.95,5.33-2.2,6.42-3.85.07-.11.26-.54.41-.79.17-.29.21-.95.53-1.09,1.77-.77,2.37,1.46,2.28,2.73-.16,2.18-3.31,5.27-5.01,6.68-.87.72-4.72,3.13-4.93,3.77l-.61,7.28c.15.61,1.37.42,1.83.91.97,1.01.47,3.88-.55,4.77-1.17,1.01-1.35-.05-2.37-.23-2.05-.36-3.77.16-5.79-1.2-1.32-.89-.89-1.62-1.49-2.46-.53-.75-3.14-.82-3.83-.44-.12.07-.18.26-.26.36-.28.32-.3.1-.37.7-.05.42-.01.97,0,1.41.03,1.06.27,2.1.19,3.17Z"/>
  <path class="cls-11" d="M22.44,3.8c.06,0,.12,0,.19,0,1.09-.06,2.09-.03,3.15.18,3.36.64,6.24,3.78,7.05,6.86.48,1.85.59,3.75.37,5.63-1.55,13.05-19.25,13.09-21.28,1.63-1.07-6.04,2.73-13.11,9.41-14.12.39-.06.64-.14,1.11-.18ZM17.43,8.02c-1.4.1-3.34,1.68-3.07,3.18l1.01.14c.37-1.7,2.7-2.5,4.24-1.78.98.46.32,1.83,1.44,1.83,1.02,0,.92-1.52.82-2.21s-.67-.91-1.28-1.15c-.05-.02-.14-.22-.35-.27-.73-.2-2.17-.19-2.8.27ZM30.63,13.09c.32.1.92.12,1.05-.25.47-2.31-2.9-4.43-5.04-3.93-.13.03-.1.28-.27.33-.18.06-.47-.02-.64.06-.68.32-2.72,1.77-1.55,2.42s1.27-.51,2.17-.77c2.01-.59,3.43.54,4.27,2.13ZM18.5,13.52c.21.19.27.84.7,1.01.85.17.95-2.24-.75-2.3-1.1-.04-4.38.72-2.41,1.95.7-.25,1.69-1.37,2.46-.66ZM23.18,17.17c.05-.07.3-.05.37-.44.12-.62,0-1.59-.18-2.2-.12-.41-.34-1.03-.84-1.06-1.23-.09-4.08,3.81-1.25,4.37,1.15.22,1.37.17,1.9-.66ZM26.47,13.7c-.63.1-2.6,1-1.62,1.64.49.32,1.75-1.03,2.88-.27.38.26,1.38,1.72,1.86,1.06.14-1.57-1.51-2.68-3.12-2.43ZM19.22,19.01c-1.13-.59-2.92-2.4-3.66-.71-.83,1.87,2.45,4.12,4.05,4.65,2.46.82,6.97.32,7.26-2.71.1-1.01-.1-.57-.44-.94-.16-.17-.26-.52-.4-.54-.39-.06-1.57.21-1.96.38-.15.06-.15.33-.25.34-.96.03-2.87-.22-3.9-.34-.18-.02-.37.07-.54.14-.12,0-.07-.21-.15-.25Z"/>
  <path class="cls-14" d="M35.61,11.37c-.15.61.15,1.23.19,1.76.04.63,0,1.3,0,1.94v.53c-.77,2.43-.86,5.36-3.34,6.86.41-1.57,1.17-2.96,1.54-4.61,1.92-8.52-3.43-16.94-13.41-14.84-4.88,1.03-10.01,6.63-10.01,11.44v2.9l-.55-1.85c-.41-4.95,2.09-9.78,6.37-12.52,3.66-2.34,8.34-2.53,12.36-.68,3.95,1.83,5.67,5.26,6.86,9.06Z"/>
  <path class="cls-10" d="M32.82,10.84c.51-.1.36.24.43.55.31,1.4.41,2.86.32,4.3-.02.33.04.66-.38.78.22-1.88.11-3.79-.37-5.63Z"/>
  <path class="cls-5" d="M22.62,3.8c-.11-.52.29-.36.64-.35.68,0,1.2.09,1.86.18.34.05.75-.22.65.35-1.06-.2-2.07-.23-3.15-.18Z"/>
  <path class="cls-5" d="M17.99,42.16c.56-.1.36.27.37.61.03.91-.02,1.83,0,2.74-.1,0-.17-.18-.18-.18.08-1.07-.15-2.11-.19-3.17Z"/>
  <path class="cls-13" d="M35.79,13.13c-.04-.53-.33-1.15-.19-1.76.16.51.74,1.11.19,1.76Z"/>
  <path class="cls-5" d="M18.36,40.05v.71s-.37,0-.37,0c.07-.6.09-.38.37-.7Z"/>
  <path class="cls-5" d="M22.44,3.8c-.48.03-.72.12-1.11.18v-.35c.35.03.91-.14,1.11.18Z"/>
  <path class="cls-13" d="M35.79,15.59v-.53c.37.28.04.39,0,.53Z"/>
  <path class="cls-2" d="M19.22,19.01c.07.04.03.25.15.25.17-.07.36-.16.54-.14,1.04.12,2.94.37,3.9.34.11,0,.11-.27.25-.34.39-.16,1.57-.44,1.96-.38.14.02.24.37.4.54.35.37.54-.07.44.94-.29,3.04-4.8,3.53-7.26,2.71-1.59-.53-4.88-2.77-4.05-4.65.75-1.68,2.53.13,3.66.71Z"/>
  <path class="cls-7" d="M30.63,13.09c-.84-1.6-2.27-2.73-4.27-2.13-.9.26-1.06,1.39-2.17.77-1.17-.65.87-2.11,1.55-2.42.17-.08.46,0,.64-.06.17-.05.14-.3.27-.33,2.14-.5,5.51,1.62,5.04,3.93-.13.37-.73.35-1.05.25Z"/>
  <path class="cls-1" d="M17.43,8.02c1.03-.07,2.11.05,3.15,0,.61.24,1.18.43,1.28,1.15s.2,2.21-.82,2.21c-1.12,0-.46-1.37-1.44-1.83-1.54-.72-3.87.08-4.24,1.78l-1.01-.14c-.27-1.5,1.67-3.08,3.07-3.18Z"/>
  <path class="cls-9" d="M23.37,14.53c-.42.73-.08,1.8-.19,2.64-.54.83-.76.89-1.9.66-2.83-.56.01-4.46,1.25-4.37.5.04.72.66.84,1.06ZM21.98,15.06c-.27.06-1.17,1.68-.19,1.77,1.04.1.78-1.9.19-1.77Z"/>
  <path class="cls-3" d="M26.47,13.7c1.6-.25,3.25.86,3.12,2.43-.48.66-1.48-.8-1.86-1.06-1.12-.76-2.38.59-2.88.27-.98-.64.99-1.54,1.62-1.64Z"/>
  <path class="cls-9" d="M18.5,13.52c-.77-.71-1.76.41-2.46.66-1.98-1.23,1.31-1.99,2.41-1.95,1.7.06,1.6,2.46.75,2.3-.43-.17-.5-.82-.7-1.01Z"/>
  <path class="cls-15" d="M20.58,8.02c-1.04.05-2.12-.07-3.15,0,.63-.47,2.07-.47,2.8-.27.21.06.3.25.35.27Z"/>
  <path class="cls-10" d="M23.18,17.17c.1-.84-.23-1.91.19-2.64.19.62.3,1.58.18,2.2-.07.38-.32.36-.37.44Z"/>
  <path class="cls-6" d="M21.98,15.06c.59-.13.86,1.87-.19,1.77-.99-.09-.08-1.71.19-1.77Z"/>
</svg>