<?xml version="1.0" encoding="UTF-8"?>
<svg id="_레이어_1" data-name="레이어 1" xmlns="http://www.w3.org/2000/svg" viewBox="0 0 152.46 198.61">
  <defs>
    <style>
      .cls-1 {
        fill: #f8d08c;
      }

      .cls-2 {
        fill: #c3772b;
      }

      .cls-3 {
        fill: #b26021;
      }

      .cls-4 {
        fill: #eba531;
      }

      .cls-5 {
        fill: #f2bc41;
      }

      .cls-6 {
        fill: #2e6ab1;
      }

      .cls-7 {
        fill: #3b6eb1;
      }

      .cls-8 {
        fill: #f9d797;
      }

      .cls-9 {
        fill: #af5e23;
      }

      .cls-10 {
        fill: #8b3a22;
      }

      .cls-11 {
        fill: #f1b73b;
      }

      .cls-12 {
        fill: #4c79b0;
      }

      .cls-13 {
        fill: #fbf6ca;
      }

      .cls-14 {
        fill: #9d4923;
      }

      .cls-15 {
        fill: #fff;
      }

      .cls-16 {
        fill: #f9d89a;
      }

      .cls-17 {
        fill: #608cb0;
      }

      .cls-18 {
        fill: #f29232;
      }

      .cls-19 {
        fill: #af5e22;
      }

      .cls-20 {
        fill: #f5a436;
      }

      .cls-21 {
        fill: #f7c77d;
      }

      .cls-22 {
        fill: #f3e994;
      }

      .cls-23 {
        fill: #f7e8ae;
      }

      .cls-24 {
        fill: #9a4124;
      }

      .cls-25 {
        fill: #f7cb84;
      }

      .cls-26 {
        fill: #a14c23;
      }

      .cls-27 {
        fill: #f4c445;
      }

      .cls-28 {
        fill: #bcb0a0;
      }

      .cls-29 {
        fill: #eedf94;
      }

      .cls-30 {
        fill: #ac5b23;
      }
    </style>
  </defs>
  <path class="cls-19" d="M17.14,43.85c-.99,1.37-3.07,5.53-3.71,7.18l-.12-.25h-.62s0,.61,0,.61l.74.13c-.42,1.11-.99,2.82-1.24,3.96-2.02-1.32-2.04,1.4,0,.5-1.18,5.75-1.49,12.22.5,17.82.48,1.88,1.6,4.56,2.43,6.36.59,1.27,1.35,2.73,2.27,3.79.32.58.1.59.74,1.24l.41,1c4.81-.01,9.63-.02,14.44-.01v.25c-4.57,0-9.18-.14-13.74,0-.21,0-.89-.1-.49.25,21.04-.2,42.09.26,63.12,0,.42,0,1.1.16,1.36-.25,1.26.09,3.99.9,4.7,1.98,0,.01-.25.13-.21.2.3.41,1.06.8,1.49,1.61,1.57,2.92.9,9.65.94,13.17,0,.42-.16,1.1.25,1.36.18.59,1.3-.11,1.73-.25.2.45.81.14,1.12.01,2-.84,4-2.12,5.96-3.08l1.09-1.14c.46-.25.69-.65,1.39-.74.65-.08.88.16,1.33.24,1.21.33,1.4,1.75,1.18,2.79-.3,1.43-1.84,2.15-2.91,2.9-.56-.49-1.26.64-1.55.82-.73.45-1.53.73-2.25,1.21l-7.1,2.68c-.54.19-1.31.5-1.98.74-2.23.8-4.52,1.66-6.19,3.47-2.29,2.49-2.03,5.8-1.23,8.91l.24-.25c2.29,5.05,8.25,6.69,13.37,6.93l-.37.5c2.41.04,4.79.01,7.18-.25l-.13-.25c1.36-.14,4.04-.85,5.45-1.24.25.45.99.09,1.34-.02,2.47-.75,5.81-2.31,7.57-3.69,1.38-1.09,3-2.19,4.46-3.22l2.36-.52,1.36.77c.06.11.41.1.5.62.31,1.86-1.47,3.25-2.72,4.33-4.5,2.92-9.11,5.33-14.36,6.68-4.74,1.22-11.24,1.7-16.09.99-.03-.12-.13-.23-.25-.25-.16-.03-.62-.05-.72.03-.1.14.01.39-.03.46-.05.09-.22.17-.25.25-.35.96-.53,2.03-.99,2.97-.17.03-1.19,1.45-1.49,1.73-1.1.4-2.06,1.2-3.22,1.49H26.06v.25h-.25c-.56,1.34-.1,3.02,0,4.46,0,.03-.01.11,0,.25.11,1.3.13,2.67.25,3.96h-.49s.27,1.72.27,1.72l.47.02h.25c0,.08,0,.17,0,.25,0,.49.03,1,0,1.49,0,.02-.29.17-.25.36l.25.13h.25v.25c0,.57-.04,1.17,0,1.73h-.49s0,.37,0,.37l.5.13c.02.22.2.73.25,1.24l-1.24.87c-.02.55.83.8.96,1.29.16.61-.46,1.78-.21,2.54-1.19.16-.29-1.45-1.11-1.48-.71.52-.07,1.11-.17,1.79-.06.41-.52,1.12-.69,1.56-.55.44-1.06-.99-1.74-.88-.02-.16.02-.34,0-.5l.24-.12-.24-.12c-.96-7.06-1.9-14.14-1.98-21.29-4.89.47-9.41-1.57-10.57-6.63-.48-2.1-.28-4.08-.35-6.21-13.79-3.68-12.68-26.9-.1-31.7-.03-3.54,1-6.65,3.35-9.3-1.7-3.64-3.74-7.1-4.84-11-1.72-6.14-2.04-12.52-1.12-18.81.82.16.34-.67.72-1.14.25-.32.87-.33,1.15-.58,1.07-.92-.41-3.21-.14-3.48l1.48.49.11-1.25c1.9-.29,1.18-1.17,1.64-2.57.21-.64.75-1.15.87-1.86.12-.67-.23-1.43.38-2.22l1.71.47.29-2.44c.63-.3,1.65-.63,1.7.46ZM16.15,93.1c-.84,1.39-1.86,4.61.5,4.95,1.64,1.02,2.85,1.88,4.21,3.22-.4.46.03.57.23.87,1.51,2.26,2.15,3.97,2.99,6.55.01.08,0,.17,0,.25.78,6.91-.45,9.2-3.22,15.1-.15.32-.18.71-.5.99-.25.26-.73.74-.99.99-.5.31-.98.67-1.49.99l-2.41.94c-1.21.72-.96,3.3-.56,4.51.07,1.02.08,1.73.74,2.6.97,1.29,1.72,1.42,3.03,1.87.22.08.13.49.55.5,1.42.05,3.55-.27,5.2-.27,16.04,0,32.17.18,48.27-.02,2.92-.04,5.89.34,8.85-.04,1.77-.23,1.28-.65,1.92-1.17.39-.32,1.04-.34,1.45-1.15.27-.52.68-2,.3-2.46-.23-.28-.82-.63-1.01-.11-1.5-.81-2.12-1.14-3.47-2.23l-2.38-2.94c-1.15-1.83-1.82-3.97-2.04-6.13-.13-1.25.24-2.66-.28-3.8.36-3.35,2.52-5.42,4.7-7.67l5.2-2.65c.03-2.38-.04-4.76-.01-7.14.01-1.19.38-2.35.27-3.71-.16-1.95-1.29-4.16-3.41-4.51-3.26-.54-7.13-.27-10.46-.31-.33,0-.66,0-.99,0-.58,0-1.16,0-1.73,0-3.46-.03-6.94.01-10.4,0-13.2-.04-26.41.03-39.61,0-1.9.51-2.44.29-3.47,1.98ZM15.41,122.55c.5-.04.98-.48,1.24-.86,2.86-4.19,4.25-9.87,1.86-14.73-2.78-5.66-8.64-6.64-11.76-.74l-.28-.15c-1.93,4.07-2.67,9.28-.47,13.27,1.95,3.54,5.72,6.84,9.41,3.22ZM24.07,151.51h-.49v.49h.49v-.49ZM25.81,153.49c-1.22-.12-1.38,1.08-.98,1.98l.87-.24.12-1.74ZM25.06,155.97h-.74v.49h.74v-.49ZM23.83,156.22c-.23-.24-1.08.29-1.23.62v.37c.68.32,1.67-.53,1.23-.99ZM25.56,159.68c-.26-.24-2.44.72-2.23,1.48.26.25,2.65-1.1,2.23-1.48Z"/>
  <path class="cls-30" d="M137.2,50.78c-1.66.16-2.71-.45-3.69-1.68-.49-.61-1.79-2.44-2.21-3.18-.45-.79-.12-1.89-1.52-1.83.72-1.45-.44-1.62-.5-1.9-.12-.47.13-1.16.01-1.64-.06-.23-.63-.33-.87-.66-.58-.8-.49-1.98-2.1-1.99l.13-1.73c-.21-.29-.39-.21-.68-.19-1.73.17-1.42.52-1.92-1.43l-1.75-.11c-.48.47,1.63,2.2,1.99,2.6.19.21.18.55.24.62-2.52-2.72-5.63-5.01-8.17-7.67.07-1.06-.82-.77-1.13-1.96-.51-1.95-.34-4.35-.72-6.46-.42-2.32-1.14-4.1-2.11-6.18-1.95-4.18-4.58-8.79-9.41-9.9l-1.36-.49c-2.49-.12-4.36.09-6.68.98-.05.02-1.47.55-.86.75-2.5,1.18-5.48,4.13-7.17,6.32-.44.57-1.52,2.72-1.99,2.84-.02,0,.04-.29-.24-.25-.81,1.43-2.56,5.11-4.07,5.71-1.35.53-2.04,0-3.23-.03-1.48-.02-6.01.29-7.01-.17-.65-.3-2.16-4.06-2.65-5.02-.04-.08-.65-1.49-.87-.99-.99-1.84-2.29-3.92-3.71-5.45-.08-.09-.16-.17-.25-.25s-.16-.17-.25-.25c-1.4-1.95-3.59-3.22-5.94-3.71.14-.75-.38-.48-.86-.49-1.18-.04-2.32-.07-3.46.26-1.23.36-3.73,1.82-4.35,2.95-.09.06-.16.17-.25.25-1.32.62-2.46,2.46-3.22,3.71s-1.58,2.73-2.23,3.96l-1.58,2.25c-1.23,2.76-2.19,5.62-3.14,8.44-.1.3-1.18.68-.72.94-7.11,4.31-11.92,6.86-17.08,13.61-.07.09-.17.16-.25.25-.07.08-.17.18-.25.25-.12.11-.39.15-.5.25.23-.65.65-.9.25-1.73.69.07,1.5-.15,1.49-.99l-1.32.27-.78-.76-1.64,2.1c-.04.81.85,1.18,1.51,1.37-.17.2-.7,1.08-.99,1.49-.04-1.09-1.07-.76-1.7-.46l-.29,2.44-1.71-.47c-.61.79-.26,1.55-.38,2.22-.12.7-.66,1.22-.87,1.86-.46,1.4.26,2.28-1.64,2.57l-.11,1.25-1.48-.49c-.27.27,1.2,2.55.14,3.48-.29.25-.9.26-1.15.58-.37.47.1,1.3-.72,1.14,2.24-15.21,12.46-27.13,25.85-33.92C36.81,14.11,43.55-.83,56.38.29c8.53.75,13.01,9.41,16.71,15.96l5.34-.11c1.37-1.89,2.38-3.98,3.83-5.83,13.93-17.72,31.59-11.33,36.61,9.42.41,1.71.7,5.73,1.29,6.88.4.78,4.57,4.09,5.55,5.09,4.82,4.95,9.78,12.32,11.5,19.07Z"/>
  <path class="cls-3" d="M30.26,176.26h-.25c0-.08,0-.17,0-.25.09.06.21.15.25.25Z"/>
  <path class="cls-3" d="M134.97,156.96c1.05.08.6,0,.73-.62s.23-1.03.51-1.6l.62.75,1.85-.26c.06,2.09-.94,1.38-1.68,1.79-.18.1-1.77,2.15-1.79,2.54-.05.77.62.08,1.12.12,1.01.1.98,1.49,1.39,2.08.23.33.7.43.84.65.39.62,0,2.19-.36,2.85l-1.24-.38c.48,1.16-.39,2.23-.51,3.45h-.73s0-.98,0-.98c-1.82.33.53,1.64.5,2.84l-.98.53c.02,1.66.56,2.9.12,4.56-.1.38-.61.64-.58,1.06.02.37.6,1.18.64,1.84.04.6-.3,1.18-.19,1.79l1.48-.74v.99c-1.38-.36-2.26.99-.53,1.27.51.82-1.31,4.73-1.79,5.69-.1.2-.59.87-.16.95-.55.82-1,1.32-1.73,1.98l-3.17,1.66c-1.36.42-2.73.63-4.14.83-.7.1-.67-.24-.62.73-.53.07-1.18-.05-1.73,0,.11-.83-.3-.41-.74-.38-5.63.4-11.31-.03-16.95.13l-7.8-1.24c-.24-.1-.47-.24-.74-.25-2.72-1.81-4.17-3.97-5.45-6.93l-1.22-6.08c-.95-.33-1.89.12-2.85.15-6.05.17-12.18.01-18.21-.26-.16,1.9-.43,4.37-.99,6.19-.65,2.12-2.09,4.45-3.71,5.94-.1.08-.17.19-.25.25l-1.49.74-5.15,1.17c-.5.15-1.04.02-1.54.07-6.95.68-19.1,1.06-24.75-3.47-.09-.07-.16-.17-.25-.25-1.22-1.47-1.92-3.09-2.8-4.76-.18-.34,0-.83-.67-.68-2.4-6.22-3.52-13.46-4.46-20.05.68-.12,1.19,1.31,1.74.88.17-.44.63-1.15.69-1.56.1-.68-.54-1.27.17-1.79.82.03-.08,1.64,1.11,1.48-.24-.76.37-1.93.21-2.54-.13-.49-.98-.75-.96-1.29l1.24-.87c.42,4.28.93,9.96,1.91,14.07.1.43-.13.93.57.78.01.08-.01.17,0,.25.09.55.06,1.27.25,2.23.08.43.15.62.25.99.15.58-.08,1.92.74,1.73.62,2.15,1.26,4.28,2.48,6.19,1.3,2.05,2.84,3.1,5.2,3.71.8.21,1.78.09,2.48.5-.28.01-.81-.17-.74.24,5.84.38,11.76.47,17.58-.25-.04-.11-.25-.2-.25-.24-.01-.12,0-.2.13-.24,2.92-.25,4.65-2.86,5.45-5.44.67-2.19.6-6.5,1.6-8.06.12-.19.37-.24.5-.36,2.84-.94,6.25.12,9.27.26s6.49.12,9.43,0,6.98-1.17,9.77-.26c.07.02.17-.02.25,0v.25c1.17,3.6.66,8.02,3.22,11.14h.25l2.23,1.98-.25.24c6.71,1.67,14.7,1.56,21.67,1.25,1.14-.05,2.36-.46,3.58-.26.07-.42-.47-.23-.74-.24.21-.39.84-.25,1.24-.25l.99.24c-.02-.12-.25-.21-.25-.24-.01-.12,0-.19.13-.24.73-.13,2.02-.57,2.6-.99,3.14-2.31,3.99-6.45,4.21-10.15.16-.24.47-1.02.5-1.24l.99.12c-.32-.64.39-2.1-.75-2.1.56-5.62.73-10.91,1.49-16.58ZM135.71,165.62c.09-1.5-1.48-1.19-.37,0h.37Z"/>
  <path class="cls-3" d="M30.02,175.27h-.25l.25-.25c.01.08-.01.17,0,.25Z"/>
  <path class="cls-9" d="M124.33,37.66c-.06-.07-.05-.41-.24-.62-.36-.4-2.47-2.13-1.99-2.6l1.75.11c.5,1.96.19,1.6,1.92,1.43.29-.03.47-.1.68.19l-.13,1.73c1.61.02,1.51,1.19,2.1,1.99.24.33.82.43.87.66.11.48-.13,1.17-.01,1.64.07.28,1.23.44.5,1.9,1.39-.06,1.06,1.04,1.52,1.83.42.74,1.73,2.57,2.21,3.18.99,1.23,2.04,1.84,3.69,1.68.03.14-.02.34,0,.5.03.21,0,.42.25.5,0,.08,0,.17,0,.25-.03.61-.3,1.09,0,1.73l.49-.25c3.69,11.85.72,26.09-6.1,36.26,8.09,12.72,11.65,27.75,11.06,42.83-.37,9.5-2.65,18.81-3.72,28.21-.86,7.54-.72,17.59-3.47,24.62-.34.88-.96,1.93-1.49,2.72-.43-.08.06-.75.16-.95.48-.97,2.29-4.88,1.79-5.69-1.74-.28-.85-1.63.53-1.27v-.99s-1.49.74-1.49.74c-.11-.61.22-1.2.19-1.79-.04-.66-.62-1.47-.64-1.84-.02-.42.48-.68.58-1.06.44-1.66-.1-2.89-.12-4.56l.98-.53c.03-1.21-2.32-2.51-.5-2.84v.99s.73-.01.73-.01c.12-1.22.99-2.29.51-3.45l1.24.38c.36-.66.75-2.23.36-2.85-.13-.21-.6-.32-.84-.65-.41-.59-.38-1.99-1.39-2.08-.49-.05-1.17.65-1.12-.12.03-.39,1.62-2.44,1.79-2.54.74-.41,1.74.3,1.68-1.79l-1.85.26-.62-.75c-.29.58-.38.98-.51,1.6s.32.7-.73.62c2.11-15.84,5.05-27.68,1.66-43.88-.09-.42-.11-.79-.67-.68-.1-.4-.14-.83-.25-1.24.48-.24.17-.83.08-1.19-1.22-4.51-3.11-8.98-5.52-12.92-.9-1.47-4.21-5.94-4.21-7.3,0-1.46,1.71-3.23,2.43-4.5.79-1.4,1.6-2.82,2.28-4.28,1.2-2.58,1.89-4.96,2.72-7.67l.25-.99c1.61-5.71,1.36-12.43-.5-18.07-.63-4.51-4.65-12.34-7.67-15.1-.09-.08-.16-.18-.25-.25.11-.97-.7-.94-.74-.99-.05-.06-.16-.14-.25-.25Z"/>
  <path class="cls-9" d="M133.73,72.31h-.25c.02-.12.13-.22.25-.25,0,.08,0,.17,0,.25Z"/>
  <path class="cls-25" d="M79.52,184.68c-1.8.06-4.27-.02-6.08.23-.48.06-.33.51-.51.53-.66.07-1.85-.67-2.7.22l-.12,1.49-.99-.25c-.37,1.73,1.32,2.02,2.66,2.17.47.05.98-.29,1.38-.17.33.11.39.63.68.83,1.61,1.12,3.74.76,5.49.94.22.02.47.4.8.42.11,0,1.97-.47,2.06-.53.2-.14.19-.86.54-1.07.39-.23.93-.03,1.33-.16s1.83-2.35,1.68.26l2.05.55.41-1.24c2,.72,2.49-.55,4.19-.76l-1.27-2.94c-.44-.28-1.87.46-1.7-.53h1.73c1.27,2.96,2.73,5.12,5.45,6.93,1.46.97,2.4,1.34,4.15,1.67,5.74,1.08,13.53.63,19.5.56.42,0,1.1.16,1.36-.25.46-.02.86-.22,1.24-.25.56-.05,1.2.07,1.73,0,.39-.05.84-.17,1.24-.25,1.26.17,3.56-.44,4.7-.99-.25,1.45.46.81,1.42,1.18,1.15.45,1.16.83,1.06,2.04l-1.24.49c-5.62.73-11.4.76-16.97,1.47-.47.06-.24.47-.71.53-2.41.31-5.48.11-7.95.22-16.09.7-32.38.75-48.5.25-4.55-.14-9.45,0-13.67-.97-1.51-.35-4.71-.31-6.51-.5v-.49s-1.49.25-1.49.25c-.32-.04-.67.04-.99,0,.16-.89-.74-.28-1.25-.62-.22-.15-.15-.63-.36-.63-.39.06-.61.43-1,.51-.64.12-1.75-.68-1.59.24-.16-.02-.33.02-.5,0-.06-.98-1.97-1.12-2.72-.5-.16-.02-.34.02-.5,0l.8-1.9c.28-.31,1.11-.38,1.53-.32.51.07,2.01.76,2.49.76.54.01.88-.4,1.28-.44.83-.08,1.97.03,2.81.06.61.02.7.02.74-.64,4.69,1.24,13.2.87,18.07.5.49-.04.83-.23.99-.25.79-.08,1.71.1,2.48,0,2.58-.34,3.73-.97,5.69-2.48.08-.06.15-.17.25-.25.68-.56,1.5-.93,2.13-1.83s1.1-2.62,1.61-3.22c.42-.49,1.09-.18.97-.89h10.64Z"/>
  <path class="cls-1" d="M30.76,189.13c.09.08.16.17.25.25v.25l-.14.24c.85.53,1.6,1.26,2.49,1.74.69.38,2.68,1.31,3.34,1.48-.04.66-.13.66-.74.64-.84-.03-1.98-.15-2.81-.06-.39.04-.74.45-1.28.44-.48,0-1.97-.7-2.49-.76-.42-.06-1.25,0-1.53.32l-.8,1.9c-5.13-.72-10.37-1.3-15.35-2.85-8.01-2.49-3.95-4.37,1.48-5.69,4.79-1.17,9.72-1.5,14.61-2.1.75,1.67,1.58,3.01,2.97,4.21Z"/>
  <path class="cls-1" d="M135.96,185.42c2.16.12,4.35.44,6.48.82,4.48.79,16.69,3.1,5.26,6.59-4.83,1.48-10.91,2.33-15.95,2.99l1.24-.49c.1-1.2.09-1.59-1.06-2.04-.96-.37-1.67.27-1.42-1.18.58-.28,3-2.3,3.39-2.8.81-1.03,1.37-2.74,2.06-3.88Z"/>
  <path class="cls-1" d="M30.76,196.06c-.16-.92.95-.13,1.59-.24.39-.07.61-.44,1-.51.22,0,.14.48.36.63.51.34,1.41-.27,1.25.62-1.4-.16-2.81-.33-4.21-.5Z"/>
  <path class="cls-1" d="M27.54,195.57c.75-.62,2.66-.48,2.72.5-.9-.11-1.84-.37-2.72-.5Z"/>
  <path class="cls-30" d="M137.94,53.5l-.49.25c-.3-.64-.04-1.12,0-1.73.38.38.34.99.5,1.49Z"/>
  <path class="cls-1" d="M35.96,196.56l1.49-.25v.49c-.56-.06-1.15-.21-1.49-.25Z"/>
  <path class="cls-26" d="M27.29,183.69c.66-.14.49.34.67.68.87,1.68,1.58,3.29,2.8,4.76-1.39-1.2-2.22-2.54-2.97-4.21-.16-.36-.35-.85-.5-1.24Z"/>
  <path class="cls-23" d="M135.96,185.42c-.69,1.15-1.25,2.86-2.06,3.88-.39.5-2.81,2.52-3.39,2.8-1.15.55-3.44,1.16-4.7.99,2.49-.5,4.77-1.26,6.68-2.97.73-.66,1.19-1.16,1.73-1.98s1.14-1.85,1.49-2.72h.25Z"/>
  <path class="cls-30" d="M137.45,51.77c-.25-.07-.22-.29-.25-.5.24.08.23.28.25.5Z"/>
  <path class="cls-3" d="M22.84,163.14c-.01-.08.01-.17,0-.25l.24.12-.24.12Z"/>
  <path class="cls-20" d="M90.17,135.18h-.25c.03-.08.2-.16.25-.25v.25Z"/>
  <path class="cls-20" d="M102.79,5.48c4.82,1.11,7.46,5.72,9.41,9.9.54,2.4,1.55,4.67,1.91,7.12.4,2.68-.26,4.42,1.38,6.74.43.61.3.36.67.74,2.53,2.66,5.65,4.95,8.17,7.67.09.11.19.18.25.25-.01.6.39.71.74.99.09.07.16.17.25.25,1.11,1.62,2.08,2.96,2.97,4.7,1.93,3.79,2.98,7.18,4.33,11.15.14.4-.05.88.62.73,0,.08,0,.17,0,.25.01.14-.3.06,0,.99.03.1.19.22.25.5l.24,10.02c-.49,4.4-1.51,8.36-3.16,12.44-.11.27-.49.9-.06,1.05-.68,1.46-1.48,2.88-2.28,4.28-.72,1.27-2.43,3.04-2.43,4.5,0,1.36,3.31,5.83,4.21,7.3,2.21,4.54,4.13,9.21,5.45,14.11.11.41.15.83.25,1.24.25.99.54,1.96.74,2.97-.45.25-.23.89-.18,1.29,1.5,11.34.72,18.9-.78,30.06-.09.7-.38,1.95-.03,2.56-.31,2.14-.69,4.28-.99,6.44-.65-.19-.62.8-.67,1.18-.21,1.51-.47,3.39-.56,4.89-.06.9-.17,2.28.25,3.09-.02.24.01.5,0,.74l-.5-.37c-.15,2.93-.33,5.86-.49,8.79,0,.08,0,.17,0,.25l-1.73,9.16c-.3.76-.7,1.16-1.24,1.73-2.52,2.71-5.48,2.82-9.02,2.98-4.96.23-11.34.23-16.23-.26-2.56-.26-5.58-.37-7.18-2.72-1.88-2.77-1.48-6.99-2.34-9.91-.22-.75-.43-1-1.12-1.23-.07-.02-.17.02-.25,0,.11-.97-1.71-.76-2.48-.74l-17.58.5c-1.66-.04-6.84-.75-7.87-.31-.33.14-.38.4-.55.56-.13.12-.38.17-.5.36-1,1.56-.92,5.87-1.6,8.06-.8,2.59-2.52,5.19-5.45,5.44-.12.05-.14.13-.13.24-.24.02-.51-.03-.74,0-.69-.72-2.22,0-2.85,0h-11.63c-.68,0-2.18-.43-2.99-.51-.27-.02-.76-.07-.85.26-2.35-.62-3.89-1.66-5.2-3.71l-1.91-5.15c-2.19-8.63-3.36-17.66-4.28-26.53-.37-3.52-.58-7.1-.74-10.64,11.22.04,22.45-.05,33.67,0,7.12.03,14.53.75,21.66.24,2.37-.17,4.1-.56,5.82-2.23.29-.28,1.32-1.7,1.49-1.73l.22.24,1.02-3.21c.44-.83,2.34-.02,3.33.01,5.05.16,8.87,0,13.75-1.25s10.46-3.57,14.36-6.93c1.26-1.08,3.03-2.47,2.72-4.33-.09-.51-.43-.51-.5-.62-.2-.33-.6-1.19-1.1-1.25-1.5-.2-1.55.26-2.61,1.01-1.45,1.02-3.08,2.12-4.46,3.22-2.87,1.42-5.81,2.85-8.91,3.71-1.41.39-4.08,1.1-5.45,1.24-1.86.19-4.77.09-6.68,0-5.12-.24-11.08-1.88-13.37-6.93-.77-3.07-.7-5.92.99-8.66,1.66-1.81,3.96-2.66,6.19-3.47.2.45.81.12,1.14.03,4.26-1.11,8.66-2.84,12.13-5.44,2.24-1.67,4.81-3.21,1.66-5.93-.15-.04-.31.2-.33.19-.46-.09-.68-.33-1.33-.24-.7.09-.93.49-1.39.74-1.6.85-3.04,1.88-4.7,2.72l-4.7,1.49v-11.51c0-.48-.61-1.26-.74-1.61-.52-1.38-.12-.98-1.24-2.23-.15-.17-.55-.56-.74-.74-2.22-2.1-3.69-2.3-6.8-2.49-4.68-.28-9.99-.02-14.74.01l-47.42.02c-.62.06-.76-.41-1.1-.76-.64-.65-.42-.66-.74-1.24-2.09-3.8-3.12-6.77-4.34-10.89-.12-.41.05-.88-.61-.74-.09-.45-.17-1.02-.25-1.49.42-.26.26-.92.22-1.33-.22-2.18-.39-4.15-.47-6.34,0-.25,0-.5,0-.74.41-1.32.35-2.89.56-4.26.32-2.08.9-4.59,1.59-6.57,1.2-3.45,3.34-6.5,5.02-9.71.08-.07.18-.16.25-.25l.25-.25c5.16-6.76,9.97-9.3,17.08-13.61.25-.15.61-.16.74-.25.24-.15.45-.24.55-.56,1.64-5.35,4.11-10.59,7.12-15.28.68-1.06,1.47-2.37,2.48-3.22.09-.07.16-.18.25-.25.28-.2.69-.31.99-.5,5.24-3.27,9.16-2.71,13.61,1.49.09.08.16.17.25.25l.25.25c1.42,1.52,2.72,3.61,3.71,5.45.93,1.72,1.59,3.7,2.48,5.45.42.83.78,1.35,1.85,1.5,1.73.24,4.35-.04,6.21-.02,1.1.01,3.3.9,3.83-.73,1.93-1,2.51-3.65,3.71-5.45.47-.12,1.55-2.27,1.99-2.84,1.69-2.18,4.67-5.14,7.17-6.32s6.25-1.85,8.91-1.24ZM47.84,61.67c-.66.46-.91.74-1.24,1.49-.84,1.91-.51,3.16.74,4.7.07.09.16.17.25.25,2.15,2.03,4.8,1.58,6.19-.99.17-.32.51-.41.5-.99.68-3.8-3.09-6.78-6.44-4.46ZM89.43,61.42c-5.45,2.62-.91,10.57,3.96,7.43,4.2-2.71,1.17-9.9-3.96-7.43ZM34.18,62.72c-14.55.54-14,20.21,1.89,18.75,12.06-1.11,10.61-19.21-1.89-18.75ZM107.69,63.47c-14,1.22-14.14,18.14-.75,19.66,7.86.89,14.88-5.63,11.88-13.61-1.62-4.31-6.74-6.43-11.13-6.05ZM63.68,75.03s-.09.32.04.44,2.97,1.13,3.37,1.22c2.23.52,4.09.3,6.24.07,3.24-.35,4.29-.66,6.76-2.77.33-.28.68-.4.66-.95.08-.08.18-.16.25-.25.96-1.22,1.24-2.6-.11-3.73-1.92-1.6-3.53.59-5.07,1.39-3.56,1.85-6.76,1.33-10.16-.38-1.37-.69-2.63-2.3-4.19-.85-2.47,2.28.98,4.35,2.21,5.8Z"/>
  <path class="cls-8" d="M69.62,92.11c-.3.04-.93.5-1.48.25-.11.99,2.01.56,2.6.49.72-.09.66.21.61-.73.33,0,.66-.02.99,0-.26,1.28,1.33.82,1.98.74.25-.49-.79-.71-.99-.74,2.77.39,8.39-.75,10.71.55.83.46,1.41,2.39,1.43,3.3.04,1.97-.47,4.66-.5,6.67-.02,1.05.78,3.22-.11,4.1-.63.61-2.04.84-2.68,1.23-.28.17-.16.48-.18.49-.41.25-.79.4-1.24.74-5.8,4.36-7.36,13.42-2.23,18.81.6.63,1.54,1.42,2.23,1.98,1.34,1.09,1.96,1.42,3.47,2.23.77.42.9.1.68,1.3-.17.95-.61,1.66-1.43,2.17-.25.16-.56.15-.74.25-.8-.04-1.53.22-2.34.26-19.87.93-40.47-.73-60.42,0l-3.08-.51c-.25-.22-.79-.93-.99-1.24-.44-1.88-.8-3.83-.25-5.76,1.73-.55,2.49-1.51,3.72-2.66.26-.25.74-.73.99-.99,4.53-4.86,5.77-11.62,3.96-18.07,1.37.45.41-2.13,1.36-1.99l2.28,2.45,2.05-.46-.25-.99c.62-.51,1.41,1.2,1.5,1.72,1.3.06,1.57-1.06,1.51-2.18l2.2-.94.12-1.83-1.61-.11c-1.4-1.5.78-1.2,1.55-1.42.43-.13.74-.7,1.59-.88.34-.07,1.77-.39,1.55.44-1.37.01-.97.46-1.24.74-.09.09-.15.16-.25.25-.04.04-.36-.11-.52.14-.5.82-.39,2.91-1.12,4.28-.54,1.02-1.74,1.77-1.83,2.26-1.07,1.25-2.44,1.35-3.71,2.48-.08.07-.58-.2-.69.68-.06.5-.03.72.23,1.16,1.78,2.91,6.26-.31,8.03-1.82.51-.43.6-1.26,1.43-1.2l3.55,3.11c1.8.59,2.98,1.93,4.86.76,1.2-.75,1.42-1.39.91-2.68-.31-.79-.34-.33-.5-.5-.03-.03.06-.34-.17-.5-1.29-.87-3.22-1.15-4.46-2.31-.1-.1-.05-.43-.15-.56-.19-.23-.56-.25-.78-.59-.69-1.06-.58-2.39-.88-3.46.66-.29.74.45.91.49,1.84.41,1.38-.99,1.96-1.2s2.01.07,1.46.72c-.24.28-.78-.01-.59.8.28,1.16,1.94,1.54,1.71,2.89h2.71s-.23-1.32-.23-1.32c.2-.6,1.22-.09.98-.89-1.57.16-1.73-2.39-.73-1.62.25.19.04.83.73.62v-1.48c-1.25.37-1.73-.79-1.98-1.85-.2-.83,1.07.29,1.24-.5.11-.52-.68-.48-.75-.79-.24-1.01.43-2.12,1.57-1.77.67.21.83,1.77,2.4,1.2v.98c-1.14-.19-2.25.47-1.5,1.63l2.34.37c.43-1.2.71,0,1.32.19,1.55.47,2.12-1.5,2.54-2.57l1.5-.11c-.11-1.03.1-1.74,1.23-1.74v-.73s-1.23-.25-1.23-.25c0-1.12.78-.46,1.31-.54,1.32-.2.92-2.05,2.04-2.19l.34.04c.23,1.1,1.22.94,2.12,1.18.47-.13.3-1.1.74-1.49.48-.42,2.71.45,2.37-.96.74,0,1.49,0,2.23,0ZM60.19,99.31c-1.34-.39-.51,1.24.27,1.21l-.27-1.21ZM64.92,107.7c-.51.14-.99.82-1.02,1.36-.12,2.48,3.31,2.12,4.98,1.85v4.83c0,.64.91,1.04,1.49,1.11.46.06,1.54.07,1.98,0,.97-.16,1.14-.98,1.24-1.86.3-2.71.25-8.63,0-11.39-.05-.63-.15-1.46-.5-1.99-.72-1.1-2.33-1.16-3.31-.32-1.59,1.35-.56,3.89-1.01,5.67l-3.85.73ZM66.4,112.41c-1.94-1.36-4.76-2.27-4.7-5.2h3.59c.07,0,1.09-.61,1.13-.66.12-.16.45-1.23.47-1.47.15-1.95-1.21-2.42-2.84-2.57-1.96-.17-9.18-.32-10.84.05s-2.24,1.97-1.66,3.5c.13.33.43.11.5.17.11.09.15.13.25.25.04.04-.08.32.04.44.54.52,3.55.21,4.41.3l-.5,2.47c-.32.53-.56,1.19-.98,1.62-.79.83-2.49,1.37-3.23,1.98-.28.24-.18.49-.25.6-.64,1.02-.82,2.11.44,2.7,1.15.54,3.59-.92,4.51-1.71.84-.74,2.05-3,3.35-2.24.6.34.64.98.86,1.25,1.05,1.31,4.29,2.93,5.82,1.74.94-.73,1.16-2.01.29-2.91-.11-.12-.39-.03-.42-.06-.09-.08-.17-.19-.25-.25ZM28.78,115.13v.25c-.44.03-.63.14-.99.25-.01,0-.11-.18-.24-.11-1.71.99-.28,3.82.86,3.82h7.8v7.3c0,.9,2.34,2.38,3.47,1.47.27-.22.2-.56.25-.61.08-.09.18-.16.25-.25.31-.38.27-.35.5-.74.07-.13.66-.3.51-.85v-6.33s7.78,0,7.78,0c.08,0,1.11-.83,1.22-1,1.04-1.58-.27-2.92-1.78-3.4-6.08-.05-12.18-.12-18.26-.06-.42,0-1.1-.16-1.36.25ZM58.24,126.51c3.74,3.36,12.89,3.24,14.87-1.84,1.15-2.94-.55-5.89-3.18-7.25-3.61-1.88-9.2-1.45-12.1,1.51-.4.41-.6.89-.83,1.4-.76,1.67-1.01,3.12-.05,4.88.36.66.79.86,1.29,1.31Z"/>
  <path class="cls-16" d="M62.94,91.86c1.39.04,2.96.25,4.46.25.34,1.4-1.89.54-2.37.96-.44.39-.27,1.36-.74,1.49-.9-.23-1.89-.07-2.12-1.18l-.34-.04c-1.12.14-.72,1.99-2.04,2.19-.53.08-1.3-.58-1.31.54l1.24.25v.73c-1.14,0-1.35.71-1.24,1.74l-1.5.11c-.42,1.06-.98,3.04-2.54,2.57-.6-.18-.89-1.39-1.32-.19l-2.34-.37c-.75-1.16.36-1.82,1.5-1.63v-.98c-1.57.57-1.73-.99-2.4-1.2-1.14-.36-1.81.76-1.57,1.77.07.31.87.27.75.79-.17.79-1.44-.33-1.24.5.25,1.06.73,2.23,1.99,1.85v1.48c-.69.21-.48-.43-.73-.62-1-.77-.85,1.78.73,1.62.25.8-.77.29-.98.89l.23,1.33h-2.71c.23-1.37-1.43-1.75-1.71-2.9-.19-.81.35-.51.59-.8.55-.65-.86-.94-1.46-.72s-.12,1.62-1.96,1.2c-.17-.04-.25-.78-.91-.49-.38-1.34-1.25-2.24-2.72-2.23.22-.83-1.21-.51-1.55-.44-.85.18-1.17.75-1.59.88-.77.23-2.95-.07-1.55,1.42l1.61.11-.12,1.83-2.2.94c.06,1.12-.21,2.24-1.51,2.18-.08-.52-.88-2.23-1.5-1.72l.25.99-2.05.46-2.28-2.45c-.96-.14,0,2.43-1.36,1.99-.29-1.03-2.06-4.72-2.77-5.4-.13-.13-.42,0-.45-.04-.08-.09-.16-.17-.25-.25-1.36-1.34-2.56-2.2-4.21-3.22l.25-.24-1.25-.42c-.14-3.47.5-5.15,4.13-5.5,14.37.22,28.8-.4,43.16-.03Z"/>
  <path class="cls-20" d="M15.41,122.55c-3.69,3.62-7.46.32-9.41-3.22-.05-.96-.56-1.8-.74-2.72.58-.89-.02-2.02,0-3.08.09-5.1,3.17-13.52,9.74-10.24s4.97,14.78.42,19.26Z"/>
  <path class="cls-30" d="M15.91,134.43c.2.31.74,1.02.99,1.24.78.69,1.39.25,2.09,1.01h62.41c.41-.39.86-.51,1.35-.76.19-.1.49-.09.74-.25v.25c-.64.53-.16.94-1.92,1.17-2.96.38-5.93,0-8.85.04-16.11.21-32.23.03-48.27.02-1.66,0-3.79.32-5.2.27-.42-.01-.33-.43-.55-.5-1.31-.46-2.06-.58-3.03-1.87-.66-.87-.67-1.58-.74-2.6-.08-1.14,0-1.91.25-2.97.04,1.92-.34,3.25.74,4.95Z"/>
  <path class="cls-14" d="M84.23,141.36c-.49.12-1.1.22-1.6.26-7.01.55-15.47-.03-22.66,0-6.02.01-12.05,0-18.07,0l-15.84-.25h58.17Z"/>
  <path class="cls-4" d="M66.65,85.92c4.75-.03,10.06-.29,14.74-.01,3.1.18,4.58.39,6.8,2.49h-.25c-.71-1.08-3.44-1.89-4.7-1.98-16.75.01-33.5-.02-50.25,0v-.25c11.22.03,22.53-.18,33.67-.25Z"/>
  <path class="cls-10" d="M32.99,86.42c16.75-.02,33.5.01,50.25,0-.26.41-.94.25-1.36.25-21.04.26-42.09-.21-63.12,0-.4-.35.28-.24.49-.25,4.56-.14,9.18,0,13.74,0Z"/>
  <path class="cls-27" d="M41.9,141.61c6.02,0,12.05.01,18.07,0v.25c-11.22-.05-22.45.04-33.67,0,.16,3.54.38,7.12.74,10.64h-.25l-.25-.25c0-.08,0-.17,0-.25-.1-3.48-.58-6.92-.74-10.4h.25c5.28,0,10.57,0,15.84,0Z"/>
  <path class="cls-11" d="M87.45,139.88c-1.72,1.67-3.45,2.06-5.82,2.23-7.13.51-14.54-.21-21.66-.24v-.25c7.19-.02,15.65.56,22.66,0,.5-.04,1.11-.14,1.6-.26,1.15-.29,2.12-1.08,3.22-1.49Z"/>
  <path class="cls-2" d="M59.23,91.37c.94,0,2.23-.21,2.97.25-14.15-.04-28.31.04-42.46,0-1.38.08-2.57.58-3.58,1.49,1.02-1.69,1.57-1.47,3.47-1.98.26.41.94.25,1.36.25,12.74.13,25.5-.06,38.25,0Z"/>
  <path class="cls-27" d="M66.65,85.92c-11.14.07-22.45.27-33.67.25-4.81-.01-9.63,0-14.44.01l-.41-1c.34.35.47.82,1.1.76l47.42-.02Z"/>
  <path class="cls-5" d="M33.23,184.18c-1.22-1.91-1.86-4.04-2.48-6.19-.15-.53-.31-1.26-.5-1.73-.04-.1-.16-.18-.25-.25-.02-.24.04-.52,0-.74-.01-.08.01-.17,0-.25-.11-.61-.42-1.33-.5-1.98-.01-.08.01-.17,0-.25-.83-5.51-1.62-11.08-2.48-16.58-.08-.53.24-1.38-.25-1.73v-1.98h.25c.92,8.87,2.09,17.9,4.28,26.53l1.91,5.15Z"/>
  <path class="cls-10" d="M59.23,91.12v.25c-12.74-.05-25.5.14-38.25,0-.42,0-1.1.16-1.36-.25,13.2.03,26.41-.04,39.61,0Z"/>
  <path class="cls-14" d="M18.63,42.12c-.37,1.04-.8,1.27-1.34,2.25-3.24,6.02-5.41,11.11-5.35,18.04,0,.25,0,.5,0,.74-.57,2.43-.14,5.24.25,7.67.07.47.15,1.03.25,1.49.1.49.16,1.13.25,1.49-1.99-5.6-1.67-12.07-.5-17.82.03-.15-.03-.35,0-.5.24-1.14.82-2.85,1.24-3.96.05-.13-.05-.37,0-.5.64-1.65,2.72-5.81,3.71-7.18.29-.41.82-1.29.99-1.49.08-.1.39-.14.5-.25Z"/>
  <path class="cls-23" d="M21.11,101.52s.32-.08.45.04c.71.69,2.48,4.38,2.77,5.4,1.81,6.45.57,13.2-3.96,18.07.31-.28.35-.67.5-.99,3.08-3.32,4.03-9.06,3.71-13.48-.04-.51-.15-1.21-.49-1.61,0-.08.01-.17,0-.25-.36-2.89-1.39-4.77-2.97-7.18Z"/>
  <path class="cls-26" d="M29.52,172.8c-.7.15-.46-.35-.57-.78-.98-4.11-1.48-9.79-1.91-14.07-.05-.5-.23-1.01-.25-1.24-.01-.16.01-.33,0-.5h.25c.85,5.5,1.64,11.07,2.48,16.58Z"/>
  <path class="cls-11" d="M90.17,91.37c.13.34.74,1.13.74,1.61v11.51l4.7-1.49c-1.19.6-2.18,1.07-3.47,1.49-.43.14-1.55.84-1.73.25.04-1.69-.06-3.39,0-5.08,0-.33.26-.64.26-.73v-4.95c0-.49-.56-1.7-.5-2.35v-.25Z"/>
  <path class="cls-5" d="M107.25,133.69v.25c-4.87,1.24-8.7,1.41-13.75,1.25-.99-.03-2.89-.84-3.33-.01v-.25c.04-.08-.07-.32.03-.46.1-.08.55-.06.72-.03.03.12.13.23.25.25,4.85.71,11.35.23,16.09-.99Z"/>
  <path class="cls-5" d="M90.17,135.18l-1.02,3.21-.22-.24c.46-.94.64-2.01.99-2.97h.25Z"/>
  <path class="cls-26" d="M72.35,91.12c3.33.04,7.2-.24,10.46.31,2.12.35,3.25,2.56,3.41,4.51.11,1.36-.25,2.52-.27,3.71-.03,2.38.04,4.76.01,7.14l-5.2,2.65v-.25c.45-.34.83-.49,1.24-.74l3.48-1.64c-.1-3.75.57-7.63.24-11.37-.09-1-.77-2.7-1.57-3.26-1.37-.95-9.6-.55-11.81-.57v-.5Z"/>
  <path class="cls-14" d="M88.19,88.4c.19.18.59.57.74.74l1.24,2.48c-.07.65.5,1.86.5,2.35v4.95c0,.09-.25.41-.26.73-.05,1.69.05,3.39,0,5.08-.41-.26-.25-.94-.25-1.36-.04-3.52.63-10.25-.94-13.17-.43-.81-1.19-1.2-1.49-1.61-.05-.06.21-.19.21-.2h.25Z"/>
  <path class="cls-24" d="M69.62,91.12v.5c-2.22-.01-4.46,0-6.68,0-.25,0-.5,0-.74,0-.74-.46-2.03-.24-2.97-.25v-.25c3.46.01,6.94-.03,10.4,0Z"/>
  <path class="cls-11" d="M6.75,106.22c3.12-5.9,8.98-4.92,11.76.74,2.39,4.86,1,10.55-1.86,14.73-.26.38-.74.82-1.24.86,4.56-4.48,5.99-16.06-.42-19.26s-9.65,5.14-9.74,10.24c-.02,1.07.58,2.2,0,3.08-.66-3.46-.17-7.27,1.49-10.4Z"/>
  <path class="cls-23" d="M80.76,109.19v.25c-2.19,2.25-4.34,4.33-4.7,7.67-.43,4.04.32,7.48,2.48,10.89-5.13-5.39-3.58-14.45,2.23-18.81Z"/>
  <path class="cls-3" d="M41.9,141.61c-5.28,0-10.57,0-15.84,0v-.25l15.84.25Z"/>
  <path class="cls-14" d="M6.75,106.22c-1.65,3.12-2.15,6.93-1.49,10.4.18.93.69,1.76.74,2.72-2.2-3.99-1.46-9.2.47-13.27l.28.15Z"/>
  <path class="cls-14" d="M26.55,152.01h-.25c.25-.62-.22-1.39-.25-1.73-.12-1.29-.14-2.66-.25-3.96v-.25c-.1-1.43-.56-3.12,0-4.46.16,3.47.64,6.91.74,10.4Z"/>
  <path class="cls-24" d="M101.31,129.98l.13.25c-2.39.26-4.77.3-7.18.25l.37-.5c1.92.09,4.83.19,6.68,0Z"/>
  <path class="cls-24" d="M76.06,117.11c.52,1.14.15,2.56.28,3.8.22,2.16.89,4.3,2.04,6.13l2.38,2.94c-.69-.56-1.63-1.35-2.23-1.98-2.15-3.41-2.91-6.85-2.48-10.89Z"/>
  <path class="cls-14" d="M81.26,123.05l-.24.25c-.8-3.11-1.06-6.43,1.23-8.91-1.69,2.75-1.76,5.59-.99,8.66Z"/>
  <path class="cls-24" d="M20.86,124.04c2.76-5.9,3.99-8.19,3.22-15.1.34.4.45,1.1.49,1.61.32,4.42-.63,10.17-3.71,13.48Z"/>
  <path class="cls-14" d="M115.66,125.03c-1.75,1.39-5.1,2.94-7.57,3.69-.36.11-1.1.47-1.34.02,3.1-.86,6.04-2.29,8.91-3.71Z"/>
  <path class="cls-3" d="M25.81,153.49l-.12,1.74-.87.24c-.39-.9-.23-2.1.98-1.98Z"/>
  <path class="cls-14" d="M83.48,135.92v-.25c.82-.5,1.25-1.22,1.43-2.17.22-1.2.09-.88-.68-1.3.19-.52.79-.17,1.01.11.37.46-.03,1.94-.3,2.46-.42.8-1.06.82-1.45,1.15Z"/>
  <path class="cls-11" d="M12.44,72.31c.66-.14.49.33.61.74,1.22,4.12,2.25,7.09,4.34,10.89-.92-1.06-1.68-2.52-2.27-3.79-.83-1.79-1.95-4.48-2.43-6.36-.09-.36-.15-.99-.25-1.49Z"/>
  <path class="cls-11" d="M107.25,133.94v-.25c5.24-1.35,9.86-3.76,14.36-6.68-3.9,3.36-9.41,5.67-14.36,6.93Z"/>
  <path class="cls-13" d="M62.2,91.62c.25,0,.5,0,.74,0v.25c-14.36-.37-28.79.25-43.16.03-3.62.35-4.26,2.02-4.13,5.5l1.25.42-.25.24c-2.36-.34-1.33-3.56-.5-4.95,1.01-.92,2.2-1.42,3.58-1.49,14.15.04,28.31-.03,42.46,0Z"/>
  <path class="cls-11" d="M103.04,99.78s.18-.24.33-.19c3.15,2.72.57,4.25-1.66,5.93-3.47,2.6-7.87,4.32-12.13,5.44-.33.09-.94.41-1.14-.03.67-.24,1.44-.55,1.98-.74,4.38-1.53,7-2,10.89-4.7,1.08-.75,2.61-1.47,2.91-2.9.22-1.04.03-2.46-1.18-2.79Z"/>
  <path class="cls-24" d="M17.89,127.01c-.54.34-2.29,1.16-2.48,1.36-.39.42-.16.76-.24,1.11-.25,1.06-.33,1.83-.25,2.97-.39-1.21-.65-3.79.56-4.51l2.41-.94Z"/>
  <path class="cls-3" d="M25.56,159.68c.43.38-1.96,1.73-2.23,1.48-.21-.77,1.96-1.72,2.23-1.48Z"/>
  <path class="cls-24" d="M21.11,101.52c1.58,2.41,2.61,4.29,2.97,7.18-.84-2.58-1.48-4.29-2.99-6.55-.2-.31-.63-.41-.23-.87.08.08.17.16.25.25Z"/>
  <path class="cls-30" d="M12.19,55.48c-.03.15.03.34,0,.5-2.04.91-2.02-1.81,0-.5Z"/>
  <path class="cls-24" d="M120.12,121.81c1.06-.75,1.11-1.21,2.61-1.01.5.07.9.92,1.1,1.25l-1.36-.77-2.36.52Z"/>
  <path class="cls-3" d="M26.06,150.27c.03.34.49,1.11.25,1.73l-.47-.02-.27-1.72h.49Z"/>
  <path class="cls-3" d="M23.83,156.22c.44.45-.56,1.3-1.24.99v-.37c.15-.33,1-.86,1.24-.62Z"/>
  <path class="cls-26" d="M71.36,91.12v.5c-.58,0-1.16,0-1.73,0v-.5c.58,0,1.16,0,1.73,0Z"/>
  <path class="cls-26" d="M101.31,105.48c-3.9,2.71-6.51,3.17-10.89,4.7l7.1-2.68c.71-.48,1.51-.75,2.25-1.21.29-.18.99-1.31,1.55-.82Z"/>
  <path class="cls-14" d="M100.32,100.28l-1.09,1.14c-1.95.96-3.95,2.24-5.96,3.08-.31.13-.92.44-1.12-.01,1.29-.42,2.27-.88,3.47-1.49,1.66-.84,3.1-1.87,4.7-2.72Z"/>
  <path class="cls-30" d="M13.43,51.03c-.05.12.05.37,0,.5l-.74-.13v-.62s.62,0,.62,0l.12.25Z"/>
  <path class="cls-24" d="M72.35,91.12v.5c-.33,0-.66,0-.99,0v-.5c.33,0,.66,0,.99,0Z"/>
  <path class="cls-14" d="M26.8,152.5v1.73h-.25v-.5c.03-.49,0-.99,0-1.49l.25.25Z"/>
  <path class="cls-14" d="M27.05,156.21h-.25c-.04-.56,0-1.16,0-1.73.49.35.17,1.2.25,1.73Z"/>
  <rect class="cls-3" x="24.32" y="155.97" width=".74" height=".49"/>
  <path class="cls-23" d="M19.37,126.02c-1.23,1.14-1.99,2.11-3.72,2.66-.55,1.93-.19,3.88.25,5.76-1.09-1.7-.7-3.03-.74-4.95.08-.36-.15-.69.24-1.11.18-.2,1.94-1.02,2.48-1.36.5-.32.98-.68,1.49-.99Z"/>
  <rect class="cls-3" x="23.58" y="151.51" width=".49" height=".49"/>
  <path class="cls-3" d="M26.8,156.21c.01.16-.01.33,0,.5l-.5-.13v-.37s.5,0,.5,0Z"/>
  <path class="cls-3" d="M26.55,154.23l-.25-.13c-.04-.2.25-.34.25-.36v.5Z"/>
  <path class="cls-3" d="M25.81,146.31c-.01-.14,0-.22,0-.25v.25Z"/>
  <path class="cls-20" d="M91.16,134.68c-.12-.02-.22-.13-.25-.25.12.02.22.13.25.25Z"/>
  <path class="cls-19" d="M18.13,42.36c-.67-.19-1.55-.56-1.51-1.37l1.64-2.1.78.76,1.32-.27c.02.84-.79,1.06-1.49.99.41.84-.01,1.08-.25,1.73-.1.1-.41.15-.5.25Z"/>
  <path class="cls-14" d="M112.2,15.38c.97,2.08,1.7,3.86,2.11,6.18.38,2.11.21,4.51.72,6.46.31,1.2,1.2.9,1.13,1.96-.36-.38-.23-.13-.67-.74-1.64-2.32-.98-4.05-1.38-6.74-.36-2.45-1.37-4.72-1.91-7.12Z"/>
  <path class="cls-14" d="M66.65,15.14c.23-.51.83.91.87.99.49.96,2,4.72,2.65,5.02,1,.46,5.53.15,7.01.17,1.18.02,1.88.56,3.23.03,1.51-.6,3.26-4.28,4.07-5.71.28-.04.23.25.24.25-1.2,1.8-1.78,4.45-3.71,5.45s-3.11.25-5.06.24c-2.45-.02-5.06.98-6.82-.98-.89-1.74-1.55-3.73-2.48-5.45Z"/>
  <path class="cls-24" d="M93.88,6.72c-.61-.2.81-.73.86-.75,2.33-.89,4.19-1.1,6.68-.98l1.36.49c-2.66-.61-6.45.08-8.91,1.24Z"/>
  <path class="cls-11" d="M56.5,5.48c2.35.49,4.54,1.76,5.94,3.71-4.46-4.2-8.38-4.75-13.61-1.49,1.99-2.15,4.84-2.82,7.67-2.23Z"/>
  <path class="cls-24" d="M47.84,8.21c.62-1.13,3.12-2.59,4.35-2.95,1.14-.34,2.28-.31,3.46-.26.48.02.99-.25.86.49-2.84-.6-5.68.08-7.67,2.23-.3.19-.71.3-.99.5Z"/>
  <path class="cls-14" d="M42.15,16.13c-1.91,3.63-3.53,7.44-4.7,11.39-.13.08-.49.1-.74.25-.46-.26.62-.64.72-.94.96-2.82,1.91-5.68,3.14-8.44l1.58-2.25Z"/>
  <path class="cls-11" d="M37.44,27.51c1.17-3.94,2.79-7.75,4.7-11.39.65-1.23,1.48-2.73,2.23-3.96l.74-.5c-3.01,4.7-5.48,9.94-7.12,15.28-.1.31-.31.4-.55.56Z"/>
  <path class="cls-24" d="M47.59,8.45c-1.01.85-1.79,2.15-2.48,3.22l-.74.5c.76-1.25,1.9-3.09,3.22-3.71Z"/>
  <path class="cls-11" d="M62.94,9.69l-.25-.25c.08.08.17.16.25.25Z"/>
  <path class="cls-15" d="M91.16,184.68h-1.73c-1.89,0-3.8-.03-5.69,0-.33,0-.66,0-.99,0-.16,0-.33,0-.5,0-.66.01-1.32-.02-1.98,0-.25,0-.5,0-.74,0h-11.63c.56-1.82.83-4.29.99-6.19,6.03.27,12.16.43,18.21.26.96-.03,1.91-.48,2.85-.15l1.22,6.08Z"/>
  <path class="cls-14" d="M135.96,112.41c.56-.12.59.26.67.68,3.39,16.19.44,28.04-1.66,43.88-.75,5.67-.93,10.96-1.49,16.58-.06.56-.16,1.37-.25,1.98-.03.22-.34,1-.5,1.24,0-.16,0-.33,0-.5.03-.66-.04-1.32,0-1.98,0-.08,0-.17,0-.25l.99-8.42c.01-.25-.02-.5,0-.74.29-3.19.55-5.98.99-9.16.3-2.15.68-4.29.99-6.44,1.24-8.69,2.47-15.87,1.98-24.75v-.5c-.07-1.04-.07-1.67-.25-2.72.23.02.27-.33.25-.5-.21-1.65-.66-3.78-.99-5.45-.2-1.01-.5-1.98-.74-2.97Z"/>
  <path class="cls-11" d="M128.54,186.91c-.57.43-1.86.86-2.6.99-.12.05-.14.12-.13.24-.25,0-.5,0-.74,0-.4,0-1.03-.14-1.24.25-1.06-.05-2.28-.05-3.35,0-.33.01-.64.26-.73.26h-13.12c-.43,0-2.02-.18-2.6-.25l.5-.5c4.88.49,11.27.49,16.23.26,3.55-.17,6.5-.27,9.02-2.98-.06.44-.91,1.49-1.24,1.73Z"/>
  <path class="cls-24" d="M97.35,191.86l7.8,1.24c5.64-.16,11.32.28,16.95-.13.45-.03.85-.45.74.38-.38.03-.78.23-1.24.25-2.9.13-5.99,0-8.91,0-2.19-.51-4.66-.17-6.93-.25-3.14-.11-5.47-.31-8.42-1.49Z"/>
  <path class="cls-26" d="M55.76,192.85v.5c-.16.02-.5.21-.99.25-.26-.42-.92-.26-1.33-.22-4.91.5-14.78.44-19.21-1.64-1.16-.54-2.15-1.42-3.22-2.1v-.25c5.65,4.53,17.8,4.14,24.75,3.47Z"/>
  <path class="cls-26" d="M73.58,173.79c.25,0,.5,0,.74,0,.26.41.94.25,1.36.25,2.14.03,4.3.02,6.44,0,.42,0,1.1.16,1.36-.25,2.59-.06,5.15-.44,7.67-.5.77-.02,2.59-.22,2.48.74-2.79-.91-6.75.13-9.77.26s-6.49.13-9.43,0-6.43-1.2-9.27-.26c.17-.15.22-.41.55-.56,1.03-.44,6.21.26,7.87.31Z"/>
  <path class="cls-5" d="M56.75,188.14c-1.14.16-3.05.5-4.08.5h-5.94c-.09,0-.41-.25-.73-.26-1.63-.04-3.47-.07-5.08,0-.69-.41-1.68-.29-2.48-.5.09-.33.58-.28.85-.26.8.07,2.3.51,2.99.51h11.63c.63,0,2.16-.72,2.85,0Z"/>
  <path class="cls-26" d="M104.03,188.39c.58.07,2.17.25,2.6.25h13.12c.09,0,.41-.25.73-.26,1.07-.04,2.29-.04,3.35,0,.28.01.81-.17.74.24-1.22-.2-2.44.21-3.58.26-6.97.3-14.96.42-21.67-1.25l.25-.24c1.45.4,2.96.81,4.46.99Z"/>
  <path class="cls-26" d="M56.75,188.14c.24-.03.5.02.74,0,0,.04.21.14.25.24-5.81.72-11.74.63-17.58.25-.07-.42.47-.23.74-.24,1.61-.08,3.46-.05,5.08,0,.33,0,.64.26.73.26h5.94c1.04,0,2.95-.34,4.08-.5Z"/>
  <path class="cls-11" d="M97.35,185.17v.25h-.25c-.68-1.53-1.18-2.86-1.56-4.5-.43-1.83-.46-4.03-.98-5.71-.13-.4-.25-.76-.68-.93v-.25c.69.23.9.48,1.12,1.23.87,2.92.47,7.13,2.34,9.91Z"/>
  <path class="cls-26" d="M97.1,185.42c-2.55-3.12-2.05-7.54-3.22-11.14.43.17.55.53.68.93.52,1.67.55,3.87.98,5.71.39,1.64.89,2.97,1.56,4.5Z"/>
  <path class="cls-30" d="M132.74,176.76c-.22,3.7-1.07,7.83-4.21,10.15.33-.25,1.18-1.29,1.24-1.73.53-.57.93-.97,1.24-1.73.91-2.27,1.06-4.85,1.73-7.18,0,.16,0,.33,0,.5Z"/>
  <path class="cls-24" d="M62.44,191.61c-1.25.62-2.09.82-3.42,1.17-.43.11-.93-.15-.78.56-.77.1-1.69-.08-2.48,0v-.5c.5-.05,1.04.08,1.54-.07l5.15-1.17Z"/>
  <path class="cls-26" d="M132.5,190.12c-1.91,1.71-4.19,2.47-6.68,2.97-.4.08-.85.19-1.24.25-.06-.97-.08-.63.62-.73,1.41-.2,2.78-.41,4.14-.83l3.17-1.66Z"/>
  <path class="cls-19" d="M133.49,173.54c1.13,0,.42,1.46.75,2.1l-.99-.12c.08-.61.19-1.42.25-1.98Z"/>
  <path class="cls-16" d="M68.88,184.68c.13.71-.55.39-.97.89-.51.6-1.01,2.36-1.61,3.22s-1.44,1.27-2.13,1.83c1.62-1.49,3.06-3.82,3.71-5.94h.99Z"/>
  <path class="cls-5" d="M104.53,187.9l-.5.5c-1.49-.18-3.01-.59-4.46-.99l-2.23-1.98v-.25c1.59,2.35,4.62,2.46,7.18,2.72Z"/>
  <path class="cls-16" d="M63.93,190.87c-1.96,1.5-3.11,2.13-5.69,2.48-.15-.72.35-.45.78-.56,1.33-.35,2.17-.54,3.42-1.17l1.49-.74Z"/>
  <path class="cls-26" d="M30.76,178c-.82.19-.59-1.15-.74-1.73h.25c.18.47.34,1.2.5,1.73Z"/>
  <path class="cls-26" d="M30.02,176.02c0,.08,0,.17,0,.25-.1-.37-.16-.56-.25-.99h.25c.04.23-.02.5,0,.74Z"/>
  <path class="cls-26" d="M30.02,175.03l-.25.25c-.19-.96-.16-1.68-.25-2.23.08.65.39,1.37.5,1.98Z"/>
  <path class="cls-9" d="M135.71,165.62h-.37c-1.12-1.19.46-1.5.37,0Z"/>
  <path class="cls-26" d="M125.81,188.14s.23.12.25.24l-.99-.24c.25,0,.5,0,.74,0Z"/>
  <path class="cls-23" d="M97.35,191.86c2.95,1.17,5.27,1.38,8.42,1.49.26.41.94.25,1.36.25,1.86.02,3.72,0,5.57,0,2.92,0,6.01.13,8.91,0-.26.41-.94.25-1.36.25-5.97.06-13.76.52-19.5-.56-1.75-.33-2.68-.7-4.15-1.67.28.01.5.15.74.25Z"/>
  <path class="cls-11" d="M133.73,72.06c-.12.03-.23.13-.25.25-.05.3.03.67,0,.99-.83,2.71-1.52,5.09-2.72,7.67-.43-.16-.05-.79.06-1.05,1.64-4.08,2.67-8.04,3.16-12.44l-.24-10.02c1.15,5.71.42,9.06,0,14.6Z"/>
  <path class="cls-14" d="M133.73,72.31c0-.08,0-.17,0-.25.42-5.55,1.15-8.9,0-14.6-.06-.28-.21-.39-.25-.5v-.99c0-.08,0-.17,0-.25-.03-.29-.19-.79-.25-1.24-.01-.08.01-.17,0-.25,1.85,5.63,2.11,12.35.5,18.07Z"/>
  <path class="cls-14" d="M133.49,73.3c.03-.32-.05-.69,0-.99h.25l-.25.99Z"/>
  <path class="cls-14" d="M135.71,111.17c-1.32-4.89-3.24-9.56-5.45-14.11,2.41,3.94,4.31,8.41,5.52,12.92.1.36.4.94-.08,1.19Z"/>
  <path class="cls-30" d="M125.57,39.15c3.03,2.75,7.04,10.59,7.67,15.1.01.08-.01.17,0,.25-1.05-3.39-2.55-6.51-4.02-9.72-.17-.37-.23-.77-.68-.93-.89-1.74-1.86-3.08-2.97-4.7Z"/>
  <path class="cls-30" d="M124.58,37.91c.04.05.85.02.74.99-.36-.28-.76-.39-.74-.99Z"/>
  <path class="cls-21" d="M80.27,184.68l1.85.5.13-.5c.16,0,.33,0,.5,0,.1.39.91.37.99,0,1.89-.03,3.8,0,5.69,0-.17.99,1.26.25,1.7.53l1.27,2.94c-1.7.21-2.19,1.48-4.19.76l-.41,1.24-2.05-.55c.15-2.6-1.26-.4-1.68-.26s-.94-.07-1.33.16c-.35.2-.34.93-.54,1.07-.09.06-1.95.54-2.06.53-.33-.02-.59-.4-.8-.42-1.75-.18-3.87.17-5.49-.94-.28-.2-.34-.72-.68-.83-.4-.13-.91.22-1.38.17-1.35-.14-3.04-.44-2.66-2.17l.99.25.12-1.49c.85-.89,2.04-.15,2.7-.22.18-.02.03-.46.51-.53,1.81-.25,4.28-.16,6.08-.23.25,0,.5,0,.74,0Z"/>
  <path class="cls-23" d="M54.77,193.59c-4.87.37-13.38.74-18.07-.5-.67-.18-2.65-1.11-3.34-1.48-.89-.48-1.64-1.2-2.49-1.74l.14-.24c1.07.68,2.06,1.56,3.22,2.1,4.44,2.08,14.31,2.14,19.21,1.64.41-.04,1.07-.2,1.33.22Z"/>
  <path class="cls-18" d="M107.69,63.47c4.39-.38,9.51,1.74,11.13,6.05,3,7.98-4.02,14.5-11.88,13.61-13.39-1.52-13.26-18.44.75-19.66Z"/>
  <path class="cls-18" d="M34.18,62.72c12.5-.46,13.95,17.63,1.89,18.75-15.9,1.47-16.44-18.21-1.89-18.75Z"/>
  <path class="cls-30" d="M65.66,70.08c.18.21.31.57.5.74,2.24,2.09,6.87,1.86,9.42.38l2.46-1.87c.17-.08.28-.37.66-.45,2.41-.52,3.41,2.02,2.31,3.91-.07.09-.17.17-.25.25-.51.52-.76.61-1.24.99l-2.52,1.01c-2.84,1.77-8.25,1.6-11.39.45-.42-.16-.13-.76-1.43-.47-.14.03-.34-.02-.5,0-1.23-1.45-4.69-3.52-2.21-5.8,1.57-1.45,2.82.16,4.19.85Z"/>
  <path class="cls-9" d="M93.39,68.85c-.36-.43-1.02.2-1.6.25-4.21.43-5.53-3.5-3.46-6.67l1.1-1.01c5.14-2.47,8.16,4.72,3.96,7.43Z"/>
  <path class="cls-9" d="M54.28,66.12c.02.58-.32.67-.5.99-1.52,2.23-3.96,2.14-6.19.99-.08-.08-.18-.16-.25-.25-.35-.63-.64-1.41-.71-2.13-.1-.95.29-1.79-.03-2.57.33-.74.58-1.03,1.24-1.49l2.35-.5c3.29.05,3.53,2.31,4.09,4.95Z"/>
  <path class="cls-11" d="M137.7,120.82c-.23-.03-.27.33-.25.5.18,1.06.18,1.68.25,2.72.01.16,0,.33,0,.5.49,8.88-.74,16.06-1.98,24.75-.35-.61-.06-1.86.03-2.56,1.5-11.16,2.28-18.72.78-30.06-.05-.4-.27-1.03.18-1.29.33,1.67.78,3.8.99,5.45Z"/>
  <path class="cls-27" d="M91.16,173.29c-2.52.05-5.09.43-7.67.5-3.03.07-6.13.07-9.16,0-.25,0-.5,0-.74,0l17.58-.5Z"/>
  <path class="cls-11" d="M81.01,21.32c-.53,1.64-2.73.75-3.83.73-1.86-.02-4.48.26-6.21.02-1.06-.15-1.43-.67-1.85-1.5,1.76,1.96,4.37.96,6.82.98,1.95.02,3.07.79,5.06-.24Z"/>
  <path class="cls-11" d="M11.95,62.41c-.06-6.93,2.1-12.02,5.35-18.04.53-.98.96-1.22,1.34-2.25.1-.1.37-.14.5-.25-1.69,3.21-3.82,6.25-5.02,9.71-.69,1.99-1.27,4.49-1.59,6.57-.21,1.38-.15,2.94-.56,4.26Z"/>
  <path class="cls-5" d="M134.72,155.72c-.44,3.18-.7,5.97-.99,9.16-.42-.81-.3-2.19-.25-3.09.1-1.5.36-3.37.56-4.89.05-.38.02-1.37.67-1.18Z"/>
  <path class="cls-11" d="M12.19,70.83c-.39-2.43-.82-5.24-.25-7.67.08,2.19.24,4.16.47,6.34.04.41.2,1.07-.22,1.33Z"/>
  <path class="cls-5" d="M132.74,176.26c-.68,2.33-.82,4.91-1.73,7.18l1.73-9.16c-.04.66.03,1.32,0,1.98Z"/>
  <path class="cls-11" d="M81.01,72.81c1.1-1.9.1-4.44-2.31-3.91-.39.08-.49.37-.66.45-1.5.74-3.14,2.22-4.85,2.45-2.35.32-4.89,0-7.03-.97-.18-.17-.32-.54-.5-.74,3.4,1.72,6.61,2.23,10.16.38,1.54-.8,3.15-2.99,5.07-1.39,1.35,1.12,1.07,2.51.11,3.73Z"/>
  <path class="cls-5" d="M64.18,75.03c1.02,1,3.52,1.57,4.95,1.73.16.02.33-.01.5,0,.68.05,1.54.03,2.23,0,.25-.01.5.02.74,0,.14-.01.36-.23.5-.25l.25.25c-2.15.23-4.01.46-6.24-.07-.4-.09-3.24-1.1-3.37-1.22s-.01-.4-.04-.44c.16-.02.35.03.5,0Z"/>
  <path class="cls-5" d="M133.73,165.62l-.99,8.42c.17-2.93.35-5.85.49-8.79l.5.37Z"/>
  <path class="cls-26" d="M47.59,68.1c2.22,1.15,4.67,1.24,6.19-.99-1.39,2.57-4.03,3.02-6.19.99Z"/>
  <path class="cls-14" d="M89.43,61.42l-1.1,1.01c-2.07,3.17-.76,7.1,3.46,6.67.58-.06,1.24-.68,1.6-.25-4.87,3.14-9.41-4.8-3.96-7.43Z"/>
  <path class="cls-26" d="M47.34,67.86c-1.26-1.54-1.58-2.79-.74-4.7.32.78-.07,1.62.03,2.57.07.72.37,1.5.71,2.13Z"/>
  <path class="cls-14" d="M54.28,66.12c-.56-2.64-.8-4.9-4.09-4.95l-2.35.5c3.34-2.33,7.11.65,6.44,4.46Z"/>
  <path class="cls-11" d="M133.24,54.49c.06.44.22.95.25,1.24-.66.14-.48-.33-.62-.73-1.35-3.97-2.4-7.36-4.33-11.15.45.16.51.55.68.93,1.47,3.21,2.97,6.33,4.02,9.72Z"/>
  <path class="cls-11" d="M80.76,73.05c.02.55-.33.66-.66.95-2.47,2.1-3.52,2.42-6.76,2.77l-.25-.25c2.98-.4,4.09-.63,6.44-2.48.48-.38.73-.47,1.24-.99Z"/>
  <path class="cls-4" d="M90.17,91.37v.25l-1.24-2.48c1.12,1.25.72.85,1.24,2.23Z"/>
  <path class="cls-11" d="M133.49,56.97c-.3-.93.01-.85,0-.99v.99Z"/>
  <path class="cls-11" d="M19.37,41.62c.07-.09.18-.16.25-.25l-.25.25Z"/>
  <path class="cls-17" d="M65.66,103.25c.16-.02.33.01.49,0,.04.15-.04.37,0,.49-.39.48.13,1.14,0,1.8-.01.06-.84.86-.9.88-.91.3-3.55-.33-4.05.29-.42,1.14.82,3.47,1.71,4.1.66.47.66.31,1.26.85.98.89,2.65.91,2.72,2.13.14,2.44-3.41,1.27-4.7.59-.34-.19-.86-.35-1.24-.5-.22-.28-.26-.91-.86-1.25-1.3-.75-2.5,1.51-3.35,2.24-1.08.03-1.8,1.04-2.77,1.32-1.81.52-2.96-.5-2.19-2.31.07-.11-.03-.37.25-.6.73-.61,2.44-1.15,3.23-1.98.41-.43.65-1.09.98-1.62.6-1,1.34-1.42.99-2.97-1.15-.7-3.48.19-4.54-.48-.82-.52-.92-2.61.31-2.88,3.67-.12,7.37-.21,11.04-.12.76.02.8.14,1.6.01Z"/>
  <path class="cls-17" d="M49.57,116.12c.77,1.09.63,1.69-.5,2.48-2.81.1-5.65-.24-8.43.12l-.23.37-.25,8.17c-.07.08-.17.16-.25.25-1.3.36-1.63.64-2.72-.25l-.24-7.76c-.06-.3-.38-.11-.51-.16-1.15-.46-2.47-.21-3.71-.25l3.71-.25c-.06.06.04.25.12.25.27-.02,0-.36-.12-.25-.1-.42-.77-.23-1.11-.25-1.7-.07-5.85.34-7.13-.05-1.21-.36-1.19-2.93.51-2.86,6.15.26,12.93-.55,19.01-.07.74.06,1.18.31,1.84.51Z"/>
  <path class="cls-17" d="M40.41,103.99c.45,2.43.7,3,2.72,4.46.24.17,1.49,1.03,1.7,1.14.74.37,1.72.52,2.51.84.01.16-.02.33,0,.5.18,1.76-.42,2.6-2.29,2.42l-3.15-1.18c-.37-.25-3.06-2.37-3.16-2.54-.13-.2-.06-.46-.05-.68l-.62-.25-.62,1.24c-.08.09-.17.16-.25.25-1.12.75-2.13,1.59-3.31,2.28-.33.19-.79.08-.65.69-1.91.53-4.72.51-3.71-2.23,1.27-1.13,2.64-1.23,3.71-2.48,2.55-.82,3.18-4.32,3.47-6.68.09-.09.16-.15.25-.25,1.33,0,2.83-.35,3.35,1.23.16.48.04.87.11,1.24Z"/>
  <path class="cls-13" d="M82.74,135.92c-.48.25-.93.37-1.35.76H18.98c-.7-.76-1.31-.32-2.09-1.01l3.08.51c19.95-.73,40.55.93,60.42,0,.81-.04,1.54-.3,2.34-.26Z"/>
  <path class="cls-23" d="M69.62,91.62c.58,0,1.16,0,1.73,0,.33,0,.66,0,.99,0,2.21.02,10.44-.38,11.81.57.8.56,1.48,2.26,1.57,3.26.33,3.74-.34,7.62-.24,11.37l-3.48,1.64s-.1-.32.18-.49c.64-.39,2.05-.62,2.68-1.23.89-.88.09-3.05.11-4.1.03-2.01.55-4.7.5-6.67-.02-.91-.6-2.83-1.43-3.3-2.33-1.3-7.94-.16-10.71-.55-.3-.05-.67.02-.99,0s-.66,0-.99,0c-.56,0-1.2-.06-1.73,0-.74,0-1.49,0-2.23,0-1.5,0-3.07-.21-4.46-.25v-.25c2.22,0,4.46-.01,6.68,0Z"/>
  <path class="cls-29" d="M52.05,106.22c-.07-.06-.37.17-.5-.17-.58-1.53-.03-3.12,1.66-3.5s8.88-.22,10.84-.05c1.63.15,2.99.61,2.84,2.57-.02.24-.35,1.32-.47,1.47-.04.05-1.07.66-1.13.66h-3.59c-.06,2.92,2.76,3.83,4.7,5.2l-2.23-.74c-.6-.54-.6-.38-1.26-.85-.89-.63-2.13-2.96-1.71-4.1l4.46-.12c.96-.82.86-1.76.49-2.85-.04-.12.04-.34,0-.49-.16.01-.34-.02-.49,0l-12.69-.19c-1.41.31-1.22,2.05-.92,3.16Z"/>
  <path class="cls-22" d="M28.78,115.13c.26-.41.94-.25,1.36-.25,6.09-.06,12.18,0,18.26.06,1.5.48,2.82,1.81,1.78,3.4-.11.17-1.14,1-1.22,1h-7.8v6.33c.16.54-.42.72-.5.85v-.74c.41-1.42.42-3.51,0-4.95v-1.73c2.33-.19,5.02.25,7.31,0,.69-.07.65-.18,1.11-.5,1.12-.79,1.27-1.38.5-2.48-.27-.39-.41-.75-.99-.74l-19.8-.25Z"/>
  <path class="cls-6" d="M73.09,103.25v11.63c-.11.71.02,1.6-.74,1.98-.44.07-1.52.06-1.98,0-1.06-.59-.77-.92-.99-1.73-.05-.2-.24-.23-.25-.25-.03-.15.02-.33,0-.5,0-.03.37-.26,0-.5v-3.22c.16,0,.33-.01.49,0l.04,5.41c1.41.81,2.95.85,3.18-1.07s.3-10.7-.06-12.33c-.27-1.24-1.84-1.57-2.77-.94-.26.18-.1.39-.15.52l-.25-.25c.54-.8,1.21-1.11,2.18-.83,1.27.37,1.1,1.09,1.29,2.07Z"/>
  <path class="cls-6" d="M36.45,118.84c.12-.12.39.23.12.25-.09,0-.18-.19-.12-.25Z"/>
  <path class="cls-6" d="M28.78,115.38c6.4-.47,13.35.35,19.8,0,.58,0,.72.36.99.74-.67-.2-1.1-.45-1.84-.51-6.08-.48-12.86.34-19.01.07-1.7-.06-1.71,2.5-.51,2.86,1.28.39,5.43-.02,7.13.05.34.01,1.02-.17,1.11.25l-3.71.25c-.41-.01-.83.01-1.24,0-.03-.37-.71-.37-.74,0-1.26-.05-2.31.3-3.22-.86-.83-1.06-.48-1.65.25-2.6.36-.1.55-.22.99-.25Z"/>
  <path class="cls-22" d="M27.79,115.62c-.73.95-1.08,1.54-.25,2.6.91,1.16,1.96.81,3.22.86.25,0,.5,0,.74,0,.41.01.83-.01,1.24,0,1.25.04,2.56-.21,3.71.25.27,1.57-.47,6.51.23,7.57.11.17.36.23.51.35,1.1.89,1.42.61,2.72.25-.05.05.03.39-.25.61-1.13.91-3.47-.58-3.47-1.47v-7.3h-7.8c-1.14,0-2.58-2.83-.86-3.82.13-.07.23.11.24.11Z"/>
  <path class="cls-29" d="M57,120.33c.23-.51.43-.99.83-1.4,2.9-2.96,8.49-3.38,12.1-1.51,2.63,1.37,4.33,4.32,3.18,7.25-1.98,5.08-11.13,5.2-14.87,1.84.53.45,3.5,1.63,4.21,1.73,1.19.17,3.99.08,5.21-.11,1.3-.21,2.13-.99,3.39-1.19.19-.31.37-.62.56-.92,1.82-1.46,1.78-4.33.73-6.25-.15-.28-.46-.16-.49-.18-.29-.33.08-.24-.74-.74-2.24-2.51-6.36-2.55-9.41-1.73-.19,0-3.07,1.61-3.37,1.84s-.95,1.06-1.09,1.38h-.25Z"/>
  <path class="cls-28" d="M48.58,115.38c-6.46.35-13.41-.47-19.8,0v-.25l19.8.25Z"/>
  <path class="cls-29" d="M65.17,107.7c-.84.35-.97,1.97-.39,2.49.84.75,3.2.42,4.35.48v3.71c.02.16-.03.34,0,.5l.25.25c.22.81-.07,1.14.99,1.73-.57-.07-1.49-.47-1.49-1.11v-4.83c-1.67.27-5.1.63-4.98-1.85.03-.54.5-1.22,1.02-1.36.06-.02.16,0,.25,0Z"/>
  <path class="cls-22" d="M64.92,107.7l3.85-.73c.45-1.78-.58-4.32,1.01-5.67.99-.84,2.59-.78,3.31.32.35.53.44,1.36.5,1.99.24,2.77.3,8.69,0,11.39-.1.88-.27,1.7-1.24,1.86.76-.38.63-1.27.74-1.98.45-2.83.54-8.85,0-11.63-.19-.98-.02-1.71-1.29-2.07-.96-.28-1.64.04-2.18.83-.99,1.46-.29,3.98-.5,5.69-.15.03-.38-.04-.49,0-1.57.57-2.2-.03-3.47,0-.08,0-.18-.02-.25,0Z"/>
  <path class="cls-29" d="M38.19,100.77c1.48-.01,2.34.88,2.72,2.23.3,1.07.18,2.39.88,3.46.22.34.59.36.78.59.11.13.05.47.15.56,1.24,1.16,3.17,1.44,4.46,2.31.23.16.14.47.17.5.16.16.18-.29.5.5h-.5c-.02-.16.01-.33,0-.5-.78-.33-1.77-.47-2.51-.84-.21-.11-1.46-.96-1.7-1.14-1.41-1.34-2.06-2.66-2.72-4.46-.07-.37.05-.77-.11-1.24-.52-1.58-2.02-1.24-3.35-1.23.27-.29-.13-.73,1.24-.74Z"/>
  <path class="cls-29" d="M57.25,106.71c.35,1.55-.39,1.97-.99,2.97l.5-2.47c-.87-.09-3.88.22-4.41-.3-.12-.12,0-.4-.04-.44l4.95.25Z"/>
  <path class="cls-29" d="M36.7,101.76c-.29,2.36-.92,5.87-3.47,6.68.08-.49,1.29-1.24,1.83-2.26.73-1.37.62-3.46,1.12-4.28.15-.25.48-.11.52-.14Z"/>
  <path class="cls-22" d="M38.68,108.94c-.01.22-.07.48.05.68.11.17,2.79,2.28,3.16,2.54,2.16,1.48,6.01,2.82,5.69-1.24h.25c.51,1.29.29,1.93-.91,2.68-1.88,1.17-3.06-.17-4.86-.76l-3.55-3.11c-.83-.05-.93.77-1.43,1.2-1.77,1.51-6.25,4.73-8.03,1.82-.27-.43-.3-.66-.23-1.16.11-.88.61-.6.69-.68-1,2.73,1.8,2.76,3.71,2.23,1.45-.4,2.95-1.92,3.96-2.97.08-.08.17-.16.25-.25.38-.4.72-.98,1.24-.99Z"/>
  <path class="cls-22" d="M57.25,120.33c-.63,1.45-.65,2.72-.12,4.2.1.28.95,1.85,1.11,1.98-.5-.45-.93-.65-1.29-1.31-.96-1.76-.71-3.21.05-4.88h.25Z"/>
  <path class="cls-6" d="M40.66,120.82v5.69c-.22.39-.18.36-.5.74l.25-8.17h.25v1.73Z"/>
  <path class="cls-16" d="M71.36,92.11c.05.94.11.65-.61.73-.6.07-2.71.5-2.6-.49.56.25,1.18-.21,1.48-.25.53-.06,1.18,0,1.73,0Z"/>
  <path class="cls-6" d="M65.66,103.25c-.8.12-.84,0-1.6-.01-3.67-.09-7.37,0-11.04.12-1.23.27-1.13,2.36-.31,2.88,1.06.67,3.39-.22,4.54.48l-4.95-.25c-.1-.12-.14-.15-.25-.25-.3-1.11-.49-2.85.92-3.16l12.69.19Z"/>
  <path class="cls-29" d="M66.65,112.65s.31-.05.42.06c.86.9.65,2.18-.29,2.91-1.54,1.2-4.77-.42-5.82-1.74.37.14.9.31,1.24.5.06.03.15.3.42.43,1.38.67,2.54,1.14,4.1.56.65-.35.59-2.22-.06-2.72Z"/>
  <path class="cls-16" d="M73.34,92.11c.2.03,1.24.25.99.74-.65.08-2.24.54-1.98-.74.32.02.69-.05.99,0Z"/>
  <path class="cls-16" d="M60.19,99.31l.27,1.21c-.79.03-1.62-1.6-.27-1.21Z"/>
  <path class="cls-7" d="M56.75,114.88c-.91.79-3.36,2.25-4.51,1.71-1.27-.6-1.08-1.68-.44-2.7-.77,1.81.38,2.83,2.19,2.31.96-.28,1.68-1.29,2.77-1.32Z"/>
  <path class="cls-7" d="M66.4,112.41c.08.05.16.17.25.25.65.51.71,2.37.06,2.72-1.56.59-2.71.11-4.1-.56-.27-.13-.36-.4-.42-.43,1.28.68,4.83,1.85,4.7-.59-.07-1.22-1.74-1.24-2.72-2.13l2.23.74Z"/>
  <path class="cls-25" d="M82.25,184.68l-.13.5-1.85-.5c.66-.02,1.32.01,1.98,0Z"/>
  <path class="cls-25" d="M83.73,184.68c-.08.37-.89.39-.99,0,.33,0,.66,0,.99,0Z"/>
  <path class="cls-9" d="M137.45,121.32c-.03-.16.02-.52.25-.5.02.17-.02.52-.25.5Z"/>
  <path class="cls-9" d="M137.7,124.53c0-.16.01-.33,0-.5v.5Z"/>
  <path class="cls-2" d="M112.69,193.59c-1.85,0-3.72.02-5.57,0-.42,0-1.1.16-1.36-.25,2.27.08,4.74-.26,6.93.25Z"/>
  <path class="cls-2" d="M83.48,173.79c-.26.41-.94.25-1.36.25-2.14.02-4.3.03-6.44,0-.42,0-1.1.16-1.36-.25,3.03.07,6.13.07,9.16,0Z"/>
  <path class="cls-26" d="M79.52,74.04c-2.35,1.85-3.45,2.08-6.44,2.48-.14.02-.35.23-.5.25-.26-.28-.5-.3-.74,0-.69.03-1.55.05-2.23,0h-.5c-1.43-.16-3.93-.73-4.95-1.73,1.31-.29,1.01.32,1.43.47,3.14,1.15,8.55,1.32,11.39-.45l2.52-1.01Z"/>
  <path class="cls-26" d="M78.04,69.34l-2.46,1.87c-2.54,1.47-7.17,1.71-9.42-.38,2.14.97,4.68,1.29,7.03.97,1.71-.23,3.35-1.71,4.85-2.45Z"/>
  <path class="cls-30" d="M72.59,76.77c-.24.02-.5-.01-.74,0,.24-.3.49-.28.74,0Z"/>
  <path class="cls-30" d="M69.62,76.77c-.16-.01-.33.02-.5,0h.5Z"/>
  <path class="cls-6" d="M61.21,106.71c.5-.62,3.13,0,4.05-.29.06-.02.89-.81.9-.88.13-.66-.39-1.33,0-1.8.36,1.09.47,2.03-.49,2.85l-4.46.12Z"/>
  <path class="cls-12" d="M49.08,118.59c-.46.32-.42.43-1.11.5-2.29.24-4.98-.19-7.31,0h-.25l.23-.37c2.78-.36,5.62-.02,8.43-.12Z"/>
  <path class="cls-7" d="M36.45,119.34c.13.05.45-.15.51.16l.24,7.76c-.15-.12-.4-.18-.51-.35-.7-1.06.04-6-.23-7.57Z"/>
  <path class="cls-7" d="M43.14,108.45c-2.02-1.45-2.27-2.02-2.72-4.46.67,1.8,1.31,3.12,2.72,4.46Z"/>
  <path class="cls-7" d="M33.23,113.15c-.14-.62.33-.5.65-.69,1.18-.68,2.19-1.53,3.31-2.28-1.01,1.05-2.51,2.57-3.96,2.97Z"/>
  <path class="cls-7" d="M38.68,108.94c-.52,0-.86.59-1.24.99l.62-1.24.62.25Z"/>
  <path class="cls-7" d="M41.9,112.16l3.15,1.18c1.87.18,2.48-.66,2.29-2.42h.25c.32,4.06-3.53,2.72-5.69,1.24Z"/>
  <path class="cls-8" d="M40.66,125.77v-4.95c.42,1.44.41,3.53,0,4.95Z"/>
  <path class="cls-17" d="M69.87,102.26c.05-.13-.11-.34.15-.52.93-.63,2.5-.3,2.77.94.36,1.63.28,10.44.06,12.33s-1.77,1.88-3.18,1.07l-.04-5.41c-.16-.01-.33,0-.49,0-1.14-.06-3.51.27-4.35-.48-.59-.52-.46-2.14.39-2.49,1.27-.03,1.89.57,3.47,0,.08,1.34.92-.24.98-.63.22-1.59-.3-3.26.26-4.81Z"/>
  <path class="cls-8" d="M73.09,114.88v-11.63c.54,2.79.45,8.8,0,11.63Z"/>
  <path class="cls-17" d="M31.5,119.09c-.25,0-.5,0-.74,0,.03-.37.71-.37.74,0Z"/>
  <path class="cls-17" d="M71.11,118.84c.82.5.45.41.74.74,1.19,2.39,1.17,4.18-.25,6.44-2.55,2.05-5.4,2.07-8.52,1.96-.43-.01-.72-.61-.64.27-.71-.1-3.68-1.28-4.21-1.73-.16-.14-1.01-1.7-1.11-1.98-.53-1.48-.51-2.76.12-4.2.14-.31.79-1.15,1.09-1.38s3.18-1.83,3.37-1.84c3.52-.07,6.18-.23,9.41,1.73ZM69.37,123.3c.13-.76-.29-1.88-.81-2.42-.12-.13-.38-.03-.43-.06-.13-.1-.17-.38-.56-.54-2.51-1.08-6.53-.55-7.37,2.38.33,3.56,8.69,3.4,9.16.64Z"/>
  <path class="cls-6" d="M71.6,126.02c-.19.31-.37.62-.56.92-1.26.2-2.08.98-3.39,1.19-1.22.2-4.02.28-5.21.11-.08-.88.21-.28.64-.27,3.12.11,5.97.09,8.52-1.96Z"/>
  <path class="cls-17" d="M69.13,114.39v-.5c.37.23,0,.47,0,.5Z"/>
  <path class="cls-17" d="M69.37,115.13l-.25-.25s.19.04.25.25Z"/>
  <path class="cls-12" d="M71.11,118.84c-3.22-1.96-5.89-1.8-9.41-1.73,3.04-.82,7.17-.77,9.41,1.73Z"/>
  <path class="cls-12" d="M69.87,102.26c-.56,1.55-.04,3.22-.26,4.81-.05.39-.89,1.97-.98.63.12-.04.34.03.49,0,.21-1.71-.49-4.23.5-5.69l.25.25Z"/>
  <path class="cls-7" d="M71.85,119.58s.33-.09.49.18c1.05,1.92,1.09,4.79-.73,6.25,1.42-2.26,1.43-4.04.25-6.44Z"/>
  <path class="cls-29" d="M68.14,120.82s.31-.07.43.06c.52.54.94,1.65.81,2.42-.23.18-.52.3-.74.5.29-.29.31-1.44.02-1.87-.05-.07-1.37-1.04-1.46-1.07-.85-.32-2.22-.33-3.14-.27-1.58.11-4.37,1.8-2.35,3.33,1,.76,3.58.77,4.8.6.27-.04,2.05-.64,2.13-.72-1.69,1.47-4.86,1.68-6.86.57-1.53-.85-1.44-2.55.03-3.44,1.85-1.13,4.4-.98,6.34-.1Z"/>
  <path class="cls-7" d="M68.14,120.82c-1.94-.88-4.49-1.03-6.34.1-1.47.9-1.56,2.59-.03,3.44,2,1.11,5.18.9,6.86-.57.22-.19.51-.32.74-.5-.47,2.76-8.83,2.91-9.16-.64.83-2.93,4.86-3.46,7.37-2.38.39.17.42.44.56.54Z"/>
  <path class="cls-8" d="M68.63,123.79c-.08.08-1.86.68-2.13.72-1.22.17-3.8.15-4.8-.6-2.02-1.53.77-3.22,2.35-3.33.92-.07,2.28-.05,3.14.27.08.03,1.41.99,1.46,1.07.29.44.27,1.59-.02,1.87Z"/>
</svg>