<?xml version="1.0" encoding="UTF-8"?>
<svg id="_레이어_1" data-name="레이어 1" xmlns="http://www.w3.org/2000/svg" viewBox="0 0 42.25 43.7">
  <defs>
    <style>
      .cls-1 {
        fill: #160701;
      }

      .cls-2 {
        fill: #a2854d;
      }

      .cls-3 {
        fill: #717840;
      }

      .cls-4 {
        fill: #30200f;
      }

      .cls-5 {
        fill: #a77c38;
      }

      .cls-6 {
        fill: #ef8e10;
      }

      .cls-7 {
        fill: #392411;
      }

      .cls-8 {
        fill: #669037;
      }

      .cls-9 {
        fill: #80a947;
      }

      .cls-10 {
        fill: #24160c;
      }

      .cls-11 {
        fill: #ef780f;
      }

      .cls-12 {
        fill: #f58610;
      }

      .cls-13 {
        fill: #5d6b35;
      }

      .cls-14 {
        fill: #ecb873;
      }

      .cls-15 {
        fill: #362413;
      }

      .cls-16 {
        fill: #e3b16e;
      }

      .cls-17 {
        fill: #87b345;
      }

      .cls-18 {
        fill: #ef9112;
      }

      .cls-19 {
        fill: #7aa739;
      }

      .cls-20 {
        fill: #1d1009;
      }

      .cls-21 {
        fill: #be7f33;
      }

      .cls-22 {
        fill: #f38810;
      }
    </style>
  </defs>
  <path class="cls-15" d="M7.61,23.19c.19-.02.41.02.61,0l-.02-.49c-.77-.1-1.33-.78-1.78-1.29-3.68-4.16-1.61-10.15,2.61-13.5.25-.2.62-.18.83-.36.6-.49.9-3.8,1.35-4.86.48-1.14,1.14-2.07,2.81-1.85,1.02.14,1.1.74,1.65,1.15.27.2.63.2.91.42.57.45,1.44,1.37,1.83,1.92.44.27,2.22-1.89,2.54-2.17.28-.25,2.05-1.74,2.19-1.79.48-.15.9.18,1.07-.38h.3c.07.54.94.6,1.29,1.05.79,1.01,1.03,2.96,1.57,4.12.21.03.37-.06.55-.13,1.28-.49,3.5-2.38,5.03-1.52,1.09.61.45,3.65.77,4.54.06.18,1.38,1.35,1.7,1.78.76,1.02,1.47,2.5,1.72,3.68-.35.17-.22.62-.18.9.12.93.11,1.9.38,2.77-.09.94-.55,1.73-.6,2.66.86,0,1.78.69,2.03,1.34-.21.72-.36,1.91-.36,2.63,0,.17.12.16.15.2.09.12.15.25.31.33l.28-.02c.02-.54.33-.17.73-.18.79-.01.43-.28,1.12.2-.31.17.14.54.13.88,0,.5-.37,1.73-.54,2.28-.24.78-.85,2.13-1.63,2.67-.07.05-.5.02-.61.25-.25.53.22.36.41.42.07.02.14.04.18.1.07.12-.02.3.02.4.46,1.16.61,1.81,0,3-.3.36-.68.67-1.02,1h-.2l-.2.17c-.21.05-.37.13-.61.17l-1.12-.17-2.35.33c.02.33-.03.67,0,1s.19.58.2.67c.1,1,.46,2.87-.05,3.72-1.02,1.71-7.36,1.63-8.99.6-1.12-.71-.91-2.9-1.58-3.96l-2.3-.02c-.43,1.99.52,3.25-2.25,4.01-1.37.38-3.71.82-5.11.67-.35-.04-.26-.27-.45-.33-1.45-.44-2.54-.54-2.08-2.24.04-.13.56-.13.62-1.03.07-1.08-.48-1.08-.62-1.58-.08-.29-.09-.61-.2-1-.14-.5-.26-1-.41-1.5-.41-1.38-.74-2.79-1.11-4.18-2.61-.65-6.66-1.27-8.02-3.44-.84-1.33-.75-2.52.58-3.56.71,0,1.25-.41,1.95-.49,1.28-.15,2.75.13,3.95-.01ZM31.65,41.21c2.06-1.22.27-3.45.61-5.17-2.48.21-3.89.62-5.98-.7-4.05-2.54-3.06-6.59-1.3-10.02.62-1.22,3-4.87,4.77-2.74.27.32.12,1.1.86.75.11-.05,1.08-1.4,1.45-1.72,1.59-1.4,3.12-1.31,3.77-3.42,1.07-3.44-.49-7.22-3.32-9.8l-.25-4.05c-.49-.41-4.04,1.9-4.91,2.08-1.31.28-1.59-2.6-1.92-3.42-1.01-2.53-1.28-2.13-3.26-.33-.7.63-2.67,3.35-3.62,3.15-.93-.68-4.16-4.25-5.31-3.97s-1.58,4.75-1.66,5.66c-2.9,1.94-4.39,3.98-5.6,6.84-.56,1.32-.69,2.69,0,4,.9,1.69,1.93,3.27,3.81,4.34.49.28,1.18-.02.99,1-1.91,1.35-9.65-1.45-8.82,2.38.1.47,1.13,1.52,1.58,1.84.4.29,4.91,1.73,5.41,1.75.27.01.66-.22.88-.11l3.08,9.77-.72,1.38c.36.58,4.48.71,5.26.48.18-.05.18-.25.32-.3.4-.15,1.28-.25,1.43-.63.11-3.06-.03-3.95,4.18-3.55.25.42.6.12.92.59.73,1.09.26,3.34,1.86,3.9.1.12.23.17.41.17.07,0,.14,0,.2,0,1.57.66,3.46.29,5.1,0l-.21-.16ZM33.07,22.53s-.38.04-.61.24c-.75.65-1.52,1.65-2.18,2.39l-1.08,6.37c1.68-1.98,4.54-3.44,6.32-5.25.24-.25.48-.38.4-.76.11-.03.25-.02.4-.09.13-.06.15-.2.21-.25.57-.45.4-.59.61-1,.05-.1.15-.18.2-.33.37-.96.81-1.88-.2-2.76-1.18-1.02-2.8.19-3.78.92-.25.19-.26.47-.3.5ZM28.8,23.03c-.41-.06-.54.04-.82.25-1.96,1.48-3.88,6.14-3.38,8.31.22.95,1.34,2.9,2.77,2.79.14-1.07.85-2.24.99-3.27.14-1.02.36-2.52.44-3.48.11-1.51-.09-3.07,0-4.59ZM32.65,34.52c-.04-1.28.16-2.74,1.65-3.4.87-.39,2.37-.53,3.04-.84.6-.28,2.48-3.24,2.61-3.87.08-.41.2-.93-.26-1.21-.87.4-1.75.58-2.54,1.08-1.33.85-7.5,5.92-8.23,6.94-.2.27-.2.62-.37.87-.25.37-.78.52-.77.95.31.1.81.08,1.07.18.21.08.14.3.16.31.41.23.35-.24.54-.32.39-.15,2.98-.59,3.09-.69ZM34.56,32.25c-.73.59-1.14,2.98.63,2.95,2.18-.05,4.51-2.14,2.51-3.71-.5-.19-2.76.45-3.15.76Z"/>
  <path class="cls-16" d="M1.3,37.54c1.68.34,4.96.23,6.83.17.39-.01.82.17.7-.33h.61v.33s1.09,0,1.09,0l.13-.34h.2c.14.5.7.51.62,1.58-.06.91-.58.9-.62,1.03-.47,1.69.62,1.8,2.08,2.24.19.06.1.29.45.33,1.41.15,3.74-.29,5.11-.67,2.77-.76,1.82-2.02,2.25-4.01l2.3.02c.68,1.06.47,3.25,1.58,3.96,1.63,1.03,7.97,1.11,8.99-.6.5-.84.15-2.71.05-3.72,1.15.02,2.31-.03,3.46,0,1.37.04,2.25.05,3.67,0,.27,0,.54,0,.81,0,1.1,1.1.65,3.28-.62,4.24-1.71,1.29-8.24,1.68-10.67,1.77-5.44.2-12.1.2-17.53,0-3-.11-10.01-.58-12.02-2.5-.96-.92-1.01-2.85-.3-3.84.19.27.5.27.81.33ZM4.7,39.25c-.24.06-.42.23-.54.4-.15.74,3.11,1.27,2.61,0-.19-.47-1.55-.54-2.07-.41Z"/>
  <path class="cls-17" d="M1.1,36.37c-.72-.61-.54-2.05.33-2.49.35-.17.85-.13,1.1-.27.62-.36.09-1.72,2.12-1.58,1.43.1.73,1.48.94,1.65.06.05,1.31.09,1.52.67,1.57-1.57,1.82-.07,3.16.5.15.5.27,1,.41,1.5-.67-.05-1.27.18-1.94.18-1.87.01-3.92-.33-5.7-.36-.27,0-1.83.12-1.94.18Z"/>
  <path class="cls-5" d="M10.67,36.37c.11.4.12.71.2,1h-.2c-.41,0-.82,0-1.22,0h-.61c-2.52,0-5.03-.06-7.54.17-.31-.06-.63-.07-.81-.33.1-.14.56-.81.61-.83.11-.06,1.67-.18,1.94-.18,1.78.03,3.83.37,5.7.36.67,0,1.27-.23,1.94-.18Z"/>
  <path class="cls-8" d="M39.39,35.87c-.03.1.32.98.41,1.17-1.41-.1-1.72.02-2.85.17-.81.1-1.87-.07-2.72,0l-.33-.34c.03.6-.21.29-.41,0-.03-.33.02-.67,0-1,1.22.03,2.27.04,3.46-.17.24-.04.4-.11.61-.17.07-.02.14-.12.2-.17h.2c.27.44.87.53,1.43.5Z"/>
  <path class="cls-9" d="M39.39,35.87s.52-.49.56-.49c1.31-.27,1.26.89,1.07,1.66-.05-.02-.13.01-.2,0-.12-.02-.27,0-.41,0-.2-.01-.41.01-.61,0-.09-.19-.44-1.07-.41-1.17Z"/>
  <path class="cls-4" d="M7.61,23.19c-1.2.15-2.67-.13-3.95.01-.7.08-1.24.48-1.95.49,1.34-1.05,4.28-1.23,5.91-.5Z"/>
  <path class="cls-4" d="M38.98,31.37c1.15.27.88,1.82.51,2.51-.18.33-.39.36-.51.5.61-1.19.46-1.84,0-3Z"/>
  <path class="cls-20" d="M41.02,24.36c.84.59.39,2.51-.41,3.17.17-.55.54-1.78.54-2.28,0-.34-.44-.71-.13-.88Z"/>
  <path class="cls-1" d="M38.57,24.03s-.15-.03-.15-.2c0-.72.15-1.91.36-2.63.3.77.35,2.12-.2,2.84Z"/>
  <path class="cls-1" d="M37.35,17.19c-.27-.87-.27-1.85-.38-2.77-.04-.27-.17-.72.18-.9.25,1.13.32,2.51.2,3.67Z"/>
  <path class="cls-2" d="M41.63,37.54c-.27,0-.54,0-.81,0v-.5c.07.01.15-.02.2,0,.16.05.48.37.61.5Z"/>
  <path class="cls-4" d="M38.98,30.2l-.2.67c-.19-.06-.66.11-.41-.42.11-.23.54-.2.61-.25Z"/>
  <path class="cls-12" d="M5.98,14.35c1.21-2.86,2.71-4.9,5.6-6.84.08-.91.53-5.39,1.66-5.66s4.38,3.29,5.31,3.97c.95.2,2.92-2.52,3.62-3.15,1.98-1.8,2.25-2.2,3.26.33.33.82.6,3.7,1.92,3.42.86-.18,4.42-2.49,4.91-2.08l.25,4.05c2.82,2.58,4.39,6.35,3.32,9.8-.65,2.1-2.18,2.01-3.77,3.42-.37.33-1.34,1.67-1.45,1.72-.73.35-.59-.43-.86-.75-1.77-2.13-4.15,1.52-4.77,2.74-1.75,3.43-2.74,7.48,1.3,10.02,2.09,1.32,3.5.91,5.98.7-.34,1.72,1.45,3.96-.61,5.17-1.54.32-3.08.1-4.63.05-.16,0-.24.12-.26.12-.07,0-.14,0-.2,0-.07-.18-.28-.12-.41-.17-1.6-.56-1.13-2.82-1.86-3.9-.32-.47-.67-.17-.92-.59-4.21-.4-4.07.48-4.18,3.55-.15.37-1.03.47-1.43.63-.14.05-.15.25-.32.3-.78.23-4.9.09-5.26-.48l.72-1.38-3.08-9.77c-.22-.1-.61.13-.88.11-.5-.03-5-1.46-5.41-1.75-.45-.33-1.48-1.37-1.58-1.84-.82-3.83,6.91-1.03,8.82-2.38.19-1.02-.5-.72-.99-1-1.88-1.07-2.91-2.65-3.81-4.34-.16-1.39-.16-2.62,0-4ZM12.73,13.37c-.17.8-.77,2.57.54,2.79,1.2.2,1.77-.55,1.83-1.43.1-1.36-.95-1.51-2.37-1.36ZM23.85,13.72c-1.73.44-.33,4.1,1.49,2.39,1.17-1.1.4-2.86-1.49-2.39ZM15.47,18.76c1.49,1.58,3.7,1.73,5.87.92.62-.23,1.87-.96,1.05-1.5-.64-.42-1.52.51-2.3.64-1.02.17-2.28.1-3.18-.32-.5-.24-.71-.77-1.45-.65l-.32.74c0,.11.26.1.32.17Z"/>
  <path class="cls-19" d="M32.65,34.52c-.11.1-2.7.54-3.09.69-.19.07-.13.55-.54.32-.02-.01.05-.24-.16-.31-.26-.09-.76-.08-1.07-.18,0-.43.52-.58.77-.95.17-.25.17-.59.37-.87.73-1.02,6.9-6.09,8.23-6.94.79-.51,1.68-.68,2.54-1.08.47.29.34.8.26,1.21-.13.63-2.01,3.59-2.61,3.87-.67.32-2.18.46-3.04.84-1.49.66-1.69,2.12-1.65,3.4Z"/>
  <path class="cls-19" d="M28.8,23.03c-.08,1.52.12,3.08,0,4.59-.07.96-.3,2.46-.44,3.48-.14,1.04-.86,2.21-.99,3.27-1.43.11-2.55-1.83-2.77-2.79-.5-2.17,1.42-6.83,3.38-8.31.28-.21.41-.3.82-.25Z"/>
  <path class="cls-6" d="M37.35,23.86c-.47-.57-1.24-.05-1.63-.24-.66-.33-.49-1.56-1.13-1.76l-.5.76-1.03-.1c-.04.32-.45.79,0,1-.15.18-.29.61-.41.83-.07.05-.13.12-.2.17-.23.14-.43.18-.41.5-.28.13-.29.25-.41.33-.18.13-.18.31-.2.33-.43.34-1.33.28-1.02,1.33.76.63,2.54-2.1,3.18-2.32l.49.08c.25.27,0,.99-.21,1.24-.15.18-2.15,1.39-1.83,1.67.65.01,1.65-1.25,2.04-1.33.18-.04.76.05.82,0l.03-.64c.27-.18.74-.11.99-.19.08.38-.16.51-.4.76-1.78,1.81-4.64,3.27-6.32,5.25l1.08-6.37c.66-.74,1.43-1.74,2.18-2.39.23-.2.57-.21.61-.24s.04-.31.3-.5c.98-.73,2.6-1.94,3.78-.92,1.01.87.57,1.8.2,2.76ZM31.14,28.37v.17c.13-.06.13-.11,0-.17Z"/>
  <path class="cls-18" d="M34.56,32.25c.39-.31,2.65-.96,3.15-.76,1.99,1.57-.33,3.66-2.51,3.71-1.77.04-1.36-2.36-.63-2.95Z"/>
  <path class="cls-22" d="M37.35,23.86c-.06.15-.15.23-.2.33h-.39s-.22,1-.22,1c-.06.05-.08.19-.21.25-.15.07-.29.05-.4.09-.25.08-.72.02-.99.19l-.03.64c-.06.05-.63-.04-.82,0l-.2-.33c.21-.25.46-.96.21-1.24l-.49-.08c-.64.22-2.43,2.95-3.18,2.32-.31-1.05.59-1,1.02-1.33l.2-.33c.12-.09.13-.2.41-.33.06-.03.27.05.39-.01l.02-.49c.07-.04.13-.12.2-.17.07-.05.38-.03.62-.24.19-.16.98-1.37.3-1.1-.16.16-.38.33-.51.5-.45-.21-.04-.68,0-1l1.03.1.5-.76c.63.2.46,1.43,1.13,1.76.38.19,1.15-.33,1.63.24Z"/>
  <path class="cls-4" d="M31.65,41.21l.21.16c-1.63.29-3.53.66-5.1,0,.02,0,.1-.12.26-.12,1.55.05,3.09.26,4.63-.05Z"/>
  <path class="cls-13" d="M33.48,36.87c.2.29.44.6.41,0l.33.34c.85-.08,1.92.1,2.72,0l.2.33c-1.15-.03-2.31.02-3.46,0,0-.09-.18-.33-.2-.67Z"/>
  <path class="cls-20" d="M5.98,18.35c-.69-1.31-.56-2.68,0-4-.16,1.39-.16,2.62,0,4Z"/>
  <path class="cls-10" d="M36.95,35.71c-1.19.21-2.25.19-3.46.17l2.35-.33,1.12.17Z"/>
  <path class="cls-6" d="M37.15,24.19c-.21.41-.04.55-.61,1l.22-.99h.39Z"/>
  <path class="cls-4" d="M26.56,41.38c-.17,0-.31-.05-.41-.17.12.04.33-.01.41.17Z"/>
  <path class="cls-10" d="M37.56,35.54l.2-.17c-.06.05-.13.15-.2.17Z"/>
  <path class="cls-21" d="M4.7,39.25c.52-.13,1.89-.07,2.07.41.49,1.26-2.76.74-2.61,0,.13-.17.3-.34.54-.4Z"/>
  <path class="cls-3" d="M39.8,37.04c.04.09-.11.34.1.33h.51s0-.33,0-.33c.13,0,.29-.02.41,0v.5c-1.42.05-2.3.04-3.67,0l-.2-.33c1.13-.15,1.45-.26,2.85-.17Z"/>
  <path class="cls-14" d="M8.84,37.37c.11.51-.31.32-.7.33-1.87.06-5.16.17-6.83-.17,2.5-.22,5.02-.17,7.54-.17Z"/>
  <path class="cls-14" d="M10.67,37.37l-.13.34h-1.1s0-.34,0-.34c.41,0,.82,0,1.22,0Z"/>
  <path class="cls-2" d="M40.41,37.04v.33s-.51,0-.51,0c-.21,0-.06-.24-.1-.33.2.01.41-.01.61,0Z"/>
  <path class="cls-7" d="M15.47,18.76c-.06-.07-.32-.05-.32-.17l.32-.74c.74-.13.95.41,1.45.65.9.43,2.16.49,3.18.32.78-.13,1.66-1.06,2.3-.64.82.54-.44,1.27-1.05,1.5-2.18.82-4.39.67-5.87-.92Z"/>
  <path class="cls-7" d="M23.85,13.72c1.89-.48,2.66,1.29,1.49,2.39-1.82,1.71-3.22-1.95-1.49-2.39Z"/>
  <path class="cls-15" d="M12.73,13.37c1.42-.15,2.47,0,2.37,1.36-.06.88-.64,1.62-1.83,1.43-1.31-.21-.71-1.99-.54-2.79Z"/>
  <path class="cls-11" d="M34.09,26.36c-.38.09-1.39,1.34-2.04,1.33-.32-.28,1.68-1.48,1.83-1.67l.2.33Z"/>
  <path class="cls-11" d="M33.07,23.53c.13-.17.35-.34.51-.5.68-.28-.11.93-.3,1.1-.24.21-.55.19-.62.24.12-.23.26-.65.41-.83Z"/>
  <path class="cls-11" d="M32.46,24.53l-.02.49c-.12.06-.33-.01-.39.01-.02-.32.17-.36.41-.5Z"/>
  <path class="cls-11" d="M31.45,25.7s.02-.2.2-.33l-.2.33Z"/>
  <path class="cls-11" d="M31.14,28.37c.13.06.13.11,0,.17v-.17Z"/>
</svg>