<?xml version="1.0" encoding="UTF-8"?>
<svg id="_레이어_1" data-name="레이어 1" xmlns="http://www.w3.org/2000/svg" viewBox="0 0 57.16 57.82">
  <defs>
    <style>
      .cls-1 {
        fill: #e94a0f;
      }

      .cls-2 {
        fill: #362211;
      }

      .cls-3 {
        fill: #100200;
      }

      .cls-4 {
        fill: #874315;
      }

      .cls-5 {
        fill: #382311;
      }

      .cls-6 {
        fill: #8c4514;
      }

      .cls-7 {
        fill: #1b0e07;
      }

      .cls-8 {
        fill: #8c4615;
      }

      .cls-9 {
        fill: #80431c;
      }

      .cls-10 {
        fill: #7a401c;
      }

      .cls-11 {
        fill: #372311;
      }

      .cls-12 {
        fill: #f58610;
      }

      .cls-13 {
        fill: #282017;
      }

      .cls-14 {
        fill: #7c421d;
      }

      .cls-15 {
        fill: #180b03;
      }

      .cls-16 {
        fill: #80451d;
      }

      .cls-17 {
        fill: #372514;
      }
    </style>
  </defs>
  <g id="jf2IIj.tif">
    <g>
      <path class="cls-17" d="M11.82,42.33c0-.88.04-1.78-.03-2.66-4.57-1.09-11.19-4.78-10.31-9.53.32-1.72,2.32-3.12,4.29-3.24,2.14-.13,3.41,1.4,5.27,1.77-3.24-3.97-3.32-8.72-1-13.07,1.45-2.72,3.21-3.36,5.15-5.4,1.44-1.51.97-2.55,1.41-4.38.25-1.02.84-3.46,2.02-3.86.35-.12.7.11.89,0,.14-.07-.03-.55.71-.39.1.02.1.36.33.43.42.14.99.07,1.44.28.84.4,2.77,2.86,3.67,3.54l3.36-4.26c.87-.69,2.68-2.13,3.87-1.36.22.15.08.5.22.62.16.14.59.06.95.42.58.58,1.54,2.97,1.82,3.62.31.74.53,1.54.8,2.29.64.4,4.54-3.37,6.56-2.26.37.2.3.63.43.91.58,1.48-.12,3.98.25,5.23.07.25.51.13.52.15,1.09,1.62,2.7,3.85,3.37,5.37-.42.9.4,2.05.52,3.02.18,1.55-.01,3.25,0,4.81,0,1.07-.96,3.42-1.57,4.53-.14.26-.71.02-.5.61l3.3-1.29c1.22-.24,2.72.07,3.68.75.14.1,1.55,1.36,1.66,1.5,1.29,1.52.39,4.11-.66,5.61-1.77,2.55-4.52,3.89-7.72,4.63-.23-.4-1.81-.13-2.14,0s-.16.41-.19.44c-.04.03-.62-.12-.54.32l.28,4.38c3.62,1.19,4.97,6.06,1.38,8.02-.78.42-1.66.5-2.39.84-1.86.88-2.43,2.02-5.02,1.6-3.8-.61-5.11-4.9-8.63-5.3-.74-.09-2.83-.29-2.93.52-.08.64-.24,1.8,0,2.42.07.19.45.17.49.32.07.28.08,1.63-.05,1.81-.73.13-.81.77-1.31,1.01-1.97.95-7.7.82-9.57-.29-3.01-1.79-3.38-6.02-3.56-8.73-.13-1.93.24-3.95-.52-5.82ZM37.64,8.68c-.42.16-1.11.12-1.59.25l-.28-.18c-.72-1.05-2.57-6.87-3.66-7.16-.57-.15-1.9,1.15-2.3,1.55-.82.83-3.32,4.63-4.17,4.65-1.07.03-1.47-1.29-2.06-1.94-2.58-2.86-4.35-4.36-5.43.42-.2.88-.18,3.31-.61,3.9-.2.26-.77.25-1.04.49-5.38,4.66-9.16,11.04-4.11,17.19,1.01,1.23,2.44,1.81,3.06,3.17l-1.82.47c-2.99-.7-5.82-3.69-8.94-2.82-2.87.79-1.37,4.14.01,5.61,1.13,1.2,3.45,2.74,5,3.33,1.07.41,2.57.51,3.64,1.18.01,4.12-.03,8.24.94,12.29.44,1.87.75,3.55,2.65,4.65.19.11,1.23.7,1.3.71.68.12,1.41-.32,1.98-.23.19.03.2.44.3.46.73.17.59-.32.71-.38.74-.36,1.58.17,2.12.15.16,0,.15-.36.35-.43.49-.17,1.08-.13,1.51-.45.05-.84-.68-1.13-.65-2.1.01-.42.51-2.9.67-3.23.29-.58,3.62-.55,4.36-.49,2.52.2,3.27,1.87,4.93,3.12.67.51,3.17,2.16,3.9,2.24,2.22.25,2.42-1.27,3.48-1.67.72-.27,1.03-.12,2.02-.54.36-.15.86-.24,1.15-.46,1.38-1.03.59-3.81-.58-4.78-.67-.56-1.82-.52-2.07-1.85-.16-.87-.12-5.35.37-5.92.48-.51,1.18.01,1.79-.02,3.77-.2,9.12-3.57,9.47-7.06.18-1.83-2.43-3.62-4.47-3.21-.19.04-.2.37-.51.51-1.12.5-4.6,1.92-5.63,2.08-.34.05-.67.22-.92-.12-.78-1.01,1.1-1.92,1.69-2.59,3.53-4.02,3.9-9.03,1.48-13.59-.64-1.2-2.54-3.1-2.86-4.02-.58-1.65.22-3.84-.43-5.56-.38-.29-3.77,1.7-4.46,2.03-.15.07-.18.33-.27.37Z"/>
      <path class="cls-16" d="M5.01,12.4c.06.04,1.08.93,1.13.99.59.71.8,2.06.08,2.76-1.42.29-3.86-1.2-4.18-2.41-.47-1.76,1.48-2.31,2.98-1.34Z"/>
      <path class="cls-10" d="M51.6,15.38c1.04-.93,1.97-1.46,3.47-.7,1.01,1.98-1.51,3.4-3.52,3.7-1.79-.93-1.13-1.94.04-3Z"/>
      <path class="cls-14" d="M53.84,22.92c.53-.37,1-.06,1.17-.14s-.1-.69,1.24-.16c3.56,1.39-4.53,5.17-3.78,1.7.02-.11,1.23-1.29,1.38-1.39Z"/>
      <path class="cls-9" d="M3.36,20.77c.78.48,1.88.79,1.24,1.99-1.2,1.24-5.65-.72-4.36-2.54.7-.38,1.68-.36,2.43-.08.52.2.51.51.7.62Z"/>
      <path class="cls-7" d="M48.33,24.42c-.01-1.56.17-3.26,0-4.81-.11-.98-.94-2.12-.52-3.02,1.12,2.55,1.43,5.2.52,7.84Z"/>
      <path class="cls-13" d="M46.52,40.77c-.77.18-1.56.28-2.33.45l-.26,4.7-.28-4.38c-.08-.45.5-.29.54-.32.04-.03-.12-.3.19-.44s1.9-.41,2.14,0Z"/>
      <path class="cls-3" d="M12.34,48.16c-.79-1.83-.5-3.89-.52-5.82.76,1.88.39,3.89.52,5.82Z"/>
      <path class="cls-15" d="M44.45,11.21s-.45.1-.52-.15c-.38-1.25.33-3.75-.25-5.23.8,1.66.57,3.57.78,5.37Z"/>
      <path class="cls-12" d="M37.64,8.68c.09-.03.12-.3.27-.37.69-.32,4.08-2.31,4.46-2.03.66,1.72-.15,3.92.43,5.56.32.92,2.22,2.81,2.86,4.02,2.42,4.56,2.05,9.57-1.48,13.59-.59.67-2.47,1.58-1.69,2.59.26.33.59.17.92.12,1.03-.17,4.5-1.58,5.63-2.08.3-.14.31-.47.51-.51,2.04-.4,4.65,1.38,4.47,3.21-.35,3.48-5.7,6.85-9.47,7.06-.61.03-1.31-.49-1.79.02-.49.57-.53,5.05-.37,5.92.25,1.33,1.4,1.29,2.07,1.85,1.17.97,1.95,3.75.58,4.78-.29.22-.8.31-1.15.46-1,.42-1.3.27-2.02.54-1.06.4-1.25,1.92-3.48,1.67-.72-.08-3.22-1.74-3.9-2.24-1.66-1.25-2.41-2.93-4.93-3.12-.73-.06-4.07-.09-4.36.49-.16.33-.66,2.82-.67,3.23-.03.97.7,1.26.65,2.1-.43.32-1.02.28-1.51.45-.2.07-.19.43-.35.43-.53.02-1.37-.51-2.12-.15-.12.06.02.55-.71.38-.1-.02-.11-.43-.3-.46-.57-.09-1.3.35-1.98.23-.08-.01-1.11-.6-1.3-.71-1.9-1.1-2.2-2.78-2.65-4.65-.96-4.05-.93-8.17-.94-12.29-1.07-.67-2.56-.77-3.64-1.18-1.54-.59-3.87-2.13-5-3.33-1.38-1.47-2.88-4.82-.01-5.61,3.12-.86,5.96,2.13,8.94,2.82l1.82-.47c-.62-1.36-2.05-1.94-3.06-3.17-5.05-6.15-1.26-12.52,4.11-17.19.27-.24.85-.23,1.04-.49.43-.59.41-3.02.61-3.9,1.08-4.78,2.85-3.28,5.43-.42.59.65.99,1.97,2.06,1.94.86-.02,3.35-3.82,4.17-4.65.4-.4,1.73-1.7,2.3-1.55,1.1.29,2.94,6.11,3.66,7.16l.28.18c.48-.14,1.16-.09,1.59-.25ZM26.26,19.89c.65-1.7-3.06-3.27-4.68-2.99-1.52.26-3.1,2.04-1.85,3.27.74.13,1.59-1.95,2.57-2,1.19-.06,2.38,1.22,2.5,2.2.34.28,1.39-.28,1.46-.48ZM40.02,21.26c.26-1.5-1.59-3.83-3.44-3.57-.17.02-.16.36-.24.4-.34.17-1.3-.3-2.06.79-.33.47-.84,2.18-.07,2.4,1.02.28.96-1.74,2.58-1.8,2.26-.09.45,2.93,3.22,1.78ZM35.32,23.58c-.63-.57-3.49.5-4.5.59-3.06.29-3.63-.79-5.74-1.05s-1.76,2.02-1.61,3.42c.24,2.25,1.45,4.35,4.27,4.59,3.33.29,6.32-1.16,7.39-3.91.33-.83.94-2.97.19-3.65ZM24.56,39.83c-.29-.43.18-1.27.14-1.8-.1-1.54-1.53-2.78-3.04-3.44h-2.86c-2.19,1.2-3.49,3-2.38,5.22.17.35.72.63.78.88.15.65-1.07,1.29-.07,2.76.95,1.4,2.89,1.64,4.39.74,3.46,4.84,9.35.28,4.66-3.42-.38-.3-1.58-.86-1.63-.93ZM32.47,38.79c-2.75.37-3.35,5.8.94,3.74,2.28-1.1,1.11-4.01-.94-3.74ZM35.57,45.97c-1.89.34-3.93,2.68-2.75,4.29,1.48,2.01,7.66-.66,6.51-2.94-.63-1.26-2.32-1.61-3.76-1.35Z"/>
      <path class="cls-4" d="M24.56,39.83c.05.07,1.25.63,1.63.93,4.69,3.7-1.21,8.26-4.66,3.42-1.51.9-3.44.66-4.39-.74-1-1.47.22-2.11.07-2.76-.06-.25-.61-.53-.78-.88-1.12-2.22.19-4.02,2.38-5.22h2.86c1.51.65,2.95,1.89,3.04,3.43.03.53-.43,1.38-.14,1.8Z"/>
      <path class="cls-11" d="M35.32,23.58c.75.68.14,2.82-.19,3.65-1.07,2.75-4.07,4.2-7.39,3.91-2.82-.25-4.03-2.34-4.27-4.59-.15-1.41-.56-3.69,1.61-3.42s2.68,1.34,5.74,1.05c1.01-.09,3.86-1.16,4.5-.59ZM26.78,26.5c-1.65.22-2.04.85-1.09,2.17,1.47,2.03,5.26,1.22,6.85-.33-1.13-1.46-3.78-2.1-5.76-1.84Z"/>
      <path class="cls-8" d="M35.57,45.97c1.45-.26,3.13.09,3.76,1.35,1.15,2.28-5.03,4.96-6.51,2.94-1.18-1.61.87-3.95,2.75-4.29Z"/>
      <path class="cls-6" d="M32.47,38.79c2.06-.27,3.23,2.65.94,3.74-4.3,2.06-3.69-3.38-.94-3.74Z"/>
      <path class="cls-2" d="M40.02,21.26c-2.77,1.14-.97-1.87-3.22-1.78-1.62.07-1.56,2.08-2.58,1.8-.77-.21-.26-1.93.07-2.4.76-1.09,1.71-.62,2.06-.79.07-.04.07-.38.24-.4,1.84-.26,3.69,2.07,3.44,3.57Z"/>
      <path class="cls-5" d="M26.26,19.89c-.07.19-1.12.76-1.46.48-.12-.98-1.32-2.26-2.5-2.2-.98.05-1.84,2.13-2.57,2-1.24-1.23.34-3.01,1.85-3.27,1.63-.28,5.33,1.29,4.68,2.99Z"/>
      <path class="cls-1" d="M26.78,26.5c1.98-.27,4.63.38,5.76,1.84-1.59,1.55-5.38,2.36-6.85.33-.95-1.31-.56-1.94,1.09-2.17Z"/>
    </g>
  </g>
</svg>