<?xml version="1.0" encoding="UTF-8"?>
<svg id="_레이어_1" data-name="레이어 1" xmlns="http://www.w3.org/2000/svg" viewBox="0 0 295.9 252.45">
  <defs>
    <style>
      .cls-1 {
        fill: #eba32a;
      }

      .cls-2 {
        fill: #552e00;
      }

      .cls-3 {
        fill: #dab471;
      }

      .cls-4 {
        fill: #2a1405;
      }

      .cls-5 {
        fill: #f8f1d7;
      }

      .cls-6 {
        fill: #45280c;
      }

      .cls-7 {
        fill: #1f0e02;
      }

      .cls-8 {
        fill: #4ea2d1;
      }

      .cls-9 {
        fill: #402409;
      }

      .cls-10 {
        fill: #fde7b5;
      }

      .cls-11 {
        fill: #cf8522;
      }

      .cls-12 {
        fill: #4a96c0;
      }

      .cls-13 {
        fill: #fdfdfc;
      }

      .cls-14 {
        fill: #f55a00;
      }

      .cls-15 {
        fill: #1b0b02;
      }

      .cls-16 {
        fill: #fd8600;
      }

      .cls-17 {
        fill: #2394d7;
      }

      .cls-18 {
        fill: #f65800;
      }

      .cls-19 {
        fill: #dcb877;
      }

      .cls-20 {
        fill: #f3a601;
      }

      .cls-21 {
        fill: #fea905;
      }

      .cls-22 {
        fill: #4da1d1;
      }

      .cls-23 {
        fill: #562e01;
      }

      .cls-24 {
        fill: #3b1f04;
      }

      .cls-25 {
        fill: #fea001;
      }

      .cls-26 {
        fill: #593001;
      }
    </style>
  </defs>
  <path class="cls-23" d="M223.7,209.97c.03-.15-.03-.35,0-.5h.25c-.07.12.04.43-.25.5Z"/>
  <path class="cls-23" d="M155.26,21.04c1.01-1.41,2.48-3.58,3.49-4.81,3.01-3.64,7.55-3.96,11.44-1.5s10.95,12.21,13.52,16.51c.71,1.19.45,2.62,2.72,1.38l-.21-.33c3.04-2.11,6.96-5.76,9.99-8.25.1.48.7-.14.86-.26,2.66-1.95,4.98-4.27,7.63-6.24,1.6-1.19,3.9-2.96,5.95-3.67,2.43-.85,6.17-.99,8.05,1.04.34.37,0,1.14.98.88-.08.87.62,1.16.84,1.78.42,1.22.2,2.52.42,3.55.68,3.11,1.74,6.78,2.48,9.84.22.93.12,4.71.56,5.03.22.13.49.01.69.04.41.06.39.02.75,0,1.39-.08,3.01-.68,4.45-1.17,5.42-1.87,17.81-7.78,23.08-5.55.13.05,1.88,1.32,1.94,1.42.19.36.52,1.97.52,2.43.02.81-.32,7.06-.52,7.37-.01.02-.43-.1-.5.16-.32,1.18-.33,4.79-.5,6.33-.22,2.08-.89,4.02-1,6.38-.06,1.44-.05,2.95.1,4.39,1.48,2,3.46,3.92,4.88,5.91,4.66,6.53,8.85,16.29,9.74,24.19.09.83-.16,1.98,0,2.7.05.2.45.07.51.53.08.65.08,2.63,0,3.28-.06.46-.47.33-.51.53-.3,1.26-.04,4.02-.29,5.67-.22,1.48-.69,2.38-.97,3.91-.23,1.27-.21,1.66-.72,2.7-1.18,2.39,2.8.56,3.91.37,3.45-.59,5.94-.08,9.3.44.16.02.34-.03.5,0,1.01.99,2.8,1.23,3.97,1.9,3.25,1.85,4.75,4.26,5.79,7.65.06.2.43.19.47.37.51,2.16-.24,6.55-1.01,8.62-2.08,5.6-6.61,9.55-10.63,13.78-.07.08-.78.86-.34.91-1.8,1.61-3.36,2.98-5.25,4.5-.1-.48-.7.14-.86.26-1.13.83-2.54,1.78-3.58,2.67-.73.62-.07.23.2.32-1.64,1.19-3.03,2.15-4.75,3.25-.07-.42-.8.06-.97.16-.73.42-1.79,1.02-2.03,1.59-2.97,1.06-8.85,4.85-11.95,6.66-.35.21-1.13.57-1.04,1.09-1.31.69-2.62,1.52-3.93,2.19-2.02,1.03-5.38,2.1-7.14,3.3-.23.16-.14.47-.17.51-.02.03-.44-.11-.51.16-.1.41.1.96,0,1.42-.04.18-.43.14-.48.35-.27.98-.22,2.53-.26,3.57-.85-.52-1.23.09-.24.37.18.74-.45.56-.5.79-.33,1.53-.92,4.96-1,6.33-.43.49-.23,1.29-.46,1.91-1.46,4.04-2.65,8.76-3.79,12.83-.8,2.85-2.22,4.57-2.5,7.5-.67-.14-.49.34-.62.74-.67,2-1.69,3.63-2.13,5.76-1.1,1.14-1.72,3.24-2.27,4.8-.14.39-.29.02-.47,1.2-.01.08.02.17,0,.25-1.08.61-.99,1.54-1.43,2.44-1.35,2.75-2.98,5.48-4.82,7.99-.71.96-1.64,2.12-2.24,3.07-.51.12-1.01-.11-1,.75-9.65,5.74-23.75,6.01-34.72,4.25-4.6-.74-9.33-1.55-11.26-6.06-.08-.18-.43-.18-.47-.37-.1-.44-.1-3.46,0-3.9.04-.18.41-.17.47-.37.56-1.78.94-2.71,2.39-4.05.71-.65,1.77-1.25,2.57-1.82.12-.13.04-.3.05-.44.06-.44-.01-1.02,0-1.5.41-.26.25-.95.25-1.37.03-2.08.02-4.17,0-6.25,0-.42.16-1.11-.25-1.37,0-.08,0-.17,0-.25-.01-.17.01-.33,0-.5-6.22-.27-12.42-.87-18.58-1.74-.34.02-1.92.68-2.14.88-.4.36-.29.91-.5,1.18-.66.83-1.54,1.07-2.01,2.18-.79.45-3.95,3.3-4.25,4-.75.41-1.66.27-1.68,1.39l.18.11c-3.48,3.17-6.99,6.22-10.74,9.25-.2-.59-.67.08-.89.24-4.52,3.34-6.38,5.36-12.11,6.64-.42.09-.88,0-.74.63-.08.01-.17,0-.25,0-1.39-.54-3.12-.15-4.62-.25-6.54-.47-12.26-2.87-18.23-5.25-.32-.13-.92-.46-1.13,0-2.9-1.33-5.55-2.81-8.24-4.5.41-.06.82.22.2-.32-.89-.78-2.08-1.17-3-1.92-1.67-1.36-4.43-4.8-4.66-6.9-.32-2.87.3-5.52,2.47-7.47,3.49-3.13,9.13-3.42,13.58-2.85,1.25.16,3.36,1.29,4.27.21.28-.33.23-.76.4-1.05,2.71-4.62,4.24-9.12,6.24-14.25.18-.47,1.43-2.48,1.48-2.63.28-.9-.12-3.3,1-3.57l-.49-.49c.93-.11.8-2.31,1.01-3.07.55-1.97,1.78-4.4,2.46-6.38.37-1.09.02-1.45.03-2.05,0-.08,0-.17,0-.25,0-.05.41-.39.25-.75-7.97.3-15.43-.18-23.23-1.75-4.02-.81-8.23-1.69-11.93-3.43l-2.56-.56c-4.5-1.94-7.36-3.53-11.24-6.5.52-.15-.3-.63-.42-.72-3.46-2.32-6.83-7.04-8.4-10.84-.14-.33-.92-2.88-.95-3.05-.23-1.78.17-4.13.54-5.74.13-.57.25-1.28.44-1.81.14-.39.52-.38.54-.47.21-.82-.47-.58-.5-.62-.04-.05-.28-.85-.5-1.25-.04-.07.1-.38-.03-.47-.16-.11-.6.05-.89-.11-3.47-1.92-7.1-3.86-10.77-5.59-.3-.14-.82-.64-1.05-.08-2.76-1.39-5.49-2.86-8.24-4.25.55-.19-.37-.57-.49-.63-1.48-.77-5.69-3.16-7-3.37l-14.71-8.01c-.08-.08-.08-1.31-.02-1.56.04-.16,1.61-2.33,1.88-2.65,8.94-10.5,25.81-18.48,39.57-20.26.65-.08,1.73-.18,2.39-.24,6.03-.55,12.75-.38,18.6.49,5.46.81,12.11,2.82,17.04,5.07,2.4,1.09,4.68,2.48,6.94,3.82l1-.39c.07-.57-.12-1.29,0-1.83.72-3.11,1.12-6.68,1.74-9.92.08-.43.67-.79.72-.95.76-2.41,1.43-4.74,2.53-7.09.17-.36,1.53-1.23.74-2.2.24-.44.47-1.02.75-1.5.34.49.88-.28.99-.44,2.9-4.58,5.02-7.63,8.93-11.51.19-.19,1.02-.46.33-.8,1.67-1.58,2.94-2.8,4.75-4.25.2.59.67-.08.89-.24,1.78-1.32,4.82-3.08,5.86-4.51.54-.74,1.47-1.02,2.25-1.5.25.58.74.06,1.03-.09,5.07-2.61,10.25-4.76,15.21-7.27,2.65-1.34,3.21-2.65,4.81-4.94,2.72-3.89,5.13-8.05,7.92-11.93ZM165.25,17.79c-.09.01-.18-.02-.25,0-.56.14-1.18.12-1,.75h.5c-.77.67-1.43,1.43-2,2.25l-1.61,1.27c-.76,1.4-2.09,2.85-2.63,4.23-.84.43-.28.21-.74.89-.61.9-1.26,1.89-1.76,2.61-1.55,2.22-3.03,4.15-4.38,6.49-.07.12-1.49.62-.11.75-.66.88-1.19,1.28-2,2-1.7,1.51-4.39,2.77-6.92,3.45l-2.82,1.55c-.62.21-1.2.05-.8.71-.37.03-.55.44-.7.54-.54-.21-1.01-.11-1.54.08-.99.35-3.68,1.79-4.64,2.36-.47.28-.56.75-.83.92-.69.43-.77-.23-1.23.89-.38.16-.99.05-1.49.39s-.35.63-.51.86c-.21.05-.52-.04-.75,0-1.03.17-1.21.66-1.75,1.25-.08.09-.07.17-.25.25s-.65-.05-.87.24l-1.88,1.76s-.11.19-.5.5l-.48-.23c-.06,1.01-1.23.4-1.02,1.23h.5v.25c-.33.25-1.03.54-1.49.89-1.23.93-1.87,2.04-2.85,3.02-.64.64-1.97,1.41-2.41,2.04-.39.56-.24.99-.28,1.02-.12.08-.5-.04-.65.07-.26.19-.17.78-.31,1.04-.15.27-.5.1-.69.23-.23.16-.25.65-.32.69-.1.05-.53-.11-.7.04s-.1.8-.28,1.06c-.15.23-.58.06-.79.31-.17.2-.22.74-.41,1.03-1.96,3.06-4.43,7.17-5.61,10.65-1.82,5.38-2.94,11.91-2.71,17.79.02.48-.26,1,.5.86,0,.08-.01.17,0,.25.02.14-.07.33.04.46l1.96,1.04c.43.38,1.17.73,1.21.79.13.19-.05.64.09.9.25.45,2.9,2.15,3.36,2.89.43.7.58,1.88.33,2.67-.73.34-1.89,1.43-2.75,2-.39-.6-1.28.56-1.93.56-.39.3-.06.65-.07.69-.02.15,0,.34,0,.5,0,.33-.26.63.03,1.3.96,2.31,2.57,4.43,3.6,6.69.25.55.09.62.87.51.34.68.07,1.18,1,1-.5.96.5,1,.9,1.58.23.33.17.78.32,1.01.16.25.6.05.79.3.21.27.23,1.03.47,1.42.53.83,2.73,2.58,3.59,3.46,1.58,1.6,3.16,3.16,4.81,4.69.54.5,1.52.54,2.16,1.02.41.3,1.19,1.4,1.69,1.76s1.1.75,1.75.75c.08.08.17.17.25.25.81.82,2.36,1.76,3.75,2,1.52,1.15,1.76,2.71.07,3.74-.85-.04-1.86.13-2.68,0-1.38-.23-2.96-1.64-4.39-1.73-.98-.55-1.46-.58-2.25-1.5-.04-.04.08-.33-.03-.46-.5-.4-6.04,1.19-7.16,1.38-8.39,1.46-19.24,1.04-27.03-2.68-.08-.04-1.07-.75-1.5-1l-1.09-1.15-1.65-.85c-.08-.09-.18-.15-.25-.25-.04-.05.09-.37-.03-.47-.15-.13-.56.03-.72-.03-.06-.02-.21-.18-.25-.25s.09-.37-.03-.47c-.15-.13-.56.03-.72-.03-.06-.02-.21-.18-.25-.25s.08-.38-.02-.47c-.23-.11-.51.01-.73-.03-1.21-.23-.49-.21-1.11-.77-.24-.22-.58-.18-.64-.23-.03-.02.14-.32-.15-.52-.25-.18-3.36-1.19-3.88-1.32-3.67-.87-8.77-.42-12.05,1.57-.29.17-.13.5-.16.52-.61.4-.83.44-1.5,1-.14.12-.49.12-.68.31-.22.22-2.02,3.03-2.11,3.28-.43,1.26-.39,4.37-.18,5.74.4,2.65,3.23,7.36,5.46,8.91.11.19-.16.56.63.74l.12-.24c2.44,1.8,3.99,3.29,6.99,5,1.13.64,1.96,1.17,3.25,1.75,11.93,5.37,25.39,7.35,38.43,6.21-.05-.66.66-.92.76-1.16.25-.61.29-1.74.54-2.36.63-1.51,1.32-2.49,1.72-4.2.99-.9,1.19-2.34,2.06-3.43.67-.68,3.53-.81,4.19-.19.31.29.16.73.32,1.06.03.06.76.07.4.55-.02.03-.4-.07-.48.19-.94,3.02-2.41,6.02-3.53,9.12-5.12,14.24-8.52,28.45-15.95,41.87-.54.98,0,1.5-1.65,2.04-2.23.74-5.49-.92-8.1-.99-2.11-.05-3.99-.04-5.99.75-.58.23-1.58.79-2,1.25l-1.41,1.08c-.35,1.02-.45,2.18-.06,3.22.19.51,1.15,1.62,1.47,1.95.25.27.2.23.5.5.78.71,2.66,1.96,3,2.5.03.05-.45.59.75.5.06.08.17.17.25.25,1.9,1.92,6.32,3.6,8.99,4.75.81.35,1.67.68,2.5,1,7.03,2.74,14.42,5.41,21.4,1.05.69-.43.2-.27-.17-.3,1.23-.76,2.64-1.87,3.75-2.75l.12.24c.4-.37,1.24-.72,1.57-1.06.14-.14.03-.41.06-.44.08-.08.16-.17.25-.25.76.23.69-.32,1.03-.59.62-.49.38-.06.97-.91.74-1.07,3.04-2.46,3.98-3.39,3.84-3.82,8.12-7.65,12.18-11.42.5-.46.93-1.58,1.82-2.18,1.43-.97,2.67-1.11,4.38-1.01,4.38.25,9.2,1.42,13.73,1.76,2.85.21,5.75.23,8.61.25.08,0,.17,0,.25,0,.17.42.75.17,1,.25.9.29,1.18.95,1.27,1.86.33,3.49.29,10.49-.02,14.01-.15,1.73-.5,1.04-.94,1.43-.15.13-.02.41-.06.45-.08.09-.17.17-.25.25h-.75s0,.25,0,.25h.5c-.63.59-1.21,1.12-2,1.5-.03.02-.39-.3-.69.05-.14.17-.97,1.23-1.06,1.38-.64.99-.73,3.48-.01,4.41.17.22.49.1.67.23.31.23.34.87,1.09.67l.28.35c4.22,1.52,9.2,1.82,13.71,1.9,4.09.08,8.53-.02,12.49-1,2.92-.31,4.61-.91,6.99-2.5.8-.53,1.6-1.03,2.25-1.75.42-.17,1.45-1.03,1.68-1.32.24-.3,1.91-2.82,2.06-3.12,6.67-12.55,11.21-26.11,15.23-39.47.32-1.05.77-4.26.76-5.07,0-.17,0-.33,0-.5.78.14.43-.39.5-.86.42-2.63,1.1-5.6,1.73-8.07.16-.63.08-1.74.51-2.4.18-.27.49-.12.66-.25.96-.78,1.95-1.31,3.09-1.92,2.35-1.26,4.9-2.31,7.34-3.53.36-.18.74-.3.91-.72,6.85-3.47,13.56-7.77,19.73-12.25.1.45,1.13-.17,1.29-.27.49-.31.95-.97,1.21-1.23.07-.08.18-.22.25-.25.16-.06.57.1.72-.03.11-.1-.02-.4.03-.47s.19-.23.25-.25c.16-.06.57.1.72-.03.11-.1-.02-.4.03-.47s.19-.23.25-.25c.16-.06.57.1.72-.03.11-.1-.02-.4.03-.47s.19-.23.25-.25c.17-.06.52.06.75,0,.05-.15-.04-.39,0-.5.44-1.07,1.2-.83,1.92-1.58,1.21-1.26,1.98-1.98,3.32-3.17s3.25-2.68,4-4.25c.3-.63,1.14-1.77,1.75-2.25,2.29-1.78,2.98-4.97,3.76-7.82.06-.21.44-.17.48-.35.11-.46.1-2.92.03-3.47-.06-.45-.44-.32-.5-.54-.46-1.7-1.02-3.47-2.67-4.54-.53-.34-1.09-.16-1.35-.28s-.6-.54-1.25-.75c.14-.66-.33-.5-.75-.62-3.32-.94-6.2-.83-9.48.13-.06.16,0,.32-.01.48,0,.08,0,.17,0,.25-1.18.2-.6.98-.81,1.81-.64,2.53-1.97,2.54-4.19,1.68-.66-.81-1.8-3.59-2.74-3.9-.3-.1-.51-.11-.82-.06-.87.15-2.35.91-3.11,1.4-.68.44-.21.26.17.3-.23.15-.54.35-.75.5l-.12-.24c-.73.14-.54.61-.63.74-.06.09-.18.16-.25.25-1.05-.31-.72.69-1.07.95-.45.32-.86-.1-.93,1.3-.5.62-.96,1.25-1.25,2l-1.49,1.19c-.33.28-.35.74-.51,1.06-.83.45-1.04,1-1.5,1.75-.66.5-.99.78-1.67,1.45-.19.19-1.01.47-.33.8-1.64,1.5-2.99,2.66-4.5,4.25-.22.17-.48.2-.75.25-.01,0-.1-.17-.24-.11-.46.21-1.81,1.12-1.76,1.61-.08.06-.14.17-.25.25l-2.45,1.43.2.32c-.19.14-.34.33-.5.5-3.91,2.04-7.49,5.22-11.74,6.75-1.52.55-3.68,1.3-4.71-.4-.27-.45-.25-1.8.02-2.06.11-.1.51.02.64-.09.15-.13.02-.42.05-.45.08-.08.17-.17.25-.25h.75s0-.25,0-.25h-.5c1.17-.74,2.88-1.34,4.2-2.18,2.38-1.52,5.01-3.23,7.54-5.07l.11.19c.21-.07.51-.09.68-.2.48-.3.95-.98,1.2-1.24.07-.08.18-.22.25-.25.16-.06.57.1.72-.03.11-.1-.01-.42.03-.47.07-.1.17-.16.25-.25.76.21.77-.42,1.09-.67.51-.4.3.08.91-.83.48-.72,2.83-2.49,3.75-3.25.67-.55.45-.22,1-1,1.22-.58,1.59-1.46,2.25-2.5.45-.71.86-1.63,1.25-2.25l1.76-1.43c.22-.73.89-1.71,1.38-2.31.81-.98,2.19-1.69,2.85-2.77.56-.39,1.24-.93,1.75-1.25l5.25-1.5c.08-.08.16-.18.25-.25,1.18-.89.89-1.79,1.27-3.05.3-.98.46-1.49.73-2.69.4-1.83.9-3.19,1.01-5.36.47-9.39-1.16-16.34-5-24.31-.64-1.33-2.94-5.82-4-6.32-1.26-2.71-3.87-4.56-5.06-7.06-.42-.88-.25-1.53-.44-2.26-.06-.22-.45-.08-.51-.54-.07-.56-.07-2.22,0-2.78.06-.43.45-.13.52-1.36.3-5.12.92-9.92,1.99-14.67.26-1.14.09-3.32.25-4.58l-.75.5c-.02-.25.01-.5,0-.75-.2-.53-2.29.16-2.8.32-.81.26-1.49.73-2.25,1s-2.64.24-2.7,1.18h-.5c-5.32,1.16-10.2,4.07-15.43,5.43-1.49.39-3.59.97-5.04.18-.14-.08-.19-.4-.35-.53-.18-.14-.52,0-.66-.24-.23-.41-.11-1.21-.26-1.64-1.81-5.25-1.89-11.67-3.24-17.26-.04-.19-.43-.16-.47-.36-.19-.8-.18-3.09-.84-3.4-.26-.12-.4.09-.42.09-.67.03-.93-.04-1.59.28-1.99.96-4.96,3.88-7.15,5.21-.87.53-1.36.5-2,1.5-.04.07-.19.23-.25.25-.17.06-.58-.1-.73.03-.11.09.02.4-.02.47-.14.23-.23.4-.5.5-.16.06-.57-.1-.72.03-.11.1.02.4-.03.47-.04.07-.19.23-.25.25-1.1.44-.41.23-.75.5-.91.72-1.24.93-2,1.75-.07.08-.18.23-.25.25-.17.06-.57-.1-.72.03-.11.1.01.42-.03.47-.07.1-.17.16-.25.25-.76-.23-.69.32-1.03.59-.5.39-.56-.06-.97.91-.09.22-.12.48-.25.75-.16-.01-.34.02-.5,0-.18-.02-.3-.25-.68.18l-2.31,2.07s-.04.16-.5.5l-.48-.23c.01.78-.81.62-.98.78-.14.12,0,.36-.04.46-.33.86-.15.25-.5.5l-2.36,1.26c-1.49.55-3.07.71-4.56.06-.54-.24-.58-1.03-1.31-1.07-.49-1.15-1.09-1.67-1.7-2.67s-.97-2.72-2.05-3.08c-.62-2.1-1.79-2.79-2.96-4.41s-1.32-3.13-3.28-4.09c-1.1-.54-.85-1.19-1.41-1.77s-1.35-.45-1.83-1.73c-.04-.11.05-.34,0-.49h-.75c-.06-.09-.17-.16-.25-.26-.1-.12.27-.63-.93-.67-.21,0-.3.17-.32.17ZM81.58,91.02c-.31-.55-1.14-.74-1.7-.93-17.23-5.85-37.2-3.36-52.59,5.83-.7.42-1.77.51-2.16,1.34-1.34.67-2.64,1.77-3.5,2.75-.17.2-.41.38-.5.5l-1.43.56c-.82,1.16-1.82,2.14-2.82,3.25-.67.75-1.89,1.27-1.75,2.44.22.05.59-.06.75,0,.92.38,1.86,1.04,2.75,1.5,4.03,2.1,7.82,4.18,11.94,6.22,1.48.74,7.94,4.17,8.97,4.21.22.01.29-.18.32-.19,1.91-.41,2.23-1.75,3.18-2.25.68-.36,2.02-.9,2.82-1.25,9.77-4.29,20.02-3.95,29.47,1,.07.08.17.15.25.25.04.05-.08.38.02.47.15.13.56-.03.73.03.07.03.18.17.25.25.13.13.38.38.5.5.21.22.27.29.5.5.03.03-.11.45.16.51.93.22,2.96-1.49,3.79-1.99.93-.56,2.4-.85,3.04-2.03.92-.54,1.77-.89,2.5-1.5.17.53.73,0,.97-.15,4.2-2.48,8.4-5.23,12.45-7.84.37-.24.87-.43,1.31-.51l-1.58-2.43c-1.65-1.19-3.14-2.63-4.92-3.81-1.26-.84-2.29-1.29-3.5-2.25s-1.01-1.01-2.75-1.75c-.03-.15.04-.33,0-.5-.65-.03-1.52-.41-2.17-.7-.96-.42-1.7-1.26-2.82-1.05l-2.5-1ZM93.82,114.76c-4.6,1.98-9.58,5.77-14.43,8.31-.14.13-.03.41-.06.43-.32.32-.58.64-.99.87.24.23.52.38.74.62.04.04-.11.37.15.52.24.14.65.09.9.25,5.4,3.25,9.07,7.12,15.63,8.66,5.48,1.29,10.6.93,16.04-.18,1.09-.22,4.28.02,2.66-1.66-1.93-1.99-4.45-3.87-6.41-6.03-.68-.75-1.29-2.23-2.25-2.56l-2.5-4.31c-1.8-2.2-2.98-5.07-4.03-7.65-.11-.08-.55-.07-.71-.03-1.16.23-3.32,2.53-4.75,2.75ZM58.85,116.01c-.91.05-1.84-.04-2.75,0-.04.15.04.39,0,.5-.02.06.02.16,0,.25-.12.68-.32.92.03,1.8.24.62,1.15,2.01,1.45,2.65.47,1,.47,2.24,1.52,3.05.16.13.78.22,1,.5.3.04.23-.24.25-.25.08-.03.2.04.25,0,.19-.13,1.17-1.07,1.24-1.2.39-.69.88-2.79,1.01-3.55.2-1.19.99-2.34,1-3.25,0-.17,0-.33,0-.5-1.33.2-2.61-.29-3.89-.27-.56,0-.98.26-1.11.27ZM48.61,118.75c-.93.56-.62.6-1,1-.17,0-.34.01-.5,0-.34-.03-1.01.13-1.2.31-.13.13-.01.38-.05.44-.08.13-.05.19-.25.25-.18.06-.52-.05-.75,0l.04.96c.82.59,1.82.83,2.71,1.28,1.5.77,2.96,1.55,4.5,2.25.75.34,1.74,1.27,2.5,1,.99-.35-.48-1.88-.57-2.06-.65-1.36-1.27-2.59-1.91-3.88-.26-.53-.48-2.12-1.27-2.3-.66-.15-1.67.4-2.25.75ZM71.09,119.25c-.1-1.03-2.14-1.5-2.69-.94-.15.16-.12.72-.33,1.05-.59.9-.73,1.05-1.26,2.18-.15.32-1.07.79-.47,1.46.19.21.29.18.5.25.99.34,2.24.37,3.31.19,1.34-.23,2.47-1.21,3.68-1.69.11-.44-.45-.18-.5-.25-.06-.09.1-.69-.23-1.14-.2-.28-.92-.61-1.27-.86-.04-.11-.14-.23-.25-.25-.16-.03-.39.04-.5,0Z"/>
  <path class="cls-25" d="M77,24.63c2.92,2.67,4.66,6.01,5.6,9.72.05.21.44.18.48.36.39,1.74.38,6.15,0,7.9-.04.18-.42.17-.47.37-6.25,22.66-47.4,23.84-56.49,2.75-3.8-8.83-.57-16.56,6.64-22.69,12.47-9.36,32.61-9.05,44.24,1.59Z"/>
  <path class="cls-8" d="M295.22,65.69c.09.14.43.11.55.56.16.6.15,1.28.1,1.9-.23,3.01-4.58,4.62-7.18,5.06-3.26.56-6.64.21-9.89-.22-2.39-.32-5.29-.53-7.16-2.1-.07-.22.77-1.46.89-1.6,2.63-2.78,8.59-5.47,12.34-6.15,3.48-.63,8.19-.61,10.35,2.55Z"/>
  <path class="cls-22" d="M66.76,170.91c-.01.06-.35.07-.4.26-.85,3.39-1.42,5.95-4.41,8.29-2.39,1.87-6.1,2.34-8.82.87-1.36-.74-2.25-1.93-2.29-3.47-.09-3.68,5.15-6.88,8.21-8.29,1.48-.68,6.54-2.76,7.79-1.7.57.48.1,3.25-.09,4.05Z"/>
  <path class="cls-22" d="M82.02,172.04c.46.47.37,2.56.57,3.26.06.21.43.16.48.35.45,1.85.7,6.31.51,8.2-.45,4.51-7.37,6.09-10.36,2.86-1.26-1.45-1.54-3.72-.86-5.53.59-1.58,3.09-5.7,4.42-6.95.94-.88,4.06-3.39,5.24-2.19Z"/>
  <path class="cls-8" d="M294.24,85.92c.3.5.58.61.62,1.51.2,4.04-5.32,4.43-8.28,3.76s-8.91-5.22-10.68-7.62c-1.6-2.18.86-2.43,2.61-2.56,4.99-.39,12.88.23,15.72,4.91Z"/>
  <path class="cls-21" d="M33.96,1.97c1.81,2.32,3.29,4.85,4.92,7.39.29.45,1.35,1.57,1.56,2,1.46,2.88-1.37,4.09-3.88,3.63-1.83-.34-2.33-1.91-3.19-3.25-1.68-2.63-4-5.77-5.24-8.51-.07-.15-.44-.14-.49-.35-.28-1.11,1.23-2.63,2.38-2.81,1.31-.21,2.54.04,3.47,1,.23.24.26.64.47.91Z"/>
  <path class="cls-21" d="M20.06,29.12c1.46,2.05-1.33,3.77-3.28,3.67-2.32-.11-12.43-2.28-14.61-3.13-.44-.17-1.8-1.1-1.93-1.43-1.18-2.87,2.52-3.37,4.52-3.16,2.94.31,10.88,2.08,13.64,3.09.42.15,1.43.63,1.66.96Z"/>
  <path class="cls-21" d="M99.24,59.85c.88,1.11.16,2.86-1.12,3.36-1.16.45-1.95.35-3.11,0-1.62-.49-10.79-5.59-12.28-6.71-.14-.1-1.13-1.06-1.15-1.14-.43-1.84,2.49-4.11,4.35-3.05,3.36,2,6.99,3.65,10.35,5.64.56.33,2.69,1.58,2.95,1.91Z"/>
  <path class="cls-21" d="M81.99,4.96c-.98,1.78-3.13,4-4.4,5.77-.48.67-1.03,1.98-1.51,2.63-1.21,1.61-2.16,2.37-4.33,2.16-1.39-.13-3.08-1.39-2.48-2.92.11-.28.47-.31.57-.49,1.31-2.24,2.76-4.23,4.22-6.22,1.16-1.59,2.34-4.27,4.43-4.57,2.36-.34,4.92,1.08,3.51,3.64Z"/>
  <path class="cls-21" d="M5.25,59.93c-1.51-1.01-1.09-2.89.34-3.84,1.35-.89,12.06-5.64,13.54-5.95,1.72-.36,3.48.34,3.53,2.26.04,1.38-.63,1.63-1.71,2.31-2.35,1.46-8.79,4.47-11.41,5.33-1.53.5-2.84.86-4.29-.11Z"/>
  <path class="cls-21" d="M107.47,28.37c1.35,1.63.34,2.99-1.41,3.55-2.64.84-11.87,2.52-14.61,2.63-3.61.14-4.91-3.26-1.45-4.7,4.32-.32,8.92-2.02,13.18-2.31,1.35-.09,3.37-.28,4.29.83Z"/>
  <path class="cls-9" d="M254.17,47.03c-.14,1.85,0,3.98-.23,5.89-.06.47-.48.24-.54.72-.08.61-.09,3.19.02,3.72.03.13,1.39,1.68,1.6,1.94,5.42,6.89,10.01,14.04,12.11,22.42,1.97,7.82,1.49,15.08.06,22.72-.09.46.21.97-.54.83,0-.28.07-.63-.25-.75.28-1.52.74-2.42.97-3.91.25-1.65,0-4.41.29-5.67.05-.2.45-.07.51-.53.08-.65.08-2.63,0-3.28-.06-.46-.47-.33-.51-.53-.17-.72.09-1.87,0-2.7-.89-7.9-5.08-17.66-9.74-24.19-1.42-1.99-3.4-3.92-4.88-5.91-.16-1.44-.17-2.94-.1-4.39.1-2.36.78-4.29,1-6.38h.25Z"/>
  <path class="cls-9" d="M109.55,167.99c0,.6.35.96-.03,2.05-.68,1.98-1.91,4.41-2.46,6.38-.21.76-.08,2.96-1.01,3.07l.49.49c-1.11.27-.71,2.67-1,3.57-.05.15-1.29,2.16-1.48,2.63-2,5.12-3.53,9.63-6.24,14.25-.17.29-.13.72-.4,1.05-.91,1.08-3.02-.05-4.27-.21-4.45-.58-10.09-.28-13.58,2.85-2.17,1.95-2.79,4.59-2.47,7.47.23,2.1,2.99,5.54,4.66,6.9.93.75,2.11,1.14,3,1.92.62.55.21.26-.2.32-3.28-2.06-7.83-5.23-8.21-9.41-.19-2.04.08-3.86,1.14-5.53.62-.97,2.74-2.82,3.85-3.41,4.78-2.52,10.21-2.18,15.31-.91.87-.61.79-1.55,1.17-2.3,4.66-9.24,7.63-18.33,10.69-28.13.3-.94.18-2.45,1.02-3.05Z"/>
  <path class="cls-6" d="M225.44,36.04c3.01-1.35,6.15-2.5,9.25-3.62,4.66-1.68,11.95-4.72,16.82-4.1,2.56.33,4.61,2.26,4.66,4.83.05,2.82-.69,5.14-1.01,7.63l-.25-.25c.2-.31.54-6.56.52-7.37,0-.46-.33-2.07-.52-2.43-.06-.11-1.81-1.37-1.94-1.42-5.27-2.23-17.66,3.68-23.08,5.55-1.43.49-3.06,1.09-4.45,1.17Z"/>
  <path class="cls-9" d="M279.39,108.01c3.21.51,6.57,2.73,8.53,5.34,1.32,1.76,1.76,2.79,2.18,5.06.12.66-.32,1.69.52,1.6v.37c-.91.27-.38,1.58-.49,2.5-.9,7.21-7.21,13.64-12.48,18.37-.44-.05.26-.83.34-.91,4.01-4.23,8.55-8.18,10.63-13.78.77-2.08,1.52-6.46,1.01-8.62-.04-.18-.41-.17-.47-.37-1.04-3.4-2.54-5.8-5.79-7.65-1.17-.67-2.96-.91-3.97-1.9Z"/>
  <path class="cls-9" d="M155.26,21.04c-2.79,3.89-5.2,8.05-7.92,11.93-1.61,2.3-2.16,3.6-4.81,4.94-4.96,2.52-10.14,4.66-15.21,7.27-.29.15-.78.68-1.03.09,5.62-3.45,11.7-5.96,17.71-8.64,1.26-.9,1.21-2.05,1.86-3.01,2.83-4.21,5.94-8.47,8.9-12.58h.5Z"/>
  <path class="cls-6" d="M211.46,229.96h.25c-6.93,6.51-26.04,6.12-34.97,4.75v-.5c10.96,1.76,25.07,1.5,34.72-4.25Z"/>
  <path class="cls-9" d="M49.86,83.02v.25c-13.76,1.78-30.64,9.77-39.57,20.26-.27.32-1.85,2.49-1.88,2.65-.06.25-.05,1.48.02,1.56l14.71,8.01c-.16-.02-.34.02-.5,0-3.95-2.01-8.14-3.74-12.05-5.81-3.3-1.74-3.58-3.31-1.19-6.24,9.22-11.3,26.2-18.85,40.46-20.68Z"/>
  <path class="cls-6" d="M154.76,21.04c1.14-1.58,2.19-3.14,3.49-4.68.72-.85,1.5-2.08,2.53-2.66,2.69-1.51,5.6-1.44,8.37-.18,5.07,2.31,11.38,12.1,14.58,16.7.3.44,1.3,2.61,1.84,2.54.11-.01.48-.35.66-.47l.21.33c-2.27,1.24-2.01-.18-2.72-1.38-2.57-4.3-9.47-13.95-13.52-16.51s-8.43-2.14-11.44,1.5c-1.01,1.23-2.48,3.4-3.49,4.81h-.5Z"/>
  <path class="cls-9" d="M219.95,15.79s.34-.1.49.18c1.08,2.01,1.01,3.84,1.51,5.89.35,1.44.6,3.43,1,5s1.12,4.19,1.49,5.84c.19.84.1,2.39.25,3.33-.2-.03-.47.09-.69-.04-.44-.32-.34-4.1-.56-5.03-.74-3.06-1.8-6.73-2.48-9.84-.22-1.03,0-2.32-.42-3.55-.21-.62-.92-.91-.84-1.78h.25Z"/>
  <path class="cls-9" d="M52.11,131.5s.71-.2.5.62c-.02.09-.41.08-.54.47-.18.52-.31,1.24-.44,1.81-.37,1.61-.78,3.96-.54,5.74.02.16.81,2.71.95,3.05,1.57,3.8,4.93,8.51,8.4,10.84.12.08.94.57.42.72-1.33-1.02-2.79-1.93-3.88-2.99-4.61-4.49-8.43-12.63-5.36-18.92.22-.45.13-.98.5-1.33Z"/>
  <path class="cls-6" d="M147.27,208.47c.47-1.11,1.35-1.34,2.01-2.18.22-.28.1-.82.5-1.18.22-.2,1.8-.86,2.14-.88,6.16.87,12.36,1.47,18.58,1.74.01.17-.01.33,0,.5-2.66-.39-5.42-.28-8.12-.5-3.5-.29-6.99-.93-10.49-1.26-1.4.08-1.01.66-1.62,1.31-1.02,1.09-1.75,1.73-3,2.44-.53,1.25-2.86,3.25-4.25,4-.64,1.52-.64.72-1.5,1.5l-.18-.11c.02-1.11.92-.98,1.68-1.39.3-.7,3.46-3.55,4.25-4Z"/>
  <path class="cls-6" d="M86.58,165.24c7.79,1.57,15.25,2.05,23.23,1.75.17.36-.25.69-.25.75-.26-.41-.95-.25-1.37-.25-7.77-.1-13.94-.22-21.61-1.74v-.5Z"/>
  <path class="cls-24" d="M116.8,230.71c-7.92.95-16.87-2.22-23.98-5.5.21-.46.81-.13,1.13,0,5.97,2.38,11.69,4.79,18.23,5.25,1.49.11,3.23-.28,4.62.25Z"/>
  <path class="cls-9" d="M95.32,91.76c.13,0,.34.2.5.25l-1,.39c-2.26-1.34-4.54-2.73-6.94-3.82-4.93-2.25-11.58-4.26-17.04-5.07v-.25c8.98,1.4,15.1,3.71,23.15,7.95.82.43.35.49,1.32.55Z"/>
  <path class="cls-6" d="M70.84,83.27v.25c-5.85-.87-12.57-1.04-18.6-.49-.65.06-1.73.15-2.39.24v-.25c7.55-.97,13.41-.93,20.98.25Z"/>
  <path class="cls-9" d="M170.5,217.22c-.02.14.07.3-.05.44-.8.57-1.86,1.17-2.57,1.82-1.45,1.34-1.83,2.26-2.39,4.05-.06.2-.43.19-.47.37-.1.43-.1,3.46,0,3.9.04.18.4.19.47.37,1.93,4.51,6.66,5.32,11.26,6.06v.5c-3.65-.56-7.8-1.46-10.54-4-1.75-1.62-1.9-4.08-1.69-6.37.19-2.02,1.82-4.3,3.37-5.62.69-.58,1.72-1.44,2.63-1.51Z"/>
  <path class="cls-9" d="M220.95,215.97c-.39,1.94-3.52,7.68-4.75,9.56-.27.4-2.81,3.47-3.05,3.63-.22.16-.5.01-.69.05-.52.81-.41.43-.75.75h-.25c0-.86.49-.63,1-.75.61-.95,1.53-2.1,2.24-3.07,1.85-2.51,3.47-5.24,4.82-7.99.44-.89.35-1.83,1.43-2.44-.02.08.02.17,0,.25Z"/>
  <path class="cls-9" d="M236.18,167.74c-.31,1.45-.21,3.46-.51,4.82-.57,2.63-1.36,5.52-1.96,8.34-.1.46.23.97-.53.83.03-.33-.02-.67,0-1,.08-1.37.67-4.8,1-6.33.05-.23.68-.06.5-.79-.99-.28-.61-.89.24-.37.04-1.04,0-2.59.26-3.57.06-.21.44-.17.48-.35.1-.45-.1-1.01,0-1.42.07-.27.48-.13.51-.16Z"/>
  <path class="cls-9" d="M130.78,223.21c-4.7,3.78-7.31,6.61-13.74,7.5-.14-.62.32-.53.74-.63,5.73-1.28,7.59-3.29,12.11-6.64.21-.16.68-.83.89-.24Z"/>
  <path class="cls-24" d="M266.66,105.26c.02.96-.34,1.79-.25,2.75,3.87-1.35,7.7-1.51,11.7-.57.44.1.93-.13.79.57-3.36-.52-5.85-1.03-9.3-.44-1.11.19-5.09,2.03-3.91-.37.51-1.04.49-1.43.72-2.7.32.12.24.47.25.75Z"/>
  <path class="cls-24" d="M112.55,55.78c.69.33-.14.61-.33.8-3.91,3.88-6.03,6.93-8.93,11.51-.11.17-.65.93-.99.44,3.15-5.44,5.83-8.56,10.24-12.75Z"/>
  <path class="cls-24" d="M97.56,80.27c-.62,3.24-1.02,6.81-1.74,9.92-.12.54.06,1.26,0,1.83-.16-.05-.37-.24-.5-.25l.5-6.58c.59-1.3,1.04-3.31,1.49-4.92h.25Z"/>
  <path class="cls-9" d="M86.58,165.24v.5c-5.34-1.06-9.51-2.35-14.49-4.5l2.56.56c3.7,1.75,7.91,2.63,11.93,3.43Z"/>
  <path class="cls-6" d="M204.46,17.29c3.85-2.92,7.73-6.04,12.99-3.87,1.66.68,1.68,1.1,2.5,2.37h-.25c-.99.26-.65-.52-.98-.88-1.88-2.02-5.62-1.88-8.05-1.04-2.04.71-4.35,2.48-5.95,3.67l-.25-.25Z"/>
  <path class="cls-9" d="M101.56,70.02c.79.97-.57,1.84-.74,2.2-1.11,2.36-1.77,4.68-2.53,7.09-.05.16-.64.52-.72.95h-.25c1.13-4.06,2.29-6.57,4.25-10.25Z"/>
  <path class="cls-9" d="M38.87,124c.23-.56.75-.06,1.05.08,3.67,1.73,7.3,3.67,10.77,5.59.29.16.73,0,.89.11.13.09-.01.4.03.47-4.4-1.72-8.52-4.13-12.74-6.25Z"/>
  <path class="cls-24" d="M233.19,181.73c-.01.16.02.34,0,.5l-.25.75c-.09.58-.19,2.04-.26,2.34-.06.24-.53.21-.69.58-.3.67,0,1.89-.27,2.72-.73,2.24-1.51,4.57-2.27,6.86h-.5c1.14-4.07,2.33-8.79,3.79-12.83.23-.62.03-1.42.46-1.91-.02.33.03.67,0,1Z"/>
  <path class="cls-9" d="M263.41,152.24c-1.26.81-1.54,1.23-3,1.75-.3.72-.91.99-1.67,1.46-3.63,2.21-7.47,4.26-11.32,6.29-.09-.52.68-.88,1.04-1.09,3.1-1.81,8.98-5.6,11.95-6.66.24-.57,1.3-1.17,2.03-1.59.17-.1.9-.57.97-.16Z"/>
  <path class="cls-6" d="M229.44,195.47c-.79,2.37-1.55,4.28-2.47,6.44-.19.45-.01,1.17-.52,1.55.02-.16-.02-.34,0-.5.28-2.93,1.7-4.64,2.5-7.5h.5Z"/>
  <path class="cls-24" d="M23.13,115.76c1.31.21,5.52,2.6,7,3.37.12.06,1.04.44.49.63-2.65-1.34-5.34-2.65-7.99-4,.16.02.34-.02.5,0Z"/>
  <path class="cls-24" d="M254.92,40.53l.25.25c-.18,1.39,0,3.41-.26,4.57-.02.09-.66.65-.74,1.67h-.25c.16-1.55.18-5.15.5-6.33.07-.26.49-.14.5-.16Z"/>
  <path class="cls-9" d="M226.44,202.97c-.02.16.02.34,0,.5-.11.97-.67,1.85-1,3h-.49s0,.5,0,.5c-.07.06-.42,1.46-.5,1.75h-.5s0,.5,0,.5c-.04.02.04.19,0,.25h-.25c.43-2.13,1.45-3.76,2.13-5.76.14-.4-.04-.88.62-.74Z"/>
  <path class="cls-9" d="M223.7,209.97c-.35,1.81-1.59,3.67-2.25,5.5h-.5c.18-1.18.34-.81.47-1.2.55-1.56,1.18-3.66,2.27-4.8-.03.15.03.35,0,.5Z"/>
  <path class="cls-4" d="M204.71,17.54c-2.65,1.97-4.97,4.29-7.63,6.24-.16.12-.77.74-.86.26,2.84-2.33,5.33-4.54,8.24-6.75l.25.25Z"/>
  <path class="cls-4" d="M170.5,215.72c.08-2.94.07-6.06,0-9,.41.26.25.95.25,1.37.02,2.08.03,4.17,0,6.25,0,.42.16,1.11-.25,1.37Z"/>
  <path class="cls-4" d="M117.3,51.53c1.47-1.18,3.64-3,5.16-3.96.52-.33,1.12-.41,1.58-.79-1.04,1.43-4.07,3.19-5.86,4.51-.21.16-.68.83-.89.24Z"/>
  <path class="cls-24" d="M272.4,145.74c-1.39,1.12-2.81,2.2-4.25,3.25-.28-.09-.93.3-.2-.32,1.04-.89,2.45-1.84,3.58-2.67.16-.12.77-.74.86-.26Z"/>
  <path class="cls-6" d="M225.44,206.47c-.26.92-.22.28-.5.5v-.49s.5-.01.5-.01Z"/>
  <path class="cls-6" d="M221.45,215.47c-.04.11.05.34,0,.49h-.49c.02-.07-.02-.16,0-.24s-.01-.17,0-.25h.5Z"/>
  <path class="cls-6" d="M224.45,208.72c-.04.13.07.41,0,.49-.08.08-.4-.04-.49.01v-.5s.5,0,.5,0Z"/>
  <path class="cls-9" d="M232.94,182.98l.25-.75c-.06.46-.24.71-.25.75Z"/>
  <path class="cls-16" d="M166.5,18.29c.08.09.19.17.25.25.22.29.28.52.75.5.49,1.28,1.28,1.16,1.83,1.73s.31,1.23,1.41,1.77l2.75,3.44.49,1.06c-.31.13.25,1.29.33,1.42,1.33,2.14,3.05,4.12,4.49,6.39.44.7.52,1.57,1.22,2.17.15.04.18-.23.21-.23.16-.01.34,0,.5,0,1.06,2.51,4.45,2.08,6.49,1l.13.25c.81.07.55.02.62-.5.12-.87.29-.35.5-.5.3.54,1.2-.46,1.47-.66,1.17-.88,4.61-3.21,5.03-4.09.13-.27.16-.53.25-.75.77-.35,1.43-.88,2-1.5.08-.09.18-.15.25-.25.36,0,.63-.15.75-.5.07-.02.18-.17.25-.25.54-.14,1.23-.64,1.64-1,.32-.28.3-.68.36-.75.07-.07.7-.07.75-.5.06-.02.21-.18.25-.25l.75-.5c.27-.1.36-.27.5-.5.36,0,.63-.15.75-.5.06-.02.21-.18.25-.25.73-.22,1.56-.86,2-1.5,2.19-1.34,5.16-4.25,7.15-5.21.66-.32.92-.25,1.59-.28.45.25.16.93.26,1.32.27,1.1.71,2.53.99,3.92-.41.49-.14,2.26.01,2.82.62,2.24,1.18,5.33,1.73,7.6.48,1.99.23,3.44.98,5.52.51,1.41.29,1.79,1.85,2.6,2.64,1.38,5.31.25,7.97-.62,5.06-1.66,10.12-4.05,15.23-5.75,1.86-.62,3.79-1.2,5.69-1.68-.17,1.07-.04,2.86-.25,3.83-1.17,5.31-1.28,10.48-1.97,16.06-.06.48-.48.24-.54.72-.07.54-.08,2.75.03,3.21.04.17.4.16.47.37.53,1.66.24,1.77,1.52,3.05,1.13,1.13,2.53,2.91,3.68,4.05.43.43-.09,1.04,1.32,1.7.45.97.96,1.53,1.47,2.45,2.3,4.13,4.27,8.31,5.52,12.79-.46.25-.23.9-.18,1.3.33,2.54,1.06,4.48,1.19,7.06.1,2.03.08,4.48,0,6.52-.05,1.25-.69,2.87-.01,4.11-.06.4-.17.84-.25,1.25-.28,1.37-.99,3.08-1.47,4.45-.18.52-.24,1.24-.27,1.8-.09.07-.17.17-.25.25-1.84-.07-3.72.56-5.25,1.5-.51.32-1.19.86-1.75,1.25-1.29.89-2.67,1.96-3.75,3-2.07,2-3.66,5.8-5.57,7.44-.43.37-.76-.06-1.18,1.31-.04.13.03.34,0,.5-.92.76-3.27,2.53-3.75,3.25-.77.35-1.43.88-2,1.5-.08.09-.18.15-.25.25-.36,0-.63.15-.75.5-.07.03-.18.17-.25.25-.7.23-1.39.81-2,1.25-2.53,1.84-5.16,3.55-7.54,5.07-1.31.84-3.02,1.44-4.2,2.18-.09.06-.18.17-.25.25s-.17.17-.25.25c-3.23,1.48-.87,4.28,1.88,4.01.54-.05.86-.3,1.32-.45.42-.14.95.18.8-.57,4.25-1.53,7.83-4.71,11.74-6.75,2.33-1.22,4.01-2.42,5.74-4.25,1.51-1.59,2.85-2.75,4.5-4.25.95-.87,1.22-.97,2-2.25.24-.18,1.24-.74,1.44-1.07.16-.27.02-.59.06-.68,1.02-.55,1.05-1.05,1.92-1.83l.08-.42c.29-.75.75-1.38,1.25-2,.65-.8,1.34-1.4,2-2.25.07-.09.19-.16.25-.25.49.09.57-.37.75-.5.21-.15.52-.35.75-.5,1.01-.67,2.12-1.27,3.34-1.48,1.03,1.01,1.78,2.24,2.4,3.56.19.23.42.12.51.17.04.26.1.53.25.75,1.06,1.58,3.97.44,4.74-.95.36-.66.32-1.74.53-2.36.06-.19.79-.35.49-1.18,4.01-.92,7.02-.71,10.73.99.63.29,1.18.57,1.77.91.8,1.55,1.85,2.27,1.99,4.2.28,3.77-.61,7.1-2.83,9.94l-.68,1.69c-.61.47-1.45,1.62-1.75,2.25l-1.5,1.19-2.49,3.06c-1.35,1.19-2.11,1.91-3.32,3.17-.72.74-1.48.51-1.92,1.58-.36,0-.63.15-.75.5-.06.02-.21.18-.25.25-.36,0-.63.15-.75.5-.06.02-.21.18-.25.25-.36,0-.63.15-.75.5-.06.02-.21.18-.25.25-.36,0-.63.15-.75.5-.07.03-.18.17-.25.25-.75.41-1.83,1.01-2.5,1.5-6.17,4.48-12.88,8.77-19.73,12.25-.15.07-.59.02-.92.19-2.61,1.33-5.22,2.7-7.82,4.06-.41.06-1.07.34-1.5.5-.82.31-2.25.95-2.74,1.7-.37.58-.36,1.52-.53,2.11-.06.22-.44.18-.48.36-.23,1.01-.14,2.95-.26,4.08,0,.08,0,.17,0,.25-.36.22-.19.76-.33,1.18-.99,2.79-1.06,5.98-1.93,8.89-3.47,11.56-7.35,23.32-12.8,34.23-2.06,4.13-3.78,8.54-7.89,11.09-6.53,4.05-21.35,3.43-28.8,2.25-.36-.06-.97-.39-1.21.09-.14-.05-.45.05-.5,0-.04-.04.07-.36-.03-.47-.27-.18-.43.22-.47.22-.14.02-.37.02-.5,0,.11-.81-1.05-.68-1.57-1-1.61-.99-1.42-3.32-.68-4.82.18-.37.47.11.5-.93,0-.18,0-.52.25-.5.78-.39,1.37-.92,2-1.5.09-.08.17-.17.25-.25s.17-.16.25-.25c.46.06,1.49-1.14,1.52-1.36l-.25-15.77c-.31-.28-.62-.7-1.01-.86-.73-.31-1.21,0-1.5,0-.08,0-.17,0-.25,0-2.14-.62-4.44-.35-6.62-.5-1.81-.13-3.68-.32-5.5-.5-3.58-.36-10.45-2.11-13.54-1.04-.27.09-1.74.54-1.08,1.05-.89.6-1.33,1.72-1.82,2.18-4.06,3.77-8.34,7.61-12.18,11.42-.94.93-3.25,2.32-3.98,3.39-.8.33-1.39.91-2,1.5-.09.08-.16.17-.25.25-.61.19-1.22.83-1.75,1.25-1.11.88-2.52,1.99-3.75,2.75-6.7,4.14-13.36,1.71-20.18-.67-.23-.08-.93-.42-1.05-.08-.82-.32-1.69-.65-2.5-1l-8.99-4.75c-.08-.08-.19-.17-.25-.25-.22-.28-.27-.53-.75-.5-.34-.54-2.22-1.79-3-2.5.16-.6-.48-.46-.5-.5-.04-.07.1-.42-.07-.67-.1-.16-.48-.16-.63-.5-.36-.83-.43-3.61-.06-4.42.14-.31.57-.09.72-.19s0-.42.04-.47c.42-.46,1.42-1.02,2-1.25-.09.81.23.44.69.32,3.1-.79,5.47-.68,8.61,0,1.95.42,3.47,1.74,5.77.44.31-.18.13-.48.17-.51.07-.05.16-.17.25-.25,1.8-1.69,1.26-1.78,2.25-3.75,2.38-4.71,4.91-9.75,6.72-14.69,3.57-9.74,5.72-20.02,9.79-29.59.61-1.43,1.34-3.35,1.99-4.76.11-.24.83-.16.47-.67-.02-.03-.34.02-.4-.09-.17-.34-.07-.72-.31-1.07-.34-.49-1.75-1.08-2.39-1.11l-1.62.25s.05.2-.13.25c-.32.09-.65.06-.95.24-.76.46-1.98,2.89-2.17,3.76-.13.32-.6.44-.73.7-.87,1.79-1.31,4.39-2.32,6.13-.47.81-.94.84-1.7.92.1-.87-.27-.35-.7-.33-9.65.53-17.37-.78-26.63-2.95-.33-.08-.94-.43-1.15.03-2.58-.8-5.81-1.93-8.24-3-.97-.43-2.04-1.51-3.25-1.5-3.01-1.71-4.55-3.2-6.99-5-.32-.24-.52-.34-.75-.5-1.17-2.03-3.43-4.26-4.29-6.59-.34-.92-.24-2.18-.47-2.98-.07-.23-.45-.08-.51-.54s-.07-2.32.03-2.72c.04-.18.43-.15.48-.35.18-.69.06-1.72.47-2.47l1.78-2.6c.67-.56.89-.6,1.5-1,.16-.02.36.04.5,0,3.56-.91,5.18-2.12,9.36-1.75,1.25.11,2.73.94,3.88.5.86.27,1.62.79,2.5,1,.06.05.4.02.64.23.62.55-.1.54,1.11.77.11.36.38.5.75.5.04.07.19.23.25.25.12.35.39.5.75.5.04.07.19.23.25.25.12.35.39.5.75.5.07.1.17.16.25.25.82.89,1.74,1.42,2.75,2,.43.25,1.41.96,1.5,1v.25c.99.75,2.27,1.27,3.43,1.69,6.88,2.49,16.93,3.1,24.05,1.43.42-.1.88,0,.74-.62,2.01-.36,4.06-1.06,5.99-1,.79.92,1.26.95,2.25,1.5,2,1.13,6.02,3.51,8.01,1.39.96-1.03.6-3.02-.76-3.39l-4-2c-.08-.08-.17-.17-.25-.25-.52-.52-.93-1.15-1.75-.75-.49-.36-1.28-1.45-1.69-1.76-.64-.48-1.62-.51-2.16-1.02-1.65-1.54-3.23-3.09-4.81-4.69-.86-.87-3.07-2.62-3.59-3.46-.25-.39-.26-1.15-.47-1.42-.19-.25-.63-.05-.79-.3-.15-.23-.1-.68-.32-1.01-.4-.58-1.41-.63-.9-1.58-.93.18-.66-.33-1-1-1.31-2.59-2.64-4.93-3.92-7.69-.17-.35-.7-.27-.57-.81,0-.16-.02-.35,0-.5.63-.48,1.34-.81,2-1.25.86-.57,2.02-1.66,2.75-2,.25-.12.97.43.91-1.09-.04-.89-1.23-1.78-1.76-2.43-1.5-1.81-2.89-3.18-4.51-4.73-.3-.29-.77-.38-1.01-.75-.18-1.58-.19-3.29-.12-4.87.24-5.12,1.79-11.6,3.71-16.27,1.18-2.88,3.12-6.02,4.81-8.7.34-.54.79-.23.97-1.4.02-.16-.02-.34,0-.5.07-.04.09-.52.32-.69.18-.13.54.04.69-.23.14-.26.05-.85.31-1.04.15-.11.53,0,.65-.07.04-.03-.11-.47.28-1.02.44-.63,1.77-1.4,2.41-2.04.98-.97,1.62-2.08,2.85-3.02.46-.35,1.16-.64,1.49-.89,1.53-1.15,2.85-1.99,4-3.25.08-.09.07-.17.25-.25.98-.42,2.17-.85,2.75-1.75.27-.06,1.88-.72,1.96-.8.13-.14,0-.36.04-.45,2.04-.84,6.4-3.07,8.24-4.25.16-.1.33-.51.7-.54-.4-.65.18-.5.8-.71,2.52-.85,7.48-2.59,9.42-4.19.34-.28.77-.26.32-.81.81-.72,1.34-1.12,2-2,1.28-1.7,2.32-3.86,3.49-5.56.28-.4,1.09-.57,1.01-1.43l1.49-1.68c.41-.8.72-1.33,1-2.07,1.44-.74.97-1.22,1.76-2.31s1.78-2.17,2.49-3.19c.57-.82,1.23-1.58,2-2.25.18-.15.32-.55.5-.75.07-.02.16.01.25,0l1.25.5ZM235.93,75.52c2.33-.89,2.57-1.58,3.27-3.8.06-.2.43-.19.47-.37.08-.36.09-2.04,0-2.4-.29-1.21-1.2-3.45-1.72-4.82-.44-1.14-1.32-2.71-1.75-3.8-.47-1.16-.19-1.37-1.02-2.49-.47-.64-.48-1.12-1.64-1.3-2.64-.42-3.35,3.23-4.12,5.04-1.31,3.04-1.24,3.53-1.98,6.77-.03.15-.84.29-.49,1.75.04.18.43.15.48.35.37,1.39.2,2.59,1.4,3.8,1.96,1.98,4.61,2.22,7.11,1.27ZM140.27,80.52c-.16-.48-.6-.5-.99-.63-5.04-1.65-11.13-.76-14.4,3.6-.18.24-.54.28-.67.58-.27.63-.56,3.56.83,3.19.05.08.19.15.25.25.05.07-.15.45.17.5,1.06.18,2.05.4,3.13.18s2.15-1.87,3.26-2.48c2.26-1.24,3.75-.77,5.86.24.43.2.62.66.56-.19.59.51.54.5,1,1,1.31,1.44,1.86,2.61,4.12,2.52,2.86-.12,2.78-2.83,1.63-4.83-.23-.4-1.32-1.24-1.5-1.44-.08-.09-.16-.17-.25-.25-.5-.47.16-.22-1-.75-.89-.41-.99-.86-1.75-1.25-.09-.05-.17-.22-.25-.25ZM194.97,84.77c-.08,0-.17,0-.25,0-2.34,0-6.12,1.77-7.74,3.5-.19.07-.17.13-.25.25-.26-.01-.55.22-.75.25-1.19.17-.44.08-1.03.85-.21.28-.67.37-.73.58-.07.27-.07,1.63,0,1.9.02.08,1.13,1.13,1.2,1.16,3.55,1.78,6.47-2.22,9.78-2.88,2.68-.53,5.02-.08,7.02,1.76.99.91,1.43,2.47,2.48,3.13,1.33.84,3.43,1.09,4.83.26.23-.14.13-.48.17-.51.03-.03.35.09.49-.18.36-.66.27-2.18-.01-2.87-.17-.4-1.58-2.53-1.99-2.81-.2-.14-.45-.1-.49-.13-.09-.13-.04-.39-.37-.75-.28-.31-1.17-.88-1.63-1-.07-.06-.18-.18-.25-.25-1.91-2.05-6.3-2.7-8.99-2.5-.46.03-.98.35-1.5.25ZM245.93,103.26c.13-.09.61-.06.86-.26.4-.32.3-.77.47-.93.13-.13.51.02.7-.21.6-.75.57-3.93.48-4.97-.22-2.48-2.99-7.59-4.22-9.82-.21-.38-.23-.96-.51-1.37-.8-1.14-2.72-1.32-3.62-.17-1.3,1.65-1.79,4.54-2.4,6.54-.27.88-1.39,3.44-1.5,4.3-.08.61-.09,3.45.03,3.96.04.17.39.16.47.37.4,1.11.43,1.86,1.55,2.65,2.07,1.44,5.32,1.56,7.53.4.28-.15.16-.48.18-.49ZM227.05,102.16c-4.71-5.99-19.92-5.93-23.24.69-1.1,2.19-.58,5.42,1.1,7.16.85.88,3.35,2.22,4.54,2.63,6.84,2.32,21.43.4,18.13-9.9-.14-.45-.39-.39-.53-.58ZM144.27,103.76c-1.06,2.12-1.45,5.08-.73,7.56.06.21.4.21.46.38.72,2.04,1.33,3.36,2.77,5.05.76.9,2.34,2.44,3.31,3.06s2.55,1.52,3.43,1.69l1.91,1.22c2.04.96,4.12,1.42,6.33,1.78-.23.65,1.35.7,1.66.72,6.68.47,13.26-.33,19.11-3.75.04-.02.9-.59.47-.72,1.16-.73,2.64-2.49,3.75-3,1.65-.75,3.57-4.55,3.74-6.63.3-3.64-.49-6.51-4.11-7.88-5.85-2.22-13.07,1.63-19.23,2.02-2.48.15-5.51.04-7.97-.29-3.41-.47-9.27-2.9-12.07-2.87-1.12.01-2.34.68-2.83,1.66ZM177.24,218.47v-14.99h-.25v14.99h.25Z"/>
  <path class="cls-10" d="M89.82,95.01c.11.05.4-.09.56,0,.35.19.64,1.01,1.44,1,1.21.96,2.24,1.41,3.5,2.25.06,1.1,1.71,1.41,2.24,1.89.27.24.19.65.44.87.98.88,2.2,1.7,3.15,2.72l.16.52-14.23,8.75c-.73.61-1.58.96-2.5,1.5-1.96,1.15-4.04,2.18-5.99,3.38-.24.08-.85.21-1.01.11-.02-.01.05-.3-.09-.41-.15-.12-.39-.06-.41-.09-.06-.07.14-.68-.5-.5-.07-.08-.18-.22-.25-.25-.12-.35-.39-.5-.75-.5-.08-.1-.18-.17-.25-.25-.93-1.1-2.18-1.45-3.5-2,.46-.9,1.42-1.65,1.99-2.43,2.98-4.09,5.84-8.37,8.74-12.63.19-.28,1.47-1.46,1.58-1.74,1.23-3.14-2.49-4.06-4.58-1.51-3.37,4.11-6.55,9.82-9.74,14.38-.56.8-1.49,1.54-1.99,2.43-5.94-1.5-12.93-1.01-18.73.75l.5-.75c-.19.02-.38-.02-.5-.18-3.35-4.46-7.85-9.59-11.73-13.63-1.16-1.2-2.79-3.38-4.57-2.39-.65.36-.47.62-.77,1.11-.05.07-.74.1-.39.57.02.02.35-.05.48.19,1.75,3.45,8.78,10.96,11.75,14.12.74.79,1.59,1.59,2.5,2.19-.18.1-.65-.25-.5.5-.8.35-2.13.89-2.82,1.25-.94.5-1.27,1.84-3.18,2.25l-21.23-10.25c-.89-.46-1.83-1.12-2.75-1.5-.3-1.62.36-1.06.93-1.57.24-.21.33-.73.56-.99,1.17-1.27,2.8-2.52,3.75-3.69.09-.11.33-.3.5-.5,1.36-.69,2.5-1.95,3.75-2.75.5-.32,3.47-1.98,3.75-2,1.91-.17,7.92-3.52,10.69-4.42,14.44-4.67,35.86-4.02,49.08,3.97.22.13.76.76.92.2ZM55.85,93.51c0,.17,0,.33,0,.5,0,1.65.03,5.14.23,6.64.07.48.51.33.53.51.04.4-.04,1.75-.01,2.47.09,2.54.02,5.09.25,7.62.25,0,.5,0,.75,0,.78.02,1.75.07,2.5,0,.37-.04.45.08.75-.25.94-1.03.25-3.46.24-4.61-.06-5.28.05-10.62-.53-15.85-.21-.13-.56.03-.71-.03-.41-.16-.65-.47-1.25-.5-.16,0-.34,0-.5,0-.32-.55-1.98.25-2.13.5l-.12,3Z"/>
  <path class="cls-13" d="M98.56,112.01c.43,1,.79,2.05,1.27,3.05,1.5,3.07,3.67,6.26,5.72,8.95,2.3,3.02,5.07,5.71,7.58,8.41.35.38,1.69.83.42,1.21-.49.15-1.21.27-1.75.38-7.86,1.62-17.17.94-23.91-3.44-2.85-1.85-5.51-4.33-8.81-5.56-.22-.25-.51-.4-.74-.62.41-.24.67-.56.99-.87l14.49-8.75c1.42-.22,3.58-2.51,4.75-2.75Z"/>
  <path class="cls-11" d="M48.61,118.75c-.09,1.29,1.65-.57,2-.25-.22,1.12.81,1.78,1.07,2.31.52,1.06,1.01,2.68,1.53,3.85.02.05,1.04.72.28.83-.81.12-.64-1.04-1.37-.25-1.54-.7-2.99-1.48-4.5-2.25-.31-.2-.51-.49-.75-.75-.28-.3-.39-.76-1-.75v-.49c.63.08.43-.41.5-.51s.2-.17.25-.25c.47-.03.69-.17,1-.5.38-.4.07-.44,1-1ZM47.49,122.25v.25c.16-.08.16-.17,0-.25Z"/>
  <path class="cls-20" d="M228.19,176.23c0,.17,0,.33,0,.5-.53.15-.47.65-.55,1.08-1.84,9.96-5.8,20.3-9.67,29.61-2.42,5.84-5.39,13.7-9.51,18.3-.65.72-1.45,1.22-2.25,1.75-2.38.96-4.72,1.93-7.24,2.5-4,.42-8.23.88-12.24.75-2.86-.09-8.38-.4-10.99-1.25.24-.48.84-.14,1.21-.09,7.45,1.18,22.27,1.8,28.8-2.25,4.11-2.55,5.83-6.97,7.89-11.09,5.44-10.91,9.32-22.67,12.8-34.23.87-2.91.93-6.1,1.93-8.89.15-.41-.03-.95.33-1.18-.14,1.48-.43,3.06-.5,4.5Z"/>
  <path class="cls-15" d="M118.05,150.49c2.2-.38,4.53.71,3.84,3.22-.17.6-1.32,2.37-1.57,2.97-4.73,11.31-7.26,23.23-11.78,34.59-1.45,3.65-3.31,7.31-4.97,10.94-.6,1.31-1.18,2.58-2,3.75-.09.08-.18.2-.25.25-3.01,1.28-6.21-.39-9.24-1,2.61.07,5.88,1.72,8.1.99,1.65-.55,1.11-1.06,1.65-2.04,7.43-13.42,10.82-27.64,15.95-41.87,1.12-3.1,2.59-6.1,3.53-9.12.08-.26.45-.16.48-.19.35-.49-.37-.5-.4-.55-.17-.34-.01-.77-.32-1.06-.66-.61-3.52-.49-4.19.19-.87,1.1-1.07,2.54-2.06,3.43.02-.08-.02-.17,0-.25.2-.87,1.41-3.3,2.17-3.76.3-.18.63-.15.95-.24.17-.05.11-.24.13-.25Z"/>
  <path class="cls-5" d="M81.58,91.02l2.5,1c1.59.96,3.28,1.51,5,2.25.03.13-.09.32.05.45.28.03.48.21.7.3-.17.56-.7-.07-.92-.2-13.22-7.99-34.63-8.63-49.08-3.97-2.78.9-8.78,4.25-10.69,4.42,11.76-6.84,26.27-9.03,39.8-7.21,4.32.58,8.46,1.83,12.65,2.96Z"/>
  <path class="cls-4" d="M81.58,91.02c-4.18-1.13-8.33-2.38-12.65-2.96-13.53-1.82-28.04.37-39.8,7.21-.28.02-3.25,1.68-3.75,2h-.25c.39-.83,1.45-.92,2.16-1.34,15.39-9.19,35.37-11.68,52.59-5.83.56.19,1.39.38,1.7.93Z"/>
  <path class="cls-7" d="M247.92,52.53c-.07,1.23-.46.93-.52,1.36-.07.56-.07,2.22,0,2.78.06.46.45.32.51.54.19.72.02,1.38.44,2.26,1.2,2.51,3.8,4.35,5.06,7.06,1.06.49,3.36,4.98,4,6.32,3.84,7.97,5.47,14.92,5,24.31-.11,2.17-.6,3.53-1.01,5.36l-.25-.5c.08-.4.19-.85.25-1.25.2-1.36.02-3.57.26-4.58.05-.2.45-.07.51-.53.11-.86.11-3.67,0-4.53-.06-.46-.47-.33-.51-.53-.62-2.63-.4-5.77-1.25-8.82-1.25-4.48-3.23-8.66-5.52-12.79-.51-.92-1.02-1.48-1.47-2.45-1.41-.66-.88-1.27-1.32-1.7-1.15-1.14-2.55-2.92-3.68-4.05-.02-.71-.88-1.68-1.02-2.11-.36-1.15-.24-2.67-.23-3.89,0-.25,0-.5,0-.75,0-.5-.03-1,0-1.5h.75Z"/>
  <path class="cls-7" d="M114.8,154.99c-.4,1.7-1.1,2.69-1.72,4.2-.25.61-.29,1.75-.54,2.36-.1.24-.81.5-.76,1.16-13.05,1.13-26.5-.85-38.43-6.21v-.25c2.43,1.07,5.66,2.2,8.24,3,8.36,2.59,19.75,4.18,28.47,3.25.75-.08,1.23-.11,1.7-.92,1.01-1.74,1.44-4.34,2.32-6.13.13-.26.6-.38.73-.7-.02.08.02.17,0,.25Z"/>
  <path class="cls-20" d="M215.7,23.04c.88,4.29,1.71,9.21,2.74,13.42.38,1.55-.16,3.08,1.38,4.32s3.03,1.2,4.88.9c4.84-.81,11.55-4.75,16.47-6.13h.5c1.85-.56,3.62-1.28,5.49-1.75.11-.03.2-.14.25-.25.63-.17,1.39-.15,2-.5.01.25-.02.5,0,.75.37,5.67-1.92,13.09-2.25,18.74-.03.5,0,1,0,1.5-.3.25-.3.5,0,.75,0,1.21-.13,2.73.23,3.89.14.43,1,1.4,1.02,2.11-1.28-1.28-.99-1.39-1.52-3.05-.07-.21-.43-.2-.47-.37-.11-.47-.1-2.67-.03-3.21.06-.48.48-.24.54-.72.7-5.57.8-10.74,1.97-16.06.21-.97.09-2.75.25-3.83-1.9.48-3.83,1.06-5.69,1.68-5.11,1.7-10.18,4.09-15.23,5.75-2.66.87-5.33,2.01-7.97.62-1.55-.81-1.34-1.19-1.85-2.6-.75-2.08-.5-3.53-.98-5.52-.55-2.27-1.11-5.36-1.73-7.6-.15-.56-.42-2.33-.01-2.82Z"/>
  <path class="cls-7" d="M86.58,136c7.79,3.72,18.64,4.14,27.03,2.68,1.12-.2,6.66-1.78,7.16-1.38.11.13,0,.41.03.46-1.94-.06-3.98.64-5.99,1-1.21.22-2.43.57-3.65.72-8.46,1.06-16.75.22-24.57-3.22v-.25Z"/>
  <path class="cls-7" d="M111.8,65.03c-.02.16.02.34,0,.5-1.02.38-1.57,2.02-2.17,2.94-3.06,4.72-5.65,10.05-6.81,15.48-.35,1.62-.2,3.98-.52,5.39-.05.2-.45.07-.51.53-.22,1.66-.08,5.11.02,6.89-.76.14-.48-.38-.5-.86-.23-5.88.89-12.4,2.71-17.79,1.17-3.48,3.65-7.6,5.61-10.65.19-.29.24-.83.41-1.03.21-.25.64-.07.79-.31.18-.26.11-.9.28-1.06s.6.01.7-.04Z"/>
  <path class="cls-1" d="M58.85,116.26c1.62-.05,3.43-.13,5,.25-.01.91-.8,2.06-1,3.25-.87.43-.7,1.56-1.02,2.3-.07.18-.38.21-.46.39-.27.64-.32,1.44-.77,2.05-.05.04-.17-.03-.25,0l-.25.25c-.22-.28-.84-.37-1-.5-.05-.51-.19-.99-.25-1.5.23.27,1.14.31,1,1.5.15-.04.72-.64.74-.68.89-1.73,1.17-3.6,1.78-5.36.07-.21.93-.77.72-1.45-2.12-.18-4.12-.18-6.24,0-.34.94.59,1.6.73,1.95.56,1.41,1.08,2.56,1.27,4.05-.93-1.12-.86-2.26-1.73-3.2l-1.02-2.8c.02-.09-.02-.19,0-.25.93-.14,1.8-.22,2.75-.25Z"/>
  <path class="cls-20" d="M111.8,65.53c-.18,1.17-.63.86-.97,1.4-1.69,2.67-3.63,5.82-4.81,8.7-1.91,4.67-3.47,11.15-3.71,16.27-.07,1.58-.06,3.3.12,4.87.24.37.71.46,1.01.75,1.62,1.55,3.01,2.92,4.51,4.73.53.64,1.72,1.53,1.76,2.43.06,1.52-.65.97-.91,1.09.25-.79.1-1.97-.33-2.67-.46-.74-3.11-2.44-3.36-2.89-.15-.26.03-.7-.09-.9-.04-.06-.78-.41-1.21-.79-.58-.52-1.15-1.36-2-1.5-.01-.08,0-.17,0-.25-.1-1.78-.24-5.22-.02-6.89.06-.46.47-.33.51-.53.32-1.42.17-3.77.52-5.39,1.16-5.43,3.76-10.77,6.81-15.48.6-.92,1.14-2.56,2.17-2.94Z"/>
  <path class="cls-15" d="M214.45,17.79s.16-.21.42-.09c.67.31.66,2.6.84,3.4.05.2.43.18.47.36,1.35,5.58,1.42,12.01,3.24,17.26.15.43.04,1.24.26,1.64.14.25.48.11.66.24.17.13.21.45.35.53,1.45.8,3.55.21,5.04-.18,5.23-1.36,10.12-4.27,15.43-5.43-4.92,1.38-11.63,5.32-16.47,6.13-1.85.31-3.39.3-4.88-.9s-1-2.76-1.38-4.32c-1.03-4.21-1.86-9.13-2.74-13.42-.28-1.39-.72-2.82-.99-3.92-.1-.4.19-1.08-.26-1.32Z"/>
  <path class="cls-7" d="M173.74,201.97c-2.86-.02-5.76-.04-8.61-.25-4.53-.33-9.35-1.51-13.73-1.76-1.71-.1-2.95.04-4.38,1.01-.66-.51.81-.95,1.08-1.05,3.09-1.06,9.95.68,13.54,1.04,1.81.18,3.68.37,5.5.5,2.18.15,4.48-.12,6.62.5Z"/>
  <path class="cls-4" d="M67.84,112.51c1.08.27,2.9,1.05,4,1.5,1.31.54,2.57.9,3.5,2-9.45-4.95-19.7-5.29-29.47-1-.15-.75.32-.4.5-.5,1.25-.66,1.2-.78,2.75-1.25,5.8-1.76,12.8-2.25,18.73-.75Z"/>
  <path class="cls-7" d="M228.19,176.73c0,.81-.45,4.01-.76,5.07-4.02,13.37-8.55,26.93-15.23,39.47-.16.3-1.82,2.82-2.06,3.12-.23.28-1.26,1.15-1.68,1.32,4.12-4.6,7.09-12.46,9.51-18.3,3.86-9.31,7.83-19.65,9.67-29.61.08-.42.02-.92.55-1.08Z"/>
  <path class="cls-24" d="M79.08,125c3.3,1.23,5.95,3.71,8.81,5.56,6.75,4.38,16.05,5.06,23.91,3.44v.25c-5.44,1.11-10.55,1.46-16.04.18-6.56-1.54-10.23-5.41-15.63-8.66-.25-.15-.67-.11-.9-.25-.26-.15-.11-.48-.15-.52Z"/>
  <path class="cls-15" d="M249.42,33.79l.75-.5c-.16,1.25,0,3.43-.25,4.58-1.07,4.75-1.7,9.54-1.99,14.67h-.75c.33-5.66,2.62-13.08,2.25-18.74Z"/>
  <path class="cls-7" d="M279.89,113.51c.26.11.82-.07,1.35.28,1.64,1.06,2.21,2.84,2.67,4.54.06.22.44.1.5.54.07.55.08,3.01-.03,3.47-.04.18-.43.15-.48.35-.78,2.84-1.46,6.04-3.76,7.82l.68-1.69c2.22-2.84,3.11-6.17,2.83-9.94-.14-1.93-1.19-2.65-1.99-4.2-.59-.34-1.14-.62-1.77-.91v-.25Z"/>
  <path class="cls-15" d="M175.49,201.97c.39.16.7.58,1.01.86l.25,15.77c-.03.23-1.06,1.43-1.52,1.36.03-.04-.1-.32.06-.45.44-.38.79.31.94-1.43.31-3.52.35-10.51.02-14.01-.08-.9-.37-1.57-1.27-1.86l.5-.25Z"/>
  <path class="cls-24" d="M98.56,112.01c.16-.03.6-.05.71.03,1.05,2.58,2.22,5.45,4.03,7.65l2.5,4.31h-.25c-2.05-2.69-4.22-5.88-5.72-8.95-.49-1-.85-2.05-1.27-3.05Z"/>
  <path class="cls-15" d="M121.29,223.71c.38.04.86-.12.17.3-6.99,4.35-14.37,1.68-21.4-1.05.11-.34.82,0,1.05.08,6.83,2.38,13.48,4.81,20.18.67Z"/>
  <path class="cls-15" d="M59.85,131l-1.78,2.6c-.42.75-.29,1.79-.47,2.47-.05.2-.44.17-.48.35-.1.4-.09,2.25-.03,2.72s.44.31.51.54c.23.79.13,2.05.47,2.98.86,2.33,3.12,4.56,4.29,6.59.23.16.43.26.75.5l-.12.24c-.79-.19-.52-.55-.63-.74-2.23-1.54-5.06-6.25-5.46-8.91-.21-1.37-.25-4.48.18-5.74.09-.25,1.89-3.07,2.11-3.28.19-.19.54-.19.68-.31Z"/>
  <path class="cls-15" d="M234.19,162.74c.16-.02.34.01.5,0-1.14.61-2.14,1.14-3.09,1.92-.17.14-.48-.01-.66.25-.43.66-.35,1.77-.51,2.4-.63,2.47-1.31,5.43-1.73,8.07-.08.47.28,1-.5.86.07-1.43.36-3.02.5-4.5,0-.08,0-.17,0-.25,1.29-1.46.61-4.2,1.27-5.8.03-.08,1-1.31,1.06-1.37.33-.28,1.34-.48,1.67-1.08.43-.16,1.09-.44,1.5-.5Z"/>
  <path class="cls-9" d="M105.81,124c.96.33,1.57,1.81,2.25,2.56,1.95,2.16,4.47,4.04,6.41,6.03,1.63,1.68-1.57,1.44-2.66,1.66v-.25c.54-.11,1.27-.23,1.75-.38,1.27-.38-.07-.83-.42-1.21-2.51-2.7-5.27-5.39-7.58-8.41h.25Z"/>
  <path class="cls-7" d="M61.35,130s-.13-.34.16-.52c3.27-1.99,8.38-2.44,12.05-1.57.52.12,3.63,1.14,3.88,1.32.29.21.12.5.15.52-.88-.21-1.64-.73-2.5-1-3.66-1.15-8.86-1.14-12.38.49-.4.18-.7.32-.86.76-.14.04-.34-.02-.5,0Z"/>
  <path class="cls-7" d="M174.24,229.21c.13.02.36.02.5,0l.5.25c.05.05.36-.05.5,0,2.61.85,8.13,1.16,10.99,1.25v.25c-4.5-.08-9.49-.38-13.71-1.9l-.28-.35c.07.04,1.42.49,1.5.5Z"/>
  <path class="cls-1" d="M71.09,119.25c.11.04.34-.03.5,0,.08.08.16.18.25.25.34.25,1.06.58,1.27.86.33.45.17,1.05.23,1.14-2.02,1.8-4.07,1.31-6.49,1.75-.21-.07-.31-.04-.5-.25.16-.04.37-.24.5-.25,2.18-.22,4.07.27,6-1.39.22-.76-1.74-1.6-2.3-1.89-.33-.17-.28-.75-1.29-.48-.32.08-.22.62-.4.83-.66.79-1.15,1.57-1.76,2.43-.23-.93.58-1.37.74-1.68.41-.81.46-1.52,1.25-2.2.38-.22,1.57.7,2,.88Z"/>
  <path class="cls-21" d="M92.07,205.22c3.03.61,6.23,2.28,9.24,1-.03.03.15.33-.17.51-2.3,1.3-3.82-.03-5.77-.44-3.14-.67-5.51-.78-8.61,0-.47.12-.79.49-.69-.32,2-.79,3.88-.8,5.99-.75Z"/>
  <path class="cls-4" d="M18.64,108.26l21.23,10.25s-.1.2-.32.19c-1.03-.05-7.49-3.48-8.97-4.21-4.12-2.05-7.91-4.12-11.94-6.22Z"/>
  <path class="cls-7" d="M268.4,113.01c-.16,1.53,0,1.41-.73,2.7-.21.37-.11.75-.53,1.17-.94.92-2.59.64-3.74.38-.15-.22-.21-.49-.25-.75.06.03.17-.03.25,0,2.22.86,3.54.85,4.19-1.68.21-.83-.38-1.61.81-1.81Z"/>
  <path class="cls-7" d="M268.4,112.76c0-.16-.05-.32.01-.48,3.28-.97,6.17-1.07,9.48-.13.42.12.89-.05.75.62-3.66-1.19-6.56-1.23-10.24,0Z"/>
  <path class="cls-20" d="M138.03,45.28c-1.84,1.18-6.2,3.41-8.24,4.25-.04.09.09.32-.04.45-.07.08-1.69.74-1.96.8-.58.89-1.77,1.33-2.75,1.75v-.25c.18-.08.17-.16.25-.25.77.19,1.17-.79,1.75-1.25.23-.04.54.05.75,0,.15-.24.01-.54.51-.86s1.11-.23,1.49-.39c.47-1.12.54-.46,1.23-.89.27-.17.36-.63.83-.92.96-.58,3.65-2.02,4.64-2.36.53-.19.99-.29,1.54-.08Z"/>
  <path class="cls-4" d="M56.1,116.76l1.02,2.8c.87.94.8,2.07,1.73,3.2.06.51.2.99.25,1.5-1.05-.81-1.05-2.05-1.52-3.05-.3-.63-1.21-2.03-1.45-2.65-.35-.89-.15-1.12-.03-1.8Z"/>
  <path class="cls-15" d="M104.06,109.51c-.13.54.41.46.57.81,1.29,2.75,2.62,5.09,3.92,7.69-.78.1-.61.04-.87-.51-1.04-2.26-2.64-4.38-3.6-6.69-.28-.67-.03-.97-.03-1.3Z"/>
  <path class="cls-15" d="M198.97,229.96c.08,0,.17,0,.25,0-3.96.98-8.4,1.08-12.49,1v-.25c4.01.13,8.24-.33,12.24-.75Z"/>
  <path class="cls-15" d="M261.41,102.51c-.27,1.21-.43,1.71-.73,2.69-.39,1.26-.1,2.17-1.27,3.05.04-.56.09-1.28.27-1.8.48-1.37,1.19-3.08,1.47-4.45l.25.5Z"/>
  <path class="cls-7" d="M170.75,22.54c1.96.96,2.09,2.46,3.28,4.09s2.34,2.3,2.96,4.41c.02.08-.02.17,0,.25l-3-4.25-.49-1.06-2.75-3.44Z"/>
  <path class="cls-24" d="M93.82,114.76l-14.49,8.75s-.08-.3.06-.43c4.84-2.54,9.82-6.33,14.43-8.31Z"/>
  <path class="cls-15" d="M84.08,207.22s.1.37-.04.47c-.15.11-.57-.12-.72.19-.36.81-.3,3.59.06,4.42.15.34.52.34.63.5.17.25.03.6.07.67.02.04.66-.1.5.5-.3-.27-.25-.23-.5-.5-.32-.34-1.28-1.44-1.47-1.95-.4-1.03-.3-2.19.06-3.22l1.41-1.08Z"/>
  <path class="cls-7" d="M162.5,20.79c-.71,1.02-1.7,2.09-2.49,3.19s-.32,1.57-1.76,2.31c-.29.73-.59,1.27-1,2.07l-1.49,1.68v-.25c.5-.72,1.15-1.71,1.76-2.61.46-.68-.1-.46.74-.89.54-1.39,1.87-2.83,2.63-4.23l1.61-1.27Z"/>
  <path class="cls-1" d="M50.86,118c-.24.86.6,1.4.73,1.7.55,1.32,1,2.54,1.54,3.85l1.48,2.7c-.76.27-1.75-.66-2.5-1,.74-.79.56.37,1.37.25.76-.11-.25-.78-.28-.83-.51-1.18-1-2.79-1.53-3.85-.26-.54-1.3-1.19-1.07-2.31-.35-.32-2.09,1.54-2,.25.58-.35,1.59-.9,2.25-.75Z"/>
  <path class="cls-4" d="M50.86,118c.79.18,1.01,1.77,1.27,2.3.63,1.3,1.26,2.53,1.91,3.88.09.18,1.56,1.71.57,2.06l-1.48-2.7c-.54-1.32-.99-2.53-1.54-3.85-.12-.3-.96-.83-.73-1.7Z"/>
  <path class="cls-4" d="M62.85,119.75c-.13.76-.62,2.86-1.01,3.55-.07.13-1.05,1.07-1.24,1.2.45-.61.5-1.42.77-2.05.08-.18.39-.21.46-.39.31-.75.15-1.87,1.02-2.3Z"/>
  <path class="cls-7" d="M249.42,33.04c-.61.35-1.37.33-2,.5-.11.03-.2.15-.25.25-1.88.47-3.65,1.19-5.49,1.75.05-.93,1.95-.91,2.7-1.18s1.44-.74,2.25-1c.51-.16,2.6-.85,2.8-.32Z"/>
  <path class="cls-20" d="M278.64,112.76c.65.21.99.64,1.25.75v.25c-3.71-1.7-6.72-1.91-10.73-.99.3.82-.43.99-.49,1.18-.2.62-.16,1.7-.53,2.36-.76,1.39-3.68,2.53-4.74.95,1.15.26,2.8.54,3.74-.38.42-.42.33-.79.53-1.17.72-1.29.56-1.17.73-2.7,0-.08,0-.17,0-.25,3.68-1.23,6.58-1.19,10.24,0Z"/>
  <path class="cls-7" d="M58.85,116.01c.13,0,.55-.27,1.11-.27,1.27-.01,2.56.48,3.89.27,0,.17,0,.33,0,.5-1.57-.38-3.37-.3-5-.25v-.25Z"/>
  <path class="cls-15" d="M176.99,31.04c1.08.36,1.46,2.11,2.05,3.08s1.21,1.51,1.7,2.67c.73.04.77.83,1.31,1.07,1.49.65,3.07.49,4.56-.06l2.36-1.26c-.18.13-.32.37-.5.5-.21.15-.38-.37-.5.5-.27.03-.51.12-.75.25-2.04,1.08-5.43,1.51-6.49-1-.16,0-.34-.01-.5,0-.58-1.47-1.57-2.85-2.41-4.19-.35-.56-.5-.23-.83-1.3-.02-.08.02-.17,0-.25Z"/>
  <path class="cls-7" d="M88.57,217.22l8.99,4.75c-2.67-1.15-7.09-2.83-8.99-4.75Z"/>
  <path class="cls-4" d="M84.58,114.51c-.65,1.17-2.12,1.47-3.04,2.03-.83.5-2.86,2.2-3.79,1.99-.28-.06-.13-.49-.16-.51-.23-.21-.29-.28-.5-.5-.11-.12-.37-.37-.5-.5.64-.18.44.43.5.5.02.03.26-.03.41.09.14.11.07.4.09.41.16.1.77-.03,1.01-.11,1.95-1.21,4.02-2.23,5.99-3.38Z"/>
  <path class="cls-24" d="M73.34,121.5c.05.07.61-.19.5.25-1.21.48-2.34,1.46-3.68,1.69-1.07.18-2.32.15-3.31-.19,2.42-.43,4.47.05,6.49-1.75Z"/>
  <path class="cls-15" d="M220.45,138.25s.1.33-.05.45c-.13.1-.53-.02-.64.09-.27.25-.29,1.61-.02,2.06,1.04,1.71,3.2.95,4.71.4.15.74-.37.43-.8.57-.47.15-.79.39-1.32.45-2.75.27-5.11-2.53-1.88-4.01Z"/>
  <path class="cls-20" d="M248.42,114.26c-.2,1.31-1.55,2.39-2.25,3.5-.39.62-.8,1.54-1.25,2.25l-2.01,1.86c-.23.14-.17.54-.24.64-.32.15-.72.18-1,.5.42-1.36.74-.93,1.18-1.31,1.91-1.65,3.5-5.44,5.57-7.44Z"/>
  <path class="cls-7" d="M95.32,98.26c1.77,1.18,3.27,2.62,4.92,3.81l1.58,2.43c-.44.08-.94.27-1.31.51-4.04,2.61-8.25,5.36-12.45,7.84-.24.14-.8.68-.97.15l14.23-8.75-.16-.52c-.95-1.02-2.17-1.84-3.15-2.72-.25-.22-.17-.63-.44-.87-.53-.48-2.18-.79-2.24-1.89Z"/>
  <path class="cls-15" d="M256.92,114.26c-.39-.04-.85.13-.17-.3.76-.49,2.24-1.25,3.11-1.4.31-.05.52-.04.82.06.94.31,2.08,3.08,2.74,3.9-.08-.03-.19.03-.25,0-.09-.05-.32.07-.51-.17-.61-1.32-1.36-2.55-2.4-3.56-1.22.21-2.33.81-3.34,1.48Z"/>
  <path class="cls-4" d="M21.14,100.51c-.95,1.17-2.58,2.42-3.75,3.69-.24.26-.33.78-.56.99-.57.51-1.23-.06-.93,1.57-.16-.06-.53.05-.75,0-.14-1.17,1.08-1.69,1.75-2.44.99-1.11,2-2.09,2.82-3.25l1.43-.56Z"/>
  <path class="cls-15" d="M73.34,156.24v.25c-1.29-.58-2.11-1.11-3.25-1.75,1.21,0,2.27,1.07,3.25,1.5Z"/>
  <path class="cls-7" d="M251.92,119.75l-.08.42c-.87.78-.9,1.28-1.92,1.83-.05.1.1.41-.06.68-.19.32-1.2.89-1.44,1.07-.78,1.28-1.05,1.38-2,2.25-.69-.33.14-.61.33-.8.68-.67,1.01-.95,1.67-1.45.45-.75.67-1.3,1.5-1.75.16-.31.18-.77.51-1.06l1.49-1.19Z"/>
  <path class="cls-7" d="M126.29,135.25l4,2h-.25c-1.39-.24-2.93-1.18-3.75-2Z"/>
  <path class="cls-15" d="M172.74,221.96c-.24-.02-.25.32-.25.5l-1.47,1.7c-.79,1.75.13,3.66,1.72,4.55-.75.2-.78-.44-1.09-.67-.18-.13-.51-.02-.67-.23-.72-.93-.63-3.42.01-4.41.1-.15.92-1.22,1.06-1.38.3-.35.66-.04.69-.05Z"/>
  <path class="cls-15" d="M123.04,139.25c1.43.1,3.01,1.5,4.39,1.73.81.14,1.83-.04,2.68,0,1.69-1.03,1.45-2.58-.07-3.74h.25c1.36.37,1.72,2.36.76,3.39-1.98,2.12-6-.26-8.01-1.39Z"/>
  <path class="cls-15" d="M149.27,39.04c.45.54.02.52-.32.81-1.94,1.6-6.9,3.35-9.42,4.19l2.82-1.55c2.53-.68,5.22-1.93,6.92-3.45Z"/>
  <path class="cls-21" d="M194.97,32.29c-.42.88-3.86,3.21-5.03,4.09-.26.2-1.16,1.19-1.47.66.18-.13.32-.37.5-.5.35-.25.17.36.5-.5.65-.07,1.02-.65,1.5-1s.46-.47.5-.5c.91-.68,2.27-1.19,3-2.25.16.02.34-.01.5,0Z"/>
  <path class="cls-7" d="M206.21,227.46c-2.38,1.59-4.08,2.19-6.99,2.5-.08,0-.17,0-.25,0,2.52-.57,4.86-1.54,7.24-2.5Z"/>
  <path class="cls-4" d="M71.09,119.25c-.43-.18-1.62-1.1-2-.88-.78.68-.84,1.39-1.25,2.2-.16.31-.97.75-.74,1.68-.11.16-.22.3-.25.5-.13.01-.34.21-.5.25-.6-.68.32-1.14.47-1.46.53-1.13.66-1.28,1.26-2.18.21-.32.18-.89.33-1.05.55-.56,2.59-.09,2.69.94Z"/>
  <path class="cls-15" d="M259.16,108.51l-5.25,1.5c1.52-.94,3.41-1.57,5.25-1.5Z"/>
  <path class="cls-1" d="M46.36,120.5c-.07.1.14.59-.49.51v.49c.6,0,.7.45.99.75l-1.48-.52.23-.98c.2-.06.17-.12.25-.25h.5Z"/>
  <path class="cls-15" d="M201.22,26.79c-.05.43-.68.43-.75.5-.06.07-.05.47-.36.75-.41.36-1.1.86-1.64,1,.75-.82,1.09-1.03,2-1.75.34-.27-.35-.06.75-.5Z"/>
  <path class="cls-15" d="M241.18,130.5c-.33.81-1.48,1.1-2,1.5-.05-.49,1.3-1.39,1.76-1.61.14-.07.23.11.24.11Z"/>
  <path class="cls-4" d="M58.85,116.01v.25c-.94.03-1.82.11-2.75.25.04-.11-.04-.34,0-.5.91-.04,1.84.05,2.75,0Z"/>
  <path class="cls-7" d="M242.93,158.49c-.16.42-.55.54-.91.72-2.44,1.22-4.98,2.28-7.34,3.53-.16.01-.34-.02-.5,0,2.6-1.36,5.2-2.73,7.82-4.06.33-.17.78-.11.92-.19Z"/>
  <path class="cls-21" d="M241.93,130.25c-1.73,1.83-3.41,3.03-5.74,4.25.16-.17.31-.36.5-.5.75-.57,1.69-1.33,2.25-1.75.11-.08.17-.19.25-.25.52-.4,1.66-.69,2-1.5.27-.05.52-.08.75-.25Z"/>
  <path class="cls-15" d="M238.93,132.25c-.56.42-1.5,1.18-2.25,1.75l-.2-.32,2.45-1.43Z"/>
  <path class="cls-7" d="M244.93,120c-.65,1.04-1.03,1.92-2.25,2.5-.55.78-.33.45-1,1,.03-.16-.04-.37,0-.5.28-.32.68-.35,1-.5.07-.1,0-.5.24-.64l2.01-1.86Z"/>
  <path class="cls-20" d="M124.79,52.78c-1.15,1.26-2.46,2.1-4,3.25v-.25c.22-.43.63-.71,1-1,.39-.31.47-.47.5-.5.24-.19.93-.47,1.34-.79s.38-.93,1.16-.7Z"/>
  <path class="cls-15" d="M155.76,30.04c.09.86-.73,1.03-1.01,1.43-1.17,1.7-2.21,3.86-3.49,5.56-1.38-.13.04-.64.11-.75,1.36-2.34,2.84-4.27,4.38-6.49v.25Z"/>
  <path class="cls-4" d="M84.08,92.01c1.12-.2,1.87.63,2.82,1.05.66.29,1.52.67,2.17.7.04.16-.03.35,0,.5,1.74.74,1.53.78,2.75,1.75-.8,0-1.09-.81-1.44-1-.16-.09-.45.05-.56,0-.22-.09-.42-.27-.7-.3-.14-.13-.03-.32-.05-.45-1.72-.73-3.41-1.29-5-2.25Z"/>
  <path class="cls-7" d="M126.04,135c-.65,0-1.24-.38-1.75-.75.82-.4,1.23.23,1.75.75Z"/>
  <path class="cls-15" d="M252.17,111.26c-.66,1.08-2.04,1.78-2.85,2.77-.5.6-1.16,1.57-1.38,2.31l-1.76,1.43c.7-1.11,2.05-2.18,2.25-3.5,1.07-1.04,2.46-2.1,3.75-3Z"/>
  <path class="cls-7" d="M255.17,115.51c-.65.85-1.35,1.45-2,2.25.06-1.4.48-.98.93-1.3.35-.25.02-1.25,1.07-.95Z"/>
  <path class="cls-7" d="M278.39,132.75c-.75,1.57-2.6,3.01-4,4.25l2.49-3.06,1.5-1.19Z"/>
  <path class="cls-7" d="M45.61,120.75l-.23.98,1.48.52c.24.26.44.55.75.75-.89-.46-1.89-.69-2.71-1.28l-.04-.96c.23-.05.57.06.75,0Z"/>
  <path class="cls-7" d="M175.49,201.97l-.5.25c-.25-.08-.82.17-1-.25.29,0,.77-.31,1.5,0Z"/>
  <path class="cls-15" d="M126.79,219.72s.08.3-.06.44c-.33.34-1.17.69-1.57,1.06l-.12-.24c.53-.42,1.14-1.06,1.75-1.25Z"/>
  <path class="cls-15" d="M106.06,107.76c-.65.44-1.37.77-2,1.25,0-.03-.32-.39.07-.69.65,0,1.54-1.16,1.93-.56Z"/>
  <path class="cls-15" d="M205.71,23.29c-.44.64-1.27,1.28-2,1.5.64-1,1.13-.97,2-1.5Z"/>
  <path class="cls-15" d="M194.47,32.29c-.72,1.06-2.09,1.57-3,2.25l2.31-2.07c.38-.43.51-.2.68-.18Z"/>
  <path class="cls-15" d="M125.04,52.28v.25c-.18.08-.17.16-.25.25-.78-.23-.73.38-1.16.7s-1.1.6-1.34.79l1.88-1.76c.22-.3.69-.16.87-.24Z"/>
  <path class="cls-7" d="M103.81,98.51l-1.96-1.04c-.11-.12-.02-.32-.04-.46.85.14,1.42.98,2,1.5Z"/>
  <path class="cls-15" d="M237.93,126.75c-.61.91-.39.43-.91.83-.32.25-.33.88-1.09.67.57-.62,1.23-1.15,2-1.5Z"/>
  <path class="cls-15" d="M165,17.79c-.18.2-.32.6-.5.75h-.5c-.19-.63.44-.61,1-.75Z"/>
  <path class="cls-15" d="M127.04,50.78c-.58.46-.97,1.44-1.75,1.25.54-.59.72-1.08,1.75-1.25Z"/>
  <path class="cls-7" d="M256.17,114.76c-.18.13-.26.59-.75.5.09-.13-.1-.6.63-.74l.12.24Z"/>
  <path class="cls-15" d="M25.13,97.26h.25c-1.25.8-2.38,2.06-3.75,2.75.86-.98,2.16-2.08,3.5-2.75Z"/>
  <path class="cls-7" d="M88.32,216.97c-1.2.09-.72-.45-.75-.5.48-.03.53.22.75.5Z"/>
  <path class="cls-15" d="M82.33,133l1.65.85,1.09,1.15c-1.01-.57-1.93-1.11-2.75-2Z"/>
  <path class="cls-15" d="M267.16,143.24c-.04.07.09.37-.03.47-.15.13-.56-.03-.72.03.12-.35.39-.5.75-.5Z"/>
  <path class="cls-15" d="M80.33,131.5c.16.06.57-.1.72.03.11.1-.02.4.03.47-.36,0-.63-.15-.75-.5Z"/>
  <path class="cls-15" d="M129.04,217.97c-.59.85-.35.42-.97.91-.34.27-.27.82-1.03.59.61-.59,1.2-1.17,2-1.5Z"/>
  <path class="cls-15" d="M197.22,30.04c-.57.62-1.23,1.15-2,1.5.41-.97.47-.52.97-.91.34-.27.27-.82,1.03-.59Z"/>
  <path class="cls-15" d="M81.33,132.25c.16.06.57-.1.72.03.11.1-.01.42.03.47-.36,0-.63-.15-.75-.5Z"/>
  <path class="cls-15" d="M79.33,130.75c.21.04.5-.08.73.03.11.1-.02.4.02.47-.36,0-.64-.14-.75-.5Z"/>
  <path class="cls-15" d="M190.98,35.04c-.48.35-.85.93-1.5,1,.04-.1-.1-.33.04-.46.17-.16.99,0,.98-.78l.48.23Z"/>
  <path class="cls-15" d="M198.22,29.29c-.12.35-.39.5-.75.5.04-.05-.09-.37.03-.47.15-.13.55.03.72-.03Z"/>
  <path class="cls-4" d="M76.33,116.76c-.17-.06-.58.1-.73-.03-.11-.1.02-.42-.02-.47.36,0,.63.15.75.5Z"/>
  <path class="cls-1" d="M47.61,119.75c-.31.33-.53.47-1,.5.14-.21.24-.41.5-.5.16.01.33,0,.5,0Z"/>
  <path class="cls-7" d="M47.11,119.75c-.26.09-.36.29-.5.5-.05.08-.18.15-.25.25h-.5c.04-.06-.08-.31.05-.44.18-.18.86-.34,1.2-.31Z"/>
  <path class="cls-15" d="M234.69,129.25c-.25.26-.73.94-1.2,1.24-.17.11-.47.12-.68.2l-.11-.19c.61-.44,1.29-1.02,2-1.25Z"/>
  <path class="cls-15" d="M165.25,17.79s.11-.18.32-.17c1.19.04.82.55.93.67l-1.25-.5Z"/>
  <path class="cls-15" d="M166.75,18.54h.75c.05.16-.04.39,0,.5-.47.02-.53-.21-.75-.5Z"/>
  <path class="cls-15" d="M269.15,141.75c-.04.11.05.34,0,.5-.23.06-.57-.06-.75,0,.12-.35.39-.5.75-.5Z"/>
  <path class="cls-15" d="M268.15,142.5c-.04.07.09.37-.03.47-.15.13-.56-.03-.72.03.12-.35.39-.5.75-.5Z"/>
  <path class="cls-15" d="M266.16,143.99c-.04.07.09.37-.03.47-.15.13-.56-.03-.72.03.12-.35.39-.5.75-.5Z"/>
  <path class="cls-15" d="M265.16,144.74c-.26.27-.72.92-1.21,1.23-.15.1-1.19.71-1.29.27.67-.49,1.74-1.09,2.5-1.5Z"/>
  <path class="cls-15" d="M202.22,26.04l-.75.5c.04-.07-.09-.37.03-.47.15-.13.56.03.72-.03Z"/>
  <path class="cls-15" d="M235.68,128.5c-.04.05.09.37-.03.47-.15.13-.56-.03-.72.03.12-.35.39-.5.75-.5Z"/>
  <path class="cls-15" d="M203.47,25.04c-.12.35-.39.5-.75.5.04-.07-.08-.38.02-.47.15-.13.56.03.73-.03Z"/>
  <path class="cls-15" d="M121.79,54.78c-.37.29-.78.57-1,1h-.5c-.21-.83.96-.23,1.02-1.23l.48.23Z"/>
  <path class="cls-15" d="M220.95,137.75h.5s0,.25,0,.25h-.75c.07-.08.16-.19.25-.25Z"/>
  <path class="cls-15" d="M174.99,220.22c-.08.08-.16.17-.25.25h-.5s0-.25,0-.25h.75Z"/>
  <path class="cls-11" d="M71.84,119.5c-.09-.07-.17-.17-.25-.25.11.02.21.14.25.25Z"/>
  <path class="cls-4" d="M60.1,124.75l.25-.25s.05.29-.25.25Z"/>
  <path class="cls-2" d="M145.27,103.26c.26-.15,1.52-.48,1.84-.48,2,.02,5.51,1.6,7.64,2.11,4.1.98,9.13,1.43,13.34,1.08,5.66-.47,14.65-4.9,19.64-1.22.47.34.63.61,1,1l.75,2.63c.2,2.25-.27,5.11-1.44,7.06-.39.65-.98.71-1.31,1.81-.89.86-2.23,1.88-3.4,2.6l-1.09,1.15c-1.08.62-2.07,1.09-3.25,1.5-2.04.72-5.4,1.71-7.49,2-4.15.57-10.47-.05-14.43-1.43-1.18-.41-2.44-1.37-3.55-1.57-.88-.16-2.5-1.1-3.43-1.69s-2.55-2.16-3.31-3.06c1.37-.14,0-.6-.11-.75-1.1-1.52-2.43-4.05-2.6-5.9-.12-1.23-.17-4.63.27-5.67.15-.35.52-.34.63-.49.12-.16.05-.41.07-.43.08-.07.1-.16.25-.25ZM173.49,110.51c-4.56.3-9.63,1.81-13.61,3.75l-2.13,1.5c-.07.02-.17-.02-.25,0-.92.26-1.27.5-1.75,1.25-.08.13-.05.19-.25.25-.18.06-.52-.05-.75,0l.04.96c1.28.48,2.52,1.09,3.81,1.55.35.13.84.54,1.14-.01.09.03.17.22.25.25,5.26,1.8,14,1.73,18.73-1.5.26-.18.87-.71,1.25-1,.3.41,1.54-.44,1.74-.64,1.04-1.04,1.88-2.2,2.53-3.66.08-.19.42-.19.47-.37.3-1.06-.35-.75-.81-1.07-.61-.42.08-.34-1.18-.5-2.61-1.04-6.41-.93-9.24-.75Z"/>
  <path class="cls-18" d="M227.05,102.16c.14.18.39.13.53.58,3.3,10.3-11.28,12.22-18.13,9.9-1.19-.41-3.69-1.74-4.54-2.63-1.68-1.74-2.21-4.97-1.1-7.16,3.33-6.61,18.53-6.68,23.24-.69Z"/>
  <path class="cls-23" d="M196.47,85.02c1.71.04,3.09-.09,4.8.32,1.51.37,2.71,1.33,4.19,1.68.07.07.18.19.25.25.54.5,1.33,1.21,2,1.75.32.46,1.5,2.03,1.69,2.42.44.9.27,2.34.31,3.33-.5,1.03-3.91,1.18-4.38.51-.15-.21-.03-.67-.19-.93-.09-.14-.72-.6-.92-.83-.96-1.12-1.98-2.23-3.25-3-3.62-2.18-7.36-.7-10.49,1.5-1.81.73-2.66,1.5-4.75.5-.88-1.17-.58-2.03.24-3.13.25-.34.38-.28.76-.87.08-.12.06-.18.25-.25,1.57-.56,3.39-1.97,5.49-2.62.63-.19,2.3.02,2.25-.87.08,0,.17,0,.25,0,.18,0,.91.24,1.5.25Z"/>
  <path class="cls-2" d="M140.52,80.77c.76.39.85.84,1.75,1.25-.03.65.42.82,1,.75.09.08.17.16.25.25,1.08,1.68,2.16,3.01,1.71,5.21-1.02.44-2.44.83-3.53.49-.6-.18-1.43-2.15-2.42-1.95-.46-.5-.41-.49-1-1-.37-.32-.55-.49-1-.75-.03-.02-.06-.27-.26-.36-1.76-.82-4.74-.51-5.99,1.11-.27.16-.67.25-.89.49-.51.54-.26,1.12-1.36,1.51-2.26-.58-4.04.33-3.72-2.85.05-.51.47-1.33.72-1.65.66-.84,2.04-1.82,3-2.25,1.78-.79,3.71-1,5.62-1.27l6.12,1.02Z"/>
  <path class="cls-17" d="M245.93,103.26s.1.35-.18.49c-2.2,1.16-5.46,1.04-7.53-.4-1.13-.78-1.16-1.54-1.55-2.65-.08-.21-.43-.2-.47-.37-.12-.52-.11-3.35-.03-3.96.11-.86,1.23-3.42,1.5-4.3.61-2.01,1.11-4.89,2.4-6.54.9-1.15,2.82-.96,3.62.17.29.4.3.99.51,1.37,1.24,2.23,4,7.34,4.22,9.82.09,1.04.12,4.22-.48,4.97-.18.23-.56.08-.7.21-.17.16-.06.61-.47.93-.25.2-.72.17-.86.26.69-.41,1.31-2.16,1.99-2.68-.08-.78.17-1.94,0-2.65-.02-.08-1.01-.48-.42-1.37.04-.06.77-.03.41-.54-.02-.03-.36.07-.47-.19-.45-.98-.67-2.85-1.25-3.91-.15-.29-.62-.08-.72-.18-.12-.12-.53-2.61-.81-3.28-.04-.1-.86-1.56-.99-1.76-.08-.13-1.56-1.4-1.67-1.42-1.8-.39-1.9,1.78-2.34,2.8-1.64,3.83-3.11,7.3-2.72,11.81.35,4.11,5.84,5.22,8.99,3.38Z"/>
  <path class="cls-20" d="M118.05,150.49l1.62-.25c.64.03,2.05.62,2.39,1.11.24.35.14.73.31,1.07.05.11.37.05.4.09.36.5-.36.43-.47.67-.65,1.42-1.38,3.34-1.99,4.76-4.07,9.58-6.21,19.86-9.79,29.59-1.81,4.94-4.34,9.98-6.72,14.69h-.25c1.66-3.64,3.52-7.3,4.97-10.94,4.52-11.36,7.05-23.29,11.78-34.59.25-.6,1.4-2.37,1.57-2.97.69-2.51-1.64-3.61-3.84-3.22Z"/>
  <path class="cls-17" d="M235.93,75.52c-2.5.95-5.14.72-7.11-1.27-1.2-1.21-1.03-2.41-1.4-3.8-.05-.2-.44-.17-.48-.35-.36-1.46.45-1.6.49-1.75.74-3.24.67-3.73,1.98-6.77.77-1.81,1.48-5.46,4.12-5.04,1.16.18,1.18.66,1.64,1.3.83,1.13.55,1.33,1.02,2.49.44,1.09,1.31,2.66,1.75,3.8.53,1.37,1.43,3.61,1.72,4.82.08.36.08,2.04,0,2.4-.04.18-.41.17-.47.37-.69,2.22-.94,2.92-3.27,3.8.02-.01-.07-.34.06-.44.22-.17.7.03.9-.1.16-.1.12-.6.28-.78,1.69-1.92,1.87-1.94,1.78-4.82-.05-1.55-.49-1.77-.8-2.7s-.14-2.65-1.17-2.43c-.06-.63-.03-1.27-.24-1.89-.12-.34-.45-.37-.52-.54-.43-1.13-.81-2.57-1.32-3.64s-1.99-1.22-3.03-.93l-1.89,3.71c-.57,2.47-2.22,5.43-2.28,7.91-.02.79,0,1.77.24,2.52.2.64,1.08,2.01,1.52,2.55.15.19.12.59.31.76.12.1,2.04.75,2.33.79.47.07,3.69.13,3.85.02Z"/>
  <path class="cls-20" d="M81.58,159.24c.21-.46.81-.11,1.15-.03,9.26,2.17,16.98,3.49,26.63,2.95.42-.02.8-.54.7.33-8.72.93-20.11-.66-28.47-3.25Z"/>
  <path class="cls-20" d="M144.27,103.76c.49-.97,1.71-1.64,2.83-1.66,2.8-.03,8.66,2.41,12.07,2.87,2.46.34,5.49.45,7.97.29,6.16-.38,13.38-4.24,19.23-2.02,3.62,1.37,4.41,4.24,4.11,7.88-.17,2.07-2.09,5.87-3.74,6.63.03-.16-.04-.37,0-.5,1.71-1.67,2.04-2.38,2.76-4.56.07-.21.41-.16.47-.37.15-.5.28-2.1.28-2.69,0-1.88-.28-2.58-1.51-3.87-.37-.39-.53-.66-1-1,.11-.52-.27-.56-.61-.75-5.35-2.86-12.51.75-18.02,1.47-4.39.57-9.06.1-13.38-.8-2.57-.53-7.14-2.5-9.41-2.01-.41.09-.89.12-1.03.59-.15.09-.17.18-.25.25l-.75.25Z"/>
  <path class="cls-20" d="M260.41,81.77c.85,3.06.63,6.19,1.25,8.82.05.2.45.07.51.53.11.86.11,3.67,0,4.53-.06.46-.47.33-.51.53-.24,1-.06,3.22-.26,4.58-.68-1.24-.04-2.86.01-4.11.08-2.04.1-4.49,0-6.52-.13-2.58-.85-4.52-1.19-7.06-.05-.4-.28-1.04.18-1.3Z"/>
  <path class="cls-20" d="M114.8,138.75c.14.63-.32.53-.74.62-7.13,1.67-17.17,1.05-24.05-1.43-1.16-.42-2.45-.94-3.43-1.69,7.82,3.44,16.11,4.27,24.57,3.22,1.22-.15,2.45-.5,3.65-.72Z"/>
  <path class="cls-20" d="M182.98,120.75c.44.12-.43.7-.47.72-5.85,3.42-12.43,4.22-19.11,3.75-.3-.02-1.88-.06-1.66-.72.56.09,1.93.5,2.37.5h5.49c.21,0,1.45-.2,1.87-.25,2.37-.29,5.52-.89,7.49-2.25,1.18-.41,2.17-.88,3.25-1.5.17-.09.5-.09.75-.25Z"/>
  <path class="cls-20" d="M185.98,88.77c.09.59-.56.61-.74.94-.35.65-.39,2.15,0,2.8.06.11.16.17.25.25.04.04.18-.04.25,0,1.31.74,2.91.67,4.24-.14.31-.19.41-.54.51-.61,1.86-.75,4.12-2.1,6.16-2.23,1.5-.09,2.9.48,4.33.73,1.27.77,2.29,1.88,3.25,3l.5,1.75c-1.06-.67-1.49-2.23-2.48-3.13-2.01-1.83-4.34-2.29-7.02-1.76-3.3.66-6.22,4.66-9.78,2.88-.07-.04-1.18-1.08-1.2-1.16-.07-.27-.06-1.63,0-1.9.05-.21.51-.3.73-.58.58-.77-.16-.68,1.03-.85Z"/>
  <path class="cls-7" d="M145.02,103.51s.05.26-.07.43c-.11.15-.48.14-.63.49-.45,1.04-.39,4.44-.27,5.67.18,1.85,1.5,4.38,2.6,5.9.11.15,1.49.62.11.75-1.43-1.7-2.05-3.02-2.77-5.05-.06-.17-.4-.17-.46-.38-.72-2.48-.32-5.44.73-7.56l.75-.25Z"/>
  <path class="cls-15" d="M153.51,121.5c1.1.21,2.36,1.16,3.55,1.57,3.96,1.38,10.29,1.99,14.43,1.43v.25c-.42.05-1.66.25-1.87.25h-5.49c-.45,0-1.81-.41-2.37-.5-2.21-.36-4.29-.82-6.33-1.78l-1.91-1.22Z"/>
  <path class="cls-7" d="M205.46,87.02c-1.49-.34-2.68-1.31-4.19-1.68-1.7-.42-3.09-.28-4.8-.32v-.5c2.69-.2,7.08.45,8.99,2.5Z"/>
  <path class="cls-21" d="M75.09,128.75c-1.14.45-2.63-.38-3.88-.5-4.19-.38-5.8.84-9.36,1.75.16-.45.46-.58.86-.76,3.51-1.63,8.72-1.63,12.38-.49Z"/>
  <rect class="cls-21" x="176.99" y="203.47" width=".25" height="14.99"/>
  <path class="cls-20" d="M140.27,80.52c-3.12-1.32-8.67-1.65-11.49.5-.95.43-2.34,1.41-3,2.25-1.04.06-.78.99-1.02,1.55-.09.21-.42.2-.47.37-.15.57.41,1.53.74,2.07-1.39.37-1.11-2.56-.83-3.19.13-.3.49-.34.67-.58,3.28-4.36,9.36-5.25,14.4-3.6.39.13.83.15.99.63Z"/>
  <path class="cls-20" d="M172.49,222.46c-.03,1.04-.31.56-.5.93-.74,1.5-.93,3.82.68,4.82.52.32,1.68.2,1.57,1-.08-.01-1.43-.46-1.5-.5-1.6-.89-2.52-2.8-1.72-4.55l1.47-1.7Z"/>
  <path class="cls-20" d="M232.69,163.24c-.32.6-1.34.8-1.67,1.08-.07.06-1.03,1.29-1.06,1.37-.66,1.6.02,4.34-1.27,5.8.11-1.13.03-3.07.26-4.08.04-.18.42-.14.48-.36.17-.59.15-1.53.53-2.11.48-.75,1.92-1.39,2.74-1.7Z"/>
  <path class="cls-15" d="M194.72,84.77c.05.89-1.62.68-2.25.87-2.11.65-3.92,2.06-5.49,2.62,1.62-1.72,5.4-3.5,7.74-3.5Z"/>
  <path class="cls-20" d="M137.28,85.02c.44.26.63.43,1,.75.06.85-.14.39-.56.19-2.11-1.02-3.6-1.48-5.86-.24-1.11.61-2.14,2.25-3.26,2.48s-2.07,0-3.13-.18c-.32-.05-.12-.43-.17-.5,1.38.24,2.05.77,3.5.25,1.1-.39.86-.98,1.36-1.51.22-.23.61-.33.89-.49,2.1-1.2,3.91-1.4,6.24-.75Z"/>
  <path class="cls-20" d="M173.99,27.04l3,4.25c.33,1.07.48.75.83,1.3.84,1.35,1.83,2.72,2.41,4.19-.03,0-.06.27-.21.23-.7-.6-.77-1.47-1.22-2.17-1.43-2.27-3.15-4.25-4.49-6.39-.08-.13-.64-1.29-.33-1.42Z"/>
  <path class="cls-7" d="M125.79,83.27c-.25.32-.67,1.14-.72,1.65-.32,3.18,1.46,2.27,3.72,2.85-1.44.52-2.12,0-3.5-.25-.06-.1-.2-.17-.25-.25-.33-.54-.89-1.51-.74-2.07.05-.18.38-.16.47-.37.24-.56-.02-1.5,1.02-1.55Z"/>
  <path class="cls-7" d="M207.71,89.02s.29,0,.49.13c.41.28,1.83,2.41,1.99,2.81.29.69.38,2.21.01,2.87-.15.27-.47.15-.49.18v-.25c-.04-.99.13-2.43-.31-3.33-.19-.39-1.37-1.96-1.69-2.42-.67-.54-1.46-1.25-2-1.75.46.12,1.35.68,1.63,1,.33.36.28.62.37.75Z"/>
  <path class="cls-7" d="M143.52,83.02c.18.19,1.27,1.03,1.5,1.44,1.15,2,1.23,4.71-1.63,4.83-2.26.1-2.81-1.07-4.12-2.52.99-.2,1.82,1.77,2.42,1.95,1.1.34,2.52-.06,3.53-.49.45-2.2-.62-3.53-1.71-5.21Z"/>
  <path class="cls-15" d="M204.21,93.51c.19.23.83.68.92.83.16.25.04.71.19.93.48.67,3.88.52,4.38-.51v.25s.07.37-.17.51c-1.4.83-3.5.58-4.83-.26l-.5-1.75Z"/>
  <path class="cls-7" d="M143.27,82.77c-.58.07-1.03-.1-1-.75,1.16.53.5.28,1,.75Z"/>
  <path class="cls-21" d="M103.81,202.22c-.99,1.97-.45,2.06-2.25,3.75.82-1.17,1.4-2.44,2-3.75h.25Z"/>
  <path class="cls-15" d="M186.73,117.26c-.04.13.03.34,0,.5-1.11.5-2.59,2.27-3.75,3-.25.16-.58.15-.75.25l1.09-1.15c1.17-.72,2.51-1.73,3.4-2.6Z"/>
  <path class="cls-15" d="M196.47,84.52v.5c-.59-.01-1.32-.25-1.5-.25.52.1,1.04-.22,1.5-.25Z"/>
  <path class="cls-15" d="M186.73,88.52c-.38.59-.51.53-.76.87-.82,1.11-1.12,1.96-.24,3.13v.25c-.07-.04-.2.04-.25,0l-.25-.25c-.38-.65-.34-2.16,0-2.8.18-.33.84-.35.74-.94.19-.03.49-.26.75-.25Z"/>
  <path class="cls-15" d="M140.27,80.52c.08.03.16.2.25.25l-6.12-1.02c-1.91.27-3.84.48-5.62,1.27,2.82-2.15,8.37-1.82,11.49-.5Z"/>
  <path class="cls-21" d="M187.98,37.54c-.07.52.19.57-.62.5l-.13-.25c.24-.13.48-.22.75-.25Z"/>
  <path class="cls-20" d="M174.74,229.21s.19-.4.47-.22c.11.11,0,.43.03.47l-.5-.25Z"/>
  <path class="cls-3" d="M67.84,112.51c.5-.89,1.43-1.63,1.99-2.43,3.19-4.55,6.37-10.26,9.74-14.38,2.09-2.55,5.81-1.63,4.58,1.51-.11.28-1.39,1.45-1.58,1.74-2.9,4.26-5.76,8.53-8.74,12.63-.57.78-1.53,1.54-1.99,2.43-1.09-.45-2.91-1.23-4-1.5Z"/>
  <path class="cls-3" d="M46.36,114.51c-.91-.6-1.76-1.4-2.5-2.19-2.97-3.16-9.99-10.66-11.75-14.12-.12-.24-.46-.17-.48-.19-.35-.47.35-.5.39-.57.3-.49.12-.75.77-1.11,1.78-.99,3.42,1.19,4.57,2.39,3.88,4.04,8.38,9.17,11.73,13.63.12.16.31.2.5.18l-.5.75c-1.55.47-1.5.59-2.75,1.25Z"/>
  <path class="cls-19" d="M58.6,90.02c.91.69,1.15,1.22,1.24,2.38.4,4.76-.32,10.74.23,15.26.06.49.55.26.54.73.06.8-.46.57-.52.8-.14.59.08,1.44,0,2.08-.75.07-1.72.02-2.5,0-.48-.24-.48-.35-.52-.85-.42-5.09-.07-10.61-.48-15.78-.06-.77.12-.64-.75-.61,0-.17,0-.33,0-.5.01-.32.19-2.04.26-2.32.03-.13.68-.34.52-.89.5.15,1.26-.28,1.47-.29.16,0,.34,0,.5,0Z"/>
  <path class="cls-3" d="M59.85,90.52c.54,1.42-.26,3.09.77,4.11l.23,16.39c-.3.33-.38.21-.75.25.08-.64-.13-1.49,0-2.08.05-.23.57,0,.52-.8,0-.47-.48-.24-.54-.73-.56-4.51.17-10.49-.23-15.26-.1-1.16-.34-1.69-1.24-2.38.6.03.84.34,1.25.5Z"/>
  <path class="cls-3" d="M55.85,94.01c.87-.03.69-.15.75.61.41,5.17.06,10.69.48,15.78.04.5.04.61.52.85-.25,0-.5.01-.75,0-.23-2.53-.16-5.08-.25-7.62-.02-.72.05-2.07.01-2.47-.02-.18-.47-.03-.53-.51-.2-1.5-.24-4.99-.23-6.64Z"/>
  <path class="cls-5" d="M59.85,90.52c.15.06.5-.1.71.03.58,5.23.46,10.57.53,15.85.01,1.15.7,3.59-.24,4.61l-.23-16.39c-1.03-1.01-.23-2.69-.77-4.11Z"/>
  <path class="cls-3" d="M58.1,90.02c-.21.01-.97.45-1.47.29.16.55-.49.75-.52.89-.06.28-.25,2-.26,2.32l.12-3c.15-.24,1.81-1.05,2.13-.5Z"/>
  <path class="cls-1" d="M47.49,122.25c.16.08.16.17,0,.25v-.25Z"/>
  <path class="cls-16" d="M247.17,54.78c-.3-.25-.3-.5,0-.75,0,.25,0,.5,0,.75Z"/>
  <path class="cls-11" d="M58.85,122.75c-.19-1.49-.71-2.64-1.27-4.05-.14-.34-1.07-1.01-.73-1.95,2.12-.17,4.12-.18,6.24,0,.21.68-.65,1.24-.72,1.45-.61,1.76-.89,3.64-1.78,5.36-.02.04-.59.65-.74.68.14-1.19-.78-1.22-1-1.5Z"/>
  <path class="cls-11" d="M67.09,122.25c.62-.86,1.11-1.64,1.76-2.43.18-.21.08-.75.4-.83,1.01-.27.97.31,1.29.48.57.3,2.53,1.14,2.3,1.89-1.94,1.66-3.82,1.17-6,1.39.03-.2.14-.34.25-.5Z"/>
  <path class="cls-16" d="M247.17,33.79c.05-.1.14-.22.25-.25-.05.11-.14.22-.25.25Z"/>
  <path class="cls-14" d="M182.48,111.26l1.75.75c-.39,2.4-2.39,4.08-4.25,5.5-.37.29-.99.82-1.25,1-1.53.18-2.93,1.09-4.38,1.49-4.74,1.29-9.58.79-14.35.01-.08-.03-.16-.22-.25-.25-1.27-.46-2.93-.82-4.06-1.56-.53-.34-.54-.42-.18-.94.2-.06.17-.12.25-.25.65-.15,1.32-.72,1.75-1.25.08-.02.18.02.25,0,1.16-.4,2.74-1.56,4.03-2.09,3-1.25,8.48-2.64,11.71-2.9,2.97-.25,6.06.11,8.99.5Z"/>
  <path class="cls-7" d="M145.27,103.26c.15-.47.63-.5,1.03-.59,2.27-.49,6.84,1.48,9.41,2.01,4.32.89,8.99,1.37,13.38.8,5.52-.72,12.68-4.33,18.02-1.47.34.18.72.23.61.75-4.98-3.68-13.98.74-19.64,1.22-4.21.35-9.23-.1-13.34-1.08-2.13-.51-5.64-2.09-7.64-2.11-.33,0-1.59.33-1.84.48Z"/>
  <path class="cls-4" d="M178.74,118.5c-4.73,3.23-13.47,3.3-18.73,1.5,4.77.77,9.61,1.27,14.35-.01,1.46-.4,2.86-1.31,4.38-1.49Z"/>
  <path class="cls-7" d="M188.73,105.76c1.24,1.3,1.52,1.99,1.51,3.87,0,.59-.13,2.19-.28,2.69-.06.21-.4.15-.47.37-.72,2.19-1.05,2.89-2.76,4.56.33-1.1.92-1.16,1.31-1.81,1.17-1.95,1.64-4.81,1.44-7.06l-.75-2.63Z"/>
  <path class="cls-4" d="M173.49,110.51v.25c-3.23.27-8.7,1.66-11.71,2.9-1.28.53-2.86,1.69-4.03,2.09l2.13-1.5c3.98-1.95,9.05-3.46,13.61-3.75Z"/>
  <path class="cls-15" d="M182.73,111.26c-.08-.01-.17.01-.25,0-2.94-.39-6.02-.75-8.99-.5v-.25c2.83-.18,6.63-.29,9.24.75Z"/>
  <path class="cls-7" d="M178.99,122.5c-1.97,1.35-5.12,1.96-7.49,2.25v-.25c2.09-.29,5.45-1.28,7.49-2Z"/>
  <path class="cls-4" d="M182.73,111.26c1.26.16.57.08,1.18.5.47.33,1.11.01.81,1.07-.05.18-.39.19-.47.37-.65,1.46-1.49,2.62-2.53,3.66-.2.2-1.45,1.05-1.74.64,1.85-1.42,3.85-3.09,4.25-5.5l-1.75-.75c.08.01.17-.01.25,0Z"/>
  <path class="cls-7" d="M155.51,117.26c-.36.52-.35.6.18.94,1.14.73,2.79,1.1,4.06,1.56-.3.55-.79.14-1.14.01-1.29-.46-2.53-1.08-3.81-1.55l-.04-.96c.23-.05.57.06.75,0Z"/>
  <path class="cls-7" d="M157.51,115.76c-.43.53-1.1,1.1-1.75,1.25.48-.75.83-.99,1.75-1.25Z"/>
  <path class="cls-15" d="M200.97,90.52c-1.44-.25-2.84-.82-4.33-.73-2.04.12-4.3,1.47-6.16,2.23,3.13-2.2,6.87-3.68,10.49-1.5Z"/>
  <path class="cls-7" d="M185.73,92.76v-.25c2.08,1,2.93.23,4.75-.5-.1.07-.2.42-.51.61-1.33.81-2.93.88-4.24.14Z"/>
  <path class="cls-4" d="M137.28,85.02c-2.33-.65-4.15-.45-6.24.75,1.25-1.62,4.23-1.93,5.99-1.11.2.09.22.34.26.36Z"/>
  <path class="cls-12" d="M245.93,103.26c-3.15,1.84-8.64.73-8.99-3.38-.38-4.51,1.09-7.98,2.72-11.81.44-1.02.54-3.19,2.34-2.8.11.02,1.59,1.3,1.67,1.42.12.2.95,1.66.99,1.76.28.67.69,3.16.81,3.28.1.1.57-.1.72.18.58,1.06.8,2.93,1.25,3.91.12.26.46.17.47.19.35.51-.38.49-.41.54-.58.88.4,1.29.42,1.37.17.71-.09,1.87,0,2.65-.68.51-1.3,2.27-1.99,2.68Z"/>
  <path class="cls-12" d="M235.93,75.52c-.16.11-3.38.04-3.85-.02-.29-.04-2.21-.69-2.33-.79-.19-.16-.15-.57-.31-.76-.44-.54-1.32-1.91-1.52-2.55-.24-.75-.26-1.73-.24-2.52.06-2.48,1.71-5.44,2.28-7.91l1.89-3.71c1.05-.29,2.53-.12,3.03.93s.89,2.51,1.32,3.64c.07.17.4.2.52.54.22.61.18,1.25.24,1.89,1.03-.23.87,1.51,1.17,2.43s.75,1.16.8,2.7c.1,2.87-.09,2.89-1.78,4.82-.16.18-.12.68-.28.78-.2.13-.68-.07-.9.1-.13.1-.04.42-.06.44Z"/>
  <path class="cls-7" d="M185.48,92.76c-.09-.08-.19-.14-.25-.25l.25.25Z"/>
  <path class="cls-26" d="M78.08,252.45c-.42,0-.83,0-1.25,0,.16-.39,1.08-.39,1.25,0Z"/>
</svg>