<?xml version="1.0" encoding="UTF-8"?>
<svg id="_레이어_1" data-name="레이어 1" xmlns="http://www.w3.org/2000/svg" viewBox="0 0 49.63 40.82">
  <defs>
    <style>
      .cls-1 {
        fill: #fae5b5;
      }

      .cls-2 {
        fill: #cca25f;
      }

      .cls-3 {
        fill: #e6a231;
      }

      .cls-4 {
        fill: #e95912;
      }

      .cls-5 {
        fill: #eda419;
      }

      .cls-6 {
        fill: #2c1409;
      }

      .cls-7 {
        fill: #d6b271;
      }

      .cls-8 {
        fill: #f5a51f;
      }

      .cls-9 {
        fill: #519ac6;
      }

      .cls-10 {
        fill: #331b0c;
      }

      .cls-11 {
        fill: #fff;
      }

      .cls-12 {
        fill: #180c06;
      }

      .cls-13 {
        fill: #a75023;
      }

      .cls-14 {
        fill: #c98327;
      }

      .cls-15 {
        fill: #f5edd0;
      }

      .cls-16 {
        fill: #492e18;
      }

      .cls-17 {
        fill: #eaa119;
      }

      .cls-18 {
        fill: #498fb8;
      }

      .cls-19 {
        fill: #442914;
      }

      .cls-20 {
        fill: #d8b576;
      }

      .cls-21 {
        fill: #f49d1b;
      }

      .cls-22 {
        fill: #efac1a;
      }

      .cls-23 {
        fill: #3b8cc3;
      }

      .cls-24 {
        fill: #532f15;
      }

      .cls-25 {
        fill: #f0841b;
      }

      .cls-26 {
        fill: #211007;
      }
    </style>
  </defs>
  <path class="cls-24" d="M26.68,2.7c.45-.36.84-.54,1.42-.36,1.02.32,2.21,2.35,2.74,3.23.08.14.3.25.4.07.01-.02-.02-.04-.02-.04.3-.41,1.29-1.12,1.73-1.49.67-.56,1.4-1.34,2.21-1.71.13.1.33-.06.46-.08.27-.04.67.02.93.13.07.14.24.23.3.33.26.47.18.86.31,1.32.07.27.15.68.26.93l.13,1.23.13-.09s-.02.12.02.13c.34-.21.74-.3,1.1-.43.07.07.13.02.19,0,.84-.24,2.57-1.16,3.39-.79.07.03.24.21.34.24.04.14.1.3.1.44,0,.25-.04,1.06-.09,1.29-.11.48-.08,1.18-.22,1.64-.01.04-.08.01-.09.09-.05.36-.02.81-.04,1.17.62.77,1.17,1.53,1.6,2.41.38.77.66,1.61.82,2.48.02.13.09.31.09.34.1.79,0,1.8-.15,2.55-.07.34-.16.67-.25,1.01.04.17.47-.07.59-.1s.43-.05.55-.06c.38,0,.73.11,1.11.09.58.16.87.33,1.3.74-.1.03.01.12.04.16.21.26.39.56.43.91.18,1.64-.86,2.81-1.95,3.87-.02.02-.11.12-.03.13-1.76,1.64-3.65,2.82-5.77,3.95-.34.18-.76.33-1.08.52-.08.05-.07.12-.07.12-.02.01-.12-.03-.13.02l-.08.9c-.18.78-.46,1.59-.56,2.41,0,.01,0,.03,0,.04-.19.19-.15.42-.22.66-.08.25-.21.6-.3.85-.33.99-.68,1.96-1.09,2.92-.08.19-.12.2-.17.47,0,.01,0,.03,0,.04-.2.03-.14.21-.2.34-.03.06-.09.05-.11.11-.03.07-.14.35-.07.42-.99,1.97-2.17,2.45-4.39,2.56-1.07.05-3.58,0-4.37-.78-.05-.05-.36-.52-.37-.55-.07-.29.03-.78.16-1.04.11-.23.42-.51.62-.68.07-.06.16-.14.26-.16v-1.86c-1.08.04-2.15-.18-3.22-.25-.11.13-.24.24-.36.35-.69.68-1.37,1.4-2.11,2.05s-1.97,1.78-2.89,2.01c-.15-.1-.37.03-.54.04-1.3.1-2.57-.4-3.73-.9-.06-.02-.15-.09-.19,0-.49-.23-.94-.49-1.39-.78.09-.02-.05-.12-.07-.13-.46-.31-1.11-.84-1.18-1.42-.04-.29,0-.58.06-.87l.49-.62s.06-.1.13-.15c.56-.32,1.38-.36,2-.28.2.03.44.13.63.12.03,0,.05,0,.07-.01.15-.13.14-.33.22-.49.85-1.75,1.2-3.22,1.79-5.04.01-.04.13-.04.08-.22-.01-.05-.08-.02-.09-.03,0,0,.01-.06,0-.08-.06-.05-1.28,0-1.49,0-2.39-.1-4.75-.75-6.64-2.21.09-.03-.05-.11-.07-.12-.57-.38-1.16-1.24-1.41-1.88-.17-.44-.15-1.39,0-1.84.02-.07.09-.07.09-.08.04-.14-.08-.1-.09-.11,0-.01,0-.09-.02-.13-1.63-.87-3.27-1.74-4.91-2.6l.03-.04c-.63-.44-1.52-.7-2.14-1.11-.22-.14-.32-.25-.25-.54.02-.08.09-.08.11-.11.31-.58.95-1.07,1.44-1.51.01,0,.29-.05.03-.1.52-.4,1.08-.85,1.69-1.08,2.67-1.03,4.23-1.44,7.11-1.07.47.06.93.17,1.39.29.06.02.15.08.2,0,.47.15.94.31,1.39.52-.03.15.02.1.09.15.23.13.51.25.75.38.16.09.19.24.46.17l.08-1.24c.19-.61.32-1.24.57-1.85.12-.29.26-.48.3-.77.03-.21.14-.29.22-.42,1.23-2.08,3.07-3.51,5.23-4.59.46-.23,1.23-.48,1.61-.73.1-.06.07-.19.22-.19,0,0,.01.04.04.04.61-.93,1.22-1.85,1.83-2.78.16-.25.34-.47.48-.72,0-.01,0-.03,0-.04h.04ZM36.86,7.03l-.79-3.93c-.05-.03-.13-.1-.19-.1-.11,0-.78.47-.91.56l-.37.39s-.07.08-.13.13l-.06-.04c-.03.13-.16.12-.19.14-.03.02,0,.07,0,.08-.03.03-.03.07-.09.09-.03.01-.1-.02-.13,0-.02.02,0,.07,0,.08s-.03.04-.04.04c-.03.01-.1-.02-.13,0-.02.02,0,.07,0,.08-.04.05-.06.06-.09.09-.13-.03-.14.02-.17.13-.13.1-.29.14-.35.3,0,.02.01.06,0,.08-.01.01-.06.01-.08,0,0,0,0-.07-.09-.04,0,.03,0,.07,0,.09-.07.16-.06.08-.13.13l-.02-.04h-.06c0,.07-.07.12-.09.17,0,.02,0,.06,0,.09-.03.01-.09.02-.13.04-.04.02-.2,0-.17.13-.01,0-.03.04-.04.04-.03.01-.11-.01-.13,0-.01.01,0,.07,0,.09-.02.06-.01.14-.13.13,0,0,0-.07-.09-.04,0,.03,0,.07,0,.09,0,.02,0,.06-.02.09-.02.03-.08.05-.11.04,0,0,0-.07-.09-.04,0,.03,0,.07,0,.09,0,.01-.03.04-.04.04-.03.01-.1-.02-.13,0-.02.02,0,.07,0,.08-.03.04-.03.07-.09.09-.03.01-.09,0-.13,0l.09.04v.04s-.06.01-.09.04c-.01,0-.03,0-.04,0-.18,0-.14.02-.31.06s-.47.02-.62-.07c-.1-.06-.05-.25-.24-.21,0-.01,0-.03,0-.04-.08-.21-.12-.22-.22-.39-.24-.45-.5-.87-.8-1.3-.05-.07-.02-.11-.15-.08,0-.01,0-.03,0-.04-.05-.13.02-.25-.22-.26,0-.01,0-.03,0-.04-.11-.28-.57-.72-.82-.91-.06-.04,0-.02-.13-.09-.04-.02-.07-.04-.09-.09l-.02-.04-.06.04s-.03,0-.04,0h-.12s0,.08,0,.09c-.14.14-.17.14-.26.35,0,.01,0,.03,0,.04h-.04c-.16,0-.11.1-.13.17,0,.01,0,.03,0,.04-.23.01-.17.13-.22.26,0,.01,0,.03,0,.04-.17-.04-.15.13-.22.23-.11.16-.08.06-.17.29,0,.01,0,.03,0,.04-.14-.02-.1,0-.15.09-.15.27-.29.41-.41.69,0,.01,0,.03,0,.04,0,0-.03.02-.04.04,0,.01,0,.03,0,.04h-.13s0,.1,0,.13c0,.01,0,.03,0,.04,0,0-.03.02-.04.04,0,.01,0,.03,0,.04,0,0-.03.02-.04.04,0,.01,0,.03,0,.04h-.13s0,.1,0,.13c0,.01,0,.03,0,.04,0,0-.03.02-.04.04,0,.01,0,.03,0,.04-.17-.04-.16.13-.22.23s-.05.02-.12.2c0,.01,0,.03,0,.04,0,0-.03.02-.04.04,0,.01,0,.03,0,.04l-.36.29-.15.04-.4.23s-.03,0-.04,0c-.05,0-.12,0-.17,0v.09s-.03,0-.04,0c-.11.03-.37.03-.35.17-.01,0-.03,0-.04,0-.41.12-.7.3-1.09.48l-.25.21c-.1.06-.19.17-.26.22-.24.08-.48.25-.69.39l-.02-.04c-.12.11-.14.03-.2.17s-.03.05-.09.09l-.08-.04c0,.12-.14.12-.21.18-.02.02,0,.07-.01.07-.01.01-.03.04-.04.04-.03,0-.1-.02-.13,0-.02.02,0,.06,0,.08-.07.17-.08.09-.13.13l-.09-.04-.04.17v.04c-.06.03-.12.06-.17.09-.35.18-1.22,1.13-1.43,1.6,0,.01,0,.03,0,.04-.13-.03-.11.02-.16.08-.18.2-.16.25-.23.48,0,.01,0,.03,0,.04-.19-.05-.15.16-.22.27-.55.96-.87,1.95-1,3.08-.02.2-.08.37-.09.47-.03.26.03.6,0,.87.01.05.1.01.13.02,0,0,.03.03.04.04.01.01.03.06.04.09,0,.02-.01.07,0,.08.02.02.1,0,.13,0,.01,0,.04.03.04.04,0,.01,0,.06,0,.09.05.02.08-.04.09-.04.01,0,.03,0,.04,0,.02.1.14.21.22.28.14.14.57.54.6.71.07.37-.23.38-.42.62-.01,0-.03,0-.04,0,0,0-.04-.06-.1-.05-.03,0-.03.07-.06.09-.11.06-.21.09-.31.18v.06c.14.08.15.35.22.51.21.44.54.96.79,1.4,0,0,.14.17.16.1.01.01.05.04.13.14.19.26.4.54.65.72.19.24.48.52.74.74l.1.2.68.4s.03.03.04.04c0,0-.01.05,0,.08l1.05.58c.13.11.12.29.07.44-.22.18-.51.12-.78.07-.01,0-.03,0-.04,0,.01-.15-.23-.14-.32-.18-.06-.03-.06-.09-.11-.12-.09-.05-.54-.3-.6-.31-.16-.02-.82.2-1.06.24-1.5.27-2.71.16-4.16-.28-.01,0-.03,0-.04,0,.03-.14-.09-.06-.16-.1-.13-.07-.41-.24-.57-.33-.02-.01-.03-.02-.04-.04-.02-.03.04-.12-.06-.09-.03,0-.02.04-.02.04-.02,0-.07,0-.08,0-.02-.02,0-.06,0-.08,0-.02,0-.06,0-.09-.04,0-.09,0-.13,0-.02,0-.05,0-.08,0-.02-.02,0-.06,0-.08,0-.03,0-.06,0-.09-.09-.02-.08.04-.09.04-.12.01-.11-.07-.13-.13,0-.02.01-.08,0-.09-.02-.02-.1.01-.13,0-.02,0-.03-.04-.04-.04-.05-.03-.15-.07-.17-.09-.01,0-.02-.03-.04-.04,0,0,.02-.05-.03-.09-.2-.15-.99-.33-1.25-.35-.67-.03-1.04.09-1.58.44-.02,0-.03.03-.04.04-.06.04-.03,0-.13.09,0,0-.05,0-.07.02s0,.06-.02.07c-.02.02-.02-.05-.09.09,0,.01,0,.03,0,.04-.21.13-.23.28-.31.49-.01.03-.07.03-.08.06-.12.51.05.98.18,1.45l.21.21s0,.03,0,.04c.04.14,0,.16.14.3.03,0,.03-.04.04-.04.03,0,.06,0,.09,0,.06.25.3.42.48.61l-.04.02c.08.08.08.19.22.15.03.03.05.04.09.09,0,0-.01.07,0,.08.03.02.1,0,.13,0,.01,0,.03.03.04.04,0,0-.01.05,0,.08.03.03.28.14.34.14.02.01.03.03.04.04.08.06.13.06.17.09.02.01.03.03.04.04,0,0-.02.05.03.09.14.1.34.12.49.17.01,0,.03,0,.04,0-.02.1.05.09.11.12,1.74.81,4.05,1.22,5.97,1.09.08,0,.32-.03.38-.04.05-.01.02-.08.03-.09,0,0,.06.01.09-.03.05-.08.05-.23.09-.33.14-.34.31-.69.47-1.02.04-.09.07-.24.12-.34,0-.01.09-.14.1-.14.32-.21.97-.1.78.4-.03.07-.12.23-.17.35-1.15,2.67-1.61,5.62-3.02,8.17l-.22.53s-.03.04-.04.04c-.51.12-.95-.16-1.46-.21-.41-.04-.9-.01-1.23.25-.02.01-.03.03-.04.04s-.03.03-.04.04c-.13-.02-.12.03-.18.1-.11.13-.17.26-.17.44,0,.27.26.56.39.76.03,0,.03-.04.04-.04.03,0,.06,0,.08,0,.06.16.26.26.39.39h-.09s0,.04,0,.04h.13s.03.03.04.04c0,0-.01.07.03.09l.49.21s.03.03.04.04c.2.14.17.1.35.17.01,0,.03,0,.04,0,0,.1.06.11.14.15,1.05.52,2.7,1.18,3.89.87.06-.01.25-.05.22-.15.01,0,.03,0,.04,0,.05,0,.14.02.17,0,.02-.02,0-.07,0-.08.01-.02.03-.03.04-.04l.13-.02c.05-.03,0-.06,0-.07.14-.19.33-.25.48-.43.09-.02.12-.07.17-.13.01-.01.03-.03.04-.04.1-.02.19-.11.27-.18s.24-.16.25-.26c1.13-.89,2-1.84,2.99-2.86l.42-.21c.75-.02,1.49.18,2.24.25s1.5.04,2.23.17l.13.24v2.52s-.29.32-.35.37c0,0-.08-.02-.12.01-.07.04-.26.31-.32.38,0,0-.06-.01-.09.03-.04.05-.03.13-.04.19,0,.01,0,.03,0,.04-.13-.02-.09.07-.09.15,0,.11-.04.42.13.41,0,.01,0,.03,0,.04,0,.02,0,.08,0,.09.02.01.1-.01.13,0,.05.02.07.08.09.09,1.04.6,4.37.49,5.46-.06.1-.05.14-.13.17-.15.09-.05.02.05.13-.09.01-.02.03-.03.04-.04l.33-.23c.06-.05.07-.14.1-.2,0-.01,0-.03,0-.04h.13s-.01-.1,0-.13c.01-.04.04-.07.04-.09.17-.04.11-.07.13-.17,0-.01,0-.03,0-.04l.22-.25c.74-1.56,1.43-3.19,1.94-4.85.23-.74.44-1.56.61-2.29.14-.63.17-1.32.31-1.93,0-.03.08-.02.08-.06.07-.27.02-.29.22-.53.01-.02.03-.03.04-.04.08,0,.15-.03.22-.06.7-.33,1.37-.75,2.06-1.08,0,0,.15-.11.06-.11.62-.35,1.2-.72,1.78-1.13.15-.04.36-.18.49-.27.23-.17.32-.24.59-.38.15-.08.14-.09.22-.17.01-.01.03-.03.04-.04.17,0,.16-.11.17-.13.01-.01.03-.04.04-.04.03-.01.1.02.13,0,.02-.02,0-.06,0-.08.02-.04.03-.08.05-.12.02-.01.05-.02.08-.01,0,0,0,.07.09.04,0-.03,0-.06,0-.09.02-.15.05-.06.09-.09.06.13.09,0,.12-.04.14-.14.31-.25.4-.4.28-.42.8-.71,1.04-1.17.03-.01.06,0,.08,0,.26-.06.61-.8.74-1.09.02-.04.07-.04.1-.09.16-.38.3-1.1.16-1.51-.01-.04-.06-.04-.08-.07-.12-.28-.12-.23-.31-.44,0,0,.01-.06,0-.08-.03-.03-.09,0-.12,0,0-.01.01-.05,0-.08-.02-.02-.39-.22-.44-.23-.51-.2-1.03-.14-1.53,0-.07.02-.17-.05-.15.09v.04c-.14.05-.07.21-.09.32,0,.02-.21.24-.18.37l-.6-.04s0-.03,0-.04c-.04-.12-.02-.33-.22-.35,0-.01,0-.03,0-.04,0-.02.01-.07-.01-.12,0-.02-.19-.18-.23-.19-.13-.02-.31.09-.41.17-.03.01-.06.03-.09.04s-.08,0-.13.02,0,.06,0,.06c-.04.05-.05.05-.09.09l-.02-.04c-.13.02-.09.11-.11.13-.02.03-.04.04-.04.04-.17-.04-.14.1-.22.2-.42.48-.75,1.05-1.18,1.53-.01.02-.06,0-.09.01l.05.08c-.25.26-.54.46-.78.74l-.95.74c-.58.38-1.2.8-1.82,1.13l-.62.16c-.24-.04-.31-.12-.42-.32.08-.07.09-.22.13-.26.06-.05.26-.12.31-.15.17-.11.3-.23.5-.33.04-.02.17-.04.09-.1.39-.25.81-.6,1.21-.78.05-.02.15-.04.17-.05.02-.02,0-.07,0-.08.03-.03.03-.07.09-.09.03-.01.1.02.13,0,.02-.02,0-.07,0-.08s.03-.04.04-.04c.03-.01.1.02.13,0,.02-.02,0-.07,0-.08.02-.04.04-.07.09-.09.03-.01.1.02.13,0,.02-.02,0-.07,0-.08.01-.02.03-.03.04-.04s.03-.03.04-.04c.4-.52.96-.89,1.39-1.52.05.11.11,0,.14-.06.07-.12.11-.23.16-.33.01-.03.03-.09.04-.13.14.03.11-.02.15-.08.28-.37.71-.74,1.19-.89.18-.06.37-.09.55-.12.21-.34.23-.66.31-1.04,0-.03.07-.03.08-.06.13-.55.15-2.48,0-3.01-.24-.85-.47-1.6-.91-2.39-.07-.12-.02-.33-.21-.29-.01-.04-.03-.1-.04-.13-.08-.18-.21-.44-.36-.61-.05-.06-.03-.11-.16-.08,0-.01,0-.03,0-.04-.22-.52-.47-.59-.65-1.27,0-.04-.08-.01-.09-.09-.01-.1-.01-.38,0-.48.01-.08.08-.04.09-.12.05-.42.03-.92.08-1.35.01-.08.08-.04.09-.12.05-.45.03-1.14.13-1.55,0-.03.08-.01.09-.09.01-.11-.02-.25,0-.37-.04,0-.1,0-.13,0-.01,0-.03,0-.04,0-.25-.02-.36.04-.6.12-.26.08-.51.2-.7.31-.01,0-.03,0-.04,0h-.17s0,.09,0,.09c-.01,0-.03,0-.04,0-.05.02-.08.04-.09.04-.01,0-.03,0-.04,0-.12.04-.28.04-.4.1l-.38.21s-.03,0-.04,0c-.05,0-.12,0-.17,0v.09s-.03,0-.04,0c-.17.05-.34.12-.52.13v.08s-.03,0-.05,0c-.05,0-.12,0-.17,0v.09s-.03,0-.04,0c-.38.1-.84.29-1.22.17-.04-.01-.05-.13-.16-.08-.02-.01-.03-.03-.04-.04ZM14.95,16.39c.09-.03-.05-.11-.08-.12-3-1.59-6.89-1.57-9.85.04-.2.11-.39.25-.58.37-.12.08-.04.05.03.05-.04.03-.09.06-.13.09l-.03-.04s-.3.16-.31.18c-.02.02,0,.07,0,.08-.03.03-.06.06-.09.09-.04-.02-.29.12-.3.14-.02.02,0,.07,0,.08-.03.04-.07.06-.09.09-.16,0-.29.21-.39.33l.04.02c-.17.18-.33.32-.48.52-.09-.14-.19.17-.17.21l4.06,2.07s.05-.03.06-.03c.21-.05.37-.25.56-.37.16-.1.32-.19.48-.28.08.08.11.02.18-.02,1.25-.61,2.74-.57,4.04-.11l.85.43s.05.04.09.09c.04.06-.07.03.09.09.12.34.29.09.51.01l-.03-.05c1-.52,2.19-1.36,3.16-1.99l.2-.03.31-.24s-.03-.07-.05-.1c-.19-.21-.37-.37-.59-.53-.12-.12-.23-.24-.39-.35-.07-.16-.06-.06-.14-.13-.06-.05-.21-.27-.33-.17-.16-.1-.31-.21-.48-.3-.04-.03-.08-.06-.13-.09ZM14.69,22.62c-.21-.02.09.15.12.16.99.61,2.18.74,3.32.61.22-.02.89-.12,1.06-.2.12-.06.06-.14-.01-.22-.14-.15-.36-.28-.5-.36-.18-.1-.4-.33-.48-.52-.03-.08.02-.02-.09-.16-.54-.72-1-1.42-1.38-2.21-.04-.09-.05-.22-.1-.31h-.12s-3.38,2.14-3.38,2.14c.32.23.68.41,1.02.63.19.13.36.31.54.43ZM9.97,21.54s.02.07.06.07c.18-.03.18-.25.24-.39s.2-.41.25-.54.08-.34.13-.48c-.41-.07-.84-.06-1.26,0-.02.02.07.34.09.4.03.09.21.36.25.46.05.12.08.37.13.46.03.05.08.02.09.03ZM8.32,20.5c-.11.06-.28.18-.39.26-.08.04-.39.16-.33.3.04.09.94.56,1.11.65.18.1.21.15.39.17,0,0,.04.06.09.04.07-.19-.07-.21-.1-.27-.13-.33-.26-.54-.39-.82-.03-.07-.09-.33-.13-.37-.02-.02-.06,0-.08,0-.01,0-.03,0-.04,0-.04,0-.18-.12-.13.04ZM11.18,21.28s-.05.08-.04.09c.35-.08.63.02.96-.18.04-.02.05-.07.08-.1.05-.04.2,0,.12-.15-.02-.04-.66-.44-.71-.43-.15.1-.16.24-.22.37-.04.08-.17.14-.14.31-.03.04-.03.05-.04.09Z"/>
  <path class="cls-21" d="M12.9,4.28c.5.47.77,1.04.93,1.68,0,.04.08.03.08.06.07.3.07,1.07,0,1.37,0,.03-.07.03-.08.06-.77,2.97-4.83,3.72-7.35,2.57-3.19-1.44-3.17-5.16,0-6.64,2.04-.95,4.75-.68,6.42.89Z"/>
  <path class="cls-9" d="M49.51,11.39s.07.02.1.1c.03.1.03.22.02.33-.04.51-.76.8-1.2.88-.58.1-2.04,0-2.59-.21-.37-.14-.33-.29-.09-.52.35-.34.98-.69,1.44-.86.71-.25,1.83-.43,2.32.28Z"/>
  <path class="cls-9" d="M11.12,29.84s-.06.02-.07.05c-.15.5-.25.9-.7,1.24-.56.42-1.51.43-1.79-.3,0-.01-.06-.02-.07-.05-.01-.06-.01-.27,0-.33,0-.03.07-.03.08-.06.27-.67,1.08-1.12,1.76-1.35.17-.06.74-.28.87-.09.08.11-.04.74-.08.9Z"/>
  <path class="cls-9" d="M13.84,30.4c.1.45.21.94.16,1.46-.07.69-.95.98-1.53.66-.03-.02-.23-.18-.25-.2-.14-.2-.23-.56-.17-.8,0-.03.07-.03.08-.06.13-.4.41-.95.71-1.25.06-.06.56-.44.61-.45.41-.08.32.35.38.64Z"/>
  <path class="cls-9" d="M49.12,14.64c.06.06.25.23.28.31.27.66-.51.96-1.05.91-.73-.06-1.66-.83-2.07-1.4-.06-.09-.18-.06-.12-.26s1.31-.17,1.53-.15c.52.04,1.05.23,1.43.59Z"/>
  <path class="cls-8" d="M5.63.2s.18.25.23.33c.25.38.46.79.7,1.19.04.06.23.27.26.33.27.57-.7.76-1.02.39-.11-.13-.23-.46-.32-.61-.19-.31-.54-.72-.7-1.04-.4-.8.51-.98.86-.58Z"/>
  <path class="cls-8" d="M3.29,5.55c-.07.07-.38.15-.48.14-.74-.22-1.78-.27-2.48-.55-.28-.11-.38-.27-.29-.58.07-.23.53-.23.73-.21.46.05,1.86.37,2.29.53.18.07.34.18.33.4,0,.05-.06.24-.1.27Z"/>
  <path class="cls-8" d="M16.62,10.38c.15.19.03.5-.19.58s-.39.05-.6-.03c-.64-.25-1.35-.88-2.01-1.15-.41-.36.18-.94.61-.7.6.43,1.38.72,1.98,1.14.04.03.19.14.21.16Z"/>
  <path class="cls-8" d="M13.68.95c-.16.29-.48.64-.67.91-.2.29-.33.75-.73.82s-.88-.15-.63-.58c.28-.48.7-1.03,1.05-1.47.13-.17.1-.32.39-.38.51-.11.88.19.59.7Z"/>
  <path class="cls-8" d="M.85,10.39c-.12-.1-.13-.36-.08-.51.04-.12.21-.18.32-.24.37-.2,1.78-.89,2.12-.96.31-.06.59.11.58.45-.01.27-.49.46-.72.58-.38.2-1.19.62-1.57.73-.2.06-.47.11-.64-.05Z"/>
  <path class="cls-8" d="M18.01,4.92c.22.26.06.53-.23.63-.42.13-2.03.44-2.46.45-.64.02-.85-.61-.24-.81.46-.15,1.69-.36,2.19-.41.24-.02.58-.06.74.14Z"/>
  <path class="cls-19" d="M38.8,5.86c.89-.34,2.65-1.19,3.56-.89.24.08.35.19.47.39.02.03.07.03.07.04.03.07.06.31.06.4,0,.2-.02.59-.04.78-.01.08-.08.04-.09.12-.05.41-.05.85-.08,1.25,0,.02-.12.03-.13.18-.03.34-.03.7-.05,1.03-.01.19-.1.51-.08.69.04.26.64.85.82,1.1.76,1.05,1.3,2.39,1.6,3.64.2.82.13,2.44-.08,3.21-.03.09-.16.88-.13.92.59-.25,1.29-.26,1.91-.12.08.02.13.07.16.07-.37.02-.73-.1-1.11-.09-.13,0-.43.03-.55.06s-.55.27-.59.1c.08-.33.18-.67.25-1.01.15-.75.25-1.75.15-2.55,0-.02-.07-.21-.09-.34-.16-.87-.44-1.71-.82-2.48-.43-.88-.98-1.64-1.6-2.41.02-.37,0-.82.04-1.17.01-.08.08-.05.09-.09.14-.46.11-1.16.22-1.64.05-.23.1-1.04.09-1.29,0-.15-.06-.3-.1-.44-.1-.03-.27-.21-.34-.24-.82-.37-2.55.55-3.39.79-.07.02-.13.07-.19,0Z"/>
  <path class="cls-16" d="M13.39,14.78c-.05.09-.14.02-.2,0-.46-.12-.91-.23-1.39-.29-2.88-.37-4.44.04-7.11,1.07.15-.13.36-.22.54-.3,2.59-1.13,5.45-1.32,8.16-.48Z"/>
  <path class="cls-16" d="M18.33,29.12s.07-.02.09.03c.05.18-.07.18-.08.22-.59,1.83-.94,3.29-1.79,5.04-.08.17-.07.37-.22.49-.02.02-.05.01-.07.01.03-.08.05-.19.09-.27.8-1.6,1.32-3.31,1.85-5.01.05-.17.06-.37.13-.53Z"/>
  <path class="cls-19" d="M48.07,19.42c.35.34.33.32.48.79.01.03.07.03.08.07.43,1.54-.96,3.2-2.01,4.19-.02.02-.06,0-.07.02-.08-.01,0-.11.03-.13,1.1-1.06,2.13-2.23,1.95-3.87-.04-.35-.22-.65-.43-.91-.03-.04-.14-.12-.04-.16Z"/>
  <path class="cls-16" d="M26.68,2.66c.18-.35.77-.51,1.14-.47.96.1,1.74,1.29,2.24,2,.03.05.09.06.12.1l.86,1.38.17-.07s.03.02.02.04c-.11.18-.32.07-.4-.07-.53-.89-1.73-2.91-2.74-3.23-.58-.18-.97,0-1.42.36v-.04Z"/>
  <path class="cls-16" d="M17.03,12.14c-.04.29-.18.48-.3.77-.25.61-.38,1.24-.57,1.85l-.08,1.24c-.27.07-.3-.08-.46-.17-.24-.14-.51-.25-.75-.38-.08-.04-.12,0-.09-.15.4.18.8.4,1.17.65.01-.1-.02-.22,0-.32.04-.16.06-.22.09-.44.15-1.08.4-1.87.84-2.84.03-.06.07-.23.15-.22Z"/>
  <path class="cls-16" d="M38.85,32.45c-.09.76-.44,1.57-.7,2.31-.29.81-.55,1.6-.91,2.37-.01.03-.14.17-.17.21.05-.27.09-.27.17-.47.41-.96.76-1.93,1.09-2.92.08-.24.22-.6.3-.85.07-.23.03-.47.22-.66Z"/>
  <path class="cls-19" d="M35.86,2.23c0,.07.12.07.13,0,.12,0,.46.07.54.13.05.04.02.07.03.09.13.05.25.12.34.24,0,.01.15.26.16.27.18.47.17.94.28,1.4.14.56.27,1.21.35,1.81l-.13.09-.13-1.23c-.11-.25-.18-.66-.26-.93-.13-.47-.04-.85-.31-1.32-.06-.11-.23-.19-.3-.33-.26-.1-.66-.17-.93-.13-.13.02-.33.18-.46.08.28-.13.37-.17.69-.17Z"/>
  <path class="cls-19" d="M8.71,22.79s.12-.03.09.11c0,.02-.07.01-.09.08-.16.45-.18,1.39,0,1.84.25.64.84,1.5,1.41,1.88.02.01.16.1.07.12-.42-.32-.79-.6-1.1-1.05-.26-.38-.61-1.11-.64-1.57-.02-.24-.01-.72.05-.94,0-.04.07-.03.08-.07.04-.13.03-.29.13-.4Z"/>
  <path class="cls-19" d="M26.64,2.75c-.14.25-.31.48-.48.72-.61.93-1.21,1.85-1.83,2.78-.02,0-.03-.04-.04-.04.04-.22.19-.36.3-.54.48-.75,1-1.52,1.51-2.26.15-.22.3-.53.53-.67Z"/>
  <path class="cls-16" d="M39.63,29.07c-.03.15-.01.4-.04.53-.06.25-.1.63-.17.91-.13.52-.27,1.17-.47,1.67-.03.07,0,.18-.09.23.11-.82.38-1.63.56-2.41l.08-.9c.01-.05.11-.01.13-.02Z"/>
  <path class="cls-19" d="M3,16.65c.26.05-.02.09-.03.1-.49.45-1.14.93-1.44,1.51-.02.04-.09.03-.11.11-.08.29.02.4.25.54.63.41,1.51.67,2.14,1.11l-.03.04c-.67-.35-1.41-.66-2.06-1.03-.3-.17-.48-.3-.38-.7.05-.18.15-.22.23-.33.4-.53.9-.94,1.44-1.36Z"/>
  <path class="cls-19" d="M20.01,39.9c-1.48.37-3.13-.23-4.46-.87.04-.09.13-.02.19,0,1.16.5,2.43,1,3.73.9.17-.01.39-.14.54-.04Z"/>
  <path class="cls-19" d="M13.48,35.22l-.49.62c-.06.28-.1.58-.06.87.07.58.72,1.1,1.18,1.42.02.01.15.11.07.13-.54-.35-1.01-.68-1.26-1.31-.01-.03-.07-.03-.08-.07-.13-.38-.04-.89.16-1.21.14-.22.28-.3.49-.44Z"/>
  <path class="cls-16" d="M36.68,38.25c-.06-.08.04-.35.07-.42.02-.06.08-.05.11-.11.06-.13,0-.31.2-.34-.03.2-.28.64-.39.87Z"/>
  <path class="cls-24" d="M35.99,2.23c0,.07-.12.07-.13,0,.04,0,.09,0,.13,0Z"/>
  <path class="cls-19" d="M26.68,2.7h-.04s.04-.03.04-.04v.04Z"/>
  <path class="cls-25" d="M27.81,3.09s.05.07.09.09c.01.07.12.07.13.09.23.25.45.54.68.81.05.06.07.08.14.1,0,.01,0,.03,0,.04.03.07.06.15.09.22.12.26.36.51.51.76.26.41.48.93.83,1.27,0,0-.01.05.03.09.32.28.84.31,1.14,0,.02,0,.04,0,.06,0l.02-.04v-.04h.04c.37-.19.78-.5,1.04-.82v-.04s.1-.03.13-.04c.22-.11.46-.34.61-.52.01-.02.03-.03.04-.04.14.04.15-.08.22-.17v-.04c.05-.04.09-.08.13-.13.02-.03.05-.04.09-.09.06,0,.11-.03.13-.09,0,0,.04-.03.04-.04l.13-.09c.05-.02.06-.05.09-.09.11-.01.18-.11.26-.17.06-.05.1-.11.13-.13.28-.22.61-.48.91-.65.04-.02.1-.03.14-.05.06-.03.11-.17.25-.13.05.03.07.45.09.53.2.65.32,1.42.47,2.1.06.26.03.67.09.94,0,.03.07.03.08.06.12.33.08.35.44.49.39.14.54.06.92-.06.83-.26,1.69-.68,2.5-.98.37-.14.76-.25,1.13-.39.06.02.17-.06.17.06,0,.08-.03.52-.05.6,0,.04-.07-.02-.09.16-.02.24-.03.49-.04.74,0,.01,0,.03,0,.04-.08.09-.04.27-.04.39-.02,0-.08-.03-.09.02,0,.37-.06.75-.09,1.12,0,.11-.03.29.05.37,0,.06,0,.12,0,.17l-.09-.06c-.02.43,0,.8.3,1.1,0,0,.05-.02.09.03.04.05.06.17.08.23.02.05.02.12.05.17.02.02.06,0,.08,0,0,.03,0,.06,0,.09.03,0,.07,0,.09,0,.04.2.06.1.12.2.26.4.51.81.76,1.19.05.07.04.17.11.21v.04c.03.09.35.87.39.91.09.34.25.78.3,1.13.12.72.13,1.74.09,2.47-.03.45-.1.69-.21,1.07-.04.15-.06.33-.1.48-.21.07-.44.08-.65.15-.34.12-1.11.7-1.25,1.03-.02.04-.03.1-.04.13-.16.03-.21.26-.3.39-.42.62-.98,1-1.39,1.52l-.04.04s-.03.03-.04.04l-.13.09s-.06.05-.09.09c-.06,0-.11.03-.13.09,0,0-.04.03-.04.04l-.13.09c-.05.02-.06.05-.09.09-.09,0-.14.05-.17.13-.41.18-.83.53-1.21.78-.23.15-.89.45-1.03.62-.23.29.06.55.36.59.28.04.44-.09.67-.21.62-.32,1.24-.75,1.82-1.13.35-.23.7-.44.95-.74.24-.27.53-.48.78-.74.21-.21.4-.52.65-.69.2-.14.1-.11.22-.28.31-.43.72-1.08,1.3-1.21.08-.02.14-.04.21.02.05.06.11.15.17.13,0,.01,0,.03,0,.04.05.14.06.32.22.35,0,.01,0,.03,0,.04,0,.02.03.07.04.09.16.21.54.13.71-.04.05-.06.09-.23.12-.31.01-.03.07-.03.08-.07.02-.06.03-.33.05-.35.14.03.28-.07.39-.09.48-.1.83-.06,1.28.13.12.05.16.13.32.17.01.02,0,.04.04.09.03.03.1.04.12.06.09.11.26.55.27.7.07.87-.29,1.63-.82,2.26-.05.05-.08.12-.09.19-.02,0-.06,0-.08,0-.24.46-.77.75-1.04,1.17-.14.07-.26.17-.39.26-.73.5-1.4,1.05-2.12,1.56-.57.4-1.16.77-1.78,1.13-.72.41-1.46.78-2.21,1.13-.47.22-.49.25-.6.76-.05.23-.1.5-.12.74,0,.07-.05.18.03.23,0,.01,0,.03,0,.04l-.17.2c-.18,1.55-.7,2.99-1.21,4.42-.17.48-.35.94-.48,1.44-.31.47-.51,1.11-.78,1.65-.2.39-.45.9-.75,1.23-.13.14-.34.23-.42.4-.06.02-.14.02-.22.04-1.14.43-2.24.5-3.46.43-.43-.02-1-.07-1.43-.17-.07-.02-.48-.16-.52-.2-.06-.05-.06-.11-.09-.16-.02-.03-.08-.03-.08-.06-.01-.06-.01-.31,0-.37,0-.02.14-.26.17-.33.1-.21.21-.21.39-.35.1-.07.21-.12.3-.22.03-.03.08-.04.1-.1.02-.04.03-.09.03-.14.06-.51.06-1.92,0-2.43-.01-.11-.14-.36-.23-.4-.06-.03-.11,0-.16-.01-.57-.11-1.14-.08-1.71-.13-.42-.04-.85-.12-1.27-.16-.07,0-.18-.05-.22.03-.46-.05-1.08-.27-1.48.04-.06.04-.05.11-.07.13-.99,1.02-1.85,1.97-2.99,2.86-.21.17-.35.26-.52.43-.01.01-.03.03-.04.04-.16-.04-.12.07-.17.13-.15.18-.34.24-.48.43-.08,0-.09.04-.13.09-.01.01-.03.03-.04.04-.08,0-.15,0-.17.09-.01,0-.03,0-.04,0-.05.01-.09.03-.13.04l-1.23.04c-.71-.14-1.43-.34-2.1-.63-.3-.13-.74-.44-1.04-.5-.04,0-.09,0-.13,0-.02-.01-.03-.03-.04-.04-.15-.11-.32-.25-.52-.3-.01-.01-.03-.03-.04-.04s-.03-.03-.04-.04c-.13-.12-.33-.22-.39-.39-.03,0-.06,0-.08,0-.29-.46-.45-.77-.09-1.26,0-.01.03-.03.04-.04h.04s.03.04.06.03c.18-.04.35-.18.58-.2.35-.04.72.02,1.06.09.28.06.49.2.78.15.25-.05.3-.14.43-.31.14-.19.08-.15.17-.33.49-1.05,1.19-2.3,1.39-3.42.18-.18.14-.38.21-.59.02-.06.08-.06.09-.09.04-.13.11-.41.05-.53.03-.08.03-.16.04-.22.08.04.09.11.13-.02s.05-.3.09-.42c.35-1.14.74-2.31,1.21-3.42.02-.04.14-.03.08-.12,0,0-.06.01-.08-.04-.02-.04,0-.1-.04-.16-.09-.14-.36-.2-.51-.22-.01,0-.27.02-.14.07-.01,0-.19.07-.22.09-.18.09-.14.19-.3.29l-.69,1.7s-.09,0-.13,0c-.05-.07-.16-.04-.24-.04-.94-.01-1.81-.02-2.75-.13l-1.78-.39c-.52-.16-.97-.38-1.47-.56-.01,0-.03,0-.04,0-.12-.12-.34-.22-.52-.26-.01,0-.03-.03-.04-.04-.03-.08-.1-.09-.17-.09-.02-.01-.03-.03-.04-.04-.1-.08-.23-.22-.35-.22-.01-.01-.03-.04-.04-.04-.02-.06-.07-.09-.13-.09-.04-.05-.06-.06-.09-.09-.06-.06-.12-.11-.17-.17-.18-.18-.42-.35-.48-.61-.03,0-.06,0-.09,0-.03-.1-.05-.29-.17-.26,0-.01,0-.03,0-.04-.05-.17-.19-.38-.21-.47-.22-.7-.06-1.14.21-1.74,0-.01,0-.03,0-.04.11.03.08-.07.09-.09,0,0,.08-.08.09-.09.02-.02.12,0,.13-.09.02-.01.03-.03.04-.04.04,0,.09,0,.13,0,.59-.14.81-.36,1.54-.3.21.02.47.15.67.09.18.06.34.17.52.22.02.01.03.03.04.04.02.03.03.06.04.09.1.12.65.55.8.65.07.05.14.03.15.04.02.01.03.04.04.04.03.02.08.12.15.13l.02-.04c.08.05.12.09.17.13.6.42,1.76.65,2.51.69.55.03,1.31-.02,1.86-.12.08-.01.16.02.14-.1.09-.02.17-.02.26-.04.23.12.64-.16.84-.13.1.01.63.39.79.47.12.05.58.22.68.22.39,0,.87-.52.32-.82,0-.01.02-.05-.03-.08-.07-.05-.26-.1-.36-.13l-.69-.35s-.03-.03-.04-.04c-.26-.22-.53-.39-.78-.61s-.55-.49-.74-.74c-.64-.83-1.3-1.69-1.65-2.69-.01-.04-.15-.11-.08-.29.08-.05.16-.13.26-.17.01,0,.03,0,.04,0,.1,0,.3-.15.36-.22.08-.1.08-.24.2-.26v-.08c-.14,0-.14-.22-.21-.31-.08-.11-.22-.22-.31-.31s-.32-.39-.43-.41c-.01,0-.03,0-.04,0l-.09-.04s-.03-.04-.04-.04c-.02-.06-.07-.09-.13-.09-.01-.02-.03-.07-.04-.09l.04-1.45c.14-.34.17-.83.26-1.19.07-.26.41-1.35.52-1.52.26-.4.51-.88.78-1.3.16-.25.38-.48.54-.73l.8-.83c.06-.03.12-.05.17-.09.25-.14.39-.34.58-.48.38-.28.77-.51,1.15-.78.07-.05.16-.15.26-.22.17-.11.41-.23.57-.32.24-.12.56-.19.77-.38.01,0,.03,0,.04,0,.1-.03.21-.06.3-.09.56-.18.97-.29,1.34-.77.3-.39.56-.89.82-1.31.15-.24.4-.52.55-.75.02-.03,0-.07.01-.08.04-.07.24-.43.26-.48,0-.01,0-.03,0-.04.13-.02.18-.15.22-.26,0-.01,0-.03,0-.04.14-.02.1-.07.13-.13,0-.01.04-.03.04-.04,0-.01,0-.03,0-.04.18-.01.18-.26.26-.35,0,0,.12-.08.13-.09.01,0,.03,0,.04,0h.09ZM38.54,13.01c.57.36,1.27.2,1.54-.43.03-.06,0-.13.02-.18.02-.07.12-.05.09-.32-.01-.08-.08-.06-.09-.09-.16-.68-.28-1.17-.6-1.78-.04-.08-.02-.16-.09-.25-.1-.11-.33-.2-.47-.13-.18.08-.24.37-.31.51-.02.04-.08.07-.08.08-.24.54-.62,1.57-.39,2.13.01.03.06.04.08.07.11.24.06.24.31.4ZM21.4,14.13s-.03.03-.04.04c-.04.03-.06.03-.13.09-.04.03-.06.06-.09.09,0,0-.07,0-.11.04-.09.1-.2.31-.2.46,0,.33.38.46.67.4.07-.01.09-.07.12-.08.05-.02.12-.06.17-.09.32-.19.42-.36.84-.35.38,0,.43.22.71.35.02,0,.06,0,.09,0,0,.04,0,.09,0,.13.03.16.07.07.13.13.01.01.03.03.04.04,0,0-.02.06.03.09.13.07.55.07.66-.04.08-.08.22-.34.17-.45-.13-.05-.11-.35-.18-.41-.02-.02-.08,0-.11-.02,0,0-.06-.08-.1-.12-.03-.03.06-.03-.09-.09-.03-.04,0-.05-.09-.13-.11-.1-.33-.23-.48-.26-.01,0-.03,0-.04,0-.52-.29-1.28-.22-1.8.04-.1.05-.13.1-.19.14ZM32.35,14.74c-.3.08-.54.21-.78.39-.02.01-.03.03-.04.04-.02.01-.06.02-.13.09-.01.01-.03.03-.04.04-.07,0-.12.07-.17.09,0,0-.07-.05-.12,0-.07.08-.05.23-.18.28-.07.35.32.64.66.57.36-.07.65-.39.98-.51.25-.09.54-.12.8-.08.2.03.36.19.5.21.07.15.2.19.27.31s.09.33.24.34c.01,0,.03,0,.04,0,.13.15.39.16.58.12s.38-.35.33-.52c0-.03-.07-.03-.08-.06-.12-.36-.17-.4-.35-.7s-.91-.66-1.3-.72c-.35-.05-.9-.07-1.21.11ZM40.28,14.83c-.19.21-.21.47-.3.72-.14.41-.32.79-.35,1.25-.02.25-.02.62.09.85,0,.01.17.23.18.24.05.05.12.03.16.06.4.23.87.25,1.27-.05.02-.01.22-.21.23-.22.11-.16.12-.68.1-.87-.04-.43-.39-1.01-.57-1.38-.11-.22-.15-.64-.46-.71-.16-.04-.24-.01-.35.11ZM38.17,17.93c-.06-.11-.05-.2-.15-.31-.29-.33-.93-.63-1.37-.67-.95-.1-2.62.22-2.57,1.44.05,1.08,1.59,1.35,2.45,1.28.32-.03,1.1-.26,1.32-.5.05-.06.38-.54.39-.57.01-.07.02-.44,0-.5-.01-.05-.12,0-.09-.09l.09-.04s-.06-.01-.07-.03ZM24.17,17.99s-.03.12-.04.17c-.15-.13-.16.09-.17.2-.05.68.12,1.48.65,1.93.04.03.17.02.18.17.03,0,.06,0,.08,0,.04.06.08.14.13.19.15.14.55.39.73.5.3.18.71.38,1.07.46.08.02.21.05.27-.03.01,0,.03,0,.04,0v.09c.1-.04.27.04.32.04h.65c.15,0,.33.01.5,0,.38-.03,1-.17,1.35-.31.28-.11.52-.35.81-.42l-.09-.04v-.04c.11,0,.12-.07.17-.13.01-.02.03-.03.04-.04.09,0,.14-.05.17-.13.02-.01.05-.02.09-.04.02-.01.1-.1.13-.13.08.13.08-.02.11-.04.06-.07.12-.12.15-.16.35-.47.51-.94.42-1.54,0-.05-.18-.36-.2-.39-.03-.04-.09-.02-.09-.03-.03-.03-.04-.11-.09-.15-.88-.75-2.49.09-3.53.15-1.3.08-1.93-.25-3.1-.5-.27-.06-.66-.05-.78.24Z"/>
  <path class="cls-1" d="M7.07,15.56c.07.07.13.03.21.02,2.6-.52,5.32-.52,7.63.87.05.03.13.13.17.02.16.09.32.2.48.3s.34.21.48.3c.12.25.21.21.39.35.12.13.29.3.41.44.25.3-.04.31-.28.47-.97.63-2.16,1.47-3.16,1.99-.06.03-.28.13-.33.13s-.06-.06-.15-.09c0-.02,0-.06,0-.09h-.09c-.04-.05-.06-.06-.09-.09-.23-.23-.45-.31-.74-.43l.3-.34c.51-.75,1-1.5,1.51-2.27.03-.05.24-.23.26-.28.18-.36-.09-.61-.45-.53-.25.05-.78,1.1-1.02,1.29-.23.46-.56.88-.86,1.31-.07-.12-.08,0-.11.04-.08.16-.17.29-.27.44l-1.14-.13c.08-.3,0-.57,0-.84-.01-.8.02-1.68-.04-2.47-.03-.3-.19-.45-.5-.46-.43,0-.47.23-.46.59,0,.23.03.51.05.74.01.13-.02.11.13.11,0,.03,0,.06,0,.09v2.3c-.11,0-.21-.01-.32,0-.1.01-.77.14-.81.17l-1.34-1.55c-.3-.33-.62-.82-.92-1.12-.37-.36-.9-.11-.63.34.05.09.3.37.39.47.32.38.71.77,1.04,1.15.3.35.55.75.91,1.05-.02.01-.03.04-.04.04-.16.09-.33.18-.48.28-.19.12-.35.32-.56.37l-4.02-2.08c-.06-.13.04-.12.08-.17.15-.2.31-.34.48-.52.14-.14.22-.19.35-.35.02-.02.05-.05.09-.09.11-.05.22-.13.3-.22.03-.03.06-.06.09-.09.12-.06.23-.15.35-.22.04-.03.09-.06.13-.09.8-.5,1.69-.91,2.6-1.17Z"/>
  <path class="cls-11" d="M16.51,19.42c.07.17.14.36.22.53.3.65.73,1.28,1.17,1.87l.3.29c.08.19.3.42.48.52,0,.11.58.43.39.54-.66.12-1.34.23-2.02.2-.8-.04-1.7-.3-2.36-.74-.18-.12-.35-.31-.54-.43-.33-.22-.69-.4-1.02-.63l3.38-2.14Z"/>
  <path class="cls-6" d="M38.85,28.47c-.19.24-.15.27-.22.53,0,.04-.08.03-.08.06-.14.61-.17,1.3-.31,1.93-.16.74-.38,1.55-.61,2.29-.51,1.66-1.21,3.3-1.94,4.85l-.22.25c.25-.76.78-1.45,1-2.25.16-.24.29-.59.39-.86.63-1.7,1.12-3.42,1.48-5.21,0-.01,0-.03,0-.04,0-.04-.01-.1,0-.14.01-.04.12-.02.09-.12v-.04c.03-.24.06-.83.14-1.01.05-.11.18-.2.29-.25Z"/>
  <path class="cls-6" d="M19.8,26.09c.5-.08.78.25.58.73-.52,1.2-.93,2.35-1.31,3.6-.02.06-.02.13-.04.22-.11.38-.28.79-.35,1.17-.08.08-.05.22-.09.31-.39,1.02-.83,2.18-1.34,3.15-.05.1-.17.35-.21.4-.04.04-.08.02-.09.03l.22-.53c1.41-2.55,1.88-5.5,3.02-8.17.05-.11.15-.28.17-.35.19-.5-.45-.61-.78-.4,0,0-.09.13-.1.14-.05.1-.08.25-.12.34-.16.33-.33.68-.47,1.02-.04.1-.04.25-.09.33-.02.04-.08.02-.09.03,0,0,.02.08-.03.09-.06.01-.3.04-.38.04-1.92.13-4.23-.28-5.97-1.09-.06-.03-.13-.02-.11-.12.5.18.95.4,1.47.56.55.17,1.11.32,1.69.39,1.01.2,2.05.24,3.07.17.04,0,.09,0,.13,0,.03,0,.08-.05.13-.04,0-.04-.01-.11,0-.14.26-.5.41-1.1.7-1.6.04-.06.08-.12.16-.12v-.09s.2-.08.22-.09Z"/>
  <path class="cls-14" d="M7.93,20.76c.16-.08.36-.12.52-.22-.04.17.11.25.14.31.14.31.17.54.38.77,0,0,.03.14.02.17-.14-.02-.17-.2-.28-.09-.17-.09-1.06-.56-1.11-.65-.07-.14.24-.26.33-.3Z"/>
  <path class="cls-10" d="M14.95,16.39c-2.32-1.29-5.33-1.55-7.88-.82-.91.26-1.8.67-2.6,1.17-.07,0-.15.02-.03-.05.19-.12.38-.26.58-.37,2.96-1.61,6.85-1.64,9.85-.04.02.01.17.09.08.12Z"/>
  <path class="cls-6" d="M42.79,12.06c.19-.05.15.17.21.29.44.79.67,1.54.91,2.39.15.54.13,2.46,0,3.01,0,.03-.07.03-.08.06-.08.38-.1.7-.31,1.04-.19.02-.38.06-.55.12-.48.15-.91.52-1.19.89-.05.06,0,.11-.15.08.13-.33.91-.91,1.25-1.03.21-.08.44-.09.65-.15.04-.15.05-.33.1-.48.12-.39.19-.62.21-1.07.1-.03.08-.11.09-.19.04-.83.01-1.46-.13-2.28-.06-.35-.12-.91-.35-1.13-.08-.3-.11-.5-.25-.77-.04-.07-.03-.15-.14-.14v-.04c0-.25-.19-.4-.26-.61Z"/>
  <path class="cls-6" d="M41.83,5.73s.09,0,.13,0c-.01.12.02.26,0,.37-.01.08-.08.06-.09.09-.09.42-.07,1.1-.13,1.55,0,.08-.08.04-.09.12-.05.43-.03.93-.08,1.35-.01.08-.08.04-.09.12-.01.1-.01.38,0,.48.01.08.08.05.09.09.18.67.43.74.65,1.27-.09-.09-.07-.09-.17-.13,0-.03,0-.06,0-.09-.03,0-.07,0-.09,0-.02-.11.04-.13-.13-.17-.03-.06-.04-.18-.08-.23-.04-.04-.08-.02-.09-.03,0-.12-.15-.29-.18-.37-.06-.2-.04-.46-.04-.67,0-.06,0-.12,0-.17,0-.57.13-.95.13-1.52.03-.01.05-.02.04-.06,0-.11,0-.22,0-.33,0-.01,0-.03,0-.04.08-.04.03-.16.04-.23.02-.1.11-.28.13-.46.04-.31.04-.64.04-.95Z"/>
  <path class="cls-14" d="M11.23,21.19c.12-.16.12-.19.22-.36.03-.05.17-.09.13-.25.22,0,.35.18.49.29.05.04.17-.03.11.16-.07.22-.79.28-.99.24.02-.03.02-.05.04-.09Z"/>
  <path class="cls-19" d="M18.67,22.62c.14.08.37.22.5.36.08.08.14.16.01.22-.17.08-.84.17-1.06.2-1.14.12-2.34,0-3.32-.61-.03-.02-.33-.19-.12-.16.65.44,1.55.7,2.36.74.68.03,1.35-.08,2.02-.2.19-.11-.39-.43-.39-.54Z"/>
  <path class="cls-6" d="M34.6,3.96l.37-.39c.13-.1.79-.57.91-.56.06,0,.13.07.19.1l.79,3.93s-.06.02-.09-.03c-.1-.14-.08-.48-.13-.63-.19-.69-.3-1.52-.47-2.23-.05-.21-.03-.55-.09-.76,0-.02-.16-.11-.08-.29-.19-.03-.37.05-.48.22-.3.17-.63.43-.91.65Z"/>
  <path class="cls-10" d="M34.52,39.42s.03,0,.04,0c-.03.02-.07.1-.17.15-1.09.55-4.42.66-5.46.06.16.03.32.1.48.13.46.1.96.15,1.43.17.87.04,2.59.04,3.36-.35.06-.03.12-.04.11-.13.07-.03.16-.02.22-.04Z"/>
  <path class="cls-6" d="M18.24,12.06c-.05.16-.23.44-.3.61-.27.59-.38.86-.56,1.52-.14.53-.28.96-.3,1.54-.02.35.02.71,0,1.06-.03-.01-.12.03-.13-.02.03-.27-.04-.61,0-.87.01-.1.07-.27.09-.47.13-1.13.45-2.12,1-3.08.06-.11.03-.32.22-.27Z"/>
  <path class="cls-6" d="M26.12,34.7c.61.07,1.23.16,1.84.22.38.03,1.02-.02,1.36.09.11.04.08.06.13.09-.73-.13-1.49-.1-2.23-.17s-1.49-.27-2.24-.25l-.42.21s.02-.09.07-.13c.4-.31,1.03-.1,1.48-.04Z"/>
  <path class="cls-6" d="M14.91,23.75c1.44.44,2.66.55,4.16.28.23-.04.89-.26,1.06-.24.05,0,.51.25.6.31.05.03.05.09.11.12.08.04.33.03.32.18-.19-.05-.42-.19-.59-.29-.08-.05-.33-.25-.39-.26-.06-.01-.73.18-.88.21-.09.02-.17.03-.26.04-.7.12-1.23.17-1.95.13s-1.5-.13-2.16-.48Z"/>
  <path class="cls-10" d="M47.25,19.85c.19.21.18.16.31.44.01.03.07.03.08.07.14.42,0,1.13-.16,1.51-.02.05-.08.05-.1.09-.13.29-.48,1.03-.74,1.09.01-.07.05-.14.09-.19.53-.62.89-1.39.82-2.26-.01-.15-.18-.59-.27-.7-.02-.02-.08-.02-.12-.06h.09Z"/>
  <path class="cls-10" d="M11.36,19.5c.19.05.46.18.65.26.29.12.51.2.74.43l-.85-.43c-1.3-.46-2.79-.5-4.04.11-.06.03-.1.1-.18.02,0,0,.02-.03.04-.04.14-.07.33-.16.48-.22.92-.33,2.21-.37,3.16-.13Z"/>
  <path class="cls-10" d="M2.7,18.29s-.13.04-.08.17l4.02,2.08s-.02.04-.06.03l-4.06-2.07s.08-.35.17-.21Z"/>
  <path class="cls-19" d="M16.51,19.42h.12c.05.1.05.22.1.31.38.79.85,1.49,1.38,2.21.11.14.05.08.09.16l-.3-.29c-.44-.59-.87-1.22-1.17-1.87-.08-.17-.15-.35-.22-.53Z"/>
  <path class="cls-3" d="M9.97,21.54s-.06.02-.09-.03c-.05-.09-.08-.34-.13-.46-.04-.1-.22-.37-.25-.46-.02-.06-.11-.38-.09-.4.41-.06.84-.07,1.26,0-.06.15-.08.34-.13.48s-.19.4-.25.54-.06.35-.24.39c-.04,0-.05-.06-.06-.07.07.02.06,0,.09-.03.14-.11.16-.34.22-.5.07-.17.11-.33.17-.52.01-.04.16-.13.13-.25-.37-.03-.71-.03-1.08,0-.06.15.07.17.08.21.09.25.17.53.27.77.05.13.19.12.13.33Z"/>
  <path class="cls-26" d="M9.88,22.88c-.27.6-.43,1.04-.21,1.74.03.09.16.3.21.47l-.21-.21c-.12-.47-.29-.94-.18-1.45,0-.03.07-.03.08-.06.08-.2.1-.35.31-.49Z"/>
  <path class="cls-5" d="M35.51,3.31c.1-.17.28-.25.48-.22-.08.18.08.27.08.29.06.21.04.56.09.76.17.71.28,1.54.47,2.23.04.16.03.49.13.63.03.05.08.02.09.03.01.01.03.03.04.04.03.03.16.17.17.17-.36-.13-.31-.15-.44-.49-.01-.04-.07-.03-.08-.06-.06-.27-.03-.67-.09-.94-.15-.68-.28-1.45-.47-2.1-.02-.08-.04-.5-.09-.53-.14-.05-.2.1-.25.13-.04.02-.1.02-.14.05Z"/>
  <path class="cls-22" d="M17.42,14.18c-.1.36-.12.85-.26,1.19l-.04,1.45s-.04-.04-.04-.04c.02-.35-.02-.71,0-1.06.03-.58.16-1.01.3-1.54h.04Z"/>
  <path class="cls-12" d="M29.63,35.31v2.51c-.01.07,0,.15-.04.22-.1.1-.2.14-.3.22l-.04-.04c.06-.05.34-.32.35-.37v-2.52s-.13-.24-.13-.24c.04.03.12.03.15.09.03.05.01.09.02.13Z"/>
  <path class="cls-6" d="M16.9,35.74s-.04.06-.12.08c-.41.08-.78-.14-1.17-.2-.5-.07-.92-.01-1.4.16.32-.27.82-.29,1.23-.25.51.05.95.34,1.46.21Z"/>
  <path class="cls-26" d="M10.23,22.53c.54-.34.91-.47,1.58-.44.26.01,1.05.19,1.25.35.04.03.02.09.03.09-.18-.05-.34-.16-.52-.22-.56-.19-1.28-.19-1.84,0-.12.04-.31.09-.37.22-.04,0-.09,0-.13,0Z"/>
  <path class="cls-6" d="M29.06,4.52c.14-.03.1.01.15.08.3.43.56.85.8,1.3h-.04c-.2-.31-.81-1.09-.91-1.39Z"/>
  <path class="cls-26" d="M14.13,35.87c-.37.49-.2.79.09,1.26,0,0-.01.05-.04.04-.14-.2-.39-.49-.39-.76,0-.17.06-.31.17-.44.06-.07.06-.12.18-.1Z"/>
  <path class="cls-6" d="M41.79,5.73c-.05.03-.12.07-.17.09-.37.14-.76.25-1.13.39v-.04c.19-.12.44-.23.7-.31.24-.08.35-.14.6-.12Z"/>
  <path class="cls-6" d="M19.84,39.03s.08-.03.13-.04c.03.1-.16.14-.22.15-1.19.31-2.84-.35-3.89-.87-.07-.04-.14-.04-.14-.15,1.39.59,2.53,1.29,4.11.91Z"/>
  <path class="cls-6" d="M45,19.55c-.03-.14.07-.07.15-.09.5-.15,1.02-.21,1.53,0,.05.02.42.21.44.23.02.03,0,.07,0,.08.03,0,.09-.02.12,0,.02.02,0,.07,0,.08h-.09s-.03-.06-.04-.09c-.17-.04-.2-.12-.32-.17-.45-.18-.8-.23-1.28-.13-.15-.11-.35.1-.52.09Z"/>
  <path class="cls-3" d="M8.5,20.46l.22.62c.16.07.2.47.26.55,0,0,.06,0,.08,0l.05.26c-.18-.02-.21-.08-.39-.17.11-.11.14.06.28.09,0-.03-.02-.17-.02-.17-.21-.23-.24-.46-.38-.77-.03-.07-.19-.15-.14-.31-.16.09-.36.14-.52.22.11-.08.28-.2.39-.26.03-.01.11.02.13-.04.02,0,.03,0,.04,0Z"/>
  <path class="cls-17" d="M40.49,6.21c-.81.31-1.68.73-2.5.98-.38.12-.53.2-.92.06.31.1.93-.09,1.21-.26.01,0,.03,0,.04,0,.07-.02.13-.02.17-.09.01,0,.03,0,.04,0,.17-.04.37-.13.52-.22.01,0,.03,0,.04,0,.07-.02.13-.02.17-.09.01,0,.03,0,.04,0,.25-.05.56-.17.78-.3.01,0,.03,0,.04,0l.09-.04s.03,0,.04,0c.1-.03.09-.04.17-.09.01,0,.03,0,.04,0v.04Z"/>
  <path class="cls-17" d="M26.08,5.34v.04c-.27.42-.52.92-.82,1.31-.37.48-.78.59-1.34.77l.04-.09s.03,0,.04,0c.07-.01.13-.02.17-.09.01,0,.03,0,.04,0,.31-.07.73-.29.91-.56,0,0,0-.03,0-.04l.04-.04s0-.03,0-.04c.1,0,.11-.06.15-.13.06-.09.15-.22.19-.3,0-.01,0-.03,0-.04l.04-.04s0-.03,0-.04c.1.02.09-.06.13-.13,0-.01,0-.03,0-.04l.04-.04s0-.03,0-.04l.04-.04s0-.03,0-.04c.1.02.09-.06.13-.13,0-.01,0-.03,0-.04l.04-.04s0-.03,0-.04l.13-.09Z"/>
  <path class="cls-17" d="M28.89,38.6c-.03.07-.17.31-.17.33-.01.06-.01.31,0,.37,0,.03.07.03.08.06.03.05.03.12.09.16.04.03.44.18.52.2v.04c-.16-.03-.31-.1-.48-.13-.01,0-.04-.06-.09-.09l-.13-.09s0-.03,0-.04c-.08-.27-.09-.27-.04-.56,0-.01,0-.03,0-.04.06-.08.16-.09.13-.22h.09Z"/>
  <path class="cls-3" d="M11.23,21.19c-.03-.18.1-.23.14-.31.07-.13.08-.27.22-.37.05,0,.69.39.71.43.08.14-.07.11-.12.15-.03.03-.04.08-.08.1-.33.19-.61.09-.96.18-.01,0,.03-.06.04-.09.2.04.92-.03.99-.24.06-.19-.05-.12-.11-.16-.15-.11-.28-.28-.49-.29.04.16-.1.2-.13.25-.1.17-.1.2-.22.36Z"/>
  <path class="cls-6" d="M17.81,18.68c-.1.04-.18.12-.26.17-.01,0-.06-.01-.08,0-.05.06.05.31.09.39.16.4.69,1.41.95,1.72-.02.07-.15-.09-.16-.1-.25-.44-.58-.96-.79-1.4-.07-.15-.08-.43-.22-.51v-.06c.11-.09.2-.12.31-.18.03-.02.03-.08.06-.09.06,0,.1.05.1.05Z"/>
  <path class="cls-17" d="M41.79,6.69l-.13-.04c.01-.18.08-.12.09-.16.02-.08.05-.51.05-.6,0-.13-.11-.04-.17-.06.06-.02.12-.05.17-.09.01,0,.03,0,.04,0,0,.31,0,.65-.04.95Z"/>
  <path class="cls-5" d="M41.83,10.8c.17.04.11.06.13.17.02,0,.06,0,.09,0,0,.03,0,.06,0,.09.11.04.09.04.17.13,0,.01,0,.03,0,.04l.52.69s.03.09.04.13c.07.2.25.36.26.61-.08-.05-.07-.14-.11-.21-.24-.38-.5-.79-.76-1.19-.07-.1-.08,0-.12-.2-.02,0-.06,0-.09,0,0-.03,0-.06,0-.09-.02,0-.05.01-.08,0-.03-.05-.03-.12-.05-.17Z"/>
  <path class="cls-6" d="M38.28,6.99c-.28.17-.9.36-1.21.26-.01,0-.14-.15-.17-.17.12-.05.12.07.16.08.39.12.84-.07,1.22-.17Z"/>
  <path class="cls-17" d="M31.4,6.56s.03,0,.04,0c-.3.31-.82.28-1.14,0-.04-.04-.03-.08-.03-.09.01.01.23.15.25.16.23.11.66.07.88-.08Z"/>
  <path class="cls-26" d="M31.4,6.56c-.21.15-.65.19-.88.08-.02,0-.24-.15-.25-.16,0,0-.03-.1-.04-.13.19-.04.14.15.24.21.14.09.45.1.62.07s.13-.06.31-.06Z"/>
  <path class="cls-6" d="M45,19.59c0,.55-.23.92-.82.74-.01-.02-.04-.06-.04-.09l.6.04c-.04-.13.17-.35.18-.37.02-.1-.05-.26.09-.32Z"/>
  <path class="cls-5" d="M45.51,19.46c-.11.02-.24.12-.39.09-.02.02-.03.29-.05.35-.01.04-.07.04-.08.07-.03.09-.07.26-.12.31-.17.17-.54.25-.71.04.6.18.83-.18.82-.74v-.04c.17,0,.37-.19.52-.09Z"/>
  <path class="cls-6" d="M18.63,11.45l-.39.56c.08-.23.05-.28.23-.48.05-.06.03-.11.16-.08Z"/>
  <path class="cls-5" d="M29.06,4.48s0,.03,0,.04c.1.29.71,1.08.91,1.39.09.14.11.29.26.39,0,.01,0,.03,0,.04.01.03.04.12.04.13-.35-.35-.57-.87-.83-1.27-.16-.25-.4-.51-.51-.76l.13.04Z"/>
  <path class="cls-6" d="M20.06,9.8l-.8.83c-.16.25-.38.48-.54.73l-.09.04c.21-.47,1.08-1.42,1.43-1.6Z"/>
  <path class="cls-17" d="M45,24.66s-.07-.06-.09.09l-.09.04s-.06,0-.08.01c-.02.04-.04.08-.05.12-.06,0-.11.03-.13.09-.01,0-.03.03-.04.04-.11,0-.12.07-.17.13-.01.02-.03.03-.04.04-.1,0-.17.09-.22.17-.27.14-.36.22-.59.38-.13.09-.34.23-.49.27.72-.5,1.39-1.06,2.12-1.56,0,.08-.07.13-.13.17Z"/>
  <path class="cls-26" d="M23.56,7.55c-.21.18-.53.25-.77.38-.17.08-.4.21-.57.32l.25-.21c.39-.18.68-.36,1.09-.48Z"/>
  <path class="cls-17" d="M36.47,36.13c-.21.8-.75,1.49-1,2.25,0,.01,0,.03,0,.04-.1-.03-.1.08-.13.17,0,.02-.03.04-.04.09-.1-.02-.1.06-.13.13,0,.01,0,.03,0,.04-.14.15-.3.28-.43.43-.01.01-.03.03-.04.04-.08-.02-.12.08-.13.09-.01,0-.03,0-.04,0,.07-.17.29-.26.42-.4.3-.34.55-.84.75-1.23.27-.54.47-1.19.78-1.65Z"/>
  <path class="cls-26" d="M26.9,4.09s-.22.41-.26.48l-.13.04c.09-.23.05-.13.17-.29.07-.1.05-.28.22-.23Z"/>
  <path class="cls-5" d="M43.74,19.68c-.07-.06-.13-.03-.21-.02-.58.14-.99.78-1.3,1.21-.12.17-.02.14-.22.28l.56-.89c.13-.07.15-.15.22-.24,0,0,.02-.01.04-.04.09.01.09-.05.13-.09s.05-.04.09-.09c.06,0,.11-.02.13-.09.03-.01.06-.03.09-.04.12-.05.24-.11.37-.13.12.01.09.11.11.13Z"/>
  <path class="cls-10" d="M12.83,20.28h.09s0,.07,0,.09c.09.03.1.09.15.09s.27-.1.33-.13l.03.05c-.22.08-.39.33-.51-.01-.15-.05-.04-.03-.09-.09Z"/>
  <path class="cls-26" d="M37.81,23.44c.07.06-.06.08-.09.1-.2.11-.33.22-.5.33-.05.03-.25.1-.31.15-.05.04-.05.19-.13.26.11.2.18.27.42.32l.62-.16c-.23.12-.39.25-.67.21-.3-.04-.59-.3-.36-.59.14-.17.8-.47,1.03-.62Z"/>
  <path class="cls-6" d="M20.84,23.23l.69.35c.07.14.28.15.39.22.41.59-.25.95-.74.61.27.05.56.11.78-.07.05-.15.06-.33-.07-.44l-1.05-.58s0-.07,0-.08Z"/>
  <path class="cls-26" d="M26.51,4.65c-.07.19-.36.48-.43.69l-.13.09c.13-.28.26-.42.41-.69.05-.08.01-.11.15-.09Z"/>
  <path class="cls-5" d="M14.86,23.75s.03,0,.04,0c.66.34,1.43.43,2.16.48l-.04.09c-.75-.04-1.91-.28-2.51-.69.12.03.22.09.35.13Z"/>
  <path class="cls-6" d="M41.57,20.07c-.05.1-.09.22-.16.33-.03.05-.09.17-.14.06.09-.13.15-.36.3-.39Z"/>
  <path class="cls-6" d="M12.18,27.04c-.15-.05-.35-.08-.49-.17-.05-.04-.03-.08-.03-.09.18.04.4.14.52.26Z"/>
  <path class="cls-10" d="M8.5,20.46s.06-.02.08,0c.04.04.09.3.13.37.13.28.26.5.39.82.03.06.17.08.1.27-.04.02-.08-.04-.09-.04l-.05-.26s-.08,0-.08,0c-.05-.08-.1-.48-.26-.55l-.22-.62Z"/>
  <path class="cls-26" d="M25.51,6.17c-.04.08-.14.22-.19.3-.04.07-.05.13-.15.13.07-.18.05-.09.12-.2s.05-.28.22-.23Z"/>
  <path class="cls-6" d="M40.1,6.3c-.22.13-.53.25-.78.3l.38-.21c.12-.06.28-.06.4-.1Z"/>
  <path class="cls-5" d="M19.84,39.03c-1.58.38-2.72-.32-4.11-.91-.01,0-.03,0-.04,0l-.22-.17c.3.05.74.37,1.04.5.67.29,1.39.49,2.1.63l1.23-.04Z"/>
  <path class="cls-6" d="M42.79,20.02c-.07.09-.09.17-.22.24l-.56.89c-.25.18-.44.48-.65.69l-.05-.08s.07,0,.09-.01c.43-.48.76-1.05,1.18-1.53.08-.09.05-.24.22-.2Z"/>
  <path class="cls-10" d="M28.67,38.86c-.04.29-.03.29.04.56-.17.01-.13-.31-.13-.41,0-.08-.04-.17.09-.15Z"/>
  <path class="cls-6" d="M20.01,22.58c.25.21.52.39.78.61l-.68-.4-.1-.2Z"/>
  <path class="cls-26" d="M43.91,19.85c.19.02.17.22.22.35-.16-.03-.17-.21-.22-.35Z"/>
  <path class="cls-6" d="M42.22,11.23c.13-.03.11.02.16.08.15.17.28.43.36.61l-.52-.69Z"/>
  <path class="cls-5" d="M39.02,28.29c-.05.04-.09.08-.13.13-.01.02-.03.03-.04.04-.11.05-.24.14-.29.25-.08.18-.12.77-.14,1.01,0,0-.03.02,0,.04.03.09-.07.08-.09.12-.01.05,0,.1,0,.14-.08-.05-.04-.16-.03-.23.02-.24.07-.51.12-.74.11-.52.13-.54.6-.76Z"/>
  <path class="cls-6" d="M41.23,27.17c.09,0-.05.11-.06.11-.69.33-1.36.75-2.06,1.08-.07.03-.13.07-.22.06.04-.05.08-.09.13-.13.75-.35,1.49-.72,2.21-1.13Z"/>
  <path class="cls-12" d="M3.52,17.42c-.13.15-.21.21-.35.35l-.04-.02c.1-.12.23-.33.39-.33Z"/>
  <path class="cls-26" d="M43.26,19.68c.1-.08.28-.19.41-.17.04,0,.22.17.23.19.03.05,0,.09.01.12-.07.02-.13-.07-.17-.13-.02-.03.01-.12-.11-.13-.13.03-.25.09-.37.13Z"/>
  <path class="cls-22" d="M18.72,11.36c-.27.42-.52.9-.78,1.3.07-.16.25-.45.3-.61,0-.01,0-.03,0-.04l.39-.56s0-.03,0-.04l.09-.04Z"/>
  <path class="cls-6" d="M15.55,16.78c.12-.1.27.12.33.17.08.07.07-.03.14.13.16.11.27.22.39.35.23.17.4.32.59.53.03.03.04.06.05.1l-.31.24-.2.03c.24-.16.52-.17.28-.47-.11-.14-.29-.31-.41-.44-.18-.13-.27-.1-.39-.35-.14-.09-.32-.2-.48-.3Z"/>
  <path class="cls-22" d="M32.61,5.65c-.26.32-.67.63-1.04.82v-.04c.06-.02.06-.04.09-.09.06,0,.11-.03.13-.09.01,0,.04-.03.04-.04l.09-.04s.09-.01.11-.04c.02-.02.01-.07.02-.09l.09-.04c.12.01.11-.07.13-.13.06,0,.11-.03.13-.09.02,0,.03-.04.04-.04.06-.02.12-.04.17-.09Z"/>
  <path class="cls-6" d="M15.29,37.91l-.49-.21s-.02-.08-.03-.09c.19.05.36.2.52.3Z"/>
  <path class="cls-26" d="M27.11,3.78c-.04.11-.09.24-.22.26.05-.13-.02-.25.22-.26Z"/>
  <path class="cls-6" d="M28.85,4.22c.23.01.17.13.22.26l-.13-.04c-.03-.06-.06-.15-.09-.22Z"/>
  <path class="cls-5" d="M21.96,8.46c-.38.26-.77.5-1.15.78-.19.14-.33.33-.58.48v-.04c.03-.05.08-.09.13-.13s.06.04.13-.13c.06,0,.11-.03.13-.09.01,0,.03-.03.04-.04.12-.02.2-.14.3-.22.06-.04.03.06.09-.09.09,0,.14-.08.22-.13.22-.14.45-.31.69-.39Z"/>
  <path class="cls-26" d="M23.95,7.38l-.04.09c-.1.03-.2.06-.3.09-.02-.14.24-.15.35-.17Z"/>
  <path class="cls-26" d="M9.88,25.13c.12-.03.14.16.17.26,0,0-.01.05-.04.04-.14-.14-.1-.16-.14-.3Z"/>
  <path class="cls-26" d="M25.12,6.73c-.18.27-.6.5-.91.56l.4-.23.15-.04.36-.29Z"/>
  <path class="cls-5" d="M17.46,17.08c.11.02.34.32.43.41s.23.2.31.31c.07.1.08.31.21.31v.08c-.12.01-.11.16-.2.26-.06.07-.27.22-.36.22.19-.24.49-.24.42-.62-.03-.17-.45-.57-.6-.71-.07-.07-.2-.18-.22-.28Z"/>
  <path class="cls-6" d="M27.89,3.18c.14.07.07.04.13.09.25.19.71.63.82.91-.07-.02-.1-.04-.14-.1-.22-.27-.45-.56-.68-.81-.01-.01-.12-.01-.13-.09Z"/>
  <path class="cls-17" d="M17.55,18.85c-.07.18.07.25.08.29.34,1.01,1.01,1.86,1.65,2.69-.25-.19-.45-.47-.65-.72-.08-.1-.12-.13-.13-.14-.26-.31-.78-1.33-.95-1.72-.03-.08-.14-.33-.09-.39.02-.02.07,0,.08,0Z"/>
  <path class="cls-15" d="M14.95,16.39s.09.06.13.09c-.05.11-.13,0-.17-.02-2.31-1.39-5.03-1.39-7.63-.87-.07.01-.14.06-.21-.02,2.55-.72,5.56-.47,7.88.82Z"/>
  <path class="cls-10" d="M29.24,38.21l.04.04c-.18.13-.29.13-.39.35h-.09c.03.13-.07.13-.13.22.01-.06,0-.14.04-.19.03-.04.09-.02.09-.03.06-.07.25-.33.32-.38.04-.03.11,0,.12-.01Z"/>
  <path class="cls-5" d="M33.35,5.04c-.15.18-.39.41-.61.52,0-.03,0-.06,0-.09.07-.03.12-.09.17-.13.07-.05.06.03.13-.13l.09-.04s.07,0,.08,0c.02-.03,0-.06,0-.08l.13-.04Z"/>
  <path class="cls-12" d="M45.51,24.22c-.1.14-.26.26-.4.4-.03.03-.05.16-.12.04.06-.04.13-.09.13-.17.13-.09.25-.19.39-.26Z"/>
  <path class="cls-6" d="M27.68,3.09s-.12.08-.13.09c-.07.09-.08.33-.26.35.09-.2.12-.21.26-.35,0,0-.01-.06,0-.08h.12Z"/>
  <path class="cls-17" d="M21.53,23.57c.1.03.28.08.36.13.05.04.03.07.03.08.55.3.06.82-.32.82-.1,0-.56-.17-.68-.22-.16-.07-.7-.45-.79-.47-.2-.03-.61.25-.84.13.15-.03.82-.22.88-.21.06.01.31.21.39.26.18.1.4.25.59.29.01,0,.03,0,.04,0,.49.34,1.14-.02.74-.61-.11-.06-.32-.08-.39-.22Z"/>
  <path class="cls-26" d="M27.24,3.57v.04c-.03.06,0,.11-.13.13.02-.07-.03-.18.13-.17Z"/>
  <path class="cls-5" d="M13.3,22.66s.03.04.04.04c.02.06.07.09.13.09.02.06.01.14.13.13l.09.04s-.01.06,0,.08c.02.02.06,0,.08,0l.13.09s-.01.06,0,.08c.01.01.06.01.08,0l.09.04s.02.03.04.04v.04s-.09,0-.15-.04c-.15-.1-.7-.53-.8-.65h.13Z"/>
  <path class="cls-22" d="M21.57,37.73c-.01.1-.17.19-.25.26s-.16.16-.27.18c.17-.17.31-.27.52-.43Z"/>
  <path class="cls-6" d="M14.13,23.31c.16.09.44.27.57.33.08.04.19-.04.16.1-.13-.04-.22-.1-.35-.13-.06-.04-.09-.08-.17-.13-.06-.03-.11-.07-.17-.09-.01,0-.02-.03-.04-.04v-.04Z"/>
  <path class="cls-12" d="M20.97,9.07c-.1.07-.18.2-.3.22,0,0,0-.06.01-.07.07-.06.21-.07.21-.18l.08.04Z"/>
  <path class="cls-6" d="M11.05,26.39c.12,0,.24.14.35.22-.06,0-.3-.11-.34-.14-.02-.02,0-.07,0-.08Z"/>
  <path class="cls-26" d="M33.61,4.78v.04c-.05.06-.17.07-.21.1-.02.02,0,.07-.01.07-.01.02-.03.03-.04.04l-.13.04c.05-.16.21-.2.35-.3,0,0,.03,0,.04,0Z"/>
  <path class="cls-12" d="M32.61,5.6v.04s-.11.06-.17.09c-.03-.13.13-.11.17-.13Z"/>
  <path class="cls-12" d="M4.34,16.82c-.11.07-.23.16-.35.22,0,0-.01-.05,0-.08.01-.01.27-.16.31-.18l.03.04Z"/>
  <path class="cls-26" d="M30.02,5.91c.09.17.13.18.22.39-.15-.1-.17-.25-.26-.39h.04Z"/>
  <path class="cls-22" d="M40.58,22.58c-.26.3-.6.51-.95.74l.95-.74Z"/>
  <path class="cls-6" d="M20.19,38.9s.02.07,0,.08c-.03.02-.12,0-.17,0,.02-.08.1-.09.17-.09Z"/>
  <path class="cls-6" d="M35.3,38.69s0,.09,0,.13h-.13c.03-.07.03-.15.13-.13Z"/>
  <path class="cls-10" d="M8.45,20.46c-.02.07-.1.03-.13.04-.05-.16.09-.05.13-.04Z"/>
  <path class="cls-26" d="M25.69,5.91c-.04.07-.03.15-.13.13,0-.03,0-.09,0-.13h.13Z"/>
  <path class="cls-6" d="M15.47,37.95l.22.17c-.17-.07-.15-.03-.35-.17.04,0,.09,0,.13,0Z"/>
  <path class="cls-26" d="M25.9,5.56c-.03.07-.03.15-.13.13,0-.03,0-.09,0-.13h.13Z"/>
  <path class="cls-26" d="M24.17,7.29c-.04.07-.1.07-.17.09v-.09c.06,0,.12,0,.17,0Z"/>
  <path class="cls-22" d="M26.64,4.56s.01.04-.01.08c-.16.23-.4.51-.55.75v-.04c.07-.21.37-.5.43-.69,0-.01,0-.03,0-.04l.13-.04Z"/>
  <path class="cls-6" d="M38.5,6.9c-.04.07-.11.07-.17.09v-.09c.06,0,.12,0,.17,0Z"/>
  <path class="cls-6" d="M20.36,38.77s.06.04,0,.07l-.13.02s.05-.09.13-.09Z"/>
  <path class="cls-6" d="M39.06,6.69c-.15.08-.35.18-.52.22v-.08c.18-.01.35-.09.52-.13Z"/>
  <path class="cls-12" d="M34.47,4.09c-.08.06-.15.16-.26.17,0,0-.02-.05,0-.08.02-.02.16,0,.19-.14l.06.04Z"/>
  <path class="cls-26" d="M43.18,19.72c-.02.06-.07.09-.13.09,0,0-.06-.04,0-.06s.1-.01.13-.02Z"/>
  <path class="cls-6" d="M39.28,6.6c-.04.07-.11.07-.17.09v-.09c.06,0,.12,0,.17,0Z"/>
  <path class="cls-6" d="M35.47,38.43c-.02.1.04.13-.13.17.03-.09.03-.2.13-.17Z"/>
  <path class="cls-6" d="M42.96,19.89s-.04.1-.13.09c.02-.02-.02-.1.11-.13l.02.04Z"/>
  <path class="cls-6" d="M35.17,38.86c-.03.06-.04.15-.1.2l-.33.23c.14-.15.3-.28.43-.43Z"/>
  <path class="cls-6" d="M40.45,6.17c-.08.05-.08.05-.17.09v-.09s.17,0,.17,0Z"/>
  <path class="cls-12" d="M33.74,4.65s-.08.09-.13.13c0,0-.03,0-.04,0,.03-.11.05-.16.17-.13Z"/>
  <path class="cls-12" d="M31.79,6.25c-.02.06-.07.09-.13.09,0-.01-.01-.07,0-.08.02-.02.1,0,.13,0Z"/>
  <path class="cls-22" d="M21.01,38.21c-.05.06-.08.11-.17.13.05-.06,0-.17.17-.13Z"/>
  <path class="cls-12" d="M44.69,24.92s.01.07,0,.08c-.02.02-.1,0-.13,0,.02-.06.07-.09.13-.09Z"/>
  <path class="cls-12" d="M44.52,25.05s0,.12-.17.13c.05-.06.07-.13.17-.13Z"/>
  <path class="cls-12" d="M3.91,17.12c-.08.08-.2.17-.3.22,0,0-.02-.05,0-.08.01-.01.26-.16.3-.14Z"/>
  <path class="cls-12" d="M39.8,22.06s.01.06,0,.08c-.03.02-.1,0-.13,0l.13-.09Z"/>
  <path class="cls-12" d="M39.58,22.23s.01.07,0,.08c-.03.02-.1,0-.13,0,.02-.06.07-.09.13-.09Z"/>
  <path class="cls-12" d="M39.41,22.36s.01.06,0,.08c-.03.02-.1,0-.13,0l.13-.09Z"/>
  <path class="cls-6" d="M34.69,39.34c-.11.14-.04.03-.13.09,0,0,.05-.11.13-.09Z"/>
  <path class="cls-12" d="M39.19,22.53s.02.05,0,.08c-.01.01-.12.03-.17.05.03-.08.09-.13.17-.13Z"/>
  <path class="cls-26" d="M10.19,22.58c-.01.08-.11.07-.13.09,0,0-.08.08-.09.09-.01.01.02.12-.09.09.07-.14.07-.07.09-.09,0,0,0-.05.02-.07s.06,0,.07-.02c.1-.09.07-.05.13-.09Z"/>
  <path class="cls-12" d="M44.3,25.22c-.08.08-.06.09-.22.17.05-.08.11-.17.22-.17Z"/>
  <path class="cls-10" d="M28.85,39.55s-.11.01-.13,0c0,0,0-.06,0-.09l.13.09Z"/>
  <path class="cls-6" d="M13.35,22.71s.11-.01.13,0c.01.01,0,.07,0,.09-.06,0-.11-.03-.13-.09Z"/>
  <path class="cls-6" d="M17.29,16.99s-.1.02-.13,0c-.02-.02,0-.07,0-.08.06,0,.11.03.13.09Z"/>
  <path class="cls-12" d="M32.4,5.78c-.02.06-.07.09-.13.09,0-.02-.01-.08,0-.09.02-.01.1.01.13,0Z"/>
  <path class="cls-12" d="M33.96,4.48c-.02.06-.07.09-.13.09,0,0-.01-.07,0-.08.03-.02.1,0,.13,0Z"/>
  <path class="cls-6" d="M10.62,26c.06.06.12.11.17.17-.14.04-.13-.07-.22-.15l.04-.02Z"/>
  <path class="cls-6" d="M11.61,26.74s-.09-.02-.17-.09c.08,0,.15,0,.17.09Z"/>
  <path class="cls-12" d="M20.62,9.33c-.02.06-.07.09-.13.09,0-.02-.01-.07,0-.08.02-.02.1,0,.13,0Z"/>
  <path class="cls-12" d="M34.13,4.35l-.13.09s-.01-.06,0-.08c.03-.02.1,0,.13,0Z"/>
  <path class="cls-6" d="M11.01,26.35s-.1.02-.13,0c-.02-.02,0-.07,0-.08.06,0,.11.03.13.09Z"/>
  <path class="cls-12" d="M21.27,8.85c-.07.05-.12.12-.22.13.05-.14.07-.06.2-.17l.02.04Z"/>
  <path class="cls-6" d="M13.78,23.05s.09,0,.13,0c0,.03,0,.07,0,.09l-.13-.09Z"/>
  <path class="cls-22" d="M17.29,35.27c-.09.18-.02.14-.17.33-.13.17-.18.26-.43.31-.29.05-.51-.09-.78-.15-.34-.07-.72-.14-1.06-.09-.22.03-.39.16-.58.2-.02,0-.04-.01-.06-.03v-.04c.47-.18.9-.24,1.4-.16.4.06.77.28,1.17.2.07-.01.09-.06.12-.08.02,0,.03-.03.04-.04,0,0,.05.01.09-.03.05-.05.16-.31.21-.4h.04Z"/>
  <path class="cls-26" d="M33.13,5.17l-.09.04s0-.06,0-.09c.09-.02.08.04.09.04Z"/>
  <path class="cls-6" d="M14,23.23s0-.03.02-.04c.1-.03.05.05.06.09l-.09-.04Z"/>
  <path class="cls-6" d="M13.61,22.92s0-.07.09-.04c0,.03,0,.06,0,.09l-.09-.04Z"/>
  <path class="cls-12" d="M20.36,9.54s-.1.08-.13.13l.04-.17.09.04Z"/>
  <path class="cls-26" d="M32.92,5.34c-.06.04-.11.1-.17.13.02-.05.09-.1.09-.17h.06s.02.04.02.04Z"/>
  <path class="cls-12" d="M32.14,5.99l-.09.04s0-.06,0-.09c.09-.02.08.04.09.04Z"/>
  <path class="cls-6" d="M17.42,17.08s-.04.06-.09.04c0-.03,0-.07,0-.09l.09.04Z"/>
  <path class="cls-12" d="M31.92,6.17l-.09.04s0-.06,0-.09c.09-.02.08.04.09.04Z"/>
  <path class="cls-12" d="M44.91,24.74s0,.06,0,.09c-.09.02-.08-.04-.09-.04l.09-.04Z"/>
  <path class="cls-6" d="M14.69,37.52s.03.03.04.04h-.13s0-.04,0-.04h.09Z"/>
  <path class="cls-12" d="M31.57,6.43v.04h-.04l-.09-.04s.1.01.13,0Z"/>
  <path class="cls-6" d="M13.3,22.66h-.13s-.03-.06-.04-.09c.03.02.12.06.17.09Z"/>
  <path class="cls-6" d="M40.23,6.25l-.09.04s.03-.03.09-.04Z"/>
  <polygon class="cls-6" points="27.81 3.09 27.72 3.09 27.79 3.05 27.81 3.09"/>
  <path class="cls-22" d="M31.53,6.51l-.02.04s-.04,0-.06,0c.03-.03.04-.05.09-.04Z"/>
  <path class="cls-26" d="M14.21,35.83h-.04s.03-.03.04-.04v.04Z"/>
  <path class="cls-26" d="M25.9,5.52s.04-.04.04-.04l-.04.04Z"/>
  <path class="cls-12" d="M39.84,22.02l.04-.04s-.03.03-.04.04Z"/>
  <path class="cls-6" d="M27.24,3.61v-.04h.04s-.04.03-.04.04Z"/>
  <path class="cls-26" d="M25.12,6.69s.04-.04.04-.04l-.04.04Z"/>
  <path class="cls-26" d="M25.51,6.12s.04-.04.04-.04l-.04.04Z"/>
  <path class="cls-26" d="M25.69,5.86s.04-.04.04-.04l-.04.04Z"/>
  <path class="cls-26" d="M25.73,5.78s.04-.04.04-.04l-.04.04Z"/>
  <path class="cls-24" d="M31.23,17.99s.03,0,.04,0l.19.2c.32.2.36.68.32,1.07-.01.15-.12.46-.17.63,0,.01,0,.03,0,.04-.18.07-.16.13-.22.26,0,.01,0,.03,0,.04-.21-.04-.14.2-.29.25l.03.05s-.07.03-.09.04c-.13.08-.07,0-.17.13-.01.02-.03.03-.04.04l-.17.05v.08s0,.04,0,.04h-.04c-.14.01-.27.12-.4.19-.06.03-.15,0-.12.11-.01,0-.03,0-.04,0-1.32.45-2.36.46-3.72.13-.01,0-.03,0-.04,0-.07-.14-.23-.14-.35-.17-.03-.01-.07-.01-.09-.04,0-.01.01-.08,0-.09-.02-.01-.27-.07-.34-.11-.04-.02-.04-.08-.08-.11-.18-.13-.42-.24-.54-.43-.03,0-.03.04-.04.04-.03,0-.06,0-.08,0,0-.15-.14-.14-.18-.17v-.04h.09s0-.09,0-.09l-.17-.09s-.03-.04-.04-.09c0-.03,0-.09,0-.13h-.13s0-.03,0-.04c-.07-.29-.2-.49-.22-.8s-.02-.82.17-1.06c.01-.02.03-.03.04-.04.13,0,.23-.08.36-.08.34.02.89.27,1.24.36.7.17,1.51.25,2.22.19,1.18-.1,1.74-.57,3.06-.38ZM27.55,19.5c-.25.12-.87.5-1.08.56-.03,0,.01-.04-.13.04-.02,0-.03.03-.04.04-.02.01-.1-.02-.13,0-.02.02,0,.07,0,.08-.02.03-.04.04-.04.04l-.15.04c-.05.04.02.08.02.09,0,.02,0,.03,0,.04,0,.02,0,.06,0,.09.04.02.08-.04.09-.04.1,0,.08.04.09.04-.02.1.18.13.25.16,1,.37,2.66.5,3.56-.16.15-.11.7-.58.78-.72.09-.17.14-.3.04-.45,0-.01.02-.06-.03-.09-.04-.02-.21-.05-.27-.06-.77-.18-2.23-.06-2.94.28Z"/>
  <path class="cls-4" d="M38.17,17.93s.08,0,.07.03l-.09.04c-.03.1.08.04.09.09.01.06.01.44,0,.5,0,.03-.33.52-.39.57-.22.24-1,.47-1.32.5-.86.07-2.4-.2-2.45-1.28-.05-1.23,1.62-1.54,2.57-1.44.44.04,1.07.34,1.37.67.1.11.09.2.15.31Z"/>
  <path class="cls-18" d="M38.54,10.41s.06-.03.08-.08c.07-.14.13-.42.31-.51.14-.07.38.02.47.13.07.09.05.17.09.25.32.61.45,1.1.6,1.78,0,.04.08.01.09.09.04.26-.07.25-.09.32-.02.05,0,.13-.02.18-.27.63-.97.79-1.54.43l.03-.06c-.28-.26-.47-.77-.43-1.14,0-.08.08-.06.09-.09.09-.42.16-.74.31-1.15,0-.01.23-.16,0-.16Z"/>
  <path class="cls-18" d="M40.28,14.83c.11-.12.19-.15.35-.11.31.07.35.48.46.71.19.37.53.95.57,1.38.02.2.01.72-.1.87,0,.01-.21.21-.23.22-.4.3-.87.28-1.27.05l-.2-.25c-.14-.31-.19-.67-.15-1.03.01-.08.08-.05.09-.09.14-.51.2-1.11.46-1.57,0-.01.26-.16.02-.17Z"/>
  <path class="cls-24" d="M34.52,15.13c.06.03.05.05.09.09.18.21.52.54.56.89,0,.08.02.22,0,.3-.04.19-.5.2-.66.15-.08-.03.04-.04-.12-.04-.01,0-.03,0-.04,0-.07-.19-.19-.31-.26-.52,0-.02,0-.06,0-.09-.04-.01-.1,0-.13,0-.01,0-.03-.03-.04-.04,0,0,.02-.05-.03-.09-.44-.36-1.1-.3-1.59-.07-.2.1-.5.36-.72.41-.16.04-.28-.08-.4.01-.05-.02-.09-.04-.13-.09.23-.02,0-.11,0-.11-.01-.06-.01-.19,0-.24,0-.03.06-.03.08-.07.02-.03,0-.08,0-.1.01-.02.18-.18.22-.22.01-.01.03-.03.04-.04h.13s0-.09,0-.09c.02-.01.03-.03.04-.04.41-.17.82-.35,1.28-.39.7-.06,1.08.08,1.67.39Z"/>
  <path class="cls-24" d="M23.39,13.96s.03,0,.04,0c-.02.1.05.09.11.12.07.03.33.15.36.18.03.03-.07.03.09.09.07.09.08.08.09.09.08.13.26.49.26.63,0,.34-.34.38-.62.32-.03,0-.04-.14-.16-.09,0-.01,0-.03,0-.04-.04-.19-.1-.14-.13-.17-.04-.05-.02-.03-.09-.09-.02-.02-.03-.02-.04-.04,0,0,.01-.07,0-.08h-.13s-.03-.03-.04-.05c0,0,.01-.05,0-.08-.01-.01-.23-.1-.26-.1-.49-.11-.72.05-1.07.33-.06.05-.15.02-.17.16-.39.1-.7.07-.65-.41.03-.22.17-.19.17-.37.03-.03.05-.05.09-.09h.13s0-.09,0-.09c.01,0,.03-.03.04-.04.23-.05.4-.19.65-.24.45-.1.91-.03,1.34.07Z"/>
  <path class="cls-23" d="M40.28,14.83c.25.02,0,.16-.02.17-.26.46-.32,1.06-.46,1.57-.01.04-.08.01-.09.09-.05.36,0,.72.15,1.03l.2.25s-.11,0-.16-.06c-.01-.01-.18-.23-.18-.24-.11-.23-.11-.6-.09-.85.03-.46.21-.84.35-1.25.08-.25.11-.51.3-.72Z"/>
  <path class="cls-5" d="M38.33,30.07c-.36,1.78-.84,3.51-1.48,5.21-.1.26-.22.61-.39.86.13-.49.31-.96.48-1.44.51-1.43,1.03-2.86,1.21-4.42l.17-.2Z"/>
  <path class="cls-17" d="M31.66,18.25v.04c-.11-.13-.23-.28-.39-.3-.01,0-.03,0-.04,0-.26-.17-.72-.15-1.02-.13-.53.04-1.08.29-1.62.38-.85.14-1.65.09-2.48-.09-.41-.09-1.24-.44-1.6-.36-.11.02-.11.05-.17.11-.01.01-.03.03-.04.04l-.13.04c.12-.29.51-.3.78-.24,1.17.25,1.8.58,3.1.5,1.04-.07,2.65-.9,3.53-.15.05.04.06.12.09.15Z"/>
  <path class="cls-23" d="M38.54,10.41c.23,0,0,.15,0,.16-.15.41-.22.73-.31,1.15,0,.04-.08.02-.09.09-.05.37.15.88.43,1.14l-.03.06c-.25-.16-.19-.16-.31-.4-.02-.03-.07-.04-.08-.07-.23-.56.14-1.59.39-2.13Z"/>
  <path class="cls-6" d="M30.06,21.24c-.46.28-1.04.32-1.56.43-.49-.04-.87,0-1.39-.09-.01,0-.03,0-.04,0-.25-.04-.52-.07-.74-.22,1.36.33,2.4.32,3.72-.13Z"/>
  <path class="cls-22" d="M43.83,17.21c.04-.73.03-1.75-.09-2.47h.04c.15.82.18,1.44.13,2.28,0,.08,0,.16-.09.19Z"/>
  <path class="cls-5" d="M19.8,26.09c-.12-.05.13-.07.14-.07.15.02.42.08.51.22.04.06.02.13.04.16.02.05.08.03.08.04.06.08-.06.08-.08.12-.47,1.12-.86,2.29-1.21,3.42-.04.13-.05.3-.09.42s-.05.06-.13.02c.38-1.25.79-2.41,1.31-3.6.21-.48-.08-.81-.58-.73Z"/>
  <path class="cls-22" d="M34.3,39.47c.02.09-.05.1-.11.13-.77.39-2.48.38-3.36.35v-.04c1.23.06,2.32,0,3.46-.43Z"/>
  <path class="cls-17" d="M15.47,27.99c.94.11,1.81.12,2.75.13.07,0,.19-.03.24.04-1.03.07-2.06.03-3.07-.17.03,0,.06,0,.09,0Z"/>
  <path class="cls-17" d="M29.32,34.96v.04c-.34-.11-.99-.05-1.36-.09-.61-.05-1.23-.14-1.84-.22.05-.08.16-.04.22-.03.42.04.85.13,1.27.16.57.05,1.14.02,1.71.13Z"/>
  <path class="cls-6" d="M24.3,17.94c-.19.24-.2.76-.17,1.06s.15.51.22.8c-.24-.17-.2-.51-.26-.75-.01-.04-.08-.01-.09-.09-.04-.33.04-.52.13-.8.02-.05.02-.12.04-.17l.13-.04Z"/>
  <path class="cls-6" d="M32.35,14.74c.73-.18,1.59-.12,2.16.39-.58-.3-.97-.45-1.67-.39-.45.04-.87.22-1.28.39.24-.18.48-.31.78-.39Z"/>
  <path class="cls-6" d="M21.14,14.35c0,.18-.14.15-.17.37-.06.48.26.51.65.41v.04s-.05.06-.12.08c-.28.06-.67-.08-.67-.4,0-.14.1-.35.2-.46.04-.04.1-.03.11-.04Z"/>
  <path class="cls-10" d="M24,14.35c.15.05.06.06.09.09.04.04.09.11.1.12.02.02.09,0,.11.02.07.06.05.36.18.41.05.11-.09.37-.17.45-.25.06-.46.07-.69-.04-.01-.01-.03-.03-.04-.04v-.04c.12-.05.13.08.16.09.28.06.63.01.62-.32,0-.14-.18-.5-.26-.63,0,0-.02,0-.09-.09-.16-.06-.05-.06-.09-.09v-.04c.08.08.06.09.09.13Z"/>
  <path class="cls-22" d="M29.32,34.96s.1-.02.16.01c.09.04.22.29.23.4.06.5.06,1.92,0,2.43,0,.05,0,.1-.03.14-.01.05-.07.07-.1.1.05-.07.03-.15.04-.22.1-.51.09-1.82.05-2.37,0-.09-.03-.1-.05-.15-.01-.03,0-.08-.02-.13-.03-.05-.11-.06-.15-.09-.05-.03-.02-.05-.13-.09v-.04Z"/>
  <path class="cls-17" d="M18.67,31.84c-.2,1.12-.9,2.38-1.39,3.42h-.04c.51-.97.95-2.13,1.34-3.15.04-.09,0-.23.09-.31,0,.01,0,.03,0,.04Z"/>
  <path class="cls-17" d="M24.13,18.16c-.09.28-.18.47-.13.8.01.08.08.05.09.09.06.24.02.58.26.75,0,.01,0,.03,0,.04.02.07.05.16.13.13.01.04.04.06.04.09.02.06.04.12.09.17v.04c-.53-.45-.7-1.25-.65-1.93,0-.11.02-.33.17-.2Z"/>
  <path class="cls-5" d="M30.66,20.93l.09.04c-.29.08-.53.31-.81.42-.35.15-.97.28-1.35.31-.01-.04-.05-.04-.09-.04.52-.12,1.1-.15,1.56-.43.01,0,.03,0,.04,0,.09-.03.17-.07.25-.12.08-.04.2-.12.27-.19h.04Z"/>
  <path class="cls-22" d="M12.57,22.32c-.2.07-.46-.07-.67-.09-.73-.06-.94.16-1.54.3.06-.12.24-.18.37-.22.56-.19,1.28-.18,1.84,0Z"/>
  <path class="cls-22" d="M19.02,24.09c.03.12-.06.09-.14.1-.54.1-1.3.15-1.86.12l.04-.09c.72.04,1.24,0,1.95-.13Z"/>
  <path class="cls-6" d="M23.39,13.96c-.44-.1-.9-.16-1.34-.07-.24.05-.42.19-.65.24.06-.04.08-.09.19-.14.52-.26,1.29-.32,1.8-.04Z"/>
  <path class="cls-5" d="M31.66,18.25s.06-.01.09.03c.03.03.2.35.2.39.09.6-.07,1.07-.42,1.54-.03.05-.1.09-.15.16-.02.03-.02.18-.11.04.07-.07.08-.06.13-.17,0-.01,0-.03,0-.04.12-.02.19-.15.22-.26,0-.01,0-.03,0-.04.22-.14.16-.41.22-.62.01-.04.08-.01.09-.09,0-.07.01-.32,0-.38,0-.03-.07-.03-.08-.06-.06-.24,0-.24-.18-.44v-.04Z"/>
  <path class="cls-5" d="M19.02,30.63c.07.12,0,.4-.05.53-.01.03-.07.04-.09.09-.07.21-.03.41-.21.59,0-.01,0-.03,0-.04.06-.38.23-.79.35-1.17Z"/>
  <path class="cls-5" d="M30.84,39.9v.04c-.47-.02-.97-.08-1.43-.17v-.04c.43.1,1,.15,1.43.17Z"/>
  <path class="cls-17" d="M32.53,15.69c.4-.15.69-.17,1.1,0,.16.06.14.06.19.17.03,0,.06,0,.09,0,.01.01.03.04.04.04.02.06.07.09.13.09.07.21.19.33.26.52-.15,0-.17-.23-.24-.34s-.2-.16-.27-.31c-.14-.02-.3-.18-.5-.21-.26-.04-.55,0-.8.08v-.04Z"/>
  <path class="cls-5" d="M43.44,13.61c.23.22.28.78.35,1.13h-.04c-.06-.34-.21-.78-.3-1.13Z"/>
  <path class="cls-5" d="M41.57,7.81c0,.57-.12.95-.13,1.52-.07-.08-.05-.27-.05-.37.02-.37.08-.75.09-1.12,0-.05.07-.02.09-.02Z"/>
  <path class="cls-6" d="M34.86,15.35c.18.31.23.34.35.7.01.03.07.03.08.06.04.17-.15.48-.33.52s-.44.02-.58-.12c.16,0,.04.01.12.04.16.06.62.04.66-.15.02-.08,0-.21,0-.3-.04-.35-.38-.69-.56-.89l.26.13Z"/>
  <path class="cls-17" d="M19.58,26.17v.09c-.08,0-.12.06-.16.12-.29.5-.45,1.1-.7,1.6-.02.03,0,.1,0,.14-.05,0-.1.04-.13.04l.69-1.7c.17-.1.12-.21.3-.29Z"/>
  <path class="cls-5" d="M32.35,14.74c.32-.18.86-.16,1.21-.11.39.06,1.11.4,1.3.72l-.26-.13s-.02-.05-.09-.09c-.58-.51-1.44-.57-2.16-.39Z"/>
  <path class="cls-22" d="M28.5,21.67s.07,0,.09.04c-.16.01-.34,0-.5,0h-.65c-.06,0-.22-.09-.33-.04v-.09c.52.08.89.05,1.39.09Z"/>
  <path class="cls-5" d="M17.94,12.66c-.11.17-.45,1.26-.52,1.52h-.04c.18-.65.29-.93.56-1.52Z"/>
  <path class="cls-5" d="M31.18,15.39s-.03.12-.04.13c0,0-.07-.01-.09.03-.09.16-.11.34,0,.49.04.05.08.07.13.09.47.18.9-.27,1.34-.43v.04c-.33.12-.62.44-.98.51-.34.07-.73-.21-.66-.57.13-.05.12-.2.18-.28.05-.06.11,0,.12,0Z"/>
  <path class="cls-5" d="M41.45,9.5c0,.21-.02.47.04.67.02.08.17.24.18.37-.31-.3-.32-.68-.3-1.1l.09.06Z"/>
  <path class="cls-22" d="M41.79,6.69c-.02.19-.1.37-.13.46-.02.07.03.19-.04.23.01-.24.02-.49.04-.74l.13.04Z"/>
  <path class="cls-22" d="M43.05,12.7c.12,0,.11.07.14.14.13.27.17.47.25.77-.04-.04-.36-.82-.39-.91Z"/>
  <path class="cls-22" d="M23.13,14.83s.03.03.04.04c.04.05.05.09.13.09.02.02.02.03.04.04v.09c-.29-.13-.34-.34-.71-.35-.43,0-.53.16-.84.35,0-.1.12-.17.2-.21.39-.24.74-.23,1.15-.05Z"/>
  <path class="cls-22" d="M25.86,21.15s.06.03.09.04c.06.09.24.15.35.17.01,0,.03,0,.04,0,.22.15.49.17.74.22-.06.08-.19.05-.27.03-.36-.09-.77-.28-1.07-.46h.13Z"/>
  <path class="cls-5" d="M15.47,27.99s-.06,0-.09,0c-.58-.07-1.14-.22-1.69-.39l1.78.39Z"/>
  <path class="cls-22" d="M24.3,15.43c-.11.11-.54.12-.66.04-.05-.03-.02-.08-.03-.09.24.11.44.11.69.04Z"/>
  <path class="cls-6" d="M24.86,20.46s.01-.05.04-.04c.12.19.35.3.54.43.03.02.04.08.08.11.07.04.33.1.34.11.01,0,0,.07,0,.09h-.13c-.19-.11-.58-.36-.73-.5-.06-.05-.09-.13-.13-.19Z"/>
  <path class="cls-6" d="M23.91,14.22v.04s-.29-.14-.36-.18c-.06-.03-.13-.02-.11-.12.15.03.36.16.48.26Z"/>
  <path class="cls-10" d="M21.62,15.13c.01-.14.11-.11.17-.16.36-.28.58-.44,1.07-.33.04,0,.25.09.26.1.02.02,0,.07,0,.08-.41-.18-.76-.2-1.15.05-.07.05-.19.11-.2.21-.05.03-.12.06-.17.09v-.04Z"/>
  <path class="cls-6" d="M31.4,20.24c-.05.11-.06.1-.13.17-.03.03-.11.12-.13.13l-.03-.05c.15-.05.08-.29.29-.25Z"/>
  <path class="cls-22" d="M41.57,7.81c0-.12-.04-.3.04-.39,0,.11,0,.22,0,.33,0,.04-.01.05-.04.06Z"/>
  <path class="cls-5" d="M33.61,4.82c-.07.09-.07.21-.22.17,0,0-.01-.05.01-.07.04-.03.16-.04.21-.1Z"/>
  <path class="cls-22" d="M23.56,15.26s0,.03,0,.04v.04c-.06-.06-.1.03-.13-.13l.13.04Z"/>
  <path class="cls-10" d="M23.35,15c.06.05.04.04.09.09.03.04.09-.02.13.17l-.13-.04s0-.09,0-.13c-.03,0-.07,0-.09,0v-.09Z"/>
  <path class="cls-6" d="M21.36,14.18v.08s-.13,0-.13,0c.07-.06.09-.06.13-.09Z"/>
  <path class="cls-6" d="M30.66,20.89v-.08s.17-.05.17-.05c-.05.06-.07.13-.17.13Z"/>
  <path class="cls-6" d="M31.53,15.17v.08s-.13,0-.13,0c.07-.07.11-.07.13-.09Z"/>
  <path class="cls-6" d="M31.36,15.3s-.21.2-.22.22c0,.01.01.07,0,.1-.02.04-.07.04-.08.07-.01.06-.01.18,0,.24,0,0,.23.1,0,.11-.12-.15-.09-.33,0-.49.02-.04.08-.02.09-.03.01-.01.01-.1.04-.13.05-.02.1-.09.17-.09Z"/>
  <path class="cls-6" d="M30.88,20.72c.1-.13.05-.05.17-.13-.03.08-.09.13-.17.13Z"/>
  <path class="cls-5" d="M14.34,23.49l-.02.04c-.07-.01-.12-.11-.15-.13.07.02.12.05.17.09Z"/>
  <path class="cls-7" d="M11.74,18.94c.3-.43.63-.85.86-1.31.24-.19.77-1.23,1.02-1.29.37-.08.63.17.45.53-.02.05-.23.23-.26.28-.51.77-1,1.52-1.51,2.27l-.3.34c-.19-.08-.46-.21-.65-.26.15-.17.27-.39.39-.56Z"/>
  <path class="cls-7" d="M7.72,19.85c-.36-.3-.61-.7-.91-1.05-.33-.38-.72-.77-1.04-1.15-.09-.11-.34-.38-.39-.47-.26-.45.27-.71.63-.34.31.3.62.79.92,1.12l1.34,1.55s.02.14-.17.09l.09.04c-.15.05-.33.14-.48.22Z"/>
  <path class="cls-15" d="M9.41,16.95c-.15,0-.12.03-.13-.11-.02-.23-.04-.51-.05-.74-.01-.36.03-.6.46-.59.31,0,.47.16.5.46.07.79.03,1.67.04,2.47,0,.27.08.54,0,.84l1.14.13c.1-.14.19-.28.27-.44.03-.05.04-.16.11-.04-.12.18-.24.39-.39.56-.95-.24-2.24-.2-3.16.13l-.09-.04c.2.05.16-.08.17-.09.03-.02.71-.15.81-.17.11-.02.21,0,.32,0v-2.3c0,.19.04.47.04.63v1.17c0,.1.09.31.04.45.03,0,.06,0,.09,0,.16,0,.32,0,.48,0,.04,0,.09,0,.13,0-.01-.88-.01-1.76-.04-2.64,0-.25-.09-.3-.09-.56h.09s0-.11,0-.11c-.01-.03-.09-.02-.09-.02-.02-.05.05-.16-.08-.19l.04-.11c-.21-.04-.22-.1-.43-.04-.15.04-.23.04-.26.24-.04.27.07.8.08,1.1Z"/>
  <path class="cls-2" d="M9.58,15.61c-.21.06-.18.32-.18.5.02.55.02,1.43.09,1.95.01.08.08.04.09.12.04.33-.04.76,0,1.11-.03,0-.06,0-.09,0,.05-.14-.04-.36-.04-.45v-1.17c0-.16-.03-.44-.04-.63,0-.03,0-.06,0-.09-.02-.3-.13-.83-.08-1.1.03-.2.1-.2.26-.24Z"/>
  <path class="cls-25" d="M38.41,29.77s0-.04,0-.04v.04Z"/>
  <path class="cls-14" d="M9.97,21.54c.06-.2-.07-.2-.13-.33-.1-.23-.18-.52-.27-.77-.01-.04-.14-.06-.08-.21.37-.03.71-.03,1.08,0,.04.12-.11.21-.13.25-.06.19-.11.35-.17.52-.06.16-.08.39-.22.5-.03.02-.02.05-.09.03Z"/>
  <path class="cls-13" d="M29.63,37.82v-2.51s.04.06.05.15c.05.55.05,1.85-.05,2.37Z"/>
  <path class="cls-4" d="M30.79,19.37c.1.15.05.28-.04.45-.08.15-.63.61-.78.72-.77.31-1.52.46-2.35.38-.53-.05-.97-.24-1.46-.38,0,0,.02-.04-.09-.04l-.09-.04s0-.03,0-.04c.11.03.09-.07.13-.13,0,0,.02-.02.04-.04.06,0,.11-.03.13-.09.02,0,.03-.03.04-.04l.13-.04c.22-.07.84-.45,1.08-.56.27.01.51-.11.77-.16.82-.16,1.68-.23,2.48.03Z"/>
  <path class="cls-6" d="M31.23,17.99c-1.32-.18-1.87.28-3.06.38-.72.06-1.53-.02-2.22-.19-.36-.09-.91-.34-1.24-.36-.13,0-.23.08-.36.08.06-.06.06-.09.17-.11.36-.08,1.18.27,1.6.36.84.18,1.64.23,2.48.09.53-.09,1.08-.33,1.62-.38.3-.02.76-.04,1.02.13Z"/>
  <path class="cls-10" d="M27.55,19.5c.72-.34,2.17-.46,2.94-.28.07.02.23.04.27.06.05.03.02.07.03.09-.8-.27-1.66-.19-2.48-.03-.26.05-.5.18-.77.16Z"/>
  <path class="cls-10" d="M29.97,20.54c-.9.66-2.56.53-3.56.16-.07-.03-.28-.06-.25-.16.49.15.93.34,1.46.38.84.07,1.59-.08,2.35-.38Z"/>
  <path class="cls-6" d="M31.27,17.99c.16.02.28.17.39.3.18.21.11.21.18.44,0,.04.08.03.08.06.02.07.01.31,0,.38-.01.08-.08.05-.09.09-.06.21,0,.48-.22.62.05-.18.15-.48.17-.63.04-.39,0-.87-.32-1.07l-.19-.2Z"/>
  <path class="cls-6" d="M31.62,19.94c-.03.11-.1.24-.22.26.06-.13.03-.19.22-.26Z"/>
  <path class="cls-6" d="M26.29,21.37c-.11-.03-.29-.08-.35-.17.12.04.28.03.35.17Z"/>
  <path class="cls-10" d="M26.12,20.28c-.04.06-.02.16-.13.13,0,0-.08-.04-.02-.09l.15-.04Z"/>
  <path class="cls-6" d="M24.52,20.07l.17.09v.09s-.09,0-.09,0c-.05-.05-.06-.11-.09-.17Z"/>
  <path class="cls-6" d="M24.34,19.85h.13s0,.1,0,.13c-.08.03-.11-.06-.13-.13Z"/>
  <path class="cls-6" d="M30.62,20.93c-.06.07-.19.15-.27.19-.09.04-.16.08-.25.12-.03-.11.06-.08.12-.11.13-.07.25-.17.4-.19Z"/>
  <path class="cls-10" d="M26.47,20.07l-.13.04c.14-.09.1-.04.13-.04Z"/>
  <path class="cls-10" d="M26.29,20.15c-.02.06-.07.09-.13.09,0-.01-.01-.07,0-.08.02-.02.11,0,.13,0Z"/>
  <path class="cls-10" d="M26.08,20.5s-.05.06-.09.04c0-.03,0-.07,0-.09l.09.04Z"/>
  <path class="cls-26" d="M31.18,16.13c.12-.09.24.03.4-.01.21-.05.51-.32.72-.41.49-.23,1.15-.29,1.59.07.05.04.02.08.03.09-.03,0-.06,0-.09,0-.06-.12-.04-.11-.19-.17-.41-.17-.71-.15-1.1,0-.44.16-.87.61-1.34.43Z"/>
  <path class="cls-26" d="M33.96,15.91s.09-.01.13,0c0,.03,0,.07,0,.09-.06,0-.11-.03-.13-.09Z"/>
  <path class="cls-10" d="M23.17,14.87h.13s0,.08,0,.09c-.08,0-.09-.04-.13-.09Z"/>
  <path class="cls-20" d="M9.58,15.61c.22-.06.22,0,.43.04l-.04.11c.14.03.06.15.08.19,0,.04,0,.09,0,.13,0,.27.08.31.09.56l-.13-.04.04.45v1.45s.06-.01.08,0c.02.02.02.46.01.54s-.15.09-.09.24c-.16,0-.32,0-.48,0-.03-.35.05-.77,0-1.11-.01-.08-.08-.04-.09-.12-.07-.52-.07-1.4-.09-1.95,0-.18-.03-.44.18-.5Z"/>
  <path class="cls-2" d="M10.14,16.65c.03.88.03,1.76.04,2.64-.04,0-.09,0-.13,0-.06-.15.08-.17.09-.24s0-.51-.01-.54c-.02-.02-.08,0-.08,0v-1.45l-.04-.45.13.04Z"/>
  <path class="cls-1" d="M10.06,15.95s.08,0,.09.02v.11s-.09,0-.09,0c0-.04,0-.09,0-.13Z"/>
</svg>