<?xml version="1.0" encoding="UTF-8"?>
<svg id="_레이어_1" data-name="레이어 1" xmlns="http://www.w3.org/2000/svg" viewBox="0 0 658.47 568.38">
  <defs>
    <style>
      .cls-1 {
        fill: #1b0301;
      }

      .cls-2 {
        fill: #2f1305;
      }

      .cls-3 {
        fill: #553101;
      }

      .cls-4 {
        fill: #d37e20;
      }

      .cls-5 {
        fill: #3f1b08;
      }

      .cls-6 {
        fill: #b16619;
      }

      .cls-7 {
        fill: #e86a00;
      }

      .cls-8 {
        fill: #67838c;
      }

      .cls-9 {
        fill: #5c3400;
      }

      .cls-10 {
        fill: #6995aa;
      }

      .cls-11 {
        fill: #361708;
      }

      .cls-12 {
        fill: #f68d0d;
      }

      .cls-13 {
        fill: #fbb537;
      }

      .cls-14 {
        fill: #eb6212;
      }

      .cls-15 {
        fill: #543101;
      }

      .cls-16 {
        fill: #2a0d03;
      }

      .cls-17 {
        fill: #faf7f0;
      }

      .cls-18 {
        fill: #573201;
      }

      .cls-19 {
        fill: #391f00;
      }

      .cls-20 {
        fill: #67838d;
      }

      .cls-21 {
        fill: #543000;
      }

      .cls-22 {
        fill: #fdfbf6;
      }

      .cls-23 {
        fill: #533000;
      }

      .cls-24 {
        fill: #fdfbf5;
      }
    </style>
  </defs>
  <path class="cls-9" d="M88.18,442.19c-.21-.03-.44.03-.65,0l.65-.65v.65Z"/>
  <path class="cls-9" d="M556.12,471.29v.65c-.45-.15-1.09.07-1.29-.65.39.09.91-.09,1.29,0Z"/>
  <path class="cls-9" d="M19.02,285.75c2.7-2.53,5.88-.26,9.02-.67-.26-4.05,2-3.72,5.21-4.16l-.65-2.92h1.93c-.44,3.64,2.19,4.99,3.87,7.46.91,1.35,1.86,2.1,1.96,2.24,1.12,1.58,2.35,3.33,3.23,4.53,1.24,1.67.6,2.51,2.59,3.23.24.09.73-.17,1.15.13.62.45,4.47,6.28,5.54,7.41,5.24,5.58,11.43,11.03,17.01,16.31,1.91,1.08,8.55-1.78,11.21-2.52.55,1.19,2.11.28,2.97.07,2.03-.48,4.27-.94,6.23-1.56,1.06-.34,2.11-.15,1.78-1.74.42-.04.88.06,1.29,0,20.01-2.69,35.55-1.22,55.58,0,.21.01.43,0,.65,0,.84.74,2.62,1.23,3.68,1.27.97.03,1.41-.63,1.49-.62.42.04.87-.05,1.29,0v1.29s1.29-.64,1.29-.64c24.6,4.43,55.42,22.88,67.22,45.25-1.96,1.91,1.02,3.68,1.4,4.77,1.03,2.94,1,6.73,1.83,9.8l-.64,10.65c-1.52,3.81-5,8.98-8.25,11.65-1.41,1.15-7.79,4.46-8.23,5.17-.77,1.25-1.02,5.99-1.68,7.89-6.35,18.07-25.41,26.45-43.24,30.58-21.67,5.01-44.55,5.1-66.58,2.9.37-2.09-1.05-1.08-2.26-1.27-3.04-.47-6.09-.28-8.73-.67-5.25-.78-11.79-2.62-17.02-4-.92-.24-2.29-1.26-3.02.12-12.25-4.01-25.68-12.6-32.08-24.14-.75-1.35-1-3.44-1.53-4.94-1.19-.11-.36,1.41-.81,2.42-.06.13-1.07.67-1.76,2.1-2.89,5.91-1.9,13.01-.17,19.24.18.64.8,4.14,2.11,2.09,7.96,17.15,31.14,24.09,48.8,25.21,8.2.52,18.65-1.42,26.17,1.3l4.51,4.22c-.03,5.48-.3,11.01-.63,16.47-.01.21.01.43,0,.65-.82,1.46-.95,3.83-1.22,5.57-.9,5.93-2.33,12.56-3.54,19.09-.17.94-.98,2.52.23,3.13-1.26,5.83-3.69,11.5-5.22,17.1-1.07,3.92-1.8,9.08.05,12.83.11.21,2.66,3.45,2.91,3.69,6.19,5.96,19.19,7.52,27.47,8.4-.36,1.98.99,1.22,2.23,1.29,13.07.72,24.46.75,37.52-.67,1.22-.13,2.61.79,2.25-1.27,5.02-.72,11.62-1.61,16.32-3.4,13.02-4.95,14.62-15.33,19.29-26.48,1.21-2.89,3.27-6.59,4.41-9.42,2.73-6.75,2.07-10.02,11.04-11.13h33.61c.8.12,1.13.61,1.29.65.67.17,2.69,1.85,3.23.65,6.89,2.82,5.55,8.71,7.16,14.37.9,3.15,3.23,8.29,4.47,11.49-3.49.18,0,2.26.19,2.74,1.79,4.25,2.79,6.56,5.59,10.36.26.36,1.79,1.68,1.97.48,9.92,9,25.85,10.5,38.78,10.99-1.15,1.76-.62,1.22.96,1.29,5.61.27,11.12-.14,16.49-.65.5-.05,1.55-.52,2.59-.65l5.81.64v-.63c-1.07-.03-2.15.01-3.23,0l15.52-2.25c7.78-1.35,20.43-5.59,20.7-14.86.16-5.55-2.03-9.04-3.97-14.05-2.32-5.99-4.87-14.56-5.75-20.56,4.5.1.7-2.17.65-2.37-1.79-8.38-.83-19.34-1.9-27.73-.16-1.24-1.24-.62-1.39-1.85-.88-6.95-.35-16.42-.6-23.64-.06-1.69-.53-3.16-.67-4.82l.03-23.62c2.32-2.54,4.24-3.52,7.76-3.88.67,1.07,2.45.64,3.55.66,5.71.07,11.43-.07,17.13-.02l-1.94-1.29c25.67-1.57,49.44-7.6,71.3-21.45,10.48-6.64,28.31-21.48,32.72-32.7,1.55-3.94,1.52-8.4,2.62-12.44.07,1.22-.72,3.03,1.29,2.58-.16-2.88.23-5.89,0-8.76-.16-1.98.32-1.66-1.94-1.58-1.1-4.79-3.85-5.4-7.46-7.75-.53-.35-.78-1.2-.94-1.3-15.15-8.9-44.25.83-59.46,7.11-.21.04-.43-.02-.65,0-.84.1-1.74-.08-2.59,0v1.29c-4.29.99-9.8,1.7-14.22,1.94-3.76-1.15-8.6-.7-12.61-.66-1.09.01-2.87-.41-3.55.66-6.77-.44-18.38-2.74-24.56-5.17v-1.29l1.29-.96c-4.21-1.88-2.1-5.39.64-7.78v-.95c-1.37-.09-3.32-2.11-3.87-3.24-.12-.26.08-.91,0-1.29.15-.09.46.09.65,0l.65-.65c.17-.09.47.08.65,0,.59-.27,1.56-.18,2.21-.68,1.29-1.01.87-2.65,3.94-3.83l.97.97-1.3,2.89c3.03,1.5,6.93,2.38,10.2.84,1.74-.82,1.53-3.62,3.12-3.92l6.07,1.8c-.62.71-.87,2.26-1.66,3.19-.88,1.04-3.42,2.78-4.8,3.29-.16,1.17,1.23.48,1.93.64-.37,2.04,1.01,1.1,2.22,1.3,23.36,4.02,40.32-6.41,62.41-11,7.12-1.48,13.88-1.95,21.33-1.94,2.73,1.68,6.46,1.5,9.7,2.26,5.88,1.36,10.41,3.41,15.68,6.15l1.12,1.29c.99.71,4.29,2.82,4.95,3.45.8.76,1.98,3.5,2.62,3.67,4.15-.27,8.31-.44,12.47-.65,3.51-.18,6.6-.67,10.34-.65l.33,1.3h1.61s0-1.3,0-1.3c3.34.06,7.52.44,10.99.65,4.71.28,10.01.52,14.59,1.28,1.21.2,2.59-.73,2.22,1.3-.09,0-.73.68-1.59.7-1.85.06-3.88-1.24-5.73-.61-1.86,1.04-1.65,2.68-1.09,4.43-4.73-.57-7.88.8-5.82-5.81h-1.93c.65,4.25-4.69,4.58-7.76,3.87.83,1.64-1.31,4.04-1.2,4.74.12.77,1.58,1.17,1.19,2.37h-5.81c-.47-1.8,1.4-1.56,2.58-1.95l-.3-1.95c-1.04-1.51-6.38,1.76-8.74.02v1.93s4.37.48,4.37.48l.8,1.46c-1.59-.25-3.94.38-5.36.02-.77-.2-.52-2.52-3.36-1.97-.66.13.05,1.46-.7,2.01-1.7,1.24-5.12-.24-6.73,1.23v.65c-.43,3.89-.29,8.92-1.27,12.62-.31,1.19-1.11.93-1.27,1.45-.44,1.46-.46,3.73-.7,5.33-6.23,10.38-10.24,17.09-18.97,26.28-.81.85-3.74,2.43-4.11,3-1.4,2.15-1.37,13.51-2.13,16.83-.33,1.42-1.44,4.13-1.93,6.91-.23,1.28-.43,2.6-.65,3.88-.04.21.04.44,0,.65-1.33,7.53-2.5,14.68-3.88,22.63-.48,2.78-1.18,2.66-1.27,3.04-.33,1.34-1.74,12.62-1.31,13.12,15.1-5.14,29.18-7.49,45.24-6.46-.53,1.76,2.23,1.55,3.25,1.65,1.2.12,2.24-.2,3.25-.06,6.59.87,13.73,3.2,19.36,3.59.21.01.43-.02.65,0l26.79,8.47c1.35,1.97,4.24,1.65,5.27,2.45,1.2.94.72,3.06.93,3.27.89.91,9.86-1.52,10.96,1.32-.61,1.95-.9,4.82-2.59,5.82l.32-2.59h-.96c-.08.85.1,1.75,0,2.59-.18,1.49-1.59,2.11-3.23,2.59-7.86,2.26-18.13-3.16-25.85-5.82-2.66-.92-5.42-2.61-8.4-3.23-.57-.12-1.38.13-1.94,0-19.2-6.3-42.59-9.16-62.03-2.23-1.43.51-1.72-.01-.66,1.59-2.17.57-4.31,1.38-6.46,1.94-.73-1.37-2.1-.37-3.02-.12-7.36,2-14.54,2.37-21.54-1.18-3.56-1.8-7.37-5.78-11.08-7.99-9.74-5.82-20.37-6.84-31.58-6.23-6.82.37-15.5,1.81-22.22,3.31-2.09.46-9.23,1.9-10.1,3.15-.92,1.32-.44,2.6-.65,3.88-.8,5.02.46,4.17.7,6.1,1.43,11.69.73,23.99,4.48,34.96l.64-.33c.11.44.44,1.22.65,1.94-1.24.84-.51,3.2-.1,4.29,2.09,5.56,5.9,10.71,6.56,17.05.21,2,.28,6.49,0,8.4-.36,2.5-3.31,8.2-4.9,10.29-.46.61-3.63,2.05-2.21,3.28-2.44,3.21-6.21,4.78-9.69,6.46-.47-1.2-1.99-.08-2.7.21-10.9,4.4-19.97,5.44-31.55,6.26-14.05.99-27.97,1.06-42.01-.65-8.21-1-15.02-2.15-22.79-5.32l-6.94-3.08c-4.58-3.01-6.83-4.98-10.34-9.05l-3.86-7.93c-2.9-2.51-3.51-7.57-5.83-10.82-.56-2.95-1.46-4.16-1.89-5.67-.49-1.73-.84-7.3-1.98-8.27-.39-.31-.86-.22-1.31-.29-2.93-.46-12.82-.39-15.91-.04-.94.11-.9.12-1.55.68-1.53,1.34-1.13,4.43-1.95,5.97-1.89,3.54-2.95,6.32-4.51,10.19-1.87-1.24-1-.48-1.47.8-3.79,10.2-8.41,17.35-17.75,23.61-1.7,1.14-.5.7.48.79-3.27,1.97-5.39,3.16-9.05,4.53l-15.93,3.14c-5.03.88-10.05,1.04-15.1,1.38-26.32,1.77-57.5,2.65-78.21-13.58-.09-.19.21-.79-.15-1.15l-1.15-.14c-2.18-3.95-4.53-7.25-5.1-12.03-.53-4.49.16-10.24.58-14.48.27-2.73.7-5.45,1.29-7.76,2.33.22,1.61.16,2.04-1.49,2.19-8.45,5.8-20.22,6.55-28.39.1-1.13,1.38-2.06-.83-1.8l1.29-10.34.32-.65c-6.48.18-12.93-.79-19.37-1.33-1.03-.09-2.94-.31-3.57.68-1.48-.2-3.06-.38-4.52-.65.38-1.82-.9-1.22-2.04-1.49-13.24-3.05-29.12-8.12-38.96-17.97-.4-.4-.57-2.57-1.66-.58-2.18-2.16-4.71-4.63-6.46-7.11,3.46-.3-.19-1.67-.57-2.31-.77-1.28-.93-2.9-1.42-4.3l-3.18-3.74c-.21-.89-.59-2.42-.65-3.23-.27-3.83.14-9.6,0-13.93-.04-1.24.66-2.59-1.29-2.23,1.36-7.92,4.3-14.38,8.38-21.17,2.69-4.47.06-3.64-1.28-5.82-5.11-8.33-4.98-12.69-2.76-21.93.17-.69-.53-1.69-.46-2.15,1.37,0,1.39,1.45,2-.24.79-2.22,2.54-6.75,3.67-8.65.7-1.18,4.21-2.9,2.73-4.68,2.2-2.55,4.39-5.2,7.11-7.76.04,1.13,1.94-.5,2.08-.65,2.52-2.52,4.35-3.78,7.29-5.81.23-.16,2.26-1.72.97-1.95,3.77-2.62,7.64-5.21,11.88-7.07l.4-1.32-11.41-9.29-1.52-2.36c.34-2.69-4.7-5.14-5.76-6.85-.71-1.14-.44-2.78-.84-3.35-.28-.4-5.56-4.71-6.97-6.61-.68-.91-.19-2.88-1.93-2.6l1.9-1.68-.56-2.45-2.64-.38c-.11.4.11,1.01,0,1.29-2.29-1.91-3.65-4.58-5.17-7.11ZM33.89,294.8l-3.88.65c.46,2.17.72,7.49,3.81,4.1l.07-4.75ZM116.62,325.83c-.66-1.29-2.26-.44-3.22-.33-6.76.76-14.05,1.39-20.55,3.39-1.37.42-1.97-.34-.79,1.47-16.58,4.12-23.23,9.6-37.49,16.16-2.99,1.38-7.11,4.3-9.05,7.11-1.31,1.9-2.16,2.32-3.01,3.45-2.39,3.16-7.54,10.72-8.01,14.29-1.06,8.01,1.18,12.54,7.86,16.77,5.07,3.21,9.96,3.73,15.44,4.28-1.15,1.75-.63,1.23.96,1.29,3.65.15,8.98-.57,12.26.03,1.1.2,3.77,2.03,4.88,2.55,3.76,1.79,7.53,4.18,11.63,5.17l-.36.68c5.52,1.08,11.12,1.62,16.76,1.18.81-.06,4.86-.16,4.28-1.86,2.69-.5,5.14-1.21,7.76-1.94,2.06,1.77,4.32-1.13,6.67-1.09s5.62,2.19,8.05,2.84c11.36,3.02,29.58,3.41,37.63-5.63.44-.5.54-1,1.32-1.57,3.68-2.72,11.15-.75,16.13-1.01-.26,2.22.68.94,1.8.84,4.08-.35,10.29-1.56,13.87-3.59,2.27-1.29,1.06-1.68,1.13-1.78,1.31-1.8,2.68-2.28,3.79-3.64,2.9-3.57,3.65-6.93,3.31-11.54-.58-7.78-7.82-13.47-10.97-19.73-.69-1.37.1-1.32-2.59-1.94-.24-.19-.42-.45-.65-.65l-6.65-6.28c-.48-.46-1.5-.03-1.75-.18-21.91-12.65-44.84-19.35-70.45-18.75ZM406.82,427.33c-7.11.84-14.04,1.87-21.33,1.29l.65,19.39,6.46-1.94c3.62-.23,4-.5,7.11-1.29,8.87-.84,17.57-2.06,26.5-1.94.65,0,1.3-.03,1.94,0,6.91.28,13.42,1.27,20.04,3.23,6.09,1.81,10.13,3.86,15.51,7.11.68.41,3.47,2.39,3.87,1.94l3.27-17.63c2.18-3.48,2.25-9.99,3.2-14.69s1.98-12.34,3.26-16.99c.19-.68,1.31.05,1.26-2.08-.05-2.39-1.75.02-2.66.57-21.14,12.66-44.66,20.15-69.08,23.03ZM190.3,405.99h-12.6c-3.92,0-5.4,2.35-8.95,3.98-12.25,5.63-26.96,5.52-39.98,2.94-1.83-.36-5.99-2.27-7.19-2.23-1.87.06-6.53,2.15-8.94,2.65-11.43,2.35-29.44,1.75-39.91-3.83-.9-.48-5.2-4.15-5.55-4.15h-12.28c-.14,0-.72-.96-.96-.65,4.14,14.61,22.43,20.2,36.04,22.45,23.74,3.93,84.82,5.95,99.01-17.76.34-.57,1.68-3.07,1.31-3.39Z"/>
  <path class="cls-3" d="M572.93,102.15c4.1,2.86,8.04,6.91,10.99,10.99-1.17.64.71,3.7,1.11,4.35,1.2,1.94,3.75,5.07,4.65,7.15.96,2.22,1.78,7.21,2.63,8.74.43.77,1.13.33,1.3.45.33.23.26,1.19,1.46,1.16,5.69-1.41,11.51-2.8,17.28-3.75,1.51-.25,3.01-.44,4.52-.65,2.93,1.1,6.01-.14,9.37.01,2.5.11,5.53,1.12,8.08,1.28,1.46.09,2.73-.7,3.51-.66.38.02.27,1.14.82,1.29,1.65.46,3.15.12,5.37.99,4.83,1.89,11.71,8.43,13.52,13.11,1.58,4.08.83,9.09.05,13.07-1.86-.36-1.16,1.02-1.47,2.05-1.52,4.94-2.75,7.3-5.36,11.51-.21.34-3.84,1.62-.28,1.95-4.56,6.25-10.43,11.84-16.16,16.81-.25-1.23-1.85.36-2.25.66-.81.62-2.85,1.99-2.96,2.87-.32,2.53,1.15,1.22,1.76,1.81s1.97,3.79,3.45,2.42c4.95,4.79,9.42,8.76,13.57,14.22-1.23.44.78,3.18,1.12,3.69,3.98,5.96,7.15,12.82,6.62,20.54-.21,3.01-1.48,7.62-3.22,10.03-4.76,6.59-15.28,10.9-23.27,11.64-4.71.44-12.66-.06-17.45-.65-4.92-.6-10.31-2.08-15.15-3.27-1.93-.47-3.01-2.11-4.88-.61-1.61,1.28-1.26,3.17-1.99,4.66-1.01,2.05-2.11,4.28-3.16,6.55-.08.17-3.49,1.43-.02,1.72-3.81,6.56-9.12,13.07-15.51,17.45l-8.22,3.74c-6.5,2.43-12.18,2.67-18.95,1.14-3.79-.86-6.6-3.07-10.32-3.58-1.87-1.25-4.82-3.67-6.46-5.17-.66-2.97-4.23-5.35-5.82-7.61-1.85-2.63-5.54-9.26-6.65-11.94s-1.37-5.55-2.48-8.16c-.77-.5-11.41,2.13-13.49,2.51-14.25,2.59-28.8,3.94-41.94-3.64l-4.6-3.48c-2.45-2.78-2.32-2.4-3.93-5.96-.63-1.38-1.51.71-.59-3.09.95-3.93-.35-1.97-.63-3.02-.9-3.33,1.17-3.51,1.26-3.89.74-3.16.76-6.77,1.85-10.31.23-.75,3.34-1.98.11-2.17,1.92-3.87,4.86-7.32,7.11-11.14l16.75-16.43c-5.47-6.39-12.68-11.81-17.4-18.98,1.09-.18-.16-2.07-.42-2.52-3.67-6.45-7.25-11.97-7.3-19.88,0-1.66.62-6.24,1.14-7.74.47-1.34,3.95-4.08,3.34-6.7,1.22-1.23,3.65-2.86,5.17-3.88,2.9-.47,5.51-2.26,8.26-3.05,7.16-2.06,16.4-1.83,23.41-1.48,2.76.14,4.04.45,6.46,1.29,1.98.68,16.66,4.33,17.37,3.8-.14-1.73,1.69-2.38,1.97-3,3.75-8.09,6.72-16.36,13.61-22.45l3.88-4.85c.26-.2.48-.75,1.29-1.29l10.05-3.84c5.92-1.72,11.87-1.75,17.88-.5l10.2,3.7ZM569.69,120.9c-.41.06-.85.03-1.26-.02-2.75-6.03-9.57-10.67-16.48-9.63-7.51,1.13-11.91,8.59-15.23,14.18-2.47-2.11-2.78,2.66-3.69,4.36-.37.68-1.17.78-1.42,1.33-3.11,6.79-4.16,7.68,2.53,10.47,2.85,1.19,5.52,1.58,8.12,2.55,2.91,1.08,6.72,3.76,9.83,4.44,1.04.23,1.67-.5,2.09-.52.08,0,.5.73,1.4.53l21.86-9.58c.09-.12-.07-.43,0-.65.68-2.21-.38-5.61-1.34-7.9-.23-.56-2.45-4.55-3-5.51-.71-1.23-2.94-2.37-2.79-4.7-.47-.11-.54.64-.63.65ZM465.64,147.4c-.34.54-.43,1.41-.7,2.06-.44,1.06-1.83.57-1.29,4.13.18,1.17,1.14.84,1.3,1.41,2.39,8.87,3.33,10.57,9.06,17.79.28.35,1.8,1.67,1.97.47,1.26,1.43,10.52,10.73,11.3,10.8l15.16-9.25.68-1.55,1.29.65c.2-1.47-.31-3.36.02-4.73,1.14-4.75,3.11-11.59,4.46-16.45.4-1.43,1.16-4.83.05-5.97-2.15-2.2-17.67-4.19-21.33-4.53-4.17-.38-8.69-1.19-13.09-.49-3.86.61-6.89,2.46-8.88,5.66ZM613.64,144.82c-3.37.34-9.62.97-12.63,1.89-.21.07-2.75,1.84-2.89,1.99-.6.63-.65.37-.62,1.49.05,1.65.9,8.12,1.28,9.69.32,1.33.9,1.76,1.28,4.97.35,2.96.32,5.97.69,8.68.57,4.13,3.82,4.2,6.74,6.19,2.77,1.89,5.65,3.9,8.13,6.18,1.03.53,1.04-.3,1.24-.37.78-.25,1.29-.39,2.02-.86,3.97-2.56,11.65-10.11,14.79-13.86s7.8-11.75,7.81-16.63c0-4.34-.6-3.8-3.01-6.11s-2.05-2.5-6.1-3.26c.37-2.09-1.05-1.08-2.26-1.27-4.93-.77-8.66-.41-13.62-.06-1.2.08-2.42-.15-2.87,1.33ZM533.5,156.46l-9.05-3.24-1.29,9.05c.36.38,8.37-3.9,9.42-4.47.63-.34,1.24.35.92-1.34ZM581.33,153.22c-3.34.02-7.88,2.74-10.98,4.21,4.22,1.3,6.69,4.18,10.34,6.14,1.53.82,2.96,2.77,3.9-.32l-1.31-10.03c-.64-.02-1.29,0-1.94,0ZM519.93,181.67l-.65-.32c.69,7.79-.91,17.03-.03,24.62.09.78-.14,1.08.68,1.56,10.42,5.97,21.06,11.92,31.99,16.87l31.35-15.89c1.16-1.13.46-2.84.64-4.21l1.29,3.88-.13-26.04-1.88-2-5.09-1.69c-8.42-4.94-17.16-9.86-26.12-13.57-11.06,4.81-21.83,10.42-32.04,16.8ZM503.12,213.99l-16.16-10.68c-4.01,3.99-8.84,7.44-12.69,11.55-3.2,3.41-8.71,10.46-10.24,14.65s-1.85,8.43,1.61,11.63c1.26,4.55,9.16,5.62,13.22,5.84,3.99.21,25.92-2.65,28.16-4.85,1.64-1.62-.32-6.31-.58-8.51-.47-3.99-1.28-7.27-2.01-10.38-.58-2.44.19-7.06-.67-9.9l-.64.65ZM610.41,209.46c-1.53.88-9.89,5.14-10.24,6.24-.64,1.97,1.02,4.26-1.38,5.19l-1.3,15.08c-.48,1.91-.9,3.88-1.29,5.82-.07.36-.88,1.09-.65,1.29,5.35,1.2,10.48,2.95,15.92,3.8,1.55.24,4.68.84,6.05.09,2.83.39,5.78,1.08,8.77.7.33-.04,3.33-1.65,5.45-1.99.08-.01.51.77,1.42.55,3.36-.8,4.96-3.84,6.35-6.54.21-.41,1.14-.39,1.26-.92.21-.95.21-4.61-.01-5.55-.04-.17-1.91-2.82-2.56-2.4-1.7-6.73-8.98-15.05-14.19-19.75-1.24-1.12-6.85-5.7-7.98-5.4-1.6,1.91-3.63,2.67-5.62,3.81ZM522.51,226.27c-.4-.07-.87.03-1.29,0,.17,1.48-.31,3.36.01,4.73.06.24,2.47,1.7,1.28,4.32.14.25,1.06-.65,1.29-.65.11,0,.57.72,1.43.54,2.18-.46,6.68-2.19,8.27-3.77-3.57-.02-7.9-4.64-10.99-5.18ZM570.34,232.74c-1.06-.42-2.18-1.65-1.94.64,3.43.18,7.07,3.1,10.15,3.77.97.21,1.02.42,1.49-.53.08-.15-.06-.43,0-.65,2.05.37,1.09-1.02,1.3-2.22.35-1.95,1.48-5.11-.01-6.83l-10.99,5.82ZM567.11,267.65l.59.64c3.19-4.54,5.11-9.04,7.22-14.35.24-.6,2.56-1.89,1.6-3.75l-24.58-10.26-25.51,10.02c-.08.27,1.07,4.98,1.3,5.56,1.62,4.04,5.23,8.72,7.05,12.94l2.59,1.78c3.92,4.4,6.56,5.39,11.8,7.15.57.19.47,1.14.92,1.25,1.67.4,8.66-2.69,10.24-3.87,2.06-1.54,4.45-5.48,6.77-7.12Z"/>
  <path class="cls-15" d="M196.76,7.12c17.26,9.34,35.65,32.96,50.73,46.55.6.54,1.29.95,2.06,1.2.45.04,5.7-5.18,6.44-5.96,11.12-11.62,19.93-22.93,31.9-33.39.2,1.2,1.98-.36,2.29-.65,6.79-6.44,13.91-11.98,24.56-11.66l9.34,1.97c5.11,2.56,9.06,6.66,10.99,12.28,1.64,4.79,3.8,10.73,5.11,15.37s1.37,10.82,3.93,13.72c1.31,1.48,1.71,5.65,1.94,7.76.7,6.37,2.52,11.37,3.88,17.45.24,1.09.44,2.14.65,3.23.48,2.55.29,8.05,1.91,9.89.27.31,5.51,2.83,6.52,3.31.37.17.59-.28.62-.27,18.37,9.13,39.6,28.32,52.35,43.96-1.33.3.1,1.97.48,2.43,14.87,17.67,22.76,37.94,28.6,59.63.18.68.45,1.29.65,1.94-2.58,2.37-.09,1.74,0,2.36,1.25,8.66,1.11,22.08.67,30.96-.23,4.69-1.21,8.58-1.32,12.58-.09,3.38-1.35,8.55-2.59,11.64-3.28,8.18-5.96,16.95-10.16,25.04-3.21,6.19-7.93,12.18-11.82,18.11-.81,1.24-1.12,3.09-2.52,3.96l.59.73c-4.76,5.87-10.04,9.35-14.87,14.87l-6.07-1.8c-1.59.31-1.38,3.11-3.12,3.92-3.27,1.54-7.16.66-10.2-.84l1.3-2.89-.97-.97c-3.08,1.18-2.65,2.83-3.94,3.83-.65.51-1.62.41-2.21.68.02-1.28.8-1.81,1.62-2.58,13.62-12.71,24.81-24.58,33.93-40.73,1.5,1.8,1.13-.12,1.45-.78,2.91-6.02,5.19-9,6.3-15.38.69-3.97,2.15-9.62,3.88-12.28l.64.33c.46-6.1,3.22-11.92,3.24-17.78-.24-9.11.52-18.47-.59-27.52-.15-1.19-1.19-.83-1.33-1.37-.32-1.18.93-4.55-1.31-2.79-6.16-36.89-33.45-70.62-64.95-91.8-4.83-3.25-19.84-10.37-22.3-14.22l-1.32-11.82c-2.05-1.85-1.84-6.74-2.53-9.89-.37-1.67.58-1.77-1.96-1.56-1.28-5.73-1.52-12.68-3.88-17.45,1.81.41,1.44-1.16,1.34-2.31-.18-2.07-1.12-1.48-1.28-2.07-.63-2.27-.85-4.93-1.36-7.26-.5-.17-.53.63-.64.65-.42.06-.87-.03-1.29,0-.51-3.33-1.01-7.3-2-10.48-.16-.52-1.03-.59-1.18-1.01-2.15-5.95-2.37-12.44-10.7-7.24-10.57,6.58-25.72,25.47-34.68,35.12-4.67,5.03-12.09,14.67-18.15,16.76-7.06,2.43-11.59.64-17.25-3.8-11.22-8.8-22-22.37-32.6-32.36-4.69-4.42-15.46-14.8-20.46-17.68,1.47-.67-1.1-1.33-1.43-1.48-3.22-1.45-4.52-2.34-8.29-1.43-1.99.48-2.37,2.2-4.31,2.42-1.04,2-1.7,4.89-2.59,6.81-1.08,2.34-3.78,6.67-4.65,9.06-.34.94-.89,3.73-.06,4.67-3.82,11.51-7.21,23.93-10.28,35.42-1.26,4.7-1.19,7.17-3.22,11.65-.54,1.18-.09,2.17-1.34,3.7-1.35,1.65-4.4,3.08-6.48,3.54-1.61-1.36-4.14-.36-6.1-.69-1.07-.18-5.37-1.97-6.83-2.55-12.71-5-26.22-14.79-38.85-20.94-3.38-1.64-13.43-6.43-16.6-6.73-3.59-.33-2.59,1.1-4.63,2.93-.36,4.38-.88,8.74-1.32,13.1-2.26-.08-1.79-.4-1.94,1.58-.26,3.39-.5,6.95-.68,10.34-.11,2.17-.4,5.56.68,7.46-.03.43.02.86,0,1.29h-1.29c-.27.75.62,1.19.64,1.29.07.37-.02.87,0,1.29-.3.07-.62.35-.65.65-.64,6.7,1.51,15.65-1.88,21.2l-1.35,4.02c-4.66,6.02-10.92,11.82-15.48,17.96-12.13,16.32-22.75,38.69-25.23,58.97-2.32-.09-1.76-.37-1.93,1.59-.81,9.14-.85,17.83,0,26.85.34,3.62.72,4,1.28,6.26.33,1.34-.99,3.84,1.31,3.44.59,3.32,1.28,4.73,1.94,7.11-3.6.43-.12,3.51-.05,3.73,2.6,8.12,3.92,12.81,8.45,20.19,2.85,4.64,5.75,9.82,8.4,14.22.57.95,2.06,2.48,3.23,4.53.11.19,2.89,1.07,2.59,3.23-1.98-.72-1.35-1.56-2.59-3.23-.89-1.19-2.11-2.95-3.23-4.53-.1-.13-1.04-.89-1.96-2.24-1.67-2.47-4.3-3.82-3.87-7.46h-1.93s.65,2.92.65,2.92c-3.21.44-5.47.12-5.21,4.16-3.14.42-6.33-1.86-9.02.67-2.98-4.97-6.31-11.34-8.22-16.7-.54-1.51.03-1.66-2.12-1.4-.84-2.39-.84-3.53-1.29-5.82-.91-4.6-2-8.65-3.21-13.28-.48-1.82-.59-.24-1.96-.29-.26-1,.44-1.82.65-2.59,1.04-3.93-.4-1.98-.64-3.02-1.88-8.08-1.25-21.93-.63-30.28.09-1.2.53-2.65-1.32-2.26.05-.86.53-2.47.65-3.88,1.61-.47,1.12-1.76,1.32-2.9,1.28-7.23,3.33-17.49,5.79-24.9,2.7-8.17,9.93-21.81,14.44-29.53.53-.92,3.31-2.35,3.02-4.73,3.27-1.11,4.67-6.39,6.47-8.75,3.66-4.8,8.65-10.04,12.27-14.04.54-.6,2.96-2.38,3.06-2.58.56-1.15.84-6.62.82-8.24.19-5.79-.25-11.67,0-17.45,0-.22,0-.43,0-.65.34-7.73,1.43-16.36,2.59-23.59.93-5.79,1.21-9.74,4.92-14.5.64-.82,2.79-2.9,3.87-3.22l-.39-.71c3.66-2.12,6.31-2.75,10.34-3.23,4.64.38,9.32.71,13.86,1.98s9.74,3.99,14.06,5.98c.63.29,2.11,1.8,2.46.45,8.84,4.2,16.23,8.69,24.41,13.58,2.85,1.7,5.94,3.02,8.88,4.52,1.73-2.27,1.54-4.48,2.26-7.11l2.54-2.42c4.11-13.93,11.32-47.72,21.98-56.75,11.34-9.6,25.35-6.54,36.88-.3Z"/>
  <path class="cls-18" d="M520.57,341.35c1.61-1.47,5.04.01,6.73-1.23.75-.55.04-1.88.7-2.01,2.84-.55,2.59,1.77,3.36,1.97,1.42.36,3.77-.27,5.36-.02l-.8-1.46-4.38-.48v-1.93c2.37,1.74,7.71-1.53,8.75-.02l.3,1.95c-1.17.39-3.05.15-2.58,1.95h5.81c.38-1.2-1.07-1.6-1.19-2.37-.11-.7,2.03-3.1,1.2-4.74,3.07.71,8.41.38,7.76-3.88h1.93c-2.06,6.62,1.09,5.25,5.82,5.82-.57-1.75-.77-3.39,1.09-4.43,1.84-.63,3.88.67,5.73.61.86-.03,1.5-.7,1.59-.7,3.94-.04,7.1.17,10.99.65-.38,1.79.88,1.25,2.03,1.5,8.31,1.77,17.02,2.58,25.28,4.48,3,.69,6.61,2.6,9.53,3.07,4.97,3.74,6.83,5.32,6.45,11.95-.3,5.34-2.57,10.66-2.57,15.2,0,.64.04,1.3,0,1.94-2.08-.36-1.09,1.05-1.27,2.25-.49,3.29-3.85,25.03-4.54,26.19-3.05,5.08-1.61,11.29-3.25,17-.34,1.19-1.39-.99-.62,3.04.91,4.82-.21,2.91-.62,4.34-2.8,9.82-2.29,22.95-6.46,32.9l-.03,2.85c-2.03-.37-1.1,1-1.31,2.21-.73,4.3-1.42,8.36-2.57,12.01-1.1-2.85-10.07-.42-10.96-1.32-.21-.21.28-2.34-.93-3.27-1.03-.8-3.92-.48-5.27-2.45l-26.79-8.47c9.27.87,19.57,5.64,28.43,8.4.72-.64,1.37-11.79,1.98-13.76,1.16-3.8,1.72-6.39,2.55-10.81,1.44-7.62,2.53-19.45,4.55-26.69,2.88-10.31,4.49-21.66,6.43-32.79.57-3.28,1.6-5.97,1.94-9.7.1-1.09-.02-2.35,0-2.59.02-.21-.02-.43,0-.65.9-.77,1.04-1.89,1.24-2.98.59-3.27,1.66-5.74,2-9.31.13-1.41.03-2.78.58-4.15l-1.02-.9c-10.06-1.24-19.95-3.68-29.94-5.29-17.01-2.74-34.35-5.11-51.71-3.88-.43.03-.87-.02-1.29,0Z"/>
  <path class="cls-11" d="M196.76,7.12c-11.53-6.24-25.54-9.29-36.88.3-10.67,9.03-17.88,42.82-21.98,56.75l-2.54,2.42c2.91-10.61,6.27-21.03,9.79-31.27,4.24-12.32,7.19-26.94,20.79-32.84,11.03-4.78,21.55-2.33,30.82,4.64Z"/>
  <path class="cls-5" d="M89.47,551.45l1.15.14c.35.37.05.96.15,1.15,20.7,16.23,51.89,15.35,78.21,13.58v1.29c-16.06,1.21-33.34,1.2-49.24-1.5-8.02-1.36-25.24-5.85-28.96-13.37-.36-.28-1.15-.68-1.94-1.29h.65Z"/>
  <path class="cls-11" d="M459.82,313.55c-22.09,4.6-39.05,15.03-62.41,11-1.21-.21-2.59.74-2.22-1.3,7.86,1.76,16.06,1.74,24.06.47,13.54-2.15,26.58-10.14,40.57-10.17Z"/>
  <path class="cls-2" d="M411.99,131.89c16.11,19.76,21.98,33.95,28.48,58.35.1.36,2.87,1.64.6,3.72-5.85-21.7-13.73-41.96-28.6-59.63-.38-.46-1.81-2.13-.48-2.43Z"/>
  <path class="cls-5" d="M441.72,195.89c3.27,10.84,2.12,29.37,1,40.76l-1.65,5.14c.1-4,1.08-7.89,1.32-12.58.44-8.88.59-22.3-.67-30.96-.09-.62-2.59.01,0-2.36Z"/>
  <path class="cls-16" d="M59.1,50.43l.39.71c-1.09.32-3.23,2.4-3.87,3.22-3.71,4.76-3.99,8.71-4.92,14.5-1.16,7.23-2.25,15.86-2.59,23.59-.89-.97-.78-2.35-.69-3.56.49-6.68.63-17.73,2-23.79.1-.46,1.1-.4,1.23-.93,1.71-6.87,1.51-9.72,8.45-13.74Z"/>
  <path class="cls-11" d="M533.5,104.09l-3.88,4.85c-6.9,6.1-9.87,14.37-13.61,22.45-.29.62-2.11,1.28-1.97,3-.72.53-15.4-3.11-17.37-3.8,5.63-.71,11.39,1.84,16.8,3.24,3.84-10.94,10.57-22.5,20.04-29.74Z"/>
  <path class="cls-11" d="M25.49,144.17c.29,2.38-2.48,3.82-3.02,4.73-4.51,7.72-11.73,21.36-14.44,29.53h-.65c4.5-12.85,9.83-22.96,17.45-34.26h.65Z"/>
  <path class="cls-5" d="M452.06,249.55l4.6,3.48c13.13,7.58,27.69,6.23,41.94,3.64l1.29.65c-14.42,2.91-27.59,4.84-41.39-2.23-3.84-1.97-3.96-2.72-6.43-5.52Z"/>
  <path class="cls-11" d="M556.12,471.29c-.39-.09-.91.09-1.29,0-5.17-1.15-10.28-2.37-15.51-3.23l-1.94-.65c-17.67-2.61-27.15-1.15-43.95,3.23-1.06-1.6-.77-1.08.66-1.59,19.44-6.92,42.84-4.06,62.03,2.23Z"/>
  <path class="cls-11" d="M558.06,471.29l-1.29.65c-.2-.06-.45.07-.65,0v-.65c.56.13,1.37-.12,1.94,0Z"/>
  <path class="cls-5" d="M348.65,566.32v1.29c-1.39.11-2.81-.1-4.22-.02-.85.05-1.7.67-1.92.67h-23.91c-2.89,0-8.69-.87-11.96-1.29v-1.29c14.05,1.71,27.96,1.64,42.01.65Z"/>
  <path class="cls-2" d="M438.49,253.43c.72,1,.37,3.05-.05,4.02-6.78,15.51-12.7,30.05-23.86,43.82l-.59-.73c1.4-.86,1.71-2.72,2.52-3.96,3.89-5.93,8.6-11.93,11.82-18.11,4.2-8.09,6.88-16.86,10.16-25.04Z"/>
  <path class="cls-5" d="M94,485.51c2.22-.26.94.67.83,1.8-.75,8.17-4.36,19.93-6.55,28.39-.43,1.65.29,1.71-2.04,1.49,2.64-10.36,5.9-20.61,7.76-31.68Z"/>
  <path class="cls-2" d="M453.36,137.71c.61,2.63-2.87,5.36-3.34,6.7-.53,1.51-1.15,6.08-1.14,7.74.05,7.91,3.63,13.43,7.3,19.88.26.45,1.5,2.34.42,2.52-6.57-8.35-10.23-18.47-7.72-29.37.63-2.71,2.52-5.5,4.48-7.48Z"/>
  <path class="cls-11" d="M335.08,17.46c3.1.82,2.86,6,3.78,8.81,1.53,4.72,3.85,10.92,5.22,15.6.35,1.21.76,3.49.05,4.68-2.57-2.9-2.69-9.3-3.93-13.72-1.31-4.65-3.47-10.58-5.11-15.37Z"/>
  <path class="cls-11" d="M616.88,340.05c-.42-.04-.89.07-1.29,0-2.92-.47-6.53-2.38-9.53-3.07-8.26-1.9-16.97-2.72-25.28-4.48-1.15-.24-2.41.29-2.03-1.5,9.28,1.14,30.6,4.59,38.13,9.05Z"/>
  <path class="cls-11" d="M84.95,524.94c-.42,4.24-1.11,9.99-.58,14.48.57,4.78,2.92,8.08,5.1,12.03h-.65c-2.82-2.19-6.08-9.93-6.38-13.34-.37-4.23-.14-9.96,2.5-13.17Z"/>
  <path class="cls-11" d="M647.9,213.99c6.48,8.52,10.03,16.58,8.25,27.97-.22,1.4-1.76,6.98-3.72,6.94v-.65c1.74-2.41,3.01-7.02,3.22-10.03.53-7.72-2.63-14.58-6.62-20.54-.34-.51-2.36-3.25-1.12-3.69Z"/>
  <path class="cls-5" d="M490.2,129.3c-7.01-.35-16.25-.58-23.41,1.48-2.75.79-5.37,2.57-8.26,3.05.23-.15.46-.83,1.05-1.19,8.3-4.98,21.48-6.03,30.62-3.34Z"/>
  <path class="cls-2" d="M8.04,178.43c-2.45,7.41-4.51,17.67-5.79,24.9-.2,1.14.29,2.43-1.32,2.9.9-10.5,3.11-18.23,6.46-27.8h.65Z"/>
  <path class="cls-2" d="M8.68,267.65c2.16-.26,1.59-.11,2.12,1.4,1.9,5.35,5.23,11.73,8.22,16.7,1.52,2.53,2.88,5.2,5.17,7.11-.17.41.09,1.13-.65,1.29-5.5-7.6-11.53-16.97-14.87-26.51Z"/>
  <path class="cls-11" d="M498.6,256.66c2.08-.38,12.73-3,13.49-2.51,1.12,2.61,1.4,5.54,2.48,8.16s4.8,9.31,6.65,11.94c1.59,2.26,5.16,4.64,5.82,7.61-5.62-5.13-8.14-10.04-12.23-16.03l-3.94-11.12c-3.48,1.63-7.33,1.85-10.98,2.59l-1.29-.65Z"/>
  <path class="cls-16" d="M.28,210.11c1.84-.39,1.41,1.07,1.32,2.26-.62,8.35-1.26,22.19.63,30.28.24,1.04,1.68-.91.64,3.02-2.09.37-1.08-1.06-1.27-2.26C0,233.14-.32,220.51.28,210.11Z"/>
  <path class="cls-11" d="M419.75,457.06v1.29c-10.95.69-21.57,3.16-32.32,5.17.87-1.25,8.01-2.69,10.1-3.15,6.72-1.5,15.4-2.94,22.22-3.31Z"/>
  <path class="cls-2" d="M570.99,285.75c-11.62,7.96-25.34,9.45-37.49,1.29,3.71.51,6.52,2.72,10.32,3.58,6.77,1.53,12.45,1.29,18.95-1.14l8.22-3.74Z"/>
  <path class="cls-2" d="M616.88,340.05c1.25.74,5.7,4.79,6.24,6.03,1.63,3.7.48,4.84-.24,7.97-.57,2.48-1.17,5.55-1.66,8.78l-1.76,4.37c0-4.54,2.27-9.86,2.57-15.2.38-6.63-1.48-8.21-6.45-11.95.41.07.87-.04,1.29,0Z"/>
  <path class="cls-2" d="M382.91,559.85c-10.72,5.17-22.46,6.87-34.26,7.76v-1.29c11.59-.82,20.65-1.86,31.55-6.26.71-.29,2.23-1.4,2.7-.21Z"/>
  <path class="cls-11" d="M99.82,55.6c-.35,1.35-1.83-.16-2.46-.45-4.32-1.99-9.55-4.73-14.06-5.98s-9.22-1.59-13.86-1.98c12.63-1.52,19.45,3.21,30.38,8.4Z"/>
  <path class="cls-18" d="M47.46,100.21c-.02,3.46.61,7.2.65,10.34.02,1.63-.26,7.09-.82,8.24-.1.2-2.51,1.98-3.06,2.58-3.63,4-8.61,9.23-12.27,14.04-1.8,2.36-3.2,7.64-6.47,8.75h-.65c4.31-6.38,9.25-13.08,14.2-18.91,2.48-2.92,6.62-4.81,7.14-9.19.49-4.06-.16-9.33-.02-13.62.04-1.24-.66-2.59,1.29-2.23Z"/>
  <path class="cls-2" d="M200,561.79c-9.91,3.68-20.5,5.02-31.02,5.82v-1.29c5.04-.34,10.07-.5,15.1-1.38l15.93-3.14Z"/>
  <path class="cls-11" d="M583.91,113.14c4.8,6.63,5.35,9.83,8.46,16.94.24.55,2.02,1.59,1.88,3.1-.29-.06-.77.25-.65.65-.17-.12-.87.32-1.3-.45-.85-1.53-1.68-6.53-2.63-8.74-.9-2.08-3.45-5.2-4.65-7.15-.4-.66-2.28-3.71-1.11-4.35Z"/>
  <path class="cls-5" d="M25.49,453.18c1.09-1.99,1.26.18,1.66.58,9.84,9.86,25.72,14.92,38.96,17.97,1.14.26,2.42-.34,2.04,1.49-15.5-2.79-31.56-9.01-42.66-20.04Z"/>
  <path class="cls-16" d="M572.93,102.15l-10.2-3.7c-6.01-1.24-11.97-1.21-17.88.5l-10.05,3.84c11.46-7.63,26.56-8.73,38.13-.65Z"/>
  <path class="cls-2" d="M462.4,471.29v.65c-7.62-4.16-12.07-9.56-21.2-12.09-7.22-2-14.16-1.94-21.46-1.48v-1.29c11.21-.61,21.84.42,31.58,6.23,3.71,2.22,7.52,6.19,11.08,7.99Z"/>
  <path class="cls-16" d="M386.78,467.41l1.28,5.51c1.05,11.77,1.76,24.23,4.54,35.22l-.64.33c-3.75-10.96-3.05-23.26-4.48-34.96-.24-1.93-1.5-1.07-.7-6.1Z"/>
  <path class="cls-16" d="M450.12,221.1c3.23.19.12,1.42-.11,2.17-1.09,3.54-1.11,7.15-1.85,10.31-.09.39-2.16.57-1.26,3.89.28,1.05,1.58-.91.63,3.02-1.96.36-1.24-.99-1.29-2.23-.29-6.76.95-11.28,3.88-17.16Z"/>
  <path class="cls-5" d="M227.79,532.05c-4.31,10.72-8.28,18.92-18.74,25.21-.98-.1-2.18.34-.48-.79,9.34-6.26,13.96-13.42,17.75-23.61.48-1.28-.4-2.04,1.47-.8Z"/>
  <path class="cls-16" d="M11.92,416.34c1.95-.36,1.25.99,1.29,2.23.14,4.33-.27,10.1,0,13.93.46-1.3-1.17-1.2-1.28-1.74-.75-3.55-.63-10.78,0-14.43Z"/>
  <path class="cls-2" d="M619.46,369.14c-.55,9.31-3.63,19.37-5.17,28.44h-.65c.7-1.16,4.05-22.9,4.54-26.19.18-1.21-.81-2.62,1.27-2.25Z"/>
  <path class="cls-16" d="M324.09,5.18l-9.34-1.97c-10.65-.31-17.77,5.22-24.56,11.66-.3.29-2.08,1.85-2.29.65,10.97-9.59,20.95-17.99,36.19-10.34Z"/>
  <path class="cls-2" d="M306.64,565.67v1.29c-10.94-1.41-20.58-3.69-29.73-9.7l6.94,3.08c7.78,3.17,14.58,4.32,22.79,5.32Z"/>
  <path class="cls-16" d="M346.07,54.31l1.75,3.71c.85,2.88.73,7.39,1.51,10.05.11.36,2.89,1.55.62,3.69-1.36-6.09-3.18-11.09-3.88-17.45Z"/>
  <path class="cls-5" d="M611.7,259.24v.65c-7.05-.73-13.15-2.48-20.04-3.88v-.65c1.87-1.49,2.95.14,4.88.61,4.85,1.19,10.23,2.66,15.15,3.27Z"/>
  <path class="cls-2" d="M592.32,480.34v.65c-8.92,3.07-17.43-2.9-25.85-5.82v-.65c7.73,2.65,17.99,8.08,25.85,5.82Z"/>
  <path class="cls-5" d="M72.67,473.87c.63-.99,2.55-.77,3.57-.68,6.44.54,12.89,1.51,19.37,1.33l-.32.65c-7.64.34-15.08-.26-22.62-1.29Z"/>
  <path class="cls-16" d="M602.66,457.71c-2.06,8.28-.7,19.95-10.34,23.27v-.65c1.65-.47,3.05-1.1,3.23-2.59h.65c1.69-.99,1.97-3.87,2.59-5.82,1.15-3.65,1.84-7.7,2.57-12.01.21-1.21-.73-2.58,1.31-2.21Z"/>
  <path class="cls-2" d="M393.25,510.07c1.83,6.51,6.64,14.3,7.76,21.33h-1.29c-.66-6.33-4.48-11.48-6.56-17.05-.41-1.09-1.14-3.45.1-4.29Z"/>
  <path class="cls-2" d="M612.35,131.24c-5.78.95-11.59,2.34-17.28,3.75-1.2.03-1.13-.93-1.46-1.16-.12-.4.35-.71.65-.65.25.05.68.75,1.53.64,5.07-.69,11.3-3.97,16.57-2.58Z"/>
  <path class="cls-5" d="M251.7,515.25c.44.07.92-.03,1.31.29,1.14.97,1.49,6.54,1.98,8.27.42,1.51,1.32,2.72,1.89,5.67.08.4-.07.89,0,1.29-3.71-4.18-2.47-10.66-5.17-14.87v-.65Z"/>
  <path class="cls-11" d="M657.59,159.69c-.8,4.09-1.64,7.09-3.9,11.16-.38.69-2.48,3.35-3.21,4.36-3.56-.33.07-1.61.28-1.95,2.6-4.22,3.84-6.58,5.36-11.51.31-1.02-.38-2.41,1.47-2.05Z"/>
  <path class="cls-2" d="M652.42,248.9c-4.8,7.38-14.66,11.07-23.27,11.64v-.65c7.98-.74,18.51-5.04,23.27-11.64v.65Z"/>
  <path class="cls-11" d="M613.64,397.59h.65c-1.07,6.29-2.9,12.12-3.5,18.46-.1,1.05,1.09,1.85-1.03,1.58-.76-4.03.28-1.85.62-3.04,1.64-5.71.21-11.92,3.25-17Z"/>
  <path class="cls-16" d="M550.95,327.77c-3.46-.21-7.65-.58-10.99-.65-.65-.01-1.29,0-1.94,0-3.74-.02-6.83.46-10.34.65v-1.29c7.5-.12,16.16-.8,23.27,1.29Z"/>
  <path class="cls-16" d="M2.22,248.25c1.37.05,1.48-1.53,1.96.29,1.21,4.63,2.3,8.68,3.21,13.28-3.32-2.66-2.97-8.34-3.94-12.41-.16-.65-1.18-.96-1.23-1.17Z"/>
  <path class="cls-11" d="M634.33,131.89c-2.56-.17-5.59-1.17-8.08-1.28-3.36-.15-6.44,1.08-9.37-.01,4.62-.62,10.12-1.25,14.91-.37.99.18,2.16.61,2.54,1.66Z"/>
  <path class="cls-11" d="M507.65,320.66v.65l-1.12-1.29c-5.27-2.74-9.8-4.79-15.68-6.15-3.24-.75-6.97-.58-9.7-2.26,10.99.02,17.87,3.26,26.5,9.05Z"/>
  <path class="cls-2" d="M27.43,298.68c1.41,1.9,6.69,6.2,6.97,6.61.4.58.14,2.21.84,3.35,1.06,1.71,6.1,4.16,5.76,6.85-4.84-4.54-10.26-9.89-13.57-16.16v-.65Z"/>
  <path class="cls-15" d="M24.2,292.86c.11-.28-.11-.89,0-1.29l2.64.38.56,2.45-1.9,1.68c1.74-.28,1.25,1.69,1.93,2.6v.65c-2.18-1.42-2.64-3.46-3.88-5.17.73-.16.48-.88.65-1.29Z"/>
  <path class="cls-2" d="M591.67,256.01c-.68,4.22-3.03,8.61-5.17,12.28-3.48-.29-.06-1.55.02-1.72,1.05-2.27,2.15-4.5,3.16-6.55.73-1.49.39-3.38,1.99-4.66v.65Z"/>
  <path class="cls-2" d="M400.36,539.81c-.02.22.7.97.65,1.53-.04.47-1.09.41-1.25.9-1.66,5.01-2.44,6.59-5.65,10.55l-1.5.59c-1.42-1.23,1.75-2.68,2.21-3.28,1.59-2.09,4.53-7.79,4.9-10.29h.65Z"/>
  <path class="cls-2" d="M507.65,320.66c.19.13,1.24-.1,1.87.37,2.45,1.84,3.95,3.55,5.69,6.1,4.21.35,8.3-.59,12.47-.66v1.29c-4.16.22-8.31.38-12.47.65-.63-.17-1.82-2.91-2.62-3.67-.66-.63-3.96-2.74-4.95-3.45v-.65Z"/>
  <path class="cls-16" d="M486.96,472.58c-9.36,2.44-15.45,4.33-24.56-.65v-.65c7,3.54,14.18,3.18,21.54,1.18.92-.25,2.29-1.26,3.02.12Z"/>
  <path class="cls-16" d="M629.16,259.89v.65c-5.81.38-11.71-.05-17.45-.65v-.65c4.79.59,12.74,1.08,17.45.65Z"/>
  <path class="cls-1" d="M48.11,110.55c-.04-3.15-.67-6.89-.65-10.34.01-2.24-.54-5.4.65-7.11-.25,5.79.19,11.66,0,17.45Z"/>
  <path class="cls-16" d="M251.7,515.25v.65h-17.45c.65-.57.61-.58,1.55-.68,3.09-.35,12.97-.43,15.91.04Z"/>
  <path class="cls-1" d="M401,531.41c.47,2.98-.35,5.81-.65,8.4h-.65c.28-1.92.21-6.4,0-8.4h1.29Z"/>
  <path class="cls-11" d="M256.87,529.47c2.32,3.25,2.94,8.31,5.83,10.82l3.86,7.93c-3.67-4.25-8.58-11.25-9.69-17.45-.07-.4.08-.9,0-1.29Z"/>
  <path class="cls-5" d="M566.46,474.52v.65c-3.18-1.1-6.5-2.24-9.69-3.23l1.29-.65c2.98.63,5.74,2.32,8.4,3.23Z"/>
  <path class="cls-2" d="M24.2,351.69c1.48,1.78-2.03,3.5-2.73,4.68-1.13,1.9-2.87,6.43-3.67,8.65-.6,1.69-.63.23-2,.24.36-2.16,6.54-11.41,8.4-13.58Z"/>
  <path class="cls-2" d="M13.85,435.73l3.18,3.74c.49,1.39.65,3.02,1.42,4.3.38.64,4.04,2.01.57,2.31-1.66-2.35-4.52-7.6-5.17-10.34Z"/>
  <path class="cls-2" d="M350.59,75c1.68,2.35,1.6,6.23,2.05,8.94,2.6,1,5.09,1.84,7,3.99-.03-.02-.25.44-.62.27-1.01-.48-6.25-2.99-6.52-3.31-1.61-1.84-1.42-7.34-1.91-9.89Z"/>
  <path class="cls-2" d="M634.33,192.01c-1.5,1.31-3.46,1.87-3.8,4.11,1.06,1.43,2.53,2.42,3.8,3.65-1.47,1.38-2.85-1.84-3.45-2.42s-2.08.72-1.76-1.81c.11-.88,2.16-2.25,2.96-2.87.4-.3,2-1.89,2.25-.66Z"/>
  <path class="cls-2" d="M41.65,335.53c1.29.23-.74,1.79-.97,1.95-2.94,2.03-4.77,3.29-7.29,5.81-.14.14-2.04,1.78-2.08.65,3.25-3.05,6.7-5.87,10.34-8.4Z"/>
  <path class="cls-5" d="M539.32,468.05c-1.06-.17-1.84-.63-1.94-.65l1.94.65Z"/>
  <path class="cls-12" d="M185.13,18.76c5,2.88,15.77,13.26,20.46,17.68,10.6,10,21.38,23.57,32.6,32.36,5.65,4.43,10.19,6.22,17.25,3.8,6.06-2.09,13.48-11.73,18.15-16.76,8.96-9.65,24.11-28.54,34.68-35.12,8.33-5.19,8.55,1.29,10.7,7.24.15.42,1.02.49,1.18,1.01.99,3.19,1.49,7.15,2,10.48.42-.03.87.05,1.29,0l1.94,10.99c2.36,4.78,2.6,11.72,3.88,17.45,1.16,5.2,3.03,12.77,4.48,17.94.49,1.73.16,3.49,1.33,5.34,2.46,3.85,17.47,10.97,22.3,14.22,31.51,21.18,58.8,54.91,64.95,91.8,1.67,10.02,2.51,17.59,2.59,27.8-1.95-.36-1.25.99-1.29,2.23-.1,2.77-1,17.66-1.94,19.1-1.73,2.67-3.19,8.31-3.88,12.28l-3.3,7.88c-1.92,2.33-2.96,5.63-4.46,8.28-9.12,16.15-20.31,28.02-33.93,40.73-.82.77-1.6,1.3-1.62,2.58-.18.08-.47-.09-.65,0-.42.21-.59.62-.65.65-.18.09-.5-.09-.65,0-1.05.67-1.27.88-1.94,1.94-.1.15.1.49,0,.65-3.22.38-3,6.34-2.3,8.45.2.62,3.99,4.04,4.45,4.29.73.39,1.42.07,1.73.19,6.18,2.43,17.79,4.74,24.56,5.17,4.86.31,11.28.26,16.16,0,4.42-.24,9.93-.95,14.22-1.94.86-.2,1.94-.67,2.59-1.29.21-.02.44.04.65,0,7.3-1.3,14.05-4.4,21.19-6.28,13.15-3.46,24.97-4.46,38.27-.83.17.1.41.95.94,1.3,3.61,2.35,6.37,2.97,7.46,7.75.13.55-.1,1.34,0,1.94.05.31.34.57.65.65.22,1.56-.1,3.51,0,5.17-1.1,4.03-1.07,8.5-2.62,12.44-4.41,11.22-22.24,26.06-32.72,32.7-21.86,13.85-45.63,19.88-71.3,21.45-.64.04-1.3-.04-1.94,0l-1.29.65c-5,.29-10.65-.5-15.51,0-3.51.36-5.43,1.34-7.76,3.88-.21.23-1.96,2.7-1.98,2.88-.41,2.98-.39,13.21,0,16.24.16,1.24,1.24.62,1.39,1.85.3,2.4-.18,5.55-.05,8.12.96,18.49,1.83,36.69,4.52,54.95.88,6,3.43,14.57,5.75,20.56,1.94,5.01,4.13,8.5,3.97,14.05-.27,9.26-12.92,13.5-20.7,14.86l-15.52,2.25c-.82-.01-1.81-.1-2.59,0-1.04.13-2.09.6-2.59.65h-2.59c-.61-1.04-3.23-1.06-3.88,0-.43,0-.86,0-1.29,0-.88-1.12-3.11-.63-4.52-.65-1.72-.02-3.46.07-5.17,0-12.93-.49-28.86-1.99-38.78-10.99-4.4-3.99-5.7-8.3-7.76-13.58-1.25-3.2-3.57-8.33-4.47-11.49-1.61-5.66-.27-11.55-7.16-14.37-1.09-.45-1.99-.84-3.23-.65-.16-.04-.5-.52-1.29-.65-7.87-1.21-25.55-1-33.61,0-8.97,1.11-8.32,4.38-11.04,11.13-1.14,2.83-3.21,6.53-4.41,9.42-4.66,11.15-6.27,21.53-19.29,26.48-4.7,1.79-11.29,2.67-16.32,3.4-.61.09-1.32-.08-1.94,0l-.65.65c-4.23.48-9.26.5-13.57.65-.64.02-1.29-.02-1.94,0s-1.29-.01-1.94,0c-1.29.03-2.59,0-3.88,0-1.08,0-2.16.01-3.23,0-.43,0-.86,0-1.29,0-3.6-.08-7.46.26-10.99,0-.05,0-.18-.61-.65-.65-.64-.06-1.3.07-1.94,0-8.28-.87-21.28-2.44-27.47-8.4-.24-.24-2.8-3.47-2.91-3.69-1.85-3.75-1.13-8.92-.05-12.83,1.54-5.6,3.96-11.27,5.22-17.1,2.07-9.57,3.89-17.99,4.52-27.8.01-.21-.01-.43,0-.65.94-.58.49-1.98.86-3.05.06-.18.95-.18,1.06-.63.24-.96.71-9.46.61-10.78-.27-3.59-3.39-5.13-6.41-6.22-7.52-2.72-17.97-.78-26.17-1.3-17.67-1.11-40.84-8.05-48.8-25.21-1.14-2.46-2.32-5.64-2.58-8.74-.35-4.27.38-8.39.64-12.6.7-1.43,1.71-1.97,1.76-2.1.45-1.01-.38-2.54.81-2.42.53,1.51.79,3.6,1.53,4.94,6.4,11.55,19.83,20.13,32.08,24.14,6.35,2.08,12.76,3.51,19.39,4.53.21.03.44-.03.65,0,3.6.53,7.36.93,10.99,1.29,22.03,2.2,44.91,2.11,66.58-2.9,17.82-4.13,36.88-12.51,43.24-30.58.67-1.89.91-6.63,1.68-7.89.43-.7,6.82-4.01,8.23-5.17,3.24-2.67,6.72-7.84,8.25-11.65,1.78-4.45,2.65-9.48,1.99-14.59-.23-1.8-3.51-8.61-4.58-10.62-11.8-22.37-42.61-40.82-67.22-45.25-.38-.07-.91-.6-1.29-.65-.42-.05-.87.04-1.29,0-1.7-.7-3.4-.57-5.17-.65-.22,0-.43.01-.65,0-.77-.95-1.91-1-3-1.2-11.49-2.11-25.1-2.46-36.74-1.38-5.3.49-10.65,1.42-15.84,2.58-.41.06-.87-.04-1.29,0-2.73.23-8.01,2.4-10.99,3.23-2.66.74-9.29,3.59-11.21,2.52-5.59-5.28-11.78-10.73-17.01-16.31-1.06-1.13-4.91-6.96-5.54-7.41-.42-.3-.91-.04-1.15-.13.3-2.16-2.48-3.04-2.59-3.23-1.17-2.04-2.66-3.58-3.23-4.53-2.65-4.4-5.56-9.58-8.4-14.22-.55-1.78-.98-4-1.76-5.66-3.06-6.56-4.62-10.97-6.65-18.26-.66-2.39-1.35-3.79-1.94-7.11s-.93-6.45-1.29-9.7c-.32-2.86-1.2-4.99-1.34-6.1-.25-1.9-.25-7.88,0-9.78.16-1.2,1.21-.85,1.33-1.37.55-2.32.27-8.03.66-11.19,2.48-20.29,13.1-42.66,25.23-58.97,4.56-6.14,10.83-11.93,15.48-17.96.46-.6,2.44-2.91,2.54-3.09,2.17-4.32,1.49-16.77,1.34-22.12,0-.22,0-.43,0-.65-.02-.42.07-.92,0-1.29l.65-1.29c.02-.43-.03-.87,0-1.29.11-1.78-.27-3.89-.05-5.54.16-1.19,1.21-.84,1.33-1.37.58-2.45.32-9.08.66-12.49.44-4.37.97-8.73,1.32-13.1,2.04-1.82,1.04-3.26,4.63-2.93,3.17.29,13.23,5.08,16.6,6.73,12.63,6.15,26.14,15.95,38.85,20.94,3.18,3.05,8.79,4.14,12.93,3.23,2.08-.46,5.12-1.89,6.48-3.54,1.26-1.53.81-2.52,1.34-3.7,2.04-4.47,1.97-6.95,3.22-11.65,3.07-11.49,6.47-23.9,10.28-35.42.51-1.55,1.18-1.38,1.27-1.75,1.13-4.58,3.27-12.02,5.66-16.18.13-.24,2.55-2.99,2.71-3.12,3.61-2.81,8.14-1.03,11.69,1.01ZM326.68,198.47c-6.05.42-13.32,5.3-15.51,10.99-1.28,3.32-.72,4.64-1.3,7.32-.11.52-1.18.17-1.34,1.39-.34,2.68,1.17,2.15,1.34,2.75.24.88-.17,2.06.02,2.77,2.29,8.57,6.63,14.48,15.54,17.1,7.74,2.27,15,1.04,21.94-2.88-.1.15.26.82-.14,1.17-.35.3-1.36-.21-1.82.56-.63,1.04-.9,3.62-1.34,4.87-.19.53-1.04.48-1.19.99-.19.66-.68,4.27-.68,5.01,0,1.4,2.72,8.27,3.58,9.34,13.24,16.56,49.6,8.42,58.83-8.94,3.28-6.16,2.13-14.37-3.27-18.83-10.6-8.77-26.79-8.55-39.03-3.45-4.95,2.06-9.25,6.27-13.66,7.99,6.17-5.12,7.95-11.62,6.94-19.55s-6.37-15.21-14.05-17.3c-4.51-2.15-9.99-2.74-14.87-1.29ZM160.57,217.87c-1.45.87-2.71,2.01-3.88,3.23-6.02,6.26-7.14,17.45-3.23,25.21s12.29,12.11,20.68,12.28c.43,0,.86.02,1.29,0,5.08-.19,11.35-1.13,14.87-5.17,3.52-2.2,6.06-4.71,6.82-9.02.7-3.98.51-10.31-.35-14.25-.97-4.42-4.52-8.3-8.19-10.88-8.87-6.25-18.52-7.09-28-1.4ZM289.83,240.5c-4.27,1.13-11.71,5.15-16.16,7.11-13.06,3-25.56,4.26-38.92,2.41-5.09-.71-12.81-3.77-17.48-2.9-9.42,1.76-8.65,11.33-6.29,18.59,3.58,11.02,11.73,21.33,21.98,27.8,10.91,6.89,22.07,8.58,34.9,6.46,18.19-3.01,30.81-17.89,35.6-33.9,1.42-4.74,2.74-17.02,1.88-21.69-.9-4.92-11.83-7.81-15.51-3.88ZM160.81,258.36c-11.64-11.28-41.64-15.75-54.31-4.06-13.74,12.68-.17,29.61,13.67,34.69,16.3,5.99,48.77,1.31,46.05-21.5-.49-4.13-2.53-6.34-5.41-9.13Z"/>
  <path class="cls-8" d="M573.57,345.22c9.98,1.61,19.87,4.05,29.94,5.29l1.02.9c-.54,1.38-.44,2.74-.58,4.15-2.61-.18-1.61-.12-1.92,1.6-.65,3.59-.94,7.07-1.31,10.68-.02.21.02.43,0,.65-1.01.27-.97,2.38,0,2.59-.34,3.73-1.37,6.42-1.94,9.7-1.75-.38-1.29.87-1.5,2.02-2.59,14.41-4.71,29.07-7.6,44.03-.1.49-1.08.49-1.19.99-.74,3.47-1.7,9.12-.7,12.44-.84,4.42-1.39,7.01-2.55,10.81-.6,1.97-1.25,13.11-1.98,13.76-8.86-2.77-19.16-7.53-28.43-8.4-.21-.02-.43.01-.65,0-8.15-2.31-17.39-4.63-25.85-5.17-16.06-1.03-30.14,1.32-45.24,6.46-.43-.5.98-11.78,1.31-13.12.09-.38.79-.25,1.27-3.04,2.09.37,1.08-1.06,1.27-2.26.48-3.12,1.5-5.41,1.95-7.24.5-2.03,1.08-7.26,1.31-9.59.1-1.05.39-2.89-.64-3.54.04-.21-.04-.44,0-.65h1.29c-.09-1.22.5-3.17-.64-3.88.49-2.78,1.6-5.48,1.93-6.91.76-3.33.73-14.68,2.13-16.83.37-.57,3.31-2.15,4.11-3,8.74-9.18,12.74-15.89,18.97-26.28.51-.85,1.62-1.17,1.89-1.8,1.88-4.52,1.94-12.05,2-16.94,11.19-1.36,22.64-.54,33.83.73,4.88.55,10.12,2.02,14.98,2.49,1.04.1,2.89.39,3.54-.64Z"/>
  <path class="cls-13" d="M187.07,344.58c.96,1.11,2.39,2.35,3.56,3.23,1.35,1.01,3.73,2.29,4.84,3.24.23.2.41.45.65.65.65.53.96,2.14,2.59,1.94,3.15,6.26,10.4,11.95,10.97,19.73.34,4.61-.41,7.97-3.31,11.54-1.11,1.37-2.48,1.84-3.79,3.64-5.1,2.84-10.98,4.22-16.8,4.53-4.98.27-12.46-1.7-16.13,1.01-.78.57-.88,1.08-1.32,1.57-12.46,7.59-26.69,8.35-40.43,3.92-1.68-.54-2.65-1.81-4.47-2.02-3.23-.37-4.76,1.23-7.45,1.98s-5.07,1.44-7.76,1.94c-6.98,1.29-13.71,1.68-20.68,0-4.1-.99-7.88-3.38-11.63-5.17-3.88-5.66-9.19-3.09-15.23-3.21-1.28-.02-2.15-.6-2.86-.67-5.48-.54-10.37-1.07-15.44-4.28-6.68-4.23-8.93-8.75-7.86-16.77.47-3.57,5.62-11.13,8.01-14.29.85-1.13,1.7-1.55,3.01-3.45l9.05-7.11c14.26-6.56,20.91-12.04,37.49-16.16,7.71-1.91,15.51-3.78,23.53-3.93l1.03-.6c25.61-.6,48.54,6.1,70.45,18.75ZM104.05,344.85c5.12,7.12,19.85,3.31,14.81-3.49-1.68-2.27-6.31-3.4-9.01-3.25-3.13.17-7.68,2.5-6.8,6.01.13.51.82.5.99.73ZM158.43,348.66c-3.79-3.67-16.92-4.8-15.94,2.65.73,5.51,15.25,9.34,17.82,2.98.51-1.52-.81-4.6-1.87-5.63ZM83.3,360.37c6.79-7.12-.05-12.53-7.56-9.18-.95.42-6.16,4.92-6.28,5.47-.59,2.74.05,5.6,2.87,6.66,4.17,1.57,8.05.1,10.97-2.96ZM127.23,365.67c-1.92-4.32-3.65-6.36-9.03-5.6-2.62.37-5.43,4.07-5.39,6.75.03,1.78,1.82,5.3,3.11,6.58,2.04,2.03,7.05,3.24,9.47,1.62,2.72-1.83,3.53-5.54,2.84-8.64-.1-.46-.92-.51-1-.7Z"/>
  <path class="cls-20" d="M406.82,427.33c24.42-2.88,47.94-10.37,69.08-23.03.92-.55,2.61-2.95,2.66-.57.05,2.13-1.08,1.4-1.26,2.08-1.29,4.65-2.33,12.39-3.26,16.99-2.04-.37-1.09,1.01-1.3,2.22-1.24,7.15-3.5,14.68-5.14,21.51-.25,1.06-.39,6.98-.67,7.3l-3.23-.64c-5.38-3.26-9.42-5.3-15.51-7.11.36-1.69-.84-1.32-1.92-1.6-5.36-1.39-12.74-3.11-18.11-1.63-.64-.03-1.29,0-1.94,0,.33-2.09-.96-1.18-2.18-1.17-8.05.03-16.53,1.12-24.32,3.11-3.11.8-3.48,1.07-7.11,1.29-1.78.11-3.43.32-5.17.65v-15.52c-1.33.15-1.48.07-1.29-1.29l22.61-1.3-1.94-1.29Z"/>
  <path class="cls-4" d="M190.3,405.99c.37.33-.97,2.83-1.31,3.39-14.19,23.71-75.27,21.69-99.01,17.76-13.61-2.25-31.9-7.84-36.04-22.45.24-.32.82.65.96.65h12.28c.35,0,4.65,3.67,5.55,4.15,10.48,5.58,28.49,6.18,39.91,3.83,2.41-.49,7.07-2.59,8.94-2.65,1.19-.04,5.36,1.87,7.19,2.23,13.02,2.59,27.74,2.69,39.98-2.94,3.54-1.63,5.02-3.98,8.95-3.98h12.6Z"/>
  <path class="cls-10" d="M573.57,345.22c-.65,1.03-2.49.75-3.54.64-4.86-.47-10.09-1.94-14.98-2.49-11.19-1.27-22.64-2.1-33.83-.73-.05,4.89-.12,12.41-2,16.94-.26.64-1.37.95-1.89,1.8.23-1.59.26-3.87.7-5.33.16-.52.96-.26,1.27-1.45.97-3.69.83-8.73,1.27-12.62l1.29-.65c17.36-1.24,34.69,1.14,51.71,3.88Z"/>
  <path class="cls-19" d="M368.69,445.43c.24,7.22-.28,16.69.6,23.64.16,1.24,1.24.62,1.39,1.85,1.07,8.39.1,19.35,1.9,27.73.04.2,3.84,2.47-.65,2.37-2.69-18.26-3.56-36.46-4.52-54.95l1.29-.65Z"/>
  <path class="cls-19" d="M148.94,313.55c-20.03-1.22-35.57-2.69-55.58,0,5.18-1.16,10.54-2.09,15.84-2.58,11.64-1.08,25.26-.73,36.74,1.38,1.09.2,2.23.25,3,1.2Z"/>
  <path class="cls-10" d="M406.82,427.33l1.94,1.29-22.61,1.3c-.19,1.36-.04,1.44,1.29,1.29v15.52c1.74-.32,3.39-.54,5.17-.65l-6.46,1.94-.65-19.39c7.29.58,14.22-.45,21.33-1.29Z"/>
  <path class="cls-23" d="M368.69,445.43l-1.29.65c-.13-2.58.35-5.73.05-8.12-.16-1.24-1.24-.62-1.39-1.85-.38-3.03-.4-13.26,0-16.24.02-.17,1.77-2.65,1.98-2.88l-.03,23.62c.15,1.66.62,3.14.67,4.82Z"/>
  <path class="cls-19" d="M492.13,329.06c-13.3-3.63-25.12-2.63-38.27.83-7.14,1.88-13.89,4.98-21.19,6.28,15.21-6.29,44.31-16.01,59.46-7.11Z"/>
  <path class="cls-19" d="M175.44,551.45c.36,2.06-1.03,1.14-2.25,1.27-13.06,1.41-24.46,1.39-37.52.67-1.24-.07-2.59.68-2.23-1.29.63.07,1.3-.06,1.94,0l.65.65c3.53.26,7.39-.08,10.99,0l.96.64.33-.64c1.08.01,2.16,0,3.23,0,.65,1.06,3.27,1.04,3.88,0,.65-.01,1.29.02,1.94,0,.09.97,1.85.97,1.94,0,4.31-.15,9.34-.17,13.57-.65.18-.02.48-.63.65-.65.62-.08,1.33.09,1.94,0Z"/>
  <path class="cls-15" d="M372.56,320.01c.55,1.14,2.5,3.16,3.87,3.24v.95c-2.74,2.39-4.85,5.9-.65,7.78l-1.29.96c-3.86.23-2.88-1.64-3.88-3.23,1.33-2.42,1.4-4.08,1.29-6.8-.07-1.59.46-2.11-1.29-.96.09-.18-.09-.5,0-.65s-.1-.49,0-.65l1.94-.65Z"/>
  <path class="cls-10" d="M474.04,422.8c-.96,4.7-1.02,11.21-3.2,14.69l-3.27,17.63c-.41.45-3.2-1.53-3.87-1.94l3.23.64c.28-.32.42-6.24.67-7.3,1.64-6.83,3.9-14.36,5.14-21.51.21-1.21-.74-2.59,1.3-2.22Z"/>
  <path class="cls-19" d="M224.56,360.09c1.06,2.01,4.34,8.82,4.58,10.62.66,5.1-.21,10.14-1.99,14.59l.64-10.65c-.83-3.06-.8-6.86-1.83-9.8-.38-1.08-3.36-2.86-1.4-4.77Z"/>
  <path class="cls-2" d="M260.1,501.02h-33.61c8.06-1,25.74-1.21,33.61,0Z"/>
  <path class="cls-19" d="M108.22,510.07c-1.22-.61-.41-2.19-.23-3.13,1.21-6.54,2.65-13.16,3.54-19.09.26-1.74.4-4.11,1.22-5.57-.64,9.81-2.45,18.23-4.52,27.8Z"/>
  <path class="cls-19" d="M116.62,325.83l-1.03.6c-8.02.15-15.83,2.01-23.53,3.93-1.18-1.8-.58-1.04.79-1.47,6.5-2,13.79-2.63,20.55-3.39.97-.11,2.56-.96,3.22.33Z"/>
  <path class="cls-19" d="M108.86,460.94c3.02,1.09,6.13,2.63,6.41,6.22.1,1.32-.37,9.82-.61,10.78-.11.45-1,.45-1.06.63-.37,1.07.08,2.47-.86,3.05.33-5.46.6-10.99.63-16.47l-4.51-4.22Z"/>
  <path class="cls-10" d="M489.55,418.92c1.03.65.75,2.49.64,3.54-.23,2.33-.81,7.56-1.31,9.59-.45,1.83-1.46,4.12-1.95,7.24-.19,1.2.82,2.62-1.27,2.26,1.38-7.94,2.55-15.1,3.88-22.63Z"/>
  <path class="cls-5" d="M168.33,395.65c-8.05,9.05-26.26,8.66-37.63,5.63-2.44-.65-5.59-2.8-8.05-2.84s-4.62,2.86-6.67,1.09c2.69-.75,4.22-2.35,7.45-1.98,1.82.21,2.79,1.48,4.47,2.02,13.74,4.44,27.97,3.68,40.43-3.92Z"/>
  <path class="cls-10" d="M399.71,444.78c7.79-1.99,16.27-3.08,24.32-3.11,1.22,0,2.52-.91,2.18,1.17-8.93-.12-17.63,1.1-26.5,1.94Z"/>
  <path class="cls-19" d="M31.95,413.1c-.26,4.21-.99,8.33-.64,12.6.25,3.1,1.43,6.28,2.58,8.74-1.3,2.05-1.93-1.45-2.11-2.09-1.73-6.23-2.72-13.33.17-19.24Z"/>
  <path class="cls-19" d="M88.18,441.55l-.65.65c-6.63-1.02-13.04-2.45-19.39-4.53.73-1.38,2.1-.36,3.02-.12,5.23,1.38,11.77,3.22,17.02,4Z"/>
  <path class="cls-19" d="M88.18,441.55c2.65.39,5.69.2,8.73.67,1.2.19,2.62-.82,2.26,1.27-3.63-.36-7.38-.76-10.99-1.29v-.65Z"/>
  <path class="cls-11" d="M87.54,401.47c6.98,1.68,13.7,1.29,20.68,0,.58,1.7-3.48,1.79-4.28,1.86-5.64.44-11.24-.1-16.76-1.18l.36-.68Z"/>
  <path class="cls-10" d="M428.15,442.84c5.37-1.47,12.75.24,18.11,1.63,1.08.28,2.29-.09,1.92,1.6-6.61-1.96-13.13-2.95-20.04-3.23Z"/>
  <path class="cls-15" d="M33.89,294.8l-.07,4.75c-3.09,3.4-3.35-1.93-3.81-4.1l3.88-.65Z"/>
  <path class="cls-19" d="M202.58,388.54c-.07.1,1.14.49-1.13,1.78-3.58,2.03-9.79,3.24-13.87,3.59-1.13.1-2.06,1.38-1.8-.84,5.82-.31,11.7-1.69,16.8-4.53Z"/>
  <path class="cls-11" d="M57.8,392.42c.72.07,1.58.65,2.86.67,6.04.11,11.36-2.45,15.23,3.21-1.1-.53-3.78-2.35-4.88-2.55-3.28-.6-8.61.11-12.26-.03-1.59-.06-2.11.46-.96-1.29Z"/>
  <path class="cls-19" d="M327.97,552.74c.88,1.13,3.11.63,4.52.65.43,0,.86,0,1.29,0,1.29,0,2.59,0,3.88,0h2.59c-5.37.51-10.88.92-16.49.65-1.58-.08-2.11.47-.96-1.29,1.71.07,3.45-.02,5.17,0Z"/>
  <path class="cls-2" d="M500.54,338.11c2.26-.08,1.78-.4,1.94,1.58.23,2.87-.16,5.88,0,8.76-2.01.45-1.22-1.36-1.29-2.58-.1-1.66.22-3.61,0-5.17-.04-.3-.34-.58-.65-.65-.1-.6.13-1.39,0-1.94Z"/>
  <path class="cls-2" d="M394.54,412.46l1.94,1.29c-5.7-.05-11.43.09-17.13.02-1.09-.01-2.87.41-3.55-.66,4.87-.5,10.51.29,15.51,0,.6-.03,1.16-.64,1.29-.65.64-.04,1.3.04,1.94,0Z"/>
  <path class="cls-19" d="M92.06,313.55c.32,1.59-.72,1.4-1.78,1.74-1.96.62-4.21,1.09-6.23,1.56-.87.2-2.42,1.12-2.97-.07,2.98-.83,8.26-3,10.99-3.23Z"/>
  <path class="cls-2" d="M415.22,339.41c-4.88.26-11.3.31-16.16,0,.67-1.07,2.45-.65,3.55-.66,4.01-.04,8.85-.49,12.61.66Z"/>
  <path class="cls-18" d="M554.18,456.42c-5.63-.39-12.77-2.72-19.36-3.59-1.01-.13-2.04.18-3.25.06-1.01-.1-3.77.11-3.25-1.65,8.46.54,17.7,2.86,25.85,5.17Z"/>
  <path class="cls-19" d="M154.75,314.19c-.08,0-.53.66-1.49.62-1.06-.04-2.84-.53-3.68-1.27,1.77.07,3.47-.05,5.17.65Z"/>
  <path class="cls-19" d="M187.07,344.58c.25.15,1.28-.28,1.75.18l6.65,6.28c-1.11-.95-3.49-2.23-4.84-3.24-1.17-.88-2.6-2.12-3.56-3.23Z"/>
  <path class="cls-19" d="M54.57,346.52l-9.05,7.11c1.94-2.81,6.06-5.74,9.05-7.11Z"/>
  <path class="cls-19" d="M345.42,552.74c1.07.02,2.16-.02,3.23,0v.63s-5.81-.64-5.81-.64c.78-.1,1.76-.01,2.59,0Z"/>
  <path class="cls-10" d="M490.2,414.4c1.14.71.55,2.66.64,3.88h-1.29c.22-1.29.42-2.6.65-3.88Z"/>
  <path class="cls-19" d="M276.26,528.18c2.05,5.28,3.36,9.58,7.76,13.58-.18,1.2-1.71-.12-1.97-.48-2.8-3.8-3.81-6.12-5.59-10.36-.2-.48-3.68-2.56-.19-2.74Z"/>
  <path class="cls-18" d="M595.55,477.75c.1-.84-.08-1.74,0-2.58h.96s-.32,2.58-.32,2.58h-.65Z"/>
  <path class="cls-2" d="M370.63,321.3c-.09.15.09.47,0,.65-.49.94-1.79.62-2.01,2.89-.09.9.3,3.7.73,4.41s1.25.4,1.28.46c1,1.6.02,3.47,3.88,3.23v1.29c-.31-.12-1,.2-1.73-.19-.46-.25-4.24-3.67-4.45-4.29-.7-2.11-.92-8.06,2.3-8.45Z"/>
  <path class="cls-18" d="M539.96,327.12v1.29s-1.61,0-1.61,0l-.33-1.3c.65,0,1.29-.01,1.94,0Z"/>
  <path class="cls-19" d="M196.12,351.69c2.68.62,1.9.57,2.59,1.94-1.63.2-1.94-1.41-2.59-1.94Z"/>
  <path class="cls-2" d="M372.56,320.01l-1.94.65c.67-1.06.89-1.27,1.94-1.94.08.39-.12,1.04,0,1.29Z"/>
  <path class="cls-19" d="M432.03,336.17c-.65.63-1.73,1.09-2.59,1.29v-1.29c.85-.09,1.74.09,2.59,0Z"/>
  <path class="cls-2" d="M264.63,502.32c-.54,1.2-2.57-.48-3.23-.65,1.24-.19,2.14.2,3.23.65Z"/>
  <path class="cls-19" d="M157.34,314.84l-1.29.64v-1.29c.38.04.91.58,1.29.65Z"/>
  <path class="cls-8" d="M521.87,341.35l-1.29.65v-.65c.43-.02.86.03,1.29,0Z"/>
  <path class="cls-2" d="M373.21,318.72c.05-.03.22-.44.65-.65l-.65.65Z"/>
  <path class="cls-22" d="M578.1,178.43c1.19.7,5.39,2.51,5.66,2.74,1.75,1.51.61,19.7.16,23.12-.18,1.37.52,3.09-.64,4.21l-31.35,15.89c-10.93-4.96-21.57-10.91-31.99-16.87v-25.86c10.22-6.38,20.98-11.99,32.04-16.8,8.97,3.71,17.71,8.63,26.12,13.57Z"/>
  <path class="cls-24" d="M503.12,213.99c.25,5.88.49,11.99,1.24,17.82.15,1.18,1.14.8,1.31,1.39.6,2.02.19,5.46,1.15,7.65l-.45.61c-11.24,2.89-31.28,8.45-40.75-.32-3.46-3.21-3.21-7.26-1.61-11.63s7.05-11.24,10.24-14.65c3.86-4.11,8.68-7.56,12.69-11.55l16.16,10.68Z"/>
  <path class="cls-24" d="M632.39,144.82c4.05.76,3.61.89,6.1,3.26s3.02,1.78,3.01,6.11c-.01,4.89-4.67,12.88-7.81,16.63s-10.82,11.3-14.79,13.86c-.73.47-1.24.6-2.02.86l-14.76-9.8c.47-3.76-.92-7.29-1.4-10.89-.25-1.89.2-4.06-.07-6.07-.47-3.38-2.78-6.45-2.51-10.09.14-.14,2.67-1.92,2.89-1.99,3-.92,9.26-1.55,12.63-1.89,6.37-.64,12.38-1.2,18.74,0Z"/>
  <path class="cls-24" d="M610.41,209.46c2-1.15,4.03-1.91,5.62-3.81,1.13-.3,6.74,4.29,7.98,5.4,5.21,4.69,12.49,13.01,14.19,19.75,1.92,7.64,1.68,11.76-6.46,14.87-2.12.34-5.12,1.95-5.45,1.99-2.99.39-5.94-.31-8.77-.7-7.23-.99-14.51-2.58-21.33-5.17.4-1.93.81-3.91,1.29-5.82.57-2.26,2.33-6.46,2.57-7.55.49-2.18.29-11.38,1.04-12.52l9.31-6.44Z"/>
  <path class="cls-24" d="M487.61,142.88c5.67.63,15.02,2.12,20.04,4.53.25.12.9-.1,1.29,0,.56,1.65-.97,1.03-1.26,1.76-1.36,3.39-1.07,8.7-2,11.99-.15.54-1.12.42-1.24.91-.78,3.22-.28,7.81-1.31,11.19l-.68,1.55-15.16,9.25c-.78-.07-10.04-9.37-11.3-10.8-4.11-4.68-9.75-12.04-10.33-18.43-.21-2.33-.15-5.21.64-7.43,1.18-3.32,8.58-4.99,11.93-5.19,3.16-.19,6.29.32,9.4.67Z"/>
  <path class="cls-24" d="M536.73,125.42c3.32-5.59,7.72-13.04,15.23-14.18,6.91-1.04,13.73,3.6,16.48,9.63.41.05.85.08,1.26.02,2.56,5.94,6,11.22,7.76,17.45-.07.22.09.52,0,.65l-23.27,9.05c-.42.02-1.05.75-2.09.52-3.11-.68-6.92-3.35-9.83-4.44-2.59-.97-5.26-1.36-8.12-2.55.21-2.62-3.86-1.06-3.89-3.52,1.61-2.98,2.8-7.04,4.35-9.89.37-.69,1.36-1.47,2.13-2.75Z"/>
  <path class="cls-24" d="M537.38,270.23c-4.19-4.71-6.43-11.82-8.46-17.6-.2-.57-2.15-.86-1.17-3.02l23.61-8.46,23.24,9.01c.39.47.18.95.14,1.47-.42,5.26-6.02,11.13-7.64,16.02-2.32,1.64-4.71,5.59-6.77,7.12-1.58,1.18-8.57,4.27-10.24,3.87-.45-.11-.35-1.06-.92-1.25-5.25-1.76-7.89-2.76-11.8-7.15Z"/>
  <path class="cls-11" d="M503.12,213.99l.64-.65c.86,2.85.09,7.47.67,9.9.74,3.11,1.54,6.39,2.01,10.38.26,2.2,2.22,6.89.58,8.51-2.23,2.2-24.17,5.07-28.16,4.85-4.06-.22-11.97-1.29-13.22-5.84,9.47,8.77,29.51,3.21,40.75.32l.45-.61c-.96-2.19-.55-5.63-1.15-7.65-.18-.59-1.16-.21-1.31-1.39-.75-5.83-.99-11.94-1.24-17.82Z"/>
  <path class="cls-17" d="M581.33,153.22c.69,1.83.28,4.41.66,6.02.14.6,1.59-.16,1.28,3.37-.16,1.87-1.56.68-2.59.96-3.64-1.96-6.12-4.84-10.34-6.14,3.1-1.47,7.65-4.18,10.98-4.21Z"/>
  <path class="cls-2" d="M537.38,270.23l-2.59-1.78c-1.83-4.23-5.43-8.9-7.05-12.94-.23-.58-1.38-5.29-1.3-5.56l25.51-10.02,24.58,10.26c.96,1.86-1.36,3.14-1.6,3.75-2.11,5.31-4.03,9.8-7.22,14.35l-.59-.64c1.62-4.89,7.21-10.76,7.64-16.02.04-.52.25-1-.14-1.47l-23.24-9.01-23.61,8.46c-.98,2.16.97,2.45,1.17,3.02,2.03,5.78,4.26,12.9,8.46,17.6Z"/>
  <path class="cls-17" d="M581.33,226.92c-.5,2.91-.54,6.23-1.29,9.05-.06.22.08.49,0,.65-3.27-1.18-6.47-2.59-9.69-3.88l10.99-5.82Z"/>
  <path class="cls-17" d="M522.51,226.27c3.09.54,7.41,5.16,10.99,5.18-1.59,1.57-6.09,3.31-8.27,3.77-.86.18-1.32-.54-1.43-.54l-1.29-8.4Z"/>
  <path class="cls-17" d="M533.5,156.46c.32,1.69-.29,1-.92,1.34-1.05.57-9.06,4.85-9.42,4.47l1.29-9.05,9.05,3.24Z"/>
  <path class="cls-11" d="M508.94,146.76c1.11,1.14.35,4.54-.05,5.97-1.35,4.87-3.32,11.71-4.46,16.45-.33,1.37.18,3.26-.02,4.73l-1.29-.65c1.03-3.37.53-7.97,1.31-11.19.12-.49,1.09-.38,1.24-.91.92-3.3.64-8.61,2-11.99.29-.73,1.82-.11,1.26-1.76-.39-.1-1.04.12-1.29,0l1.29-.65Z"/>
  <path class="cls-2" d="M610.41,209.46l-9.31,6.44c-.75,1.13-.54,10.33-1.04,12.52-.25,1.1-2.01,5.29-2.57,7.55l1.3-15.08c2.4-.93.74-3.22,1.38-5.19.36-1.1,8.71-5.36,10.24-6.24Z"/>
  <path class="cls-5" d="M536.73,125.42c-.76,1.28-1.75,2.06-2.13,2.75-1.54,2.85-2.73,6.91-4.35,9.89.02,2.46,4.1.9,3.89,3.52-6.69-2.79-5.64-3.68-2.53-10.47.25-.54,1.06-.65,1.42-1.33.92-1.7,1.22-6.47,3.69-4.36Z"/>
  <path class="cls-2" d="M466.28,147.4c-.79,2.22-.85,5.1-.64,7.43.59,6.38,6.22,13.75,10.33,18.43-.18,1.2-1.69-.12-1.97-.47-5.73-7.22-6.66-8.92-9.06-17.79-.15-.57-1.12-.24-1.3-1.41-.54-3.56.84-3.07,1.29-4.13.27-.65.36-1.51.7-2.06h.65Z"/>
  <path class="cls-2" d="M577.45,139l-21.86,9.58c-.9.2-1.32-.53-1.4-.53l23.27-9.05Z"/>
  <path class="cls-2" d="M569.69,120.9c.09-.01.16-.76.63-.65-.16,2.33,2.08,3.47,2.79,4.7.55.96,2.77,4.94,3,5.51.95,2.29,2.01,5.69,1.34,7.9-1.76-6.23-5.19-11.51-7.76-17.45Z"/>
  <path class="cls-2" d="M508.94,146.76l-1.29.65c-5.02-2.4-14.37-3.9-20.04-4.53v-.65c3.66.34,19.18,2.33,21.33,4.53Z"/>
  <path class="cls-16" d="M578.1,178.43l5.09,1.69,1.88,2,.13,26.04-1.29-3.88c.45-3.42,1.59-21.61-.16-23.12-.27-.23-4.47-2.05-5.66-2.74Z"/>
  <path class="cls-2" d="M613.64,144.82c.45-1.48,1.67-1.25,2.87-1.33,4.95-.35,8.69-.7,13.62.06,1.2.19,2.62-.82,2.26,1.27-6.36-1.2-12.37-.64-18.74,0Z"/>
  <path class="cls-11" d="M617.52,246.96c-1.38.75-4.5.16-6.05-.09-5.44-.85-10.57-2.6-15.92-3.8-.24-.2.57-.93.65-1.29,6.82,2.6,14.1,4.18,21.33,5.17Z"/>
  <path class="cls-11" d="M581.33,153.22c.65,0,1.29-.02,1.94,0l1.31,10.03c-.93,3.09-2.37,1.14-3.9.32,1.03-.28,2.43.91,2.59-.96.31-3.52-1.14-2.76-1.28-3.37-.39-1.61.03-4.19-.66-6.02Z"/>
  <path class="cls-1" d="M519.93,181.67v25.86c-.83-.47-.59-.77-.68-1.56-.87-7.59.72-16.83.03-24.62l.65.32Z"/>
  <path class="cls-16" d="M487.61,142.23v.65c-3.11-.34-6.24-.86-9.4-.67-3.35.2-10.75,1.87-11.93,5.19h-.65c1.99-3.2,5.02-5.05,8.88-5.66,4.41-.7,8.92.11,13.09.49Z"/>
  <path class="cls-16" d="M600.72,164.86h-.65c-.38-3.22-.95-3.64-1.28-4.97-.38-1.58-1.23-8.04-1.28-9.69-.03-1.12.02-.86.62-1.49-.27,3.64,2.05,6.71,2.51,10.09.28,2.01-.18,4.18.07,6.07Z"/>
  <path class="cls-2" d="M638.2,230.8c.65-.41,2.52,2.23,2.56,2.4.22.94.22,4.59.01,5.55-.12.53-1.05.51-1.26.92-1.39,2.7-2.99,5.75-6.35,6.54-.91.22-1.35-.56-1.42-.55,8.14-3.11,8.39-7.23,6.46-14.87Z"/>
  <path class="cls-16" d="M522.51,226.27l1.29,8.4c-.23,0-1.15.89-1.29.65,1.18-2.62-1.23-4.08-1.28-4.32-.32-1.37.16-3.26-.01-4.73.42.04.89-.07,1.29,0Z"/>
  <path class="cls-11" d="M600.72,164.86c.48,3.59,1.86,7.13,1.4,10.89l14.76,9.8c-.2.07-.21.89-1.24.37-2.49-2.28-5.37-4.29-8.13-6.18-2.92-1.99-6.17-2.06-6.74-6.19-.37-2.71-.34-5.72-.69-8.68h.65Z"/>
  <path class="cls-11" d="M570.34,232.74c3.22,1.29,6.43,2.7,9.69,3.88-.47.95-.52.74-1.49.53-3.08-.67-6.71-3.59-10.15-3.77-.24-2.29.88-1.06,1.94-.64Z"/>
  <path class="cls-11" d="M581.33,226.92c1.5,1.72.36,4.89.01,6.83-.21,1.2.74,2.59-1.3,2.22.75-2.82.79-6.14,1.29-9.05Z"/>
  <path class="cls-19" d="M20.96,204.29c-.39,3.16-.11,8.87-.66,11.19-.12.52-1.17.17-1.33,1.37-.25,1.9-.25,7.88,0,9.78.15,1.11,1.03,3.24,1.34,6.1h-1.29c-.84-9.02-.8-17.71,0-26.85.17-1.96-.39-1.68,1.93-1.59Z"/>
  <path class="cls-2" d="M422.33,197.18c2.24-1.76.99,1.61,1.31,2.79.15.53,1.19.18,1.33,1.37,1.11,9.06.35,18.41.59,27.52,0-.42-.63-2.31-.65-3.88-.08-10.21-.91-17.78-2.59-27.8Z"/>
  <path class="cls-19" d="M329.26,67.89c2.54-.21,1.59-.11,1.96,1.56.69,3.15.48,8.04,2.53,9.89l1.32,11.82c-1.18-1.84-.85-3.61-1.33-5.34-1.45-5.16-3.33-12.74-4.48-17.94Z"/>
  <path class="cls-19" d="M424.92,224.98c.01,1.57.65,3.46.65,3.88-.02,5.86-2.78,11.68-3.24,17.78l-.64-.33c.93-1.44,1.84-16.33,1.94-19.1.04-1.24-.66-2.59,1.29-2.23Z"/>
  <path class="cls-19" d="M68.15,78.23c-.34,3.4-.09,10.04-.66,12.49-.12.52-1.17.17-1.33,1.37-.21,1.65.16,3.76.05,5.54-1.07-1.91-.79-5.29-.68-7.46.18-3.39.41-6.95.68-10.34.15-1.99-.32-1.66,1.94-1.58Z"/>
  <path class="cls-19" d="M23.55,249.55c2.03,7.3,3.59,11.7,6.65,18.26.77,1.66,1.2,3.88,1.76,5.66-4.53-7.39-5.85-12.07-8.45-20.19-.07-.22-3.55-3.3.05-3.73Z"/>
  <path class="cls-2" d="M65.56,102.15c.15,5.35.83,17.8-1.34,22.12-.09.19-2.08,2.49-2.54,3.09l1.35-4.02c3.39-5.55,1.24-14.5,1.88-21.2h.65Z"/>
  <path class="cls-2" d="M20.32,232.74c.36,3.25.72,6.48,1.29,9.7-2.3.4-.97-2.1-1.31-3.44-.56-2.26-.94-2.64-1.28-6.26h1.29Z"/>
  <path class="cls-2" d="M323.44,39.44c.11-.02.14-.81.64-.65.51,2.33.73,4.99,1.36,7.26.16.58,1.1,0,1.28,2.07.1,1.15.47,2.72-1.34,2.31l-1.94-10.99Z"/>
  <path class="cls-19" d="M417.81,258.6c-1.11,6.38-3.39,9.36-6.3,15.38-.32.67.04,2.59-1.45.78,1.5-2.66,2.54-5.95,4.46-8.28l3.3-7.88Z"/>
  <path class="cls-19" d="M185.13,18.76c-3.55-2.04-8.08-3.82-11.69-1.01-.16.13-2.58,2.88-2.71,3.12-2.38,4.16-4.53,11.6-5.66,16.18-.09.37-.76.2-1.27,1.75-.83-.94-.28-3.74.06-4.67.87-2.39,3.58-6.72,4.65-9.06.88-1.92,1.54-4.8,2.59-6.81,1.94-.22,2.32-1.94,4.31-2.42,3.77-.9,5.07-.02,8.29,1.43.33.15,2.9.81,1.43,1.48Z"/>
  <path class="cls-2" d="M142.47,93.1c-4.14.91-9.75-.19-12.93-3.23,1.46.57,5.76,2.37,6.83,2.55,1.96.33,4.49-.68,6.1.69Z"/>
  <path class="cls-19" d="M66.21,98.92l-.65,1.29c-.02-.1-.91-.54-.64-1.29h1.29Z"/>
  <path class="cls-19" d="M65.56,102.15h-.65c.03-.29.34-.58.65-.65,0,.21,0,.43,0,.65Z"/>
  <path class="cls-10" d="M598.78,380.78c-1.94,11.13-3.55,22.48-6.43,32.79-2.02,7.23-3.11,19.07-4.55,26.69-1-3.31-.04-8.96.7-12.44.11-.5,1.09-.49,1.19-.99,2.9-14.96,5.01-29.61,7.6-44.03.21-1.15-.26-2.41,1.5-2.02Z"/>
  <path class="cls-10" d="M603.95,355.57c-.34,3.57-1.41,6.03-2,9.31-.2,1.09-.33,2.2-1.24,2.98.38-3.62.66-7.09,1.31-10.68.31-1.72-.69-1.78,1.92-1.6Z"/>
  <path class="cls-10" d="M600.72,371.08c-.97-.21-1.01-2.32,0-2.59-.02.23.1,1.49,0,2.59Z"/>
  <path class="cls-23" d="M289.83,240.5s-.17.73.83.53c3.6-.72,5.73-2.14,9.85-.54,1.99.77,2.69,3.6,4.83,3.88.85,4.67-.46,16.95-1.88,21.69-4.8,16.02-17.41,30.9-35.6,33.9-1.22-1.83-3.98,0-4.85,0h-9.69c-2.61,0-7.67-2.17-10.65-2.28l-9.71-4.19c-10.25-6.47-18.39-16.78-21.98-27.8,3.62-.41.1-3.48.03-3.7-1.28-4.32-.66-12.27,4.45-13.48,6.24-1.47,15.74,2.08,22.42,2.87,11.11,1.32,25.73.64,35.79-3.8,4.45-1.96,11.89-5.98,16.16-7.11ZM270.45,266.35c-8.18-4.26-19.09-2.99-27.66-.2-.92.3-4.87,1.44-4.65,2.78-.64.34-2.2,2.37-3.61,2.58.55,4.65,5.09,9.13,9.12,11.62,8.43,5.21,20.76,5.46,29.33.29,2.73-1.65,8.91-7.88,6.84-11.26-.65-1.06-7.96-5.35-9.37-5.82Z"/>
  <path class="cls-7" d="M160.81,258.36c2.88,2.79,4.92,5,5.41,9.13,2.72,22.81-29.75,27.49-46.05,21.5-13.84-5.09-27.41-22.02-13.67-34.69,12.67-11.69,42.67-7.22,54.31,4.06Z"/>
  <path class="cls-7" d="M348.65,236.62c4.41-1.72,8.71-5.93,13.66-7.99,12.23-5.1,28.42-5.32,39.03,3.45,5.39,4.46,6.54,12.67,3.27,18.83-9.23,17.36-45.59,25.51-58.83,8.94-.86-1.08-3.58-7.94-3.58-9.34,0-.75.49-4.36.68-5.01.15-.51,1-.45,1.19-.99.44-1.25.72-3.83,1.34-4.87.46-.76,1.47-.25,1.82-.56.4-.35.04-1.02.14-1.17.41-.66.44-.96,1.29-1.29Z"/>
  <path class="cls-23" d="M326.68,198.47c3.72-.26,11.86.48,14.87,1.29,7.68,2.08,13.09,9.73,14.05,17.3s-.77,14.44-6.94,19.55c-.85.33-.88.63-1.29,1.29-6.95,3.91-14.2,5.15-21.94,2.88-8.92-2.62-13.25-8.53-15.54-17.1l1.29-14.22c2.19-5.69,9.46-10.57,15.51-10.99Z"/>
  <path class="cls-21" d="M160.57,217.87l10.67-2.57c6.96-.63,17.71,2.63,21.55,8.78,1.26,2.02.88,5.61,3.97,6.08.87,3.95,1.05,10.27.35,14.25-.75,4.31-3.3,6.82-6.82,9.02-4.13,2.59-7.82,3.26-12.61,3.91-1.2.16-2.62-.82-2.26,1.27-.43.02-.86,0-1.29,0l-11.81-3.9c-3.01-2.37-5.84-4.91-7.58-8.39-.26-.51-1.48-3.25-1.64-3.82-1.34-4.64-1.82-12.47,1.58-16.09l2-5.3c1.17-1.22,2.43-2.36,3.88-3.23Z"/>
  <path class="cls-19" d="M273.68,247.61c-10.07,4.44-24.68,5.12-35.79,3.8-6.68-.79-16.18-4.34-22.42-2.87-5.11,1.21-5.74,9.16-4.45,13.48.07.22,3.59,3.29-.03,3.7-2.36-7.26-3.13-16.83,6.29-18.59,4.67-.87,12.38,2.19,17.48,2.9,13.37,1.86,25.86.59,38.92-2.41Z"/>
  <path class="cls-19" d="M160.57,217.87c9.49-5.69,19.13-4.85,28,1.4,3.67,2.58,7.22,6.47,8.19,10.88-3.09-.46-2.71-4.06-3.97-6.08-3.84-6.14-14.59-9.41-21.55-8.78l-10.67,2.57Z"/>
  <path class="cls-2" d="M156.69,221.1l-2,5.3c-3.4,3.62-2.91,11.45-1.58,16.09.16.57,1.38,3.31,1.64,3.82h-1.29c-3.91-7.76-2.79-18.96,3.23-25.21Z"/>
  <path class="cls-2" d="M267.86,299.97c-12.83,2.12-24,.42-34.9-6.46l9.71,4.19c2.98.11,8.04,2.28,10.65,2.28h9.69c.87,0,3.63-1.83,4.85,0Z"/>
  <path class="cls-2" d="M309.87,223.69c-.19-.7.23-1.88-.02-2.77-.16-.59-1.67-.07-1.34-2.75.16-1.23,1.22-.87,1.34-1.39.59-2.67.03-4,1.3-7.32l-1.29,14.22Z"/>
  <path class="cls-19" d="M305.35,244.37c-2.14-.28-2.84-3.11-4.83-3.88-4.13-1.6-6.25-.18-9.85.54-1,.2-.78-.54-.83-.53,3.68-3.93,14.61-1.04,15.51,3.88Z"/>
  <path class="cls-19" d="M175.44,258.6c-.36-2.09,1.06-1.1,2.26-1.27,4.78-.64,8.48-1.32,12.61-3.91-3.51,4.04-9.78,4.99-14.87,5.17Z"/>
  <path class="cls-19" d="M154.75,246.31c1.74,3.47,4.58,6.02,7.58,8.39l11.81,3.9c-8.4-.17-16.82-4.61-20.68-12.28h1.29Z"/>
  <path class="cls-2" d="M341.54,199.77c-3.01-.82-11.15-1.55-14.87-1.29,4.87-1.44,10.35-.86,14.87,1.29Z"/>
  <path class="cls-9" d="M332.49,553.39c-1.42-.02-3.64.48-4.52-.65,1.42.01,3.64-.48,4.52.65Z"/>
  <path class="cls-9" d="M337.66,553.39c-1.29,0-2.59,0-3.88,0,.65-1.06,3.27-1.04,3.88,0Z"/>
  <path class="cls-9" d="M155.4,552.74c-.61,1.04-3.23,1.06-3.88,0,1.29,0,2.59.03,3.88,0Z"/>
  <path class="cls-9" d="M159.28,552.74c-.09.97-1.85.97-1.94,0,.65-.02,1.29.02,1.94,0Z"/>
  <path class="cls-9" d="M148.29,552.74l-.33.64-.96-.64c.43,0,.86,0,1.29,0Z"/>
  <path class="cls-9" d="M392.6,412.46c-.13,0-.7.61-1.29.65l1.29-.65Z"/>
  <path class="cls-9" d="M172.85,552.09l.65-.65c-.17.02-.46.63-.65.65Z"/>
  <path class="cls-9" d="M136.01,552.74l-.65-.65c.47.04.6.64.65.65Z"/>
  <path class="cls-9" d="M501.18,340.7c-.31-.08-.59-.34-.65-.65.31.07.6.34.65.65Z"/>
  <path class="cls-6" d="M127.23,365.67c.08.19.9.24,1,.7.7,3.11-.11,6.82-2.84,8.64-2.43,1.63-7.43.41-9.47-1.62-1.29-1.28-3.08-4.8-3.11-6.58-.05-2.68,2.77-6.38,5.39-6.75,5.38-.75,7.11,1.29,9.03,5.6Z"/>
  <path class="cls-6" d="M83.3,360.37c-2.92,3.06-6.79,4.53-10.97,2.96-2.82-1.06-3.47-3.93-2.87-6.66.12-.55,5.33-5.05,6.28-5.47,7.51-3.35,14.36,2.05,7.56,9.18Z"/>
  <path class="cls-6" d="M158.43,348.66c1.07,1.03,2.38,4.11,1.87,5.63-2.57,6.36-17.09,2.53-17.82-2.98-.98-7.45,12.15-6.33,15.94-2.65Z"/>
  <path class="cls-6" d="M104.05,344.85c-.17-.23-.86-.23-.99-.73-.89-3.51,3.66-5.84,6.8-6.01,2.7-.15,7.32.98,9.01,3.25,5.04,6.81-9.7,10.62-14.81,3.49Z"/>
  <path class="cls-9" d="M370.63,329.71c-.04-.06-.86.24-1.28-.46s-.81-3.51-.73-4.41c.22-2.27,1.52-1.95,2.01-2.89,1.75-1.15,1.22-.63,1.29.96.11,2.72.04,4.38-1.29,6.8Z"/>
  <path class="cls-14" d="M270.45,266.35c1.41.47,8.72,4.76,9.37,5.82,2.07,3.37-4.11,9.61-6.84,11.26-8.57,5.17-20.9,4.92-29.33-.29-4.03-2.49-8.58-6.97-9.12-11.62,1.4-.21,2.97-2.24,3.61-2.58,8.38-4.43,23.36-5.55,32.32-2.59Z"/>
  <path class="cls-19" d="M270.45,266.35c-8.96-2.97-23.94-1.85-32.32,2.59-.22-1.34,3.73-2.48,4.65-2.78,8.57-2.8,19.48-4.07,27.66.2Z"/>
</svg>