<?xml version="1.0" encoding="UTF-8"?>
<svg id="_레이어_1" data-name="레이어 1" xmlns="http://www.w3.org/2000/svg" viewBox="0 0 56.88 61.89">
  <defs>
    <style>
      .cls-1 {
        fill: #e1ab5c;
      }

      .cls-2 {
        fill: #f08513;
      }

      .cls-3 {
        fill: #9f8c7e;
      }

      .cls-4 {
        fill: #06130e;
      }

      .cls-5 {
        fill: #e4b373;
      }

      .cls-6 {
        fill: #181109;
      }

      .cls-7 {
        fill: #ee9020;
      }

      .cls-8 {
        fill: #372413;
      }

      .cls-9 {
        fill: #372311;
      }

      .cls-10 {
        fill: #c46b0e;
      }

      .cls-11 {
        fill: #f58610;
      }

      .cls-12 {
        fill: #ca720e;
      }

      .cls-13 {
        fill: #d57213;
      }

      .cls-14 {
        fill: #0f0802;
      }

      .cls-15 {
        fill: #38281a;
      }

      .cls-16 {
        fill: #d67710;
      }

      .cls-17 {
        fill: #be6b10;
      }

      .cls-18 {
        fill: #ef9121;
      }

      .cls-19 {
        fill: #392512;
      }

      .cls-20 {
        fill: #221710;
      }
    </style>
  </defs>
  <path class="cls-8" d="M26.78.49c.08,0,.16,0,.24,0v.44c.15.03.35-.03.48,0,.64.15,3.03.98,3.42,1.3.24.2.16.57.41.77.54.42,1.45.88,1.9,1.33.5.5.96,1.6,1.42,1.98.6.49,2.67.57,3.64.82,1.06.27,2.02.71,3.05,1.03.48-1.69,1.27-3.09,3.43-2.99,1.78.09,6.45,1.76,7.87,2.81,2.24,1.65,4.02,5.4,4.19,7.99.05.79.24,1.62-.82,1.84-.97.07-1.54-1.27-2.1-1.69-.47-.36-3.05-2.09-3.43-2.27-.26-.12-2.8-.7-2.94-.66l-.22.12.22,1.85c0,.15,0,.29,0,.44l-.23.11.23.11c0,.07,0,.15,0,.22.04.97.07,1.48.24,2.41.1.56.41,1.04.48,1.64.19,1.71.05,3.7.28,5.44,4.02,1.98,4.16,7.14.49,9.48.19,6.98.89,14.12.66,21.12-.02.47.16,1.64-.22,1.88-.83.19-1.9.11-2.71.33-.21.05-.18.42-.32.43s-1.74-.28-1.8-.35c-.39-.88-.13-1.82-.21-2.72h.24c.48-.25.45-.76.49-1.2.32-3.62.15-8.8-.01-12.51-.02-.42.25-.88-.48-.76-.02-.59-.17-1.17,0-1.75-.38-.15-.58.19-.72.22-1.27.29-2.52.69-3.82.88l-.24.31c-.05,1.39.09,2.8.02,4.19-.05.91-.16,2.2-.25,2.95-.12,1.04-.29,2.04-.48,3.07-.31,1.74-1.35,3.96-.72,5.7.11.42.62.58.5,1.65-.22,1.94-7.81,1.35-9.26.81-2.6-.98-2.07-2.98-2.92-4.99-.4-.26-3.68.06-3.97.34-1.18,1.82-2.14,4.16-4.65,4.93-.46.14-1.17.25-1.67.33-1.28-.37-3.24-.37-4.54,0-.08-.01-.16.02-.24,0-.33-.62-1.31-.53-1.91-.88-1.89-1.13-1.37-1.87-.48-3.51,1.16-2.12,1.49-2.59,1.35-5.12-.01-.25-.32-.49-.33-.71-.03-.48.35-1.2.19-1.7-.03-.08-1.4-.72-1.59-.87-.92-.73-1.29-1.55-1.77-2.55v-2.96c.18-.69.3-1.4.48-2.08.36-1.36.6-2.42,2.14-3.07v-.43c-2.03-.83-3.68-3.1-4.36-5.09-.95-2.81-.69-5.21-.17-8.06-3.54-.36-5.89-2.8-5.15-6.15.51-2.32,4.59-5.15,6.75-6.3.66-.35,3.69-1.49,3.84-1.63.26-.24.26-1.02.48-1.42.76-1.35,2.94-3.77,4.23-4.67.58-.41,2.87-1.63,3.46-1.75.53-.11,2.5-.37,3.23-.43,1.57-.13,3.21.15,4.65,0ZM32.75,6.19c-2.25-3.53-6.87-5.27-11.28-4.55-3.59.59-7.41,3.41-8.78,6.52,1.98-.45,3.95-.79,5.97-1.09.62.4,1.57-.2,2.39,0v-.44c.08,0,.16,0,.24,0,.23,0,1.11.46,1.67.22v-.44c.08,0,.16,0,.24,0,.37.33.85.22,1.3.23,1.98.03,4.01.04,5.99,0,.45,0,.93.1,1.3-.23.32.02.64-.01.96,0l.48-.11-.48-.11ZM54.96,15.17c-.47-3.06-2.18-6.02-5.43-7.18-1.67-.6-3.56-.74-5.17-1.55-3.03,1.55-1.01,3.83-1.37,6.19-.11.76-.51,1.51-1.17,1.99-.2.41-2.1.92-1.91,1.31.15.3,1.93.57,2.09.5.03-.01.06-.25.25-.37.21-.13.54-.1.78-.34.85-.86,1.1-3.65,3.24-3.78,2.4-.15,3.75.22,5.8,1.37.36.2,2.74,1.99,2.89,1.84ZM24.63,7.72c-.24.02-.48-.02-.72,0-1.06-.47-3.11-.16-4.06.44-3.22.43-7.18,1.19-9.73,2.4-3.03,1.45-8.54,3.93-8.67,7.57-.06,1.68,2.36,3.73,4.19,3.63.5-.03,1.17-1.76,1.31-2.21l-.95-.33c.29-.25.46-.59.74-.85,1.53-1.45,4.46-2.82,6.59-3.35,2.29-.57,5.06-1.17,7.61-1.19.27-.9,1.12-.18,1.64-.19.16,0,.02-.41.48-.46,5.66-.65,9.77-.02,15.03,1.13.22.05.04.58.74.43.09-.02.11-.33.31-.42,1.26-.59,2.56-1.08,2.43-2.73-.22-2.8-4.54-3.35-6.92-3.64v-.44c-.75.09-1.82-.25-2.39.22-.24-.02-.48.01-.72,0,.13-.66-.37-.42-.82-.44-1.69-.06-3.58-.05-5.28,0-.46.01-.96-.22-.82.44ZM46.36,13.86c-1.23-.08-1.44,1.3-1.61,2.14l.42,9.91,2.13-.58c-.37-2.05-.29-4.16-.46-6.22.4-.34.22-.72.17-1.14-.08-.7-.16-3.96-.65-4.12ZM25.82,14.29c-.59.02-1.5-.11-1.99,0-.18.04-.15.43-.3.44-.38.02-.96-.38-1.61-.22-.18.04-.15.44-.3.45-.86.03-1.57-.32-2.79,0-.21.06-.18.43-.31.43-1.3.02-2.79.35-4.34.81-2,.59-3.14.88-4.59,2.37-3.97,4.07-4.48,11.3-.37,15.45.39.39,2.44,1.76,2.48,1.9.22.81-1.83,1.87-2.41,2.76-1.35,2.09-1.76,5.28.28,7.06,2.22,1.94,8.1,2.02,9.38-.83,1.36-3.02-3.79-4.57-6-5.45-.05-2.33,1.51-.59,2.49-.64.19-.01,1.51-.86,1.94-1.07,1.09-.52,1.54-.1,2.31-.23.19-.03.05-.47.5-.46.36,0,1.68.24,2.07.34s2.52,1.03,2.85,1.31c.86.71,2,2.3,2.09,3.35.04.43-.2.82-.21,1.27,0,1.07.29,1.76-.4,2.9-.05.08-1.05,1.32-1.11,1.38-2.2,2.13-4.55,1.72-7.3,1.3.2-.5-1.31-.83-1.57-.86-1.6-.19-3.29.21-4.88-.23,0,.14,0,.29,0,.44-.05,1.42.57,3.17.4,4.68-.15,1.33-2.28,3.72-1.72,4.74,2.58,1.52,7.59,1.35,9.54-1.11.6-.76,1.21-2.68,1.79-3.17.85-.73,5.11-.12,6.45-.31.35,3.04.64,4.94,4.42,5.26.84.07,4.17.15,4.56-.45-.43-3.99,1.26-7.96,1.55-11.93.15-2.01,0-3.63-.44-5.54-.45-1.94,1.22-.44,1.52-1.38,1.67.52,3.16-.68,4.61-1.12-.09-2,.45-4.19-.51-6.05-.46-.44-1.97.08-2.51.32-1.03.47-2.63,1.83-3.88,2.15-.95.25-1.61-.21-1.08-1,.15-.23,1.5-1.07,1.99-1.68,3.26-4.02,2.8-12.59-1.39-15.96-.26-.21-1.12-.85-1.35-.91-.71-.19-3-.22-3.9-.29.13-.66-.37-.42-.82-.44-1.61-.06-3.61-.14-5.15.22ZM41.58,28.54c-.26,1.01-.71,1.92-1.19,2.85.15.12,2.32-.62,2.62-.78.79-.4.36-1.29.51-1.95.68-3.14.18-5.62-.03-8.77-.06-.91.06-1.84,0-2.75l-3.1.44c.11.81.51,1.34.72,2.19.64,2.65.59,4.97.31,7.63-.04.35-.28.91.17,1.14ZM45.88,33.58c.08,1.2-.02,2.5,0,3.72v19.72c.03.27.27.2.48.22.68.05,1.26-.15,1.91-.22.32-.06.22-.31.25-.53.23-1.73.17-5.91,0-7.7-.02-.21.06-.51-.25-.53-.08,0-.16,0-.24,0,0-.87,0-1.76,0-2.63.39-1.33.3-3.1.24-4.5-.02-.42.25-.88-.48-.76-.08-2.2.09-4.39-.24-6.57,1.33.05,2.48-1.53,2.63-2.73.18-1.44-.47-3.78-2.29-4.05s-2.77.1-3.1,1.73c-.49,2.41.93,2.7,1.08,4.83ZM20.09,45.85c-.48.9-1.18.91-1.43,1.75,4.25,1.21,7.89-1.11,7.11-5.31-.62-3.35-5.89-4.98-8.54-2.68l2.51,2.07c.26.26.46.55.59.88-.26.03-.24.34-.25.53-.04.91-.02,1.86,0,2.75Z"/>
  <path class="cls-5" d="M16.51,59.87c.5-.08,1.21-.19,1.67-.33,2.51-.78,3.47-3.11,4.65-4.93.29-.28,3.57-.6,3.97-.34.85,2.01.32,4.01,2.92,4.99,1.45.55,9.04,1.13,9.26-.81.12-1.07-.39-1.23-.5-1.65-.16-.62.17-1.07.24-1.53,1.82-.36,3.62.17,5.49,0,.01.2.23.39.24.44.08.9-.18,1.84.21,2.72.05.07,1.66.35,1.8.35s.11-.37.32-.43c.81-.21,1.87-.14,2.71-.33.38-.24.21-1.4.22-1.88,2.67.02,5.38,2.35,2.08,3.99-3.41,1.69-10.15,1.64-14.02,1.71h-14.33c-5.01-.05-9.87.19-14.81-.76-7.78-1.5-6.42-5.47.72-5.59-.9,1.63-1.41,2.37.48,3.51.63.38,1.06.7,1.91.88.08.02.16-.01.24,0,1.54.26,3,.24,4.54,0Z"/>
  <path class="cls-20" d="M26.78.49c-1.44.15-3.08-.13-4.65,0-.73.06-2.69.33-3.23.43,2.37-1.04,5.41-1.24,7.88-.44Z"/>
  <path class="cls-1" d="M37.76,61.84c-4.76.09-9.57.04-14.33,0h14.33Z"/>
  <path class="cls-15" d="M7.67,39.49c-.18.68-.3,1.4-.48,2.08v2.96s-.3-.08-.42-.37c-.49-1.18-.13-2.87.25-4.06.12-.37.06-.71.64-.6Z"/>
  <path class="cls-14" d="M47.79,18.46c-.17-.93-.2-1.44-.24-2.41.52.59.13,1.65.24,2.41Z"/>
  <path class="cls-14" d="M47.55,15.17l-.22-1.85.22-.12c0,.66,0,1.32,0,1.97Z"/>
  <path class="cls-20" d="M27.02.49c.16,0,.32,0,.48,0v.44c-.13-.03-.32.03-.48,0v-.44Z"/>
  <path class="cls-14" d="M47.55,15.83l-.23-.11.23-.11c0,.07,0,.15,0,.22Z"/>
  <path class="cls-11" d="M25.82,14.29c1.95-.05,3.97.07,5.97.22.9.07,3.19.1,3.9.29.24.06,1.1.71,1.35.91,4.19,3.37,4.65,11.94,1.39,15.96-.49.61-1.84,1.45-1.99,1.68-.53.79.13,1.24,1.08,1,1.24-.32,2.85-1.68,3.88-2.15.53-.25,2.05-.76,2.51-.32.96,1.86.41,4.05.51,6.05-1.45.44-2.94,1.63-4.61,1.12-.3.94-1.97-.56-1.52,1.38.44,1.9.58,3.53.44,5.54-.29,3.97-1.97,7.94-1.55,11.93-.39.6-3.73.52-4.56.45-3.78-.32-4.07-2.22-4.42-5.26-1.34.19-5.59-.42-6.45.31-.58.5-1.19,2.42-1.79,3.17-1.95,2.47-6.96,2.64-9.54,1.11-.56-1.02,1.57-3.41,1.72-4.74.17-1.51-.45-3.26-.4-4.68,1.58.45,3.31.04,4.88.23.46.06.94.33,1.57.43,2.75.42,5.1.83,7.3-1.3.07-.06,1.07-1.3,1.11-1.38.69-1.14.39-1.83.4-2.9,0-.44.24-.84.21-1.27-.09-1.05-1.23-2.64-2.09-3.35-.34-.28-2.45-1.2-2.85-1.31s-1.71-.34-2.07-.34c-.44,0-.3.43-.5.46-.77.12-1.21-.3-2.31.23-.43.2-1.75,1.06-1.94,1.07-.98.05-2.54-1.69-2.49.64,2.21.87,7.35,2.43,6,5.45-1.28,2.85-7.16,2.77-9.38.83-2.04-1.78-1.63-4.98-.28-7.06.57-.89,2.63-1.95,2.41-2.76-.04-.14-2.09-1.51-2.48-1.9-4.11-4.14-3.6-11.37.37-15.45,1.44-1.48,2.58-1.78,4.59-2.37,1.56-.46,3.04-.79,4.34-.81.13,0,.1-.37.31-.43,1.22-.33,1.93.02,2.79,0,.14,0,.11-.4.3-.45.65-.16,1.23.24,1.61.22.14,0,.11-.4.3-.44.49-.11,1.4.01,1.99,0ZM35.34,24.99c.61-1.99-1.61-4.38-3.85-3.9-.17.04-.17.33-.36.41-.31.14-.66.11-1,.36-.75.55-1.68,2.69-.13,2.52.7-.08,1.29-1.88,2.33-1.74.92.12,1.69,1.89,2.12,2.58l.88-.24ZM22.42,24.54c.45-1.24-2.35-3-3.61-2.81-.17.03-.12.43-.29.45-.18.02-.45-.2-.82-.12-1.26.27-3.16,2.73-2.12,3.39.87.55,1.46-1.06,2-1.52,1.43-1.24,2.97-.32,3.62,1.12.27.22,1.18-.37,1.22-.5ZM29.86,28.11c-.71-.46-1.66.87-2.15,1.17-1.11.69-2.04.68-3.34.46-.92-.15-2.61-1.22-2.98-1.22-1.2.01-.4,1.27.25,1.75,1.86,1.37,5.63,1.38,7.42.02.47-.36,1.43-1.78.8-2.19Z"/>
  <path class="cls-7" d="M31.55,7.72c.24.01.48-.02.72,0,.81.06,1.59.12,2.39.22,2.37.29,6.7.84,6.92,3.64.13,1.65-1.17,2.14-2.43,2.73-.2.1-.22.4-.31.42-.7.15-.52-.38-.74-.43-5.26-1.15-9.37-1.78-15.03-1.13-.45.05-.32.46-.48.46-.52.01-1.37-.71-1.64.19-2.55.02-5.32.62-7.61,1.19-2.13.53-5.06,1.9-6.59,3.35-.28.26-.44.6-.74.85l.95.33c-.14.45-.81,2.18-1.31,2.21-1.83.1-4.25-1.95-4.19-3.63.13-3.64,5.64-6.12,8.67-7.57,2.55-1.22,6.51-1.97,9.73-2.4,1.25-.17,2.81-.34,4.06-.44.24-.02.48.02.72,0,2.47-.16,4.47-.13,6.93,0ZM34.9,10.35c-.08-.42-.5-.36-.83-.45-.69-.17-5.39-.66-5.62-.43v.66c2.17-.24,4.28.01,6.45.22ZM15.31,11.67h-.71v.44h.71v-.44ZM12.69,12.32c-1.35.11-3.73.83-4.54,1.86l4.54-1.42h1.67c.79-.53-1.48-.45-1.67-.44Z"/>
  <path class="cls-18" d="M18.66,7.06c-2.02.3-3.99.64-5.97,1.09,1.37-3.11,5.19-5.93,8.78-6.52,4.41-.72,9.03,1.02,11.28,4.55v.22c-.32-.01-.64.02-.96,0-3.09-.2-5.46-.27-8.6,0-.08,0-.16,0-.24,0-.56.04-1.15-.11-1.67.22-.08,0-.16,0-.24,0-.86,0-1.59.32-2.39.44ZM26.3,4l-6.93.22v.66c2.1-.5,4.54-.2,6.57-.44.33-.04.75-.16.35-.44Z"/>
  <path class="cls-3" d="M54.96,15.17c-.14.15-2.52-1.64-2.89-1.84-2.05-1.16-3.4-1.52-5.8-1.37-2.14.13-2.38,2.92-3.24,3.78-.24.24-.56.21-.78.34-.19.11-.22.35-.25.37-.16.07-1.94-.2-2.09-.5-.19-.38,1.71-.9,1.91-1.31.66-.49,1.05-1.23,1.17-1.99.36-2.36-1.66-4.65,1.37-6.19,1.61.81,3.5.95,5.17,1.55,3.24,1.16,4.96,4.12,5.43,7.18Z"/>
  <path class="cls-10" d="M20.33,42.56c-.13-.33-.33-.62-.59-.88l-2.51-2.07c2.65-2.3,7.92-.67,8.54,2.68.78,4.2-2.86,6.52-7.11,5.31.25-.84.95-.85,1.43-1.75.57-1.06.68-2.15.24-3.29Z"/>
  <path class="cls-2" d="M45.88,33.58c-.15-2.13-1.57-2.43-1.08-4.83.33-1.63,1.33-1.99,3.1-1.73s2.47,2.6,2.29,4.05c-.15,1.2-1.3,2.79-2.63,2.73-.49-.02-1.1-.35-1.67-.22Z"/>
  <path class="cls-12" d="M46.36,13.86c.03,1.64.1,3.3.25,4.93.03.35.23.31.23.32.18,2.06.09,4.17.46,6.22l-2.13.58-.42-9.91c.17-.84.38-2.22,1.61-2.14Z"/>
  <path class="cls-16" d="M47.55,33.79c.32,2.19.16,4.38.24,6.57.06,1.61.18,3.21.24,4.82-.51-.04-.72-.06-1.19.16-.03.01.08.47-.48.27l.03-1.08.71-.13v-1.29s-.71-.13-.71-.13c-.28-.25.46-1.7-.5-1.52,0-1.38.02-2.78,0-4.16-.02-1.22.08-2.52,0-3.72.58-.13,1.18.2,1.67.22Z"/>
  <path class="cls-16" d="M48.03,48.26c.08,0,.16,0,.24,0v8.76c-.65.06-1.23.27-1.91.22v-.88s-.48,0-.48,0c-.04-.72.01-1.46,0-2.19.7-.32,1.5-.46,1.16-1.29l-.7-.14v-4.48c.55.04,1.17-.06,1.69,0Z"/>
  <path class="cls-17" d="M45.88,41.46c.97-.17.23,1.27.5,1.52l.71.13v1.29s-.71.13-.71.13l-.03,1.08c.56.19.45-.26.48-.27.47-.22.68-.21,1.19-.16,0,.15,0,.29,0,.44,0,.87,0,1.76,0,2.63-.52-.06-1.14.04-1.67,0v4.48s.69.14.69.14c.34.84-.46.98-1.16,1.29-.06-4.23.03-8.48,0-12.71Z"/>
  <path class="cls-4" d="M45.88,41.46c.03,4.23-.06,8.48,0,12.71.01.73-.04,1.47,0,2.19.01.22,0,.44,0,.66v-19.72c.02,1.38,0,2.78,0,4.16Z"/>
  <path class="cls-19" d="M31.79,6.41c-.37.33-.85.22-1.3.23-1.98.04-4,.03-5.99,0-.45,0-.94.11-1.3-.23,3.14-.27,5.51-.2,8.6,0Z"/>
  <path class="cls-6" d="M41.58,28.54c-.45-.23-.21-.79-.17-1.14.29-2.66.33-4.97-.31-7.63.41.46.96,2.4.96,2.96v3.51c0,.31-.36,1.86-.48,2.3Z"/>
  <path class="cls-6" d="M39.67,48.04c.08-.75.2-2.04.25-2.95.07-1.39-.07-2.8-.02-4.19l.24-.31c.39,2.45.35,5.11-.48,7.45Z"/>
  <path class="cls-20" d="M11.73,48.26c0-.15,0-.29,0-.44,1.58.44,3.28.04,4.88.23.25.03,1.77.37,1.57.86-.63-.1-1.11-.37-1.57-.43-1.57-.19-3.3.22-4.88-.23Z"/>
  <path class="cls-20" d="M24.63,7.72c-.13-.66.37-.42.82-.44,1.7-.05,3.58-.06,5.28,0,.46.02.96-.23.82.44-2.46-.13-4.45-.16-6.93,0Z"/>
  <path class="cls-4" d="M48.27,57.02v-8.76c.31.02.23.32.25.53.17,1.79.23,5.97,0,7.7-.03.22.06.47-.25.53Z"/>
  <path class="cls-6" d="M38.72,55.27c-.07.47-.4.91-.24,1.53-.64-1.74.41-3.95.72-5.7.21,1.3-.28,2.83-.48,4.16Z"/>
  <path class="cls-20" d="M46.84,19.11s-.2.03-.23-.32c-.14-1.63-.22-3.3-.25-4.93.49.16.58,3.42.65,4.12.04.41.22.79-.17,1.14Z"/>
  <path class="cls-4" d="M47.79,40.37c.72-.12.46.34.48.76.06,1.41.16,3.17-.24,4.5,0-.15,0-.29,0-.44-.06-1.61-.18-3.21-.24-4.82Z"/>
  <path class="cls-14" d="M25.82,14.29c1.54-.36,3.53-.28,5.15-.22.46.02.96-.23.82.44-2-.15-4.02-.27-5.97-.22Z"/>
  <path class="cls-20" d="M23.91,7.72c-1.25.1-2.81.27-4.06.44.95-.6,3-.9,4.06-.44Z"/>
  <path class="cls-14" d="M16.51,59.87c-1.54.24-3,.26-4.54,0,1.3-.37,3.26-.37,4.54,0Z"/>
  <path class="cls-20" d="M20.09,45.85c-.03-.9-.05-1.85,0-2.75,0-.2-.01-.5.25-.53.45,1.14.33,2.22-.24,3.29Z"/>
  <path class="cls-19" d="M21.05,6.63v.44c-.81-.2-1.77.4-2.39,0,.8-.12,1.53-.44,2.39-.44Z"/>
  <path class="cls-20" d="M32.27,7.72c.57-.46,1.64-.13,2.39-.22v.44c-.8-.1-1.58-.16-2.39-.22Z"/>
  <path class="cls-19" d="M22.96,6.41v.44c-.56.24-1.44-.21-1.67-.22.52-.33,1.11-.18,1.67-.22Z"/>
  <path class="cls-17" d="M45.88,56.36h.48s0,.88,0,.88c-.21-.02-.45.05-.48-.22,0-.22.01-.44,0-.66Z"/>
  <path class="cls-14" d="M11.73,59.87c-.85-.18-1.28-.5-1.91-.88.6.35,1.58.25,1.91.88Z"/>
  <polygon class="cls-19" points="32.75 6.19 33.23 6.3 32.75 6.41 32.75 6.19"/>
  <path class="cls-19" d="M29.86,28.11c.63.41-.33,1.83-.8,2.19-1.78,1.37-5.55,1.35-7.42-.02-.65-.48-1.45-1.74-.25-1.75.38,0,2.07,1.06,2.98,1.22,1.3.22,2.23.22,3.34-.46.49-.3,1.44-1.63,2.15-1.17Z"/>
  <path class="cls-9" d="M35.34,24.99l-.88.24c-.43-.7-1.2-2.46-2.12-2.58-1.04-.14-1.63,1.66-2.33,1.74-1.55.17-.62-1.98.13-2.52.34-.24.69-.21,1-.36.18-.08.18-.38.36-.41,2.24-.48,4.46,1.91,3.85,3.9Z"/>
  <path class="cls-9" d="M22.42,24.54c-.05.13-.95.72-1.22.5-.66-1.44-2.19-2.36-3.62-1.12-.53.46-1.13,2.07-2,1.52-1.04-.66.86-3.12,2.12-3.39.37-.08.63.14.82.12.17-.01.13-.42.29-.45,1.26-.19,4.06,1.57,3.61,2.81Z"/>
  <path class="cls-13" d="M34.9,10.35c-2.17-.21-4.28-.46-6.45-.22v-.66c.24-.23,4.94.25,5.62.43.33.08.74.03.83.45Z"/>
  <path class="cls-13" d="M12.69,12.32v.44l-4.54,1.42c.81-1.03,3.19-1.75,4.54-1.86Z"/>
  <path class="cls-2" d="M12.69,12.32c.19-.02,2.46-.09,1.67.44h-1.67s0-.44,0-.44Z"/>
  <rect class="cls-2" x="14.6" y="11.67" width=".71" height=".44"/>
  <path class="cls-13" d="M26.3,4c.39.27-.02.4-.35.44-2.03.24-4.47-.06-6.57.44v-.66s6.92-.22,6.92-.22Z"/>
</svg>