<?xml version="1.0" encoding="UTF-8"?>
<svg id="_레이어_1" data-name="레이어 1" xmlns="http://www.w3.org/2000/svg" viewBox="0 0 54.5 59.92">
  <defs>
    <style>
      .cls-1 {
        fill: #5a3113;
      }

      .cls-2 {
        fill: #291b10;
      }

      .cls-3 {
        fill: #df9031;
      }

      .cls-4 {
        fill: #f65e17;
      }

      .cls-5 {
        fill: #eb9535;
      }

      .cls-6 {
        fill: #c67413;
      }

      .cls-7 {
        fill: #372413;
      }

      .cls-8 {
        fill: #372311;
      }

      .cls-9 {
        fill: #f58610;
      }

      .cls-10 {
        fill: #140d08;
      }

      .cls-11 {
        fill: #8c5117;
      }

      .cls-12 {
        fill: #f9edd7;
      }

      .cls-13 {
        fill: #723b14;
      }

      .cls-14 {
        fill: #4e9012;
      }

      .cls-15 {
        fill: #4f311b;
      }

      .cls-16 {
        fill: #372312;
      }

      .cls-17 {
        fill: #8f5117;
      }

      .cls-18 {
        fill: #7a3d14;
      }

      .cls-19 {
        fill: #f18612;
      }
    </style>
  </defs>
  <path class="cls-7" d="M1.32,25.44c-1.59-2.29-1.7-3.26-.58-5.79.2-.46,1.69-3.3,1.89-3.52.37-.41.96-.41,1.44-.14.43.24,3.43,4.94,3.55,5.56.11.55.16,1.42.05,1.97-.11.58-.6.82-.72,1.19-.13.42,1.02,6.6,1.24,6.9.23.31,2.32,1.01,2.15,2.18l3.71-1.36c.19-.61-.44-.42-.8-.78-4.8-4.88-4.68-11.62-.75-16.88,1.52-2.04,3.79-3.37,5.77-5.03-1.41-1.5-1.67-3.75-.26-5.33C22.64-.74,30.85-.82,37.46,1.32c.18.06.45.41,1.26.66.63.2,1.02.14,1.33.23.66.19,1.32.3,1.86.45.57.16,1.58.36,1.86.45,1.88.63,7.18,4.24,7.83,5.85.14.36.84,2.8.86,3.11.1,1.6-1.49,3.54-3.13,4.27,2.95,5.06,2.39,11.39-2.11,15.63,1.03.15,2.29.53,3.12,1.07,7.13,4.69,4.55,13.82-3.46,16.56-.59.2-2.07.24-2.33.55-.83.95,1.13,5.64,1.37,6.96.03,1.46-1.48,2.13-2.94,2.48-5.95,1.43-10.63-2.03-11.71-6.85-.74-.18-1.2-.01-1.82.19-.14.05-.48-.14-.54.14l.28,3.69c-.41,1.6-.71,1.89-2.6,2.42s-5.06.85-6.97.64c-.57-.06-1.9-.63-2.22-1.04-1.07-1.37.38-1.93.6-2.86.21-.87-1.81-5.52-2.17-6.88-.4-1.53-.61-3.13-.83-4.69l-3.85-.66c-.11,1.1.55,2.37.26,3.45-.02.07-.89.63-.97,1.07-1.41-.07-2.49.39-3.16-.91-.17-.34-.04-.7-.12-.91.42-.32.13-.68.05-1.05-.15-.72-1.17-5.28-1.42-5.46-.14-.1-.39,0-.48-.03-1.36-.5-1.85-.54-2.52-1.8-.7-1.34-.75-2.85-.19-4.22.48-1.15.88-.54.58-2.1.5-.22.21-.79.15-1.14-.21-1.12-.52-2.47-.86-3.56-.18-.57-.2-1.62-1.15-1.62ZM26.72,1.37c-2.58.3-5.91,1.82-7.21,3.79-3.4,5.17,5.52,4.35,8.97,4.75,6.13.71,14.58,5.83,19.6,5.1,4.06-.59,2.61-5.21.6-7.16-1.45-1.41-5.48-3.43-7.55-3.96-.82-.21-1.28.14-1.7.08-.12-.02-1.53-.9-2.11-1.11-3.08-1.12-7.25-1.87-10.59-1.48ZM16.44,42.8c.11,1.87.44,3.76.92,5.64.43,1.68,2.59,6.51,2.2,7.72-.18.55-1.11.9-.61,1.75.48.82,5.01.7,6.06.44.56-.14-.45-.24,1.09-.22.14,0,.16-.31.37-.43.19-.1.53-.1.71-.24,1.57-1.2-.18-5.42,1.19-5.98.54-.22,3.69-.22,4.14.09,1.44,3.35,1.69,5.95,6.41,6.73,2.03.33,3.72.38,5.39-.77-.73-2.23-1.24-4.52-1.61-6.84-13.78,2.18-19.98-10.52-7.5-16.86,1.75-.89,4.59-1.85,6.61-2.05,2.32-.24,3.02.63,4.72-1.17,3.73-3.95,4.14-10.01.76-14.19-4.89.27-9.21-2.38-13.67-3.66-3.6-1.04-6.66-1.23-10.38-1.54-1.3-.11-2.51-.67-3.81-.25-1.16.38-4.58,3.34-5.37,4.27-3.22,3.79-3.88,11.05-.18,14.86.49.51,3.13,1.94,3.11,2.45-.03,1.14-2.74,1.03-3.53,1.3-.2.07-2.39,1.18-2.46,1.29-.31.43-.05,1.47-.19,2.09-.12.56-.63,1.08-.65,1.58s.58,2.87.98,3.2,1.37.4,1.92.58c.65.22.4,1.02,1.8-.02.06-.04.49.13.54-.14.09-1-.16-2.17-.01-3.14.05-.33.2-.7.53-.33.03,1.01-.04,2.04,0,3.05.02.43-.27.9.53.78ZM3.95,18.25h-.74c-.77,1.65-1.84,2.69-1.62,4.6.28,2.43,2.95,1.33,2.91,3.49-.81-.02-.83-.12-.79.56.09,1.58,1.04,3.26,1.2,4.86l1.43-.59c.09-1.79-1.67-5.08-1.18-6.63.15-.48.75-.99.88-1.51.49-2.04-1.52-2.99-2.09-4.77ZM7.95,38.74c.34-.34,1.17-1.73,1.26-2.2.39-2.01-.77-4.39-3.57-3.49-2.17.7-2.07,3.21-1.21,4.72.71,1.25,1.87.16,2.46,1.42,1.15,2.43,1.02,5.45,2.25,7.89.63-.6.45-1.81.4-2.59-.11-1.73-.61-4.25-1.59-5.75ZM41.9,49.34c6.95-.97,13.17-5.63,10.36-12.07-3.98-9.13-25.96-2.14-21.44,8.08,1.06,2.4,3.99,3.54,6.84,3.99,1.84.29,2.43.25,4.24,0Z"/>
  <path class="cls-15" d="M43.76,3.11c-.28-.09-1.29-.29-1.86-.45v-1.35c-.86-.15-1.7.11-1.86.9-.3-.08-.69-.03-1.33-.23,1.04-.61.79-1.61,2.27-1.79,2.37-.29,3.1,1.14,2.76,2.92Z"/>
  <path class="cls-2" d="M5.3,39.87c.09.03.34-.07.48.03.25.18,1.27,4.74,1.42,5.46.08.37.37.73-.05,1.05-.79-2.16-1.1-4.38-1.86-6.54Z"/>
  <path class="cls-10" d="M3.18,31.75c-.31-1.65-1.01-5.1-1.86-6.31.94,0,.97,1.05,1.15,1.62.34,1.09.64,2.44.86,3.56.07.35.35.92-.15,1.14Z"/>
  <path class="cls-2" d="M29.44,52.94c.04,1.37.07,2.52-.27,3.83l-.28-3.69c.06-.28.41-.1.54-.14Z"/>
  <path class="cls-9" d="M14.85,42.57c-1.39,1.04-1.15.23-1.8.02-.55-.18-1.5-.24-1.92-.58s-1-2.7-.98-3.2.53-1.03.65-1.58c.14-.62-.11-1.66.19-2.09.08-.11,2.26-1.22,2.46-1.29.79-.26,3.5-.16,3.53-1.3.01-.51-2.62-1.94-3.11-2.45-3.7-3.81-3.03-11.08.18-14.86.79-.93,4.21-3.9,5.37-4.27,1.29-.42,2.51.13,3.81.25,3.72.32,6.78.5,10.38,1.54,4.46,1.29,8.77,3.94,13.67,3.66,3.37,4.18,2.97,10.24-.76,14.19-1.7,1.8-2.4.94-4.72,1.17-2.02.2-4.86,1.16-6.61,2.05-12.48,6.34-6.27,19.05,7.5,16.86.37,2.33.88,4.61,1.61,6.84-1.67,1.15-3.36,1.1-5.39.77-4.71-.78-4.97-3.38-6.41-6.73-.45-.31-3.6-.31-4.14-.09-1.37.57.38,4.78-1.19,5.98-.18.14-.52.14-.71.24-.22.12-.24.43-.37.43-1.54-.02-.53.08-1.09.22-1.05.26-5.57.38-6.06-.44-.5-.84.43-1.19.61-1.75.39-1.21-1.77-6.04-2.2-7.72-.48-1.88-.81-3.77-.92-5.64-.08-1.29.05-2.61.01-3.91l-1.6-.37v4.06ZM21.14,18.27c-1.66.31-1.78,3.55-.34,4.25,2.86,1.39,4.51-5.03.34-4.25ZM35.09,19.64c-1.26,1.17-.91,4.38,1.78,3.66,2.89-.77.74-6-1.78-3.66ZM27.77,27.07c-.28-.07-.52.12-.87-.04-1.03-.48-2.17-2.15-3.31-1.23-.56,1.84,2.94,2.97,4.65,3.02,1.98.06,5.77-.8,5.44-2.95-1.34-.43-1.96.85-2.57,1.13s-2.4.59-3.08.45c-.19-.04-.2-.37-.26-.39Z"/>
  <path class="cls-18" d="M26.72,1.37c3.34-.38,7.51.37,10.59,1.48.58.21,1.99,1.09,2.11,1.11.42.06.89-.29,1.7-.08,2.07.53,6.1,2.55,7.55,3.96,2.01,1.95,3.46,6.58-.6,7.16-5.02.73-13.47-4.39-19.6-5.1-3.44-.4-12.37.42-8.97-4.75,1.3-1.97,4.63-3.49,7.21-3.79Z"/>
  <path class="cls-5" d="M37.66,49.34c-2.86-.45-5.78-1.59-6.84-3.99-4.52-10.22,17.46-17.21,21.44-8.08,2.81,6.44-3.41,11.1-10.36,12.07-1.08-.38-3.11-.38-4.24,0ZM43.69,33.82c-2.88.53-.45,4.24,2.19,3.22,2.36-.92.17-3.66-2.19-3.22ZM37.86,35.4c-1.9.24-3.28,2.32-1.67,3.57,2.52,1.94,6.13-4.12,1.67-3.57ZM47.94,37.2c-2.65.28-2.59,3.25-.59,3.57,3.86.6,4.11-3.93.59-3.57ZM34.14,41.27c-3.09.51-1.74,4.05,1.21,3.29,1.86-.48,2-3.82-1.21-3.29ZM40.4,43.77c-1.98,1.84.92,3.88,2.82,2.51,2.1-1.5-.86-4.34-2.82-2.51Z"/>
  <path class="cls-13" d="M3.95,18.25c.57,1.78,2.59,2.73,2.09,4.77-.13.52-.73,1.03-.88,1.51-.49,1.54,1.28,4.84,1.18,6.63l-1.43.59c-.16-1.6-1.1-3.28-1.2-4.86-.04-.68-.02-.58.79-.56.04-2.17-2.63-1.06-2.91-3.49-.22-1.9.85-2.95,1.62-4.6h.74Z"/>
  <path class="cls-19" d="M7.95,38.74s-.89.47-1.06.45c-.59-1.26-1.75-.17-2.46-1.42-.86-1.51-.96-4.02,1.21-4.72,2.8-.9,3.96,1.48,3.57,3.49-.09.47-.92,1.86-1.26,2.2Z"/>
  <path class="cls-6" d="M7.95,38.74c.98,1.5,1.47,4.02,1.59,5.75.05.78.24,1.99-.4,2.59-1.23-2.44-1.1-5.46-2.25-7.89.17.02,1.02-.41,1.06-.45Z"/>
  <path class="cls-2" d="M14.85,42.57v-4.06s1.6.37,1.6.37c.04,1.3-.09,2.61-.01,3.91-.8.13-.51-.35-.53-.78-.04-1.02.03-2.04,0-3.05-.33-.37-.48,0-.53.33-.15.97.1,2.14.01,3.14-.06.27-.49.09-.54.14Z"/>
  <path class="cls-1" d="M40.05,2.21c.15-.8,1-1.05,1.86-.9v1.35c-.53-.15-1.19-.26-1.86-.45Z"/>
  <path class="cls-3" d="M41.9,49.34c-1.82.25-2.4.29-4.24,0,1.13-.38,3.17-.38,4.24,0Z"/>
  <path class="cls-8" d="M27.77,27.07c.06.02.07.35.26.39.67.14,2.45-.16,3.08-.45s1.23-1.55,2.57-1.13c.33,2.14-3.45,3-5.44,2.95-1.72-.05-5.21-1.18-4.65-3.02,1.14-.92,2.29.75,3.31,1.23.34.16.59-.04.87.04Z"/>
  <path class="cls-16" d="M21.14,18.27c4.17-.78,2.52,5.64-.34,4.25-1.44-.7-1.32-3.94.34-4.25Z"/>
  <path class="cls-16" d="M35.09,19.64c2.52-2.34,4.68,2.89,1.78,3.66-2.69.72-3.04-2.5-1.78-3.66Z"/>
  <path class="cls-14" d="M37.86,35.4c4.46-.55.85,5.51-1.67,3.57-1.62-1.25-.23-3.33,1.67-3.57Z"/>
  <path class="cls-17" d="M47.94,37.2c3.53-.37,3.27,4.17-.59,3.57-2-.31-2.06-3.29.59-3.57Z"/>
  <path class="cls-4" d="M43.69,33.82c2.36-.43,4.55,2.3,2.19,3.22-2.64,1.02-5.06-2.69-2.19-3.22Z"/>
  <path class="cls-11" d="M34.14,41.27c3.21-.53,3.06,2.81,1.21,3.29-2.95.76-4.3-2.78-1.21-3.29Z"/>
  <path class="cls-12" d="M40.4,43.77c1.96-1.82,4.92,1.01,2.82,2.51-1.9,1.36-4.81-.67-2.82-2.51Z"/>
</svg>