<?xml version="1.0" encoding="UTF-8"?>
<svg id="_레이어_1" data-name="레이어 1" xmlns="http://www.w3.org/2000/svg" viewBox="0 0 44.99 50.85">
  <defs>
    <style>
      .cls-1 {
        fill: #e9b719;
      }

      .cls-2 {
        fill: #362314;
      }

      .cls-3 {
        fill: #de8013;
      }

      .cls-4 {
        fill: #b58745;
      }

      .cls-5 {
        fill: #0e0906;
      }

      .cls-6 {
        fill: #3a89b5;
      }

      .cls-7 {
        fill: #b58540;
      }

      .cls-8 {
        fill: #342112;
      }

      .cls-9 {
        fill: #f58610;
      }

      .cls-10 {
        fill: #b87319;
      }

      .cls-11 {
        fill: #e0a818;
      }

      .cls-12 {
        fill: #3b7a9e;
      }

      .cls-13 {
        fill: #f5b946;
      }

      .cls-14 {
        fill: #27180e;
      }

      .cls-15 {
        fill: #ef5311;
      }

      .cls-16 {
        fill: #ef611a;
      }

      .cls-17 {
        fill: #f38512;
      }

      .cls-18 {
        fill: #faa133;
      }
    </style>
  </defs>
  <g id="dcgNYd.tif">
    <g>
      <path class="cls-2" d="M10.46,3.67c.3-1.12.75-2.43,2.1-2.22.39.06,1.77.99,2.03,1.29s.28.66.54.94c.21.22,1.19.98,1.46.94.79-1.06,1.49-2.62,2.39-3.55,3.29-3.39,4.45,2.18,5.05,4.65.25.19,4.45-3.37,5.45-2.18.04.04.38.94.41,1.07v4.76c-.08.24.11.33.18.44,1.52,2.48,1.85,2.94,2.57,5.95-.01,1.1.24,2.13.19,3.26-.04.88-.5,1.89-.19,2.68-.17.61-.63,1.32-.71,1.63-.06.25.15.38.16.41,0,.07-.2.23-.18.37.2.12,3.39-.38,3.67-.56.74-.46,1.5-1.23,2.46-1.31,4.14-.38,5.22,4.07,2.15,6.25l.16,3.41c1.99-.11,1.14,1.56,1.55,2.42.07.14,1.28.92,1.62,1.33.45.52.72,1.15.85,1.83.21,1.09.28,2.61.18,3.72-.05.61-.36,1.61-.73,2.09-.27.35-1.8,1.52-1.93,1.81-.26.53.09,1.44-.3,2.02-.4-.04-.74.15-1.07.22-1.01-.33-1.97.03-2.84.02-.7,0-1.52-.47-2.11-.02-1.01-.47-.29-1.62-.64-2.41-.14-.31-.96-.75-1.28-1.11-1.74-1.94-1.91-5.62-.27-7.67.34-.43,2.11-1.77,2.21-1.94.55-.94-.4-2.25,1.8-2.5l.02-1.27c-.61-.12-.79.46-1.22.71-1.87,1.11-3.94,1.35-5.66,2.63-.16.26-.11.89-.09,1.22.12,2.68.5,5.37.56,8.08-.51,1.93.19,4.04-.55,5.95-.23.26-.42.67-.74.83-1.02.49-3.31,1.02-4.46,1.01-1.41,0-2.51-.24-3.55-1.11-.13-.11-.46-.08-.56-.21-.06-.08-.25-1.18-.24-1.36.01-.34.37-.25.39-.39.08-.47-.46-1.98-.83-2.29-.53-.44-2.16-.06-2.9-.2-.54,1.23-.33,2.32-1.22,3.44-.73.92-1.33,1.18-2.39,1.58h-4.22c-.75-.07-2.49-.67-2.71-1.43-.39-1.33.69-1.7.67-2.75,0-.36-.26-.64-.28-.95-.05-.8.08-1.9-.07-2.75-.09-.5-1.17-1.56-1.49-2.21-.45-.93-.72-1.88-.78-2.92-.23-.37-.86.04-1.28.02-2.58-.12-3.87-2.08-3.78-4.57.14-3.72,3.87-5.91,6.98-6.96-.03-.7-.56-.76-.82-1.12-4-5.69-1.48-13.16,3.75-16.72.23-.15.3-.11.36-.46.14-.8.22-1.98.32-2.85.03-.3.21-.77-.13-.96ZM29.71,40.28c.07-2.43-.54-4.83-.28-7.25.21-.45,3.9-1.72,4.68-2.13,1.14-.6,2.12-1.51,3.29-2.05-1.69-.77-2.82-2.47-2.38-4.37-1.22.27-2.48.74-3.72.4-1.14.93-1.69,2.91-3.43,2.58-.3-1.37.66-1.32,1.38-2.04,3.3-3.29,3.14-8.7,1.34-12.71-.32-.73-1.48-2.19-1.59-2.67-.2-.9.16-5.07-.22-5.44-.26-.04-.49.02-.74.09-.41.12-1.97.96-2.41,1.22-.52.31-1.83,2.07-2.57.69-.42-.78-1.05-5.33-2.09-5.52-.38.27-1.21.85-1.48,1.16s-1.25,1.7-1.52,2.12c-.35.55-.37,1.44-1.05,1.91-.93.15-2.28-2.03-2.95-2.61-1.94-1.68-2.19-.83-2.56,1.27-.16.92-.11,2.65-.38,3.33-.2.5-2.23,2.07-2.8,2.74-3.43,4.02-4.09,8.81-.91,13.19.39.54,1.33.99,1.2,1.77-.17,1-1.73,1.06-2.61,1.45-1.96.88-4.48,2.71-4.81,4.97-.07.46-.08,1.36.03,1.8.05.21,1.25,1.74,1.38,1.81.32.17.68-.03.84.01s.05.38.38.37c.57,0,1.96-.57,2.47-.87.86-.51,1.62-1.3,1.48-2.38-.18-1.46-2.23-1.38-2.17-2.03.11-1.3,1.6-.26,2.06-.36.05,0,.78-.51.81-.55.13-.22.02-1.39.22-2,.37.13.34-.33.49-.37.78-.17,1.87.27,2.62-.19.3,0,.61-.02.92,0,.2,0,.24,0,.37,0,.18,0,.37,0,.55,0v.37c.39.06.74-.12,1.1-.19.17-.03.4.02.63,0s.44-.29.57-.29c.88-.01.8,1.77.66,2.41,2.08,1.18,3.44,2.72,3.66,5.23.3,3.51-1.32,8.28-5.32,8.65-1.42.13-3.04-.25-4.4.19-.76-.17-1.3-.54-2.02-.74-.13.67.14,1.31.17,1.93.01.27-.23.6-.17.92.02.13.34.11.38.24.17.7-.53,1.36-.72,1.99.74,1.13,2.02.83,2.97,1.05.11.03.21.63,1.28.36.13-.03.11-.31.26-.35.91-.27,1.37-.12,2.25-.84,1.7-1.4.83-2.89,1.5-4.06.5-.88,1.41-.33,2.07-.32s2.49-.15,2.94.17c.66,1.43,1.27,2.73.66,4.37.31.12.86.79.91.81.07.03.34-.12.56-.1.84.09,2.43.37,3.18.34.11,0,1.58-.63,1.92-.76.3-.12.54-.09.83-.37.73-.68.46-3.7.45-4.84,0-.31,0-.62,0-.93,0-.85.14-1.82-.18-2.6ZM38.46,23.22c-.16.03-1.71.94-1.88,1.08-1.25,1.09.16,3.36,1.84,3.36,3.61,0,2.56-4.98.04-4.44ZM15.6,28.76l-5.93-.2-.23,1.33c.82.33,5.77.59,6.13.15l.02-1.28ZM38.69,28.94c-.1.03-.32-.11-.37.12l.09,2.87.83.18c.15-.75.1-1.35,0-2.04-.05-.34.1-.8-.08-1.12l-.21-.17c-.15-.04-.22.17-.25.18ZM9,31.17l-.56.49.38,2.48c-.49,1.44-1.47,2.01-2.66,2.78-.07.15.08.53.09.75.05.82.12.82.37,1.49,1.9,5.1,9.97,5.29,11.92.19.75-1.97.68-3.06.18-5.02-.08-.3.05-.62-.14-1.07-.54-1.28-2.05-2-3.34-2.09-.19-.31-.7-.19-1.01-.19-1.4-.02-2.82-.01-4.22,0-.31,0-.82-.12-1.01.19ZM37.04,33.03c-.12,0-.25-.01-.37,0v1.12s4.03,0,4.03,0c0-.36.12-.95-.3-1.09-.93-.03-1.88-.06-2.82-.03-.18,0-.37-.01-.55,0ZM36.13,43.99c1.17.25,2.02.15,3.22.18.66.01.99.33,1.73.1.11-.03.15-.26.19-.27.14-.06.37.02.64-.18,1.86-1.35,2.33-4.4,1.4-6.45-.24-.54-1.31-1.85-1.86-2.02-.66-.21-4.04-.17-4.88-.09-.95.09-1.5.5-2.09,1.22-1.53,1.88-1.62,4.53-.16,6.47.63.83.88.86,1.8,1.05ZM36.13,46.41h4.31c.36,0,.36-1.11,0-1.11h-4.22l-.26.29.17.82Z"/>
      <path class="cls-5" d="M32.64,21.7c-.31-.79.15-1.8.19-2.68.05-1.13-.21-2.16-.19-3.26.58,2.41.71,3.44,0,5.95Z"/>
      <path class="cls-5" d="M30.08,9.81c-.07-.11-.26-.2-.19-.44v-4.76c.42,1.62.42,3.56.19,5.2Z"/>
      <path class="cls-5" d="M40.53,47.34c-.13.03-.26.16-.62.2-.78.08-3.73.08-4.33-.2.59-.46,1.41,0,2.11.02.87,0,1.83-.35,2.84-.02Z"/>
      <path class="cls-14" d="M9.91,7.95c.04-1.37.2-2.94.55-4.27.34.19.16.67.13.96-.1.87-.18,2.04-.32,2.85-.06.36-.14.31-.36.46Z"/>
      <path class="cls-5" d="M30.99,43.06c.02,1.01.15,5.23-.18,5.82-.13.22-.35.11-.37.13.74-1.91.04-4.01.55-5.95Z"/>
      <path class="cls-14" d="M35.58,23.56c-.28.17-3.47.68-3.67.56-.01-.14.18-.3.18-.37,1.11.14,2.44-.64,3.48-.19Z"/>
      <path class="cls-14" d="M44.56,41.21c.1-1.11.03-2.62-.18-3.72.74.77.82,2.88.18,3.72Z"/>
      <path class="cls-9" d="M8.63,28.2c-.21.62-.1,1.78-.22,2-.02.04-.76.54-.81.55-.46.09-1.95-.95-2.06.36-.05.65,1.99.56,2.17,2.03.14,1.08-.62,1.88-1.48,2.38-.51.3-1.9.87-2.47.87-.33,0-.23-.33-.38-.37s-.51.16-.84-.01c-.14-.07-1.33-1.6-1.38-1.81-.11-.43-.09-1.34-.03-1.8.33-2.26,2.85-4.09,4.81-4.97.88-.4,2.44-.45,2.61-1.45.13-.78-.81-1.23-1.2-1.77-3.18-4.38-2.52-9.17.91-13.19.57-.66,2.6-2.24,2.8-2.74.27-.68.21-2.41.38-3.33.37-2.1.62-2.95,2.56-1.27.67.58,2.01,2.75,2.95,2.61.68-.46.7-1.35,1.05-1.91.27-.43,1.25-1.81,1.52-2.12s1.1-.89,1.48-1.16c1.03.18,1.66,4.73,2.09,5.52.75,1.38,2.05-.38,2.57-.69.44-.26,2.01-1.1,2.41-1.22.25-.07.48-.12.74-.09.38.37.02,4.54.22,5.44.11.47,1.26,1.94,1.59,2.67,1.79,4.01,1.96,9.42-1.34,12.71-.72.72-1.68.66-1.38,2.04,1.74.34,2.29-1.64,3.43-2.58,1.25.35,2.5-.12,3.72-.4-.43,1.9.69,3.59,2.38,4.37-1.17.54-2.15,1.45-3.29,2.05-.78.41-4.47,1.68-4.68,2.13-.26,2.42.35,4.82.28,7.25,0,.02-.17.05-.19.45-.03.71.04,1.44,0,2.15h.37c0,.31,0,.62,0,.93-.56-.1-.35.28-.37.64-.04.92.18,2.76-.04,3.5-.16.56-.92.48-.88,1.06-.34.13-1.81.76-1.92.76-.75.03-2.34-.25-3.18-.34-.21-.02-.48.13-.56.1-.06-.02-.6-.69-.91-.81.61-1.64,0-2.93-.66-4.37-.45-.33-2.24-.16-2.94-.17s-1.57-.57-2.07.32c-.67,1.17.2,2.65-1.5,4.06-.88.73-1.34.58-2.25.84-.15.05-.13.32-.26.35-1.07.26-1.17-.34-1.28-.36-.95-.22-2.24.08-2.97-1.05.19-.63.89-1.29.72-1.99-.03-.14-.35-.12-.38-.24-.06-.33.19-.66.17-.92-.03-.62-.3-1.26-.17-1.93.72.21,1.26.57,2.02.74,1.31.29,3.15.4,4.4-.19,4-.37,5.62-5.13,5.32-8.65-.22-2.51-1.58-4.05-3.66-5.23.15-.64.23-2.42-.66-2.41-.12,0-.34.26-.57.29s-.46-.02-.63,0c-.2-.31-.76-.19-1.1-.19-.18,0-.37,0-.55,0h-.37c-.3-.02-.61,0-.92,0-1.04-.03-2.69-.72-3.12.56ZM12.35,17.19c1.36,1.69,3.06-.5,2.31-2.25-1.01-2.36-3.59.66-2.31,2.25ZM22.07,17.74c.34.43,1.29.57,1.78.33.88-.43,1.03-3.88-1.15-3.21-.91.28-1.16,2.21-.62,2.88ZM14.43,19.85c-.73.24-.05,1.25.25,1.57,1.85,2.06,5.32,1.7,6.8-.56l-.61-.62c-1.7.91-3.25,1.78-4.98.53-.44-.32-.77-1.14-1.44-.91Z"/>
      <path class="cls-15" d="M41.26,43.99h-5.13c-.92-.2-1.17-.22-1.8-1.05-1.47-1.94-1.37-4.59.16-6.47.59-.73,1.14-1.13,2.09-1.22.83-.08,4.21-.12,4.88.09.55.17,1.61,1.48,1.86,2.02.93,2.05.46,5.1-1.4,6.45-.27.2-.5.11-.64.18ZM37.96,37.49c-.74-.71-2.88,3.58-1.34,4.05,1.75.54.88-1.36.97-2.47.05-.55.29-1.04.36-1.58ZM39.24,37.86v3.72c2.67.88,1.01-2.05,1.26-3.5l-1.26-.21Z"/>
      <path class="cls-13" d="M8.81,34.15c1.5.19,2.87,1.32,4.46.93.14-.04.12-.38.22-.38.26,0,.63.38,1.1.4.41.02,2.11-.14,2.55-.21.55-.09.97-.6,1.57-.55.5,1.96.57,3.05-.18,5.02-.54.11-1.13-.73-1.37-.76-.31-.03-2.28-.02-2.57.02-.52.08-.79.59-1.25.52-.67-.1-2.17-1.29-2.98-1.29-.64,0-1.45.71-2.11.94l-2.02-1.11c-.01-.22-.16-.6-.09-.75,1.19-.77,2.17-1.34,2.66-2.78Z"/>
      <path class="cls-6" d="M8.26,38.79c.66-.23,1.47-.94,2.11-.94.81,0,2.3,1.19,2.98,1.29.46.06.73-.44,1.25-.52.29-.05,2.25-.06,2.57-.02.24.03.83.87,1.37.76-1.95,5.1-10.02,4.92-11.92-.19.58-.16,1.06-.17,1.65-.37Z"/>
      <path class="cls-16" d="M15.23,31.17c1.3.1,2.81.81,3.34,2.09.18.44.06.77.14,1.07-.6-.06-1.02.46-1.57.55-.44.07-2.14.23-2.55.21-.47-.02-.84-.4-1.1-.4-.09,0-.08.34-.22.38-1.59.4-2.96-.74-4.46-.93l-.38-2.48.56-.49c2.04.11,4.22-.15,6.23,0Z"/>
      <path class="cls-17" d="M38.46,23.22c2.52-.54,3.57,4.43-.04,4.44-1.68,0-3.08-2.28-1.84-3.36.17-.14,1.72-1.05,1.88-1.08Z"/>
      <path class="cls-10" d="M15.6,28.76l-.02,1.28c-.36.43-5.31.18-6.13-.15l.23-1.33,5.93.2Z"/>
      <path class="cls-4" d="M36.13,46.41l-.17-.82.26-.29h4.22c.36,0,.36,1.11,0,1.11h-4.31Z"/>
      <path class="cls-4" d="M37.04,33.03v.74s.46,0,.46,0l.09-.74c.93-.04,1.88,0,2.82.03.42.14.29.73.3,1.09h-4.03v-1.12c.12,0,.25,0,.37,0Z"/>
      <path class="cls-1" d="M38.69,28.94l.37.09c-.56.14-.36.51-.37,1.02h.55c.1.69.15,1.29,0,2.04l-.83-.18-.09-2.87c.05-.22.27-.09.37-.12ZM38.79,30.8v.19c.12-.06.12-.12,0-.19Z"/>
      <path class="cls-3" d="M29.9,43.81c0,1.13.28,4.15-.45,4.84-.29.27-.53.25-.83.37-.04-.58.72-.5.88-1.06.21-.74,0-2.58.04-3.5.01-.36-.19-.75.37-.64Z"/>
      <path class="cls-12" d="M6.25,37.68l2.02,1.11c-.59.21-1.07.21-1.65.37-.25-.67-.32-.67-.37-1.49Z"/>
      <path class="cls-8" d="M14.86,43.81c-1.25.58-3.09.48-4.4.19,1.36-.44,2.98-.06,4.4-.19Z"/>
      <path class="cls-16" d="M41.26,43.99s-.08.24-.19.27c-.74.23-1.06-.08-1.73-.1-1.19-.03-2.04.07-3.22-.18h5.13Z"/>
      <path class="cls-5" d="M15.23,31.17c-2.02-.15-4.2.11-6.23,0,.19-.31.7-.19,1.01-.19,1.4-.01,2.82-.02,4.22,0,.31,0,.82-.12,1.01.19Z"/>
      <path class="cls-3" d="M29.9,42.88h-.37c.03-.71-.04-1.44,0-2.15.02-.4.19-.43.19-.45.32.78.18,1.75.18,2.6Z"/>
      <path class="cls-14" d="M11.75,27.64c-.76.46-1.84.01-2.62.19-.15.03-.12.5-.49.37.43-1.27,2.08-.59,3.12-.56Z"/>
      <path class="cls-11" d="M39.24,30.06h-.55c0-.51-.19-.88.37-1.02l-.37-.09s.11-.22.25-.18l.21.17c.19.33.04.78.08,1.12Z"/>
      <path class="cls-7" d="M37.59,33.03l-.09.74h-.46s0-.74,0-.74c.18-.01.37,0,.55,0Z"/>
      <path class="cls-14" d="M14.68,27.83c-.36.06-.71.25-1.1.19v-.37c.34,0,.9-.12,1.1.19Z"/>
      <path class="cls-14" d="M13.03,27.64c-.12,0-.17,0-.37,0h.37Z"/>
      <path class="cls-8" d="M14.43,19.85c.68-.22,1,.6,1.44.91,1.73,1.26,3.28.38,4.98-.53l.61.62c-1.47,2.26-4.95,2.62-6.8.56-.29-.33-.97-1.33-.25-1.57Z"/>
      <path class="cls-8" d="M12.35,17.19c-1.28-1.59,1.3-4.61,2.31-2.25.75,1.75-.95,3.94-2.31,2.25Z"/>
      <path class="cls-8" d="M22.07,17.74c-.53-.67-.29-2.6.62-2.88,2.19-.67,2.04,2.78,1.15,3.21-.49.24-1.44.09-1.78-.33Z"/>
      <path class="cls-18" d="M39.24,37.86l1.26.21c-.25,1.46,1.41,4.39-1.26,3.5v-3.72Z"/>
      <path class="cls-18" d="M37.96,37.49c-.08.54-.31,1.03-.36,1.58-.1,1.11.78,3.01-.97,2.47-1.54-.47.6-4.76,1.34-4.05Z"/>
      <path class="cls-11" d="M38.79,30.8c.12.06.12.12,0,.19v-.19Z"/>
    </g>
  </g>
</svg>