<?xml version="1.0" encoding="UTF-8"?>
<svg id="_레이어_1" data-name="레이어 1" xmlns="http://www.w3.org/2000/svg" viewBox="0 0 44.56 51.18">
  <defs>
    <style>
      .cls-1 {
        fill: #344155;
      }

      .cls-2 {
        fill: #362314;
      }

      .cls-3 {
        fill: #1a0c07;
      }

      .cls-4 {
        fill: #b5b0aa;
      }

      .cls-5 {
        fill: #e4b373;
      }

      .cls-6 {
        fill: #f08612;
      }

      .cls-7 {
        fill: #3a475f;
      }

      .cls-8 {
        fill: #342112;
      }

      .cls-9 {
        fill: #f58610;
      }

      .cls-10 {
        fill: #1f120b;
      }

      .cls-11 {
        fill: #f1eff1;
      }

      .cls-12 {
        fill: #38291d;
      }

      .cls-13 {
        fill: #4d6685;
      }

      .cls-14 {
        fill: #4d6f16;
      }

      .cls-15 {
        fill: #392512;
      }

      .cls-16 {
        fill: #364155;
      }

      .cls-17 {
        fill: #b0aba4;
      }

      .cls-18 {
        fill: #a59c90;
      }

      .cls-19 {
        fill: #37445a;
      }
    </style>
  </defs>
  <path class="cls-2" d="M13.12,27.2c-1.55-.84-2.66-5.03-2.66-6.63,0-2.26,1.24-4.31,1.83-6.43-4.07.4-4.26-3.06-.83-4.45,1.44-.58,2.99-.7,4.49-1.07,1.2-3.05,2.91-5.48,6.11-6.85,1.76-.75,2.31-.52,4.07-.67.34-.03.25-.6,1.46-.43.42.06.21.43.59.43.55,0,1.56-.41,1.99-.41.18,0,3.37.73,3.54.79.43.16,2.69,1.29,3.23,1.57,4.69,2.49,5.32,6.04,5.29,10.79-.01,2.59.89,4.28.83,6.92-.04,1.64-.38,3.49-1.19,4.99l-2.56,3.32c1.74,2.08,2.3,4.06,2.08,6.72-.05.62-.38,1.31-.41,1.88-.63-.11-.4.3-.42.68-.05,1.34-.14,2.98.21,4.26-.04.48.07,1.01,0,1.48-.69,4.48-6.98,6.35-11.07,5.19-.58-.16-1.25-.79-1.71-.75s-.99.82-1.52.95-1.44.07-2.03.05c-6.19-.3-13.19-2.2-19.41-2.9-2.13-.22-1.64-2.48-2.53-3.82-.54-2.48-.91-5.13-1.25-7.52-.2-1.43-.36-2.84-.62-4.27-.07-.37.23-.79-.42-.68-.03-.26.02-.53,0-.79l.21-.39H.02c-.03-.69-.11-1.69.67-2.03.19-.08,1.75-.37,1.9-.35.14.02.11.36.28.4.32.08.76-.04,1.1,0,.02,0-.03.15.31.19,2.91.38,6.1.25,9.02.57l.23-.67c.01-.2-.32-.05-.41-.1ZM28.3,2.28c-.53-.03-.97-.22-1.55-.2-3.75.09-8.3,2.66-9.05,6.33.16.22,4.75.32,5.61.41.38.04.7.15,1.04.2,1.36.19,2.64.4,3.95.79.43.13,1.19.42,1.66.59.96.35,1.99.77,2.91,1.19s2.21,1.41,3.08,1.72c.44.16,4.27.9,4.48.83.36-.11.53-.9.53-1.25-.05-7.58-5.48-10.14-12.67-10.6ZM10.63,12.56c1.28-.26,2.37-1.14,3.69-1.34,4.57-.68,9.46,2.32,13.74,3.46,1.62.43,3.58.57,5.16-.13,1.39-.62-.6-1.51-1.23-1.83-5.04-2.53-13.45-3.75-18.9-2.08-.95.29-2.45.78-2.45,1.92ZM39.05,27.53c2.76-2.82,3.58-8.01,1.96-11.52-.48-1.04-1.04-.53-1.94-.73-.73-.16-2.55-.8-3.16-.74-.51.05-2.03,1.22-2.82,1.47-5.28,1.71-12.14-3.85-17.37-3.68-.25,0-.56.72-1.32.44-.86,2.36-2.26,4.41-2.49,7.03-.29,3.25,1.29,6.15,3.86,8.18,1.06-.14,2.07.15,3.07.21,1.12.07.59.07,1.08.18,2.16.52,3.07-1.4,3.96,2.14.71,2.81.92,6.06,1.31,8.94h.62c-.08-1.22,0-2.32.74-3.35,1.6-2.21,4.15-.75,5.7-1.9.45-.33.77-1.45,1.61-.64.69.66-.53,1.98-1.31,2.12-.39.07-.84-.06-1.2.01-.15.03-.13.35-.28.39-.58.13-1.4-.06-2.16.09-2.36.46-2.73,3.88.05,4.52.64.15,1.27.03,1.7.13.2.05.12.38.14.39.43.3.38-.35.54-.39.33-.08.82.05,1.22,0,4.98-.66,9.19-3.58,7.01-8.84-.17-.41-.64-1.28-.94-1.58-.44-.44-1.85-.76-1.28-1.65.15-.23,1.39-.94,1.7-1.25ZM4.6,28.39c.12-.6-.32-.38-.72-.4-.85-.03-1.79-.05-2.62.09-.19.12-.56,1.85.22,1.69.13,2.01.79,4.27,1.19,6.28.58,1.73.51,5,1.26,6.52.34.7,1.87.99,2.68,1.18.5.12.77.25.83.26.47.11.91-.22,1.2-.21.13,0,.1.37.26.41.39.08,2.33-.03,2.86,0,.13,0,.1.37.26.4.47.11.92-.23,1.2-.21.12,0,.09.37.26.41.29.07.98-.25,1.18-.2.16.04.06.38.44.41.5.04.97-.24,1.24-.23.13,0,.1.36.26.4.55.14,1.13-.16,1.6-.13.86.05,3.04.5,4.01.66.78.14.67.22.84.26.48.11,1.2-.07,1.73,0,.04-.89-.11-1.77-.23-2.65-.42-2.94-.93-6-1.43-9.02.57-1.36-.34-3.01-.42-4.41-.05-.25-.32-.1-.41-.14-1.1-.42-3.89-.41-5.2-.4-1.73-.19-3.47-.26-5.2-.4-1.59-.13-3.19-.3-4.78-.4v-.4c-.72.09-1.72-.23-2.29.2-.07,0-.14,0-.21,0ZM23.42,34.52v.2c.14-.07.14-.13,0-.2ZM39.74,39.27l-4.69,2.37c-.28.42,1.06,1.1.33,2.29-.67,1.1-5.61,2.88-5.77,3.74-.14.73.84.41,1.25.5.16.03.13.35.28.39,1.26.29,3.63-.45,4.78-.95,1.51-.65,2.97-1.4,3.5-3,.05-.15.31-1.22.31-1.29v-4.05ZM31.42,42.23c-2.15.23-3.88-.55-5.82-1.19l.42,4.35c.22.19,4.6-2.39,5.14-2.72.21-.13.37.02.27-.44ZM8.34,45.2c-.47-.08-1.21-.54-1.46-.2-.06-.05-.34-.18-.42-.2-.53-.1-1.29-.01-1.87-.2-.08.76,1.27.67,1.66.79.81.24,1.39.4,2.29.59,1.57.34,3.13.85,4.78.79.07,0,.14,0,.21,0,.33.2.67.2,1.04.2.27,0,.56.02.83,0,.1.26.4.19.62.2,1.53.04,2.48.2,3.95.4.02,0,.07.15.42.2.07.01.14-.01.21,0,1.09.46,2.37.5,3.54.59.4.03.79.2,1.15.2,1.12,0,4.94-3.33,6.39-3.77.39-.79,3.24-1.11,2.11-2.15-.91-.27-1.04.38-1.54.66-2.37,1.32-4.54,2.87-6.98,4.06-5.6-.85-11.36-1.23-16.93-2.17Z"/>
  <path class="cls-5" d="M2.52,42.83c.89,1.34.4,3.6,2.53,3.82,6.23.7,13.22,2.6,19.41,2.9.58.03,1.49.08,2.03-.05s1.05-.91,1.52-.95,1.13.59,1.71.75c4.09,1.15,10.38-.71,11.07-5.19.07-.47-.04-1,0-1.48.01-.13.19-.36.21-.59,3.48.05,4.71,3.6,2.37,5.91-4.3,4.25-16.45,3.15-22.22,2.98-4.66-.14-14.84.04-18.61-2.48-2.07-1.38-2.55-4.52-.01-5.62Z"/>
  <path class="cls-12" d="M33.71,1.49c-.17-.06-3.35-.79-3.54-.79v-.4c.21.08.39-.19.42-.2,1.19-.23,3.25-.2,3.12,1.38Z"/>
  <path class="cls-3" d="M3.97,27.2c1.16-.41,2.11.15,3.03.18,1.7.06,3.43.11,5.18.22.34.02,1.09.19.94-.4.09.05.43-.11.41.1l-.23.67c-2.92-.32-6.12-.19-9.02-.57-.34-.04-.29-.19-.31-.19Z"/>
  <path class="cls-2" d="M30.59.1s-.21.28-.42.2l.42-.2Z"/>
  <path class="cls-9" d="M39.05,27.53c-.3.31-1.55,1.03-1.7,1.25-.57.89.85,1.21,1.28,1.65.3.3.77,1.17.94,1.58,2.19,5.25-2.02,8.18-7.01,8.84-.39.05-.89-.08-1.22,0-.16.04-.11.69-.54.39-.02-.02.06-.34-.14-.39-.43-.1-1.05.02-1.7-.13-2.78-.65-2.41-4.06-.05-4.52.76-.15,1.57.04,2.16-.09.16-.04.13-.36.28-.39.36-.08.81.06,1.2-.01.78-.14,2-1.45,1.31-2.12-.84-.81-1.17.31-1.61.64-1.55,1.14-4.1-.32-5.7,1.9-.75,1.03-.82,2.13-.74,3.35h-.62c-.39-2.88-.6-6.13-1.31-8.94-.89-3.54-1.8-1.62-3.96-2.14-.49-.12.03-.12-1.08-.18-1-.06-2.01-.35-3.07-.21-2.57-2.03-4.15-4.93-3.86-8.18.23-2.61,1.62-4.67,2.49-7.03.77.28,1.07-.43,1.32-.44,5.23-.18,12.09,5.38,17.37,3.68.79-.26,2.31-1.43,2.82-1.47.61-.06,2.43.59,3.16.74.9.19,1.46-.31,1.94.73,1.62,3.51.81,8.7-1.96,11.52ZM19.07,17.16c-1.5.28-1.32,3.99.59,3.72,1.23-.17,1.74-2.52.95-3.27-.17-.16-1.31-.49-1.54-.45ZM30.96,17.76c-2.01-.81-2.94,3.12-1.05,3.67,1.73.5,2.29-1.58,1.89-2.79-.02-.06-.79-.85-.84-.87ZM20.87,23.99c.12.19,1.16.93,1.47,1.07,1.51.66,3.36.66,4.86,0,.63-.28,1.92-1.17.98-1.8-.85-.57-1.36.48-2.36.68s-1.99.17-2.9-.23c-.45-.2-1.31-1.1-1.56-1.06-.43.07-.72.95-.49,1.33Z"/>
  <path class="cls-18" d="M4.6,28.39c.07,0,.14,0,.21,0,.84.02,1.52.15,2.29.2,1.6.09,3.19.27,4.78.4-.12.6.32.37.72.4,1.59.08,3.01.02,4.48,0,1.31-.02,4.1-.02,5.2.4.4,1.49.58,3.03.83,4.55.5,3.03,1.01,6.09,1.43,9.02.12.87.27,1.76.23,2.65-.53-.07-1.25.11-1.73,0-.16-.04-.06-.12-.84-.26-.97-.17-3.16-.61-4.01-.66-.47-.03-1.05.27-1.6.13-.16-.04-.13-.39-.26-.4-.27-.01-.75.26-1.24.23-.38-.03-.28-.37-.44-.41-.2-.05-.89.26-1.18.2-.17-.04-.13-.4-.26-.41-.28-.02-.72.32-1.2.21-.16-.04-.12-.4-.26-.4-.53-.02-2.47.09-2.86,0-.16-.03-.13-.4-.26-.41-.29-.01-.73.32-1.2.21-.07-.02-.33-.14-.83-.26-.81-.19-2.34-.48-2.68-1.18-.75-1.53-.68-4.79-1.26-6.52-.4-2.01-1.06-4.27-1.19-6.28-.03-.44-.25-.85.02-1.36,1.03-.03,2.07-.04,3.1-.02ZM13.8,39.12l.78-.16.95,1.49c.31-.04.8-.23.9-.52.15-.42-.8-4.47-1.22-4.71-1.77-.53-1.77.78-2.28,1.8-.79,1.59-1.03-1.3-1.3-1.76-.57-.96-1.77-.79-2.46-.04-.91.99-.16,3.06-.2,4.26.46-.07,1.11.1,1.52,0,.25-.06.21-.84,1.05-.58.41.13.78,1.34,1,1.73l1.01.03.26-1.53Z"/>
  <path class="cls-16" d="M32.88,11.58l.21-1.58-.84.11-.2-.9c1.46.71,1.76-.68,3.11-.6.05-.05.05-1.25-.02-1.44-.1-.29-.53-.32-.68-.54-.26-.38-.49-1.52-.74-1.67-.39-.25-1.09.01-1.53-.09-.21-.05-.22-.54-.71-.75-.68-.29-3.52-.46-3.78-.86-.08-.12,0-.4-.02-.57l.62-.4c7.18.46,12.61,3.03,12.67,10.6,0,.35-.17,1.14-.53,1.25-.22.07-4.05-.68-4.48-.83-.86-.31-2.11-1.29-3.08-1.72Z"/>
  <path class="cls-19" d="M28.3,2.28l-.62.4c.02.18-.06.45.02.57.26.4,3.1.56,3.78.86.49.21.51.7.71.75.43.1,1.13-.17,1.53.09.25.16.48,1.3.74,1.67.15.22.58.25.68.54.07.19.08,1.39.02,1.44-1.35-.08-1.65,1.31-3.11.6l.2.9.84-.11-.21,1.58c-.93-.42-1.96-.84-2.91-1.19.6-1.93.6-3.93.83-5.93-1.18-.21-3.01,1.35-4.07.61-.47-.32-.66-1.58-1.6-1.01-1.08.65-2.18,3.51-1.81,4.75-.86-.09-5.45-.19-5.61-.41.75-3.67,5.3-6.24,9.05-6.33.58-.01,1.02.17,1.55.2Z"/>
  <path class="cls-1" d="M10.63,12.56c0-1.14,1.5-1.63,2.45-1.92,5.46-1.67,13.86-.45,18.9,2.08.63.32,2.62,1.21,1.23,1.83-1.58.7-3.54.56-5.16.13-4.27-1.14-9.17-4.14-13.74-3.46-1.31.2-2.41,1.07-3.69,1.34Z"/>
  <path class="cls-6" d="M39.74,39.27v4.05c0,.07-.26,1.14-.31,1.29-.54,1.6-2,2.35-3.5,3-1.16.5-3.53,1.24-4.78.95-.16-.04-.13-.35-.28-.39-.41-.09-1.39.23-1.25-.5.16-.86,5.1-2.64,5.77-3.74.73-1.19-.61-1.88-.33-2.29l4.69-2.37Z"/>
  <path class="cls-11" d="M23.31,8.81c-.36-1.24.73-4.1,1.81-4.75.94-.57,1.14.69,1.6,1.01,1.06.74,2.89-.82,4.07-.61-.23,2-.23,4-.83,5.93-.48-.17-1.23-.46-1.66-.59l.21-2.37c-1.15.06-1.88.15-2.63-.78-.48-.08-1.63,1.8-1.53,2.36-.34-.05-.66-.16-1.04-.2Z"/>
  <path class="cls-4" d="M8.34,45.2c5.57.95,11.33,1.32,16.93,2.17,2.44-1.2,4.61-2.74,6.98-4.06.5-.28.63-.93,1.54-.66,1.13,1.03-1.72,1.36-2.11,2.15-1.45.44-5.27,3.77-6.39,3.77-.35,0-.75-.17-1.15-.2-1.03-.64-2.47-.43-3.54-.59-.07-.01-.14.01-.21,0l-.42-.2c-1.47-.2-2.42-.35-3.95-.4.1-.8-.44-.21-.62-.2-.27.02-.56,0-.83,0v-.39c-.38-.19-.98.19-1.04.2-.07,0-.14,0-.21,0-1.39-.57-3.25-.74-4.78-.79l-.21-.59v-.2Z"/>
  <path class="cls-13" d="M31.42,42.23c.1.46-.06.32-.27.44-.54.33-4.92,2.91-5.14,2.72l-.42-4.35c1.94.64,3.67,1.42,5.82,1.19Z"/>
  <path class="cls-7" d="M24.35,9c-.09-.56,1.05-2.44,1.53-2.36.75.92,1.48.84,2.63.78l-.21,2.37c-1.31-.39-2.59-.6-3.95-.79Z"/>
  <path class="cls-17" d="M17.07,29.38c-1.47.02-2.89.08-4.48,0-.4-.02-.83.21-.72-.4,1.73.14,3.47.2,5.2.4Z"/>
  <path class="cls-10" d="M22.27,29.77c.1.04.36-.11.41.14.08,1.4.98,3.05.42,4.41-.25-1.52-.43-3.06-.83-4.55Z"/>
  <path class="cls-3" d="M13.33,46.78c-1.65.06-3.21-.45-4.78-.79,1.54.05,3.39.22,4.78.79Z"/>
  <path class="cls-17" d="M13.54,46.78c.06,0,.66-.39,1.04-.2v.39c-.37,0-.72,0-1.04-.2Z"/>
  <path class="cls-17" d="M15.41,46.98c.18-.01.73-.61.62.2-.23,0-.52.06-.62-.2Z"/>
  <path class="cls-10" d="M23.42,34.52c.14.07.14.13,0,.2v-.2Z"/>
  <path class="cls-15" d="M20.87,23.99c-.23-.38.06-1.26.49-1.33.25-.04,1.11.86,1.56,1.06.91.4,1.92.43,2.9.23s1.51-1.26,2.36-.68c.93.63-.36,1.52-.98,1.8-1.5.66-3.35.66-4.86,0-.31-.13-1.35-.88-1.47-1.07Z"/>
  <path class="cls-8" d="M30.96,17.76c.06.02.83.82.84.87.4,1.22-.16,3.29-1.89,2.79-1.89-.55-.96-4.47,1.05-3.67Z"/>
  <path class="cls-8" d="M19.07,17.16c.22-.04,1.37.28,1.54.45.79.76.28,3.1-.95,3.27-1.9.27-2.08-3.44-.59-3.72Z"/>
  <path class="cls-14" d="M13.8,39.12l-.26,1.53-1.01-.03c-.21-.38-.59-1.6-1-1.73-.84-.26-.8.52-1.05.58-.41.1-1.06-.07-1.52,0,.05-1.2-.71-3.27.2-4.26.69-.75,1.89-.91,2.46.04.27.45.51,3.34,1.3,1.76.51-1.02.51-2.33,2.28-1.8.42.24,1.37,4.29,1.22,4.71-.1.29-.59.48-.9.52l-.95-1.49-.78.16Z"/>
</svg>