<?xml version="1.0" encoding="UTF-8"?>
<svg id="_레이어_1" data-name="레이어 1" xmlns="http://www.w3.org/2000/svg" viewBox="0 0 41.12 50.85">
  <defs>
    <style>
      .cls-1 {
        fill: #96d7f5;
      }

      .cls-2 {
        fill: #3d6b8f;
      }

      .cls-3 {
        fill: #230c07;
      }

      .cls-4 {
        fill: #372415;
      }

      .cls-5 {
        fill: #090302;
      }

      .cls-6 {
        fill: #3c2917;
      }

      .cls-7 {
        fill: #46bae6;
      }

      .cls-8 {
        fill: #9fcfed;
      }

      .cls-9 {
        fill: #f3c280;
      }

      .cls-10 {
        fill: #72badd;
      }

      .cls-11 {
        fill: #392b1e;
      }

      .cls-12 {
        fill: #2e1a02;
      }

      .cls-13 {
        fill: #33b9e9;
      }

      .cls-14 {
        fill: #778f9a;
      }

      .cls-15 {
        fill: #f58610;
      }

      .cls-16 {
        fill: #7fbfde;
      }

      .cls-17 {
        fill: #5d4328;
      }

      .cls-18 {
        fill: #87cae6;
      }

      .cls-19 {
        fill: #e84912;
      }

      .cls-20 {
        fill: #a0cfec;
      }

      .cls-21 {
        fill: #003d66;
      }

      .cls-22 {
        fill: #5db4da;
      }

      .cls-23 {
        fill: #99cde8;
      }

      .cls-24 {
        fill: #6ec9eb;
      }

      .cls-25 {
        fill: #382312;
      }

      .cls-26 {
        fill: #b7d5e0;
      }
    </style>
  </defs>
  <g id="_2kWitZ.tif" data-name="2kWitZ.tif">
    <g>
      <path class="cls-4" d="M24.35,7.54l.18,8.63h.18c.1.08.27.12.35.2.06.06.12.13.18.2.81.94,1.19,2.06,1.93,2.94l.18.59.7,4.12c.19.2,1.18-.85,1.4-.98,1.09-.66,3.26-1.67,4.48-1.21.04.02.75.52.78.56.57.76.26,1.8,0,2.62-.04.12-.25.53-.35.78-.36.9-.97,2.28-1.4,3.14-1,1.99-2.5,4.48-3.71,6.34-.52.8-1.94,2.26-2.04,3.03-.04.35.12.67.09.9-.21,1.49-.51,3.15-.82,4.64-.01.06.01.13,0,.2-.1.48-.73,2.17-.71,2.43,0,.14,1.36.73.75,2.42-.04.1-.49.77-.57.83-1.2,1.05-7.38,1.39-8.31.19-.61-.78.08-3.33-.54-3.52-1.07.06-1.43,1.07-2.02,1.66-.23.23-.67.27-.69.3h-.34s0,.39,0,.39c-.06.01-.12-.02-.18,0-.39.12-1.16.27-1.05.78-.44.2-.52.28-1.05.39-1.02-.35-2.33-.21-3.42-.2-.3,0-.78-.13-.96.2-.4-.1-.53-.18-.88-.39v-.39s-.35,0-.35,0c-.04-.03-.14.03-.18,0v-.39s-.18.2-.18.2c-.29-.34-.49-.27-.7-.89-.91-2.77,2.53-2.97,2.45-5.58-2.19.27-7.21-1.36-7.53-4.24-.11-1.05.69-2.38,1.51-2.8.27-.14,1.81-.88,1.98-.92.65-.14,1.3-.02,1.94-.29-3.45-3.48-3.76-8.84-2.28-13.53.06,0,.12,0,.18,0,.12-.01.23.01.35,0,.17-.88-.19-1.85-.18-2.64,0-.56.28-1.29.36-1.87.02-.13-.01-.26,0-.39.41.02.86-.48,1.66-.4.65.07,1.02.63,1.66.6.16-.33.02-.55,0-.78.43-1.41.02-3.13.19-4.6.08-.72.47-.54.51-1.09.05-.02.11,0,.18,0,1.15-.14,2.28.89,3.21,1.6.35.27,1.51,1.61,1.87,1.34.07-1.13.76-2.29.88-3.33,0-.06,0-.13,0-.2.29,0,.58,0,.88,0,1.21.04,1.98.74,2.88,1.57s2.33,3.02,3,3.5,2.12.45,2.79,1.2l.08-.39.35.2c-.05-2.61.08-5.24,0-7.85.18-.01.25.05.35.2ZM23.65,49.51c.5-.04,2.17-.53,1.67-1.38-.1-.16-.49-.2-.59-.52-.24-.77.88-4.83,1.11-5.95.24-1.2.37-3.54.75-4.46.34-.84,2.16-2.86,2.77-3.85,1.35-2.2,2.37-4.81,3.73-6.94-.01-1.03,1.84-3.18.09-3.37-1.48-.16-3.47,1.83-4.8,2.45-.4,1.07-.34,2.29-.65,3.39-.21.74-.59.85-.67,1.6-.65.37-1.5,2.6-2.36,1.89-.72-.59.47-1.25.8-1.68.71-.94,1.22-2.08,1.44-3.29.08-.45.44-2.63.39-2.86-.03-.15-.31-.12-.34-.27-.5-2.46-.24-3.71-1.86-5.93-1.73-2.37-3.44-1.91-5.14-3.27-.75-.6-1.57-2.21-2.38-3.02-.54-.54-2.04-1.93-2.71-1.47-.95.65-.44,3.09-1.34,3.84-1.2.22-3.71-3.76-5.29-3.32-.16.39-.22.82-.21,1.25,0,.77.44,4.45.29,4.8-.5,1.11-2.61-.9-3.48-.36-.92.35-.27,3.53-.34,4.36-.04.45-.76,1.44-.95,2.24-.69,2.91.05,7.06,1.95,9.27.46.53,1.91,1.31,1.85,2.04-.07.9-2.19.82-2.96,1.02-3.93,1.04-4.41,3.52-.37,5.06,1.51.58,3.09.56,4.65.87.32,1.3-.34,2.76-1.06,3.74-.68.93-2.6,1.91-.85,3.11,1.13.78,1.45.27,2.23.41.12.02.13.39.2.41.52.15.41-.39.55-.41.36-.05.93.36,1.52.2.12-.03.12-.32.26-.37,1.56-.56,2.29-.86,3.55-2.07,1.04-1.01.64-1.58,2.54-1.29,1.49.23.39,2.5.86,3.54.12.28.69.49.97.59,1.09.37,2.58.2,3.77.2.13,0,.91.08.44-.2Z"/>
      <path class="cls-7" d="M40.98,29.12c0,.33,0,.65,0,.98l-.35,14.12h-.35c.1-.59-.27-.38-.6-.39-3.91-.15-8.37-.17-12.27,0-.34.01-.7-.2-.6.39h-.18l-.18-.2c.31-1.49.61-3.15.82-4.64.03-.23-.13-.55-.09-.9.09-.77,1.52-2.23,2.04-3.03,1.21-1.86,2.71-4.35,3.71-6.34h8.06ZM35.86,34.84c-.8.11-1.7,1.44-.71,1.71.29.08.6-.33,1.01-.39.91-.13,1.97.65,2.72-.09.06-.29-.28-.53-.48-.63-.18-.09-2.41-.62-2.54-.6ZM32.89,40.04c-.31.2-2.74-.75-2.39.53.22.79,3.42,1.13,3.64.38s-.29-1.27-.95-1.27c-.32,0-.23.32-.3.36Z"/>
      <path class="cls-8" d="M40.98,12.05l-3.59-.2-.44.69,4.03.1c.01.72,0,1.44,0,2.16l-3.68.1v.68c1.21-.31,2.45-.17,3.68-.2,0,.65,0,1.31,0,1.96-.93.13-2.18-.18-3.06,0-.23.05-.49.18-.44.49.11.57,2.93.19,3.5.3,0,2.15,0,4.32,0,6.47l-3.5-.1c.01.53.28.36.52.41.99.18,1.97.36,2.98.28,0,1.3,0,2.62,0,3.92h-8.06c.43-.86,1.05-2.24,1.4-3.14h1.93v2.94c.41.03.31.07.35-.29.12-1.02-.11-2.13-.11-3.11,0-1.1-.04-2.22-.07-3.27,0-.33.08-.66.2-.95.46-.33,2.4.54,2.43-.62h-2.45v-10.47c.01-.1.59-.3.7-.32.36-.05.84,0,1.23,0,.78.01,1.44.6,2.1-.39.6.66.33,1.61.35,2.55Z"/>
      <path class="cls-9" d="M26.8,44.22h14.18c-.52,7-9.67,6.04-14.11,5.89-.33-.01-.66.02-.95-.2.08-.07.53-.73.57-.83.61-1.69-.75-2.28-.75-2.42-.02-.26.61-1.95.71-2.43h.35Z"/>
      <path class="cls-23" d="M6.14,8.92v.39c.58,0,1.17.01,1.75,0l.18.39c-.06,0-.13-.02-.18,0-1.35.45-.78,4.47-.7,5.69.02.23.16.45,0,.78-.65.03-1.01-.53-1.66-.6-.8-.08-1.25.42-1.66.4-.11,0-.57-.38-.88-.2.04-1.27-.21-3.88.08-4.91.26-.92,1.34-1.07,2.02-1.36.19-.08.43,0,.7-.2.12-.08.23-.29.35-.39Z"/>
      <path class="cls-2" d="M5.09,2.45c.1-1.17,1.42-.31,1.93-.13.69.25,1.25.22,1.93.41,1.48.41,3.61,1.04,5.01,1.65.33.14.17.57.77.31l.17,4.42c-.29,0-.58,0-.88,0,.09-1.26-.06-2.64,0-3.91l-5.6-1.58v-.39c-.62.1-1.16-.08-1.75-.2-.11-.02-.24.02-.35,0-.08-.02-.25-.33-.52-.2v6.47c-.27.19-.51.12-.7.2v-.2c.29-.2.17-.74.18-1.08.02-1.57.01-3.14,0-4.71,0-.33.11-.87-.18-1.08Z"/>
      <path class="cls-6" d="M30.13.09c.18.33.66.2.96.2,1.34.02,2.69.02,4.03,0,.3,0,.78.13.96-.2l.18.2v3.83s.18.28.18.28c-.02.34-.14.64-.18.98.36,0,.6-.1.88.2l-1.67-.19-.08-4.12v-.2c-.18-.32-.66-.2-.96-.2-1.32-.02-2.85-.15-4.12.2-.23.17-.23,4.61-.18,5.3-.19.02-.28.34-.35.39h-.7c.1-.59-.27-.38-.6-.39-.81-.04-3.03-.16-3.6.2-.06.03-.14.13-.18.2-.3.55,0,.45,0,.59,0,.2,0,.39,0,.59,0,.13,0,.26,0,.39-.19-.23-.16-.52-.35-.78-.1-.15-.17-.21-.35-.2,0-.22.05-.49-.18-.59.06-.17.06-.42.18-.59,1.48-.39,2.87-.07,4.38-.39.52-.11.58-.04,1.05-.39l.18-.28V.68c.05-.14,0-.37.16-.5.11-.1.23-.07.36-.09Z"/>
      <path class="cls-17" d="M38.36,8.92c-.18,0-.63.2-1.05.2,0-.71.15-3.18-.18-3.53-.27-.3-.51-.2-.88-.2.04-.34.16-.64.18-.98l1.85.18.08,4.33Z"/>
      <path class="cls-26" d="M3.86,15.98c-.01.13.02.27,0,.39-1,1.08-.34,3.07-.53,4.51-.06,0-.12,0-.18,0-.12-.01-.23.01-.35,0,.04-1.15-.05-2.31-.01-3.45,0-.31.18-.44.19-.47.21-.13.3-.55,0-.59,0-.2,0-.39,0-.59.31-.19.77.19.88.2Z"/>
      <path class="cls-10" d="M40.98,17.35c0,.26,0,.52,0,.78-.57-.11-3.39.27-3.5-.3-.06-.3.21-.44.44-.49.88-.18,2.13.12,3.06,0Z"/>
      <path class="cls-13" d="M40.98,44.22h-.35l.35-14.12c-.01,4.48.32,9.76,0,14.12Z"/>
      <path class="cls-12" d="M24,7.35c.08,2.61-.06,5.24,0,7.85l-.35-.2v-1.18c.29-.66.3-2.05,0-2.75,0-1.32-.09-2.83,0-4.12.06-.05.15-.12.18-.2.23.09.17.37.18.59Z"/>
      <path class="cls-10" d="M40.98,12.05c0,.2,0,.39,0,.59l-4.03-.1.44-.69,3.59.2Z"/>
      <path class="cls-10" d="M40.98,14.8c0,.2,0,.39,0,.59-1.23.03-2.47-.12-3.68.2v-.68s3.68-.1,3.68-.1Z"/>
      <path class="cls-16" d="M40.98,24.61c0,.2,0,.39,0,.59-1.01.08-1.99-.1-2.98-.28-.24-.04-.51.12-.52-.41l3.5.1Z"/>
      <path class="cls-11" d="M11.74,50.1c-1.36.3-3,.35-4.38,0,.18-.32.66-.2.96-.2,1.09-.01,2.4-.15,3.42.2Z"/>
      <path class="cls-12" d="M28.38,5.78c-1.51.32-2.9,0-4.38.39v-.2c.05-.06.07-.24.18-.29.56-.25,2.49-.11,3.24-.1.3,0,.78-.13.96.2Z"/>
      <path class="cls-23" d="M40.63,9.51c-.66.99-1.33.4-2.1.39v-.39s.88,0,.88,0v-.39c.66.09.67-.22,1.22.39Z"/>
      <path class="cls-16" d="M39.41,9.11v.39s-.88,0-.88,0v.39c-.38,0-.86-.05-1.22,0v-.78c.42,0,.88-.2,1.05-.2.15,0,.75.16,1.05.2Z"/>
      <path class="cls-21" d="M5.09,9.31c.13-2.22-.18-4.68,0-6.86.29.2.18.74.18,1.08.01,1.57.02,3.14,0,4.71,0,.33.11.87-.18,1.08Z"/>
      <path class="cls-5" d="M36.08.09c-.18.32-.66.2-.96.2-1.34.02-2.69.02-4.03,0-.3,0-.78.13-.96-.2,1.78-.29,4.11.21,5.95,0Z"/>
      <path class="cls-5" d="M29.43,5.39c.15-1.42-.28-3.44.18-4.71v4.43s-.18.28-.18.28Z"/>
      <path class="cls-5" d="M36.43,4.41l-.18-.28V.29c.3.41.22,3.37.18,4.12Z"/>
      <path class="cls-11" d="M13.84,48.93c0,.8-.68.62-1.05.78-.11-.51.66-.67,1.05-.78Z"/>
      <path class="cls-4" d="M23.65,13.82v-2.75c.3.7.29,2.09,0,2.75Z"/>
      <path class="cls-4" d="M24,6.17c-.12.17-.11.42-.18.59-.03.08-.11.14-.18.2.02-.21-.03-.42.03-.65.07-.25.23-.24.32-.33v.2Z"/>
      <path class="cls-11" d="M14.37,48.53c-.13.18.3.23-.35.39v-.39s.35,0,.35,0Z"/>
      <path class="cls-11" d="M6.14,49.32h.35s0,.39,0,.39c-.54-.33-.32-.37-.35-.39Z"/>
      <path class="cls-23" d="M2.98,16.96c0-.2,0-.39,0-.59.3.04.21.46,0,.59Z"/>
      <path class="cls-11" d="M5.96,49.32c-.06-.06-.12-.13-.18-.2l.17-.2v.39Z"/>
      <path class="cls-15" d="M19.44,49.51c-.27-.09-.84-.31-.97-.59-.47-1.04.62-3.32-.86-3.54-1.9-.29-1.5.28-2.54,1.29-1.25,1.21-1.99,1.51-3.55,2.07-.14.05-.13.34-.26.37-.59.16-1.16-.25-1.52-.2-.14.02-.03.56-.55.41-.06-.02-.08-.38-.2-.41-.78-.14-1.09.37-2.23-.41-1.75-1.2.17-2.18.85-3.11.72-.98,1.38-2.44,1.06-3.74-1.56-.31-3.13-.3-4.65-.87C0,39.24.49,36.76,4.41,35.72c.77-.2,2.88-.12,2.96-1.02.06-.73-1.4-1.51-1.85-2.04-1.9-2.21-2.65-6.35-1.95-9.27.19-.8.91-1.79.95-2.24.07-.82-.57-4,.34-4.36.88-.54,2.98,1.47,3.48.36.15-.35-.28-4.03-.29-4.8,0-.43.06-.86.21-1.25,1.58-.44,4.1,3.54,5.29,3.32.9-.75.39-3.19,1.34-3.84.68-.46,2.17.93,2.71,1.47.81.81,1.62,2.42,2.38,3.02,1.7,1.36,3.41.89,5.14,3.27,1.62,2.22,1.36,3.47,1.86,5.93.03.15.31.12.34.27.05.22-.31,2.4-.39,2.86-.22,1.21-.73,2.35-1.44,3.29-.33.43-1.52,1.09-.8,1.68.86.71,1.71-1.52,2.36-1.89.09-.75.46-.86.67-1.6.31-1.1.24-2.32.65-3.39,1.33-.61,3.32-2.6,4.8-2.45,1.75.19-.1,2.34-.09,3.37-1.36,2.14-2.38,4.75-3.73,6.94-.61.99-2.43,3.01-2.77,3.85-.37.92-.5,3.26-.75,4.46-.23,1.12-1.35,5.18-1.11,5.95.1.32.5.35.59.52.5.85-1.17,1.34-1.67,1.38-1.37.1-2.82-.08-4.2,0ZM20.72,22.5c-1.01,1.06-.15,3.85,1.36,2.99.49-.28.65-2.07.43-2.65-.26-.68-1.35-.8-1.79-.34ZM12.57,23.07c-1.31.32-1.32,4.37.8,3.65.81-.27.82-4.04-.8-3.65ZM20.8,28.18l-.74-.24-4.83-.1c-.2,1.64-.2,3.79,1.08,4.89,2.73,2.35,5.54-1.47,4.5-4.55Z"/>
      <path class="cls-20" d="M35.21,1.07l.18.2.08,4.12,1.67.19c.32.35.18,2.82.18,3.53-.23,0-.47,0-.7,0,.64-1.8-.79-.91-1.75-.98v13.34c.51-.13,1.28.19,1.4.78.16.78-.11,2.09,0,2.94h-1.58c.27-.82.58-1.86,0-2.62-.03-.04-.74-.54-.78-.56-1.22-.46-3.39.55-4.48,1.21l-.18-1.18-1.05.2.7.83.53.15c-.22.13-1.21,1.18-1.4.98l-.7-4.12,1.22-.29-1.4-.3c-.73-.89-1.12-2.01-1.93-2.94l4.55.2c-.17-1.18-1.39-.57-1.99-.61-.75-.05-2.17-.63-2.73.21-.08-.08-.25-.12-.35-.2l-.18-.59c.03-.37.16-.72.18-1.18,0-.07,0-.13,0-.2,0-.2,0-.39,0-.59.36.29,2.24.42,2.1-.29-.11-.57-1.68.11-2.1-.1.02-1.63,0-3.27,0-4.9,0-.13,0-.26,0-.39h.18c-.02.69-.11.54.43.59,1.58.14,3.3-.11,4.9,0l.1-.59c-.35-.01-.7.01-1.05,0,.04-.67.51-.84,1.05-.79.1-.3-.16-.61-.18-.78-.06-.69-.06-5.13.18-5.3h4.9ZM35.21,1.66h-4.55v.59h4.55v-.59ZM34.68,4.21h-3.76l-.26.59c.22-.09.51.2.61.2h3.41v-.78ZM32.58,6.56c-.64.01-1.29,0-1.93,0v14.9h1.75s.17-14.71.17-14.71l4.2-.1c0-.24-3.81-.1-4.2-.1ZM24.87,10.68h5.43v-.78c-1.69.38-3.42-.11-5.14.03l-.29.76ZM27.5,12.64h-.52v.39h.52v-.39ZM27.68,13.82h2.63v-.59c-.86,0-1.7.07-2.54-.2l-.09.79Z"/>
      <path class="cls-24" d="M6.66,3.03c-.02.2-.07.3.12.4.23.13,1.38.25,1.64.19l5.6,1.58c-.05,1.27.1,2.66,0,3.91,0,.06,0,.13,0,.2-2.09-.38-4.06-.05-6.13,0-.58.01-1.17,0-1.75,0v-.39s.18-5.88.18-5.88c.11.02.24-.02.35,0Z"/>
      <path class="cls-18" d="M14.02,9.31c-.12,1.05-.81,2.2-.88,3.33-.36.27-1.51-1.07-1.87-1.34-.93-.71-2.06-1.74-3.21-1.6l-.18-.39c2.07-.05,4.03-.38,6.13,0Z"/>
      <path class="cls-16" d="M36.43,22.25c.03,1.05.06,2.17.07,3.27,0,.97.23,2.09.11,3.11-.04.36.06.32-.35.29v-2.94h-1.93c.1-.25.31-.66.35-.78h1.58c-.12-.85.16-2.16,0-2.94h.18Z"/>
      <path class="cls-16" d="M25.05,16.37c.56-.84,1.99-.26,2.73-.21.6.04,1.82-.57,1.99.61l-4.55-.2c-.06-.07-.12-.13-.18-.2Z"/>
      <path class="cls-3" d="M24.7,8.33c0,1.63.02,3.27,0,4.9,0,.07,0,.13,0,.2,0,.07,0,.13,0,.2,0,.2,0,.39,0,.59l-.17.1.17.1c-.02.46-.15.81-.18,1.18-.01.19,0,.39,0,.59l-.18-8.63c.19.27.16.55.35.78Z"/>
      <path class="cls-3" d="M7.89,9.7c-.04.55-.43.37-.51,1.09-.17,1.47.24,3.18-.19,4.6-.08-1.21-.65-5.23.7-5.69Z"/>
      <path class="cls-3" d="M3.86,16.37c-.07.58-.35,1.31-.36,1.87-.01.79.35,1.76.18,2.64-.12.01-.23-.01-.35,0,.18-1.44-.48-3.43.53-4.51Z"/>
      <path class="cls-5" d="M23.65,49.51c.47.28-.3.2-.44.2-1.19,0-2.68.17-3.77-.2,1.38-.08,2.83.1,4.2,0Z"/>
      <polygon class="cls-10" points="27.15 19.51 28.55 19.8 27.33 20.1 27.15 19.51"/>
      <path class="cls-17" d="M24.7,16.17h-.18c0-.19-.01-.39,0-.59l.18.59Z"/>
      <path class="cls-13" d="M26.62,44.22h-.18c.01-.06-.01-.13,0-.2l.18.2Z"/>
      <path class="cls-13" d="M26.8,44.22c-.1-.59.27-.38.6-.39,3.91-.17,8.36-.15,12.27,0,.34.01.7-.2.6.39h-13.48Z"/>
      <path class="cls-1" d="M32.89,40.04c.06-.04-.02-.36.3-.36.67,0,1.19.49.95,1.27s-3.43.41-3.64-.38c-.35-1.27,2.09-.33,2.39-.53Z"/>
      <path class="cls-1" d="M35.86,34.84c.13-.02,2.36.51,2.54.6.21.1.54.34.48.63-.75.74-1.81-.05-2.72.09-.4.06-.71.47-1.01.39-.99-.27-.09-1.6.71-1.71Z"/>
      <path class="cls-22" d="M36.26,22.25c-.12-.6-.89-.92-1.4-.78v-13.34c.96.07,2.4-.82,1.75.98.23,0,.47,0,.7,0v.78c-.11.02-.69.22-.71.32v10.47h2.46c-.03,1.16-1.97.29-2.43.62-.13.3-.21.62-.2.95h-.18Z"/>
      <path class="cls-10" d="M6.31,3.03l-.18,5.88c-.12.11-.23.31-.35.39V2.84c.28-.13.44.18.53.2Z"/>
      <path class="cls-10" d="M6.66,3.03c.59.12,1.13.3,1.75.2v.39c-.25.06-1.4-.06-1.64-.19-.19-.1-.14-.2-.12-.4Z"/>
      <path class="cls-23" d="M30.13,6.37c.01.17.27.49.18.78-.55-.06-1.01.11-1.05.79-1.45-.06-2.92.04-4.38,0h-.18c0-.2,0-.39,0-.59,0-.13-.01-.26,0-.39h.18c1.12-.21,4.09.37,4.9-.2.07-.05.16-.37.35-.39Z"/>
      <path class="cls-12" d="M24.87,6.56c.57-.35,2.79-.23,3.6-.2.34.01.7-.2.6.39h-4.2v-.2Z"/>
      <path class="cls-3" d="M35.38,1.07h-5.08c1.26-.35,2.79-.22,4.12-.2.3,0,.78-.13.96.2Z"/>
      <path class="cls-1" d="M29.08,6.76h.7c-.82.57-3.78-.02-4.9.2v-.2h4.2Z"/>
      <path class="cls-17" d="M24.7,6.96c-.01.13,0,.26,0,.39,0-.14-.3-.04,0-.59,0,.07,0,.13,0,.2Z"/>
      <path class="cls-2" d="M24.87,6.76h-.18c.03-.06.12-.16.18-.2v.2Z"/>
      <polygon class="cls-14" points="35.38 1.27 35.21 1.07 35.38 1.07 35.38 1.27"/>
      <path class="cls-25" d="M20.8,28.18c1.05,3.08-1.76,6.9-4.5,4.55-1.28-1.1-1.29-3.25-1.08-4.89l4.83.1.74.24ZM19.8,29.51h-3.24c-.5,0-.04,1.62.18,1.96.41.64,1.12.55,1.73.79.67-.82,1.49-1.44,1.33-2.75Z"/>
      <path class="cls-25" d="M12.57,23.07c1.62-.39,1.61,3.38.8,3.65-2.12.72-2.11-3.33-.8-3.65Z"/>
      <path class="cls-25" d="M20.72,22.5c.44-.46,1.53-.33,1.79.34.22.58.06,2.37-.43,2.65-1.51.86-2.37-1.93-1.36-2.99Z"/>
      <path class="cls-22" d="M32.58,6.56v.2l-.17,14.71h-1.75V6.56c.64,0,1.29.01,1.93,0Z"/>
      <path class="cls-10" d="M24.87,10.68l.29-.76c1.72-.14,3.45.36,5.14-.03v.78s-5.43,0-5.43,0Z"/>
      <path class="cls-10" d="M29.25,7.94c.35.01.7-.01,1.05,0l-.1.59c-1.6-.11-3.32.14-4.9,0-.54-.05-.45.1-.43-.59,1.45.04,2.92-.06,4.38,0Z"/>
      <path class="cls-10" d="M34.68,4.21v.78h-3.41c-.1,0-.39-.29-.61-.2l.26-.59h3.76Z"/>
      <rect class="cls-16" x="30.65" y="1.66" width="4.55" height=".59"/>
      <path class="cls-10" d="M27.68,13.82l.09-.79c.83.27,1.68.2,2.54.2v.59h-2.63Z"/>
      <path class="cls-16" d="M24.7,13.62c0-.07,0-.13,0-.2v-.2c.42.21,1.99-.46,2.1.1.14.72-1.74.58-2.1.29Z"/>
      <polygon class="cls-18" points="29.43 23.23 28.9 23.09 28.2 22.25 29.25 22.06 29.43 23.23"/>
      <path class="cls-18" d="M32.58,6.56c.4,0,4.2-.14,4.2.1l-4.2.1v-.2Z"/>
      <rect class="cls-10" x="26.98" y="12.64" width=".52" height=".39"/>
      <path class="cls-17" d="M24.7,14.41l-.17-.1.17-.1c0,.07,0,.13,0,.2Z"/>
      <path class="cls-17" d="M24.7,13.43c0-.06,0-.13,0-.2v.2Z"/>
      <path class="cls-20" d="M24.87,6.96h-.18c0-.06,0-.13,0-.2h.18v.2Z"/>
      <path class="cls-19" d="M19.8,29.51c.16,1.31-.65,1.93-1.33,2.75-.61-.24-1.32-.15-1.73-.79-.22-.34-.68-1.96-.18-1.96h3.24Z"/>
    </g>
  </g>
</svg>