<?xml version="1.0" encoding="UTF-8"?>
<svg id="_레이어_1" data-name="레이어 1" xmlns="http://www.w3.org/2000/svg" viewBox="0 0 38.08 41.57">
  <defs>
    <style>
      .cls-1 {
        fill: #678f2d;
      }

      .cls-2 {
        fill: #e54c0f;
      }

      .cls-3 {
        fill: #944313;
      }

      .cls-4 {
        fill: #352211;
      }

      .cls-5 {
        fill: #382311;
      }

      .cls-6 {
        fill: #394d63;
      }

      .cls-7 {
        fill: #37373b;
      }

      .cls-8 {
        fill: #f08612;
      }

      .cls-9 {
        fill: #373842;
      }

      .cls-10 {
        fill: #372311;
      }

      .cls-11 {
        fill: #1d1813;
      }

      .cls-12 {
        fill: #352314;
      }

      .cls-13 {
        fill: #f58610;
      }

      .cls-14 {
        fill: #39526e;
      }

      .cls-15 {
        fill: #f4dec1;
      }

      .cls-16 {
        fill: #180a03;
      }

      .cls-17 {
        fill: #f7c015;
      }

      .cls-18 {
        fill: #353b4b;
      }

      .cls-19 {
        fill: #394759;
      }

      .cls-20 {
        fill: #b04f17;
      }
    </style>
  </defs>
  <g id="pqt39K.tif">
    <g>
      <path class="cls-12" d="M3.95,14.73c.17-1.7,1.34-3.78,2.6-5.06.46-.47,2.32-1.71,2.55-2.14.51-.92.52-4.51,1.73-5.03.22-.09,1.4-.25,1.62-.17.12.05,1.83,1.41,1.93,1.51.18.2.23.39.28.63l.6.03c.61-1.18,1.33-2.57,2.28-3.56.51-.52.85-1.02,1.71-.94,2.07.18,2.67,3.53,3.62,4.81l3.4-2.11c.92-.1,1.25-.31,1.94.35.56,1.79.53,3.64.76,5.48.06.19.42.47.61.61.16.12.25-.02.26-.01.85.65,1.59,1.84,2.02,2.77,1.26,2.69,1.39,5.82-.21,8.42.27.18,2.01-.94,2.52-1.05,3.94-.81,4.61,1.84,3.3,4.52-1.24,2.53-4.79,4.81-7.64,5.81-.1.04-.37-.1-.37.09-.02,1.75.05,3.51.01,5.27-.02.91-.54,2.99,0,3.75.17.24.54.32.55.41.09.89-.85,2.16-1.92,2.29-1.59.19-3.87.28-5.38-.18s-2.17-1.16-2.4-2.53l-2.87.35c-.53.7-.64,1.38-1.58,1.81-1.68.76-7.5,1.01-8.4-.71-.47-.9.32-1.16.6-1.7,1.12-2.12.33-1.56-.95-2.95-.52-.56-1.05-1.37-1.4-2.04-3.98.17-7.18-2.47-5.05-6.03.9-1.5,1.82-1.54,3.26-2.25.14-.07.17-.32.42-.44.91-.41,2-.56,2.83-1.08l-.1-.32c-1.23-.83-2.14-2.03-2.6-3.34-.58-1.65-.71-3.55-.54-5.27ZM28.57,40.3c.7-.6.06-.66-.1-1.11-.37-1.07.24-3.92.29-5.2.06-1.68-.17-3.34-.07-5,1.89-1.02,4.64-1.84,6.14-3.4.52-.55,1.81-2.39,1.99-3.04.35-1.26.07-2.85-1.77-2.53-.63.11-3.54,1.69-4.23,2.1-.12.07-.19.29-.36.39-.53.32-1.9,1.41-2.47,1.29-.42-.15-.66-.58-.4-.94.73-.48,1.61-1.14,2.18-1.76,2.95-3.23,2.43-7.86-.28-11.07-.37-.44-1.12-.74-1.32-1.26-.26-.68-.04-1.44-.12-2.13-.12-1.04-.33-2.09-.55-3.11-.64-.38-3.91,2.7-4.97,2.73-.29,0-.56-.51-.66-.71-.35-.65-1.9-4.64-2.42-4.74-1.52.82-2.32,2.47-3.07,3.84-.35.63-.42,1.76-1.64,1.13-.41-.21-2.56-2.95-3.16-2.57-.43,1.16-.8,2.33-1.15,3.51-.1.33,0,.81-.14,1.16-.15.41-2.23,1.77-2.79,2.36-3.08,3.25-3.73,7.77-.81,11.27.38.46,2.26,2,2.15,2.37s-2.96,1.32-3.61,1.62c-2.08.98-5.41,2.79-3.77,5.25.48.72,2.56,1.94,3.48,1.69.71-.2.02-.94-.01-1.2-.44-4.05,3.81-5.56,7.55-6.22,4.6-.81,10.48-.85,13.87,1.9,1.13.91,1.17,1.4,1.34,2.66-.41,1.08-.07,2.38-.18,3.52-.47,1.65-2.03,3.67-3.78,4.58-.4.21-1.93.64-1.99.72-.42.58.39,1.4.88,1.74.33.23.08.25.72.32.06,0,.12,0,.18,0,.19.27.49.3.81.32,1.01.08,3.55.12,4.26-.48ZM9.56,27.04c-1.18.53-1.19.42-2.17,1.28-.04.03-.26,0-.35.09-.41.41-.74.94-.74,1.5.32.3,1.14-1.01,1.27-1.12.44-.37,1.9-1.18,2.53-1.44,4.11-1.66,9.54-.98,13.52.77l2.95,2.27c.57-3.02-3.63-4.21-6.29-4.59-3.74-.54-7.4-.25-10.72,1.24ZM12.46,30.07c.1-.66.03-1.83.9-2.08l-.09-.32c-1.27-.19-5.36,1.97-5.13,3.1.14.65,3.62,1.81,4.4,1.7.4-.06,1.05-.68,1.19-1.04,0-.15-1.14-1.32-1.27-1.36ZM14.14,28.2c-.22.25-.46,1.1-.39,1.43.46,2.01,7.32,1.17,5.48-1.31-.65-.87-4.4-.9-5.09-.12ZM24.76,31.02c-.54-1.84-2.32-3.15-4.52-3.02-.04.84.19,1.74-.36,2.48-.25.34-.87.49-.73,1.04l2.08.96c.32-.53,1.56-.44,2.26-.72.51-.21.72-.61,1.26-.73ZM22.05,37.27c1.57-.69,3.02-1.63,3.8-3.04.59-1.07.78-1.84.36-3.04-.53-.09-.3.34-.62.64-.47.44-2.8,1.37-3.54,1.59-.17.05-.37.11-.54.16-5.23,1.39-9.96,1.04-14.3-2.01-.27-.19-.55-.97-1.01-.39-.43.54,1.11,3.05,1.54,3.6,2.68,3.4,10.31,4.22,14.3,2.48ZM19.7,32.63c-.06-.06-1.5-.66-1.67-.7-.73-.17-1.83.04-2.6-.26-.14,0-1.4.99-1.34,1.27.21.21,3.84.2,4.43.16.17-.01,1.56-.13,1.18-.48ZM15.85,39.78c1.13-.99-.87-.86-1.29-.94-1.64-.27-3.2-.82-4.72-1.42-.36.34-.33.81-.6,1.23-.17.27-.72.66-.74.79s.4.7.53.77c.56.3,4.21.35,4.98.26.32-.04.24-.28.4-.32.37-.1,1.18-.14,1.44-.37Z"/>
      <path class="cls-11" d="M29.84,29.59l-.36,9.11c-.53-.76-.01-2.84,0-3.75.04-1.75-.04-3.51-.01-5.27,0-.19.27-.06.37-.09Z"/>
      <path class="cls-16" d="M29.84,9.13s-.1.14-.26.01c-.19-.14-.54-.41-.61-.61-.23-1.84-.2-3.69-.76-5.48.47.45.54.78.68,1.4.24,1.08,0,3,.26,3.76.11.32.71.47.69.91Z"/>
      <path class="cls-16" d="M4.49,20c-.39-.16-.5-.66-.6-.99-.37-1.23-.6-3.15.05-4.28-.17,1.73-.04,3.63.54,5.27Z"/>
      <path class="cls-13" d="M27.67,29.59c-.17-1.26-.22-1.74-1.34-2.66-3.4-2.76-9.27-2.72-13.87-1.9-3.73.66-7.98,2.17-7.55,6.22.03.27.72,1.01.01,1.2-.92.25-3-.97-3.48-1.69-1.64-2.47,1.69-4.27,3.77-5.25.65-.31,3.5-1.27,3.61-1.62s-1.77-1.91-2.15-2.37c-2.92-3.5-2.28-8.01.81-11.27.57-.6,2.65-1.95,2.79-2.36.13-.36.04-.83.14-1.16.35-1.18.72-2.35,1.15-3.51.59-.39,2.74,2.35,3.16,2.57,1.23.63,1.3-.49,1.64-1.13.75-1.37,1.55-3.02,3.07-3.84.52.11,2.06,4.09,2.42,4.74.11.2.37.72.66.71,1.06-.03,4.34-3.11,4.97-2.73.22,1.02.43,2.08.55,3.11.08.7-.14,1.45.12,2.13.2.53.95.82,1.32,1.26,2.71,3.21,3.23,7.84.28,11.07-.57.62-1.45,1.28-2.18,1.76-.26.36-.02.79.4.94.57.12,1.94-.97,2.47-1.29.17-.1.24-.32.36-.39.69-.41,3.61-1.99,4.23-2.1,1.84-.32,2.12,1.27,1.77,2.53-.18.65-1.47,2.49-1.99,3.04-1.49,1.56-4.25,2.38-6.14,3.4-.09,1.66.13,3.31.07,5-.05,1.28-.66,4.13-.29,5.2.16.45.81.51.1,1.11-1.78.24-3.27.34-5.07.16-.06,0-.12,0-.18,0-.09-.29-.41-.35-.72-.32-.49-.34-1.3-1.16-.88-1.74.06-.08,1.59-.51,1.99-.72,1.75-.91,3.31-2.93,3.78-4.58.43-1.53.39-1.96.18-3.52ZM12.96,13.33c-1.23-.41-2.24-.44-2.45.88-.48,3.01,3.94,1.89,2.45-.88ZM22.56,13.8c-2.61-1.46-2.93,3-.86,2.61,1.3-.25,1.41-1.74.86-2.61ZM19.84,18.12c-.4-.35-2.83.03-3.67-.04-1.65-.14-3.97-1.46-3.31,1.32.39,1.67,2.3,3.24,4.36,2.83.13-.03.14-.26.27-.3.43-.14.91-.16,1.31-.42.76-.5,1.75-2.77,1.05-3.39Z"/>
      <path class="cls-7" d="M22.05,37.27c-4,1.75-11.63.93-14.3-2.48-.44-.55-1.97-3.06-1.54-3.6.46-.58.74.2,1.01.39,4.33,3.05,9.07,3.4,14.3,2.01.04.45.56.54.56,1.04,0,.57-.59.64-.71.99-.24.69.56.99.69,1.64Z"/>
      <path class="cls-14" d="M9.56,27.04c3.32-1.49,6.99-1.78,10.72-1.24,2.66.38,6.87,1.58,6.29,4.59l-2.95-2.27c-3.99-1.75-9.41-2.43-13.52-.77l-.54-.32Z"/>
      <path class="cls-15" d="M24.76,31.02c-.54.12-.75.53-1.26.73-.7.29-1.95.19-2.26.72l-2.08-.96c-.14-.55.47-.69.73-1.04.55-.74.32-1.64.36-2.48,2.2-.13,3.98,1.19,4.52,3.02Z"/>
      <path class="cls-20" d="M12.46,30.07c.14.03,1.27,1.21,1.27,1.36-.14.36-.8.99-1.19,1.04-.77.11-4.26-1.06-4.4-1.7-.24-1.12,3.86-3.28,5.13-3.1l.09.32c-.87.25-.81,1.42-.9,2.08-.81-.2-.62.58-1.45.16-.11.48.27.72.79.77.52-.25.59-.46.66-.93Z"/>
      <path class="cls-17" d="M14.14,28.2c.69-.78,4.45-.75,5.09.12,1.84,2.48-5.02,3.32-5.48,1.31-.08-.33.17-1.18.39-1.43Z"/>
      <path class="cls-8" d="M15.85,39.78c-.26.23-1.07.27-1.44.37-.16.04-.08.28-.4.32-.78.09-4.42.04-4.98-.26-.13-.07-.56-.64-.53-.77s.58-.52.74-.79c.27-.43.24-.89.6-1.23,1.51.61,3.08,1.15,4.72,1.42.43.07,2.42-.05,1.29.94Z"/>
      <path class="cls-9" d="M25.85,34.23c-.78,1.4-2.23,2.35-3.8,3.04-.13-.65-.93-.96-.69-1.64.12-.35.71-.42.71-.99,0-.5-.53-.59-.56-1.04.18-.05.37-.11.54-.16-.07.51.17.27.51.22.62-.1,1.12-.34,1.74-.38l1.55.96Z"/>
      <path class="cls-1" d="M19.7,32.63c.38.35-1.01.46-1.18.48-.59.04-4.22.05-4.43-.16-.06-.28,1.2-1.27,1.34-1.27.77.3,1.87.09,2.6.26.17.04,1.61.64,1.67.7Z"/>
      <path class="cls-18" d="M22.05,33.43c.73-.23,3.07-1.15,3.54-1.59.33-.31.09-.73.62-.64.42,1.2.23,1.97-.36,3.04l-1.55-.96c-.61.04-1.11.28-1.74.38-.34.06-.59.3-.51-.22Z"/>
      <path class="cls-6" d="M9.56,27.04l.54.32c-.63.25-2.09,1.07-2.53,1.44l-.18-.48c.98-.86.99-.75,2.17-1.28Z"/>
      <path class="cls-19" d="M7.39,28.31l.18.48c-.13.11-.95,1.42-1.27,1.12,0-.57.33-1.1.74-1.5.09-.09.31-.06.35-.09Z"/>
      <path class="cls-11" d="M27.48,33.11c.11-1.14-.23-2.43.18-3.52.21,1.56.25,1.98-.18,3.52Z"/>
      <path class="cls-5" d="M19.84,18.12c.7.62-.29,2.9-1.05,3.39-.39.26-.88.27-1.31.42-.13.04-.13.28-.27.3-2.06.41-3.96-1.16-4.36-2.83-.66-2.78,1.66-1.46,3.31-1.32.84.07,3.26-.32,3.67.04ZM18.57,19.08c-.64-.33-3.95.19-3.73,1.12.12.52.73.7,1.11.92.13.08.14.3.22.32.53.11.37-.24.58-.31.22-.08.51,0,.88-.16.66-.28,1.89-1.41.94-1.9Z"/>
      <path class="cls-10" d="M12.96,13.33c1.49,2.77-2.94,3.89-2.45.88.21-1.32,1.22-1.29,2.45-.88Z"/>
      <path class="cls-4" d="M22.56,13.8c.55.87.44,2.36-.86,2.61-2.07.4-1.75-4.07.86-2.61Z"/>
      <path class="cls-3" d="M12.46,30.07c-.07.47-.14.68-.66.93-.52-.05-.9-.3-.79-.77.83.42.64-.36,1.45-.16Z"/>
      <path class="cls-2" d="M18.57,19.08c.95.49-.28,1.62-.94,1.9-.37.16-.66.08-.88.16-.21.07-.06.42-.58.31-.08-.02-.09-.24-.22-.32-.38-.23-.99-.4-1.11-.92-.22-.94,3.09-1.45,3.73-1.12Z"/>
    </g>
  </g>
</svg>