<?xml version="1.0" encoding="UTF-8"?>
<svg id="_레이어_1" data-name="레이어 1" xmlns="http://www.w3.org/2000/svg" viewBox="0 0 43.08 57.97">
  <defs>
    <style>
      .cls-1 {
        fill: #383635;
      }

      .cls-2 {
        fill: #321f0d;
      }

      .cls-3 {
        fill: #2a65a5;
      }

      .cls-4 {
        fill: #373536;
      }

      .cls-5 {
        fill: #3f3023;
      }

      .cls-6 {
        fill: #f4ede1;
      }

      .cls-7 {
        fill: #e9bb77;
      }

      .cls-8 {
        fill: #382412;
      }

      .cls-9 {
        fill: #e85a18;
      }

      .cls-10 {
        fill: #2f1b04;
      }

      .cls-11 {
        fill: #362415;
      }

      .cls-12 {
        fill: #f8f2e6;
      }

      .cls-13 {
        fill: #e65a19;
      }

      .cls-14 {
        fill: #ebe2d4;
      }

      .cls-15 {
        fill: #2a65a4;
      }

      .cls-16 {
        fill: #2a65a6;
      }

      .cls-17 {
        fill: #251610;
      }

      .cls-18 {
        fill: #f08510;
      }

      .cls-19 {
        fill: #07080b;
      }

      .cls-20 {
        fill: #f58511;
      }

      .cls-21 {
        fill: #f2c077;
      }

      .cls-22 {
        fill: #f38512;
      }

      .cls-23 {
        fill: #362212;
      }

      .cls-24 {
        fill: #2964a3;
      }
    </style>
  </defs>
  <path class="cls-11" d="M26.35.44c1.25.24,1.98.53,2.8.82.39.13,1.33.04,1.59.35.45.55.92,4.24,1.05,5.19.03.24-.14.54-.11.78.06.44.54.91.39,1.54,2.34.5,4.54,1.36,6.62,2.61,1.18.71,3.05,1.91,3.6,3.22.6,1.42.41,2.31,0,3.73-1.46,1.83-3.84,1.73-5.88,2.29,1.03,4.07.14,8.42-2.79,11.2-.37.35-.88-.05-.6,1.22.33.07.66.12.97.28,1.8.94,5.62,4.88,6.13,6.99.25,1.05,0,1.91-.86,2.5,0,0-.11-.19-.19-.12l-.19.23c.33,1.39.5,2.46,0,3.83-.99,1.7-1.71,2.03-3.58,2.1l-.11,2.68-2.75.83c1.14,2.28.69,4.44-1.9,4.56l-4.55.21c-1.56-.75-1.41-2.37-1.82-3.95l-1.95.03c-.47,3.66-3.64,4.49-6.55,3.9-1.54-.31-3.3-1.47-2.44-3.47.21-.48.89-.39.61-1.28-1.09-.18-3.77-.48-4.09-1.87l.79-4.58c-.1-.18-1.73-.6-2.13-.9-1.36-1.03-1.59-3.57-2-4.03-.19-.22-.84-.25-1.15-.46-.08-.05-1.22-1.31-1.27-1.4-.83-1.5.07-2.67-.11-3.56-.08-.41-2.12-3.2-2.55-3.8-.51-.72-1.74-1.39-1.15-2.71.58-.27.75-.92,1.16-1.28,2.17-1.91,5.61-1.94,8.15-1.15-.5-3.58-.11-7.29,1.5-10.48-.55-.82-1.55-.45-2.14-.53-.13-.02-.09-.34-.26-.39-.23-.08-.56.01-.81-.11-.93-.44-2.36-1.77-2.46-2.93-.33-3.65,7.21-5.15,9.59-5.28.45-.02.93.3,1.29.22.13-.03.11-.38.25-.42.48-.13,1.64.16,1.93-.04.84-2.26,2.3-4.11,3.51-6.13.14-.13.34-.21.51-.27,1.5-.55,2.62.28,3.98-.21ZM30.71,8.74c-.21-1.33-.51-5.82-1.66-6.38-.76-.37-5.25-1.11-5.93-.78-.33.17-2.95,4.47-3.03,4.99-.03.17,0,.34,0,.51,3.62-.11,7.12.91,10.62,1.66ZM35.85,19.32c.9.08,1.81-.07,2.69-.26,1.25-.27,3.96-1.22,2.89-3.04-2.52-4.3-15.39-7.22-19.9-7.49-3.59-.21-10.82.38-13.9,2.46-2.45,1.64.44,3.56,2.12,3.78,1.85.24,1.56-.27,2.75-.95,4.43-2.54,14.6-.89,19.23,1,2.11.86,3.86,1.79,4.13,4.51ZM17.81,13.72c-1.38-.04-2.79.61-3.94.76-.23.49-.75.5-1,.78-.56.62-2.01,4.72-2.27,5.72-.43,1.67-.6,4.41-.19,6.08.06.25.36.11.38.14.82,1.08,1.85,1.99,2.75,3.11.16.19.48.28.67.52.33.43.54,1.47.69,1.58.09.07,1.84.69,2.11.76,1.6.45,3.12.37,4.43,1.8.97,1.06.08,1.62,2,.46,1.64-.99,1.86-.7,3.54-1.19.29-.09,1.51-.68,1.81-.79,2.79-1.03,5.17-2.31,6.32-5.51.35-.99.78-3.8.37-4.73-.11-.14-.42-.31-.57-.36v-.21l.57-.31c.09-.4-.51-.59-.57-.72-.12-.25-.02-1-.48-1.24l-1.23.83c-.23-.84-1.04-4.64-1.44-4.96-.81-.65-3.86-1.36-4.98-1.61-1.77-.4-3.17-.59-4.97-.69.11-.63-.29-.4-.66-.42-1.03-.04-2.37-.14-3.33.21ZM5.29,27.83c-.68.12-.75.19-1.33.41-1.02.4-1.96.86-2.86,1.57.05.77.69,1.08.96,1.49.43.64,1.72,2.82,2.17,3.18.98.78,1-.18,1.06-.22.03-.02.54-.21.57-.21.09,0,.37.2.57.21.48.01,1.07-.07,1.52,0,.17.03.45.09.57.21.15.15.41.66.76,1.04.2.21.35.33.47.62.26-.77.76-.63,1.22-.95.41-.29,2.54-1.83,2.69-2.04.39-.57-.23-1.68-.58-2.19-.63-.93-1.17-.66-1.71-1.04-.25-.17-.36-.48-.95-.83-.74-.44-1.2-.77-2.09-1.04-1.36-.41-1.63-.46-3.04-.21ZM13.64,40.49l4.06.38,1.36-1.84v-.4c-.68-.72-1.7-3.93-2.32-4.33-.48-.3-2.01-.6-2.52-.35-.75,1.2-3.35,2.3-4,3.3-.3.46-.1.96-.22,1.42-.36,1.35-1.38,1.89-2.34,2.64,0,1.91,1.53,3.49,3.21,3.72l2.49-7.46c1.8-.94.15,2.78.29,2.91ZM32.23,46.51c.24.23,3.5-2.65,4-2.99.64-.44,2.31-1.18,2.64-1.47.59-.53-.47-2.13-.79-2.66-1.49-2.45-4.09-4.67-6.67-5.49-1.08.74-2.43.99-3.44,1.83-.85.7-3.35,3.43-3.99,4.35-.22.31-.51.61-.47,1.04l6.83-.21c.12-.74-.66-2.12-.29-2.7.64-1.01,1.08,1.02,1.18,1.42.58,2.24.53,4.63,1.01,6.89ZM19.91,38.2c2.79-.66.08-3.5-1.53-3.52l1.53,3.52ZM6.18,35.35c-2.16.54-2.18,4.3.39,4.69,3.28.49,2.79-5.48-.39-4.69ZM26.73,35.31c-.45-.05-.86,0-1.29.14-.92.28-4.84,4-5.73,4.94-.2.22-.44.36-.38.73.67-.09,1.67.19,2.27-.11.16-.08,2.24-2.23,2.57-2.58.24-.25.39-.65.65-.95.2-.22,2.07-2.04,1.9-2.17ZM17.42,41.96c-1.31-.65-2.75-.4-4.15-.42l-.57,2.15c.13.59,3.43.44,4.05.69.61-.12.61-1.83.67-2.42ZM18.19,44.64h4.27c.43-.28.4-1.97.11-2.19-.91-.19-1.84-.06-2.76-.09-.44-.02-1.19-.54-1.39.14l-.22,2.14ZM28.82,44.64c.46-.05,1.28-.61,1.9-.41l-.19-2.07-7.02.21.19,2.28c-.1.02-.23-.05-.33.04l-.05.79-5.47-.17c-.28.19-.81,3.19-.41,3.7-.14.86-.41,2.08-.38,2.9,0,.14-.01.28,0,.41l8.26.22,3.69-.42c.13,0,.26-.01.38,0,.33.04.69.39,1.14-.21.13,0,.25,0,.38,0,.01,0,.09.15.24.14.44-.01.97-.26,1.47-.14v-.41c.51-.11,1-.08,1.48-.45.11-1.02-.03-2.06.03-3.08,0-.06.31-.35.19-.62-.96-.53-.8.11-1.35.28-2.13.66-1.31-1.06-1.8-2.59-.63-.3-1.2.07-1.89.04-.24-.01-.44-.22-.46-.22v-.21ZM35.28,47.95c1.98.45,3.62-1.74,2.85-3.84-1.89.21-3.32,1.58-2.85,3.84ZM12.31,45.06l-1.33,5.81c.09.42,3.49,1.41,3.98.83.31.06.61.25.95.21.15-2.19,1.01-4.26.95-6.43-.15-.44-3.78-.53-4.43-.59l-.12.18ZM20.85,53.36l-5.57-.43-1.06,2.38c1.96,1.53,6.72,1.62,6.63-1.95ZM25.4,53.36c.11,1.32.11,2.66,1.5,3.02,1.84.48,6.81-.22,4.25-3.2l-5.76.17Z"/>
  <path class="cls-17" d="M30.52,57.3c-1.16.9-3.3.81-4.55.21l4.55-.21Z"/>
  <path class="cls-17" d="M26.35.44c-1.36.49-2.49-.35-3.98.21-.09-.45.2-.51.52-.57,1.29-.25,2.26.13,3.47.36Z"/>
  <path class="cls-17" d="M42.29,14.97c.45-.1.42.23.52.56.46,1.45.37,2.06-.52,3.17.41-1.42.6-2.31,0-3.73Z"/>
  <path class="cls-17" d="M39.25,43.19c.14.92.33,2.08.18,3-.08.49-.37.62-.56.94.51-1.37.33-2.44,0-3.83l.19-.23c.08-.07.18.12.19.12Z"/>
  <path class="cls-20" d="M17.81,13.72c1.26.04,2.66.13,3.98.21,1.8.1,3.2.28,4.97.69,1.12.26,4.17.96,4.98,1.61.4.32,1.21,4.12,1.44,4.96.12.45-.13.59.37,1.15.53.59.87.34,1.34.51.15.05.46.22.57.36.41.93-.02,3.75-.37,4.73-1.14,3.2-3.53,4.48-6.32,5.51-.3.11-1.52.71-1.81.79-1.67.49-1.9.2-3.54,1.19-1.92,1.16-1.03.6-2-.46-1.31-1.43-2.83-1.35-4.43-1.8-.27-.07-2.01-.69-2.11-.76-.15-.11-.35-1.15-.69-1.58-.18-.23-.51-.32-.67-.52-.91-1.12-1.93-2.03-2.75-3.11-.19-.47-.15-.96-.19-1.45-.01-.17,0-.36-.19-.41l.19-4.36c.26-1,1.71-5.1,2.27-5.72.26-.28.77-.3,1-.78,1.15-.15,2.56-.8,3.94-.76ZM17.97,20.2c-.86.35-1.45.24-1.62,1.36-.47,2.93,2.07,2.87,2.34,1.1.02-.15,0-1.75-.04-1.83-.15-.38-.64-.14-.67-.63ZM28.23,20.8c-3.49-1.15-2.5,4.74-.3,3.31.77-.5.54-2.48.3-3.31ZM25.37,27.18c.12-.3-.28-1.02-.63-1.01-1.16.93-2.04,1.56-3.56,1.21-.85-.19-1.25-1.27-2.22-.99-.08.59.2,1.15.59,1.53.29.29,1.46.83,1.81.89.07.01,1.36.07,1.47.07s.08-.37.24-.42c.29-.08.61.03,1-.12.57-.22.79-.94,1.3-1.17Z"/>
  <path class="cls-1" d="M35.85,19.32c-.27-2.72-2.03-3.65-4.13-4.51-4.63-1.88-14.79-3.53-19.23-1-1.19.68-.9,1.2-2.75.95-1.68-.22-4.57-2.14-2.12-3.78,3.08-2.07,10.3-2.67,13.9-2.46,4.51.26,17.39,3.19,19.9,7.49,1.06,1.82-1.64,2.77-2.89,3.04-.88.19-1.78.34-2.69.26Z"/>
  <path class="cls-3" d="M17.43,49c.07-.45.54-3.29.69-3.33,4.27.41,8.55.1,12.78-.4.23,1.36-.19,3.21,1.57,2.86.63-.13,1.29-1.08,1.66-.16-.06,1.02.08,2.06-.03,3.08-.48.37-.98.34-1.49.45-.56.12-1.23.14-1.71.41-.13,0-.25,0-.38,0-.35,0-.94-.13-1.14.21-.12-.01-.25,0-.38,0-2.09-.13-4.4-.02-6.55.22l-5.4-.43c-.03-.83.24-2.04.38-2.9Z"/>
  <path class="cls-16" d="M32.23,46.51c-.47-2.26-.43-4.65-1.01-6.89-.1-.4-.54-2.43-1.18-1.42-.37.59.41,1.97.29,2.7l-6.83.21c-.04-.43.25-.73.47-1.04.65-.92,3.15-3.64,3.99-4.35,1.01-.84,2.36-1.09,3.44-1.83,2.58.82,5.18,3.04,6.67,5.49.32.53,1.39,2.13.79,2.66-.33.29-2,1.03-2.64,1.47-.5.34-3.76,3.23-4,2.99Z"/>
  <path class="cls-15" d="M13.64,40.49c-.13-.13,1.51-3.85-.29-2.91l-2.49,7.46c-1.68-.23-3.22-1.81-3.21-3.72.96-.75,1.98-1.3,2.34-2.64.12-.46-.08-.96.22-1.42.65-1,3.25-2.1,4-3.3.51-.26,2.05.04,2.52.35.63.4,1.64,3.61,2.32,4.33v.4s-1.35,1.84-1.35,1.84l-4.06-.38Z"/>
  <path class="cls-4" d="M30.71,8.74c-3.51-.75-7.01-1.77-10.62-1.66,0-.17-.02-.34,0-.51.08-.51,2.7-4.82,3.03-4.99.67-.33,5.17.41,5.93.78,1.15.56,1.45,5.05,1.66,6.38Z"/>
  <path class="cls-24" d="M16.86,45.47c.06,2.17-.8,4.25-.95,6.43-.33.04-.63-.15-.95-.21-1.33-.26-2.65-.58-3.98-.83l1.33-5.81c1.51.23,3.03.46,4.55.41Z"/>
  <path class="cls-22" d="M25.4,53.36l5.76-.17c2.56,2.98-2.41,3.68-4.25,3.2-1.4-.36-1.39-1.7-1.5-3.02Z"/>
  <path class="cls-18" d="M20.85,53.36c.09,3.56-4.68,3.48-6.63,1.95l1.06-2.38,5.57.43Z"/>
  <path class="cls-22" d="M6.18,35.35c3.18-.79,3.67,5.18.39,4.69-2.57-.39-2.55-4.15-.39-4.69Z"/>
  <path class="cls-9" d="M23.69,44.64l-.19-2.28,7.02-.21.19,2.07c-.62-.19-1.43.37-1.9.41-1.03.11-2.47-.12-3.79,0-.43.04-.92-.06-1.33,0Z"/>
  <path class="cls-12" d="M8.33,28.04l-.98,5.46-.91.76c-.2,0-.48-.21-.57-.21l-.57-6.22c1.4-.25,1.68-.2,3.04.21Z"/>
  <path class="cls-6" d="M3.96,28.25c.13,1.71.58,3.41.94,5.09.07.34.05.72.39.93-.06.04-.07,1-1.06.22-.45-.35-1.73-2.53-2.17-3.18-.28-.41-.91-.73-.96-1.49.9-.71,1.84-1.17,2.86-1.57Z"/>
  <path class="cls-14" d="M26.73,35.31c.17.13-1.7,1.95-1.9,2.17-.26.29-.41.7-.65.95-.33.35-2.41,2.5-2.57,2.58-.6.3-1.6.01-2.27.11-.07-.36.17-.51.38-.73.89-.94,4.81-4.66,5.73-4.94.43-.13.85-.19,1.29-.14Z"/>
  <path class="cls-13" d="M17.42,41.96c-.06.59-.06,2.3-.67,2.42-.62-.25-3.91-.1-4.05-.69l.57-2.15c1.4.02,2.84-.23,4.15.42Z"/>
  <path class="cls-13" d="M18.19,44.64l.22-2.14c.21-.68.95-.16,1.39-.14.92.03,1.85-.1,2.76.09.29.22.32,1.91-.11,2.19h-4.27Z"/>
  <path class="cls-2" d="M23.69,44.64c.41-.06.9.04,1.33,0v.21l.12.42c.88-.03,1.77.03,2.64,0,.37-.02.76.21.66-.42.13,0,.25,0,.38,0,.03,0,.22.21.46.22.69.04,1.26-.34,1.89-.04.49,1.53-.33,3.25,1.8,2.59.54-.17.38-.81,1.35-.28.12.27-.19.56-.19.62-.37-.92-1.02.04-1.66.16-1.76.35-1.34-1.5-1.57-2.86-4.24.5-8.52.82-12.78.4-.15.04-.62,2.88-.69,3.33-.4-.51.13-3.51.41-3.7l5.47.17.05-.79c.1-.09.23-.03.33-.04Z"/>
  <path class="cls-18" d="M35.28,47.95c-.48-2.26.96-3.63,2.85-3.84.77,2.11-.87,4.3-2.85,3.84Z"/>
  <path class="cls-6" d="M13.07,30.95c.35.51.97,1.62.58,2.19-.14.21-2.28,1.75-2.69,2.04-.46.32-.96.18-1.22.95-.12-.29-.28-.41-.47-.62l.37-.94,3.42-3.62Z"/>
  <path class="cls-7" d="M10.41,29.08c-.46-.11-.39.26-.53.55-.71,1.46-1.72,3.02-1.93,4.64-.45-.07-1.04.01-1.52,0l.91-.76.98-5.46c.89.27,1.35.6,2.09,1.04Z"/>
  <path class="cls-12" d="M10.41,29.08c.58.35.7.66.95.83-.5,1.67-1.76,3.28-2.85,4.56-.12-.12-.4-.18-.57-.21.21-1.62,1.22-3.18,1.93-4.64.14-.29.07-.66.53-.55Z"/>
  <path class="cls-21" d="M5.29,27.83l.57,6.22s-.54.19-.57.21c-.33-.21-.31-.58-.39-.93-.36-1.68-.81-3.38-.94-5.09.58-.23.65-.29,1.33-.41Z"/>
  <path class="cls-7" d="M13.07,30.95l-3.42,3.62-.37.94c-.35-.38-.61-.89-.76-1.04,1.09-1.29,2.35-2.89,2.85-4.56.54.37,1.08.1,1.71,1.04Z"/>
  <path class="cls-14" d="M19.91,38.2l-1.53-3.52c1.61.02,4.31,2.86,1.53,3.52Z"/>
  <path class="cls-10" d="M29.01,52.11l-3.69.42-8.26-.22c-.01-.14,0-.28,0-.41l5.4.43c2.15-.25,4.46-.36,6.55-.22Z"/>
  <path class="cls-8" d="M34.89,21.61h-.76c.03.25-.07.61.03.8l.73.24v.21c-.47-.16-.81.09-1.34-.51-.5-.56-.24-.7-.37-1.15l1.23-.83c.46.25.36.99.48,1.24Z"/>
  <path class="cls-19" d="M10.41,25.34l.19.41c.04.49,0,.98.19,1.45-.02-.03-.32.11-.38-.14-.41-1.68-.24-4.42.19-6.08l-.19,4.36Z"/>
  <path class="cls-19" d="M17.81,13.72c.96-.35,2.3-.25,3.33-.21.37.02.76-.21.66.42-1.32-.07-2.72-.17-3.98-.21Z"/>
  <path class="cls-10" d="M16.86,45.47c-1.52.04-3.05-.19-4.55-.41l.12-.18c.65.07,4.29.15,4.43.59Z"/>
  <path class="cls-2" d="M14.97,51.7c-.5.58-3.89-.41-3.98-.83,1.33.25,2.65.57,3.98.83Z"/>
  <path class="cls-17" d="M28.82,44.64v.21c-.13,0-.25,0-.38,0-1.13-.04-2.28.03-3.42,0v-.21c1.32-.12,2.76.11,3.79,0Z"/>
  <path class="cls-5" d="M34.89,21.61c.06.13.66.33.57.72l-.57.31-.73-.24c-.1-.19,0-.55-.03-.8h.76Z"/>
  <path class="cls-10" d="M32.61,51.49v.41c-.5-.12-1.02.13-1.47.14-.15,0-.23-.14-.24-.14.48-.27,1.15-.29,1.71-.41Z"/>
  <path class="cls-10" d="M30.52,51.9c-.45.59-.81.25-1.14.21.2-.34.79-.22,1.14-.21Z"/>
  <path class="cls-8" d="M25.37,27.18c-.52.23-.84.77-1.3,1.17-.32.27-.45.31-.79.45-.15.07-.34.08-.45.08s-1.4-.06-1.47-.07c-.35-.07-1.52-.6-1.81-.89-.38-.38-.67-.95-.59-1.53.97-.28,1.38.8,2.22.99,1.53.35,2.41-.28,3.56-1.21.35,0,.75.72.63,1.01Z"/>
  <path class="cls-23" d="M28.23,20.8c.23.83.47,2.8-.3,3.31-2.2,1.43-3.19-4.46.3-3.31Z"/>
  <path class="cls-23" d="M17.97,20.2c.03.49.52.25.67.63.03.08.07,1.68.04,1.83-.27,1.76-2.81,1.83-2.34-1.1.18-1.11.76-1.01,1.62-1.36Z"/>
  <path class="cls-11" d="M10.6,25.76l-.19-.41c.19.05.18.24.19.41Z"/>
  <path class="cls-11" d="M28.44,44.85c.11.63-.29.4-.66.42-.88.04-1.77-.03-2.64,0l-.12-.42c1.14.03,2.28-.04,3.42,0Z"/>
</svg>