<?xml version="1.0" encoding="UTF-8"?>
<svg id="_레이어_1" data-name="레이어 1" xmlns="http://www.w3.org/2000/svg" viewBox="0 0 198.02 151.79">
  <defs>
    <style>
      .cls-1 {
        fill: #745c38;
      }

      .cls-2 {
        fill: #fdf9ec;
      }

      .cls-3 {
        fill: #f3660e;
      }

      .cls-4 {
        fill: #f7b415;
      }

      .cls-5 {
        fill: #4885b3;
      }

      .cls-6 {
        fill: #4c3413;
      }

      .cls-7 {
        fill: #493314;
      }

      .cls-8 {
        fill: #f3ad16;
      }

      .cls-9 {
        fill: #1b1d14;
      }

      .cls-10 {
        fill: #476d8d;
      }

      .cls-11 {
        fill: #140d13;
      }

      .cls-12 {
        fill: #fd8e12;
      }

      .cls-13 {
        fill: #1f1313;
      }

      .cls-14 {
        fill: #2b2314;
      }

      .cls-15 {
        fill: #dedbd1;
      }

      .cls-16 {
        fill: #4c3514;
      }

      .cls-17 {
        fill: #f46b0e;
      }

      .cls-18 {
        fill: #442d14;
      }

      .cls-19 {
        fill: #4782b0;
      }

      .cls-20 {
        fill: #1b1114;
      }

      .cls-21 {
        fill: #382009;
      }

      .cls-22 {
        fill: #4b220b;
      }

      .cls-23 {
        fill: #4886b7;
      }

      .cls-24 {
        fill: #402a12;
      }

      .cls-25 {
        fill: #4b3414;
      }

      .cls-26 {
        fill: #e95717;
      }

      .cls-27 {
        fill: #21140b;
      }
    </style>
  </defs>
  <path class="cls-25" d="M81.11,7.01c.36-.3.45-.6,1.12-.92,5.34-2.56,8.83,2.06,12.6,4.7.32.22,1.65,1.11,1.92,1.11.43,0,2.46-1.21,2.91-1.53,3.84-2.68,9.83-9.33,14.39-10.21,4.12-.79,5.62,1.14,7.47,4.17-.46-.07-.43.48-.25.67.27.28.73-.06.52.94l.42.08c-.33,1.35,1.05,1.33.87,2.51l.38.02c-.17.44.5.85.57,1.07.16.5-.18,1.12.71,1.16l-.28.14c-.16.19.48.57.65.75.25.26.35.89,1.08.8.09-.01.09-.24.2-.28.24-.09,1-.39,1.12-.42.26-.08.65.03.94-.14l-.2-.29c1.45-.53,2.88-1.16,4.35-1.68.35.35.92-.17,1.22-.24.16-.04.38.12.64.07.49-.1,1.34-.73,1.79-.89.74-.26,1.61-.27,2.41-.53,1.17-.38,2.45-.94,3.55-1.23,1.99-.52,4.84-.85,6.76,0,.54.24.54.66.47,1.2.66.03.85,1.29.86,1.84,0,.38-.32,1.53-.47,1.84-.03.06-.22.06-.24.12l.03.33c.08.04.2,0,.25.02v.14c-.44.72-.38,1.45-.42,2.25-.03.67-.27.55-.29.77v.27s.28.09.28.09v.27s-.27,0-.27,0v4.91s.24-.06.28.09c.07.27-.07.67,0,.94.04.16.27.08.28.09.23.27.69,1.01.88,1.22.15.16.79.25.79.83.76-.18.46.07.71.26.27.2,1.52,1.08,1.65,1.23.3.36.03.89,1.14.97l.02.68c.35-.15.94.17,1.09.46.08.16-.01.41.06.5.04.05.25,0,.34.08.43.36.37.84.76,1.25.12.12.53.19.65.43.3.61-.03.94.84,1.21l-.09.42h.41c-.14.55.3.55.38.83.06.23.03.79.08.85.04.04.27-.03.36.05.2.16.26.89.33,1.12.09.29.4.91.51,1.34.09.35.08.72.18,1.06.08.14.97.07.14.58,0,.36.18.03.28.49s.27.47.29.62c.13.97-.35,1.24-.3,1.84.04.46.26.31.29.44.22.95-.37,1.41-.29,1.94.05.29.37.1.3.7l-.58.85.28.21v.2c-.5.14-.19.61-.29,1.04l-.41.09c.15.47-.53,1.38.29,1.46-2.02,5.76-8.19,11.01-13.63,13.94-.52.28-1.11.54-1.67.72,1.15.45,2.37.69,3.54,1.09,4.3,1.47,9.11,3.93,12.45,6.98-.25-.04-.41,0-.2.28.34.43,1.13.71,1.06,1.39l.38.03.02.69h.56c-.21.92.31.6.43.79.21.36.05,1.03.13,1.36.04.15.27.08.28.09v-.28s.28,0,.28,0v.28s-.28,0-.28,0c.12.16.38,1.37.41,1.64.01.11.03,1.16.02,1.22-.02.13-.28.12-.35.24-.14.23.05.62-.35.56v.28s.27.14.27.14c-.64.07-.6.95-.88,1.23-.13.13-.81.44-1.01.6l-.64.84c-.26.16-.36.24-.7.42-.16-.3-.37-.11-.55-.03-.91.37-2.14,1.06-3.16.87l-.17.29c-.88-.37-1.64.07-2.5.14-3.01.23-7.26-1.05-10-2.22-.3-.13-.63-.55-.71-.58-1.04-.36-.96-.19-1.94-.83-.63-.41-.9-.21-1.6-.16-.02.09,0,.18,0,.28-.04.75.01,2.02-.14,2.71-.11.5-.7,2.19-.93,2.81-.22.59-.53,1.2-.74,1.74-.07.19-.19.82-.01,1.02-.04.03-.06.44-.15.59-1.69,2.74-3.98,5.46-6.67,7.39-.44.32-1.08.66-1.58.88v.39c.49.22,1.13.55,1.56.86,3.3,2.29,12.67,9.96,16.31,9.96h2.32c.06-.26-.09-.27-.23-.4-.66-.58-1.93-1.16-2.67-1.76-1.45-1.2-3.77-4.15-4.49-5.75-.37-.81-.83-2.74-.89-3.67-.07-1.1-.1-3.29.14-4.32.03-.11.23-.09.27-.2.38-1.36.86-2.6,1.99-3.6,7.3-6.44,19.41,1.06,22.57,8.31.08.19.08.51.16.73,1.26-.48,2.41-1.22,3.65-1.75,5.21-2.25,11.64-3.59,17.33-3.02,2.81.28,6.79,1.11,8.77,3.09-.47.36.2.5.29.66.09.14.06.35.14.5.06.12.26.12.27.18.1.41-.25.31-.28.44-.14.61.11,1.62-.15,2.32-.05.15-.3.13-.36.38-.07.28.1.55,0,.81-.11.3-.44.2-.58.35-.35.35-.42.97-.93,1.46-.24.23-.35.43-.38.45-.09.09-.42-.05-.52.04-.04.04-.04.29-.18.45-.27.31-.65.44-.88.63-.25.21-.06.36.19.29-5.02,3.84-10.95,5.67-17.12,6.88-.25-.6-.66-.06-.94-.02-.6.08-.46.11-.69.16-.83.2-3.07,0-3.55.5-.14.15-.1.39-.23.5-.11.09-.44.09-.47.13-.26.38.41.35.28.69h-.4c.13.61-.26.54-.29.57-.25.34.44.17.27.55-.58-.15-.34.31-.51.44-.1.08-.4.06-.46.14-.11.17.04.9,0,1.17l-.42.08c.18.9-.29.82-.66,1.31-.43.57-.57,1.17-.83,1.62-.09.16-.47.23-.57.42s.16.62.08.7c-.02.02-.27-.05-.38.03-.15.1-.24.73-.35.79-.14.08-.46-.03-.53.03-.02.02-.03.48-.1.66-.06.16-.24.16-.33.27s-.08.38-.16.44c-.1.07-.33-.02-.42.03-.21.11-.21.46-.81.27,0,.3.02.59-.03.89-.08.4-.74.54-.39.94-6.56,6.79-14.82,11-23.89,13.93-3.96,1.28-8,2.29-12.09,3.03l-.08.72c-.36-.06-.41,1.47-.43,1.89-.03.56.41.87-.27,1.12v.28s.26.08.26.08l.02.26c-.72-.02-.91.86-.56,1.41-1.79,2.03-3.92,2.5-6.67,2.66-6.68.41-13.91-1.26-19.68-4.6-.43.1-.87.07-1.3.11-.14-.23-.54-.16-.77-.14-4.86.44-9.71,1.11-14.6,1.26-.27,0-.56-.14-.48.28-.09,0-.19,0-.28,0l-.07-.14-.07.14c-.09,0-.19,0-.28,0,.06-.49-.15-.2-.39-.18-.84.05-1.66.01-2.49.04-.27,0-.56-.14-.48.28-.19,0-.37,0-.56,0h-15.86c-.14,0-.28,0-.42,0-.05,0,.04-.09-.28,0-.12.03-.56.19-.42.28h.28c-3.11,2.1-5.09,3.76-9.05,4.21-4.56.52-8.3-.81-11.94-3.34-1.33-.93-2.76-1.9-3.38-3.4-10.03-1.95-19.71-4.94-27.83-11.22.32-.92-.69-.82-1.22-1.17-.04-.02-.37-.38-.47-.48-1.01-1-1.26-1.33-1.96-2.6-.15-.27-1.45-1.14-1.63-1.55-.12-.26-.1-.76-.22-.9-.1-.12-.39-.09-.5-.2-.16-.17-.48-1.15-.6-1.4-.27-.53-.78-.62-.57-1.51l-.39-.02c-.1-.12.16-.63-.29-.55v-.28s.27-.14.27-.14c-.46.04-.32-.46-.43-.73-.05-.11-.22-.11-.26-.22-.15-.49-.18-1.09-.01-1.57h-.41c-.1-.11.05-1.02-.02-1.31-.41-1.73-.41-3.23,0-4.96.14-.6.11-1.23.28-1.96.07-.28-.03-.65,0-.95l.42-.08c-.05-.66-.14-.83.17-1.42.06-.12.25-.14.26-.19.1-.41-.71-.46-.04-.66-.04-.81.68-.82.48-1.78.84-.07.5-.76.7-1.31.05-.13.54-.47.42-.94h.55s.16-1.12.16-1.12h.55c0-.25,0-.5.06-.73.08-.28,2.01-2.75,2.38-3.16.81-.9,2-1.65,2.67-2.58.21-.29.07-.31-.19-.28,6.16-5.6,12.97-9.17,20.91-11.93h1.32c5.64-2.23,11.49-2.9,17.49-3.93,3.74-.64,7.48-.71,11.3-.84.27,0,.56.14.48-.28.09,0,.19,0,.28,0,2,.02,4.2.23,6.24.29.78.02,1.64.06,2.38-.13.16-.12.13-2.46.22-2.87.03-.11.25-.03.29-.3.02-.17.03-.68,0-.83s-.27-.08-.28-.09c-.02-.03.05-.3-.19-.31-8.53-1.76-17.19-4.14-24.37-9.1.65.05-.29-.37-.17-.67-.62-.17-2.93-2.13-3.16-2.6-.08-.16,0-.43-.06-.51l-.41-.09c.16-.85-.18-.5-.37-.66-.04-.03-.56-.87-.58-.92-.16-.46-.07-.95-.16-1.33-.03-.12-.25-.04-.29-.3-.04-.32-.04-1.25,0-1.56.03-.26.25-.17.29-.3.06-.2.08-1.23.15-1.3l.56.14c-.1-.37.4-.57.42-.66.04-.17-.05-.42.03-.57.08-.15,2.49-1.59,2.82-1.74.87-.36,1.62-.26,2.54-.25.05-.48.43-.55.89-.67.94-.24,4.05-.27,4.99-.04.12.03.08.52.72.13.16.55.46.09.93.2.26.06.25.34.37.36.41.09,1-.06,1.45,0,.28-1.07-.36-1.01-.76-1.55-.14-.19-.25-1.02-.64-.97-.22-.4-.05-.96-.14-1.31-.02-.06-.56-.77-.66-.99-.52-1.14-.47-2.46-.75-3.64-.02-.07-.47-.13-.28-.85.04-.13.26-.08.28-.1.22-.28-.25-.26-.28-.37-.12-.47.02-1.82,0-2.43l.29-1.15c.02-.13.24-.12.26-.22.14-.56-.06-1.5.14-2.18.07-.23.47-.15.54-.26.1-.17.09-1.39.16-1.71.21-.88,1.46-2.58,2.05-3.38.29-.39,1.08-1.75,1.35-2.03.11-.11.39-.08.5-.21.08-.1.03-.36.17-.46.15-.11.46-.02.54-.09.04-.03.18-.56.5-.9.05-.05.75-.6.78-.69.07-.22-.14-.2-.14-.21.11-.94,6.73-4.89,7.88-5.53s2.46-1.04,3.48-1.86c.54-.43,1.58-2.04,1.94-2.62.53-.88,1.04-2.15,1.58-3.05l.57.06c-.05-.45.3-.56.41-.72,1.28-1.99,2.44-4.43,4.32-5.96l.45-.95ZM122.65,14.03c-1.97-1.54-3.29-5.54-4.5-7.75-.36-.65-1.44-2.39-1.92-2.91-.84-.91-1.73-.54-2.52.23l.11.18c-.36.26-1.05.88-1.4.98-.58.17-.43-.1-.84.56-.66.11-.63.47-1.04.78-1.08.82-2.25,1.53-3.03,2.58-.4.1-.66.05-.56.56-.92.59-1.26,1.11-2.16,1.71-.53.35-1.1.87-1.63,1.24-.08-.3-.4.03-.53.11-.59.37-1.11.77-1.7,1.13-.07.04-1.54.55-.73.58-.22.11-.99.54-1.05.54-.09,0-.27-.14-.35-.12-2.73.54-3.92.29-6.2-1.13-.33-.2-.64-.79-1.23-.69-.31-.34-1.87-1.51-2.39-1.68-.11-.3-.59-.77-.84-.98l-.94-.99c-.14-.14-.52-.08-.6-.14-.09-.06-.12-.18-.59-.43-.21-.11-.04-.37-.74-.28-.87.11-.66.54-.94.82-2.69,2.66-4.48,6.28-6.37,9.48-.59,1-1.13,2.11-2.03,2.96-.26.25-.89.5-1.11.93-.6.19-1.12.64-1.68.98-.96.59-1.46.86-2.53,1.26-.99.37-2.06,1.06-3,1.78-.25.18-.17-.14-.37.33-.25.58-.5.37-1.03.72s-.76.9-.81.94c-.29.22-.56.14-1.1.72-.84.48-1.82,1.42-2.47,2.15-1.48,1.66-2.66,3.72-3.47,5.66-.2.48-.12.38-.23.89-.04.18-.1.4-.15.59-.92,3.62-.93,6.8.48,10.31.75,1.79,3.35,5.89,5.14,6.64.01.02-.03.13.04.24.05.09.41.17.4.45l.27-.13c.42.3.81.65,1.23.98.49.39.67.2,1.01.84.23.43,1.52,1.06,2.1,1.4,1.35.79,2.61,1.45,4.07,2.1,1.8.81,3.58,1.63,5.5,2.15.2.06.53.23.67-.04.05.02.09.11.14.14.32.19.18,0,.28,0s.19,0,.28,0c.03.09.12.19.14.28.11.46.27.47.28.52.16.66,0,1.21-.68,1.38-1.67.42-3.58-.32-5.21-.78-.68-.19-1.15-.33-1.82-.56.08-.39-.2-.27-.42-.34-1.43-.51-2.67-1.18-4.02-1.88-.13-.07-.66-.37-.76-.16-.62-.34-1.21-.77-1.82-1.12l-.8-.7c-1.25-.65-2.3-1.41-3.55-1.97-.58-.26-1.27-.61-1.82-.84l.1-.17c-3.23-1.24-7.03-2.78-10.54-2.06-.56.12-1.44.35-1.77.83-.37.15-.52.25-.84.42-.05.02-.22-.06-.38.04-.08.05-1.12,1.25-1.15,1.34-.12.33-.16.86-.16,1.22,0,.86.43,1.81.85,2.5.65,1.07,2.28,2.7,3.42,3.4.13.08.4.35.5.06,1.12.84,2.56,1.67,3.79,2.39,1.11.65,2.33,1.37,3.65,1.54.11.05.23.2.42.28,2.26,1.02,4.46,1.66,6.88,2.25.02,0,.1.25.24.25,2.14.25,4.52,1.31,6.61,1.55.41.05.36-.05.59-.11.84-.24.42-1.24,1.63-1.39,1.14-.14,2.92-.05,2.72,1.43-.4.2-.28.58-.43.97-.22.6-.85,1.83-.97,2.31-.14.56-.03,1.53-.15,2.05-.02.11-.26.04-.29.3-.06.49.07,1.11.01,1.62.09,0,.19,0,.28,0,.05,0,.1,0,.14,0-.08.45.23.24.49.27,7.04.94,13.73,1.83,20.62,3.66,1.08.29,3.36,1.33,4.33,1.11.04,0,.54-.49.66-.55,1.16-.58,2.28-.94,3.65-.56.76.53.75.58.56,1.4-.4-.08-.54.64-.66.71-.33.19-.92.4-1.28.65l.12.18c-.85.55-2.31,1.73-3.09,2.1-.59.29-.76.56-1.21,1.1-.63.74-1.35,1.58-1.59,2.55-.35.29-.69.45-1.12.56-1.39-.11-2.77.07-4.1.46-.47.14-2.11.82-2.32,1.26-.08.16-.08,1.21-.05,1.45,0,.05.36.83.39.87.12.21.45.37.6.56.35.46.57,1.24,1.27,1.15.19.52.21.2.47.44.41.37.89.76,1.21.96l.66.7c.51.3,1.04.47,1.58.7.1.04.25.07.42.14l-.1.17c1.83.92,3.58,1.53,5.58,1.93,1.56.31,2.66.46,4.26.26.8-.1,4.44-.88,4.86-1.39,1.78-.54,3.39-1.27,5-2.1l-.09-.14c.56-.26,1.12-.57,1.68-.84,2.72-1.33,5.49-3.06,8.14-4.21.89-.38,1.71-.85,2.53-1.4,1.06-.72,2.03-1.52,2.95-2.39,2.3-2.16,3.77-4.53,4.77-7.44.6-1.75,1.17-3.78,1.27-5.68.02-.34.04-.73-.07-1.06-.25-.42-6.05-1.09-7.09-1.4-.12-.49-.26-.45-.28-.52-.17-.62.21-.56.27-.71.06-.14-.03-.41,0-.45.04-.06,1.28-.26,1.48-.28,2.51-.23,6.74.6,9.19,1.33,5.43,1.6,12.36,7.08,18.1,3.86.32-.18.92-.81.98-.84.34-.19.3-.2.42-.28.04-.03.22.04.3-.01.61-.44.38-.71.55-1.28.03-.12.24-.1.27-.2.05-.21.05-1.41,0-1.63-.02-.1-.23-.1-.26-.21-.08-.24-.05-.53-.16-.76-.7-1.36-3.72-4.47-5.04-4.88-.11-.03-.32.04-.42,0-.49-.78-.94-.68-1.68-.98-.34-.81-.8-.57-1.45-.87-1.49-.69-2.88-1.39-4.45-1.94l.09-.16c-.94-.27-1.93-.68-2.87-.93-1.4-.36-4.7-.69-5.69-1.3-.03-.02-.36-.49-.37-.52-.07-.29.13-.96.31-1.12s.71-.07.81-.46v-.14c1.23-.41,2.49-1.02,3.65-1.54,1-.45,1.32-.68,2.22-1.25.4-.25,1.61-.66,1.71-1.14.09-.03.32.06.4-.02.07-.06,0-.2.02-.26.18-.51.57-.51,1.01-.85.72-.57,1.46-1.09,2.22-1.68,2.55-2,4.46-4.75,5.66-7.67.2-.48.91-2.43.93-2.85.07-1.26.18-2.52.14-3.79-.02-.53-.04-1.7-.14-2.15-.02-.1-.25-.09-.28-.19-.75-3.32-1.31-4.4-3.37-7.2-.56-.76-.7-1.37-1.68-1.96-.08-.34-.37-.59-.7-.7-.22-.37-.56-.9-1.04-.97l-.08.12c-.75-.64-1.55-1.15-2.25-1.82.14,0,.32.07.28-.14-.32.04-.62-.61-.74-.66-.17-.07-.34-.02-.38-.04-.46-.74-1.48-1.95-1.67-2.63-.21-.73-.02-1.6-.15-2.18-.03-.11-.25-.04-.29-.3-.05-.41-.05-1.71,0-2.12.03-.25.26-.07.29-.76.09-1.74.38-2.76.7-4.16.07-.33.17-1.38,0-1.73.1-.56.23-.59.28-1.4,0-.02.2-.14.14-.28-.26-.06-.47-.15-.75-.14-1.25.08-3.72.91-5.03,1.3-4.74,1.39-9.32,3.31-14,4.87-1.62,0-2.78.17-4.07-.84ZM146.5,10.52v-.28h-.14v.28h.14ZM87,85.03c-4.49-1.06-9.21-1.74-13.82-2.1-15.2-1.19-31.4.38-45.48,6.3l.09.15-5.05,2.53-3.37,2.1c-.66.24-4.75,3.23-5.05,3.79-.32.04-.72.51-.84.84-.24.08-1.55,1.3-1.68,1.54-.06.11-.11.22-.14.28-.59.22-.91.76-1.12,1.26-.62.17-.52.64-.73.82-.08.07-.22,0-.25.03-1.47.92-3.45,5.29-4.02,6.78-.61,1.58-.54,2.48-.89,4.07-.02.11-.26.04-.29.3-.08.59.08,1.34,0,1.96.02.07.68.28.82.33,2.61.77,6.11,1.3,8.84,1.82,19.06,3.6,38.78,5.34,58.2,4.81l1.61.29c.23.12.35.09.52.42h.19c.14.46.4.43.65.75,1.61,2.01,3.77,3.55,5.94,5,1.07.71,2.07,1.34,3.23,1.96.46.25.9.57,1.37.8s3.35,1.59,3.61,1.6c.28,0,.51-.13.61-.39.18-.52-.22-.44-.25-.56-.63-2.65,2.31-2.65,4.07-1.87-.05.22.54.74.56.8.11.54-.02,1.44.15,2.04.03.11.24.08.27.2.59,2.25,1.6,3.76,3.23,5.51,2.36,2.53,5.26,4.46,8.56,5.75s11.82,3.33,15.01,1.82c.19.22.44-.02.59-.14.73-.59.96-1.39.96-2.31,0-.81-.13-1.9-.39-2.49-.76-1.74-.85-3.95-2.34-5.67-.56-.42-1.04-1.53-1.64-1.73-.07-.45-.34-.67-.67-.98-.71-.67-1.61-1.25-2.42-1.68-.19-.4-.13-.16-.36-.33-.6-.46-1.72-1.22-2.45-1.49-.11-.45-.49-.67-.42-.91.02-.06.25-.06.28-.17.04-.15-.02-.33,0-.46,1.13-.2,1.38-.61,2.67-.21.52.16.21.41.98.21,1.18.56,2.19,1.41,3.37,1.96.18.5.25.27.61.58.26.22.12.23.51.4.09.04.19.1.28.14.15.34.23.38.48.65,1.4,1.46,2.76,2.92,3.73,4.82-.37.48.16.86.27,1.1.04.1-.02.28.05.4.06.09.43.21.4.59.31.23,6.58-1.34,7.45-1.57,2.02-.53,4.08-1.16,6-1.92v-.14c2.22-.36,7.54-3.17,9.68-4.35,1.47-.81,2.98-1.66,4.35-2.67l1.32-.87c1.19-.89,5.3-4.41,5.7-5.45.25.06.3-.11.42-.28.2.41.24.03.34-.07,2.26-2.24,5.05-7.31,6.1-10.14.18-.48.09-1.16.76-1.52.98-.53,3.65-.57,4.91-.78,2.87-.49,5.72-1.12,8.48-2.05l-.11-.17c.46-.16.94-.38,1.4-.56,1.15-.46,2.27-.98,3.37-1.54,1.74-.88,4.15-2.37,5.47-3.79.11.36.53-.21.6-.29.3-.37,1.12-1.6,1.22-1.92.25-.84.23-1.57-.5-2.11-3.86-2.85-11.07-1.86-15.43-.6l.09.16c-.75.22-1.64.56-2.39.84-2.74,1.02-4.72,2.56-7.16,3.65-1.27.57-2.62.85-3.93.28l.1-.18c-.96-.12-.79-1.18-.95-1.83-.03-.11-.25-.09-.27-.19-.21-.98-.36-1.93-.86-2.88s-2.65-3.67-3.64-4.04c-.49-.66-.39-.33-.7-.56-.98-.74-1.61-1.41-2.95-2.03-.27-.12-.48-.2-.42.2-.2-.09-.47-.18-.7-.28-1.68-.72-2.26-.86-4.07-.42l-.56-.14c-.01.09.01.19,0,.28-1.03.36-.66.33-1.26.98-.03.04-.42.18-.56.38-.44.61-.69,1.5-.85,2.19-.02.11-.25.08-.28.19-.21.89-.22,3.13,0,4.02.03.11.25.09.28.19.44,1.99,1.31,3.87,2.78,5.51.16.18,1.26,1.32,1.35,1.36.15.06.22.05.37.05.23.33.42.81.9.83l.08-.12c.85.57,1.61,1.04,2.53,1.54.44.25.6.56,1.12.7.15.54.19.85.08,1.42-.08.4-.43.57-.64.97-.76.24-1.6.78-2.67,1.12-.24.08-.55.24-.7.28-1.03-.06-1.99.18-3.02.15-.74-.02-1.57-.33-2.31-.15-.26-.07-.54-.27-.84-.28l-2.67-.7c-4.87-2.32-8.8-5.91-13.19-8.84-.54-.36-3.09-2.2-3.55-2.09-.14.01-.2.25-.23.26-1.23.55-2.45,1.39-3.67,2.02-3.27,1.68-7.21,3.63-10.65,4.86-3.95,1.41-7.43,1.97-11.58.98-.18-.04-.49-.29-.63,0-2.07-.58-4.53-1.67-6.45-2.67l-.94-.84c-1.06-.54-2.18-1.24-3.13-1.83-.65-1.06-2.78-2.54-3.25-3.84-.1-.28-.06-.58-.13-.83-.03-.12-.24-.1-.27-.2-.05-.21-.05-1.41,0-1.63.02-.1.22-.09.26-.21.13-.32.28-.94.57-1.22s.28.03.56-.49c.32-.6.54-.55,1.12-.84.97-.48,1.63-.62,2.67-.84.97-.2,1.94-.37,2.93-.45.13-.85.94-1.2,1.14-1.94.4-.11.78-.68,1.12-.98.24-.21.49-.33.7-.56-1.39-.42-2.81-.75-4.21-1.12-1.64-.44-3.42-1.07-5.05-1.4ZM76.06,129.79c.07-.39-.09-.4-.32-.59-.44-.36-1.11-.72-1.49-1.04-.95-.81-1.85-2-2.78-2.86-8.48-.21-17.01-.24-25.51-.84-7.76-.55-15.57-1.49-23.15-2.67-6.1-.95-12.13-2.15-18.17-3.37.19.47-.26.58-.28.66-.16.52.3.44.36.74.07.34-.07,1.05.06,1.45.02.06.56.79.65.99.45.99.82,2.16,1.21,3.14.02.06.77.62.89.79.2.27.57,1.37.65,1.46.1.11.39.09.5.2.15.15.09.5.21.64s.48.11.6.32c.09.16.02.42.1.53.03.04.25.01.38.12.93.81,1.32,1.56,2.53,2.15.4.67.86.99,1.54,1.26.2.39.93.8,1.4,1.12.6.41,1.16.77,1.81,1.1.07.04.27.45.44.02.34.18.7.42.98.56-.69-.03.21.39.33.44,11.98,5.99,26.06,7.61,39.31,8.4,4.61.28,9.82.62,14.46.42,7.58-.32,15.47-.66,22.88-1.68.39-.05.79.01,1.18-.01v-.47s-1.25-.87-1.25-.87c-.48-.67-1.27-1.19-1.78-1.79-.25-.29-.51-1.03-.89-1.08l.28-.28c-.68.04-.8-.92-1.2-1.25-.47-.39-2.49-.84-3.22-1.13-2.11-.84-4.26-1.8-6.27-2.86-.56-.29-1-.77-1.8-.94-.89-.6-1.8-1.14-2.71-1.71-.12-.08-.43-.42-.52-.11-.46-.31-.85-.62-1.4-.98ZM43.36,145.79c.12.37,1.01.68,1.17,1.08.09.07.21.03.24.04,1.1.74,1.92,1.19,3.23,1.54,2.3.62,4.62.63,6.74-.56.09,0,.19,0,.28,0,.72-.03.75-.36,1.17-.66.07-.05.68-.08.37-.46-.02-.03-.55-.12-.65-.13-2.09-.23-4.33-.25-6.44-.44s-4.02-.52-6.03-.7c-.12-.01-.1.21-.07.28Z"/>
  <path class="cls-17" d="M27.79,30.59c.79-.82,2.46-2.44,3.51-1.26.03.04.54.76.55.8.13.6-.1,1.32-.29,1.89-.16.47-.61,1.59-.84,2.1-.07.15-.52.57-.57.73-.32.97-.11,1.4.84,1.73.88.3,1.62.11,2.42-.31.28-.15.34-.06.28-.49.03-.06.1-.09.14-.14.11,0,.22-.12.28-.14.07-.02.19.01.28,0-.01.09,0,.19,0,.28-.06,2.01,1.88,1.61,3.37,1.68-.41.45-.77,1.03-1.26,1.4-.79.6-1.88,1.03-2.67,1.68-.13.05-.28.09-.42.14-.74.26-4.88,2.6-5.38,3.08-.15.14-.06.24-.09.29-.2.11-.33.16-.59.32-.16.1-.76.37-.79.4-.08.11,0,.31-.02.39-.12.03-.29-.03-.42,0-.03.13.03.3,0,.42-.06.02-.21-.03-.38.04-.11.05-1.44,1.84-1.49,1.95-.14.36.09,1.02-.38.95-.02-.02.05-.16-.09-.29-.43-.38-1.24-.66-1.73-.97,1.32.08,2.45-.74,2.1-2.14l-1.4-1.51c-.08-.21.09-.24-.28-.28-.17-.26-.43-.71-.61-.93-1.42-1.72-3.39-4.12-3.84-6.33-.13-.62.16-1.05-.33-1.5-.04-.44.25-.31.29-.46.05-.2.13-.87.38-1.02.39-.23.79-.1,1.17,0,.57.16.71.32,1.12.7.12.1.57.67.81.84,1.17.84,2.06,1.21,3.26.28.64-.5.45-.66.76-1.21.44-.8,1.63-2.4,2.33-3.14Z"/>
  <path class="cls-6" d="M29.05,26.38c.15.23.53.14.77.14,1.01.01,2.58-.07,3.48.45.55.32.13.26.99.56.62.21.77,1.38.66,1.94l.56-.28c.23.54-.26.7-.29.9-.03.22-.02,1.35.05,1.45.05.08.3-.08.24.24-.86.46-.38,1.47-.71,2.2-.19.42-1.01.49-.69,1.38-.39-.11-.25.25-.28.28-.05.05-.11.08-.14.14-.38.08-.58.52-.98.64-.96.28-1.91,0-2.53-.72v-.26c.38-.11.22-.34.33-.59.76-1.65,1.7-2.62,1.49-4.75-.04-.37-.14-1.13-.7-.77-1.05-1.17-2.72.44-3.51,1.26-.49-.39-.58.32-.7.45-.31.33-.71.66-.97,1.06-.49.72-.96,2.13-1.55,2.7-.48.46-1.33.5-1.95.33-.04-.01-.65-.34-.68-.37-.2-.22-.23-.47-.69-.77-.21-.13-.22-.29-.61-.18-.41-.38-.55-.54-1.12-.7-.2-.78-1.67-.03-1.83.24-.18.32-.16,1.13-.15,1.52.04,1.49.56,2.31,1.12,3.54.72,1.58,2.26,3.59,3.42,4.9.29.33.36.04.38.04.37.04.2.07.28.28.21.57.55.95.85,1.57.05.1.24.1.27.21.17.7-.13.61-.27.85-.05.09.05.33-.04.43-.04.04-.23,0-.33.08-.06.04-.07.2-.16.22-.51.12-1.25-.19-1.72.15-.62-.19-1.06-.9-1.54-1.4.74-.02-.13-.49-.23-.61-.39-.5-.17-.64-.9-.79-.42-1.32-2.06-2.83-2.8-4.17-.33-.59-.36-1.07-.58-1.61-.27-.67-.5-.45-.68-1.6-.04-.26.16-.56-.28-.48.1-1.55-.21-2.9.48-4.3l1.63-1.45s.05-.21.35-.27c2.23-.52,3.92.29,5.96.97.16-.73.91-1.38,1.4-1.93.2-.23.65-.86.84-1.05,1.12-1.09,2.53-1.76,4.08-2.07Z"/>
  <path class="cls-16" d="M34.52,35.78c1.42-.77,3.49-1.02,5.06-.64.34.08,1.59.6,1.78.81.17.18.11.49.19.7.05.12.24.11.26.21.05.19.05.73,0,.93-.02.1-.22.09-.26.21-.41,1.08-1.39,2.12-2.37,2.83-2.41,1.76-5.39,2.92-7.78,4.64-.52.37-.44.74-1.23.98-.85.26-2.03,1.89-2.39,2.81-.67.2-1.15.36-1.88.27-.24-.03-1.54-.62-1.6-.71-.29-.47.33-.88.52-1.22.08-.14.06-.35.15-.49.36-.54.96-.85,1.12-1.5.11-.04.24.02.36-.14.07-.1.04-.21.06-.29.81-.2.42-.34.59-.52.21-.22.44.13.81-.6,1.49-.83,2.89-1.87,4.53-2.53l.94-.84c.14-.05.3-.09.42-.14,1-.37,1.56-.81,2.51-1.34.13-.07.55-.06.15-.34.49-.38.85-.95,1.26-1.4l-.08-.28c-.71-.05-2.05.16-2.63-.27-.44-.33.06-1.15-.52-1.13Z"/>
  <path class="cls-24" d="M9.55,96.96c.26-.03.4-.01.19.28-.67.92-1.85,1.67-2.67,2.58-.37.41-2.3,2.88-2.38,3.16-.07.23-.06.48-.06.72h-.55s-.16,1.12-.16,1.12h-.55c.11.48-.38.82-.42.95-.19.55.14,1.24-.7,1.31.2.96-.52.96-.48,1.78-.67.19.14.24.04.66-.01.05-.2.07-.26.19-.31.6-.22.76-.17,1.42l-.42.08c-.02.3.07.67,0,.95-.17.73-.14,1.37-.28,1.96-.41,1.73-.41,3.23,0,4.96.07.29-.08,1.2.02,1.3h.41c-.17.49-.14,1.09.01,1.58.03.11.21.11.26.22.12.27-.03.77.43.73l-.28.14v.28c.46-.08.19.44.3.55l.39.02c-.21.88.3.98.57,1.51.13.25.45,1.23.6,1.4.11.11.4.08.5.2.12.14.11.65.22.9.18.41,1.48,1.28,1.63,1.55.7,1.27.95,1.6,1.96,2.6.1.09.44.46.47.48.53.35,1.54.25,1.22,1.17C4.32,129.79.23,124.09,0,117.58h.28s0-.21,0-.21l-.28-.07c0-.14,0-.28,0-.42h.28s0-.61,0-.61l-.28-.09c.02-1.16.05-1.48.28-2.48.14-.6,0-1.8.15-2.47.11-.5.75-1.93.97-2.59,1.48-4.49,4.59-8.43,8.15-11.68Z"/>
  <path class="cls-24" d="M176.39,111.41c-.54.11-1.1.28-1.65.38s-2.91.27-3.17.45c-.31.22-.41,1.17-.52,1.45-1.78,4.26-4.38,7.76-7.57,11.05-.35-.39.31-.53.39-.94.06-.29.03-.59.03-.89.6.18.61-.16.81-.27.09-.05.32.04.42-.03.09-.06.07-.33.16-.44s.26-.11.33-.27c.07-.19.08-.64.1-.66.07-.06.39.05.53-.03.11-.06.19-.69.35-.79.11-.08.36,0,.38-.03.08-.08-.18-.5-.08-.7s.47-.26.57-.42c.26-.46.4-1.05.83-1.62.37-.49.84-.41.66-1.31l.42-.08c.04-.27-.1-1,0-1.17.05-.08.35-.07.46-.14.17-.13-.07-.58.51-.44.17-.39-.52-.21-.27-.55.02-.03.41.04.29-.56h.4c.13-.35-.53-.32-.28-.71.03-.04.36-.05.47-.13.13-.11.09-.35.23-.5.48-.51,2.73-.3,3.55-.5.23-.06.1-.08.69-.16.28-.04.69-.57.94.02Z"/>
  <path class="cls-18" d="M150.15,22.03c.32.62.43.36.67.59.47.46.49.49,1.05.95,4.75,3.92,8.99,8.39,9.79,14.31h-.42c-.11-.46-.29-.13-.28-.49.82-.51-.07-.44-.14-.58-.1-.34-.09-.71-.18-1.06-.11-.43-.41-1.06-.51-1.34-.08-.23-.13-.96-.33-1.12-.09-.07-.32,0-.36-.05-.05-.06-.02-.61-.08-.85-.08-.28-.52-.28-.38-.81h-.41s.09-.43.09-.43c-.87-.27-.54-.6-.84-1.21-.12-.24-.53-.31-.65-.43-.39-.41-.33-.89-.76-1.25-.08-.07-.29-.03-.34-.08-.08-.09.02-.34-.06-.5-.15-.29-.74-.6-1.09-.46l-.02-.68c-1.11-.08-.84-.61-1.14-.97-.13-.15-1.37-1.03-1.65-1.23-.26-.19.05-.44-.71-.26,0-.57-.64-.66-.79-.83-.2-.21-.66-.95-.88-1.22h.42Z"/>
  <path class="cls-18" d="M140.33,79.56c0-.09-.02-.19,0-.28.7-.05.96-.25,1.6.16.98.64.9.46,1.94.83.08.03.41.45.71.58,2.74,1.17,6.99,2.45,10,2.22.87-.07,1.63-.5,2.5-.14l.17-.29c1.01.19,2.25-.5,3.16-.87.18-.07.39-.27.55.03-5.7,2.9-11.36,1.38-16.98-.91-1.17-.48-2.11-1.29-3.37-1.19-.02,0-.18-.16-.28-.14Z"/>
  <path class="cls-24" d="M60.48,27.64s.21,0,.14.21c-.03.09-.74.64-.78.69-.33.35-.46.87-.5.9-.09.07-.39-.02-.54.09-.14.1-.09.36-.17.46-.1.13-.39.09-.5.21-.27.28-1.06,1.63-1.35,2.03-.59.8-1.84,2.49-2.05,3.38-.07.31-.06,1.54-.16,1.71-.07.11-.47.03-.54.26-.21.68,0,1.63-.14,2.18-.02.1-.24.08-.26.22l-.29,1.15s-.14-.27-.14-.56c-.01-1.26.2-2.2.42-3.27.57-2.68,3.97-7.08,5.88-8.97.28-.28.56-.65.99-.67Z"/>
  <path class="cls-18" d="M161.52,70.02c1.5,1.37,2.27,2.36,3.1,4.24.04.1.55.95.56,1.01.18,1.34-.1,2.57-.71,3.63-.72,1.23-1.66,1.79-2.8,2.49l.64-.84c.2-.16.88-.47,1.01-.6.28-.28.23-1.16.88-1.23l-.28-.14v-.28c.4.05.22-.34.35-.56.07-.12.33-.1.35-.24.01-.06,0-1.11-.02-1.22-.03-.27-.29-1.48-.41-1.64h.28s0-.28,0-.28h-.28s0,.28,0,.28c0-.01-.25.06-.28-.09-.08-.33.08-1-.13-1.36-.11-.2-.63.13-.43-.79h-.56s-.02-.69-.02-.69l-.38-.03c.07-.68-.72-.95-1.06-1.39-.22-.28-.06-.32.2-.28Z"/>
  <path class="cls-18" d="M48.13,80.96c.18,0,.76.29,1.12.14-6,1.03-11.85,1.7-17.49,3.92h-1.32c4.67-1.62,9.36-2.84,14.27-3.62,1-.16,2.44-.47,3.41-.44Z"/>
  <path class="cls-24" d="M55.15,50.79c.4-.05.5.78.64.97.4.55,1.04.48.76,1.55-.44-.06-1.04.09-1.45,0-.11-.02-.11-.3-.37-.36-.47-.11-.77.35-.93-.2-.64.39-.6-.1-.72-.13-.94-.24-4.05-.21-4.99.04-.46.12-.84.19-.89.67-.92-.01-1.68-.12-2.54.25-.34.14-2.74,1.59-2.82,1.74-.08.16.01.4-.03.57-.02.09-.52.29-.42.66l-.56-.14c-.07.07-.09,1.1-.15,1.3-.04.13-.25.05-.29.3-.04.32-.04,1.25,0,1.56.03.26.26.18.29.3.09.38,0,.87.16,1.33.02.05.54.89.58.92.19.16.53-.19.37.66l.41.09c.07.07-.03.34.06.51.23.47,2.54,2.43,3.16,2.6-.12.3.82.72.17.67-2.55-1.76-4.58-3.48-5.34-6.49-.03-.12-.25-.06-.28-.31-.05-.39-.05-1.59,0-1.98.03-.25.25-.18.28-.31.32-1.25.58-1.86,1.66-2.7,2.75-2.12,6.32-2.88,9.79-2.68l4.42.85-.43-1.01c-.61-.24-.55-1.02-.69-1.24h.14Z"/>
  <path class="cls-18" d="M132.61,9.68c3.79-1.34,12.14-4.75,15.86-3.3.29.11,1.38.72,1.58.9.05.05.78,1.03.8,1.09.06.28.07,2.48,0,2.75-.03.11-.25.09-.27.19-.15.66.22.47-.28,1.03-.12-.1-.29-.09-.42-.14-.06-.02-.18.02-.25-.02l-.03-.33c.02-.05.21-.05.24-.12.15-.32.48-1.46.47-1.84,0-.55-.2-1.81-.86-1.84.07-.55.07-.97-.47-1.2-1.91-.85-4.76-.52-6.76,0-1.1.29-2.38.85-3.55,1.23-.79.26-1.67.27-2.41.53-.46.16-1.3.78-1.79.89-.26.05-.48-.11-.64-.07-.3.07-.87.59-1.22.24Z"/>
  <path class="cls-24" d="M196.88,95.55s.2,0,.28.08c.04.04.7.91.71.97.17.56.16,1.38.14,1.97-.05,1.12-.54,1.85-1.13,2.7-.91,1.32-2.06,2.26-3.37,3.26-.25.06-.44-.08-.19-.29.24-.2.61-.32.88-.63.14-.16.14-.42.18-.45.11-.09.43.05.52-.04.03-.02.14-.22.38-.45.51-.49.58-1.11.93-1.46.14-.15.47-.05.58-.35.1-.26-.06-.53,0-.81.06-.25.3-.23.36-.38.26-.71.01-1.71.15-2.32.03-.13.38-.03.28-.44-.01-.06-.21-.06-.27-.18-.08-.14-.05-.36-.14-.5-.09-.15-.76-.3-.29-.66Z"/>
  <path class="cls-24" d="M121.52,4.35c1.26,2.07,2.61,4.45,3.64,6.56.18.38.24,1.15.92,1.14.23,0,1.82-.55,2.18-.68l.2.29c-.29.17-.68.06-.94.14-.11.03-.88.33-1.12.42-.1.04-.11.27-.2.28-.73.09-.84-.54-1.08-.8-.17-.18-.81-.55-.65-.75l.28-.14c-.89-.04-.55-.66-.71-1.16-.07-.23-.75-.63-.57-1.07l-.38-.02c.17-1.18-1.2-1.16-.87-2.51l-.42-.08c.22-1-.24-.66-.52-.94-.19-.19-.22-.74.25-.67Z"/>
  <path class="cls-24" d="M161.66,37.88c.05.4.26.2.29.48.12.94.12,4.14,0,5.07-.03.26-.26.18-.29.3-.21.97-.07,1.18-.46,2.18-.18.45-.22.92-.38,1.37-.82-.08-.14-.99-.29-1.46l.41-.09c.1-.43-.21-.91.3-1.04v-.2s-.29-.21-.29-.21l.58-.85c.06-.6-.26-.41-.3-.7-.08-.53.51-1,.29-1.94-.03-.12-.25.03-.29-.44-.05-.61.43-.88.3-1.84-.02-.15-.19-.18-.29-.62h.42Z"/>
  <path class="cls-24" d="M150.29,12.35s0,.2,0,.28c-.22.12-.14.48-.14.7-.01,1.05-.37,1.98-.43,3.15-.06,1.29-.12,3.83.15,5.03.02.1.23.1.27.2.04.12-.02.27,0,.32h-.42s-.24.07-.28-.09c-.07-.27.08-.67,0-.94-.04-.15-.28-.08-.28-.09v-4.91h.27s0-.27,0-.27l-.27-.09v-.27c.01-.22.25-.1.28-.77.42.05.25-.27.29-.48.11-.6.18-1.15.13-1.77v-.14c.13.05.3.04.42.14Z"/>
  <path class="cls-18" d="M53.19,40.55c0,.29.14.52.14.56.02.62-.12,1.96,0,2.43.03.11.5.09.28.37-.01.02-.24-.04-.28.1-.19.71.26.77.28.85.28,1.18.24,2.5.75,3.64.1.22.64.92.66.99.08.34-.08.9.14,1.31h-.14c-.47-.71-1.12-2.02-1.4-2.91-.54-1.73-.77-4.87-.71-6.85,0-.27-.14-.56.28-.48Z"/>
  <path class="cls-18" d="M30.03,26.24l.07.14.07-.14c1.12-.02,3.17.19,4.12.83.2.13.13.4.28.54.06.05.25.02.32.09.74.7.51.62.77,1.53.04.13.25.06.28.31.04.34.05,1.95-.01,2.23-.03.1-.25.08-.27.19-.08.34-.01,1.29-.18,1.55-.06.09-.35.11-.46.31-.13.25-.08.66-.19.93-.1.23-.38.3-.44.75-.09.01-.21-.02-.28,0v-.14c-.32-.88.5-.95.69-1.38.33-.73-.15-1.74.71-2.2.05-.32-.19-.16-.24-.24-.07-.1-.08-1.23-.05-1.45.03-.21.52-.36.29-.9l-.56.28c.11-.56-.04-1.73-.66-1.94-.86-.3-.43-.24-.99-.56-.9-.51-2.47-.44-3.48-.45-.24,0-.62.09-.77-.14.39-.08.53-.12.98-.14Z"/>
  <path class="cls-21" d="M98.79,145.65c-5.26.46-10.52,1.15-15.86,1.4-.08-.42.21-.27.48-.28,4.9-.15,9.74-.83,14.6-1.26.23-.02.63-.08.77.14Z"/>
  <path class="cls-24" d="M14.32,36.48c.44-.08.24.22.28.48.19,1.15.41.93.68,1.6.22.54.25,1.02.58,1.61.75,1.34,2.38,2.85,2.8,4.17.72.15.5.29.9.79.1.12.96.59.23.61-.39-.41-.91-.73-1.12-1.4-.17-.04-.72-.64-.93-.89-1.35-1.65-3.35-4.7-3.7-6.55h.28c.01-.14,0-.28,0-.42Z"/>
  <path class="cls-24" d="M81.11,7.01l-.45.95c-1.88,1.54-3.04,3.98-4.32,5.96-.11.17-.46.28-.41.72l-.57-.06c1.6-2.62,3.44-5.62,5.75-7.58Z"/>
  <path class="cls-21" d="M70.17,76.05s.24-.06.28.09.03.66,0,.83c-.04.26-.26.18-.29.3-.09.41-.06,2.75-.22,2.87-.74.19-1.6.15-2.38.13-2.04-.05-4.24-.27-6.24-.29.22-.21.5-.14.77-.14,1.97-.04,3.89.16,5.83.14.23.29,1.7.14,1.8-.02.06-.5,0-1.02.02-1.52.03-.83.15-.88.27-1.36.08-.29-.02-.71.15-1.02Z"/>
  <path class="cls-21" d="M140.61,79.7c-.03.79.18,1.65,0,2.43-.32,1.33-.88,3.35-1.45,4.68-.17.41-.39.83-.66,1.03-.18-.2-.06-.83.01-1.02.21-.55.52-1.16.74-1.74.23-.62.82-2.31.93-2.81.16-.69.1-1.96.14-2.71.1-.02.27.14.28.14Z"/>
  <path class="cls-21" d="M61.04,79.98c.08.42-.21.27-.48.28-3.82.13-7.56.2-11.3.84-.36.15-.94-.14-1.12-.14,4.27-.62,8.58-1.01,12.91-.98Z"/>
  <path class="cls-21" d="M78.3,147.19c-.37,0-.75,0-1.12,0-.85,0-1.87-.12-2.67.14-2.29,0-4.59,0-6.88,0-.15-.23-.53-.14-.77-.14-.96-.01-1.92,0-2.88,0-.09,0-.19,0-.28,0-.28,0-.56,0-.84,0-.14,0-.28,0-.42,0h15.86Z"/>
  <path class="cls-16" d="M127.42,142.42c.27.13.27.2.29.48.1,1.21-.07,2.18-.29,3.21-.02.1-.23.09-.27.21-.08.23-.06.68-.19.84-.08.1-.34.1-.53.32-.35-.54-.16-1.42.56-1.41l-.02-.26-.26-.08v-.28c.68-.25.24-.57.27-1.12.02-.42.07-1.95.43-1.89Z"/>
  <path class="cls-21" d="M16.42,30.73l-1.63,1.45c-.69,1.4-.38,2.75-.48,4.3,0,.14.01.28,0,.42h-.28c-.19-1.01-.29-3.28.01-4.24.12-.4,1.43-1.66,1.82-1.86.21-.11.43-.04.55-.08Z"/>
  <path class="cls-14" d="M33.4,40.69l-.94.84c-1.64.65-3.04,1.7-4.53,2.53-.37.73-.61.38-.81.6-.17.18.22.33-.59.52-.03.08,0,.19-.06.29-.11.15-.25.1-.36.14-.17.65-.76.96-1.12,1.5-.09.14-.07.35-.15.49-.2.34-.82.74-.52,1.22.06.09,1.36.68,1.6.71.73.1,1.21-.06,1.88-.27.36-.92,1.53-2.54,2.39-2.81l-1.99,2.79c-.1.08-.3,0-.4.02-.03.07.07.2-.08.29-.72.42-2.66.17-3.33-.28-.04-.02-.37-.54-.51-.71.47.06.23-.59.38-.95.05-.11,1.37-1.9,1.49-1.95.17-.07.31-.02.38-.04.03-.11-.03-.29,0-.42.13-.03.3.03.42,0,.03-.08-.06-.28.02-.39.03-.04.62-.31.79-.4.27-.16.39-.21.59-.32.03-.05-.06-.15.09-.29.5-.48,4.65-2.82,5.38-3.08Z"/>
  <path class="cls-9" d="M34.52,35.78c.58-.02.08.8.52,1.13.59.43,1.92.22,2.63.27l.08.28c-1.48-.07-3.43.32-3.37-1.68h.14Z"/>
  <path class="cls-21" d="M78.87,147.19c-.08-.42.21-.27.48-.28.83-.03,1.66.01,2.49-.04.24-.02.45-.3.39.18-1.12.05-2.23.13-3.37.14Z"/>
  <path class="cls-1" d="M67.64,147.33c-.96,0-1.92.01-2.88,0-.24,0-.62.09-.77-.14.96,0,1.92-.01,2.88,0,.24,0,.62-.09.77.14Z"/>
  <path class="cls-9" d="M22.74,43.64l1.4,1.51c.35,1.41-.78,2.22-2.1,2.14-.24-.01-.47-.07-.7-.14.47-.34,1.22-.02,1.72-.15.09-.02.1-.18.16-.22.11-.07.3-.03.33-.08.08-.1-.01-.34.04-.43.14-.25.44-.16.27-.85-.03-.1-.21-.1-.27-.21-.3-.62-.64-1-.85-1.57Z"/>
  <path class="cls-1" d="M69.74,78.44c-.02.51.04,1.02-.02,1.52-.1.16-1.57.31-1.8.02.51,0,1.03,0,1.54,0,0-.35-.01-.71,0-1.06,0-.27-.14-.56.28-.48Z"/>
  <path class="cls-1" d="M77.18,147.19c-.8.26-1.82.14-2.67.14.8-.26,1.82-.14,2.67-.14Z"/>
  <path class="cls-25" d="M0,116.18l.28.09v.61s-.28,0-.28,0c0-.23,0-.47,0-.7Z"/>
  <path class="cls-1" d="M63.71,147.19c-.14.23-.71.23-.84,0,.28,0,.56,0,.84,0Z"/>
  <path class="cls-18" d="M150.15,13.33c0-.22-.08-.58.14-.7-.02.22.1.58-.14.7Z"/>
  <path class="cls-25" d="M0,117.3l.28.07v.21s-.28,0-.28,0c0-.09,0-.19,0-.28Z"/>
  <path class="cls-21" d="M62.03,147.19c-.06.12-.22.1-.28.14v-.14c.32-.09.23,0,.28,0Z"/>
  <path class="cls-1" d="M61.75,147.33c-.05.03-.09.11-.14.14h-.28c-.14-.09.3-.25.42-.28v.14Z"/>
  <path class="cls-21" d="M82.65,147.05s-.09,0-.14,0l.07-.14.07.14Z"/>
  <path class="cls-6" d="M30.03,26.24s.09,0,.14,0l-.07.14-.07-.14Z"/>
  <path class="cls-12" d="M112.4,4.91s.1.14.19.14c.12,0,1.55-1.33,1.88-1.5.27-.14.56-.23.85-.29.1.33.49.5.67.73.87,1.17,1.74,3.04,2.31,4.32.88,1.97,2.3,4.61,4.06,6,.01.01-.05.2.09.29.4.27,1.43.64,1.95.69,2.21.2,3.18-.33,5.12-.98,3.7-1.24,7.34-2.74,11.09-3.86.67-.2,4.96-1.42,5.19-1.2-.05.4.08.94,0,1.31-.02.1-.24.09-.27.2-.52,2-.51,4.14-1.14,5.99-.02,2.11.09,4.71,1.14,6.43.2.32,1.15,1.36,1.46,1.59.19.15.68.43.92.47.04,0,.1,0,.14,0,.7.67,1.5,1.19,2.25,1.82.46.39.64.68,1.12.84.05.08,0,.5.33.65.15.07.35.04.37.05.02.08-.02.19,0,.28.17.88.17.43.61,1.01,1.89,2.49,3.09,4.62,3.74,7.6.02.11.25.08.28.19.36,1.49.12,4.74,0,6.36-.06.02-.19-.03-.27,0v1.12c-.11,0-.23-.04-.28.1-.07.36-.05.86-.16,1.19-.31,1.02-1.56,3.12-2.25,4.09-1.4,1.96-3.83,4.31-5.79,5.79-.34.26-.6-.04-.79.61-.55.09-2.34,1.45-2.92,1.81-.27.17-.84.26-1.09.57l.08.14v.14c-1.16.52-2.42,1.13-3.65,1.54-.02,0-.13-.09-.36-.03-.63.18-1.86,1.32-1.45,1.98.05.07.34.06.44.15,1.63,1.46,3.16,1.13,5.18,1.59,3.63.84,6.46,2.4,9.79,3.75.21.5.09.13.55.36.4.2.67.46,1.14.62.24.38.25.48.77.7l.07-.14c.19.17.15-.1.42.42.02.04-.04.17.02.25.08.1.4.12.54.17.32.62.39.33.7.64,1.07,1.04,1.95,2.4,2.4,3.75.04.12.24.1.27.2.05.21.05,1.43,0,1.63-.02.1-.22.07-.27.2s.02.35-.03.5c-.08.21-.62.33-.54.8-3.15,1.48-4.65,2.01-8.28,1.05l-4.21-1.47c-1.31-.58-2.61-1.25-3.93-1.82-2.23-.97-3.91-1.39-6.31-1.82-1.74-.32-6.05-1.16-7.48-.01-.17.14-.14.31-.24.47-.06.09-.25.09-.28.2-.17.71.13.62.28.85.08.13.08.33.18.42.83.84,6.89,1.18,6.99,1.52-.19.76,0,2.12-.15,2.77-.19.78-.49,1.85-.7,2.66-.61,2.33-2.16,5.29-3.89,7.01-.12.12-.45.88-.59,1.02-.28.28-.46-.03-.56.49-.14.72-.1.23-.37.46-.67.56-1.52,1.16-2.01,1.78-.89.35-1.79.94-2.53,1.54-2.65,1.15-5.42,2.88-8.14,4.21-.08-.28-.42,0-.57.06-3.14,1.25-5.91,2.93-9.36,3.69-6.11,1.33-12.05-1.6-16.31-5.64-.27-.26-.44-.91-.57-1.22-.04-.1-.24-.1-.27-.21-.11-.46-.03-1.56.38-1.86.2-.14.67-.2.9-.3.93-.38,1.62-.55,2.71-.68s1.57.2,2.69-.4c1.04-.56,1.72-2.47,2.57-3.39.93-1.01,2.28-1.77,3.41-2.53.58-.39,1.33-.76,1.82-1.12,1.23-.91.74-2.27-.6-2.73-1.12-.38-2.36.03-3.38.5-.66.31-.61.8-1.72.67-7.83-2.54-16.02-3.99-24.22-4.76.06-.29-.08-1.41,0-1.54,0-.01.25.06.28-.09.13-.5.01-1.63.14-2.2.02-.1.24-.08.27-.2.1-.35.04-.94.16-1.33.05-.17.89-1.32.96-1.61.04-.18.04-.61,0-.79-.03-.11-.21-.1-.28-.2-.09-.13-.08-.34-.17-.43-.07-.07-.22-.01-.25-.03-.85-.65-1.67-.69-2.72-.55-.3.04-1.43.54-1.59.72s-.13.6-.19.65c-.26.23-5.7-1.08-6.47-1.28-3.59-.97-6.93-2.45-10.35-3.61-.42-.14-1-.11-1.21-.57l-.19.14c-1.23-.71-2.67-1.54-3.79-2.39-.49-.37-1.14-.81-1.4-1.26-.39-.67-.99-.96-1.4-1.51-.14-.18-1.08-1.86-1.11-1.97-.13-.45-.18-1.17-.15-1.64.04-.63.37-.68.42-1.19.43-.08.62-.59.93-.82,4.1-2.92,10.73.34,14.64,1.94,1.29.53,2.93,1.65,4.21,2.39.62.36,1.21.78,1.82,1.12,1.4.77,2.93,1.66,4.49,2.25l-.11.17c1.73.52,3.75,1.51,5.52,1.78.22.03.62.1.76-.13.25.01.6.03.84,0,.36.5,2.05-.56,2.1-.8.05-.27.04-.86-.04-1.12-.05-.16-.86-.6-1.08-.6-.09,0-.19,0-.28,0h-.28s-.09-.12-.14-.14c-1.37-.59-4.49-1.74-5.89-2.1-1.39-.85-2.95-1.43-4.35-2.25-.67-.39-1.32-1.05-2.1-1.26-.34-.64-.52-.45-1.01-.84-.42-.34-.81-.68-1.23-.98-.33-.24-.25-.37-.7-.56-.34-.47-.81-.93-1.12-1.4-.75-1.14-1.87-2.26-2.51-3.48-.17-.32-1.08-2.21-1.12-2.38-.21-.75-.02-.77-.43-1.44-.03-.05-.28-.99-.29-1.04-.29-2.23-.14-4.98.29-7,.07-.33.55-1.58.75-2.01.02-.04.69-.57-.05-.61,1.2-2.54,3.52-5.08,5.19-6.88.54-.58.82-.49,1.1-.72.05-.04.29-.59.81-.94s.78-.15,1.03-.72c1.03-.63,2.23-1.15,3.23-1.82.36.3.67-.19.82-.27,1.44-.75,2.94-1.31,4.27-2.27,2.86-2.05,4.53-6.7,6.48-9.63.68-1.03,1.52-1.99,2.33-2.96.47-.58.54-1.49,1.58-1s2.01,1.89,3.06,2.23c.52.17,2.07,1.34,2.39,1.68.53.58,2.98,1.95,3.79,2.18,1.09.31,2.15.27,3.23,0,.23-.06.5.02.42-.35.09-.02.26.12.35.12.06,0,.83-.43,1.05-.54,1.02-.51,2.01-1.18,2.95-1.82.53-.37,1.1-.89,1.63-1.24.89-.6,1.24-1.11,2.16-1.71.11-.07.4-.13.52-.32.06-.1.03-.22.05-.24.12-.03.31.03.42,0,.91-.28,2.21-1.86,3-2.47.45-.35.68-.09,1.07-.89.08-.17-.06-.34.42-.42ZM83.78,36.62c-.84-.56-1.04-.89-2.18-.98-.55-.05-2.34.09-2.71.45-.07.07,0,.23-.03.25-.12.04-.31-.06-.55.08-.22.12-.33.46-.43.62-.07.02-.21-.04-.32,0-.38.14-.44.75-.53,1.01-.04.12-.24.11-.26.21-.07.29-.04,1.38,0,1.73-.85.27.07.86.28,1.09.25.27.38.59.82.86,1.07.65,2.35.95,3.6.86l-.21-.28c1.46-.12,3.54-1.3,3.65-2.87.08-1.05.08-1.44-.42-2.29-.09-.16-.06-.42-.18-.56s-.43-.1-.53-.17ZM117.45,42.94c1.12-.14,1.85-1.24,2.26-2.13.07-.16.25-.08.28-.32s.04-1.04-.01-1.25c-.03-.1-.24-.08-.27-.2-.08-.28-.24-1.04-.46-1.27-.05-.06-1.12-.97-1.19-1.02-1.6-.99-4.4-.71-5.9.38-.93.68-1.02,1.04-1.31,2.04-.03.12-.24.1-.27.2-.04.19-.04.74,0,.93.02.1.24.08.27.2.25.93.03,1.16.96,1.86,1.49,1.13,3.42,1.44,5.21.9l.43-.34ZM77.7,44.25c-2.94-2.38-8.4-2.48-11.69-.78-1.17.6-1.77,1.43-2.16,2.58-.04.11-.24.11-.26.21-.05.2-.05.86,0,1.07.02.1.22.1.27.21,1.47,3.15,6.84,3.45,9.86,2.8,1.25-.27,3.68-1.26,4.46-2.3.15-.2.05-.55.42-.7v-1.8c-.32-.43-.44-.91-.89-1.27ZM131.02,45.09c-3.53-2.68-10.94-2.54-13.99.68-.21.22-.53.36-.61.69-.16.63-.15,1.51.06,2.12.03.09.2.08.26.21.2.44-.1.43.54,1.02,3.26,3.02,13.09,3.07,14.95-1.5.02-.05.21-.05.23-.14.05-.21.05-1.26,0-1.48,0-.04-.47-.54-.55-.63-.28-.32-.49-.66-.9-.96ZM90.37,44.62c-.76-.06-1.68-.18-2.42,0-.1.03-.11.21-.22.26-.2.09-.88.37-.97.47-.13.15-.1.39-.18.56-.05.1-.24.11-.27.21-.06.27-.06,1.63-.02,1.95.03.26.23.17.29.3.15.37-.28.59.42.32.5,1.13.63,1.35,1.54,2.25.8.78,1.78,1.62,2.81,2.25,3.85,2.35,8.84,2.25,13.1.95.31-.09.08-.24.09-.25.15-.22.53-.04.42-.42.44-.18,1.43-.72,1.82-.98.65-.43,1.88-1.99,2.2-2.71.21-.48.24-.71.33-1.22.18.11.4.35.42-.07.05-.79.16-2.19,0-2.92-.02-.1-.22-.09-.27-.21-.11-.27-.14-.85-.54-1.01-.11-.04-.26.02-.32,0-.23-.59-.27-.24-.7-.42-2.1-.89-3.13-.07-5.15.25-4.7.74-7.67.83-12.39.45Z"/>
  <path class="cls-10" d="M92.06,86.57c1.16.31,2.33.67,3.51.98v.56c-.35.31-.72.87-1.12.98,0,0,.02-.14-.07-.14-.68.37-.94,1.18-1.28,1.83-.75.19-1.54.18-2.31.34-.24.05-.49.01-.41.35-1.04.22-1.7.36-2.67.84-.43-.35-.89.29-1.09.41-.64.38-.72.12-1.01.99-.03.02-.19-.03-.3.02-.42.19-.42.65-.55,1-.04.1-.24.1-.27.21-.05.24-.05,1.67,0,1.91.02.1.23.1.26.21.38,1.1,1.01,2.12,1.82,2.96.11.11.26.54.43.16.43.46,1.26,1.05,1.82,1.4.4.65,3.18,2.2,4.07,2.67,1.92,1,4.38,2.08,6.45,2.67,3.97,1.12,7.18.85,11.09-.35l1.12-.64c3.44-1.23,7.38-3.18,10.65-4.86,1.21-.63,2.43-1.46,3.67-2.02.4.14.73.1,1.15.29.5.23,1.57,1.05,2.11,1.43.06.04.51.34.52.1,4.39,2.92,8.32,6.52,13.19,8.84.73.35,1.85.97,2.67.7.3.01.58.22.84.28,1.69.42,3.64.46,5.33,0,.15-.04.46-.2.7-.28.15.28.47.12.69.06.68-.21,1.67-.6,1.98-1.18.71-.23.34-.13.65-.54.09-.12.26-.13.33-.27.15-.32.18-1.16.01-1.48-.07-.19-.31-.06-.43-.09-.12-.44-.61-.79-1.12-.7-.91-.51-1.68-.97-2.53-1.54-.37-.25-.59-.27-.7-.7-.1-.39-.21-.47-.45-.8-.09-.12-.34-.09-.43-.17-1.82-1.73-2.63-3.77-3.2-6.08-.03-.11-.25-.09-.27-.19-.2-.86-.19-3.01,0-3.88.02-.1.24-.08.27-.2.36-1.35.34-1.08,1.02-2.14.11-.17.27-.28.26-.56.66-.24.48-.36.88-.59.67-.39,1.79-.46,2.55-.37l1.91.41c.23.1.5.19.7.28.49.23,2.95,1.51,3.09,1.82.33.77,1.11,1.04,1.69,1.61.25.25-.05.31.56.63.33.48.74.95,1.04,1.41.83,1.28,1.08,2.22,1.49,3.68.03.12.25.09.27.2.15.65-.18,1.16.43,1.76,1.24,1.22,3.14,1.13,4.66.49.21-.09.46-.02.38-.38,2.44-1.09,4.41-2.62,7.16-3.65.13.26.48.11.68.05,4.66-1.56,11.35-2.97,15.96-.63.72.36.67.63.95,1.24.03.06.22.06.24.12.11.4-.24.3-.28.45-.67,2.63-3.7,4.66-6.08,5.94l-.52.56c-1.1.56-2.22,1.09-3.37,1.54-.12-.17-.72-.04-.88.01-2.24.74-4.41,1.47-6.84,1.95-.7.14-1.42.21-2.11.35-.24.05-.49,0-.41.35-1.35.23-2.75.14-4.07.56-.44-.25-1.21.15-1.41.52-.12.22-.07.46-.15.63-1.18,2.68-2.52,5.72-4.28,8.24-.64.93-1.77,1.93-2.17,2.95s-4.51,4.56-5.7,5.45l-1.32.87c-.06-.29-.42.02-.53.1-.46.35-.91.7-1.48.89l-2.35,1.68c-2.14,1.18-7.46,3.99-9.68,4.35s-4.65,1.34-6.98,1.93c-2,.51-4.06.85-6.07,1.3-.04-.19-.06-.42-.15-.59-1-1.87-3.25-5.64-5.18-6.57-.03-.06.02-.19,0-.28l-.28.14c-.38-.17-.24-.18-.51-.4-.37-.31-.43-.08-.61-.58-.02-.06.05-.2-.02-.26-.61-.09-2.79-1.86-3.14-1.84-.14,0-.18.13-.2.14-.6-.29-1.4-.59-2.18-.57-.55.01-.94.2-1.46.31-.05.08,0,.18-.01.26-.08.01-.19,0-.28,0-.85.05-.06.44-.69.57-.14.34.18.23.23.31.09.14.09.69.5.91.17.09.33.01.38.04.09.52.2.23.59.43.19.1.33.17.53.27.02.06-.04.19.02.26.68.17,1.14.68,1.81,1,.36.17.59-.08.7.42.16.72.09.25.55.65.6.52,1.07,1.41,1.69,1.6.16.94.76,1.06,1.21,1.73.81,1.23,1.82,3.67,2.02,5.07.04.26-.18.57.28.49-.15,1.07.24,2.46,0,3.55-.02.11-.22.11-.28.2-.08.13-.08.34-.17.43-.03.03-.6.43-.64.44-.31.11-1.67.26-2.07.29-3.31.2-8.01-.7-11.16-1.75-.35-.12-.93-.67-1.4-.35-3.3-1.3-6.2-3.23-8.56-5.75.21-.04,0-.42-.06-.51-.16-.24-.8-.77-.99-1.04-.56-.79-1.15-2.02-1.49-2.97-.31-.87-.74-1.92-.96-2.74-.08-.29.02-.76-.15-1.06-.12-.22-.38-.16-.56-.24-1.76-.78-4.69-.79-4.07,1.87.03.12.44.04.25.56-.09.27-.33.4-.61.39-.26,0-3.13-1.36-3.61-1.6s-.91-.55-1.37-.8l-.8-.7c-.7-.25-1.31-.75-1.9-1.16-.06-.04-.51-.34-.52-.1-2.17-1.45-4.33-2.99-5.94-5-.25-.31-.51-.29-.65-.75-.03-.1.07-.32-.03-.4-.18-.16-1.59-.69-1.87-.72-1.04-.12-2.11.13-3.08.15-3.19.05-6.37-.07-9.54-.15-1.08-.03-2.16.03-3.24.01l-12.69-.85c-8-.53-15.93-1.75-23.86-2.81-.17-.19-.41-.23-.65-.27-1.67-.25-3.31-.55-4.97-.86-2.04-.38-4.15-.87-6.17-1.2-.22-.04-.57-.19-.71.08-.28-.07-.56-.2-.84-.28-.59-.17-1.19-.46-1.82-.42-.16-1.06.24-2.2.14-3.23.51.09.21-.59.28-.89.04-.18.75-2.64.84-2.76.71-1.04,1.13-2.28,1.84-3.54s1.85-2.27,2.37-3.48c.69-.19.8-.72,1.12-1.26.04-.06.08-.17.14-.28.43.34.8-.59,1.13-.9.43-.41.28.08.55-.64.72-.24.23-.16.45-.39.08-.08.31,0,.37-.05.09-.08-.01-.33.02-.4.3-.56,4.4-3.55,5.05-3.79.82-.3,1.72-.85,2.52-1.34.25-.16.85-.43.85-.77l5.05-2.53c1.75-.52,3.45-1.28,5.19-1.82,18.58-5.81,40.26-6.02,59.08-.98ZM63.57,109.87c-.39.18-.91.46-1.26.7-.08-.26-.39-.05-.51.05s-1.08,1.16-1.12,1.25c-.19.39-.09.91-.19,1.26-.04.14-.25-.02-.28.44-.06.76.25.6.29.74.18.65.15,1.14.56,1.77.11.17.36.14.49.25.19.16.45.77.79.4.05.04.09.1.14.14.01.01-.05.17.04.25.87.8,3.64.69,4.74.31.38-.13.75-.44,1.04-.65.09-.07.29-.02.34-.07.09-.08,0-.3.03-.4.07-.02.21.03.32,0,.36-.13.42-.74.53-1.01.29-.69.13-.65.27-1.27.02-.09.45-.08.27-.7-.03-.11-.25-.09-.28-.19-.13-.6-.07-.49-.27-.99-.22-.54.01-.89-.85-.88-.4-.57-.44-.66-1.12-.98.1-.15-.49-.54-.53-.55-.93-.28-2.55-.27-3.4.13Z"/>
  <path class="cls-2" d="M55.15,125.16c2.28-.04,4.8.2,7.08.29h8.95c1.49,1.55,3.06,3.17,4.87,4.34.56.36.95.67,1.4.98.96.65,1.94,1.25,2.95,1.82,3.56,2.04,7.31,3.82,11.26,5.06.96,1.48,2.02,2.95,3.42,4.19.25.22.52.56.56.59.22.15.68.19.9.41-.07.19-.73.24-.93.26-.66.07-1.35.09-2.02.16-.01-.3.33-.32-.06-.43-2.61-.68-5.32-1.08-7.94-1.75-9.63-2.45-19.38-6.19-26.75-12.89-.39-.36-2.43-2.65-2.61-2.72-.38-.14-1.15.21-1.09-.32Z"/>
  <path class="cls-2" d="M20.07,121.65s-.12.14-.32.13c-.36-.02-2.33-.57-2.48-.42-.25.57.25.87.27.94,2.16,7.75,7.88,13.51,14.92,17.86l.67.7c-3.94-.51-10.82-3.36-14.45-5.19-.28-.14-.65-.38-.98-.56-.67-.36-1.64-.84-2.25-1.26-.5-.36-.49-.62-1.4-.98-.28-.54-.98-.99-1.54-1.26-.32-.53-.9-.86-1.3-1.26-2.64-2.64-4.8-5.85-5.72-9.3-.03-.12-.24-.09-.27-.2-.14-.5-.05-1.31-.14-1.77-.03-.15-.43,0-.28-.37l15.29,2.95Z"/>
  <path class="cls-27" d="M12.49,131.61c-1.21-.59-1.6-1.33-2.53-2.15-.13-.11-.35-.08-.38-.12-.08-.11,0-.37-.1-.53-.12-.21-.49-.19-.6-.32-.11-.14-.06-.49-.21-.64-.11-.11-.4-.09-.5-.2-.08-.09-.45-1.19-.65-1.46-.12-.16-.87-.73-.89-.79-.39-.99-.76-2.15-1.21-3.14-.09-.2-.63-.93-.65-.99-.13-.4,0-1.11-.06-1.45-.06-.3-.52-.22-.36-.74.02-.08.47-.18.28-.66,6.04,1.22,12.08,2.42,18.17,3.37,7.59,1.18,15.39,2.11,23.15,2.67,8.49.6,17.02.63,25.51.84.93.86,1.83,2.04,2.78,2.86.38.32,1.05.68,1.49,1.04.23.19.39.2.32.59-1.81-1.18-3.38-2.79-4.87-4.34h-8.95c-2.28-.09-4.8-.33-7.08-.29-.14,0-.28,0-.42,0-1.98-.12-3.98-.16-5.96-.28-9.59-.6-18.79-2.12-28.28-3.23-.14-.02-.28.01-.42,0l-15.29-2.95c-.15.37.25.22.28.37.1.46,0,1.28.14,1.77.03.11.24.08.27.2.92,3.46,3.08,6.66,5.72,9.3.4.4.98.72,1.3,1.26.56.27,1.26.72,1.54,1.26.92.37.9.63,1.4.98v.14c-.47-.32-1.2-.73-1.4-1.12-.68-.27-1.15-.6-1.54-1.26Z"/>
  <path class="cls-27" d="M80.69,132.6c.8.17,1.24.64,1.8.94,2.01,1.06,4.16,2.01,6.27,2.86.73.29,2.75.75,3.22,1.13.4.33.52,1.29,1.2,1.25l-.28.28c.38.05.65.79.89,1.08.51.6,1.31,1.12,1.78,1.79l1.26.87v.47c-.39.02-.8-.04-1.19.01-7.4,1.02-15.3,1.35-22.88,1.68-4.65.2-9.85-.15-14.46-.42-13.26-.79-27.33-2.4-39.31-8.4-.12-.06-1.02-.48-.33-.44,3.63,1.83,10.51,4.68,14.45,5.19.09.01.2-.02.28,0,1.52.55,3.18.82,4.77,1.12.13.02.29-.02.42,0,8.34,1.56,16.5,2.35,24.98,2.53.19,0,.37,0,.56,0,8.86.16,17.52-.19,26.38-.98.09,0,.19,0,.28,0,.79-.07,1.6-.2,2.39-.28.14-.01.28.01.42,0,.67-.07,1.35-.09,2.02-.16.19-.02.85-.08.93-.26-.22-.22-.68-.26-.9-.41-.04-.03-.31-.37-.56-.59-1.4-1.24-2.46-2.71-3.42-4.19-3.95-1.23-7.7-3.02-11.26-5.06.09.01.2-.02.28,0Z"/>
  <path class="cls-10" d="M45.19,146.07c.09,0,.19,0,.28,0,1.26.29,2.7.47,4,.56.34.02.92.1,1.19-.14.09,0,.19,0,.28,0-.08.43.22.27.48.28,1.13.06,2.23.17,3.3.14.37-.01.87-.11,1.12.21l-.84.77c-.09,0-.19,0-.28,0-1.04.02-2.46.84-3.72.84l-3.01-.28c-1.31-.35-2.13-.8-3.23-1.54.81-.01-.82-.64-.7-.84.37,0,.75,0,1.12,0Z"/>
  <path class="cls-22" d="M9.55,102.57c-.07.21-.11.37-.24.55-1.31,1.79-2.39,3.6-3.12,5.62-.45,1.25-.83,2.14-1.12,3.51-.24,1.11-.6,2.23-.36,3.38l2.18.41c.28.08.56.21.84.28,2.15.55,4.68,1.01,6.88,1.4,1.81.32,3.65.65,5.47.84,7.92,1.54,15.97,2.29,24,3.09l14.1.85c3.61-.03,7.21.19,10.82.14,1.61-.02,3.33-.55,4.83.27l-1.61-.29c-19.41.53-39.14-1.21-58.2-4.81-2.73-.52-6.24-1.05-8.84-1.82-.15-.04-.8-.26-.82-.33.08-.62-.08-1.37,0-1.96.03-.26.26-.18.29-.3.35-1.59.29-2.48.89-4.07.57-1.49,2.55-5.86,4.02-6.78Z"/>
  <path class="cls-19" d="M87,85.03c1.63.34,3.42.96,5.05,1.4v.14c-18.82-5.04-40.5-4.82-59.08.98.1-.29.36-.25.59-.33,16.1-5.31,36.9-5.61,53.44-2.2Z"/>
  <path class="cls-22" d="M87,85.03c-16.54-3.41-37.34-3.11-53.44,2.2-.22.07-.49.04-.59.33-1.74.54-3.44,1.3-5.19,1.82l-.09-.15c14.08-5.91,30.28-7.49,45.48-6.3,4.61.36,9.33,1.04,13.82,2.1Z"/>
  <path class="cls-8" d="M146.36,9.12c-.05.81-.18.84-.28,1.4-.13.68-.56,1.33-.67,2.07-.07.52.04,1.05-.02,1.52-.07.55-.39,1.46-.43,2.31-.06,1.25-.11,3.06,0,4.28s1.17,3.21,2.25,3.71c.04.06-.01.21.14.35.21.2.67.09.57.49-.25-.04-.73-.32-.92-.47-.31-.24-1.26-1.27-1.46-1.59-1.04-1.72-1.16-4.32-1.14-6.43.63-1.85.63-3.99,1.14-5.99.03-.12.24-.1.27-.2.09-.37-.05-.91,0-1.31-.23-.22-4.52,1-5.19,1.2-3.74,1.12-7.38,2.62-11.09,3.86-.09,0-.19,0-.28,0,3.36-1.33,6.79-2.65,10.25-3.72,1.44-.45,3.14-.96,4.6-1.29.69-.16,1.62-.46,2.27-.18Z"/>
  <path class="cls-8" d="M74.52,78.58c-.08.13.06,1.26,0,1.54,8.21.78,16.39,2.22,24.22,4.76,1.1.13,1.06-.37,1.72-.67,1.02-.47,2.27-.89,3.38-.5,1.34.46,1.84,1.82.6,2.73-.49.36-1.24.73-1.82,1.12-1.13.75-2.48,1.52-3.41,2.53-.85.92-1.53,2.84-2.57,3.39-1.12.6-1.6.27-2.69.4s-1.78.3-2.71.68c-.23.1-.71.16-.9.3-.41.3-.48,1.4-.38,1.86.02.1.23.11.27.21.13.31.3.97.57,1.22,4.25,4.05,10.19,6.98,16.31,5.64,3.45-.75,6.23-2.43,9.36-3.69.15-.06.49-.34.57-.06-.56.27-1.12.58-1.68.84-.74.35-1.5.71-2.25,1.05-.79.35-2.27.72-2.66,1.2-3.15.95-5.81,1.62-9.12.98-1.91-.37-3.69-1.21-5.47-1.96-.18-.07-.32-.1-.42-.14-.62-.6-1.5-.92-2.25-1.4-.32-.21-.8-.6-1.21-.96-.26-.24-.28.08-.47-.44-.18-.48-.12-.15-.37-.33-.42-.32-1.57-2.02-1.6-2.54-.09-1.24.12-1.38,1.21-1.88,1.78-.82,3.34-.57,4.96-1,.43-.12.78-.27,1.12-.56.73-.62,1.31-2.2,2.02-2.76.12-.1.35-.03.37-.05.02-.02-.04-.22.01-.3.12-.18.38-.24.41-.54.78-.38,2.24-1.56,3.09-2.1.4-.26,1.65-.86,1.82-1.23.04-.1,0-.23,0-.31.19-.82.2-.87-.56-1.4-1.36-.95-2.39-.21-3.65.42-.27.14-.62.43-.84.5-.63.2-3.47-.9-4.35-1.13-7.23-1.9-13.67-2.5-20.91-3.72-.04,0-.09,0-.14,0,.04-.52.06-1.18.14-1.68h.28Z"/>
  <path class="cls-13" d="M58.24,37.74c-.15.43-.19,1.01-.28,1.47-.43,2.31-.43,5.07.14,7.51.06.26.21.58.3.87.64,2,2.01,4.18,3.46,5.86.16.18.35.36.59.43.31.47.78.93,1.12,1.4.45.19.37.32.7.56l-.27.13c.01-.28-.34-.36-.4-.45-.07-.11-.03-.23-.04-.24-1.79-.75-4.39-4.85-5.14-6.64-1.41-3.51-1.4-6.68-.48-10.31.05-.19.11-.41.15-.59h.14Z"/>
  <path class="cls-13" d="M136.54,74.79c2.16.38,4.23,1.05,6.31,1.68,1.32.57,2.62,1.24,3.93,1.82,2.86,1.27,5.3,2.46,8.62,2.09.98-.11,1.89-.66,2.89-.69-5.73,3.21-12.67-2.26-18.1-3.86-2.45-.72-6.69-1.55-9.19-1.33-.19.02-1.43.22-1.48.28-.03.05.05.32,0,.45-.06.16-.44.1-.27.71.02.07.16.03.28.52,1.03.31,6.84.98,7.09,1.4.11.33.09.72.07,1.06-.1,1.89-.67,3.93-1.27,5.68h-.28c.5-1.46.51-2.61.84-4.11.03-.11.26-.04.29-.3.08-.59-.08-1.34-.01-1.95l.28-.23-7.01-1.27c-.04-.09.01-.2,0-.27-.48-.14-.68-.13-.67-.77s.29-.64.67-.91c.01,0-.07-.19.1-.28.2-.1,1.76-.29,2.07-.3,1.43,0,3.42.32,4.84.57Z"/>
  <path class="cls-22" d="M149.73,88.96c-.18.04-.39.08-.56.14-.07.49-.63.26-.84.84-.07.02-.41.12-.42.14-.03.06.05.31,0,.45-.08.18-.43.3-.54.51-.39.72-.38,1.3-.58,2.03-.03.12-.25.09-.27.2-.06.26-.06,2.92,0,3.17.02.1.24.08.27.2.52,1.85.63,2.74,1.7,4.42.71,1.11,1.88,2.02,2.51,2.92.09,0,.19,0,.28,0,.11.43.33.45.7.7l-.08.12c-.48-.02-.67-.5-.9-.83-.15,0-.22.01-.37-.05-.09-.04-1.18-1.18-1.35-1.36-1.46-1.64-2.33-3.52-2.78-5.51-.02-.11-.25-.08-.28-.19-.22-.89-.21-3.13,0-4.02.03-.11.25-.09.28-.19.15-.68.41-1.58.85-2.19.14-.2.53-.35.56-.38.61-.65.24-.63,1.26-.98.01-.09-.01-.19,0-.28l.56.14Z"/>
  <path class="cls-22" d="M43.36,145.79c-.02-.07-.05-.29.07-.28,2.01.18,4.03.52,6.03.7,2.11.19,4.35.21,6.44.44.1.01.63.1.65.13.31.38-.3.42-.37.46-.42.3-.46.63-1.17.66l.84-.77c-.25-.32-.75-.22-1.12-.21-1.26-.14-2.53-.3-3.79-.42-.09,0-.19,0-.28,0-1.72-.17-3.46-.39-5.19-.42-.09,0-.19,0-.28,0-.53-.3-1.23-.29-1.82-.28Z"/>
  <path class="cls-20" d="M100.34,84.61v.14c-.12.06-.62.55-.66.55-.97.22-3.25-.82-4.33-1.11-6.89-1.83-13.58-2.72-20.62-3.66-.26-.03-.57.18-.49-.27,7.24,1.22,13.68,1.82,20.91,3.72.88.23,3.73,1.33,4.35,1.13.22-.07.57-.37.84-.5Z"/>
  <path class="cls-8" d="M113.81,3.79c1.03-.73,1.53-1.22,2.47.05,2.18,2.92,3.22,7.51,5.71,10.02.03.03.55.28.66.32v.14c-.06-.03-.2.02-.28,0-1.75-1.39-3.18-4.03-4.06-6-.57-1.28-1.44-3.15-2.31-4.32-.18-.24-.57-.41-.67-.73-.29.06-.58.15-.85.29-.33.18-1.76,1.5-1.88,1.5-.09,0-.17-.15-.19-.14v-.14c.35-.11,1.04-.73,1.4-.98Z"/>
  <path class="cls-22" d="M112.68,128.39c.01-.08-.04-.18.01-.26.51-.11.91-.3,1.46-.31.78-.02,1.58.28,2.18.57-.77.2-.46-.05-.98-.21-1.29-.4-1.54.01-2.67.21-.02.14.04.31,0,.46-.03.12-.26.11-.28.17-.07.24.31.46.42.91.72.27,1.85,1.03,2.45,1.49.23.18.17-.07.36.33.81.43,1.71,1.01,2.42,1.68.33.31.6.53.67.98.6.2,1.07,1.31,1.64,1.73,1.49,1.72,1.57,3.93,2.34,5.67.26.59.39,1.69.39,2.49,0,.92-.24,1.72-.96,2.31-.15.12-.4.37-.59.14.07-.03.74-.52.77-.56.31-1.01.51-2.24.37-3.3-.01-.1-.21-.4-.29-.9-.42-2.55-1.36-4.37-2.89-6.36-.29-.37-.22-.63-.75-.79-.02-.13.02-.29,0-.42-.65-.22-.72-.65-1.26-1.16-.13-.12-.33-.08-.39-.14-.12-.12.03-.57-.6-.52-.11-.5-.34-.25-.7-.42-.1-.12-.09-.31-.14-.42-.55-.29-1.12-.57-1.68-.84-.02-.06.05-.18-.02-.26-.05-.05-.93-.37-1.1-.45-.01-.09.02-.2,0-.28-.15-.06-.44.09-.54-.23-.09-.26-.09-1.11.12-1.31.09,0,.2.01.28,0Z"/>
  <path class="cls-8" d="M139.63,61.18v.14c-1.5.08-1.83,1.89-.43,2.46,1.57.63,4.01.78,5.76,1.26.79.21,1.61.5,2.38.77,1.56.55,2.96,1.25,4.45,1.94.64.3,1.11.06,1.45.87.74.3,1.2.2,1.68.98.1.04.31-.03.42,0-.05.23.23.39.42.56l-.07.14c-.53-.22-.53-.31-.77-.7-.46-.16-.73-.42-1.14-.62-.45-.23-.33.14-.55-.36-3.33-1.35-6.17-2.91-9.79-3.75-2.03-.47-3.55-.13-5.18-1.59-.1-.09-.39-.08-.44-.15-.41-.65.82-1.8,1.45-1.98.22-.06.34.04.36.03Z"/>
  <path class="cls-20" d="M64.27,29.04c-1.67,1.8-3.99,4.34-5.19,6.88-.23.48-.69,1.38-.84,1.82h-.14c.11-.51.03-.41.23-.89.81-1.94,1.99-4,3.47-5.66.66-.74,1.63-1.68,2.47-2.15Z"/>
  <path class="cls-11" d="M75.36,71.7c.1.05.56.34.57.37-.05.37.07.87-.01,1.21-.02.09-.21.1-.23.14-.64,1.56-1.15,3.34-1.45,5.15-.08.5-.1,1.16-.14,1.68-.09,0-.19,0-.28,0,.06-.51-.08-1.13-.01-1.62.03-.26.26-.18.29-.3.11-.52.01-1.49.15-2.05.12-.48.75-1.71.97-2.31.14-.39.02-.77.43-.97.2-1.48-1.58-1.56-2.72-1.43-1.21.14-.79,1.14-1.63,1.39.19-1.83,2.69-2.04,4.07-1.26Z"/>
  <path class="cls-8" d="M46.87,55.84c4.21-1.67,8.3-.21,12.21,1.4.55.23,1.24.58,1.82.84l.14.28c-3.91-1.6-10.54-4.86-14.64-1.94-.31.22-.51.73-.93.82-.09.02-.19-.01-.28,0,.24-.33.74-.56.84-.98.32-.17.47-.27.84-.42Z"/>
  <path class="cls-20" d="M153.8,30.59c2.06,2.8,2.62,3.88,3.37,7.2.02.1.25.09.28.19.1.45.13,1.62.14,2.15h-.14l-.28-.14c-.08-1.27-.34-3.1-.75-4.16-.51-1.3-1.12-2.7-1.87-3.94-.22-.35-.73-.71-.74-1.16v-.14Z"/>
  <path class="cls-22" d="M181.44,107.06l.11.17c-2.76.92-5.61,1.56-8.48,2.05-1.26.21-3.93.25-4.91.78-.67.36-.58,1.04-.76,1.52-1.05,2.83-3.84,7.9-6.1,10.14-.1.1-.14.48-.34.07,2.91-3.88,4.51-6.44,6.19-10.98.04-.11.41-.21.29-.65.44-.04.7-.31,1.1-.44,1.32-.42,2.72-.33,4.07-.56.84-.14,1.69-.4,2.53-.56,2.15-.42,4.24-.82,6.31-1.54Z"/>
  <path class="cls-20" d="M145.38,16.42c-.04.69-.26.52-.29.76-.05.41-.05,1.71,0,2.12.03.26.26.18.29.3.14.58-.05,1.46.15,2.18.2.68,1.22,1.89,1.67,2.63.05.02.21-.03.38.04.12.05.42.7.74.66.04.21-.14.14-.28.14-.04,0-.1,0-.14,0,.1-.4-.35-.29-.57-.49-.15-.14-.1-.29-.14-.35-1.08-.5-2.15-2.54-2.25-3.71s-.05-3.03,0-4.28h.42Z"/>
  <path class="cls-22" d="M177.65,96.4l-.09-.16c4.37-1.26,11.57-2.25,15.43.6.73.54.75,1.27.5,2.11-.1.32-.92,1.55-1.22,1.92-.06.08-.49.65-.6.29.54-.59,1.5-1.96,1.54-2.74s0-1.05-.6-1.51c-3.34-2.59-11.12-1.64-14.98-.52Z"/>
  <path class="cls-19" d="M11.65,100.46c-.32.55-.43,1.07-1.12,1.26-.52,1.21-1.68,2.25-2.37,3.48s-1.13,2.5-1.84,3.54h-.14c.74-2.02,1.81-3.83,3.12-5.62.13-.18.17-.34.24-.55.03-.02.17.04.25-.03.21-.18.11-.64.73-.82.22-.51.54-1.04,1.12-1.26Z"/>
  <path class="cls-22" d="M154.5,89.66c-.06-.4.15-.33.42-.2,1.34.62,1.97,1.29,2.95,2.03.31.23.21-.09.7.56.99.38,3.12,3.05,3.64,4.04s.64,1.9.86,2.88c.02.1.25.08.27.19.16.65,0,1.71.95,1.83l-.1.18c-.21-.09-.43-.13-.62-.3-.03-.03-.48-.62-.5-.65-.05-.1.03-.34-.01-.49-.03-.12-.25-.09-.27-.2-.1-.43,0-1.11-.15-1.62-.19-.64-1.33-2.75-1.75-3.33-.36-.5-.56-.59-1.04-.85-.42-.62-.81-1.08-1.26-1.68-.32-.12-.67-.08-.7-.56h-.28c-.13-.31-2.6-1.59-3.09-1.82Z"/>
  <path class="cls-23" d="M122.37,142c.08.5.28.81.29.9.14,1.06-.06,2.29-.37,3.3-.02.04-.7.53-.77.56-3.19,1.51-11.69-.52-15.01-1.82.47-.31,1.05.24,1.4.35,3.15,1.05,7.85,1.95,11.16,1.75.4-.02,1.76-.17,2.07-.29.04-.01.61-.42.64-.44.09-.09.09-.3.17-.43.06-.09.26-.09.28-.2.24-1.09-.15-2.49,0-3.55,0-.07.07-.13.14-.14Z"/>
  <path class="cls-5" d="M93.74,130.63c.18.08.44.02.56.24.16.3.07.77.15,1.06.23.82.65,1.87.96,2.74.34.95.94,2.18,1.49,2.97.19.27.83.8.99,1.04.06.09.27.47.06.51-1.63-1.75-2.64-3.26-3.23-5.51-.03-.12-.24-.09-.27-.2-.17-.6-.04-1.5-.15-2.04-.01-.06-.61-.58-.56-.8Z"/>
  <path class="cls-5" d="M111.56,105.94l-1.12.64c-3.91,1.2-7.12,1.47-11.09.35.13-.29.45-.04.63,0,4.15.99,7.63.43,11.58-.98Z"/>
  <path class="cls-20" d="M113.81,3.79l-.11-.18c.8-.77,1.69-1.14,2.52-.23.48.52,1.56,2.26,1.92,2.91,1.21,2.21,2.53,6.2,4.5,7.75v.14c-.11-.04-.63-.29-.66-.32-2.49-2.51-3.53-7.1-5.71-10.02-.95-1.26-1.45-.78-2.47-.05Z"/>
  <path class="cls-11" d="M146.08,10.52c.16.34.07,1.4,0,1.73-.32,1.4-.61,2.43-.7,4.16h-.42c.04-.84.36-1.75.43-2.31.06-.47-.05-1,.02-1.52.11-.74.54-1.39.67-2.07Z"/>
  <path class="cls-13" d="M46.03,56.27c-.1.42-.6.65-.84.98-.06.08-.41.62-.42.66-.05.22-.05,1.68,0,1.91.02.1.7,1.43.84,1.68.33.58.93.93,1.22,1.27.2.23.25.78.88.8.26.45.91.89,1.4,1.26-.11.29-.37.02-.5-.06-1.15-.71-2.77-2.33-3.42-3.4-.42-.69-.85-1.64-.85-2.5,0-.36.04-.89.16-1.22.03-.08,1.07-1.29,1.15-1.34.16-.1.33-.01.38-.04Z"/>
  <path class="cls-13" d="M155.34,69.6c1.32.41,4.34,3.52,5.04,4.88.12.23.08.53.16.76.04.11.24.11.26.21.05.21.05,1.42,0,1.63-.02.1-.23.09-.27.2-.16.58.06.85-.55,1.28-.08.06-.26-.01-.3.01-.12.08-.08.09-.42.28v-.14c.13-.06.41-.12.42-.14.03-.04-.04-.25.08-.41.07-.09.6-.62.61-.68.06-.29.06-2.04,0-2.32-.08-.37-1.34-1.91-1.67-2.32-.59-.71-1.09-1.54-1.97-1.85-.13-.25.03-.38-.56-.42-.27-.52-.23-.25-.42-.42s-.48-.33-.42-.56Z"/>
  <path class="cls-22" d="M86.58,93.17c-.28.53-.28.22-.56.49s-.44.9-.57,1.22c-.05.12-.24.11-.26.21-.05.21-.05,1.42,0,1.63.02.1.23.09.27.2.07.25.03.55.13.83.47,1.3,2.6,2.78,3.25,3.84.95.59,2.06,1.29,3.13,1.83l.94.84c-.89-.46-3.67-2.01-4.07-2.67-.57-.35-1.39-.94-1.82-1.4-.62-.66-1.15-1.64-1.56-2.41-.05-.1-.52-.59-.54-.64-.17-.57-.18-1.74,0-2.31.07-.23.51-.57.69-1.09.37-.22.54-.51.98-.56Z"/>
  <path class="cls-13" d="M157.45,43.92c-.02.42-.74,2.38-.93,2.85-1.2,2.92-3.11,5.67-5.66,7.67.11-.22.06-.37.26-.55.75-.68,1.93-1.78,2.69-2.78,1-1.33,2.58-4.33,2.95-5.93.08-.37-.02-.82,0-1.12.09-.04.25-.13.28-.14.12-.03.29.02.42,0Z"/>
  <path class="cls-20" d="M110.44,103.13c-.42.51-4.06,1.29-4.86,1.39-1.6.19-2.7.05-4.26-.26v-.14c3.31.64,5.97-.03,9.12-.98Z"/>
  <path class="cls-20" d="M126.72,14.87c4.68-1.56,9.26-3.48,14-4.87,1.31-.38,3.78-1.21,5.03-1.3.28-.02.49.07.75.14.06.14-.14.26-.14.28-.65-.28-1.59.03-2.27.18-1.46.33-3.16.85-4.6,1.29-3.45,1.07-6.89,2.38-10.25,3.72-.7.07-1.5.39-2.25.56h-.28Z"/>
  <path class="cls-5" d="M177.65,96.4c3.85-1.12,11.64-2.07,14.98.52.6.46.64.74.6,1.51s-1,2.15-1.54,2.74c-1.32,1.42-3.73,2.9-5.47,3.79l.52-.56c2.38-1.28,5.4-3.3,6.08-5.94.04-.15.39-.04.28-.45-.02-.06-.21-.06-.24-.12-.27-.61-.23-.88-.95-1.24-4.62-2.34-11.3-.93-15.96.63-.2.07-.55.21-.68-.05.75-.28,1.63-.62,2.39-.84Z"/>
  <path class="cls-13" d="M46.87,55.84c.33-.48,1.21-.71,1.77-.83,3.52-.72,7.31.82,10.54,2.06l-.1.17c-3.9-1.61-8-3.07-12.21-1.4Z"/>
  <path class="cls-13" d="M79.71,63.7c.18-.07.68.62.69.66.27,1.06-.96,1.49-1.82,1.58-.25.03-.59.01-.84,0-1.02-.06-2.28-.41-3.23-.78-.22-.08-.5.04-.42-.35,1.63.46,3.54,1.2,5.21.78.69-.18.84-.72.68-1.38-.01-.05-.17-.06-.28-.52Z"/>
  <path class="cls-20" d="M74.8,22.31c.22-.42.85-.68,1.11-.93.89-.85,1.44-1.96,2.03-2.96,1.89-3.2,3.69-6.82,6.37-9.48.28-.28.07-.7.94-.82.7-.09.53.17.74.28.48.25.51.38.59.43.08.05.46,0,.6.14l.94.99c-.3-.25-1.34-1-1.54-1.12-.18-.11-1.13-.57-1.3-.54-.78.36-1.13,1.19-1.6,1.78-1.01,1.28-2.02,2.59-2.85,3.92-2,3.19-2.84,6.24-5.89,8.32h-.14Z"/>
  <path class="cls-8" d="M54.31,67.63c3.42,1.16,6.76,2.65,10.35,3.61.77.21,6.21,1.51,6.47,1.28.06-.05.03-.48.19-.65s1.3-.68,1.59-.72c1.06-.15,1.88-.1,2.72.55h-.28c-1.38-.78-3.88-.57-4.07,1.26-1.54-.4-3.11-.68-4.66-1.02-.92-.2-1.88-.44-2.78-.66-2.12-.71-4.21-1.41-6.31-2.18-.15-.06-.48-.35-.57-.07-.19-.09-.31-.23-.42-.28-.75-.36-1.6-.6-2.25-1.12Z"/>
  <path class="cls-19" d="M120.82,131.33l.28-.14c.02.09-.02.22,0,.28,1.93.93,4.18,4.7,5.18,6.57.09.17.11.4.15.59,2.01-.45,4.07-.79,6.07-1.3,2.33-.59,4.7-1.56,6.98-1.93v.14c-2.08.47-4.1,1.22-6.17,1.76-.88.23-7.02,1.72-7.29,1.46-.01-.69-.44-1.29-.71-1.82-.97-1.9-2.33-3.36-3.73-4.82-.25-.27-.34-.31-.48-.65-.09-.04-.2-.1-.28-.14Z"/>
  <path class="cls-19" d="M153.8,89.38l-1.91-.41c-.75-.09-1.88-.01-2.55.37-.4.23-.21.35-.88.59-.04.01-.1-.01-.14,0,.21-.58.77-.35.84-.84.17-.06.38-.1.56-.14,1.81-.44,2.39-.3,4.07.42Z"/>
  <path class="cls-19" d="M159.83,93.73c.48.26.69.35,1.04.85.42.58,1.56,2.69,1.75,3.33.15.51.06,1.19.15,1.62.02.1.24.08.27.2.04.15-.04.39.01.49.02.04.47.63.5.65.19.17.41.2.62.3,1.31.57,2.66.29,3.93-.28.07.36-.17.29-.38.38-1.51.65-3.41.74-4.66-.49-.61-.6-.28-1.11-.43-1.76-.02-.1-.24-.08-.27-.2-.41-1.46-.66-2.4-1.49-3.68-.3-.46-.72-.93-1.04-1.41Z"/>
  <path class="cls-22" d="M139.49,135.54c-1.93.77-3.99,1.39-6,1.92-.87.23-7.15,1.8-7.45,1.57.03-.38-.34-.49-.4-.59-.07-.12,0-.3-.05-.4-.11-.24-.63-.62-.27-1.1.27.53.69,1.12.71,1.82.27.26,6.41-1.24,7.29-1.46,2.07-.54,4.1-1.28,6.17-1.76Z"/>
  <path class="cls-13" d="M122.65,14.03c1.29,1.01,2.45.84,4.07.84h.28c-1.29.29-2.23.48-3.55-.03-.34-.13-.62-.46-.8-.53v-.28Z"/>
  <path class="cls-19" d="M54.73,147.89c-2.12,1.19-4.44,1.18-6.74.56l3.01.28c1.26,0,2.68-.82,3.72-.84Z"/>
  <path class="cls-20" d="M91.35,12.63c.59-.1.9.49,1.23.69,2.29,1.42,3.47,1.67,6.2,1.13.08.37-.18.29-.42.35-1.09.28-2.15.32-3.23,0-.81-.23-3.26-1.6-3.79-2.18Z"/>
  <path class="cls-11" d="M95.7,93.45c-1.63.43-3.18.18-4.96,1-1.1.5-1.31.65-1.21,1.88.04.52,1.18,2.21,1.6,2.54.25.19.19-.14.37.33-.7.09-.91-.69-1.27-1.15-.15-.2-.48-.35-.6-.56-.02-.04-.38-.82-.39-.87-.03-.24-.03-1.29.05-1.45.21-.43,1.85-1.12,2.32-1.26,1.33-.39,2.71-.57,4.1-.46Z"/>
  <path class="cls-13" d="M71.29,72.96c-.23.07-.18.16-.59.11-2.09-.24-4.47-1.3-6.61-1.55-.14,0-.22-.24-.24-.25.9.22,1.86.46,2.78.66,1.55.34,3.12.62,4.66,1.02Z"/>
  <path class="cls-8" d="M86.58,8.84c.21.13,1.24.88,1.54,1.12.26.21.73.68.84.98-1.04-.34-2.02-1.75-3.06-2.23s-1.11.43-1.58,1c-.8.98-1.64,1.94-2.33,2.96-1.95,2.93-3.62,7.58-6.48,9.63-1.33.96-2.83,1.52-4.27,2.27-.14.07-.45.56-.82.27.05-.03.09-.21.14-.28,1.06-.4,1.56-.68,2.53-1.26l1.72-.71c.14-.04.09-.27.1-.28,3.06-2.08,3.9-5.13,5.89-8.32.83-1.32,1.84-2.64,2.85-3.92.47-.59.82-1.42,1.6-1.78.17-.03,1.12.43,1.3.54Z"/>
  <path class="cls-11" d="M139.63,61.32c-.1.39-.63.31-.81.46s-.38.83-.31,1.12c0,.03.34.51.37.52.98.62,4.29.94,5.69,1.3.94.24,1.93.65,2.87.93l-.09.16c-.77-.27-1.59-.56-2.38-.77-1.75-.48-4.19-.62-5.76-1.26-1.4-.57-1.08-2.38.43-2.46Z"/>
  <path class="cls-23" d="M151.69,110.71c-1.69.46-3.65.42-5.33,0,.74-.19,1.57.13,2.31.15,1.04.03,1.99-.2,3.02-.15Z"/>
  <path class="cls-20" d="M135.42,84.61c-1,2.9-2.47,5.28-4.77,7.44v-.14c.39-.73,1.35-1.4,1.82-2.07.99-1.41,2.13-3.64,2.67-5.23h.28Z"/>
  <path class="cls-20" d="M72.97,61.18c1.4.36,4.52,1.52,5.89,2.1-.14.27-.47.1-.67.04-1.92-.52-3.7-1.34-5.5-2.15.09.01.2-.02.28,0Z"/>
  <path class="cls-4" d="M71.57,64.12c.17.06.48.06.7.14.67.23,1.15.37,1.82.56-.08.39.2.26.42.35.95.37,2.21.72,3.23.78-.14.23-.54.16-.76.13-1.77-.27-3.8-1.26-5.52-1.78l.11-.17Z"/>
  <path class="cls-5" d="M94.44,89.1c-.2.74-1.01,1.09-1.14,1.94-.99.08-1.96.24-2.93.45-.08-.34.18-.31.41-.35.76-.15,1.55-.15,2.31-.34.34-.66.61-1.46,1.28-1.83.09,0,.06.14.07.14Z"/>
  <path class="cls-13" d="M150.29,27.08l.08-.12c.48.06.82.59,1.04.97.33.11.62.36.7.7.98.59,1.13,1.21,1.68,1.96v.14c-.75-.3-1.01-1.35-1.68-1.82-.02-.09.02-.2,0-.28-.02-.01-.21.02-.37-.05-.33-.15-.29-.57-.33-.65-.48-.16-.66-.45-1.12-.84Z"/>
  <path class="cls-13" d="M95.84,102.15c1.78.75,3.56,1.59,5.47,1.96v.14c-1.99-.4-3.74-1.02-5.58-1.93l.1-.17Z"/>
  <path class="cls-5" d="M182.85,106.5c-.46.18-.94.4-1.4.56-2.07.72-4.17,1.13-6.31,1.54v-.14c2.44-.48,4.61-1.22,6.84-1.95.15-.05.75-.18.88-.01Z"/>
  <path class="cls-8" d="M156.46,45.18c.09,0,.19,0,.28,0-.37,1.6-1.95,4.6-2.95,5.93-.75,1-1.93,2.1-2.69,2.78-.2.18-.15.34-.26.55-.75.59-1.49,1.11-2.22,1.68-.44.35-.83.34-1.01.85-.14.01-.29-.02-.42,0,.2-.66.45-.35.79-.61,1.96-1.49,4.39-3.83,5.79-5.79.69-.97,1.94-3.07,2.25-4.09.1-.34.09-.83.16-1.19.05-.14.17-.1.28-.1Z"/>
  <path class="cls-20" d="M63.85,71.28c-2.41-.59-4.61-1.22-6.88-2.25.09-.28.41,0,.57.07,2.09.77,4.19,1.47,6.31,2.18Z"/>
  <path class="cls-13" d="M115.35,100.89l.09.14c-1.61.84-3.22,1.56-5,2.1.39-.48,1.87-.84,2.66-1.2.75-.33,1.5-.7,2.25-1.05Z"/>
  <path class="cls-19" d="M154.5,106.22c.51-.09,1,.26,1.12.7.12.03.36-.1.43.09.17.32.14,1.16-.01,1.48-.07.14-.24.16-.33.27-.31.42.06.32-.65.54-.31.58-1.3.97-1.98,1.18-.22.07-.53.22-.69-.06,1.06-.34,1.91-.88,2.67-1.12.21-.4.56-.57.64-.97.11-.57.07-.88-.08-1.42-.52-.14-.68-.46-1.12-.7Z"/>
  <path class="cls-13" d="M103.98,84.19c-1.37-.38-2.49-.02-3.65.56v-.14c1.26-.63,2.29-1.37,3.65-.42Z"/>
  <path class="cls-4" d="M146.78,78.29l4.21,1.47c3.63.95,5.13.43,8.28-1.05v.14c-.06.03-.66.66-.98.84-1,.03-1.91.58-2.89.69-3.32.37-5.75-.82-8.62-2.09Z"/>
  <path class="cls-18" d="M149.87,12.35c.05.62-.02,1.17-.13,1.77-.04.21.13.52-.29.48.04-.79-.01-1.53.42-2.25Z"/>
  <path class="cls-5" d="M45.19,146.07c-.37,0-.75,0-1.12,0-.12.2,1.51.83.7.84-.03-.02-.14.03-.24-.04-.16-.4-1.04-.71-1.17-1.08.59,0,1.29-.02,1.82.28Z"/>
  <path class="cls-20" d="M67.08,61.88c.1-.21.63.09.76.16,1.35.7,2.59,1.37,4.02,1.88.22.08.5-.04.42.34-.23-.08-.53-.08-.7-.14-1.56-.59-3.09-1.47-4.49-2.25Z"/>
  <path class="cls-23" d="M92.06,86.43c1.4.38,2.82.7,4.21,1.12-.21.23-.46.35-.7.56v-.56c-1.17-.31-2.35-.67-3.51-.98v-.14Z"/>
  <path class="cls-11" d="M157.45,43.92c-.13.02-.3-.03-.42,0l.14-1.4h.28s0-2.39,0-2.39h.14c.04,1.27-.07,2.53-.14,3.79Z"/>
  <path class="cls-13" d="M112.4,4.77v.14c-.48.08-.34.25-.42.42-.14.01-.29-.02-.42,0-.51.82-2.04,1.87-2.94,2.49l-.71.88c-.11.03-.3-.03-.42,0-.01.02.02.13-.05.24-.11.19-.41.25-.52.32-.1-.51.17-.46.56-.56.78-1.06,1.94-1.76,3.03-2.58.41-.31.38-.67,1.04-.78.41-.66.26-.39.84-.56Z"/>
  <path class="cls-23" d="M145.52,110.43c-.81.27-1.93-.35-2.67-.7l2.67.7Z"/>
  <path class="cls-19" d="M87.71,92.33c-.58.29-.81.24-1.12.84-.44.05-.61.34-.98.56-.18.52-.61.86-.69,1.09-.18.57-.17,1.73,0,2.31.02.05.48.54.54.64.41.77.93,1.75,1.56,2.41-.17.38-.33-.05-.43-.16-.81-.83-1.45-1.85-1.82-2.96-.04-.11-.24-.11-.26-.21-.05-.23-.05-1.67,0-1.91.02-.1.23-.11.27-.21.13-.35.13-.81.55-1,.11-.05.26,0,.3-.02.29-.87.38-.61,1.01-.99.21-.12.66-.76,1.09-.41Z"/>
  <path class="cls-11" d="M99.63,89.24c-.03.3-.29.36-.41.54-.06.08.01.28-.01.3-.02.02-.24-.05-.37.05-.71.56-1.29,2.14-2.02,2.76.24-.97.97-1.8,1.59-2.55.46-.54.62-.81,1.21-1.1Z"/>
  <path class="cls-20" d="M52.91,67.21l.19-.14c.21.46.79.42,1.21.57.65.53,1.49.76,2.25,1.12-1.32-.17-2.54-.9-3.65-1.54Z"/>
  <path class="cls-13" d="M72.97,61.18c-.08-.02-.19.01-.28,0-1.46-.66-2.72-1.31-4.07-2.1v-.14c1.4.81,2.96,1.4,4.35,2.25Z"/>
  <path class="cls-11" d="M147.62,56.97c-.02.06.05.2-.02.26-.08.07-.31-.01-.4.02-.09.47-1.31.89-1.71,1.14-.9.57-1.22.8-2.22,1.25v-.14c1.32-.45,2.65-1.85,3.93-2.25.02-.09-.02-.21,0-.28.13-.02.29.01.42,0Z"/>
  <path class="cls-13" d="M130.65,91.91v.14c-.92.87-1.89,1.67-2.95,2.39v-.14c.49-.63,1.34-1.22,2.01-1.78.27-.23.23.25.37-.46l.56-.14Z"/>
  <path class="cls-23" d="M125.87,99.06s.1-.25.23-.26c.47-.11,3.02,1.73,3.55,2.09-.02.23-.46-.06-.52-.1-.55-.38-1.62-1.2-2.11-1.43-.42-.19-.76-.15-1.15-.29Z"/>
  <path class="cls-11" d="M70.59,24.55c-.05.07-.09.25-.14.28-.99.67-2.2,1.19-3.23,1.82.2-.47.12-.14.37-.33.95-.71,2.01-1.4,3-1.78Z"/>
  <path class="cls-11" d="M77.46,130.77c.09-.31.4.03.52.11.9.57,1.82,1.12,2.71,1.71-.08-.02-.19.01-.28,0-1-.57-1.98-1.17-2.95-1.82Z"/>
  <path class="cls-11" d="M93.18,100.61c.74.48,1.63.8,2.25,1.4-.54-.23-1.07-.4-1.58-.7l-.66-.7Z"/>
  <path class="cls-11" d="M104.54,85.59c-.02.08.04.21,0,.31-.16.37-1.42.97-1.82,1.23l-.12-.18c.36-.26.95-.46,1.28-.65.11-.07.25-.79.66-.71Z"/>
  <path class="cls-11" d="M103.14,12.21c-.94.65-1.92,1.31-2.95,1.82-.81-.03.66-.53.73-.58.58-.36,1.11-.76,1.7-1.13.12-.08.44-.41.53-.11Z"/>
  <path class="cls-5" d="M116.33,128.39s.07-.13.2-.14c.35-.02,2.53,1.75,3.14,1.84.08.06,0,.2.02.26-1.18-.55-2.19-1.4-3.37-1.96Z"/>
  <path class="cls-23" d="M153.52,128.39c-1.37,1.01-2.88,1.86-4.35,2.67l2.35-1.68c.57-.19,1.01-.53,1.48-.89.11-.08.46-.38.53-.1Z"/>
  <path class="cls-11" d="M15.44,133.86c.6.43,1.57.9,2.25,1.26-.16.43-.37.01-.44-.02-.65-.33-1.2-.69-1.81-1.1v-.14Z"/>
  <path class="cls-23" d="M14.32,97.8c-.04.07.07.33-.02.4-.06.05-.29-.03-.37.05-.23.23.27.15-.45.39-.27.72-.12.23-.55.64-.33.31-.7,1.24-1.13.9.14-.24,1.44-1.46,1.68-1.54.13-.33.52-.8.84-.84Z"/>
  <path class="cls-11" d="M74.8,22.31h.14s.04.24-.1.28l-1.72.71c.56-.34,1.09-.79,1.68-.98Z"/>
  <path class="cls-5" d="M22.74,91.91c0,.34-.6.61-.85.77-.8.49-1.69,1.04-2.52,1.34l3.37-2.1Z"/>
  <path class="cls-23" d="M81.11,129.09c.02-.23.46.06.52.1.59.41,1.2.91,1.9,1.16l.8.7c-1.15-.62-2.16-1.25-3.23-1.96Z"/>
  <path class="cls-11" d="M127.7,94.29v.14c-.82.55-1.64,1.02-2.53,1.4.74-.6,1.64-1.19,2.53-1.54Z"/>
  <path class="cls-11" d="M68.62,58.93v.14c-.59-.35-1.87-.97-2.1-1.4.78.21,1.43.87,2.1,1.26Z"/>
  <path class="cls-11" d="M60.9,58.09c1.25.56,2.3,1.32,3.55,1.97l.8.7c-1.27-.74-2.91-1.86-4.21-2.39l-.14-.28Z"/>
  <path class="cls-5" d="M168.53,109.73c-.4.13-.67.4-1.1.44.13.44-.25.54-.29.65-1.68,4.54-3.28,7.1-6.19,10.98-.13.17-.17.34-.42.28.39-1.02,1.52-2.03,2.17-2.95,1.75-2.52,3.1-5.56,4.28-8.24.08-.17.03-.42.15-.63.2-.37.97-.77,1.41-.52Z"/>
  <path class="cls-19" d="M44.07,121.37l12.69.85c1.08.02,2.16-.04,3.24-.01,3.17.08,6.35.2,9.54.15.98-.02,2.04-.27,3.08-.15.28.03,1.69.56,1.87.72.09.08,0,.3.03.4h-.19c-.17-.33-.29-.3-.52-.42-1.51-.82-3.22-.29-4.83-.27-3.61.04-7.21-.17-10.82-.14l-14.1-.85v-.28Z"/>
  <path class="cls-4" d="M79.57,63.42c.22,0,1.03.44,1.08.6.08.26.09.86.04,1.12-.05.24-1.74,1.31-2.1.8.86-.09,2.09-.52,1.82-1.58-.01-.05-.52-.73-.69-.66-.02-.09-.11-.19-.14-.28Z"/>
  <rect class="cls-11" x="146.36" y="10.24" width=".14" height=".28"/>
  <path class="cls-11" d="M79.29,63.42c-.1,0,.04.19-.28,0h.28Z"/>
  <path class="cls-9" d="M19.51,33.11c-.37-.1-.78-.23-1.17,0-.25.15-.33.82-.38,1.02-.04.15-.32.01-.29.46.5.45.21.88.33,1.5.45,2.21,2.41,4.61,3.84,6.33.18.22.44.67.61.93-.03,0-.09.29-.38-.04-1.16-1.31-2.7-3.32-3.42-4.9-.56-1.23-1.08-2.05-1.12-3.54-.01-.39-.03-1.2.15-1.52.15-.28,1.63-1.02,1.83-.24Z"/>
  <path class="cls-9" d="M31.3,29.32c.56-.36.66.4.7.77.21,2.13-.73,3.1-1.49,4.75-.12.25.05.49-.33.59v.26c.62.72,1.58.99,2.53.72.4-.12.6-.55.98-.64.07.43,0,.34-.28.49-.8.42-1.54.61-2.42.31-.95-.32-1.16-.76-.84-1.73.05-.16.5-.58.57-.73.23-.52.69-1.63.84-2.1.19-.57.42-1.29.29-1.89-.01-.05-.52-.77-.55-.8Z"/>
  <path class="cls-9" d="M27.79,30.59c-.7.73-1.89,2.33-2.33,3.14-.3.56-.12.72-.76,1.21l-.14-.14c.59-.57,1.07-1.98,1.55-2.7.27-.4.66-.73.97-1.06.12-.13.22-.85.7-.45Z"/>
  <path class="cls-14" d="M20.63,33.81c.38-.11.4.05.61.18.47.3.5.55.69.77.03.03.64.36.68.37.62.17,1.47.13,1.95-.33l.14.14c-1.2.93-2.09.56-3.26-.28-.24-.17-.69-.74-.81-.84Z"/>
  <path class="cls-9" d="M36.49,38.87c.4.28-.02.27-.15.34-.95.54-1.51.97-2.51,1.34.78-.65,1.88-1.08,2.67-1.68Z"/>
  <path class="cls-9" d="M34.1,35.36v.14c-.07.02-.17.15-.28.14.03-.04-.11-.39.28-.28Z"/>
  <path class="cls-16" d="M88.83,50.93c-.95-.92-1.21-1.49-1.55-2.7-.03-.12-.24-.1-.27-.2-.06-.23-.05-1.66,0-1.91.01-.06.74-.9.81-.93.22-.1.86-.23,1.1-.24,1.38-.05,3.27.47,4.74.52,2.89.09,6.09-.43,8.95-.89,1.72-.27,4.68-1.45,5.99.26.16.21.12.37.2.57.17.4.12.29.23.79.02.11.25.03.29.3.13.87-.26.9-.29,1.02-.08.32.07.74,0,1.07-.03.15-.95,2.09-1.13,2.37-.44.7-.77.77-1.3,1.22-.25.21-.06.36.19.29-.4.26-1.38.8-1.82.98-5.18,2.15-12.09,1.39-16.14-2.53ZM104.54,51.35c.18-.16.98-.86,1.07-1.03.49-.96.24-1.52-.75-1.74-2.27-.51-5.56-.18-7.69.79-.08.04-.71.4-.62.58-.51.26-.94.5-1.4.84l-.07-.14c-.53.33-.59.09-.63.7-.13.02-.29-.02-.42,0,.02.19-.05.44,0,.6.09.32,2.51,1.21,2.95.8.14.03.24.13.28.14,2.37.54,5.53,0,7.3-1.54Z"/>
  <path class="cls-3" d="M131.02,45.09c.4.3.62.65.9.96.08.09.54.59.55.63.05.22.05,1.27,0,1.48-.02.09-.21.1-.23.14-1.87,4.57-11.69,4.52-14.95,1.5-.64-.59-.33-.58-.54-1.02-.06-.13-.23-.13-.26-.21-.22-.61-.22-1.49-.06-2.12.08-.33.4-.46.61-.69,3.04-3.22,10.45-3.36,13.99-.68Z"/>
  <path class="cls-3" d="M77.7,44.25c.45.36.56.84.9,1.27v1.8c-.38.15-.28.5-.43.7-.78,1.04-3.21,2.03-4.46,2.3-3.02.65-8.39.36-9.86-2.8-.05-.11-.24-.11-.27-.21-.05-.2-.05-.86,0-1.07.02-.1.23-.1.26-.21.39-1.16.99-1.98,2.16-2.58,3.29-1.7,8.75-1.6,11.69.78Z"/>
  <path class="cls-8" d="M136.54,74.65v.14c-1.43-.25-3.42-.58-4.84-.57-.31,0-1.86.2-2.07.3-.17.08-.09.27-.1.28-.38.27-.67.26-.67.91s.19.63.67.77c.02.07-.03.18,0,.27l7.01,1.27-.28.23c-.07.61.09,1.36.01,1.95-.03.26-.26.18-.29.3-.33,1.5-.34,2.65-.84,4.11-.54,1.59-1.68,3.82-2.67,5.23-.47.67-1.43,1.34-1.82,2.07l-.56.14c.1-.53.28-.22.56-.49.14-.14.47-.9.59-1.02,1.73-1.72,3.28-4.68,3.89-7.01.21-.81.52-1.88.7-2.66.16-.65-.04-2.01.15-2.77-.1-.34-6.16-.68-6.99-1.52-.09-.09-.1-.29-.18-.42-.14-.23-.45-.13-.28-.85.03-.11.22-.11.28-.2.1-.16.07-.33.24-.47,1.43-1.15,5.74-.31,7.48.01Z"/>
  <path class="cls-4" d="M152.11,28.9c.68.47.94,1.52,1.68,1.82.02.46.53.81.74,1.16.75,1.24,1.37,2.64,1.87,3.94.41,1.06.68,2.89.75,4.16.05.83-.04,1.69,0,2.53l-.14,1.4s-.19.1-.28.14c-.02.3.08.76,0,1.12-.09,0-.19,0-.28,0v-1.12c.09-.03.22.02.28,0,.12-1.62.36-4.87,0-6.36-.03-.11-.25-.08-.28-.19-.65-2.97-1.86-5.11-3.74-7.6-.43-.57-.44-.13-.61-1.01Z"/>
  <path class="cls-4" d="M59.08,35.92c.74.04.06.57.05.61-.19.44-.68,1.69-.75,2.01-.44,2.02-.58,4.77-.29,7,0,.06.26.99.29,1.04l-.28.14c-.57-2.44-.57-5.2-.14-7.51.09-.47.13-1.04.28-1.47s.61-1.34.84-1.82Z"/>
  <path class="cls-8" d="M117.45,42.94l-.43.34c-1.79.54-3.72.23-5.21-.9-.93-.7-.7-.94-.96-1.86-.03-.12-.25-.09-.27-.2-.04-.19-.04-.74,0-.93.02-.1.23-.08.27-.2.29-1,.38-1.36,1.31-2.04,1.5-1.09,4.3-1.37,5.9-.38.07.04,1.14.96,1.19,1.02.21.23.38.99.46,1.27.03.12.25.09.27.2.05.2.04,1.01.01,1.25s-.21.16-.28.32c-.4.89-1.14,1.99-2.26,2.13.32-.15,1.62-1.3,1.77-1.59.22-.45.1-.78.2-1.12.03-.12.49-.08.27-.37-.01-.02-.24.04-.28-.09-.1-.38.06-.82-.15-1.34-.02-.06-.69-.85-.74-.91-1.07-1.14-3.6-1.5-5.04-.85l-1.23.81c-.64.26-.49.47-.71.87-.07.12-.53.72-.55.77-.23.92.14,2.09.75,2.8.28.32.54.45.93.61.76.92,2.88.93,3.98.67.22-.05.31-.23.37-.25.1-.04.34.04.42,0Z"/>
  <path class="cls-8" d="M107.91,43.92v.14c-2.58-.76-5.94.48-8.65.82-3.21.4-5.71.28-8.89.02v-.28c4.71.38,7.69.29,12.39-.45,2.03-.32,3.06-1.14,5.15-.25Z"/>
  <path class="cls-13" d="M88.83,50.93c4.04,3.91,10.96,4.68,16.14,2.53.11.38-.27.2-.42.42-3.23,1.06-6.5,1.29-9.82.49-1.19-.29-2.23-.79-3.37-1.19-1.03-.63-2.01-1.46-2.81-2.25h.28Z"/>
  <path class="cls-20" d="M107.91,44.06c.17.05.51.2.7.28.2.51.68.89.69.95.27.95.17,2.31,0,3.26-.08.51-.11.74-.33,1.22-.32.72-1.55,2.28-2.2,2.71-.25.06-.44-.08-.19-.29.54-.45.86-.52,1.3-1.22.18-.28,1.1-2.22,1.13-2.37.08-.33-.07-.75,0-1.07.03-.12.41-.15.29-1.02-.04-.26-.26-.18-.29-.3-.11-.5-.06-.39-.23-.79-.09-.2-.04-.36-.2-.57-1.31-1.71-4.27-.53-5.99-.26-2.86.45-6.06.97-8.95.89-1.47-.04-3.36-.57-4.74-.52-.25,0-.88.14-1.1.24-.07.03-.79.87-.81.93-.05.24-.06,1.67,0,1.91.02.1.23.09.27.2.35,1.21.6,1.78,1.55,2.7h-.28c-.92-.9-1.05-1.12-1.54-2.25-.05-.12-.28-.15-.36-.55-.25-1.25-.05-2.64,1.22-3.16.98-.4,1.57-.16,2.51-.08,3.19.27,5.69.38,8.89-.02,2.71-.34,6.07-1.58,8.65-.82Z"/>
  <path class="cls-4" d="M104.54,53.88s.21.16-.09.25c-4.26,1.29-9.25,1.4-13.1-.95,1.14.4,2.18.91,3.37,1.19,3.32.8,6.59.56,9.82-.49Z"/>
  <path class="cls-4" d="M75.64,71.7s.18-.04.25.03c.1.09.09.3.17.43.06.09.25.09.28.2.04.18.04.61,0,.79-.07.29-.91,1.45-.96,1.61-.12.39-.06.98-.16,1.33-.03.12-.25.09-.27.2-.13.56-.01,1.69-.14,2.2-.04.15-.28.08-.28.09h-.28c.3-1.81.82-3.59,1.45-5.15.02-.05.21-.05.23-.14.08-.34-.04-.84.01-1.21,0-.03-.47-.32-.57-.37h.28Z"/>
  <path class="cls-8" d="M156.18,70.58c.59.05.43.17.56.42.88.31,1.38,1.14,1.97,1.85.33.4,1.59,1.94,1.67,2.32.06.29.06,2.03,0,2.32-.01.06-.54.59-.61.68-.12.15-.06.37-.08.41-.01.02-.29.08-.42.14-.08-.47.46-.58.54-.8.06-.16-.02-.38.03-.5s.25-.1.27-.2c.05-.2.05-1.42,0-1.63-.02-.1-.23-.08-.27-.2-.44-1.35-1.32-2.71-2.4-3.75-.31-.31-.38-.02-.7-.64-.14-.05-.46-.07-.54-.17-.06-.08,0-.21-.02-.25Z"/>
  <path class="cls-4" d="M45.47,57.25c-.05.51-.38.57-.42,1.19-.03.47.02,1.2.15,1.64.03.11.98,1.79,1.11,1.97.42.55,1.01.84,1.4,1.51-.63-.02-.68-.57-.88-.8-.29-.33-.89-.68-1.22-1.27-.14-.24-.82-1.58-.84-1.68-.05-.23-.05-1.68,0-1.91,0-.04.35-.58.42-.66.09-.01.2.02.28,0Z"/>
  <path class="cls-4" d="M107.91,43.92c.43.18.47-.17.7.42.06.02.21-.04.32,0,.4.15.43.74.54,1.01.05.12.24.11.27.21.16.73.05,2.13,0,2.92-.02.42-.24.18-.42.07.16-.95.26-2.31,0-3.26-.02-.06-.49-.44-.69-.95-.2-.08-.53-.23-.7-.28v-.14Z"/>
  <path class="cls-11" d="M78.87,36.34c-.29.24-.71.61-.98.7-.15.25-.67.9-.69.95-.22.63-.21,1.8,0,2.44.02.05.55.88.59.91.07.07.24.03.33.09.08.06.04.23.05.23.05.04.36.01.53.1s.15.27.28.32c1.64.55,3.31.31,4.65-.78.76-.62.63-.81.86-1.63.04-.13.25-.06.28-.31.03-.21.03-.77-.01-.97-.02-.1-.23-.08-.27-.2-.17-.51-.17-1.03-.71-1.44v-.14c.1.07.41.04.53.17s.09.4.18.56c.5.85.49,1.24.42,2.29-.12,1.57-2.2,2.76-3.65,2.87-1.03.08-2.15-.07-3.05-.6-.07-.04-.02-.23-.04-.24-.24-.16-.8-.34-.98-.66-.12-.22-.08-.45-.15-.63-.07-.16-.23-.02-.27-.39-.04-.34-.06-1.44,0-1.73.02-.1.22-.09.26-.21.1-.26.16-.87.53-1.01.11-.04.25.02.32,0,.1-.16.21-.5.43-.62.24-.14.43-.04.55-.08Z"/>
  <path class="cls-4" d="M122.65,14.31c.18.07.46.4.8.53,1.32.51,2.26.32,3.55.03.74-.17,1.55-.5,2.25-.56.09,0,.19,0,.28,0-1.94.65-2.91,1.18-5.12.98-.51-.05-1.54-.42-1.95-.69-.14-.09-.07-.28-.09-.29.09.02.22-.03.28,0Z"/>
  <path class="cls-4" d="M90.37,44.62v.28c-.95-.08-1.54-.31-2.51.08-1.26.52-1.47,1.91-1.22,3.16.08.4.31.43.36.55-.7.27-.28.05-.42-.32-.05-.14-.25-.05-.29-.3-.04-.31-.05-1.67.02-1.95.02-.1.21-.1.27-.21.09-.17.05-.41.18-.56.09-.1.78-.38.97-.47.1-.05.11-.23.22-.26.75-.18,1.66-.07,2.42,0Z"/>
  <path class="cls-8" d="M58.38,46.58c.41.66.22.68.43,1.44.05.17.95,2.06,1.12,2.38.65,1.22,1.76,2.34,2.51,3.48-.24-.07-.44-.25-.59-.43-1.45-1.68-2.82-3.86-3.46-5.86-.09-.29-.24-.61-.3-.87l.28-.14Z"/>
  <path class="cls-20" d="M83.78,36.62v.14c-1.67-1.23-3.01-1.06-4.91-.42.02-.01-.04-.18.03-.25.37-.36,2.16-.5,2.71-.45,1.13.09,1.34.42,2.18.98Z"/>
  <path class="cls-8" d="M76.76,39.99c.04.37.2.23.27.39.07.18.03.41.15.63.18.32.74.5.98.66.01,0-.03.2.04.24.9.53,2.02.69,3.05.6l.21.28c-1.25.1-2.53-.21-3.6-.86-.44-.27-.57-.59-.82-.86-.21-.23-1.13-.82-.28-1.09Z"/>
  <path class="cls-4" d="M142.85,76.47c-2.09-.64-4.16-1.3-6.31-1.68v-.14c2.41.44,4.08.86,6.31,1.82Z"/>
  <path class="cls-4" d="M111.98,5.33c-.39.8-.62.54-1.07.89-.79.61-2.09,2.19-3,2.47l.71-.88c.89-.61,2.43-1.67,2.94-2.49.13-.02.29.01.42,0Z"/>
  <path class="cls-4" d="M147.2,56.97c-.02.07.02.19,0,.28-1.28.4-2.61,1.79-3.93,2.25l-.08-.14c.25-.32.82-.41,1.09-.57.58-.36,2.37-1.73,2.92-1.81Z"/>
  <path class="cls-7" d="M67.5,110.29c.68.32.72.41,1.12.98.6.86.8.8.85,2.03.02.58.02,1.27-.14,1.84-.1.34-.57.64-.71,1.19-.4.13-.98.82-1.4.98-1.36.54-3.54.39-4.77-.42-.05-.04-.09-.1-.14-.14-1.04-.92-.96-.66-1.42-2-.04-.11-.24-.11-.26-.21-.05-.23-.05-1.13-.02-1.38s.25-.18.29-.3c.08-.31,0-.65.16-1.05.07-.18,1.05-1.1,1.25-1.23.35-.24.87-.52,1.26-.7,1.38-.24,2.65-.18,3.93.42Z"/>
  <path class="cls-23" d="M44.07,121.37v.28c-8.02-.8-16.08-1.55-24-3.09h.14c7.92,1.05,15.85,2.28,23.86,2.81Z"/>
  <path class="cls-5" d="M148.47,89.94c.02.28-.15.39-.26.56-.68,1.06-.66.8-1.02,2.14-.03.12-.24.1-.27.2-.19.86-.2,3.01,0,3.88.02.1.25.08.27.19.57,2.31,1.38,4.35,3.2,6.08.09.08.34.05.43.17.24.33.35.41.45.8-.09,0-.19,0-.28,0-.63-.9-1.8-1.81-2.51-2.92-1.07-1.67-1.18-2.56-1.7-4.42-.03-.12-.25-.1-.27-.2-.06-.26-.06-2.92,0-3.17.02-.1.24-.08.27-.2.2-.73.2-1.31.58-2.03.11-.2.46-.33.54-.51.06-.13-.03-.39,0-.45.01-.02.35-.12.42-.14.04-.01.1.01.14,0Z"/>
  <path class="cls-19" d="M116.47,132.6c.63-.04.48.41.6.52.06.06.26.01.39.14.54.51.61.94,1.26,1.16.02.13-.02.29,0,.42.53.16.47.42.75.79,1.54,2,2.48,3.81,2.89,6.36-.07.02-.13.07-.14.14-.45.08-.24-.23-.28-.49-.2-1.4-1.22-3.84-2.02-5.07-.44-.68-1.05-.79-1.21-1.73-.62-.19-1.09-1.08-1.69-1.6-.46-.4-.39.08-.55-.65Z"/>
  <path class="cls-5" d="M68.62,111.27c.86-.01.63.33.85.88.2.51.14.39.27.99.02.1.25.08.28.19.17.63-.25.61-.27.7-.14.62.01.58-.27,1.27-.11.27-.18.88-.53,1.01-.11.04-.25-.02-.32,0-.03.1.06.32-.03.4-.05.05-.25,0-.34.07-.29.21-.65.52-1.04.65v-.14c.42-.17,1-.85,1.4-.98.15-.55.62-.85.71-1.19.16-.56.16-1.25.14-1.84-.05-1.23-.25-1.17-.85-2.03Z"/>
  <path class="cls-5" d="M62.31,110.57c-.2.14-1.18,1.06-1.25,1.23-.16.4-.08.74-.16,1.05-.03.12-.25.05-.29.3s-.04,1.16.02,1.38c.02.1.23.1.26.21.46,1.34.38,1.08,1.42,2-.34.36-.6-.24-.79-.4-.13-.11-.38-.08-.49-.25-.4-.63-.38-1.12-.56-1.77-.04-.14-.34.01-.29-.74.04-.46.25-.3.28-.44.1-.35,0-.87.19-1.26.04-.09,1-1.15,1.12-1.25s.43-.31.51-.05Z"/>
  <path class="cls-23" d="M5.2,112.39c.1,1.02-.3,2.17-.14,3.23.64-.04,1.23.25,1.82.42l-2.18-.41c-.24-1.15.12-2.27.36-3.38.07.01.13.08.14.14Z"/>
  <path class="cls-5" d="M6.32,108.74c-.09.12-.79,2.58-.84,2.76-.07.3.22.98-.28.89,0-.06-.07-.13-.14-.14.29-1.37.67-2.26,1.12-3.51h.14Z"/>
  <path class="cls-5" d="M20.21,118.57h-.14c-1.82-.19-3.66-.52-5.47-.84v-.28c1.66.31,3.3.61,4.97.86.24.04.48.07.65.27Z"/>
  <path class="cls-23" d="M63.57,109.87c.85-.4,2.47-.41,3.4-.13.04.01.63.4.53.55-1.28-.6-2.55-.66-3.93-.42Z"/>
  <path class="cls-23" d="M14.6,117.44v.28c-2.2-.39-4.72-.86-6.88-1.4.14-.26.49-.11.71-.08,2.02.33,4.13.82,6.17,1.2Z"/>
  <path class="cls-23" d="M175.13,108.46v.14c-.83.16-1.69.42-2.53.56-.08-.34.18-.3.41-.35.69-.14,1.42-.21,2.11-.35Z"/>
  <path class="cls-23" d="M67.22,117.3v.14c-1.09.38-3.86.49-4.74-.31-.09-.08-.02-.24-.04-.25,1.23.81,3.41.96,4.77.42Z"/>
  <path class="cls-23" d="M112.4,128.39c-.21.21-.21,1.05-.12,1.31.1.32.39.17.54.23.02.08-.01.19,0,.28.17.08,1.05.4,1.1.45.07.07,0,.2.02.26.56.27,1.13.55,1.68.84.05.11.04.3.14.42-.66-.32-1.13-.83-1.81-1-.06-.07,0-.2-.02-.26-.2-.1-.34-.17-.53-.27-.39-.2-.51.08-.59-.43-.05-.02-.22.05-.38-.04-.41-.22-.41-.77-.5-.91-.05-.08-.37.03-.23-.31.63-.13-.16-.52.69-.57Z"/>
  <path class="cls-23" d="M157.87,91.48c.03.48.38.44.7.56.45.6.84,1.06,1.26,1.68-.61-.32-.31-.38-.56-.63-.58-.58-1.35-.85-1.69-1.61h.28Z"/>
  <path class="cls-15" d="M55.15,125.16c-.07.53.71.18,1.09.32.18.07,2.21,2.36,2.61,2.72,7.37,6.7,17.12,10.44,26.75,12.89,2.62.66,5.33,1.06,7.94,1.75.4.1.05.13.06.43-.14.01-.28-.01-.42,0-.52-.26-1.29-.04-1.9,0-.27.02-.56-.16-.49.28-.09,0-.19,0-.28,0-.22-.23-.76-.17-1.06-.15-1.16.08-2.33.25-3.49.3l-.17-.44c-6.78-1.37-13.66-3.64-19.79-6.84-4.16-2.18-10.48-6.69-12.81-10.74-.05-.09-.19-.1-.28-.09l.07-.28c.46-.03.95.05,1.41,0,.18-.02.32-.15.34-.15.14,0,.28,0,.42,0ZM86.23,143.4v.14c.09-.05.09-.09,0-.14Z"/>
  <path class="cls-15" d="M20.07,121.65c.14.01.28-.02.42,0,0,.35.03.83.16,1.15.07.18.45.32.53.51,3.56,8.4,9.48,13.22,17.51,17.68.58.32,1.37.67,2.01.87.2.2-.02.26-.21.28-.66.08-1.29-.38-1.89-.14-.13-.02-.29.02-.42,0,.08-.43-.21-.25-.46-.3-1.42-.3-2.96-.54-4.31-.82-.08-.02-.19.01-.28,0l-.67-.7c-7.04-4.35-12.75-10.11-14.92-17.86-.02-.08-.53-.37-.27-.94.15-.15,2.12.4,2.48.42.21,0,.31-.14.32-.13Z"/>
  <path class="cls-2" d="M54.73,125.16s-.16.13-.34.15c-.46.04-.95-.04-1.41,0l-.07.28c.1,0,.23,0,.28.09,2.33,4.04,8.64,8.56,12.81,10.74,6.13,3.21,13.01,5.47,19.79,6.84l.17.44c1.17-.04,2.33-.21,3.49-.3.3-.02.83-.09,1.06.15-8.86.79-17.52,1.14-26.38.98l5.82-.14.49-.14c-1.67-.34-3.4-.72-5.05-1.19-11.13-3.14-21.82-8.79-27.52-18.85l-3.42-.45c-.3.43.26.79.34.95,4.31,9.15,15.3,15.97,25.02,19.02,1.34.42,1.88.47,3.28.52.27.01.56-.14.48.28-8.48-.18-16.64-.97-24.98-2.53.6-.24,1.23.22,1.89.14.19-.02.41-.09.21-.28-.64-.19-1.43-.54-2.01-.87-8.03-4.47-13.95-9.28-17.51-17.68-.08-.18-.46-.33-.53-.51-.12-.32-.15-.8-.16-1.15,9.48,1.11,18.68,2.62,28.28,3.23,1.98.12,3.98.16,5.96.28ZM41.4,142.14h-.56v.14h.56v-.14Z"/>
  <path class="cls-15" d="M63.57,144.52c.08-.42-.22-.27-.48-.28-1.39-.05-1.94-.1-3.28-.52-9.72-3.04-20.7-9.86-25.02-19.02-.08-.16-.64-.52-.34-.95l3.42.45c5.7,10.07,16.38,15.71,27.52,18.85,1.65.47,3.38.86,5.05,1.19l-.49.14-5.82.14c-.19,0-.37,0-.56,0Z"/>
  <path class="cls-2" d="M33.4,140.88c1.35.28,2.89.53,4.31.82.26.05.55-.13.46.3-1.59-.3-3.25-.58-4.77-1.12Z"/>
  <path class="cls-2" d="M93.18,143.26c-.79.08-1.59.21-2.39.28-.08-.44.22-.26.49-.28.61-.04,1.38-.26,1.9,0Z"/>
  <path class="cls-19" d="M50.66,146.49c-.27.24-.85.16-1.19.14-1.3-.09-2.74-.27-4-.56,1.73.03,3.47.25,5.19.42Z"/>
  <path class="cls-19" d="M54.73,146.91c-1.07.03-2.17-.08-3.3-.14-.27-.01-.56.15-.48-.28,1.26.12,2.53.28,3.79.42Z"/>
  <path class="cls-16" d="M157.45,40.13v2.39s-.28,0-.28,0c-.04-.84.05-1.69,0-2.53l.28.14Z"/>
  <path class="cls-26" d="M96.55,49.95c2.74-1.38,6.18-1.95,9.1-.82.23.37-.35.8-.53,1.08-.29.45-.29.73-.85,1.15-1.1.81-3.2,1.45-4.56,1.55-.79.06-1.66-.05-2.46,0-.04,0-.14-.11-.28-.14-.83-.2-1.67-.28-2.44-.69-.16-.12-.1-.52-.09-.72.38-.06.41-.35.7-.56.46-.34.89-.58,1.4-.84Z"/>
  <path class="cls-14" d="M104.26,51.35h.28c-1.77,1.55-4.93,2.08-7.3,1.54.8-.05,1.67.07,2.46,0,1.36-.1,3.46-.74,4.56-1.55Z"/>
  <path class="cls-9" d="M96.55,49.95c-.09-.18.54-.54.62-.58,2.13-.96,5.42-1.3,7.69-.79.99.22,1.25.78.75,1.74-.09.18-.89.87-1.07,1.03h-.28c.56-.41.57-.7.85-1.15.18-.27.75-.71.53-1.08-2.92-1.13-6.36-.56-9.1.82Z"/>
  <path class="cls-14" d="M95.14,50.79c-.29.21-.32.5-.7.56-.02.19-.07.59.09.72.77.4,1.61.48,2.44.69-.44.41-2.86-.49-2.95-.8-.05-.17.02-.41,0-.6.14-.02.29.02.42,0,.05-.61.11-.37.63-.7l.07.14Z"/>
  <path class="cls-11" d="M112.4,37.46c-.61.5-.67,1.08-.85,1.72-.06.2-.4.18-.28,1.03.04.25.24.18.28.31.15.53.3,1.29.75,1.68.17.15.1-.03.38.32-.39-.16-.65-.29-.93-.61-.61-.71-.98-1.88-.75-2.8.01-.05.48-.65.55-.77.23-.4.07-.61.71-.87h.14Z"/>
  <path class="cls-13" d="M117.03,42.79v.14c-.06.02-.15.2-.37.25-1.1.25-3.21.25-3.98-.67,1.44.58,2.85.81,4.35.28Z"/>
  <path class="cls-20" d="M112.26,37.46l1.23-.81c1.44-.65,3.97-.29,5.04.85.05.05.71.85.74.91.21.52.05.96.15,1.34.03.13.27.08.28.09.21.29-.24.25-.27.37-.1.34.03.66-.2,1.12-.15.29-1.45,1.44-1.77,1.59-.08.04-.32-.04-.42,0v-.14c1.18-.42,1.57-1.12,2.01-2.2.02-.05.21-.05.23-.14.05-.19.05-.88,0-1.07-.03-.1-.24-.08-.27-.2-.04-.15.04-.38-.01-.5s-.2-.11-.22-.15c-.46-.98-.47-1.03-1.49-1.51-.1-.05-.1-.22-.22-.26-1.31-.43-3.56-.2-4.66.69h-.14Z"/>
  <path class="cls-6" d="M78.87,36.34c1.9-.64,3.24-.81,4.91.42.54.41.54.93.71,1.44.04.12.24.1.27.2.05.19.04.76.01.97-.03.25-.25.18-.28.31-.23.82-.11,1.02-.86,1.63-1.34,1.09-3.02,1.33-4.65.78-.13-.04-.12-.23-.28-.32s-.47-.06-.53-.1c-.01,0,.03-.18-.05-.23-.09-.06-.26-.02-.33-.09-.04-.04-.57-.86-.59-.91-.21-.64-.22-1.81,0-2.44.02-.06.54-.71.69-.95.27-.09.69-.46.98-.7Z"/>
  <path class="cls-2" d="M86.23,143.4c.09.05.09.09,0,.14v-.14Z"/>
  <rect class="cls-15" x="40.84" y="142.14" width=".56" height=".14"/>
  <path class="cls-6" d="M112.4,37.46c1.1-.89,3.35-1.12,4.66-.69.12.04.11.21.22.26,1.01.47,1.03.53,1.49,1.51.02.04.17.04.22.15s-.03.34.01.5c.03.12.25.09.27.2.04.19.04.88,0,1.07-.02.09-.21.1-.23.14-.44,1.08-.83,1.78-2.01,2.2-1.5.53-2.91.3-4.35-.28-.29-.35-.21-.17-.38-.32-.45-.39-.6-1.15-.75-1.68-.04-.13-.24-.05-.28-.31-.12-.85.22-.83.28-1.03.19-.64.24-1.22.85-1.72Z"/>
</svg>