<?xml version="1.0" encoding="UTF-8"?>
<svg id="_레이어_1" data-name="레이어 1" xmlns="http://www.w3.org/2000/svg" viewBox="0 0 47.05 49.67">
  <defs>
    <style>
      .cls-1 {
        fill: #476b89;
      }

      .cls-2 {
        fill: #ecaa24;
      }

      .cls-3 {
        fill: #271815;
      }

      .cls-4 {
        fill: #251615;
      }

      .cls-5 {
        fill: #edaf24;
      }

      .cls-6 {
        fill: #e86b1b;
      }

      .cls-7 {
        fill: #f18b23;
      }

      .cls-8 {
        fill: #fdf9ed;
      }

      .cls-9 {
        fill: #eaa924;
      }

      .cls-10 {
        fill: #4a3418;
      }

      .cls-11 {
        fill: #4c3417;
      }

      .cls-12 {
        fill: #eead24;
      }

      .cls-13 {
        fill: #e7661a;
      }

      .cls-14 {
        fill: #edad24;
      }

      .cls-15 {
        fill: #4b3418;
      }

      .cls-16 {
        fill: #dedbd0;
      }

      .cls-17 {
        fill: #de581e;
      }

      .cls-18 {
        fill: #2e1b16;
      }

      .cls-19 {
        fill: #476d8a;
      }

      .cls-20 {
        fill: #4c3517;
      }

      .cls-21 {
        fill: #130f14;
      }

      .cls-22 {
        fill: #487fab;
      }

      .cls-23 {
        fill: #4881af;
      }

      .cls-24 {
        fill: #eeb125;
      }

      .cls-25 {
        fill: #2d1f12;
      }

      .cls-26 {
        fill: #eaac24;
      }

      .cls-27 {
        fill: #312012;
      }

      .cls-28 {
        fill: #497ea9;
      }
    </style>
  </defs>
  <path class="cls-15" d="M28.33.37c.11.12.17.31.25.46.4.72.72,1.57,1.02,2.35.09.24.16.51.22.76.14.02.26-.05.38-.1,1-.42,1.96-1.07,3.02-1.48.74-.28,1.62-.67,2.3-.09.38.33.35.76.32,1.24-.03.61-.25,1.14-.28,1.79-.02.4-.03.94,0,1.34.03.42.12.64.37.96.44.57.98,1.04,1.38,1.66,1.88,3.01,1.45,6.85-.9,9.47-.52.58-1.16,1.12-1.81,1.54.04.07.69.29.84.36,1.1.52,2.25,1.39,2.98,2.35.48.63,1.04,1.74.77,2.56-.08.23-.26.51-.41.71-1.12,1.48-2.91,1.14-4.35.34-.13-.07-.91-.63-.98-.56,0,.13.01.26,0,.39-.17,1.69-.78,3.44-1.95,4.71-.1.11-.58.49-.58.57l2.58,2.57c.63.56,1.34,1.14,2.25,1.04.03-.11-.03-.08-.06-.1-1.42-1.26-2.09-2.71-1.96-4.65.1-1.54,1.19-2.88,2.89-2.38,1.23.37,2.42,1.77,2.88,2.9.1.24.14.49.21.74.41-.22.78-.53,1.2-.75,1.55-.83,3.79-1.27,5.37-.28.6.38.84.79.78,1.51-.14,1.94-3.16,3.63-4.85,4.11-.21.06-1.37.27-1.42.32-.08.08-.04.21-.07.29-.8,2.04-1.45,3.67-3.06,5.31-1.97,2.01-4.61,3.34-7.32,4.02-.08.06.01.83,0,1.01-.18,2.67-4.03,1.79-5.57.93-.26-.14-.68-.52-.9-.61-.2-.08-2.11.25-2.5.3-1.98.22-4.02.27-6.02.23-.26,0-.43-.14-.69.04-.1.07-.13.18-.21.25-.98.88-1.84,1.45-3.24,1.04-.69-.2-1.74-1.03-2.13-1.64-.07-.12-.17-.42-.22-.48-.12-.12-1.63-.51-1.94-.62-2.15-.77-4.5-2.37-5.68-4.34s-1.46-4.12-1.02-6.35c.95-4.77,5.24-8.13,9.86-9.34,2.1-.55,4.28-.71,6.44-.61.02-.02-.01-.32,0-.39.01-.08.09-.06.09-.1.05-.23.01-.63.09-.88-1.24-.35-2.5-.78-3.64-1.39-1.36-.72-3.4-2.29-3.52-3.92-.13-1.74,1.5-2.65,3.09-2.35.12.02.74.24.77.22-.1-.14-.12-.32-.19-.47-1.41-3.27-.3-6.84,2.35-9.11.46-.4,1.42-.9,1.7-1.39.23-.4.41-.92.59-1.33.34-.77,1.05-2.68,1.75-3.1,1.3-.79,2.27.95,3.05,1.67.08.07.32.28.41.27.07-.01.57-.43.66-.52.81-.79,2.3-2.93,3.27-3.28.46-.16,1.03-.1,1.37.28ZM27.47.99s-.02-.08-.07-.09c-.12-.03-.15.09-.22.14-.05.03-.27.07-.16.18-.04.04-.16.22-.18.28-.05.03-.08.03-.14.05-.19.05-.59.63-.78.85-.32.36-.83.81-1.06,1.17-.09.04-.12,0-.14.18-.01.02-.03.03-.05.05-.18-.03-.14.08-.18.14-.02.03-.11.05-.09.14-.02.01-.03.03-.05.05-.16-.05-.14.09-.23.17-.1.09-.09.05-.19.16-.03.04-.06.06-.09.09-.05,0-.09.03-.14.05-.36.16-.39.27-.85.23-.29-.02-.4-.19-.66-.28-.01-.01-.03-.03-.05-.05,0,0,.02-.07,0-.09-.03-.02-.1,0-.13,0-.05-.02-.06-.05-.09-.09-.09-.11-.08-.08-.14-.14-.04-.04-.1-.1-.14-.14-.01-.02-.03-.03-.05-.05-.31-.33-.56-.71-.92-1.01-.02-.01-.03-.03-.05-.05.03-.06-.19-.23-.23-.26-.06-.03-.08.03-.09.03-.03,0-.07,0-.09,0,0,0-.01-.05-.04-.03-.05.04-.1.17-.15.23-.4.5-.7,1.27-.96,1.87-.28.64-.59,1.3-.82,1.97,0,.01,0,.03,0,.05-.15.03-.34.31-.32.41v.05c-.12.11-.31.33-.41.41-.24-.03-.4.22-.57.33-.06.04-.14.03-.16.04-.07.03-.06.05-.09.09,0,0,.01.06,0,.08-.02.01-.06.02-.08,0,0,0,0-.07-.09-.05,0,.03,0,.07,0,.09-.03.07-.13.24-.23.23,0,0,0-.07-.09-.05,0,.03,0,.08,0,.09-.01.02-.03.03-.05.05-.09-.02-.1.06-.14.09-.06.05-.18.06-.18.23-.01.02-.03.03-.05.05-.2.08-.26.26-.38.4-1.22,1.39-1.86,3.03-1.78,4.95.05,1.13.5,2.63,1.24,3.42.33.35.67.77.96,1.15.18.23.44.42.69.6.18.13.44.28.64.41.05.03.09.06.14.09-.11.02.14.15.14.15.2.12.44.27.64.37.27.14.87.22.92.55.11.88-1.02.28-1.41.12-.06-.02-.16-.1-.2,0-.3-.15-.57-.36-.87-.46-.15-.2-.4-.31-.6-.46h.09c.01-.07-.11-.07-.18-.09-.08-.06-.13-.13-.14-.14l-.34-.35-.44-.29s-.1-.1-.14-.14c-.08-.09-.13-.14-.28-.23-.08-.05-.58-.29-.6-.37l.04-.04c-.7-.35-1.51-.8-2.33-.61-.15.04-.41.14-.47.28,0,0-.05.06-.09.09-.05-.12-.12.01-.15.06-.24.35-.39.45-.36.93.02.28.26.89.41,1.14.05.08.24.21.28.34.03.02.04-.03.04-.03.03,0,.06,0,.09,0,.35.5.83.89,1.33,1.24l.42.34c.18.1.36.18.55.26.01,0,.03,0,.05,0l.58.36c.31.13.62.25.94.37.13.05.28.13.41.17.16.06,1.2.39,1.27.38.18-.02.16-.34.22-.4.01-.01.07,0,.1-.03.02-.01.02-.06.05-.07.19-.04.42.04.61.04.02.01.03.03.05.05.09.3-.02.59-.1.88-.12.44-.25.9-.27,1.39,0,.13-.04.46.06.53,1.81.27,3.58.72,5.31,1.33.01,0,.03,0,.05,0l.36.22c.06.06.17.01.19.01.03,0,.06,0,.09,0,0,0,.04.06.09.05,0-.03,0-.08,0-.09.01-.03.02-.03.05-.05.02,0,.06,0,.09,0l-.05-.05c.02-.08.09-.07.14-.09.22-.11.36-.17.62-.14.18.02.1.14.25.14,0,.01,0,.03,0,.05.02.14-.03.45-.12.55-.04.04-.11.04-.14.06-.16.15-.32.29-.48.44-.29.28-.55.56-.78.91l-.38.82c-.31.09-.63.09-.94.18-.08.02-.47.17-.51.21-.03.03,0,.07,0,.08-.04.05-.12.11-.14.14-.07.09-.21.23-.18.34,0,.03.08.02.09.06.02.07,0,.17.02.25.1.28.25.48.39.71.06.07.05-.04.05-.07.1.13.25.29.37.41l-.04.07c.04.07.2.13.23.16.07.06.08.07.14.14.24.29.76.59,1.15.73.01,0,.03,0,.05,0,.37.33,1.06.39,1.53.31.62-.11,1.52-.56,2.01-.95.02-.01.03-.03.05-.05.08-.03.21-.07.28-.12.06-.04,0-.06,0-.06.42-.39,1.8-1.39,2.3-1.65.05-.03.16-.04.18-.06.02-.02,0-.07,0-.08.05-.06.06-.1.14-.14.03-.01.11.02.13,0,.02-.02,0-.07,0-.09.03-.06.05-.06.09-.09s.1-.06.14-.09c.51-.42,1.08-1.24,1.35-1.85.38-.88.69-2.17.72-3.13,0-.14.03-.34-.1-.41-.37-.2-1.36-.17-1.62-.44-.23-.24-.02-.54.28-.59.7-.12,1.78.27,2.45.49,1.05.54,2.4,1.79,3.62,1.44.16-.05.51-.17.56-.34,0,0,.09-.09.09-.09.13-.03.15-.15.18-.18,0,0,.07.01.09-.03.08-.13.06-.27.09-.39.01-.04.08-.03.09-.07.02-.07.02-.42,0-.49,0-.03-.08-.03-.09-.07-.22-.81-.6-1.37-1.24-1.89-.34-.27-.69-.55-1.06-.78l-.34-.28c-.49-.24-.98-.49-1.51-.65-.22-.07-.76-.14-.91-.24-.02-.01-.19-.26-.19-.27-.03-.23.1-.16.1-.35.03-.03.04-.06.09-.09.14-.03.87-.44.91-.52,0-.02-.04-.03-.04-.03.02-.03.03-.06.05-.09h.23s0-.07,0-.09c.04-.11.05-.12.18-.18.02-.01.1.02.13,0,.02-.02,0-.08,0-.09.02-.02.02-.03.05-.05.13-.1.1-.05.23-.18.05-.06.08-.08.14-.14.04-.03.06-.06.09-.09,1.64-1.54,2.52-3.36,2.39-5.67-.07-1.22-.53-2.56-1.24-3.54-.11-.15-.05-.23-.23-.3-.06-.11-.14-.21-.19-.32-.03,0-.04.04-.04.05-.03,0-.06,0-.09,0-.05-.17-.22-.28-.33-.41l.05-.02c-.03-.05-.21-.32-.24-.33-.03-.02-.07,0-.08,0-.27-.41-.43-.72-.5-1.22-.02-.14.02-.32,0-.45,0-.04-.08-.01-.09-.1-.02-.13-.02-.52,0-.65.01-.09.09-.04.1-.13.08-.63,0-1.44.18-2.06.01-.04.08-.02.09-.1.02-.14-.01-.33-.01-.48-.1-.15-.89.19-1.05.25-.82.31-1.68.74-2.47,1.12-.68.33-1.43.97-2.17.37-.54-.82-.72-1.76-1.09-2.65-.02-.05-.09-.05-.1-.09-.15-.36-.1-.55-.42-.84-.02-.01-.03-.03-.05-.05ZM13.92,27.12c-.2.01-.22.1-.51.09-.62-.01-1.17.1-1.79.23-.28.06-.55.11-.83.18-.13-.04-.37.03-.51.07-.9.23-1.92.62-2.76,1.03s-1.55.88-2.25,1.42c-.09.07-.19.15-.28.23-.02.01-.03.03-.05.05-.31.26-.59.49-.87.78-.27.27-.5.54-.74.83-.22.27-.44.51-.6.83-.76.85-1.4,2.72-1.56,3.86-.05.36-.03.73-.14,1.08,0,.05.1,0,.14.02.21.08.42.16.64.23,2.05.64,4.27,1.09,6.39,1.42.24.04.49.06.74.09.38.05.76.14,1.15.18,1.9.23,4.23.45,6.13.37.21,0,.5-.05.71-.09.14.01.25-.01.4.04.01,0,.24.15.25.17.14.14.34.57.47.75.34.45.78.85,1.18,1.26.04.04.05.11.14.09.04.05.07.06.09.09.07.08.11.15.23.18.05.06.08.08.14.14.07.06.1.14.23.14.39.36.85.64,1.33.87-.05-.26-.2-.83,0-1.04.23-.24.63-.14.87.03.08.18.06.4.09.57.17.82.42,1.53.87,2.23.38.58,1.03,1.23,1.61,1.61.87.58,2.88,1.34,3.89.93.53-.22.4-1.19.33-1.66-.02-.16-.11-.58-.18-.69-.07-.28-.12-.62-.23-.88-.14-.32-.68-1.17-.92-1.41-.09-.09-.15-.12-.23-.18-.04-.14-.16-.2-.28-.28-.02-.02-.03-.03-.05-.05-.28-.27-.72-.47-.51-.92.13.02.08-.07.12-.09.27-.15.39-.11.66,0,.09.04.18.1.28.14.02.01.03.03.05.05.16.13.29.27.44.41.06.05.14.09.21.14.1.14.15.19.28.32.07.07-.03.08.14.14.18.4.55.83.75,1.25.1.22.14.47.22.69.02.06.19.18.13.36.03.03.6-.07.64-.18.16-.04.61-.14.69-.18.63-.18,1.24-.45,1.84-.73s1.57-.79,2.07-1.24c.02-.01.03-.03.05-.05s.03-.03.05-.05c.19-.06.35-.24.51-.37.02-.01.03-.03.05-.05.22-.18.51-.35.64-.6.65-.58,1.24-1.25,1.65-2.02.11.02.1-.05.13-.12.52-1.06,1.14-2.04,1.34-3.23.09-.23.14-.47.32-.66.74-.17,1.47-.29,2.2-.52.07-.02.16.02.14-.11,1.09-.32,1.98-.84,2.8-1.7.37-.39.76-.79.82-1.36.02-.16.01-.2-.04-.34-.09-.24-.22-.26-.41-.37.02-.11-.05-.1-.12-.13-1.16-.54-2.57-.13-3.65.41-.64.32-.92.63-1.47,1.01-.17.12-.47.33-.67.36-.25.04-.42.01-.62-.13-.33-.24-.19-1.01-.37-1.39-.14-.15-.17-.44-.27-.63-.13-.23-.55-.85-.74-.96-.03-.05-.21-.34-.24-.36-.05-.03-.11,0-.13-.01-.09-.17-.11-.22-.32-.28-.03-.03-.05-.05-.09-.09-.55-.44-1.15-.45-1.56.14-.37.53-.42,1.39-.36,2.04.05.57.46,1.92.91,2.23.05.09.08.14.14.23.16.24.51.56.74.73.09.07.18.15.28.18,0,.02-.02.06,0,.08.02.02.06,0,.08,0,.17.47-.1.71-.41,1.01-.28.15-.42.22-.74.28-.81.05-1.53-.16-2.21-.6-.96-.63-1.66-1.54-2.48-2.34-.19-.18-.37-.35-.55-.53-.05-.06-.1-.11-.19-.11-.02-.01-.03-.03-.05-.05-.03-.03-.06-.06-.09-.09-.02-.02-.03-.03-.05-.05-.08-.07-.16-.09-.21-.19-.08,0-.15.09-.21.14-.62.49-1.26.95-1.93,1.38-1.06.68-2.33,1.5-3.65,1.28-.26-.04-.54-.18-.81-.23-.98-.47-2.14-1.2-2.76-2.11-.09-.13-.21-.37-.28-.52-.19-.4-.37-.86-.2-1.32,0-.02.15-.26.16-.27.27-.4.65-.6,1.1-.73.24-.07.48-.13.73-.14.03-.13.05-.26.1-.38.04-.09.12-.18.18-.26.07-.11.14-.23.23-.32,0-.01.18-.06.18-.18-1.5-.61-3.07-1.13-4.69-1.29-.01,0-.03-.04-.05-.05-.45-.11-1.14-.15-1.61-.18-.03,0-.06,0-.09,0-.19-.01-.5-.05-.67-.05h-1.15c-.18,0-.5.03-.71.05ZM17.83,42.19c.13-.06-.03-.11-.06-.15-.1-.1-.27-.28-.35-.39-.1-.13-.41-.68-.53-.7-3.24.04-6.49-.18-9.68-.75-2.07-.37-4.1-.89-6.12-1.46-.02,0-.06.32-.05.37.02.08.11.08.12.12.27,1.22.41,1.86,1.1,2.91.14.21.2.42.41.55.12.29.28.45.51.6.41.27.83.79,1.29,1.12.42.3,1.47.77,1.74,1.04.15.15.79.44,1.08.55,1.56.59,3.58,1,5.24,1.19,3.48.4,6.99.14,10.45-.32,0-.03,0-.06,0-.09-.02-.18-.23-.28-.31-.4-.21-.27-.44-.63-.6-.93-.07-.12-.1-.34-.19-.44-.11-.13-.61-.3-.79-.4-.23-.12-.53-.26-.72-.36-.45-.24-.85-.55-1.24-.87l.05-.02c-.06-.08-.13-.13-.23-.12-.07-.07-.11-.08-.18-.18-.02-.03.06-.13-.14-.09-.02-.02-.03-.03-.05-.05,0-.09-.07-.18-.16-.18l-.02.05c-.2-.19-.37-.4-.55-.6ZM11.12,48.43c.62.33,1.37.43,1.93-.09.02-.01.03-.03.05-.05l.28-.23c-.37-.04-.74-.05-1.1-.09,0,0-.01-.04-.09-.05-.03,0-.06,0-.09,0-.19-.02-.39-.08-.57,0l-.05-.1c-.22.15-.3-.04-.33-.04-.19-.05-.39,0-.54,0-.03,0,0-.13-.09-.09-.06.02-.08.07-.05.14.14.27.4.45.67.6Z"/>
  <path class="cls-6" d="M5.38,11.55c.38.17.47-.15.6-.38.21-.39.6-1.34.94-1.59.44-.32.62.03.62.47,0,.41-.19.77-.32,1.12s-.21.65.19.8c.31.12.57-.14.72-.38,0,.03,0,.06,0,.09,0,.19.03.34.2.46.16.11.44.09.62.09-.27.54-.8.87-1.26,1.24-.86.69-1.45,1.02-1.91,2.08-.01.03-.08.02-.09.06-.02.09,0,.2,0,.29-.15-.18-.23-.33-.46-.46.45.03.51-.37.44-.74,0-.04-.11-.3-.13-.31-.03-.02-.07,0-.08,0-.18-.43-.54-.86-.75-1.3-.24-.5-.51-1.32-.48-1.88.01-.24.09-.58.4-.4.02.02.03.03.05.05.09.09.18.18.28.28.12.12.24.33.41.41Z"/>
  <path class="cls-11" d="M4.92,15.23c-.3-.33-.58-.77-.79-1.16-.52-.95-.93-2-.81-3.13.09-.85.76-1.24,1.57-.93.09.03.47.29.5.26,0-.04,0-.09.02-.12.53-.76.92-1.74,2.11-1.57.65.09.8.47.96,1.01.01.04.08.03.09.07.02.07.02.6,0,.67,0,.03-.08.03-.09.06-.07.3-.07.5-.19.84,0-.09-.12.06-.12.06-.06.13-.08.32-.18.44-.3.37-.94.18-.75-.33.02-.06.12-.16.17-.3.13-.39.29-.92.25-1.32,0-.02-.2-.29-.23-.32-.07-.06-.16-.1-.25-.1-.01,0-.23.13-.24.14-.17.14-.53.63-.63.82-.18.34-.28.75-.47,1.09l-.44.14c-.17-.08-.3-.29-.41-.41l.04-.09c-.17-.02-.14-.24-.32-.19-.02-.02-.03-.03-.05-.05-.13-.13-.16-.21-.35,0,0,0-.14.19-.14.2-.03.08-.03.47-.01.55.02.07.07.2.1.36.18.86.5,1.33.94,2.04.04.07.16.39.2.42.03.02.07,0,.08,0,.11.26.32.7.05.93-.08.07-.42.03-.5-.03-.04-.03-.07-.19-.11-.08Z"/>
  <path class="cls-10" d="M8.13,11.69c.46-.23.95-.39,1.44-.13.42.22.43.74.23,1.13-.59,1.12-2.18,1.73-2.91,2.94-.14.24-.11.5-.44.61-.27.08-.57-.03-.74-.24-.02-.03-.01-.07-.02-.08.01-.09-.02-.2,0-.29,0-.04.08-.04.09-.06.46-1.06,1.05-1.39,1.91-2.08.46-.37,1-.7,1.26-1.24-.19,0-.46.02-.62-.09-.18-.12-.21-.27-.2-.46Z"/>
  <path class="cls-25" d="M4.64,10.82c-.31-.17-.39.17-.4.4-.03.56.24,1.38.48,1.88.21.44.57.87.75,1.3.01,0,.06-.01.08,0,.02.01.12.27.13.31.07.37.01.77-.44.74-.13-.01-.31-.07-.32-.23.03-.11.06.05.11.08.08.06.42.1.5.03.26-.24.06-.67-.05-.93-.01,0-.06.01-.08,0-.04-.03-.16-.35-.2-.42-.44-.71-.76-1.18-.94-2.04-.03-.16-.08-.29-.1-.36-.02-.08-.01-.48.01-.55,0-.01.13-.19.14-.2.19-.21.21-.13.35,0Z"/>
  <path class="cls-25" d="M5.38,11.55l.44-.14c.19-.34.29-.75.47-1.09.1-.2.46-.68.63-.82.01-.01.23-.14.24-.14.09,0,.18.04.25.1.03.03.23.3.23.32.05.4-.12.93-.25,1.32-.05.14-.14.25-.17.3-.19.51.45.69.75.33.1-.12.12-.31.18-.44,0,0,.12-.15.12-.06-.05.15-.04.21-.14.37-.15.24-.41.5-.72.38-.4-.15-.32-.47-.19-.8s.31-.71.32-1.12c0-.44-.18-.79-.62-.47-.34.25-.73,1.2-.94,1.59-.13.23-.22.55-.6.38Z"/>
  <path class="cls-7" d="M26.83,1.5c.24-.13.33-.41.6-.46,0,.12.1.19.15.29.46.85.67,1.9,1.13,2.77.15.27.1.34.37.57.2.35.6.37.98.31.44-.07,1.15-.56,1.55-.77.01,0,.03-.04.05-.05l.41-.12c.63-.32,1.28-.61,1.94-.89.08-.02.62-.16.64-.14,0,.23,0,.47-.05.69-.11.63-.25,1.2-.28,1.91-.02.42-.01.85.09,1.26,0,.02,0,.03,0,.05s0,.03,0,.05c.02.24.17.69.32.89.05.06.11.05.14.08.09.08.09.08.18.14.08.12.17.24.28.37s.27.24.33.41c.03,0,.06,0,.09,0,0,.09.09.11.12.16.06.08-.05.06.11.12.11.2.24.46.37.69l.28.65c.27.19.11.76.45.86.02.06.03.15.05.23-.09.04-.04.16-.03.23.04.21.09.41.12.62.06.42.15,1.07.1,1.52-.01.09-.09.06-.09.1-.05.24-.03.63-.05.89-.02.09-.03.2-.05.28l-.74,1.67c-.21.35-.5.67-.75,1.01-.06.07-.11.17-.12.26-.18.11-.34.3-.51.46-.12.11-.32.21-.37.37-.01,0-.03.03-.05.05-.11.06-.03-.06-.14.09-.02.02-.03.03-.05.05-.13.12-.3.13-.41.32-.02.03-.03.06-.05.09-.28.2-.6.34-.87.55-.05.04-.06.06-.09.09,0,0-.06,0-.08.01-.07.07-.07.39-.06.49,0,.05,0,.07.05.11.25.27.94.32,1.31.44.86.29,2.04.99,2.69,1.6,0,0,0,.13.12.14l.02-.04c.04.05.07.11.09.14.01.02.03.03.05.05s.03.03.05.05l.34.54c.47.65.69,1.3.26,2.04-.97.86-1.84.46-2.85-.09l-.26-.11c-.22-.2-.5-.38-.75-.53-.66-.42-2.12-.9-2.91-.78-.41.06-.66.54-.35.85.23.23,1.3.31,1.65.44,0,.1.02.24,0,.33,0,.02-.22.09,0,.21-.01.12-.03.24-.05.37-.11.03-.08.13-.09.21-.24,1.41-.51,2.26-1.29,3.47-.07.11-.25.41-.33.49-.05.05-.12.05-.22.15-.03.04-.06.1-.09.14-.04.03-.06.03-.09.09l-.14.09c-.08.04-.09.08-.14.14-.09,0-.15.06-.18.14-.49.27-1.87,1.26-2.3,1.65-.13,0-.19.12-.28.18-.02.01-.03.03-.05.05l-.92.46-1.01.35c-1.09.24-1.77-.39-2.62-.81-.06-.03-.11-.09-.18-.09-.06-.07-.07-.08-.14-.14.02-.16-.17-.21-.18-.23-.11-.13-.27-.29-.37-.41,0-.09.01-.1-.03-.18-.18-.36-.33-.39-.29-.9.03-.31.07-.21.26-.33.04-.03.05-.08.09-.1.33-.16.7-.09,1.03-.15.02,0,.28-.17.3-.18.02-.02.11-.21.14-.26.21-.43.4-.87.73-1.24.21-.23.81-.6.89-.83.04-.03.12-.02.15-.1.19-.46-.33-.87-.76-.71-.29.1-.41.34-.68.42-1.23-.54-2.53-.96-3.85-1.25-.31-.07-.62-.09-.93-.15-.35-.07-.7-.19-1.06-.18-.03-.03.03-.8.05-.89.04-.18.13-.43.16-.67.01-.07.06-.18-.02-.23.09-.32.26-.53.14-.87s-.73-.37-.97-.12c-.03.04-.03.09-.04.12-.04.06-.1.1-.12.19-.25.07-2.25-.72-2.64-.88-.19-.07-.37-.15-.55-.23-.01,0-.03,0-.05,0-.29-.24-.65-.38-.96-.6-.51-.35-.98-.74-1.33-1.24-.1-.13-.36-.46-.43-.61-.28-.61-.36-1.46.27-1.87.7-.46,1.53-.12,2.23.14.15.06.31.1.46.18.01.08.52.32.6.37.07.1.15.22.28.23.03.04.13.13.14.14.02.03.03.07.05.09.31.39.85.73,1.26,1.09l.31.15c.3.1.58.31.87.46.2.1.45.24.64.32.35.15.54.29.87.05.02-.01.03-.03.05-.05.21.05.24-.3.23-.44-.02-.23-.1-.22-.28-.3-.16-.17-1.23-.62-1.58-.84-.04-.03-.14-.14-.17-.04-.21-.13-.46-.29-.64-.41-.19-.24-.44-.42-.69-.6-.29-.37-.63-.8-.96-1.15,0-.03,0-.06,0-.09-.05-.26-.15-.23-.24-.38-.37-.62-.66-1.61-.77-2.33-.02-.16.03-.37,0-.52,0-.01-.14-.13-.14-.22,0-.24,0-.49,0-.73.23-.04.12-.29.14-.48.12-.89.4-1.81.93-2.52l.12-.4c.08-.11.13-.15.2-.24.08-.11.1-.29.26-.31,0,0,.01.07.05.05.01,0,.07-.17.12-.23.61-.71,1.28-1.09,2-1.65.11-.08.3-.3.41-.41.91-.87,1.06-2.34,1.74-3.39l.24-.56.27-.44c.25-.24.5.37.74.44.11.13.31.28.44.43.08.08.08.23.25.26.01.02.03.03.05.05.02.1.08.13.14.18.04.04.08.08.14.09.03.04.04.07.09.09l.14.09s.04.03.05.05c.03.04.06.1.09.14.37.39.91.34,1.36.1l-.03-.05s.1-.06.14-.09c.05-.04.06-.06.09-.09s.06-.06.09-.09c.16-.05.29-.21.41-.32.02-.01.03-.03.05-.05.03-.03.06-.06.09-.09.08-.08.09-.08.18-.18.01-.02.03-.03.05-.05.05-.07.08-.08.14-.18.27-.12.19-.23.29-.31.15-.13.33-.28.49-.43.21-.19.22-.25.39-.46.1-.12.28-.18.3-.37.01-.02.03-.03.05-.05.15.04.17-.11.23-.23.03-.06.04-.13.09-.18.05-.01.09-.02.14-.05ZM20.21,12.47s0-.15-.03-.22c-.25-.61-.91-.89-1.5-.51-.05.03-.03.09-.03.09,0,0-.05,0-.07.02-.17.15-.31.34-.34.58-.17.46-.13,1.02.32,1.29.02.02.03.03.05.05.53.53,1.29.08,1.55-.49.03-.07.15-.3.15-.32,0-.11-.11-.29,0-.45,0-.04-.09-.02-.09-.03ZM26.6,12.24s-.16.13-.18.18c-.17.31-.19.92-.02,1.24.05.09.11.07.15.1.09.08.15.12.23.18.19.15.15.23.49.27.3.04.24-.06.33-.08.08-.02.17-.02.24-.05.59-.24.74-.93.57-1.52-.04-.14-.05-.25-.21-.27-.23-.58-1.09-.6-1.51-.2-.06.06-.06.12-.1.16ZM18.45,14.46c-.66-.78-2.17-.84-2.9-.15-.18.17-.41.61-.43.85-.07.66.53,1.16,1.11,1.31.43.11.85.11,1.28-.02.33-.1.85-.43,1.03-.72.2-.33.16-.98-.09-1.27ZM31.13,14.74c-.76-.82-2.55-.81-3.27.08-.02.03-.25.42-.25.44-.02.07-.02.41,0,.49,0,.04.08.04.09.07.06.21.04.3.19.49.44.55,1.27.73,1.95.66,1.09-.1,2.23-1.23,1.29-2.23ZM23.94,14.54c-.68.14-1.45.22-2.13.13-.34-.04-.68-.27-1.02,0-.38.3-.34.66-.25,1.1.09.47.48,1.08.87,1.38.16.12.12.06.28.23.55.6,2.51.87,3.08.28,0,0-.02-.07,0-.09.04-.03.2,0,.27-.14.03-.01.06-.03.09-.05.35-.13.47-.42.64-.75,0-.01.25-.16,0-.17.02-.05.05-.05.09-.18.11.02.1-.05.12-.13.09-.36.11-1.14-.01-1.48,0-.02-.14-.34-.2-.19,0,0-.06-.06-.09-.09-.07-.08-.12-.13-.23-.16-.37-.1-1.11.22-1.52.3Z"/>
  <path class="cls-1" d="M13.92,27.12c-.02.15.06.09.15.08,1.31-.11,2.54.01,3.83.15.08,0,.2.04.25-.04.02,0,.04.04.05.05.38.08.8.16,1.19.25,1.1.26,2.19.57,3.24.99l.07.23c-.09.1-.16.22-.23.32-.07-.12-.11.01-.14.07-.04.08-.19.47-.21.49-.05.04-.4.08-.52.11-.08.02-.16,0-.14.11-.45.13-.83.34-1.1.73-.01-.08-.12,0-.14.03-.19.36-.18,1.08,0,1.45.02.05.1.06.13.11.07.15.1.34.19.49.02.03.13.12.14.03.62.91,1.77,1.64,2.76,2.11,1.68.81,2.95-.05,4.35-.9,0,0,.19-.14.1-.15.67-.43,1.31-.89,1.93-1.38l.02.05c.18-.12.21-.03.39,0,.02.01.03.03.05.05l.09.09s.03.03.05.05c.16.16.43.4.62.6.03.03.04.18.12.04.82.8,1.52,1.71,2.48,2.34l.19.2c.63.36,1.29.52,2.02.39.32-.06.46-.12.74-.28.02,0,.07.02.12-.01.02-.01.26-.26.27-.28.12-.18.26-.62.02-.72,0-.02.01-.06,0-.08-.03-.03-.06,0-.08-.01-.04-.13-.12-.17-.25-.23l-.02.05c-.23-.17-.58-.5-.74-.73l.04-.08c-.09,0-.07-.11-.1-.13-.03-.03-.07-.01-.07-.02-.06-.11-.15-.22-.2-.33-.39-.73-.7-1.67-.67-2.54,0-.21.07-.73.14-.92.04-.11.11-.1.14-.15.04-.08.03-.23.09-.33.11-.2.4-.35.62-.37.27-.02.52.1.75.22.02.01.09.15.14,0,.05.04.06.06.09.09.12.11.08.17.32.28.05.1.27.31.37.37.22.3.48.75.69,1.01.03.04.3.81.33.89.08.28.06.87.23,1.06.03.04.1.05.13.07,0,0-.03.06.06.11.41.21.99-.03,1.23-.38.55-.38.83-.69,1.47-1.01.01.07.15,0,.18-.02,1.01-.52,2.54-.82,3.58-.25.19.11.32.13.41.37-.07.09,0,.18,0,.29-.06.4-.34.83-.59,1.13-.07.08-.16.18-.18.29-.82.86-1.71,1.38-2.8,1.7-.31.09-.64.19-.96.26-.42.1-1.38.16-1.62.51-.1.14-.07.33-.09.47-.11.13-.09.31-.14.47-.35,1.01-.83,2-1.33,2.93-.41.77-1,1.44-1.65,2.02-.14.12-.37.27-.49.38-.05.05-.1.16-.15.21-.02.01-.03.03-.05.05l-.5.29s0,.08,0,.08c-.02.01-.03.03-.05.05h-.09s.05.05.05.05c-.5.45-1.45.94-2.07,1.24-.02-.06-.16,0-.19.01-.56.25-1.03.45-1.61.63-.05.02-.03.09-.03.09-.08.05-.53.15-.69.18-.18.04-.38.04-.55.14-.12-.39-.26-.82-.45-1.18-.11-.23-.33-.48-.47-.68-.1-.14-.1-.33-.28-.39-.03-.06-.09-.22-.14-.14-.12-.13-.17-.18-.28-.32-.09-.11-.25-.3-.37-.39-.06-.05-.2-.12-.28-.16-.02-.01-.03-.03-.05-.05-.08-.08-.14-.14-.25-.18l-.02.04c-.27-.11-.39-.15-.66,0-.05.03,0,.11-.12.09,0,0-.01-.05-.04-.05-.1.21-.13.4.03.59.06.08.14.06.2.12.11.1.13.26.32.26.02.02.03.03.05.05.1.1.13.15.28.28.08.07.14.1.23.18l.15.33c.28.37.61.91.78,1.34.07.18.07.45.13.59.02.06.09.03.09.03.08.11.16.53.18.69-.15.45.12,1.01-.14,1.43-.03.05-.2.19-.26.21-1.02.23-2.57-.22-3.45-.76l-.38-.15c-.58-.38-1.23-1.03-1.61-1.61l-.07-.27c-.35-.55-.54-1.13-.66-1.78-.03-.18-.04-.4-.05-.58-.07-.04-.12-.13-.18-.17-.24-.17-.64-.26-.87-.03-.2.2-.05.78,0,1.04-.48-.23-.94-.51-1.33-.87-.08-.08-.1-.17-.23-.14-.06-.05-.08-.08-.14-.14-.06-.07-.04-.17-.23-.18-.02-.03-.06-.05-.09-.09-.01-.01.02-.12-.12-.14l-.02.04c-.39-.41-.83-.8-1.18-1.26-.13-.17-.34-.61-.47-.75-.01-.01-.23-.16-.25-.17-.14-.05-.26-.03-.4-.04-.78-.06-1.65.03-2.46,0-1.46-.04-2.94-.2-4.39-.37-.24-.03-.47-.06-.71-.09-.11-.01-.33-.05-.44,0-.24-.03-.49-.05-.74-.09l-6.39-1.42c-.22-.07-.43-.15-.64-.23.01-.35,0-.76.05-1.1.05-.39.28-1.14.41-1.54.26-.83.73-1.56,1.11-2.31.14-.15.19-.26.32-.42.09-.12.31-.21.27-.4.24-.29.47-.56.74-.83.02.09.12,0,.14-.03.25-.27.52-.46.73-.75.02-.01.03-.03.05-.05.14.03.21-.14.32-.21l-.05-.02c.7-.55,1.45-1.03,2.25-1.42l.43-.1c.89-.42,1.87-.75,2.84-1,.27-.07.55-.12.83-.18l1.79-.23c.29,0,.3-.08.51-.09ZM16.31,36.35c-.06-.14-.1-.24-.24-.34-.48-.32-1.03-.22-1.41.19,0,0-.12.19-.04.2-.02.03-.07.1-.09.14-.04.06-.18.25-.18.26-.04.19-.05.62,0,.81.01.04.07.04.09.07.07.19.04.21.19.38.28.32.78.62,1.21.4.05-.03.06-.07.08-.08.24.04.16-.06.18-.09.01-.02.03-.03.05-.05l.28-.22c.18-.38.28-.83.18-1.27,0-.03-.07-.03-.09-.07-.03-.09-.03-.22-.09-.3-.04-.05-.09-.02-.09-.03Z"/>
  <path class="cls-8" d="M2.25,42.09c-.33-.7-.72-1.41-.91-2.15-.09-.36-.13-.75-.16-1.11,1.45.42,2.91.82,4.39,1.13,3.73.78,7.55,1.12,11.36,1.08.17.31.39.64.65.88.03.16.21.23.26.27.18.2.35.41.55.6.05.04.11.07.18.14.02.01.03.03.05.05.04.04.05.1.14.09.07.1.11.11.18.18.08.08.12.09.18.14.39.32.79.63,1.24.87.21.18.47.32.72.45.22.12.67.26.8.45.07.12.1.34.17.46.12.21.51.8.67.96.07.07.23.07.22.2-.45.05-.89.13-1.33.18-.03-.15.07-.08.16-.09.16-.02.44-.01.53-.14-.66-.18-1.35-.37-2-.6-2.77-.98-5.38-2.57-6.92-5.09l-.77-.05s.13.37.16.42c.04.08.1.09.12.12,1.57,2.74,4.53,4.48,7.51,5.33l.05.15c.34,0,.75-.15,1.08-.05-2.11.26-4.17.38-6.29.32.05-.08.17-.05.25-.05.37,0,.74.01,1.1,0,.06,0,.17.03.16-.05-.39-.12-.82-.25-1.19-.39-3.06-1.19-4.96-2.96-6.43-5.84-.03-.06-.07-.3-.1-.33l-.84-.15c-.1.11.05.14.06.17.13.3.2.55.34.85.91,1.94,2.29,3.57,4.15,4.71.59.36,1.59.95,2.24.97.09,0,.18-.05.16.09-1.51-.05-3.03-.2-4.51-.47-.34-.06-.73-.13-1.05-.26l.28-.05c-.08,0-.13-.03-.19-.07-2.21-1.45-3.74-3.45-4.6-5.88-.08-.21-.13-.49-.18-.71l-.82-.12c.09.14.05.36.09.5.7,2.4,1.67,3.84,3.51,5.59.06.06.19.19.21.28-.55-.12-1.11-.49-1.65-.64-.27-.26-1.32-.74-1.74-1.04-.46-.33-.88-.86-1.29-1.12l-.42-.59s-.07,0-.08,0c-.07-.18-.17-.29-.28-.48-.04-.06-.02-.15-.13-.12Z"/>
  <path class="cls-25" d="M2.25,42.14c-.7-1.05-.83-1.68-1.1-2.91,0-.04-.1-.04-.12-.12-.01-.05.03-.37.05-.37,2.02.57,4.05,1.09,6.12,1.46,3.19.56,6.44.79,9.68.75.11.02.43.57.53.7.09.11.25.3.35.39.03.03.19.08.06.15-.04-.05-.23-.12-.26-.27-.26-.24-.48-.56-.65-.88-3.82.05-7.63-.3-11.36-1.08-1.48-.31-2.94-.71-4.39-1.13.03.37.07.76.16,1.11.19.73.58,1.45.91,2.15v.05Z"/>
  <path class="cls-19" d="M11.12,48.43c-.27-.14-.52-.32-.67-.6-.03-.07,0-.11.05-.14.09-.03.06.09.09.09.15,0,.35-.05.54,0,.03,0,.11.19.33.04l.05.1c.18-.08.38-.02.57,0-.03.15.08.08.16.09.33.04.66.09.99.09-.09.04-.13.17-.14.18-.01.02-.03.03-.05.05l-.45.22-.5.1-.98-.22Z"/>
  <path class="cls-27" d="M7.86,46.09s.06,0,.09,0c.04.06.11.09.18.09.03,0,.07,0,.09,0,.02.04.06.03.09.05.05.02.09.03.14.05.25.09.76.26,1.01.28.03,0,.06,0,.09,0,.32.13.71.2,1.05.26,1.48.28,3.01.42,4.51.47.03,0,.06,0,.09,0,2.12.06,4.18-.06,6.29-.32.03,0,.06,0,.09,0,.44-.05.89-.14,1.33-.18h.05s0,.06,0,.09c-3.46.46-6.97.72-10.45.32-1.66-.19-3.68-.6-5.24-1.19-.29-.11-.92-.4-1.08-.55.54.15,1.11.53,1.65.64Z"/>
  <path class="cls-4" d="M29.13,4.62c.74.6,1.49-.05,2.17-.37.79-.38,1.64-.8,2.47-1.12.16-.06.95-.4,1.05-.25,0,.15.03.34.01.48-.01.08-.08.06-.09.1-.18.62-.1,1.43-.18,2.06-.01.09-.09.04-.1.13-.02.13-.02.52,0,.65.01.08.09.06.09.1.03.12-.01.3,0,.45.07.5.23.81.5,1.22.01,0,.05-.01.08,0,.03.02.21.28.24.33l-.05.02c-.1-.13-.19-.25-.28-.37-.1-.06-.09-.06-.18-.14,0-.15-.11-.17-.16-.27-.07-.15-.23-.56-.25-.69,0-.02-.02-.04-.05-.05,0-.02,0-.03,0-.05-.05-1.17.06-2.03.23-3.17.04-.26.11-.51.09-.78-.27-.01-.5.13-.73.23-.73.2-1.65.65-2.34,1.01-.02,0-.03.04-.05.05-.67.22-1.47.96-2.21.67-.06-.02-.21-.16-.27-.21v-.05Z"/>
  <path class="cls-18" d="M35.97,9.12c.18.07.12.15.23.3.71.98,1.17,2.31,1.24,3.54.13,2.32-.75,4.14-2.39,5.67h-.05v-.05c.17-.15.32-.35.51-.46l.59-.72c.46-.7.81-1.42,1.02-2.22.02-.07.02-.18.05-.28.06-.27.16-.43.18-.76.06-.93-.02-1.73-.23-2.59-.02-.08-.03-.17-.05-.23-.15-.53-.47-1.03-.74-1.52-.13-.23-.25-.49-.37-.69-.16-.06-.05-.04-.11-.12-.03-.04-.12-.06-.12-.16,0,0,.01-.05.04-.05.05.11.12.21.19.32Z"/>
  <path class="cls-28" d="M16.95,40.03c-.21.05-.5.08-.71.09-1.91.08-4.23-.14-6.13-.37v-.09c1.45.17,2.93.33,4.39.37.81.02,1.68-.06,2.46,0Z"/>
  <path class="cls-18" d="M15.35,9.49c-.17.02-.19.21-.26.31-.07.09-.12.13-.2.24-.65.98-.75,1.52-1.06,2.63-.01.04-.08.03-.09.06-.04.17-.04.51-.05.7,0,.24,0,.49,0,.73,0,.26,0,.47.05.73.12.8.49,1.89.94,2.55.03.04.13.11.17.16,0,.03,0,.06,0,.09-.75-.79-1.19-2.29-1.24-3.42-.09-1.92.56-3.56,1.78-4.95.12-.14.18-.32.38-.4l-.41.55Z"/>
  <path class="cls-18" d="M33.49,24.87c-.67-.23-1.75-.62-2.45-.49-.29.05-.51.35-.28.59.26.27,1.25.23,1.62.44.13.07.1.28.1.41-.04.96-.34,2.26-.72,3.13-.27.61-.84,1.42-1.35,1.85l-.05-.05c.1-.1.17-.1.22-.15.08-.08.26-.39.33-.49.06-.05.19-.16.23-.22.7-.99,1-2.28,1.15-3.45.02-.12.04-.24.05-.37.02-.19.09-.39.04-.59-.06-.06-1.11-.23-1.3-.28-.24-.07-.49-.15-.48-.43,0-.58.83-.48,1.21-.43.64.09,1.13.26,1.68.55Z"/>
  <path class="cls-23" d="M1.84,38.05l6.39,1.42c-2.12-.33-4.34-.78-6.39-1.42Z"/>
  <path class="cls-23" d="M16.45,27.12l.07.05.02-.05c.47.03,1.16.08,1.61.18-.05.08-.17.05-.25.04-1.3-.13-2.53-.26-3.83-.15-.09,0-.17.07-.15-.08.21-.01.53-.05.71-.05h1.15c.16,0,.47.03.67.05Z"/>
  <path class="cls-3" d="M18.01,23.54c.12.34-.05.55-.14.87-.04.16-.11.3-.14.4-.12.4-.05,1.01-.14,1.44.38.05.77.11,1.15.18,1.49.28,2.78.62,4.18,1.19-1.73-.6-3.5-1.06-5.31-1.33-.1-.08-.07-.4-.06-.53.02-.49.15-.95.27-1.39.08-.29.19-.58.1-.88.03.02.06.03.09.05Z"/>
  <path class="cls-25" d="M20.35,44.25c.19.1.49.24.72.36.18.1.68.27.79.4.09.1.12.33.19.44.16.29.39.65.6.93.09.12.3.22.31.4h-.05c.02-.13-.14-.13-.22-.2-.16-.16-.55-.75-.67-.96-.07-.12-.1-.34-.17-.46-.12-.2-.58-.34-.8-.45-.25-.13-.51-.27-.72-.45Z"/>
  <path class="cls-22" d="M35.24,29.47c-.06.11-.05.25-.09.33-.03.05-.1.04-.14.15-.06.19-.13.71-.14.92-.03.87.28,1.82.67,2.54.05.1.14.22.2.33,0,0,.04,0,.07.02.03.02.01.13.1.13l-.04.08c-.06-.09-.09-.14-.14-.23-.45-.31-.86-1.66-.91-2.23-.06-.64-.01-1.5.36-2.04h.05Z"/>
  <path class="cls-3" d="M36.89,22.76c.65.52,1.03,1.09,1.24,1.89.01.04.08.03.09.07.02.07.02.42,0,.49,0,.03-.08.03-.09.07-.03.12-.02.27-.09.39-.03.04-.09.03-.09.03-.03.04-.05.16-.18.18.03-.05.03-.11.05-.14.04-.03.13-.04.14-.05.01-.02.13-.35.13-.39.11-.76-.28-1.51-.76-2.08-.04-.05-.11-.04-.11-.05-.01-.02-.03-.03-.05-.05l-.05-.05s-.05-.08-.09-.14c-.02-.02.04-.13-.14-.09v-.09Z"/>
  <path class="cls-22" d="M2.76,32.86c-.38.76-.84,1.49-1.11,2.31-.13.41-.35,1.16-.41,1.54h-.05c.17-1.14.8-3,1.56-3.86Z"/>
  <path class="cls-22" d="M18.19,27.35c1.62.16,3.19.68,4.69,1.29,0,.12-.17.17-.18.18l-.07-.23c-1.05-.42-2.13-.74-3.24-.99-.39-.09-.81-.17-1.19-.25Z"/>
  <path class="cls-28" d="M27.89,33.83c.09.01-.1.15-.1.15-1.4.85-2.67,1.71-4.35.9.27.05.54.18.81.23,1.32.22,2.59-.61,3.65-1.28Z"/>
  <path class="cls-22" d="M22.28,42.74c.06.04.12.13.18.17.01.18.02.4.05.58.12.64.31,1.22.66,1.78l.07.27c-.45-.7-.7-1.41-.87-2.23-.04-.17-.01-.39-.09-.57Z"/>
  <path class="cls-23" d="M41.67,31.81c1.07-.54,2.49-.94,3.65-.41.07.03.14.02.12.13-1.04-.57-2.57-.27-3.58.25-.03.02-.17.1-.18.02Z"/>
  <path class="cls-18" d="M27.11,33.23c-.49.39-1.39.85-2.01.95-.47.08-1.16.02-1.53-.31,1.16.43,1.54.33,2.62-.18l.92-.46Z"/>
  <path class="cls-28" d="M42.27,35.3c.02.12-.07.08-.14.11-.73.22-1.46.34-2.2.52-.18.19-.23.43-.32.66,0-.01,0-.03,0-.05.02-.15,0-.33.09-.47.24-.35,1.2-.4,1.62-.51.32-.08.64-.17.96-.26Z"/>
  <path class="cls-28" d="M28.71,42.97c.05-.09.11.08.14.14.18.06.18.24.28.39.14.2.36.46.47.68.18.36.33.79.45,1.18.17-.1.37-.1.55-.14-.05.11-.61.21-.64.18.06-.17-.11-.29-.13-.36-.08-.21-.12-.46-.22-.69-.19-.43-.57-.85-.75-1.25-.17-.06-.07-.07-.14-.14Z"/>
  <path class="cls-22" d="M39.6,36.58c-.2,1.2-.82,2.17-1.34,3.23-.03.07-.02.14-.13.12.49-.93.98-1.92,1.33-2.93.05-.16.03-.34.14-.47,0,.01,0,.03,0,.05Z"/>
  <path class="cls-3" d="M11.03,18.35c-.34.31-.48.72-.42,1.17.01.08.08.06.09.1.14.47.25.77.56,1.16,0,0-.01.05-.04.03-.04-.12-.23-.26-.28-.34-.15-.25-.39-.85-.41-1.14-.03-.48.12-.58.36-.93.03-.05.1-.18.15-.06Z"/>
  <path class="cls-26" d="M13.42,18.44c-.7-.26-1.53-.6-2.23-.14-.63.41-.55,1.26-.27,1.87.07.15.33.47.43.61-.03,0-.07,0-.09,0-.31-.39-.42-.69-.56-1.16-.01-.04-.08-.02-.09-.1-.06-.45.08-.86.42-1.17.04-.03.09-.09.09-.09.47-.32.95-.29,1.48-.17.26.06.64.15.82.35Z"/>
  <path class="cls-23" d="M24.85,47.15l.38.15c.88.54,2.42.99,3.45.76.06-.01.23-.16.26-.21.26-.43-.01-.98.14-1.43.06.48.2,1.44-.33,1.66-1.01.41-3.02-.35-3.89-.93Z"/>
  <path class="cls-4" d="M18.88,20.74c.27.28.34.45.05.73-.01.01-.03.03-.05.05-.3.11-.58.02-.87-.05-.2-.08-.45-.22-.64-.32.04-.1.14-.02.2,0,.39.15,1.52.76,1.41-.12-.04-.33-.65-.42-.92-.55-.2-.1-.44-.25-.64-.37,0,0-.25-.13-.14-.15.55.34,1.02.53,1.61.78Z"/>
  <path class="cls-22" d="M13.42,27.21l-1.79.23c.62-.13,1.17-.24,1.79-.23Z"/>
  <path class="cls-22" d="M38.27,31.03c.11.2.13.49.27.63.18.38.04,1.15.37,1.39v.05s-.1-.03-.13-.07c-.17-.19-.15-.78-.23-1.06-.02-.08-.3-.86-.33-.89l.05-.05Z"/>
  <path class="cls-3" d="M11.12,18.26c.07-.15.32-.25.47-.28.82-.19,1.62.26,2.33.61l-.04.04c-.15-.08-.31-.13-.46-.18-.17-.2-.56-.3-.82-.35-.53-.12-1.01-.15-1.48.17Z"/>
  <path class="cls-3" d="M27.52,1.04c.31.29.27.48.42.84.02.04.08.04.1.09.37.89.55,1.83,1.09,2.65v.05s-.04,0-.05,0c-.14-.24-.27-.5-.4-.77-.4-.82-.64-1.73-1.05-2.55-.04-.08-.06-.22-.11-.31Z"/>
  <path class="cls-28" d="M10.8,27.63c-.96.25-1.94.58-2.84,1l-.43.1c.84-.41,1.85-.8,2.76-1.03.14-.04.37-.11.51-.07Z"/>
  <path class="cls-9" d="M18.74,26.39c.31.06.62.08.93.15,1.31.29,2.62.71,3.85,1.25.27-.08.4-.32.68-.42.43-.16.95.25.76.71-.03.08-.11.07-.15.1.05-.14.03-.23.14-.34l-.14-.16s0-.03,0-.05c-.09-.31-.71-.27-.87,0-.05.02-.12,0-.14.09l-.05.05s-.03.02-.05.05l-.09.05s-.06,0-.09,0c-.18-.09-.37-.15-.55-.23-.01,0-.03,0-.05,0-1.4-.57-2.69-.91-4.18-1.19v-.05Z"/>
  <path class="cls-3" d="M33.95,25.01c.25.16.53.34.75.53l.26.11c.09.14.3.23.45.31.75.37,1.52.53,2.26.01-.05.17-.4.29-.56.34-1.22.35-2.57-.89-3.62-1.44.15.05.3.13.46.14Z"/>
  <path class="cls-3" d="M20.21,2.69c-.12.18-.22.37-.32.55-.49.86-.86,1.72-1.24,2.61-.13.31-.21.61-.42.88.23-.67.54-1.32.82-1.97.26-.6.56-1.37.96-1.87.05-.06.1-.19.15-.23.03-.02.04.03.04.03Z"/>
  <path class="cls-28" d="M36.75,29.33c-.05.14-.12,0-.14,0-.24-.12-.48-.25-.75-.22-.22.02-.51.17-.62.37h-.05c.41-.59,1.02-.58,1.56-.14Z"/>
  <path class="cls-3" d="M24.07,28.78c-.23.22-.61.69-.78,1-.14.28-.16.71-.51.82-.24.08-.63.06-.94.16-.17.06-.24.16-.39.18,0,0-.02-.06,0-.08.04-.04.43-.18.51-.21.31-.09.63-.09.94-.18l.38-.82c.23-.35.49-.63.78-.91v.05Z"/>
  <path class="cls-22" d="M20.35,30.66s-.16.26-.16.27c-.17.46,0,.92.2,1.32.07.15.2.39.28.52-.01.08-.12,0-.14-.03-.09-.14-.12-.34-.19-.49-.03-.06-.1-.06-.13-.11-.18-.37-.2-1.08,0-1.45.02-.03.13-.12.14-.03Z"/>
  <path class="cls-23" d="M45.85,31.9c.05.14.06.18.04.34-.06.57-.45.97-.82,1.36.02-.11.12-.2.18-.29.24-.3.53-.73.59-1.13.01-.1-.06-.19,0-.29Z"/>
  <path class="cls-23" d="M35.83,36.26c-.73.13-1.39-.04-2.02-.39l-.19-.2c.67.44,1.4.64,2.21.6Z"/>
  <path class="cls-22" d="M27.75,43.43c.24.24.78,1.09.92,1.41.11.27.16.6.23.88,0,0-.07.02-.09-.03-.06-.14-.06-.41-.13-.59-.16-.43-.5-.97-.78-1.34l-.15-.33Z"/>
  <path class="cls-14" d="M24.81,28.18c-.09.23-.68.6-.89.83-.33.37-.52.82-.73,1.24-.02.05-.11.23-.14.26-.01.01-.28.18-.3.18-.33.06-.71,0-1.03.15-.05.02-.05.08-.09.1-.19.12-.24.02-.26.33-.04.5.11.54.29.9.04.08.03.09.03.18-.12-.15-.29-.41-.34-.6-.06-.24-.11-.45-.02-.69.02-.03.09-.09.14-.14.16-.02.22-.12.39-.18.31-.1.7-.08.94-.16.34-.11.36-.54.51-.82.16-.32.55-.78.78-1,.21-.2.51-.41.74-.6Z"/>
  <path class="cls-28" d="M13.05,48.34c-.56.52-1.31.43-1.93.09l.98.22.5-.1.45-.22Z"/>
  <path class="cls-23" d="M10.11,39.66v.09c-.38-.05-.77-.13-1.15-.18.1-.05.32-.01.44,0,.24.03.47.06.71.09Z"/>
  <path class="cls-22" d="M12.18,47.93l.09.05c.36.04.74.06,1.1.09l-.28.23s.04-.14.14-.18c-.33,0-.66-.05-.99-.09-.09-.01-.19.06-.16-.09.03,0,.06,0,.09,0Z"/>
  <path class="cls-23" d="M1.2,37.82s-.13.03-.14-.02c.11-.35.09-.72.14-1.08h.05c-.05.34-.03.76-.05,1.1Z"/>
  <path class="cls-4" d="M14.24,22.85l1.01.51h-.05c-.31-.12-.63-.24-.94-.37l-.58-.36c.19.08.36.16.55.23Z"/>
  <path class="cls-28" d="M40.2,32.82c-.24.35-.82.59-1.23.38-.08-.04-.05-.1-.06-.11v-.05c.2.15.36.17.62.13.2-.03.5-.24.67-.36Z"/>
  <path class="cls-4" d="M32.99,20.19c0,.18-.13.12-.1.35,0,.02.17.26.19.27.15.11.68.17.91.24.52.17,1.01.42,1.51.65l.34.28c-.37-.24-.87-.5-1.29-.67s-1.01-.24-1.39-.4c-.11-.05-.18-.19-.31-.22-.02-.11-.01-.42.06-.49.02-.02.07,0,.08-.01Z"/>
  <path class="cls-22" d="M22.47,29.14c-.05.08-.14.17-.18.26-.06.12-.07.25-.1.38-.25.02-.49.07-.73.14-.03-.12.06-.09.14-.11.12-.03.47-.08.52-.11.02-.02.17-.41.21-.49.03-.05.07-.19.14-.07Z"/>
  <path class="cls-3" d="M2.25,42.09c.11-.03.09.06.13.12.11.19.21.3.28.48,0,0,.05-.01.08,0l.42.59c-.23-.15-.39-.31-.51-.6-.21-.13-.27-.34-.41-.55v-.05Z"/>
  <path class="cls-3" d="M21.32,31.07c-.09.24-.04.45.02.69.05.18.22.45.34.6,0,.03.01.14-.05.07-.15-.23-.3-.43-.39-.71-.03-.08,0-.18-.02-.25-.01-.04-.08-.03-.09-.06-.03-.11.11-.24.18-.34Z"/>
  <path class="cls-4" d="M23.71,4.57l.05.05s-.09.07-.14.09c-.3.15-.65.25-.98.13-.11-.04-.2-.18-.36-.17-.03-.03-.06-.1-.09-.14.26.09.37.25.66.28.46.04.5-.08.85-.23Z"/>
  <path class="cls-2" d="M27.47.99s.03.03.05.05c.05.09.07.22.11.31.41.83.65,1.73,1.05,2.55.13.27.26.53.4.77-.27-.23-.23-.3-.37-.57-.46-.87-.67-1.92-1.13-2.77-.05-.1-.14-.17-.15-.29-.26.05-.36.33-.6.46.03-.06.15-.24.18-.28,0,0,.05,0,.08-.01.12-.12.12-.27.38-.22Z"/>
  <path class="cls-3" d="M17.87,23.45c-.19,0-.42-.09-.61-.04-.03,0-.03.06-.05.07-.03.02-.09.02-.1.03-.07.07-.04.39-.22.4-.07,0-1.11-.33-1.27-.38-.13-.04-.27-.12-.41-.17h.05l1.68.5c.06-.07.03-.25.07-.32,0-.02.19-.15.23-.16.27-.12.42-.1.65.07Z"/>
  <path class="cls-9" d="M32.85,20.69c.13.03.2.17.31.22.37.16.96.23,1.39.4s.92.43,1.29.67.72.51,1.06.78v.09c.18-.04.12.07.14.09l-.02.04c-.11,0-.11-.13-.12-.14-.65-.61-1.83-1.31-2.69-1.6-.36-.12-1.05-.18-1.31-.44-.04-.04-.04-.06-.05-.11Z"/>
  <path class="cls-18" d="M24.81,27.67l.14.16c-.11.12-.09.2-.14.34-.23.19-.53.4-.74.6v-.05c.16-.15.32-.3.48-.44.03-.03.1-.02.14-.06.09-.11.14-.41.12-.55Z"/>
  <path class="cls-2" d="M19.89,3.29l-.24.56c-.68,1.05-.83,2.52-1.74,3.39v-.05c.08-.11.28-.29.32-.41,0-.01,0-.03,0-.05.21-.27.29-.57.42-.88.38-.89.75-1.75,1.24-2.61v.05Z"/>
  <path class="cls-28" d="M36.62,34.7l.02-.05c.13.06.21.1.25.23.02,0,.06-.02.08.01.02.02,0,.06,0,.08.25.1.1.54-.02.72-.01.02-.25.27-.27.28-.05.03-.11,0-.12.01.31-.3.58-.54.41-1.01-.02,0-.06.01-.08,0-.03-.03,0-.06,0-.08-.09-.03-.18-.11-.28-.18Z"/>
  <path class="cls-18" d="M24.81,27.63c-.15,0-.07-.12-.25-.14-.27-.03-.4.03-.62.14.16-.27.78-.31.87,0Z"/>
  <path class="cls-22" d="M33.12,44.3c-.59.29-1.2.55-1.84.73,0,0-.02-.07.03-.09.59-.18,1.05-.38,1.61-.63.04-.02.17-.08.19-.01Z"/>
  <path class="cls-28" d="M37.17,29.69s.08-.02.13.01c.03.02.21.31.24.36.18.11.61.73.74.96l-.05.05c-.21-.26-.47-.71-.69-1.01-.09-.06-.32-.27-.37-.37-.24-.11-.2-.16-.32-.28.21.06.23.1.32.28Z"/>
  <path class="cls-23" d="M26.69,42c-.21.45.22.65.51.92-.19,0-.21-.15-.32-.26-.06-.06-.14-.04-.2-.12-.16-.19-.13-.38-.03-.59.03,0,.04.05.04.05Z"/>
  <path class="cls-14" d="M17.5,7.65c-.72.57-1.39.95-2,1.65-.05.06-.11.22-.12.23-.03.03-.04-.05-.05-.05l.41-.55s.03-.03.05-.05c.05-.06.11-.11.18-.18.04-.05.08-.06.14-.14.01-.02.04-.03.05-.05l.09-.05c.1,0,.2-.16.23-.23l.09-.05s.06,0,.08,0c.02-.02,0-.07,0-.08l.09-.09s.1,0,.16-.04c.17-.11.33-.35.57-.33Z"/>
  <path class="cls-24" d="M20.31,2.69c.11-.03.11.1.18.17.06.05.12.05.14.06.02.01.03.03.05.05.02.14.15.17.21.25.02.02,0,.07.02.07-.24-.07-.49-.67-.74-.44l-.27.44v-.05c.1-.18.2-.37.32-.55.02,0,.07,0,.09,0Z"/>
  <path class="cls-12" d="M35.01,18.63l-.05.09c-.06.05-.08.08-.14.14-.08,0-.13.06-.18.09.04-.16.25-.26.37-.37v.05Z"/>
  <path class="cls-18" d="M22.05,32.77s.2.07.18.23c-.03-.03-.19-.09-.23-.16l.04-.07Z"/>
  <path class="cls-4" d="M12.68,22.03c.31.21.67.36.96.6-.18-.08-.36-.16-.55-.26l-.42-.34Z"/>
  <path class="cls-23" d="M29.82,32.45c.06-.05.13-.14.21-.14.05.09.12.11.21.19-.18-.03-.21-.12-.39,0l-.02-.05Z"/>
  <path class="cls-4" d="M33.95,19.55s.04.02.04.03c-.04.08-.76.49-.91.52.28-.21.59-.35.87-.55Z"/>
  <path class="cls-14" d="M22.56,33.23c.85.41,1.53,1.04,2.62.81l1.01-.35c-1.08.52-1.45.61-2.62.18-.01,0-.03,0-.05,0l-.96-.64Z"/>
  <path class="cls-18" d="M15.99,8.66v.05c-.07.08-.13.12-.18.18,0-.17.13-.18.18-.23Z"/>
  <path class="cls-4" d="M26.69,1.54c-.06.05-.06.12-.09.18-.15.04-.18.17-.23.23-.01.02-.03.03-.05.05-.24.26-.53.51-.69.83-.16.15-.34.3-.49.43-.1.08-.02.18-.29.31-.06.1-.09.12-.14.18.02-.19.05-.14.14-.18.23-.36.73-.81,1.06-1.17.19-.22.59-.8.78-.85Z"/>
  <path class="cls-4" d="M24.67,3.79c-.09.1-.1.1-.18.18v-.05c.04-.06,0-.17.18-.14Z"/>
  <path class="cls-3" d="M20.31,2.69s.02-.06.09-.03c.04.02.26.2.23.26-.02-.01-.09-.02-.14-.06-.07-.06-.07-.19-.18-.17Z"/>
  <path class="cls-3" d="M20.67,2.97c.36.3.61.68.92,1.01-.17-.03-.17-.18-.25-.26-.14-.15-.33-.3-.44-.43,0,0,0-.05-.02-.07-.07-.07-.19-.1-.21-.25Z"/>
  <path class="cls-23" d="M27.52,43.24c-.14-.12-.18-.18-.28-.28.12.07.24.13.28.28Z"/>
  <path class="cls-18" d="M22.56,33.23l.96.64c-.39-.14-.91-.44-1.15-.73.08,0,.13.06.18.09Z"/>
  <path class="cls-26" d="M14.93,19.45c.16.07.33.23.46.34.15.13.15.12.27.21,0,0,.06.07.14.14.02.02.05.06.09.09.2.15.45.26.6.46l-.31-.15c-.41-.36-.95-.7-1.26-1.09Z"/>
  <path class="cls-23" d="M3.35,32.04c.04.2-.19.29-.27.4-.13.17-.19.27-.32.42.16-.32.37-.55.6-.83Z"/>
  <path class="cls-12" d="M34.41,19.13v.05c-.13.06-.14.07-.18.18l-.18.09h-.05c.12-.19.28-.2.41-.32Z"/>
  <path class="cls-23" d="M35.79,42.6c-.16.13-.32.31-.51.37,0,0-.01-.06,0-.08l.5-.29Z"/>
  <path class="cls-21" d="M34.82,18.86c-.13.13-.1.09-.23.18v-.05s.03-.04.05-.05c.06-.03.11-.09.18-.09Z"/>
  <path class="cls-22" d="M4.96,30.43c-.21.29-.49.47-.73.75-.02.03-.12.12-.14.03.29-.29.57-.52.87-.78Z"/>
  <path class="cls-21" d="M19.11,43.38c-.06-.05-.1-.06-.18-.14.1-.01.17.04.23.12l-.05.02Z"/>
  <path class="cls-5" d="M34.96,25.65c1.01.55,1.88.95,2.85.09-.02.03-.02.09-.05.14,0,0-.09.09-.09.09-.74.51-1.51.36-2.26-.01-.15-.07-.36-.17-.45-.31Z"/>
  <path class="cls-3" d="M27.47.99c-.26-.06-.26.1-.38.22-.02.02-.07,0-.08.01-.1-.12.11-.15.16-.18.07-.05.11-.17.22-.14.05.01.06.07.07.09Z"/>
  <path class="cls-3" d="M18.24,6.78c-.04.12-.24.3-.32.41-.02-.11.18-.38.32-.41Z"/>
  <path class="cls-3" d="M23.52,27.86s-.13.04-.19-.01l-.36-.22c.18.08.37.14.55.23Z"/>
  <path class="cls-14" d="M18.01,23.54s-.07-.03-.09-.05c-.02-.01-.03-.03-.05-.05-.22-.17-.38-.19-.65-.07-.04.02-.22.15-.23.16.01-.02.01-.08.04-.12.23-.25.85-.23.97.12Z"/>
  <path class="cls-23" d="M30.41,32.68c.09,0,.13.06.19.11.18.18.36.35.55.53-.08.14-.09,0-.12-.04-.18-.21-.45-.45-.62-.6Z"/>
  <path class="cls-26" d="M18.88,20.74c-.59-.25-1.06-.44-1.61-.78-.05-.03-.09-.06-.14-.09.03-.1.13.01.17.04.34.21,1.42.67,1.58.84Z"/>
  <path class="cls-4" d="M21.91,4.3c-.06-.02-.1-.05-.14-.09v-.05c.05.05.05.03.14.14Z"/>
  <path class="cls-21" d="M14.89,19.36l.44.29.34.35c-.13-.09-.12-.08-.27-.21-.13-.11-.31-.27-.46-.34-.02-.02-.03-.07-.05-.09Z"/>
  <path class="cls-22" d="M27.79,42.09c.08.04.22.11.28.16.11.09.28.28.37.39-.06-.05-.15-.08-.21-.14-.15-.14-.28-.28-.44-.41Z"/>
  <path class="cls-23" d="M35.83,42.55c.06-.06.1-.17.15-.21.12-.11.35-.26.49-.38-.14.25-.43.42-.64.6Z"/>
  <path class="cls-18" d="M27.43,33s.06.03,0,.06c-.07.05-.2.09-.28.12.08-.07.14-.17.28-.18Z"/>
  <path class="cls-21" d="M30.18,30.98s.02.07,0,.09c-.03.02-.11,0-.13,0l.14-.09Z"/>
  <path class="cls-21" d="M34.55,19.09s.02.07,0,.09c-.03.03-.11,0-.13,0v-.05s.03-.02.05-.05h.09Z"/>
  <path class="cls-21" d="M34.23,19.36s.01.06,0,.09h-.18s.18-.09.18-.09Z"/>
  <path class="cls-21" d="M29.91,31.21s.02.06,0,.08c-.02.02-.12.03-.18.06.03-.08.09-.13.18-.14Z"/>
  <path class="cls-21" d="M14.47,18.99c.14.09.19.14.28.23-.13-.01-.21-.13-.28-.23Z"/>
  <path class="cls-22" d="M5.28,30.15l.05.02c-.11.07-.18.24-.32.21.09-.07.18-.16.28-.23Z"/>
  <path class="cls-23" d="M19.48,42.42c.19.01.17.12.23.18-.12-.03-.16-.1-.23-.18Z"/>
  <path class="cls-21" d="M15.8,20.14c.07.02.2.02.18.09h-.09s-.07-.07-.09-.09Z"/>
  <path class="cls-12" d="M34.59,18.99v.05s-.03.02-.05.05h-.09c.11-.15.03-.03.14-.09Z"/>
  <path class="cls-21" d="M24.35,4.12c-.13.11-.25.27-.41.32.1-.11.09-.07.19-.16.08-.07.06-.21.23-.17Z"/>
  <path class="cls-21" d="M18.56,42.92c-.07-.06-.14-.09-.18-.14l.02-.05c.09,0,.15.09.16.18Z"/>
  <path class="cls-23" d="M19.85,42.74c.13-.03.15.06.23.14-.13,0-.16-.08-.23-.14Z"/>
  <path class="cls-21" d="M16.49,19.45c-.25-.18-.51-.37-.69-.6.25.18.5.36.69.6Z"/>
  <path class="cls-4" d="M22.01,4.39s.11-.02.13,0c.02.02,0,.08,0,.09l-.14-.09Z"/>
  <path class="cls-21" d="M18.61,42.97c.2-.04.12.06.14.09-.09.01-.1-.05-.14-.09Z"/>
  <path class="cls-23" d="M19.25,42.23l.02-.04c.13.02.1.12.12.14-.09.02-.1-.05-.14-.09Z"/>
  <path class="cls-21" d="M24.49,3.98s-.06.06-.09.09c-.02-.09.07-.11.09-.14v.05Z"/>
  <path class="cls-21" d="M16.26,8.48l-.09.05s0-.06,0-.09c.1-.02.09.05.09.05Z"/>
  <path class="cls-21" d="M16.59,8.2l-.09.05s0-.06,0-.09c.09-.02.09.04.09.05Z"/>
  <path class="cls-21" d="M23.84,4.53s-.04.06-.09.09l-.05-.05s.09-.04.14-.05Z"/>
  <path class="cls-3" d="M23.71,27.81s0,.06,0,.09c-.05.02-.08-.04-.09-.05l.09-.05Z"/>
  <path class="cls-3" d="M21.78,4.16v.05c-.06-.06-.12-.09-.14-.18.04.04.09.09.14.14Z"/>
  <path class="cls-21" d="M16.13,8.57c-.05.07-.1.09-.14.14v-.05s.05-.11.14-.09Z"/>
  <path class="cls-3" d="M23.8,27.72l.05.05s-.08,0-.09,0l.05-.05Z"/>
  <path class="cls-23" d="M35.24,43.01s-.03.03-.05.05l-.05-.05h.09Z"/>
  <path class="cls-22" d="M27.75,42.05c-.09-.04-.18-.1-.28-.14l.02-.04c.11.05.17.11.25.18Z"/>
  <path class="cls-1" d="M16.54,27.12l-.02.05-.07-.05s.06,0,.09,0Z"/>
  <path class="cls-19" d="M12.27,47.97l-.09-.05c.08,0,.09.05.09.05Z"/>
  <path class="cls-21" d="M34.96,18.72l.05-.09h.05s-.05.06-.09.09Z"/>
  <path class="cls-23" d="M30.37,32.63l-.09-.09s.06.06.09.09Z"/>
  <path class="cls-21" d="M30.41,30.8s-.1.06-.14.09c.03-.04.06-.1.09-.14l.05.05Z"/>
  <path class="cls-21" d="M16.68,8.11s.03-.06.09-.09l-.09.09Z"/>
  <path class="cls-25" d="M4.69,10.87c.18-.05.15.17.32.19l-.04.09c-.09-.09-.18-.19-.28-.28Z"/>
  <path class="cls-20" d="M25.59,14.4c.27.27.37.6.37.99,0,.61-.31,1.22-.6,1.72-.12.09-.14.03-.18.18-.01.03,0,.08-.05.09-.03.01-.06.03-.09.05-1.4.59-2.94.63-3.9-.69-.16-.22-.41-.74-.45-1-.05-.41-.09-1.01.43-1.05.34-.03,1,.18,1.46.17,1.03-.03,2.05-.53,3.01-.46ZM23.48,16.01s-.06.03-.09.05l-.41.17c-.05.01-.07.09-.09.11-.22.19-.66.6-.23.8.6.29,1.34.19,1.88-.16l.02.05c.16.04.1-.08.11-.09,0,0,.06.01.09-.03.05-.05.17-.17.18-.19.11-.15.24-.5.14-.66,0,0-.08-.09-.09-.09-.02-.01-.01-.05-.08-.08-.25-.1-.77-.09-1.04-.05-.1.02-.34.08-.4.17Z"/>
  <path class="cls-13" d="M31.13,14.74c.94,1.01-.2,2.13-1.29,2.23-.68.06-1.51-.12-1.95-.66-.15-.19-.12-.28-.19-.49,0-.03-.08-.03-.09-.07-.02-.07-.02-.41,0-.49,0-.03.23-.41.25-.44.71-.88,2.5-.89,3.27-.08Z"/>
  <path class="cls-13" d="M18.45,14.46c.25.29.28.95.09,1.27-.17.29-.7.62-1.03.72-.43.13-.85.13-1.28.02-.59-.15-1.18-.66-1.11-1.31.03-.25.25-.68.43-.85.73-.69,2.24-.63,2.9.15Z"/>
  <path class="cls-24" d="M37.12,11.55c.21.86.29,1.66.23,2.59-.02.32-.12.48-.18.76.02-.25,0-.65.05-.89,0-.04.08-.01.09-.1.06-.44-.03-1.09-.1-1.52-.03-.21-.08-.41-.12-.62-.01-.07-.06-.19.03-.23Z"/>
  <path class="cls-26" d="M17.87,24.41c.09.05.03.16.02.23-.04.25-.12.49-.16.67-.02.09-.08.86-.05.89.36,0,.71.12,1.06.18v.05c-.38-.07-.77-.14-1.15-.18.09-.42.02-1.04.14-1.44.03-.1.09-.24.14-.4Z"/>
  <path class="cls-12" d="M34.41,6.87c-.1-.41-.11-.84-.09-1.26.03-.7.17-1.28.28-1.91h.05c-.17,1.14-.28,2-.23,3.17Z"/>
  <path class="cls-12" d="M23.94,14.54v.05c-.61.12-1.23.23-1.86.18-.38-.03-1.16-.33-1.4.11-.05.1-.02.16-.05.22-.02.04-.08.03-.09.07-.02.08-.01.36,0,.45.01.08.08.12.09.16h-.09c-.08-.44-.13-.8.25-1.1.33-.27.68-.04,1.02,0,.69.08,1.45,0,2.13-.13Z"/>
  <path class="cls-2" d="M32.3,26.43c-.15,1.18-.45,2.46-1.15,3.45-.04.06-.17.17-.23.22.78-1.21,1.04-2.06,1.29-3.47.01-.08-.02-.17.09-.21Z"/>
  <path class="cls-18" d="M25.64,14.4s-.03,0-.05,0c-.96-.08-1.98.43-3.01.46-.46.01-1.12-.2-1.46-.17-.52.04-.48.65-.43,1.05.04.26.29.78.45,1,.97,1.32,2.51,1.28,3.9.69-.07.15-.23.12-.27.14-.02.02,0,.08,0,.09-.79.32-1.54.38-2.36.08-.26-.1-.47-.26-.72-.36-.15-.17-.12-.11-.28-.23-.07-.15-.18-.29-.28-.41-.28-.38-.37-.45-.51-.96-.01-.04-.08-.08-.09-.16-.01-.09-.02-.37,0-.45,0-.03.07-.02.09-.07.02-.06,0-.13.05-.22.25-.44,1.02-.14,1.4-.11.63.05,1.25-.06,1.86-.18.47-.1,1.03-.32,1.49-.28.08,0,.16.01.21.09Z"/>
  <path class="cls-12" d="M14.89,10.04l-.12.4c-.52.71-.81,1.63-.93,2.52-.02.19.08.44-.14.48,0-.19,0-.53.05-.7,0-.03.08-.03.09-.06.31-1.11.41-1.66,1.06-2.63Z"/>
  <path class="cls-4" d="M25.68,14.4s.09.09.09.09c.36.45.27,1.27.09,1.79-.05.14-.07.13-.09.18-.13.31-.15.44-.41.64.29-.51.6-1.11.6-1.72,0-.38-.1-.71-.37-.99.02,0,.03,0,.05,0h.05Z"/>
  <path class="cls-3" d="M26.78,12.15c-.18.21-.2.4-.28.65-.02.05-.13.03-.09.29.01.09.08.06.09.1.04.17,0,.32.13.51.07.1.19.11.19.24h-.05c-.08-.06-.14-.1-.23-.18-.01-.17-.15-.25-.17-.4s-.02-.35-.01-.5c.01-.17.14-.48.23-.62.03-.04.13-.08.18-.09Z"/>
  <path class="cls-24" d="M33.95,25.01c-.16-.01-.31-.09-.46-.14-.56-.29-1.04-.46-1.68-.55-.38-.05-1.2-.15-1.21.43,0,.28.25.36.48.43.19.05,1.24.22,1.3.28.05.2-.03.41-.04.59-.23-.13,0-.19,0-.21.02-.1,0-.23,0-.33-.35-.12-1.42-.2-1.65-.44-.32-.31-.06-.79.35-.85.79-.12,2.25.36,2.91.78Z"/>
  <path class="cls-18" d="M28.21,13.67c-.06.21-.26.25-.37.41-.07.03-.16.03-.24.05-.09.03-.03.12-.33.08-.33-.04-.29-.12-.49-.27h.05c.35.16.67.2,1.03.04l.35-.31Z"/>
  <path class="cls-9" d="M28.21,12.29c.16.03.17.14.21.27.17.58.02,1.27-.57,1.52.11-.17.3-.2.37-.41,0-.01,0-.03,0-.05.37-.35.23-.96-.05-1.33h.05Z"/>
  <path class="cls-5" d="M14.24,22.85c.38.15,2.38.95,2.64.88.02-.09.08-.13.12-.19-.04.07-.01.25-.07.32l-1.68-.5-1.01-.51Z"/>
  <path class="cls-12" d="M13.83,14.91c.11.72.4,1.71.77,2.33.09.15.19.12.24.38-.04-.04-.14-.12-.17-.16-.45-.66-.81-1.76-.94-2.55h.09Z"/>
  <path class="cls-24" d="M24.76,17.66c-.56.59-2.52.33-3.08-.28.25.1.46.26.72.36.81.3,1.56.23,2.36-.08Z"/>
  <path class="cls-14" d="M37.21,23.17s.07,0,.11.05c.47.57.87,1.32.76,2.08,0,.04-.12.38-.13.39,0,0-.1.01-.14.05.43-.73.21-1.39-.26-2.04l-.34-.54Z"/>
  <path class="cls-5" d="M26.6,12.24s.04-.1.1-.16c.42-.4,1.28-.38,1.51.2h-.05s-.04-.09-.09-.14c-.3-.3-.87-.4-1.19-.09-.04.03-.06.05-.09.09-.05,0-.16.05-.18.09Z"/>
  <path class="cls-14" d="M25.77,14.49c.06-.15.2.17.2.19.13.34.1,1.12.01,1.48-.02.08-.02.15-.12.13.17-.52.26-1.34-.09-1.79Z"/>
  <path class="cls-12" d="M26.6,12.24c-.09.14-.22.45-.23.62,0,.15,0,.35.01.5s.16.23.17.4c-.04-.04-.1,0-.15-.1-.17-.31-.15-.92.02-1.24.02-.04.14-.13.18-.18Z"/>
  <path class="cls-14" d="M34,3.15c.23-.1.46-.24.73-.23.02.27-.05.52-.09.78h-.05c.04-.22.05-.46.05-.69-.02-.02-.56.12-.64.14Z"/>
  <path class="cls-9" d="M20.21,12.47s.09-.02.09.03c-.12.16,0,.34,0,.45,0,.02-.12.25-.15.32-.26.57-1.02,1.03-1.55.49.29.11.47.19.79.13.17-.03.59-.33.63-.49,0-.01,0-.03,0-.05.17-.2.17-.62.14-.87h.05Z"/>
  <path class="cls-2" d="M34.46,6.96c.02.13.18.55.25.69.05.1.17.12.16.27-.03-.03-.09-.02-.14-.08-.15-.2-.3-.64-.32-.89h.05Z"/>
  <path class="cls-9" d="M18.24,12.43c-.05.49-.02.93.32,1.29-.45-.26-.49-.83-.32-1.29Z"/>
  <path class="cls-9" d="M25.68,14.4h-.05c-.05-.08-.12-.09-.21-.09-.47-.04-1.02.18-1.49.28v-.05c.41-.08,1.15-.39,1.52-.3.11.03.16.09.23.16Z"/>
  <path class="cls-24" d="M13.69,14.17c0,.09.13.2.14.22.03.15-.02.36,0,.52h-.09c-.04-.26-.04-.47-.05-.73Z"/>
  <path class="cls-14" d="M20.21,12.47h-.05c-.02-.17-.09-.28-.18-.41-.06-.09-.2-.26-.3-.32-.25-.15-.73-.12-.94.09h-.09c-.14.23-.31.31-.41.6.03-.24.17-.43.34-.58.02-.02.07,0,.07-.02,0,0-.02-.06.03-.09.59-.37,1.24-.1,1.5.51.03.07.03.21.03.22Z"/>
  <path class="cls-5" d="M31.61,4.21c-.4.21-1.11.7-1.55.77-.37.06-.78.04-.98-.31,0,0,.04,0,.05,0,.06.05.21.18.27.21.74.29,1.53-.45,2.21-.67Z"/>
  <path class="cls-14" d="M37.12,15.18c-.21.8-.56,1.52-1.02,2.22l-.59.72c.01-.09.07-.19.12-.26.25-.34.54-.66.75-1.01l.74-1.67Z"/>
  <path class="cls-9" d="M23.61,4.71l.03.05c-.45.24-.99.29-1.36-.1.15-.01.25.13.36.17.32.12.68.02.98-.13Z"/>
  <path class="cls-26" d="M34,3.15c-.65.28-1.3.57-1.94.89l-.41.12c.69-.36,1.61-.81,2.34-1.01Z"/>
  <path class="cls-14" d="M25.77,16.47c.25.01,0,.16,0,.17-.17.33-.29.62-.64.75.05-.01.03-.06.05-.09.16,0,.14-.11.18-.18.27-.2.28-.34.41-.64Z"/>
  <path class="cls-5" d="M36.34,9.81c.27.48.58.98.74,1.52-.34-.1-.18-.67-.45-.86l-.28-.65Z"/>
  <path class="cls-26" d="M20.63,15.78c.14.52.22.59.51.96.1.13.21.26.28.41-.39-.29-.78-.91-.87-1.38h.09Z"/>
  <path class="cls-5" d="M18.88,20.74c.18.08.26.07.28.3.01.13-.02.48-.23.44.29-.29.22-.46-.05-.73Z"/>
  <path class="cls-5" d="M18.88,21.52c-.33.24-.52.1-.87-.05.29.07.57.15.87.05Z"/>
  <path class="cls-4" d="M18.74,11.83c-.1.1-.18.26-.28.43-.02.03-.08.03-.11.09-.11.26-.1.72,0,.98,0,.01.15.22.16.23.17.18.54.31.79.29.08,0,.33-.11.39-.16.14-.11.13-.33.33-.29-.04.16-.46.46-.63.49-.32.06-.51-.02-.79-.13-.02-.02-.03-.03-.05-.05-.34-.35-.38-.79-.32-1.29.11-.29.28-.37.41-.6h.09Z"/>
  <path class="cls-2" d="M26.32,2c-.02.19-.2.25-.3.37-.17.2-.19.27-.39.46.16-.32.45-.57.69-.83Z"/>
  <path class="cls-2" d="M26.6,1.73c-.06.12-.08.27-.23.23.05-.06.08-.19.23-.23Z"/>
  <path class="cls-14" d="M37.17,23.13s-.03-.03-.05-.05l.05.05Z"/>
  <path class="cls-12" d="M34.46,6.96h-.05s0-.03,0-.05c.02,0,.04.02.05.05Z"/>
  <path class="cls-10" d="M14.61,36.4c.52-.71,1.12-.64,1.7-.05.29.64.29,1.35-.18,1.88-.01.02-.03.03-.05.05-.07.02-.12.05-.18.09-.01.01-.03.06-.08.08-.43.21-.93-.08-1.21-.4-.19-.5-.27-1-.09-1.52.02-.03.07-.1.09-.14Z"/>
  <path class="cls-23" d="M16.31,36.35s.06-.02.09.03c.06.08.06.22.09.3.01.04.08.04.09.07.1.43,0,.89-.18,1.27l-.28.22c.47-.53.47-1.24.18-1.88Z"/>
  <path class="cls-23" d="M14.61,38.05c-.15-.17-.11-.19-.19-.38-.01-.03-.07-.03-.09-.07-.05-.19-.04-.61,0-.81,0-.02.15-.2.18-.26-.18.51-.09,1.02.09,1.52Z"/>
  <path class="cls-22" d="M14.61,36.4c-.08,0,.04-.19.04-.2.38-.41.94-.51,1.41-.19.15.1.18.2.24.34-.58-.59-1.18-.66-1.7.05Z"/>
  <path class="cls-23" d="M16.08,38.28s.06.14-.18.09c.06-.04.11-.07.18-.09Z"/>
  <path class="cls-16" d="M21.5,46.96c-.33-.11-.73.05-1.08.05l-.05-.15c-2.98-.86-5.94-2.6-7.51-5.33-.02-.03-.08-.04-.12-.12-.03-.05-.17-.4-.16-.42l.77.05c1.54,2.52,4.14,4.11,6.92,5.09.65.23,1.34.42,2,.6-.09.13-.37.12-.53.14-.09.01-.19-.06-.16.09-.03,0-.06,0-.09,0Z"/>
  <path class="cls-16" d="M15.12,47.28c.03-.14-.07-.09-.16-.09-.66-.03-1.66-.62-2.24-.97-1.87-1.14-3.25-2.77-4.15-4.71-.14-.3-.21-.55-.34-.85-.02-.04-.17-.06-.06-.17l.84.15s.07.26.1.33c1.47,2.88,3.37,4.65,6.43,5.84.38.15.8.28,1.19.39.01.08-.1.04-.16.05-.37.01-.74,0-1.1,0-.08,0-.2-.03-.25.05-.03,0-.06,0-.09,0Z"/>
  <path class="cls-16" d="M7.86,46.09c-.01-.08-.15-.22-.21-.28-1.84-1.75-2.81-3.2-3.51-5.59-.04-.14,0-.36-.09-.5l.82.12c.05.22.1.5.18.71.86,2.42,2.39,4.42,4.6,5.88.06.04.11.07.19.07l-.28.05s-.06,0-.09,0c.03-.13-.06-.09-.14-.11-.22-.05-.44-.11-.66-.17-.06-.02-.16-.09-.21,0-.05-.02-.09-.03-.14-.05v-.09c-.05-.02-.09.04-.09.05-.03,0-.06,0-.09,0v-.09c-.06,0-.12,0-.18,0-.03,0-.07,0-.09,0Z"/>
  <path class="cls-8" d="M8.45,46.27c.04-.09.15-.02.21,0,.22.06.44.12.66.17.08.02.17-.02.14.11-.25-.02-.76-.19-1.01-.28Z"/>
  <path class="cls-8" d="M7.95,46.09c.06,0,.12,0,.18,0v.09c-.07,0-.14-.03-.18-.09Z"/>
  <path class="cls-8" d="M8.22,46.18s.04-.06.09-.05v.09s-.07,0-.09-.05Z"/>
  <path class="cls-17" d="M24.99,15.96s.09.09.09.09c0,.14-.07.4-.14.51-.01.02-.26.34-.27.36,0,0-.08,0-.14.05-.55.35-1.28.45-1.88.16-.43-.2.01-.61.23-.8.2-.04.33-.2.51-.28.03-.01.07-.04.09-.05.48-.17,1.02-.17,1.52-.05Z"/>
  <path class="cls-25" d="M24.99,15.96c-.49-.12-1.03-.12-1.52.05.06-.1.3-.16.4-.17.27-.04.79-.05,1.04.05.07.03.06.07.08.08Z"/>
  <path class="cls-25" d="M25.08,16.06c.1.16-.03.51-.14.66,0,.01-.13.13-.18.19-.04.04-.09.03-.09.03-.01,0,.04.13-.11.09l-.02-.05c.06-.04.13-.04.14-.05.02-.02.26-.34.27-.36.07-.11.14-.37.14-.51Z"/>
  <path class="cls-18" d="M25.18,17.3c.05-.15.06-.09.18-.18-.04.08-.03.18-.18.18Z"/>
  <path class="cls-25" d="M23.38,16.06c-.17.08-.31.24-.51.28.02-.02.04-.1.09-.11l.41-.17Z"/>
  <path class="cls-20" d="M28.07,12.2c.1.27.34.76.27,1.02,0,.03-.08.03-.09.07-.03.11-.03.24-.05.33,0,.01,0,.03,0,.05l-.35.31c-.36.16-.68.12-1.03-.04,0-.13-.13-.14-.19-.24-.12-.18-.08-.34-.13-.51-.01-.04-.08-.01-.09-.1-.04-.26.08-.24.09-.29.08-.25.1-.45.28-.65.04-.04.06-.06.09-.09.43-.16.83-.15,1.19.14Z"/>
  <path class="cls-18" d="M28.16,12.29c.27.38.41.98.05,1.33.02-.09.02-.22.05-.33,0-.04.08-.04.09-.07.06-.27-.17-.75-.27-1.02v-.05c.05.05.06.09.09.14Z"/>
  <path class="cls-3" d="M28.07,12.15v.05c-.37-.28-.77-.29-1.19-.14.32-.31.89-.21,1.19.09Z"/>
  <path class="cls-15" d="M18.74,11.83c.22-.22.69-.25.94-.09.1.06.24.24.3.32.18.44.16.84.05,1.29,0,.01,0,.03,0,.05-.19-.03-.19.19-.33.29-.07.05-.31.15-.39.16-.25.03-.62-.11-.79-.29,0-.01-.15-.22-.16-.23-.1-.26-.12-.72,0-.98.02-.06.09-.05.11-.09.09-.16.17-.32.28-.43Z"/>
  <path class="cls-4" d="M20.17,12.47c.03.25.03.67-.14.87.12-.45.13-.85-.05-1.29.09.13.16.24.18.41Z"/>
</svg>