<?xml version="1.0" encoding="UTF-8"?>
<svg id="_레이어_1" data-name="레이어 1" xmlns="http://www.w3.org/2000/svg" viewBox="0 0 157.41 71.89">
  <defs>
    <style>
      .cls-1 {
        fill: #454746;
      }

      .cls-2 {
        fill: #333533;
      }

      .cls-3 {
        fill: #e7e7e5;
      }

      .cls-4 {
        fill: #181a1a;
      }

      .cls-5 {
        fill: #bbbbba;
      }

      .cls-6 {
        fill: #161817;
      }

      .cls-7 {
        fill: #64768f;
      }

      .cls-8 {
        fill: #bbbab9;
      }

      .cls-9 {
        fill: #7992b1;
      }

      .cls-10 {
        fill: #9d9d9d;
      }

      .cls-11 {
        fill: #c0c1c0;
      }

      .cls-12 {
        fill: #b1b1b1;
      }

      .cls-13 {
        fill: #eaeae8;
      }

      .cls-14 {
        fill: #fff;
      }

      .cls-15 {
        fill: #f4f5f3;
      }

      .cls-16 {
        fill: #878888;
      }

      .cls-17 {
        fill: #232524;
      }

      .cls-18 {
        fill: #343634;
      }

      .cls-19 {
        fill: #3c3d3b;
      }

      .cls-20 {
        fill: #61738b;
      }

      .cls-21 {
        fill: #141615;
      }

      .cls-22 {
        fill: #323433;
      }

      .cls-23 {
        fill: #1b1c1c;
      }

      .cls-24 {
        fill: #e3e2e0;
      }

      .cls-25 {
        fill: #1f1f1d;
      }

      .cls-26 {
        fill: #c1c2c1;
      }

      .cls-27 {
        fill: #727474;
      }

      .cls-28 {
        fill: #d3d3d1;
      }

      .cls-29 {
        fill: #748baa;
      }
    </style>
  </defs>
  <path class="cls-22" d="M22.45.6c-1.02-.01-1.51-.27-2.46-.28-2.25-.02-4.44.18-6.67.29-1.15.06-2.49-.09-3.76.14-.13.02-.14.23-.27.28-.21.08-.7.11-.76.16-.02.01-.01.22-.18.36-.1.08-.34.06-.36.08-.18.2-.41.98-.38,1.26.04.33.33.51.37.74.18,1.08.27,2.45.74,3.5.06.14.35.09.36.18,0,.3-.34.31-.37.37-.03.07.02.2,0,.29.77-.02.35.48.42.56.6.74.69,2.13.96,3.1.67,2.39,1.47,4.49,1.9,6.88.54,1.71,1.19,3.4,1.44,5.16-1.68.62-3.35.18-4.89,1.23-1.72,1.17-1.48,2.21-1.45,3.79.02.97.07.43.17.77.06.19-.09,1.09-.22,1.2-.09.08-.28,0-.32.03-.38.17-.5.32-.72.44l-.02.28-.52.02c-.1.06-.26.09-.36.15-.16.78-.75,1.36-1.81,1.33-.06.05-.12.1-.18.15-.34.3-.75,1.15-1.45,1.03-.25.21-.45.29-.72.59-.04.29-.05.7-.36.88-.05.03-.26-.02-.36,0-.03.08.02.2,0,.29.36.3.13.91.18,1.33,0,.05-.01.1,0,.15l.18.29c.19.26.3.28.54.44h.54s0,.29,0,.29c.13.07.26.1.36.15l2.64.41c.27.03.28.3.48.37.46.15,1.31-.1,1.23.4.18,0,.36,0,.54,0,1.82-.02,3.39-.34,5.03-.72.76-.18,2.3-.65,2.94-.69.3-.02.29.08.35.09,1.03.24,1.06.74,1.71,1.19,4.14,2.86,9.17,6.05,14.03,7.96.16.06.58-.01.78.15l1.58,1.03c.05.02.13-.02.18,0,.66.21,1.42.39,2.09.59l1.34.89c.12.05.24.1.36.15.35-.03.67.05,1,.14,1.26.35,2,.75,3.02,1.22,1.15.53,4.3,1.26,5.6,1.63.24.07.98.24.87.55.06.01.13-.01.18,0l.18.15c.43.11,1,.15,1.45.3.03.03-.38.5-.47.57-1.07.91-3,2-4.24,2.89-2.53,1.82-5.45,3.71-7.89,5.59-.34.26-1.68,1.4-1.82,1.69-.43.9-.4,2.08.41,2.83s2.23,1.2,3.34,1.48c.37-.2,1.44-.02,1.86.06,1.63.31,3.27.91,5.01.83v.29c3.81.36,6.51-.45,10.03-1.33.24-.06.66-.28.82,0,1.98-.68,4.42-1.71,6.33-2.51l.18-.15c.12-.05.24-.1.36-.15-.07-.56,1.05-.49,1.45-.59.05-.01.13.01.18,0-.14-.72.26-.23.59-.44.12-.07.15-.24.26-.3.24-.11,1.07-.56,1.31-.3.44-.22.34-.28.36-.29-.04.03-.19-.02-.18-.07.01-.16.27,0,.18.07.08-.04.43.04.54,0v-.44c.57.28,1.18-.59,1.63-.15.86-.35,1.67-.81,2.53-1.18.52,1.49,1.57,3.36,2.9,4.5.43.36,2.73,1.8,3.25,1.99l.36-.29.18.44c.06,0,.12,0,.18,0,2,.05,4.28,1.24,6.51,1.55,3.6.51,6.83.82,10.38.65.12,0,.11-.24.25-.28,1.66-.44.74-.34,1.35-.72.14-.09.44,0,.5-.03.07-.03.25-.9.72-.74.12-.15.2-.2.36-.44l-.17-.08v-.28s.54-.38.54-.38c.05-.09.12-.17.18-.29.16-.64.22-1.33.38-1.97.12-.47.37-1.27.52-1.95.06-.28-.2-.59.37-.51.01-.29,0-.59,0-.88-.46.09-.39-.21-.43-.47-.06-.46.12-.84-.12-1.3h8.78c6.16.09,12.37-.81,18.35-.89.18,0,.36,0,.54,0,.32-.33.88-.6,1.39-.68,4.36-.69,8.44-1.29,12.5-2.82.31-.12.33-.41.63-.53.86-.35,2.43-.65,3.39-.99.05-.02.13.02.18,0,.14-.11.54-.81.58-.84.19-.15.79-.11,1.04-.19.15-.05.26-.11.36-.15-.12-.44.51-.16.63-.59l.27.15c1.79-1.02,3.1-2.21,4.52-3.54-.11-.7.38-.62.54-.74.06-.05.12-.1.18-.15l1.12-1.83.51-.39c.08-.16.12-.3.18-.44-.26-.32.18-.95.31-1.3.1-.25-.13-.56.41-.47,0-.09.01-.2,0-.29,0-.05-.3-.22-.18-.44h.36c0-.1.01-.2,0-.3,0-.01-.16.02-.18-.22-.04-.42,0-.84,0-1.26h.36c0-.19.01-.39,0-.59-.55.08-.34-.23-.36-.51-.08-1.22-.46-2.45-.9-3.62-.02-.04.02-.1,0-.15l-1.32-1.51-.31-.85c-.05-.06-.13-.1-.18-.15-.73-.07-.94-.75-1.27-1.18-.36-.18-.88-.19-.9-.74-.25-.11-.52-.13-.54-.15h-.36s0-.44,0-.44c-.06-.05-.12-.1-.18-.15h-.54s0-.44,0-.44c-.06-.04-.11-.1-.18-.15l-2.85-1.14c-1.12-.67-2.69-1.18-3.92-1.68-.4-.16-.54-.09-.47-.58-.06-.04-.12-.1-.18-.15-.39-.27-.71-.57-1.07-1.01-.3-.37-.73-1.2-.92-1.5-1.82-2.75-6.02-6.12-9.23-7.82l-.59.14-1.04-.73c-.05-.01-.13.02-.18,0-1.24-.36-2.73-1.15-3.71-1.43-1.21-.35-2.71-.49-3.77-.81-.33-.1-.11-.41-1.14-.51-.49-.05-1.08-.04-1.55-.09-1.88-.22-3.87-.77-5.84-.85l-7.14-.3c-.12,0-.24,0-.36,0,.1.45-.28.28-.62.3-3.67.13-7.46.53-11.04.62-.4.01-.8.22-1.24.1-.34-.09-.23-.34-.3-.42-.22-.26-.37-.29-.54-.44-.66.15-.5-.26-.54-.29-.18-.13-.25-.21-.36-.29-.09-.07-.64-.02-.54-.44-2.71-1.97-5.62-3.73-8.5-5.46l-.09.15c-.62.14-.41-.26-.45-.29-.18-.13-.85-.56-.9-.59-.07-.04-.43.07-.52-.02.12-.67-.56-.32-1-.56-.04-.02-.21-.38-.47-.6-.06-.05-.12-.11-.18-.15l-.09.15h-.27s-.18-.44-.18-.44c-.06-.01-.12.01-.18,0-.3-.06-.84.05-1.16-.14-.16-.09-.07-.33-.15-.41-.27-.27-1.46-.27-1.4-.78-.06,0-.12,0-.18,0-1.11.02-2.48-.58-3.87-.75-.37-.05-.91-.08-1.2-.28-.24,0-.48,0-.72,0,.11.52-.59.22-.96.3-.15.03-.14.28-.21.3-.53.11-.6-.75-1.12,0l-3.13.3c-.14.05-.25.11-.36.15l-.81.53c-.69.06-.6,1.27-1.55,1.39,0,.05,0,.1,0,.15,0,.21.35.69.18,1.03h-.36s0,.1,0,.15l.18.15c.06.22.1.38.18.59.4-.07.4.16.52.38.36.7.62,1.65.93,2.27.42.84.98,1.56,1.45,2.36.69-.05.6.84.72,1.18.02.05-.02.1,0,.15.75.12.43.32.54.59.06.13.14.21.18.29.55-.07.41.52.61.83.09.14.8.82.89.97.16.28.52,1.02.14,1.22-1.68.19-3.67.2-5.3.55-.31.07-.52.09-.5.4l-.34-.02c-.2-.76-.59.05-.91.1-1.44.24-3.56.27-5.08.36-.06,0-.12,0-.18,0-1.47.33-3.02.53-4.52.74-1.27.18-2.51.38-3.56.59-.84.17-1.75,0-2.41,0-.24,0-.48,0-.72,0-.03,0-.28.16-.62.16-.41,0-2.4-.75-2.6-.94-.09-.08-.01-.24-.04-.26-4.73-4.46-7.97-9.17-12.3-13.72l-.18-.15c-.14-.15-.28-.21-.36-.29h-.34s-.02-.44-.02-.44c-.06-.05-.12-.1-.18-.15-.16-.12-.66-.04-.54-.74-.19-.19-.45-.34-.54-.44-.12.39-.99-.45-1.03-.49-.13-.16,0-.45-.24-.62-.2-.15-1.76-.89-2.14-1.06-.3-.14-.51.07-.39-.48-.06,0-.12,0-.18,0ZM10.15,2.96c.05-.1-.03-.31,0-.44.32,0,.64.03.95-.03,1.53-.3,4.33-.4,6.01-.41,1.34,0,3.34-.05,4.58.4.37.13.49-.05.39.48.19.06.38.1.54.15,1.3.41,1.67.96,2.35,1.92.03.04-.03.11,0,.15.95.05.89.83,1.13,1.14.23.29.3.06.68.78.05.1.12.2.18.29.44.03.79.28.72.65l-.17.09c2.28,3.18,5.8,7.33,8.5,10.03.51.51,1.52,1.56,2.17,1.77.08.03.31-.04.36,0,.06.05-.03.33,0,.44.02.05-.02.1,0,.15h.72c.04.09-.03.23,0,.29,1.23.33,1.71.8,3.05,1.13.73.18,2.99.42,3.71.35.13-.01.04-.3.38-.32.53-.03,1.91.08,2.35,0,.21-.04.19-.38.41-.43,1.22-.27,3.64-.41,5.05-.57,1.55-.18,3.23-.36,4.53-.61.41-.08.79.17,1.05.16.11,0,.09-.28.22-.3.38-.07.84.17,1.05.13s.2-.39.41-.43c.51-.1,1.46.01,1.92-.05,3.74-.49,8.23-.8,11.76-1.43.13-.02.07-.44.73-.29.13.03.12.46.65.3l.1-.45c2.25-.12,4.47-.49,6.71-.72.32-.03.61.12.85.1,1.56-.14,3.31-.59,5.09-.7.24-.01.54.16.71.13.2-.04.17-.66,1.25-.43.2.05-.03.37.39.3.21-.4,1.45-.53,2.02-.58,3.32-.29,6.46-.48,9.73-.75.53-.04,1.36-.09,1.72.3.12,0,.24,0,.36,0-.15-.4.93-.4,1.2-.42,3.02-.32,9.01.22,12.01.63,2.35.33,4.32,1.17,6.22,1.42,1,.64,2.36.57,3.19,1.32.06.05.11.1.18.15l.09-.14,1.18.73c.06-.01.12.01.18,0,.01,0,.02-.14.09-.15l.09.15c.04.06.13.1.18.15l.97.29c.13.65.49.37.92.61.92.52,1.93,1.32,2.52,2,.05.06.2.06.29.05v.14c-.11.02-.31-.03-.36,0-.03.02-.15.23-.18.29-.32.74-.55.87-1.45,1.18-.23.08-.37.1-.54.15-.05.02-.13-.02-.18,0-.01,0-.06.11-.18.15-.05.02-.13-.02-.18,0,.1.38-.22.3-.49.4-2.45.84-4.72,1.33-7.4,1.76-.56.09-1.41-.04-2.15.19-.45.14-.41.4-.67.5-.24.09-.7.04-.83.13-.08.06-.06.35-.21.49s-.47.14-.55.32c-.22.49-.56,2.52-.56,3.06,0,.89.57,3.47.92,4.35.02.04-.02.1,0,.15.01.03.27.29.36.44.03.04-.03.11,0,.15.04.05.13.09.18.15.1.1.24.21.36.29.45-.44.49.13.98.22s3.14.25,3.63.22c1.57-.1,4.13-.55,5.85-.84.98-.16,6.74-1.84,7.33-2.25.18-.13.06-.38.22-.47.24-.13.72-.06.93-.17.75-.4,1.58-1.18,2.4-1.73.07-.04.12-.11.18-.15l.46-.89,1.56.33.33.42s.14.14.36.15c.02,0,.27-.23.36-.15.05.04-.04.25,0,.3.04.04.85.57.9.59.02-.19.09-.41.36-.44v.59c.06.02.13-.01.18,0,.34.09,1.02-.04.9.44.08.02.19.1.36.15.42.11,1-.18.9.59.12.04.24.11.36.15.15.04.53-.07.69.02l.21.72c.06.05.12.1.18.15.72-.12.58.29.72.44.14.15.11.19.36.29.11.05.42-.07.63.14s.22.77.45,1.04c.06.05.12.1.18.15.02.01.2-.05.32.04.26.2.33.82.4.99.02.04-.02.1,0,.15l.73.4c1.1,2.52,1.1,5.35-.11,7.84l-1.7,1.93s.02.11,0,.15c-.15.27-.34.4-.36.44-.04.08.02.27-.1.43-.41.54-1.37,1.59-2.25,1.49-.21.16-.5.29-.72.44.07.41.04.44-.32.7s-1.86,1.01-2.21,1.07c-.06,0-.12-.01-.18,0-.2.69-.83.61-1.45.74-.06.01-.12-.01-.18,0v.44s-.36-.15-.54-.15c-.06,0-.12,0-.18,0-.01,0-.06.12-.18.15-.06.01-.13-.01-.18,0,.02.68-.86.41-.89.45-.06.08.08.33-.12.45-.31.19-.89.11-1.07.17-.77.24-1.85.8-2.59.74l-.14.26c-.56-.3-.37.1-.55.14-.4.09-.93-.34-1.09.46-2.02.28-4,.82-6,1.15-2.52.42-5.54.91-8.5,1.17-.78.07-2.82-.04-3.36.03-.14.02-.03.27-.38.31-.72.08-1.56-.14-2.16-.11-4.72.22-9.62.65-14.5.4-.35-.02-1.31-.09-1.59-.15-.22-.05-.1-.28-.12-.29s-.24.06-.36-.11c-.25-.34,0-.59,0-.63-.01-.1,0-.2,0-.29l-.77-.63c-.42-.67-.72-1.57-1.22-2.17-.47-.16-1.43-.25-1.27-.88-.05-.02-.12.01-.18,0-.1-.02-.16-.14-.18-.15-.06-.01-.12.01-.18,0-1.02-.18-2.11-.31-3.15-.29-.17.02-.14-.23-.1-.3.14-.29.92-.33,1.06-.47.09-.09,0-.22.03-.27.04-.06-.1-.17.11-.31.37-.24,1.73-.65,2.24-.73h.18c.04-.06.11-.13.18-.15.05-.02.13.01.18,0,.01,0,.05-.11.18-.15.05-.01.13.01.18,0,.04-.12-.03-.3,0-.44.17-.02.39.03.54,0,.28-.05.32-.08.54-.15.05-.17.25-.21.36-.29.27-.21.99-.7,1.28-.82s.49.09.53.08c.21-.04.32-.14.36-.15l.03-.42c.25-.16.64-.1.88-.17.17-.05.25-.11.36-.15-.02-.55.69-.47.86-.55.28-.12.23-.47.77-.34.04-.05.15-.09.18-.15.05-.08-.08-.34.02-.43.07-.07.3,0,.34-.01.07-.04.12-.1.18-.15-.37-.57.39-.37.17-1.07-.01-.04-.5-.59-.54-.62-.15-.13-.42-.13-.59-.23-.12-.07-.13-.24-.16-.25-.07-.03-1.2-.02-1.49-.05-1.69-.17-3.9-.5-5.65-.57-2.52-.1-5.37.27-7.66-.45.1.45-.28.29-.62.3-.83.02-1.72.03-2.55,0-.35-.01-.73.15-.62-.3-.22-.11-.47-.14-.72-.15h-12.66c-1.07.05-1.46.35-1.93.44-.94.18-2.51.06-3.58.29-2.12.44-3.19,1.48-4.72,2.21-.36.17-.8.15-1.16.31-.03.08.04.22,0,.29-.25.49-.55.6-1.27.59-.05.05-.13.09-.18.15-.03.03.06.22-.02.28-.11.08-.4-.02-.52.02-.05.01-.13.1-.18.15-.99.87-.84,1.07-2.35,1.62-.1.04-.3.1-.36.15-.12.09.18.2-.54.44-.05.02-.13-.02-.18,0l-.21.72c-.16.09-.55-.03-.69.02s-.9.52-.9.59c0,.03.24.17.18.29-.46,0-2.01.38-1.81-.44-.1-.02-.26.02-.36,0,.04.67-.67,0-.9-.05-.9-.19-1.66-.28-2.35-.46-.25-.06-.84-.16-.97-.22-.32-.14.18-.68-.55-.3l-.13-.27-.4.11c-1.6-.62-3.55-1.24-5.13-1.71-.2-.06-.23-.28-.27-.29-.36-.12-1.45.03-1.22-.64-.23-.08-.43-.11-.54-.15-.41.35-2.06-.22-1.81-.74-.05-.02-.14.02-.18,0,.04.03-.03.15-.09.15-.2-.01,0-.22.09-.15-.03-.01.03-.14,0-.15-.89.17-2.33-.53-3.14-.91-.34-.16-.37-.43-.53-.52-.61-.36-2.52-.48-2.48-1.37-.05-.02-.13.02-.18,0-.43-.12-1.19.01-1.09-.74-.06-.01-.12.01-.18,0-.31-.07-.92-.15-1.21-.26-.38-.14-.46-.3-.42-.63-.05-.02-.13.02-.18,0-.11-.04-.39.05-.71-.08-.15-.06-.73-.61-.55-.8-.3-.1-.4-.11-.72-.15-.46-.05-.16-.12-.4-.25-.09-.05-.63.2-.5-.49-.12-.05-.24-.1-.36-.15-.09-.03-.37.07-.5-.03-.1-.07-.15-.58-.4-.71-.5-.3-.97-.56-1.45-.88-.71-.48-1.17-.99-1.99-1.47-.13-.07-.48-.03-.63-.29-.08-.14.07-.31.09-.45,0-.01-.18-.06-.18-.14h.73c.18-.06.36-.09.54-.15v-.29c.23-.02.5.03.72,0,.06,0,.12,0,.18,0v-.29c.24-.02.49.02.72,0,.06,0,.12,0,.18,0v-.29c.23-.03.5.03.72,0,.06,0,.12,0,.18,0l.02-.42c.27-.24.66-.02.7-.03.23-.04.37-.11.54-.15.01,0,.06-.11.18-.15.05-.02.13.02.18,0v-.29c.23-.03.52.04.72,0,.06-.01.13.01.18,0,.02,0,.08-.12.18-.15.06-.02.14.02.18,0,.01,0,.09-.09.18-.15.04-.02.15.02.18,0,.04-.04-.04-.26,0-.29.1-.08.34.15.36.15.31,0,.63-.18.9-.29v-.44c.17-.03.4.03.54,0,.06-.01.13.01.18,0,.02,0,.08-.11.18-.15.05-.02.13.02.18,0,.03-.07.09-.13.18-.15.05-.01.12,0,.18,0v-.29c.17-.03.41.03.54,0,.18-.04.26-.12.36-.15-.11-.5.62-.31.86-.48.14-.1.11-.37.27-.51.63-.55.78-.18.85-1.22-.28-.78-.39-1.02-1.32-1.36-1.39-.5-2.76-.57-4.38-.71-.42-.04-.84.01-1.26,0l-.1-.45c-1.02.28-1.87,0-2.79-.01-2.23-.04-4.48-.01-6.71.01-.51,0-2.15-.06-2.52.01-.19.04-.19.34-.42.42-.4.15-1.05.12-1.49.15-.06,0-.12,0-.18,0,.16.47-.98.46-1.18.31-.23-.17-.6-.99.1-.9-.02-.57.08-.96.36-1.47.02-.05-.05-.17.04-.26.06-.06.37-.12.51-.18.05-.02.13.02.18,0v-.44c.19.04.34.14.54.15.06,0,.12,0,.18,0,.03-.43.14-.39.58-.39s1.51-.23,2.25-.29c.26-.02.58.16.86.09.34-.08.15-.59.65-.43l.18.29c.2-.72.31-1.23.16-1.97-.11-.53-.59-1.18-.66-1.54-.06-.27-.02-.82-.1-1.12-.32-1.17-1.2-3.39-1.02-4.52.01-.1,0-.2,0-.29h-.36c-.08-.17.18-.28.18-.29.02-.09,0-.2,0-.29l-.51-.24c.21-.44-.11-.79-.17-1.2-.01-.11.13-.18.13-.19-.02-.09.01-.2,0-.29l-.65-.99c-.21-.39-.05-1.2-.07-1.37-.01-.1,0-.2,0-.29h-.54c.12-.44-.12-.86-.16-1.26,0-.11.16-.2.16-.21-.01-.1,0-.2,0-.29-.54.09-.32-.22-.41-.47-.42-1.15-.99-2.54-1.29-3.69-.14-.52-.27-1.27-.11-1.74.01-.03.15-.08.18-.15ZM64.77,5.32c-.12-.32.64-.48.88-.54.82-.21,1.68-.21,2.44-.35.13-.02.11-.26.25-.29,1.23-.24,1.67.48,2.65.29.08-.01.24-.51,1.11-.3l.1.45c.69-.19,1.76.3,2.47.56.45.17,1.35.25,1.15.76.23.12,1.02.56.9.74.19.08.41.09.54.15.48.2.97.39,1.45.59.09.04.14.13.18.15.12.04.24.11.36.15s.38-.04.54,0v.44c.14.07.28.1.37.15.21.11.31.27.36.29.04.02.14-.02.18,0,.07.04.12.12.18.15.31.16.6.29.9.44.09.04.14.13.18.15.12.05.24.1.36.15.66.25.17.09.36.44.02.04.28.09.36.15.06.04.14.13.18.15.12.05.25.09.36.15.44.21,1.15.39,1.69.77.38.26.77.66,1.02,1,.11.06.25.09.36.15.06.03.32-.01.53.08.63.29,1.76,1.2,2.19,1.69.05.01.13-.01.18,0,.14.03.38-.03.54,0-.01.1.02.21,0,.29-.02.06-.16.1-.18.15-.41.73-.28.29-.98.45-3.12.73-7.67.9-11.03,1.22-.29.03-1.39.11-1.46.12-.23.05-.2.38-.4.42-.74.17-.44-.39-.96-.3-.11.79-.88.27-1.33.34-.52.07-1.47.35-2.01.41-.2.02-1.11.02-1.18-.02-.06-.09.02-.23-.01-.28-.05-.1-.14-.2-.18-.29-.85-.18-.85-.87-1.09-1.47-.02-.05.02-.1,0-.15h-.35c.01-.28-.08-.49-.19-.74-.02-.04.02-.11,0-.15-.01-.02-.14-.06-.18-.15-.02-.04.02-.11,0-.15h-.54c0-.2,0-.39,0-.59,0-.05,0-.1,0-.15-.36-.29-.92-.83-1.15-1.18-.16-.25-.37-1.07-.48-1.33-.02-.04.02-.1,0-.15,0-.02-.15-.07-.18-.15-.02-.05.02-.1,0-.15,0,0-.12-.04-.18-.15-.02-.04.02-.1,0-.15h-.54c-.09-.21.18-.28.18-.29,0-.05,0-.1,0-.15-.53-.17-.43-.56-.54-.88-.02-.05.02-.1,0-.15l-1.03-1.13-.25-1.44c.03-.18.31-.05.37-.08.08-.04.13-.13.18-.15.05-.02.1-.12.18-.15.05-.02.13.02.18,0ZM28.87,6.06v.15c-.12-.05-.12-.1,0-.15ZM36.46,18.16v.15c-.12-.05-.12-.1,0-.15ZM140.2,30.1c-.36.46-.63.9-1.27,1.18-.06.05-.12.1-.18.15-1.31,1.11-2.93,1.59-4.69,2.06l-2.36-3.83c-.43-.59-.84-1.18-1.27-1.77-.14-.19-.41-.33-.36-.59,1.71-.4,3.32-1.25,5.06-1.77.28-.22.62-.85,1.2-1.02l.53.27,3.81,4.58c.17.47-.31.54-.47.74ZM123.56,28.63c.95-.06,1.51-.51,2.24-.28l.21-.31c.58.26.82.12,1.35-.08.15.13.32.26.4.42.96,1.76,2.56,3.58,3.57,5.42.07.13.08.31.18.44-.23-.04-.37.08-.54.15-.97.4-1.05.23-1.81.29-.12.01-.24-.01-.36,0,.11.44-.26.27-.6.32-1.22.18-5.24.78-6.09.19-.96-.66-1.26-4.3-1.08-5.3.06-.32.19-.33.35-.52.52-.61.8-.39,1.49-.6.15-.05.13-.28.26-.29.22-.03.4.16.42.16ZM12.5,30.25c-.11-.48.3-.24.62-.29,3.32-.6,10.28-.25,13.62.26.34.05.72-.02,1.01.04.05,0,.47.43.85.44v.15c.01.18-.25.21-.36.29-.03.02-.14-.02-.18,0-.07.04-.13.18-.36.29-.04.02-.14-.02-.18,0-.04.02-.08.1-.18.15-.05.02-.13-.02-.18,0-.03.01-.08.11-.18.15-.05.02-.13-.02-.18,0-.03.01-.08.11-.18.15-.05.02-.13-.02-.18,0v.44c-.17.03-.4-.03-.54,0-.06.01-.12-.01-.18,0-.01,0-.06.12-.18.15-.05.01-.13-.02-.18,0l-.57.55c-.67-.35-.4.48-1.06.04-.16.05-.34.08-.54.15-.05.64-.73.35-.89.46-.17.12.32.32-.8.6-.26.06-.65.28-.85-.03l-.36.15c.32.43.07.18-.17.25-1.87.58-2.85,1.1-4.9,1.52-.06.01-.12-.01-.18,0,.03.48-.32.35-.63.44-.7.22-1.44.38-2.08.44-.06,0-.12,0-.18,0-.57.02-.85.55-1.17.59-1,.15-3.51.21-4.53.12-.59-.06-1.22-.46-1.98-.26l-.13-.42-.51-.32c-.1-.02-.24.01-.36,0-1.07-.1-.45-.08-.72-.29-.02-.02-.73.02-.36-.29.04-.04.31.03.36,0,.18-.12-.1-.57.9-.88.05-.02.13.02.18,0l.09-.3.09.3c1.1-.46,1.78-1.38,2.62-1.92.64-.41,1.59-.49,1.9-1.18.04-.1-.07-.29.08-.45.2-.2,1.4-.62,1.72-.73.05-.02.13.02.18,0,.03,0,.08-.12.18-.15.05-.02.13.02.18,0,.01,0,.06-.11.18-.15.05-.02.13.02.18,0-.18-.75.56-.42.9-.44.12,0,.24,0,.36,0ZM65.13,46.92c0-.1.46-.42.49-.44,2.23-.88,2.84-.7,5.21-.73.56,0,.77-.26,1.25-.32,3.76-.43,9.06.18,12.84.15,2.07-.02,3.98.1,5.99.15.35,0,1.3.08,1.58.16.2.06.06.26.22.29.42.07.18-.25.39-.3s2.09-.02,2.2.04c.1.05.11.34.33.4.18.04,1.75-.21,2.34-.15.35.04.24.31.36.31.22,0,.66-.17,1.07-.17.65,0,.84.23,1.11.27.63.07,1.35-.48,1.51.63-.52-.14-.55.32-.89.39-.19.04-.18-.09-.19-.09-.06,0-.12,0-.18,0,.09.46-.3.66-.8.73l-.1-.14-.18.15c-.07.23-.17,0-.18,0-.06.01-.13-.01-.18,0s-.13-.01-.18,0c-.03,0-.09.13-.18.15-.06.01-.12-.01-.18,0-.01,0-.05.12-.18.15-.06.01-.13-.01-.18,0-.04.06-.1.12-.18.15-.05.02-.13-.02-.18,0-.03.01-.08.11-.18.15-.05.02-.13-.02-.18,0-.03.01-.08.11-.18.15-.05.02-.13-.02-.18,0-.03.01-.09.11-.18.15-.13.06-.36.06-.54.15v.44s-.36,0-.36,0v-.29c-.43.2-1.07.7-1.63.88l-.18.15h-.18c-.04.06-.1.11-.18.15-.05.02-.13-.02-.18,0-.03.01-.08.1-.18.15-.05.02-.13-.02-.18,0-.03.01-.08.11-.18.15-.05.02-.13-.02-.18,0-.03.01-.08.11-.18.15-.05.02-.13-.02-.18,0l-.02.42c-.06.05-1.39.38-1.61.46-.05.02-.13-.02-.18,0-.03,0-.08.11-.18.15-.05.02-.13-.02-.18,0-.03.01-.08.11-.18.15-.05.02-.13-.02-.18,0-.03.01-.08.11-.18.15-.05.02-.13-.02-.18,0-.03.01-.08.11-.18.15-.05.02-.13-.02-.18,0-.03.01-.08.11-.18.15-.05.02-.13-.02-.18,0-.03.01-.08.11-.18.15-.05.02-.13-.02-.18,0v.44c-.17.03-.4-.03-.54,0-.06.01-.13-.01-.18,0-.02,0-.08.12-.18.15-.05.02-.13-.02-.18,0-.02,0-.08.11-.18.15-.05.02-.13-.02-.18,0-.03.01-.08.11-.18.15-.05.02-.13-.02-.18,0-.03.01-.08.11-.18.15-.05.02-.13-.02-.18,0-.03.01-.08.11-.18.15-.05.02-.13-.02-.18,0-.04.01-.09.11-.18.15-.26.1-.59.16-.9.29v.44c-.17.03-.4-.03-.54,0-.2.04-.35.09-.54.15-.03,0-.09.12-.18.15-.31.1-.58.17-.9.29-.34.45-1.07.55-1.63.74-.05.02-.13-.02-.18,0v.44c-.17.02-.39-.03-.54,0-.06.01-.13-.01-.18,0l-.64.44-.09-.14c-.25.09-.41.25-.54.29-.12.04-.24.1-.36.15-.27.1-.59.17-.9.29-.04.01-.09.11-.18.15-.14.06-.35.07-.54.15v.44c-.17.03-.4-.03-.54,0-.2.04-.35.09-.54.15-.02,0-.08.11-.18.15-.05.02-.13-.02-.18,0-.03,0-.08.11-.18.15-.05.02-.13-.02-.18,0-.03.01-.08.11-.18.15-.05.02-.13-.02-.18,0-.03.01-.08.11-.18.15-.05.02-.13-.02-.18,0-.03.01-.08.11-.18.15-.05.02-.13-.02-.18,0-.03.01-.08.11-.18.15-.05.02-.13-.02-.18,0-.03.01-.08.11-.18.15-.05.02-.13-.02-.18,0-.03.01-.08.11-.18.15-.05.02-.13-.02-.18,0v.44c-.17.02-.38-.03-.54,0-.06,0-.12-.01-.18,0l-.03.28c-.13.08-.43-.01-.51.02-.06.03-.43.81-1.09.44-.03.03.02.1,0,.15l-.09.15-.09-.15c-.06,0-.12,0-.18,0,.16.54-.69.27-.71.3-.06.08.07.29-.13.44-.31.24-1.25.32-1.69.28-.12.05-.24.1-.36.15l.09.29c-.3-.24-.26.14-.36.14s-.33-.15-.46-.13c-.06,0-.12,0-.18,0-.11.25-.2.41-.49.56-1.04.55-2.18.83-3.29,1.29-.27.11-.41.45-.38-.09-.14.05-.35.08-.54.15-.01,0-.06.1-.18.15-.05.02-.13-.02-.18,0-.27,1.03-.68.6-1.45.74-.06.01-.12-.01-.18,0-.02,0-.08.13-.18.15-.06.01-.13-.01-.18,0-.01,0-.06.11-.18.15-.05.01-.13-.02-.18,0l-1.12.78c-.37.18-.89.04-1.23.1-.06.01-.12,0-.18,0-.04.87-.77.62-1.36.77s-2.6,1-3.47,1.14c-.51.08-1.29,0-1.69.08s-.29.59-1.31.37c-.14-.03-.04-.42-.95-.3-.32.04-.32.55-1.12.26-.59-.22-1.01-.39-1.8-.49-2.3-.3-4.18-.82-6.15-1.23-.65-.14-1.12.35-.96-.59-.06-.01-.12.01-.18,0-.16-.03-.44.1-.56-.09l-.17-.5c.11-.02.29.03.36,0,.12-.05.12-.09.18-.15.02-.02-.04-.17.05-.25.27-.24.71-.46.95-.78h.27s0,.29,0,.29c5.84-4.05,11.2-8.09,16.82-11.95-.56-.67,1.04-.98,1.39-1.23.22-.15.26-.49.48-.64,1.97-1.36,4.01-2.37,5.87-3.84l1.12-.34s.12-.1.18-.15c.03-.03,0-.11.09-.15l.09.15c.06,0,.12,0,.18,0ZM38.45,48.54v.15c-.12-.05-.12-.1,0-.15ZM91.9,55.62c.09.37-.31.36-.54.74,0,0,.06.02,0,.15-.02.04.02.1,0,.15-.03.07-.17.11-.18.15-.02.04.02.1,0,.15-.04.09.02.3-.04.48-1.04,2.8-1.54,4.2-1.04,7.27.15.92.52,1.91.72,2.73.01.05,0,.1,0,.15,0,.01.16.06.18.15.01.05-.02.1,0,.15.58-.1.44.46.54.74.03.08-.03.21,0,.29,0,.02.16.07.18.15.01.05-.02.1,0,.15,0,.01.16.05.18.15.01.04,0,.1,0,.15,0,.1.07.3-.09.3l-7-.9-.86-.58c-.12-.01-.24.01-.36,0-.17-.02-1.04.27-.9-.29-.12-.01-.25.02-.36,0-.69-.09-2.09-.07-2.17-.74-.18-.05-.35-.11-.54-.15-.15-.03-.37.03-.54,0v-.44s-.14.02-.18,0c-.22-.11-.28-.24-.36-.29-.91-.54-1.32-1.02-1.99-1.77-.57-.64-.66-.68-1.09-1.47,0-.01-.13-.04-.18-.15-.02-.04.02-.1,0-.15-.01-.03-.11-.09-.18-.29-.03-.08.02-.2,0-.29h-.36c-.1-.29.05-.39.18-.59.12-.18.26-.2.36-.29.02-.02-.07-.19.12-.3.45-.28,1.35-.43,1.87-.58.05-.02.13.01.18,0s.12.01.18,0c.01,0,.06-.09.18-.15v-.43c.18-.06.39.01.54-.01.06,0,.12.01.18,0,.15-.03.17,0,.18,0,.07-.02.13-.13.18-.15.2-.06.17,0,.18,0,.08-.03.13-.13.18-.15.09-.03.22-.1.36-.15.8-.28,1.59-.54,2.35-.88v-.44c.17-.03.4.03.54,0,.06-.01.13.01.18,0,.02,0,.08-.12.18-.15.05-.02.13.02.18,0,.02,0,.08-.11.18-.15.05-.02.13.02.18,0,.03-.01.08-.11.18-.15.05-.02.13.02.18,0,.03-.07.1-.13.18-.15.06-.01.13.01.18,0-.09-.5.9-.48,1.27-.59.05-.02.13.02.18,0,.03,0,.08-.12.18-.15.06-.02.13.02.18,0v-.44c.17-.03.4.03.54,0,.06-.01.13.01.18,0,.02,0,.08-.12.18-.15.06-.02.13.02.18,0,.03,0,.08-.11.18-.15.05-.02.13.02.18,0,.03-.06.1-.13.18-.15.06-.01.12.01.18,0-.1-.36.23-.32.53-.37,1.16-.19,2.33-.25,3.51-.22.22.04.09.2.12.3ZM93.17,58.87c-.04-1.04,1.2-1.72,1.99-2.42l.36-.09c.13.42.81.64,1.18,1.03.92.95,1.2,2.22,1.35,3.4.57,1.44.48,3.38.18,4.87-.18.88-1.31,3.67-2.48,3.82-.86.1-2.09-2.04-2.4-2.64-1.29-2.49-1.69-5.12-.54-7.71.07-.12.22-.12.36-.1v-.15ZM75.35,63.44v.15c-.12-.05-.12-.1,0-.15Z"/>
  <path class="cls-17" d="M8.7,7.98l4.34,15.63c-3.12,0-6.12.94-6.49,3.78-.15,1.13.26,2.17.16,3.3.05-.02.23.05.32-.03.13-.11.28-1.01.22-1.2-.11-.34-.16.2-.17-.77-.03-1.58-.27-2.62,1.45-3.79,1.54-1.05,3.2-.61,4.89-1.23-.25-1.76-.89-3.45-1.44-5.16-.43-2.39-1.23-4.49-1.9-6.88-.27-.96-.36-2.36-.96-3.1-.07-.08.35-.58-.42-.56Z"/>
  <path class="cls-25" d="M127.72,60.34c-5.98.08-12.19.98-18.35.89h-8.78c.23.45.06.84.12,1.29.03.26-.04.56.43.47-.01-.52.03-.97-.18-1.47,8.94.01,17.96.06,26.77-1.18Z"/>
  <path class="cls-25" d="M106.74,13.29l7.14.3c1.97.08,3.96.63,5.84.85.47.06,1.06.04,1.55.09,1.03.1.81.41,1.14.51,1.05.32,2.56.46,3.77.81.98.29,2.47,1.08,3.71,1.43l-1.55-1.01c-6.95-2.57-13.98-3.05-21.6-2.97Z"/>
  <path class="cls-25" d="M146.17,55.33c-.96.34-2.53.63-3.39.99-.29.12-.32.41-.63.53-4.05,1.53-8.13,2.12-12.5,2.82-.52.08-1.07.35-1.39.68,1.04-.02,2.67-.45,3.8-.66,4.83-.89,9.13-2.03,13.44-3.94.25-.11.54-.17.66-.42Z"/>
  <path class="cls-25" d="M79.24,69.34c2.24.84,4.4,1.49,6.84,1.87,2.75.43,8.89,1.22,11.24.11.73-.35.61-.53.92-.8.33-.29.39-.31.72-.74-.47-.16-.66.7-.72.74-.06.03-.36-.06-.5.03-.62.38.3.28-1.35.72-.14.04-.13.27-.25.28-3.55.16-6.78-.14-10.38-.65-2.23-.32-4.51-1.5-6.51-1.55Z"/>
  <path class="cls-17" d="M22.45.6c-.35-.24-.96-.34-1.4-.4-2.27-.32-5.58-.19-7.92-.04-.75.05-4.34.3-4.61.71-.06.09.04.28,0,.33-.02.03-.35.26-.54.44-.03.03-.33-.02-.51.24-.7.98.78,4.65,1.23,5.81.03-.06.37-.07.37-.37,0-.09-.29-.05-.36-.18-.47-1.05-.56-2.42-.74-3.5-.04-.24-.33-.42-.37-.74-.03-.28.2-1.05.38-1.26.02-.02.26,0,.36-.08.17-.14.17-.35.18-.36.06-.04.56-.07.76-.16.13-.05.14-.26.27-.28,1.27-.23,2.61-.08,3.76-.14,2.24-.12,4.42-.31,6.67-.29.95,0,1.44.27,2.46.28Z"/>
  <path class="cls-25" d="M66.04,14.47c.06.12.03.33.14.54.39.72,1.34,1.37,1.31,2.26l-8.56.89c-.66.67-2.49.13-3.38.73,1.52-.09,3.64-.12,5.08-.36.32-.05.71-.87.91-.1l.34.02c-.02-.31.18-.33.5-.4,1.63-.35,3.62-.36,5.3-.55.38-.21.02-.94-.14-1.22-.09-.15-.8-.83-.89-.97-.19-.32-.06-.9-.61-.83Z"/>
  <path class="cls-25" d="M93.17,13.88c.07.08-.04.34.3.42.44.12.84-.09,1.24-.1,3.58-.09,7.37-.49,11.04-.62.35-.01.72.15.62-.3-1.89.03-3.81.04-5.7.15-2.46.15-5.09.73-7.51.44Z"/>
  <path class="cls-25" d="M37.28,50.31c3.45,1.36,6.76,2.62,10.49,3.54.11-.31-.63-.48-.87-.55-1.3-.36-4.46-1.1-5.6-1.63-1.02-.48-1.76-.88-3.02-1.22-.33-.09-.65-.17-1-.14Z"/>
  <path class="cls-23" d="M56.63,69.19c-.16-.28-.58-.06-.82,0-3.53.88-6.22,1.7-10.04,1.33l-.18.15c4.33.4,7.09-.12,11.03-1.47Z"/>
  <path class="cls-25" d="M15.21,38.36c-.07-.02-.05-.11-.35-.09-.65.05-2.19.51-2.94.69-1.63.39-3.21.7-5.03.72,1.64.3,4.11-.02,5.72-.42.24-.06.24-.26.39-.31.69-.19,1.59-.22,2.21-.6Z"/>
  <path class="cls-25" d="M38.91,69.34c1.93.49,4.83,1.15,6.69,1.33l.18-.15v-.29c-1.74.09-3.38-.51-5.01-.83-.42-.08-1.49-.26-1.86-.06Z"/>
  <path class="cls-23" d="M69.66,2.23c-2.19.05-3.52.24-5.43.88l3.13-.3c.52-.74.59.12,1.12,0,.07-.02.07-.27.21-.3.37-.07,1.08.23.96-.3Z"/>
  <path class="cls-23" d="M50.84,19.34c-1.78.19-3.56.4-5.35.58-.36.04-.44,0-.62.3.66,0,1.56.16,2.41,0,1.06-.21,2.29-.41,3.56-.59v-.29Z"/>
  <path class="cls-17" d="M22.63.6c-.12.56.09.35.39.48.38.17,1.94.92,2.14,1.06.24.17.1.46.24.62.03.04.91.88,1.03.49-.31-.33-.38-.68-.9-1.11-.46-.38-2.32-1.54-2.9-1.55Z"/>
  <path class="cls-25" d="M101.13,63.88c-.57-.08-.31.23-.37.51-.14.68-.4,1.48-.52,1.95-.16.64-.22,1.32-.38,1.97.81-1.65,1.19-2.58,1.27-4.42Z"/>
  <path class="cls-25" d="M2.01,38.51c1.34.66,2.67,1.2,4.34,1.18.08-.49-.77-.25-1.23-.4-.2-.06-.21-.34-.48-.37l-2.64-.41Z"/>
  <path class="cls-25" d="M143.09,28.33c-.07.49.08.42.47.58,1.22.49,2.8,1.01,3.92,1.68l2.85,1.14c-.69-.43-1.86-1.19-2.58-1.52-1.55-.69-3.21-.97-4.65-1.88Z"/>
  <path class="cls-23" d="M70.38,2.23c.29.19.82.23,1.2.28,1.38.17,2.76.77,3.87.75-1.1-.52-2.23-.93-3.53-1.03-.5-.04-1.03,0-1.54,0Z"/>
  <path class="cls-4" d="M156.12,37.63c.45,1.18.83,2.4.9,3.62.02.28-.19.59.36.51-.07-1.36-.31-2.97-1.27-4.13Z"/>
  <path class="cls-25" d="M33.48,48.69c.12.25.4.31.66.42.93.39,1.85.69,2.78,1.05l-1.34-.89c-.67-.2-1.43-.38-2.09-.59Z"/>
  <path class="cls-4" d="M50.84,19.34v.29c1.5-.21,3.05-.41,4.52-.74-1.46.09-2.99.28-4.52.44Z"/>
  <path class="cls-23" d="M40.9,19.19s-.05.18.04.26c.21.19,2.19.94,2.6.94.34,0,.59-.16.62-.16l-3.26-1.03Z"/>
  <path class="cls-23" d="M75.63,3.26c-.05.52,1.13.52,1.4.78.09.08-.01.31.15.41.32.19.86.07,1.16.14-.11-.5-2.24-1.31-2.71-1.33Z"/>
  <path class="cls-23" d="M61.7,7.24c.31.88.76,1.93,1.45,2.65-.31-.63-.57-1.57-.93-2.27-.11-.22-.12-.45-.52-.38Z"/>
  <path class="cls-23" d="M67.3,64.77c-.24-.26-1.07.19-1.31.3-.12.05-.14.22-.26.3-.33.2-.74-.29-.59.44,1.09-.29,1.31-.6,2.17-1.03Z"/>
  <path class="cls-17" d="M5.08,31.58c-.68.42-1.21.83-1.81,1.33,1.05.03,1.65-.55,1.81-1.33Z"/>
  <path class="cls-25" d="M30.95,47.51c.27.65,1.6.95,2.35,1.18l-1.58-1.03c-.2-.16-.62-.08-.78-.15Z"/>
  <path class="cls-23" d="M61.52,5.18c.94-.12.85-1.33,1.55-1.39l.81-.53c-.1.04-.33,0-.53.08-.78.35-1.76,1.06-1.83,1.84Z"/>
  <path class="cls-4" d="M157.02,44.85c-.54-.09-.32.22-.41.47-.13.35-.57.98-.31,1.3.25-.54.7-1.1.72-1.77Z"/>
  <path class="cls-25" d="M130.07,17.27l1.04.73.59-.14c-.72-.38-.87-.38-1.63-.59Z"/>
  <path class="cls-17" d="M1.64,34.09c.7.12,1.1-.73,1.45-1.03-.38.09-.91.38-1.18.59-.24.19-.24.42-.26.44Z"/>
  <path class="cls-4" d="M157.38,42.35h-.36c.01.42-.03.84,0,1.26.02.24.17.21.18.22.33-.4.18-.99.18-1.47Z"/>
  <path class="cls-25" d="M147.98,54.29c-.25.08-.85.04-1.04.19-.04.03-.44.73-.58.84.66-.22,1.16-.61,1.63-1.03Z"/>
  <path class="cls-23" d="M69.84,63.88c-.45-.44-1.06.43-1.63.15v.44c.54-.2,1.09-.37,1.63-.59Z"/>
  <path class="cls-4" d="M156.12,47.07l-.51.39-1.12,1.83c.88-.74,1.14-1.31,1.63-2.21Z"/>
  <path class="cls-21" d="M.38,37.18c-.05-.42.18-1.03-.18-1.33-.1.44-.48.92.18,1.33Z"/>
  <path class="cls-25" d="M64.59,12.26c.21.37.23.97.72,1.18-.12-.34-.04-1.23-.72-1.18Z"/>
  <path class="cls-23" d="M64.95,65.8c-.4.1-1.51.03-1.45.59.46-.17,1.08-.23,1.45-.59Z"/>
  <path class="cls-4" d="M152.14,33.05c.03.54.55.56.9.74.33.43.53,1.11,1.27,1.18-.51-.56-.51-.8-1.27-1.18-.08-.1-.04-.26-.26-.45-.25-.23-.44-.19-.65-.28Z"/>
  <path class="cls-23" d="M79.24,5.03c.26.22.43.58.47.6.44.23,1.12-.11,1,.56.09.09.45-.02.52.02.05.03.72.46.9.59.04.03-.17.43.45.29l.09-.15c-.24-.14-.51-.13-.54-.15-.18-.11-.57-.39-.9-.59-.02-.01.02-.24-.18-.36-.51-.31-1.21-.62-1.81-.82Z"/>
  <path class="cls-23" d="M61.34,6.36h.36c.17-.34-.17-.82-.18-1.03-.27.26-.22.7-.18,1.03Z"/>
  <path class="cls-4" d="M154.49,35.12l.31.85,1.32,1.51c-.37-.94-.97-1.6-1.63-2.36Z"/>
  <path class="cls-4" d="M154.31,49.43c-.16.12-.66.04-.54.74.22-.2.67-.26.54-.74Z"/>
  <path class="cls-25" d="M99.68,68.6l-.55.38v.28s.19.08.19.08c.26-.39.22-.48.36-.74Z"/>
  <path class="cls-21" d="M26.97,3.7c-.12.7.38.62.54.74.03-.41-.33-.53-.54-.74Z"/>
  <path class="cls-17" d="M.38,35.27l.18.29c.31-.19.32-.6.36-.88-.2.22-.34.25-.54.59Z"/>
  <path class="cls-25" d="M140.92,25.68c.19.29.63,1.13.92,1.5.35.44.67.74,1.07,1.01-.54-.88-1.09-1.82-1.99-2.51Z"/>
  <path class="cls-25" d="M150.51,31.87v.44s.54,0,.54,0c-.21-.16-.17-.19-.54-.44Z"/>
  <path class="cls-25" d="M91.18,12.4c-.1.42.45.37.54.44.11.09.19.16.36.29.04.03-.12.44.54.29-.27-.24-.49-.26-.54-.29-.13-.1-.16-.15-.36-.29-.13-.1-.28-.25-.54-.44Z"/>
  <path class="cls-25" d="M151.23,32.46v.44s.36,0,.36,0c-.04-.04.08-.32-.03-.42-.08-.07-.31,0-.33-.02Z"/>
  <path class="cls-4" d="M157.2,44.12h-.36c-.12.22.17.39.18.44.23-.07.19-.28.18-.44Z"/>
  <path class="cls-25" d="M149.24,53.7l-.27-.15c-.13.43-.76.16-.63.59.48-.16.53-.23.9-.44Z"/>
  <path class="cls-21" d="M27.69,4.59l.02.43h.34c-.07-.06-.07-.19-.36-.43Z"/>
  <path class="cls-25" d="M65.86,14.17c-.11-.27.2-.47-.54-.59.08.23.27.49.54.59Z"/>
  <path class="cls-21" d="M1.1,38.07c.28.19.31.17.54.29v-.29s-.54,0-.54,0Z"/>
  <path class="cls-17" d="M5.44,31.43l.52-.02.02-.28c-.18.1-.32.17-.54.29Z"/>
  <path class="cls-23" d="M78.52,4.59l.18.44h.27s.09-.15.09-.15c-.18-.1-.28-.24-.54-.29Z"/>
  <path class="cls-21" d="M.2,35.56c.1-.02.31.03.36,0l-.18-.29c-.06.1-.12.14-.18.29Z"/>
  <path class="cls-25" d="M78.52,69.19c.07.03.51.15.54.15l-.18-.44-.36.29Z"/>
  <path class="cls-21" d="M.56,37.63l-.18-.29c.04.18.1.19.18.29Z"/>
  <path class="cls-25" d="M48.13,54l-.18-.15s.07.12.18.15Z"/>
  <path class="cls-23" d="M62.96,66.68c.1-.04.15-.13.18-.15l-.18.15Z"/>
  <path class="cls-23" d="M61.52,6.65l-.18-.15c.02.1.18.14.18.15Z"/>
  <path class="cls-21" d="M28.6,5.47c-.05-.05-.13-.09-.18-.15l.18.15Z"/>
  <path class="cls-15" d="M105.47,15.65c-.12,0-.24,0-.36,0-3.66.11-7.76.41-11.16,1.03-4.63.84-10.7.57-15.31,1.48s-9.87,1.16-14.36,2.06c-3.92.78-8.46.86-12.3,1.62-2.05.41-7.68.92-9.64.59l.27.3c-6.46.25-12.6.86-18.99,1.33-2.43.18-4.88.52-7.32.58l-.37-1.32c0,.1,0,.2,0,.29.36,1.56-.01,1.94-1.92,2.19-.8.11-2.37.29-3.14.31-.06,0-.12,0-.18,0-.13.16-.33.23-.54.29-.06.02-.14-.02-.18,0l-.54.44c-.28.52-.38.9-.36,1.47,0,.13.17.38.09.59l.19.14c.27-.06.53-.13.81-.14.06,0,.12,0,.18,0-.08-.5-.02-.36.39-.48,2.82-.86,9.21-.58,12.36-.4,1.88.11,3.65.35,5.29.73,1.27.29,2.18.14,2.94,1.19.5.69.53.96.05,1.73s-1.13,1.07-2.04,1.37c-.1.03-.18.1-.36.15l-.18.29c.22-.05,1.04-.48,1.08-.15-.27-.04-.28.05-.39.21-.79,1.17-2.6,2.91-2.1,4.26.27.75,3.33,2.33,4.19,2.78,7.59,3.99,16.6,5.66,25.2,7.35.45.09,1.17,0,1.68.15l-.9.74h.36c.05-.04.13-.13.18-.15.09-.21.28-.29.54-.29.05-.06.13-.1.18-.15.25-.23.56-.37.72-.67l.55.08c.04-.07-.03-.22,0-.29.12-.26,3.66-2.19,4.16-2.3.32-.07.65.08.7.06.04-.02.08-.28.32-.39,2.71-1.2,12.35-.97,15.9-.92,4.23.06,10.21.02,14.29.44.35.04.17.28.52.32,2.22.23,5.9-.08,7.88.65,1.1.4,1.74,1.59.72,2.29-.06.04-.11.11-.18.15l-.03.42-.34.02c-.03.06-.14.1-.18.15-.34.41-1.08.68-1.63.88-.11.04-.2.1-.36.15-.14.5-.39.48-.9.59-.04,0-.15.11-.36.15l-.18.29c.41-.2,1.08-.38,1.49-.59.37-.19.8-.91,1.58-.82-.47.92-1.19,1.76-1.91,2.57-.5.57-2.22,1.76-2.07,2.52.4.03.77.14,1.17.15,6.63.28,14.27-.04,20.9-.45.06,0,.12,0,.18,0,.03,0,.17-.12.54-.15,1.27-.09,2.57-.23,3.8-.29.83-.56,2.39-.52,3.44-.59,7.79-1.5,17.04-3.17,23.24-7.53.51-.36.83-.78,1.27-1.18.09,1.06-.7,2.13-1.18,3.1,1.63-1.86,2.13-4.57,1.58-6.82-.19-.81-.72-1.57-1.04-2.32-.02-.04.02-.1,0-.15-.4-.19-.56-.68-.72-1.03-.06-.05-.12-.1-.18-.15-.41-.36-.88-.67-1.09-1.18-.25-.11-.22-.15-.36-.29-.46.04-.53-.3-.72-.44-.06-.05-.12-.1-.18-.15-.32-.23-.92-.3-.9-.74-.12-.04-.24-.1-.36-.15-.3-.11-.72-.35-.9-.59-.17-.04-.29-.13-.36-.15-.36-.1-.74-.1-.9-.44-.05-.01-.13.02-.18,0-.12-.04-.24-.1-.36-.15-.05-.02-.87-.55-.9-.59l-.36-.15c-.22,0-.31-.14-.36-.15-.59-.12-.99-.23-1.55-.44-.32,0-.5.4-.81.59-.06.04-.11.1-.18.15-.03.25-.15.47-.36.67-2.52,2.31-8.3,3.82-11.91,4.45-1.1.19-2.35.47-3.23.63-.28.05-1.74.14-2.14.15-1.65.04-2.45,0-3.71-.88-.12-.08-.26-.2-.36-.29l-.18-.15s.03-.11,0-.15c-.26-.06-.36-.23-.36-.44-.02-.04.02-.1,0-.15-.33-.25-.53-.68-.64-1.03-.65-2.04-.98-6.17,1.24-7.63,1.13-.74,6.38-1.03,8.2-1.5.81-.21,2.16-.76,3.14-1.06.05-.02.13.02.18,0l.18-.15c.05-.02.13.02.18,0,.06-.28.42-.23.54-.29.51-.28.79-.83,1.45-1.03.03-.06.15-.28.18-.29-.38-.28-.88-.8-1.23-1.03-1.23-.83-2.09-.98-3.12-2.06-.05-.05-.14-.08-.18-.15h-.18c-.06.01-.12-.01-.18,0-.29.06-.85-.1-1.15-.29-.19-.12-.1-.29-.12-.3-.07-.05-.12-.09-.18-.15-.73.47-1.28-.32-1.59-.43-6.45-2.29-13.98-2.7-21.02-2.52ZM71.65,30.99c.12-.11.15-.52.5-.74.48-.31,1.83-.61,2.46-.58,2.19.13,3.87,2.06,4.1,3.75.35,2.65-.92,5.78-4.8,5.54-4.16-.26-5.02-5.47-2.8-7.76.18-.18.52-.19.54-.21ZM62.96,30.55c.05.01.12-.01.18,0,.07.02.13.12.18.15.19.1.43.29.54.44.03.04.14.08.18.15.02.04-.02.11,0,.15,1.65,1.64,1.33,4.76-.21,6.4-.2.21-.32.38-.7.39-.06.05-.13.1-.18.15-.82.8-3.16.78-4.23.27-.29-.14-.34-.33-.47-.42-.34-.23-.45-.3-.72-.59-.16-.17-.23-.05-.36-.44-.02-.05.02-.1,0-.15-1.51-1.62-1.1-4.48.54-5.9.27-.23.32-.38.72-.59.06-.57,1.76-.88,2.26-.88.57,0,2.19.25,2.26.88ZM44.69,30.55c.03-.58,1.75-.88,2.26-.88s1.91.33,2.31.58c.23.15.21.37.31.45.06.05.12.09.18.15,2.09,1.98,2.31,5.08.18,7.08-.1.09-.25.22-.36.29-1.19.8-2.24.92-3.76.64-.15-.03-1.04-.33-1.09-.37-.09-.09,0-.23-.03-.26-.63-.26-.83-.27-1.09-.88-.02-.04.02-.1,0-.15-1.23-1.17-1.34-3.57-.36-4.87,0-.05,0-.1,0-.15.04-.25.17-.28.18-.29.02-.05-.02-.11,0-.15.2-.34.28-.35.54-.59.27-.25.33-.38.72-.59ZM100.59,30.99c.45-.58.81-1.01,1.76-1.14,3.56-.5,5.31,2.14,5.29,4.68,0,.1,0,.2,0,.29-.09,1.2-.38,2.01-1.27,2.95-.22.23-.28.27-.54.44-.91.62-.83.46-1.85.75-.24.07-.13.42-1.15.29-.32-.04-.24-.24-.4-.29-1.24-.37-1.11-.22-2.03-1.05-.11-.1-.23-.15-.36-.29-.33-.36-.31-.15-.36-.74,0-.05,0-.1,0-.15-.43.07-.4-.16-.5-.4-.59-1.39-.46-3.09.28-4.42.33-.59.56-.64,1.12-.93ZM90.82,30.55c.06,0,.12,0,.18,0l.18.07s-.18.05-.18.07c0,.04-.01.11,0,.15.62-.08.99.46,1.23.84,1.29,1.99,1.02,5.58-1.46,6.87-.61.32-.88.26-1.44.42-.16.04-.08.25-.4.29-.99.12-.86-.2-1.15-.29-.77-.24-1.15-.28-1.84-.75-2.3-1.59-2.27-5.25-.36-7.08.14-.13.19-.18.36-.29.1-.06.11-.22.36-.29.05-.02.13.02.18,0,0-.53,1.28-.69,1.81-.74.17-.01.37,0,.54,0,.69.02,1.89.08,1.99.74Z"/>
  <path class="cls-5" d="M68.93,46.33c.1.47-.28.25-.62.3-.9.13-1.77.3-2.64.51l-1.63.66c-.65.5-1.87.98-2.62,1.48-1.9,1.27-3.82,2.55-5.7,3.83-5.62,3.85-10.98,7.9-16.82,11.95-.41.28-.56.83-1.27.74-.06.06-.06.1-.18.15-.01.14.12.21.18.29l3.12.6c3.03,1.26,7.85,1.6,11.22.99.35-.06,1.96-.45,2.19-.55.2-.09.11-.3.12-.45l.54.29c-.19-.7.89-.48,1.48-.64,1.86-.48,3.76-1.71,5.62-2.35,1.31-.45,2.61-.89,3.88-1.41.47-.19,1.46-.67,1.92-.92.11-.06.14-.19.13-.3l.36.29c.37-.66,1.79-.92,2.58-1.19.2-.07.42-.43,1.04-.28l-.18-.44c1.45-.3,2.71-.93,4.03-1.48.45-.19.92-.4,1.43-.6,4.78-1.88,9.2-4.22,14.08-6.03.24-.09.48-.2.72-.29-.1-.45.02-.35.35-.52.86-.44,2.01-.69,2.86-1.07.97-.43,1.71-1.06,2.94-1.36l2.71-1.4c-.99-.22-2.29-.33-3.35-.38-3.67-.18-7.49-.28-11.21-.28-.97,0-2.38.1-3.28,0-.35-.04-.17-.28-.52-.32-.99-.1-1.96.15-2.9.17-2.29.04-5.15-.32-7.25-.16-1.34.1-1.77.49-3.34.15Z"/>
  <path class="cls-26" d="M152.86,47.07c.47-.96,1.27-2.04,1.18-3.1-.44.4-.76.81-1.27,1.18-6.19,4.35-15.45,6.02-23.24,7.53-1.42.27-2.08.52-3.44.59-1.23.06-2.52.21-3.8.29l-.54.15c-.06,0-.12,0-.18,0-.51.16-1.35.26-1.9.29-3.39.23-6.92.39-10.3.45-3.14.06-6.28-.04-9.41-.16-.22-.02-.41-.1-.45-.29-.15-.75,1.57-1.95,2.07-2.52.72-.81,1.44-1.65,1.91-2.57-.77-.09-1.2.62-1.58.82-.41.21-1.08.38-1.49.59-.08.04-.22.08-.36.15-.73.36-1.68,1.01-2.35,1.18-.1.03-.26-.03-.36,0-.18.63-1.58.77-2.31,1.15-.09.04-.76.51-.77.55-.08.32.17.19.4.26,1.03.29,1.82.35,2.68.99.2.15.56.54.72.74,1.09.38.71.83,1.15,1.43.08.12.5.4.66.64.34.52.59,1.02.75,1.6.89.05,1.8,0,2.69.02.23-.24,1.04-.24,1.27,0,.24,0,.48,0,.72,0,.19-.24.69-.15.99-.15,1.27-.01,2.54-.01,3.8,0,.31,0,.8-.09.99.15.12,0,.24,0,.36,0h.18c.34,0,.89-.1,1.09.15,1.19-.26,2.41-.1,3.62-.15.15-.84,1.76-.27,2.27-.29.42,0,.64-.29,1.07-.32.66-.05.98.26,1.76,0,.12-.04.71-.77.87,0h.26c.2-.53,1.04-.26,1.58-.32,2.13-.24,4.21-.6,6.42-.94,5.13-.78,10.68-2.23,15.19-4.46,1.61-.79,2.84-1.73,4.4-2.53.56-.46,1.15-.96,1.63-1.47.11-.12,0-.5.54-.44.02-.04-.02-.1,0-.15.18-.43.32-.58.54-1.03Z"/>
  <path class="cls-11" d="M28.78,33.5c-.1.02-.25-.01-.36,0l.36.29c-.6.07-1.05.49-1.71.75-1.57.61-3.4,1.43-4.86,1.94-.74.26-2.6.53-3.01.98-.22.25-.13.16-.01.47.82.49,1.28,1,1.99,1.47.95.28,1.75.84,2.58,1.33,1.07.63,2.24,1.47,3.41,2.12,1.32.73,2.95,1.11,3.96,2.16.81.28,1.57.56,2.35.88s1.61.86,2.59,1.21c.36.13,2.18.52,2.27.59s-.04.32.13.43c.78.46,3.32,1.01,4.36,1.36,2.29.76,4.54,1.48,6.94,2.08.83.21,1.64.42,2.44.69l.31-.02c.24-.33.64-.38,1.03-.59.36-.19.35-.38.9-.59.05-.02.13.02.18,0-.02-.3.18-.44.54-.44.06-.05.26-.11.36-.15l1.99-1.62.9-.74c-.51-.16-1.23-.06-1.68-.15-8.6-1.69-17.61-3.35-25.2-7.35-.86-.45-3.92-2.03-4.19-2.78-.5-1.36,1.32-3.09,2.1-4.26.1-.16.12-.24.39-.21-.04-.33-.86.1-1.08.15Z"/>
  <path class="cls-8" d="M76.71,6.65c-1.27-.52-2.05-1.18-3.5-1.5-2.12-.46-5.68-.35-7.79.19-1.37.35-.96.99-.56,1.9.54,1.23,1.6,2.65,2.36,3.83.16.25.38.39.26.74.28.25.31.61.54.88.77.91,1.43,2.14,2.17,3.24.14.21.55.41.54.74l.29-.3c.85-.06,1.96-.04,2.78-.14,1.77-.22,3.31-.52,4.94-.65,1.33-.1,4.74-.35,5.83-.67.37-.11.2-.29.35-.31l.26.02c.15.76.61,0,.67-.01.35-.06,1.38.07,1.51,0,.02,0-.07-.27.12-.3.33-.06,1.37.2,1.87,0-.17-.41-.54-.28-.9-.15-.03-.13.04-.34,0-.44-.18-.41-1.57-.93-1.81-1.47-.11-.06-.25-.09-.36-.15-.87-.43-1.42-.77-2.17-1.33-.29-.05-.6-.13-.86-.25-1.43-.69-2.79-1.97-4.03-2.55-.49-.23-.36-.17-.81-.44-.4-.24-1.16-.36-1.18-.74-.13-.05-.35-.07-.54-.15Z"/>
  <path class="cls-8" d="M3.27,36l1.23.72c4.48,1.01,8.23-.16,12.24-1.47,3.62-1.19,7.06-2.51,10.47-4,.2-.09.45-.11.67-.12.28-.21-.02-.27-.27-.29-.68-.07-1.54.01-2.13-.03-.93-.08-2.01-.15-2.95-.25-.35-.04-.17-.28-.52-.32-2.28-.23-7.12-.06-9.19.34-.84.16-1.63.45-2.49.55l-1.81,1.03c-.3.69-1.26.77-1.9,1.18-.84.54-1.52,1.46-2.62,1.92-.05.02-.13-.02-.18,0s-.13-.02-.18,0c-.05.2-.19.6-.36.74Z"/>
  <path class="cls-20" d="M135.14,25.53c-.74.58-2.4.96-3.29,1.34-.3.12-.74.56-1.31.57l-.1.45c.43.59.84,1.18,1.27,1.77.74,1.01,1.49,2.08,2.24,3.12.09.13.11.28.11.42,1.86-.13,3.11-1.17,4.7-1.77.06-.05.12-.1.18-.15.49-.43.66-1.03,1.27-1.18.16-.2.63-.27.47-.74l-3.81-4.58-.53-.27c-.58.17-.92.8-1.2,1.02Z"/>
  <path class="cls-20" d="M131.34,33.79c-1.01-1.83-2.61-3.65-3.57-5.42-.09-.16-.25-.3-.4-.42-.53.19-.76.34-1.35.08l-.21.31c-.73-.22-1.3.22-2.24.28l-1.81.69c-.24.65,0,1.22.01,1.89,0,.31-.2.61-.19.88,0,.46.47.88.18,1.4.16.53,0,.82.54,1.33,2.33.36,5.1-.1,7.42-.51.52-.09,1.35-.13,1.63-.52Z"/>
  <path class="cls-27" d="M98.05,60.78c-.16-1.17-.44-2.44-1.35-3.4-.37-.39-1.05-.6-1.18-1.03l-.36.09c-.79.69-2.03,1.38-1.99,2.42l1.09.29c.3.07.38.28.54.44,1.54,1.56,1.59,4.51.9,6.34-.06.16-.1.29-.18.44-.03.07-.15.11-.18.15-.06.09-.09.18-.18.29-.09.12.02.37-.36.44-.56.11-.99-.05-1.27-.44h-.18c.31.59,1.54,2.74,2.4,2.64,1.17-.14,2.31-2.94,2.48-3.82-.5-.23,0-.79,0-.96v-2.51c0-.22-.14-1.07-.18-1.4Z"/>
  <path class="cls-10" d="M82.32,58.72c-1.46.57-2.05.82-3.39,1.48-.18.09-1.12.41-1.32.44-.08,0-.21-.06-.18-.15-.05.01-.13-.02-.18,0,.09.32-1.24.79-1.63.88-.78,1,.36,2.31.9,3.24.67.75,1.08,1.23,1.99,1.77h.18c1.16.31,1.97,1.13,3.26,1.18-1.74-2.96-2-6.05.36-8.85Z"/>
  <path class="cls-23" d="M105.11,15.65c-.36-.39-1.19-.34-1.72-.3-3.27.28-6.42.47-9.73.75-.58.05-1.82.18-2.02.58-.42.07-.18-.25-.39-.3-1.07-.24-1.05.39-1.25.43-.17.03-.48-.14-.71-.13-1.78.1-3.53.56-5.09.7-.25.02-.53-.13-.85-.1-2.24.22-4.46.59-6.71.72l-.1.45c-.54.17-.52-.27-.65-.3-.66-.15-.6.27-.73.29-3.52.63-8.01.93-11.76,1.43-.46.06-1.41-.05-1.92.05-.21.04-.19.38-.41.43s-.66-.21-1.05-.13c-.13.03-.11.3-.22.3-.25,0-.63-.24-1.05-.16-1.29.25-2.97.43-4.53.61-1.41.16-3.83.3-5.05.57-.22.05-.2.39-.41.43-.44.08-1.82-.03-2.35,0-.34.02-.25.31-.38.32-.72.07-2.99-.18-3.71-.35-1.33-.32-1.82-.8-3.05-1.13-.03-.06.04-.2,0-.29h-.54s.18.29.18.29c.1.03.27-.03.36,0,.35.72,2.1,1.46,3.08,1.62,1.97.32,7.59-.19,9.64-.59,3.84-.76,8.38-.84,12.3-1.62,4.49-.89,9.87-1.17,14.36-2.06s10.67-.64,15.31-1.48c3.4-.62,7.49-.92,11.16-1.03Z"/>
  <path class="cls-19" d="M93.17,59.01c-.14-.02-.29-.02-.36.1-1.15,2.59-.75,5.22.54,7.71h.18c.37-.11.84,0,1.27,0,.12,0,.24,0,.36,0,.09-.11.12-.2.18-.29l.18-.15c.08-.15.12-.29.18-.44l.18-3.02-.26-1.41-.82-1.91c-.16-.16-.24-.37-.54-.44-.13-.03-.86-.12-1.09-.15Z"/>
  <path class="cls-25" d="M143.46,54c-.95.24-1.62.72-2.22.93-3.96,1.34-8.36,2.22-12.58,2.86s-7.99,1.04-12.33,1.23c-1.21.05-2.43-.11-3.62.15h-12.3l-.36-.74s-.24.29,0,.63c.12.17.33.09.36.11s-.09.25.12.29c.28.06,1.23.14,1.59.15,4.88.25,9.78-.18,14.5-.4.6-.03,1.44.19,2.16.11.34-.04.24-.29.38-.31.53-.08,2.57.03,3.36-.03,2.96-.26,5.97-.75,8.5-1.17,2-.33,3.98-.87,6-1.15.16-.8.68-.36,1.09-.46.17-.04,0-.44.55-.14l.14-.26c.74.06,1.83-.49,2.59-.74.18-.06.76.02,1.07-.17.2-.12.06-.37.12-.45.03-.04.92.23.89-.45Z"/>
  <path class="cls-4" d="M104.57,47.51c1.01-.69.37-1.88-.72-2.29-1.98-.73-5.66-.42-7.88-.65-.35-.04-.17-.28-.52-.32-4.08-.42-10.06-.38-14.29-.44-3.55-.05-13.19-.28-15.9.92-.24.11-.28.37-.32.39-.05.02-.38-.13-.7-.06-.51.11-4.04,2.04-4.16,2.3.36-.16.81-.14,1.16-.31,1.53-.72,2.6-1.76,4.72-2.21,1.07-.22,2.64-.11,3.58-.29.48-.09.87-.39,1.93-.44,3.95-.18,8.67-.09,12.66,0,.26,0,.5.03.72.15h3.8c2.29.72,5.14.35,7.66.45,1.74.07,3.95.4,5.65.57.29.03,1.42.03,1.49.05.03.01.05.18.16.25.17.1.44.1.59.23.03.03.52.58.54.62.22.71-.54.51-.17,1.07Z"/>
  <path class="cls-13" d="M100.95,47.51l.72-.59c-2.84-.27-5.72-.45-8.58-.6-2.06-.11-4.75.07-6.71-.13-.35-.04-.17-.28-.52-.32-2.84-.29-12.94-.3-15.76,0-.07,0-.89.23-1.34.31.04.06.1.13.18.15,1.57.33,2-.05,3.34-.15,2.1-.16,4.96.2,7.25.16.94-.02,1.91-.27,2.9-.17.35.04.17.28.52.32.9.09,2.3,0,3.28,0,3.71,0,7.54.09,11.21.28,1.05.05,2.35.16,3.35.38l-2.71,1.4c.06-.01.13.01.18,0s.13.01.18,0,.12.01.18,0l.18-.15c.06-.01.12.01.18,0l.18-.15c.05-.01.13.01.18,0,.1-.17.44-.21.54-.29.02-.01-.06-.19.12-.3.39-.24.63-.14.79-.14.06,0,.12,0,.18,0Z"/>
  <path class="cls-3" d="M10.15,2.96c-.03.07-.17.12-.18.15l1.81,5.9c0,.1-.01.2,0,.29.22.37.52,1.09.54,1.47,0,.1-.01.2,0,.29l.72,2.36c.01.1-.02.2,0,.29.26.41.51,1.18.54,1.62,0,.09.02.21,0,.29l.18.29c0,.1.01.2,0,.29.64,2.41,1.62,4.97,2.17,7.37,0-.1,0-.2,0-.29-.03-1.97-1.39-4.24-1.46-6.26L10.33,3.18c.59.19.9-.17,1.36-.21,2.09-.2,4.25.06,6.33-.14.37-.04.13-.36.71-.32.57.51,1.14.23,1.94.35.74.11,1.42.38,2.13.55-.07-.06-.11-.21-.18-.29-.16-.05-.35-.09-.54-.15-3.08-.99-6.79-.63-10.08-.18-.61.08-1.25.04-1.86.18Z"/>
  <path class="cls-25" d="M31.31,29.96c-.75-1.05-1.67-.9-2.94-1.19-1.64-.38-3.41-.62-5.29-.73-3.15-.18-9.54-.46-12.36.4-.41.13-.47-.02-.39.48.43-.03,1.08,0,1.49-.15.23-.08.23-.38.42-.42.37-.07,2.01,0,2.52-.01,2.23-.03,4.48-.06,6.71-.01.93.02,1.77.29,2.79.01l.1.45c.42,0,.84-.04,1.26,0,1.61.14,2.99.21,4.38.71.94.33,1.04.58,1.32,1.36.02-.29-.01-.59,0-.88Z"/>
  <path class="cls-23" d="M128.08,18.6c-.83-.76-2.18-.69-3.19-1.32-1.9-.24-3.87-1.09-6.22-1.42-2.99-.42-8.98-.95-12.01-.63-.27.03-1.34.03-1.2.42,7.04-.18,14.58.22,21.02,2.52.31.11.86.9,1.59.43Z"/>
  <path class="cls-4" d="M142.01,31.73c-.82.55-1.65,1.33-2.4,1.73-.22.12-.69.04-.93.17-.16.09-.04.34-.22.47-.59.41-6.35,2.08-7.33,2.25-1.72.28-4.28.74-5.85.84-.48.03-3.13-.13-3.63-.22s-.53-.66-.98-.22c1.25.88,2.05.93,3.71.88.4-.01,1.86-.09,2.14-.15.89-.17,2.13-.44,3.23-.63,3.61-.63,9.39-2.14,11.91-4.45.21-.19.32-.41.36-.67Z"/>
  <path class="cls-23" d="M89.92,14.47c-.55.12-1.38.06-1.86.15-.15.03.01.2-.49.29-4.19.75-9.36.86-13.75,1.47-.77.11-.89.26-1.03.29-.57.11-1.6.09-2.23.15.03.05-.05.19.01.28.07.04.98.04,1.18.02.54-.06,1.49-.34,2.01-.41.45-.06,1.22.46,1.33-.34.53-.09.23.47.96.3.2-.05.17-.38.4-.42.07-.01,1.17-.1,1.46-.12,3.35-.32,7.91-.49,11.03-1.22.7-.16.56.28.98-.45Z"/>
  <path class="cls-23" d="M56.81,66.54c-.78.13-1.08.47-1.52.61-5.13,1.61-8.6,1.54-13.89.38-1.27-.28-2.21-.73-3.4-.99-.16.94.31.45.96.59,1.97.42,3.85.93,6.15,1.23.79.1,1.21.28,1.8.49.8.29.8-.22,1.12-.26.91-.12.81.27.95.3,1.02.21.9-.29,1.31-.37s1.18,0,1.69-.08c.87-.14,2.87-.99,3.47-1.14s1.32.1,1.36-.77Z"/>
  <path class="cls-3" d="M91.18,51.79c-4.87,1.81-9.3,4.16-14.08,6.03-.51.2-.98.41-1.43.6-1.31.55-2.58,1.18-4.03,1.48l.18.44c-.62-.14-.84.21-1.04.28-.79.27-2.21.53-2.58,1.19l-.36-.29c.01.1-.02.24-.13.3-.45.24-1.45.73-1.92.92-1.28.51-2.57.96-3.88,1.41-1.86.64-3.76,1.87-5.62,2.35-.59.15-1.67-.06-1.48.64l-.54-.29c0,.15.08.36-.12.45-.22.1-1.84.49-2.19.55-3.36.61-8.18.27-11.22-.99l-3.12-.6c.07.1.12.2.18.29.06.01.12-.01.18,0,1.18.26,2.13.71,3.4.99,5.29,1.16,8.76,1.23,13.89-.38.44-.14.74-.48,1.52-.61.06,0,.12.01.18,0,.66-.41,1.57-.66,2.35-.88.05-.02.13.01.18,0l.18-.15c.06-.01.13.01.18,0l.18-.15c.06-.01.12.01.18,0-.08-.45,1-.57,1.45-.74.05-.02.13.02.18,0l.18-.15c.19-.07.41-.09.54-.15,1.05-.42,3.19-1.64,4.16-1.77.06,0,.12,0,.18,0,.15-.26.51-.21.72-.29.12-.05.24-.1.36-.15.86-.35,1.5-.97,2.53-1.03.06,0,.12,0,.18,0h.18s-.03-.11,0-.15c.23-.3.69-.47,1.09-.59.19-.06.34-.11.54-.15.06-.01.12,0,.18,0-.1-.35.25-.32.54-.44.05-.02.13.02.18,0l.18-.15s.13.02.18,0l.18-.15s.13.02.18,0l.18-.15s.13.02.18,0l.18-.15s.13.02.18,0l.18-.15s.13.02.18,0l.18-.15s.13.02.18,0l.18-.15c.05-.02.13.02.18,0l.18-.15c.19-.06.34-.1.54-.15-.1-.35.25-.32.54-.44.19-.08.4-.09.54-.15l.18-.15c.31-.13.64-.19.9-.29l.36-.15c.13-.05.3-.21.54-.29s.49-.24.72-.29c.05-.01.12.01.18,0-.1-.32.23-.34.54-.44.05-.02.13.02.18,0,.46-.33,1.08-.52,1.63-.74.32-.13.6-.19.9-.29l.18-.15c.19-.06.34-.1.54-.15-.1-.35.25-.32.54-.44.32-.13.64-.19.9-.29l.18-.15s.13.02.18,0l.18-.15s.13.02.18,0l.18-.15s.13.02.18,0l.18-.15s.13.02.18,0l.18-.15c.05-.02.13.02.18,0l.18-.15c.05-.01.12.01.18,0-.1-.35.25-.32.54-.44.05-.02.13.02.18,0l.18-.15s.13.02.18,0l.18-.15s.13.02.18,0l.18-.15s.13.02.18,0l.18-.15s.13.02.18,0l.18-.15c.05-.02.13.02.18,0l.18-.15c.05-.02.13.02.18,0v-.15Z"/>
  <path class="cls-3" d="M12.5,30.25c-.12,0-.24,0-.36,0,.14.42-.5.32-.9.44-.05.02-.13-.02-.18,0l-.18.15c-.05.02-.13-.02-.18,0l-.18.15c-.05.02-.13-.02-.18,0v.15c.86-.1,1.65-.39,2.49-.55,2.08-.4,6.91-.58,9.19-.34.35.04.17.28.52.32.94.1,2.02.18,2.95.25.59.05,1.45-.04,2.13.03.25.03.55.08.27.29-.22,0-.47.03-.67.12-3.41,1.5-6.85,2.81-10.47,4-4.01,1.32-7.76,2.49-12.24,1.47l-1.23-.72c-.1.08-.39.12-.54.15v.29l.72.29c.12.01.26-.02.36,0,.8.14,2.49.7,2.97.75,1.85.2,3.67-.28,5.35-.45.06,0,.12,0,.18,0,.6-.47,1.88-.72,2.71-.88.06-.01.12.01.18,0,1.54-.78,3.3-1.35,5.06-1.77l.36-.15c.77-.54,1.62-.71,2.53-1.03.2-.07.39-.1.54-.15.55-.18,1.04-.43,1.63-.59.05-.02.13.01.18,0l.18-.15c.06-.01.13.01.18,0-.1-.35.25-.32.54-.44.05-.02.13.02.18,0l.18-.15s.13.02.18,0l.18-.15s.13.02.18,0l.18-.15s.14.02.18,0l.36-.29s.15.02.18,0l.36-.29v-.15c-.79-.06-2.04-.02-2.77-.15-4.35-.79-8.76-.64-13.33-.29Z"/>
  <path class="cls-17" d="M64.59,47.07l-1.12.34c-1.87,1.47-3.91,2.48-5.87,3.84-.22.15-.27.49-.48.64-.34.25-1.95.56-1.39,1.23,1.88-1.29,3.8-2.56,5.7-3.83.75-.5,1.97-.98,2.62-1.48.06-.04.47-.66.54-.74Z"/>
  <path class="cls-25" d="M38.73,48.39c-.23.67.86.53,1.22.64.04.01.07.23.27.29,1.58.47,3.53,1.09,5.13,1.71l.4-.11.13.27c.73-.38.24.16.55.3.13.06.72.16.97.22.69.18,1.45.27,2.35.46.23.05.94.72.9.05-3.69-.83-8.4-2.53-11.94-3.83Z"/>
  <path class="cls-6" d="M28.6,30.69c-.38,0-.8-.43-.85-.44-.29-.06-.66.01-1.01-.04-3.34-.51-10.29-.86-13.62-.26-.32.06-.73-.19-.62.29,4.57-.34,8.98-.49,13.33.29.73.13,1.98.09,2.77.15Z"/>
  <path class="cls-4" d="M90.82,67.42c-.21-.83-.57-1.82-.72-2.73-.5-3.07,0-4.47,1.04-7.27.07-.18,0-.39.04-.48h-.18c-.14.32-.43.61-.55.95-1.15,3.16-1.38,6.46.37,9.52Z"/>
  <path class="cls-23" d="M75.81,5.91c.2-.51-.69-.59-1.15-.76-.71-.27-1.78-.75-2.47-.56l-.1-.45c-.87-.21-1.04.29-1.11.3-.97.19-1.41-.52-2.65-.29-.14.03-.11.26-.25.29-.76.14-1.61.14-2.44.35-.23.06-.99.22-.88.54,3.56-1.07,7.77-1.05,11.03.59Z"/>
  <path class="cls-4" d="M22.08,2.96c.09-.53-.03-.35-.39-.48-1.24-.45-3.23-.41-4.58-.4-1.68.01-4.48.11-6.01.41-.32.06-.64.03-.95.03-.03.13.05.34,0,.44.6-.14,1.25-.1,1.86-.18,3.29-.44,7-.81,10.08.18Z"/>
  <path class="cls-21" d="M131.7,24.35c-.98.29-2.33.85-3.14,1.06-1.82.47-7.07.76-8.2,1.5-2.22,1.46-1.89,5.59-1.24,7.63.11.35.31.77.64,1.03-.34-.88-.92-3.46-.92-4.35,0-.54.34-2.57.56-3.06.08-.19.4-.17.55-.32s.12-.44.21-.49c.12-.09.58-.04.83-.13.26-.09.22-.35.67-.5.74-.24,1.59-.1,2.15-.19,2.68-.44,4.95-.92,7.4-1.76.28-.1.59-.02.49-.4Z"/>
  <path class="cls-4" d="M13.76,16.24c-.18,1.14.7,3.35,1.02,4.52.08.3.04.84.1,1.12.08.36.56,1,.66,1.54.15.73.04,1.25-.16,1.97l-.18-.29c-.5-.15-.32.35-.65.43-.27.07-.6-.11-.86-.09-.73.07-1.82.29-2.25.29s-.55-.04-.58.39c.78-.03,2.34-.21,3.14-.31,1.91-.26,2.28-.63,1.92-2.19-.55-2.4-1.53-4.96-2.17-7.37Z"/>
  <path class="cls-25" d="M121.39,29.37c-.17.19-.29.2-.35.52-.18,1,.12,4.64,1.08,5.3.85.59,4.86-.01,6.09-.19.34-.05.7.12.6-.32-1.65.17-3.51.57-5.16.59-.6.01-.96-.09-1.35-.45-.55-.51-.38-.8-.54-1.33-.03-.11-.26-.29-.32-.54-.26-1.19-.21-2.4-.04-3.59Z"/>
  <path class="cls-6" d="M153.4,37.92c.32.76.84,1.52,1.04,2.32.54,2.25.05,4.96-1.58,6.82-.22.45-.37.6-.54,1.03l1.7-1.93c1.21-2.5,1.21-5.32.11-7.84l-.73-.4Z"/>
  <path class="cls-25" d="M30.04,44.56c-.04.89,1.87,1.01,2.48,1.37.16.09.19.37.53.52.81.37,2.25,1.08,3.14.91-.67-.3-1.74-.68-2.3-.99-.27-.14-.32-.24-.41-.49-.78-.32-1.55-.61-2.35-.88-.37-.13-.71-.33-1.09-.44Z"/>
  <path class="cls-23" d="M3.82,36.74l.51.32.13.42c.76-.21,1.38.2,1.98.26,1.02.1,3.53.04,4.53-.12.32-.05.6-.57,1.17-.59-1.68.17-3.5.65-5.35.45-.48-.05-2.17-.61-2.97-.75Z"/>
  <path class="cls-24" d="M87.74,55.92c-.06.01-.13-.01-.18,0-.04.06-.1.12-.18.15-.05.02-.13-.02-.18,0l-.18.15s-.12-.02-.18,0l-.18.15c-.05.01-.12-.01-.18,0,.1.34-.24.33-.54.44-.05.02-.13-.02-.18,0l-.18.15c-.05.02-.13-.02-.18,0-.05.1-.14.19-.18.29,1.37-.38,2.16-1.07,3.39-1.29.91-.17,2.01-.19,2.94-.18.04.24-.3.09-.42.33-.14.25-.05.55-.12.71-.02.04.02.1,0,.15h.18s-.02-.1,0-.15l.18-.15s-.02-.1,0-.15v-.15c.23-.38.64-.37.54-.74-1.48-.12-2.74-.02-4.16.29Z"/>
  <path class="cls-14" d="M100.04,58.13c0,.1-.01.2,0,.29l.36.74h12.3c-.2-.25-.74-.14-1.09-.15-.06,0-.12,0-.18,0-.12,0-.24,0-.36,0-1.93,0-3.86,0-5.79,0-.24,0-.48,0-.72,0-.42,0-.84,0-1.27,0-.89,0-1.8.03-2.69-.02-.16-.58-.4-1.08-.75-1.6-.03.25.16.52.18.74Z"/>
  <path class="cls-4" d="M9.97,3.11c-.17.47-.03,1.22.11,1.74.31,1.15.87,2.53,1.29,3.69.09.25-.13.56.41.47l-1.81-5.9Z"/>
  <path class="cls-24" d="M28.05,33.64c-.05.02-.13-.02-.18,0l-.18.15c-.06.01-.13-.01-.18,0,.1.35-.25.32-.54.44-.27.12-.6.29-.9.29l-.36.15s-.14-.02-.18,0l-.18.15s-.12-.02-.18,0l-.18.15c-.05.01-.12-.01-.18,0-.16.26-.48.22-.72.29-.05.02-.13-.02-.18,0l-.18.15c-.17.04-.31.11-.54.15.15.3-.39.39-.72.44-.06,0-.12,0-.18,0-.12.33-.4.26-.72.29-.06,0-.12,0-.18,0-.17.22-.44.26-.72.29-.06,0-.12,0-.18,0-.16.25-.47.22-.72.29-.18.06-.37.09-.54.15-.14.04-.29.22-.54.15-.01.13-.17.31-.09.45.15.26.5.21.63.29-.12-.31-.21-.22.01-.47.4-.45,2.26-.72,3.01-.98,1.46-.5,3.29-1.33,4.86-1.94.66-.25,1.11-.68,1.71-.75l-.36-.29c-.06,0-.13-.01-.18,0-.04.06-.1.12-.18.15Z"/>
  <path class="cls-29" d="M131.34,33.79c-.27.39-1.1.43-1.63.52-2.32.41-5.09.88-7.42.51.39.36.75.46,1.35.45,1.65-.03,3.51-.42,5.16-.59.12-.01.24.01.36,0l1.81-.29c.18-.07.31-.19.54-.15-.1-.13-.11-.31-.18-.44Z"/>
  <path class="cls-6" d="M83.95,68.31l.86.58,7,.9c.16,0,.1-.2.09-.3-1.55-.04-3.18-.18-4.7-.44-1.14-.19-2.05-.6-3.26-.74Z"/>
  <path class="cls-13" d="M33.48,45.89c.09.25.14.34.41.49.56.3,1.63.69,2.3.99.03.01-.03.14,0,.15.04.02.13-.02.18,0,.77.26,1.1.47,1.81.74.11.04.32.06.54.15,3.54,1.31,8.25,3.01,11.94,3.83.1.02.26-.02.36,0,.55.12,1.13.42,1.63.15,0-.07.76-.54.9-.59v-.15c-.39.21-.79.26-1.03.59l-.31.02c-.8-.27-1.62-.48-2.44-.69-2.39-.6-4.65-1.32-6.94-2.08-1.04-.35-3.58-.9-4.36-1.36-.18-.11-.05-.36-.13-.43s-1.91-.46-2.27-.59c-.98-.35-1.79-.88-2.59-1.21Z"/>
  <path class="cls-24" d="M91,68.45c.08.21.1.51.18.74-1.12.11-1.74-.48-2.89-.15v-.42c-.37-.06-.74.02-1.09-.02v.44c1.52.26,3.15.4,4.7.44,0-.05.01-.1,0-.15l-.18-.15s.01-.1,0-.15l-.18-.15c-.03-.08.03-.22,0-.29l-.36-.15h-.18Z"/>
  <path class="cls-1" d="M71.47,44.12h12.66c-3.99-.09-8.71-.18-12.66,0Z"/>
  <path class="cls-24" d="M65.13,46.92c-.06,0-.12,0-.18,0h-.18c-.06.05-.14.1-.18.15-.08.08-.49.7-.54.74l1.63-.66c.87-.21,1.74-.38,2.64-.51.34-.05.72.17.62-.3-.08-.02-.15-.09-.18-.15-.78.13-3.32.78-3.62.74Z"/>
  <path class="cls-23" d="M130.07,19.48c1.03,1.09,1.88,1.23,3.12,2.06.35.24.85.76,1.23,1.03.05-.03.25.02.36,0v-.14c-.09.01-.24,0-.29-.05-.59-.68-1.6-1.49-2.52-2-.43-.24-.79.04-.92-.61l-.97-.29Z"/>
  <path class="cls-23" d="M20.28,34.38c-1.77.42-3.52.99-5.06,1.77,2.04-.41,3.03-.93,4.9-1.52.24-.07.49.17.17-.25Z"/>
  <path class="cls-29" d="M123.56,28.63s-.2-.19-.42-.16c-.13.02-.1.25-.26.29-.7.21-.97,0-1.49.6-.17,1.19-.22,2.4.04,3.59.06.26.29.43.32.54.28-.52-.18-.94-.18-1.4,0-.28.2-.57.19-.88,0-.67-.25-1.24-.01-1.89l1.81-.69Z"/>
  <path class="cls-23" d="M66.76,62.55c-.97.13-3.11,1.35-4.16,1.77-.03.53.1.2.38.09,1.11-.47,2.26-.74,3.29-1.29.29-.15.38-.31.49-.56Z"/>
  <path class="cls-25" d="M98.05,55.33c.49.61.8,1.5,1.22,2.17l.77.63c-.02-.22-.21-.49-.18-.74-.16-.24-.58-.52-.66-.64-.44-.6-.06-1.05-1.15-1.43Z"/>
  <path class="cls-1" d="M84.85,44.26c-.1.45.28.28.62.3.83.03,1.72.02,2.55,0,.35,0,.73.15.62-.3h-3.8Z"/>
  <path class="cls-3" d="M82.14,67.86l.18.15c.11.02.25-.01.36,0,.32.04.68.09.9.29.12.01.25-.01.36,0,1.2.14,2.12.54,3.26.74v-.44c-1.54-.14-3.7-.46-5.06-.74Z"/>
  <path class="cls-13" d="M70.2,16.09c.11.14.12.29.18.44.04.1.13.2.18.29.63-.07,1.66-.04,2.23-.15.14-.03.26-.18,1.03-.29v-.15c-.82.1-1.93.08-2.78.14l-.29.3c0-.33-.41-.53-.54-.74v.15Z"/>
  <path class="cls-25" d="M150.15,50.16c-.17.14-.36.31-.54.44.88.1,1.84-.95,2.25-1.49.12-.16.06-.35.1-.43h-.18c-.47.52-1.07,1.01-1.63,1.47Z"/>
  <path class="cls-16" d="M98.24,65.65c.3-1.49.39-3.43-.18-4.87.04.33.18,1.18.18,1.4v2.51c0,.16-.5.73,0,.96Z"/>
  <path class="cls-28" d="M84.13,57.54c-.06.01-.13-.01-.18,0-.04.06-.1.12-.18.15-.05.02-.13-.02-.18,0l-.18.15s-.13-.02-.18,0l-.18.15c-.05.02-.13-.02-.18,0l-.18.15c-.05.01-.12-.01-.18,0,.1.36-.26.32-.54.44-.77.34-1.55.6-2.35.88l-.36.15s-.1.12-.18.15h-.18c-.05.02-.11.13-.18.15h-.18c-.06.01-.12,0-.18,0,.05.45-.33.35-.54.44-.12.05-.17.14-.18.15v.15c.2-.02,1.13-.35,1.32-.44,1.34-.66,1.92-.91,3.39-1.48.96-.38,1.41-.77,2.23-1.13.49-.22.45.22.67-.34-.36.1-.72.2-1.09.29Z"/>
  <path class="cls-21" d="M91.9,55.62c-.03-.1.1-.26-.12-.3-1.18-.03-2.36.04-3.51.22-.3.05-.63.01-.53.37,1.42-.31,2.68-.41,4.16-.29Z"/>
  <path class="cls-4" d="M22.63,3.11c.07.08.11.23.18.29.67.55,1.38,1.3,2.17,1.62-.68-.96-1.05-1.5-2.35-1.92Z"/>
  <path class="cls-23" d="M64.23,5.62c-.06.03-.34-.09-.37.08l.25,1.44,1.03,1.13c-.35-.91-1-1.7-.9-2.65Z"/>
  <path class="cls-23" d="M66.4,10.49c.11.26.32,1.08.48,1.33.23.35.79.89,1.15,1.18v-.29c-.23-.27-.26-.64-.54-.88l-1.09-1.33Z"/>
  <path class="cls-13" d="M96.97,51.79c-.05.01-.13-.02-.18,0l-.18.15h-.18c-.56.47-1.56.87-2.35,1.03-.03.04.06.18-.03.27-.13.14-.92.18-1.06.47,1.04.07,2.39.07,3.26.59.06.01.12-.01.18,0l.18.15c.06.01.13-.02.18,0,.18.05.34.14.54.15-.85-.64-1.65-.7-2.68-.99-.23-.06-.48.06-.4-.26.01-.04.68-.51.77-.55.73-.38,2.12-.51,2.31-1.15-.05.01-.13-.01-.18,0l-.18.15Z"/>
  <path class="cls-3" d="M98.05,48.54c-1.23.3-1.97.94-2.94,1.36-.85.37-2,.63-2.86,1.07-.33.17-.45.07-.35.52.4-.15.51-.29.9-.44.05-.02.13.02.18,0l.18-.15s.13.02.18,0l.18-.15s.13.02.18,0l.18-.15s.13.02.18,0l.18-.15h.18l.18-.15c.56-.19,1.2-.68,1.63-.88.12-.05.24-.09.36-.15.19-.09.42-.09.54-.15l.18-.15s.13.02.18,0l.18-.15s.13.02.18,0l.18-.15s.13.02.18,0v-.15c-.05.01-.13-.01-.18,0Z"/>
  <path class="cls-25" d="M146.35,52.82c.35-.06,1.85-.82,2.21-1.07s.39-.29.32-.7c-.28.19-.42.41-.66.57-.58.37-1.65.62-1.87,1.2Z"/>
  <path class="cls-4" d="M57.54,48.84l-1.99,1.62c1.51-.55,1.36-.75,2.35-1.62h-.36Z"/>
  <path class="cls-23" d="M70.56,61.08c-1.03.06-1.67.68-2.53,1.03.44.04,1.38-.04,1.69-.28.2-.15.07-.37.13-.44.02-.03.87.24.71-.3Z"/>
  <path class="cls-23" d="M23.17,33.2c-.91.32-1.76.49-2.53,1.03.2.31.59.09.85.03,1.12-.27.63-.47.8-.6.15-.12.83.18.89-.46Z"/>
  <path class="cls-23" d="M86.66,12.26c.24.55,1.63,1.07,1.81,1.47.4-.09.66.23.9.29-.43-.49-1.55-1.4-2.19-1.69-.21-.09-.47-.05-.53-.08Z"/>
  <path class="cls-24" d="M88.47,13.73c.04.1-.03.31,0,.44.36-.14.73-.27.9.15-.51.19-1.54-.06-1.87,0-.19.03-.1.3-.12.3l.18.29c.5-.09.34-.26.49-.29.48-.09,1.31-.03,1.86-.15.02-.04.17-.09.18-.15-.26,0-.46-.08-.54-.29-.06-.01-.13.01-.18,0-.25-.07-.5-.38-.9-.29Z"/>
  <path class="cls-25" d="M36.37,47.51c-.25.52,1.4,1.09,1.81.74-.71-.26-1.04-.48-1.81-.74Z"/>
  <path class="cls-21" d="M92.99,53.7c-.03.07-.06.32.1.3,1.04-.02,2.13.11,3.15.29-.87-.52-2.22-.52-3.26-.59Z"/>
  <path class="cls-13" d="M150.15,50.16c-1.56.8-2.79,1.74-4.4,2.53-4.51,2.22-10.06,3.67-15.19,4.46-2.21.34-4.29.7-6.42.94-.54.06-1.38-.21-1.58.33h-.26c-.16-.78-.75-.06-.87-.01-.78.26-1.1-.05-1.76,0-.43.03-.66.31-1.07.32-.51.01-2.13-.56-2.27.29,4.35-.19,8.21-.6,12.33-1.23s8.62-1.52,12.58-2.86c.6-.2,1.26-.69,2.22-.93.05-.01.12.01.18,0l.18-.15c.06,0,.12,0,.18,0,.13-.14.33-.26.54-.29.06-.01.12.01.18,0,.6-.55.6-.58,1.45-.74.06-.01.12,0,.18,0,.22-.58,1.29-.83,1.87-1.2.24-.15.38-.38.66-.57.22-.15.52-.29.72-.44.18-.14.37-.3.54-.44Z"/>
  <path class="cls-4" d="M12.32,11.08c.03.17-.13.98.07,1.37l.65.99-.72-2.36Z"/>
  <path class="cls-23" d="M15.03,36.15c-.83.17-2.11.41-2.71.88.64-.06,1.39-.22,2.08-.44.31-.1.66.03.63-.44Z"/>
  <path class="cls-23" d="M83.58,10.34c.13.19.35.3.54.44.75.56,1.31.89,2.17,1.33-.25-.35-.64-.75-1.02-1-.54-.37-1.25-.55-1.69-.77Z"/>
  <path class="cls-21" d="M96.43,51.93c-.51.08-1.87.48-2.24.73-.21.14-.08.25-.11.31.79-.16,1.79-.57,2.35-1.03Z"/>
  <path class="cls-25" d="M9.06,28.33c-.7-.09-.33.73-.1.9.2.15,1.34.16,1.18-.31-.28,0-.54.08-.81.14l-.19-.14c.09-.21-.08-.46-.09-.59Z"/>
  <path class="cls-21" d="M77.25,60.49c-.52.15-1.42.3-1.87.58-.19.12-.1.28-.12.3.11-.02.27.02.36,0,.39-.1,1.72-.57,1.63-.88Z"/>
  <path class="cls-23" d="M56.99,66.54c.34-.06.85.08,1.23-.1l1.12-.78c-.78.22-1.69.48-2.35.88Z"/>
  <path class="cls-28" d="M75.26,61.37c-.1.09-.24.11-.36.29-.06.22.14.42.18.59.02.09-.03.21,0,.29l.18.29s-.02.1,0,.15l.18.15c.42.79.51.84,1.09,1.47-.54-.94-1.68-2.24-.9-3.24-.09.02-.25-.02-.36,0Z"/>
  <path class="cls-4" d="M144.54,31.43l-.33-.42-1.56-.33-.46.89c.31-.19.48-.58.81-.59.55.21.95.33,1.55.44Z"/>
  <path class="cls-24" d="M77.25,6.8c.02.38.78.5,1.18.74.45.27.32.21.81.44,1.24.58,2.59,1.86,4.03,2.55.26.12.56.2.86.25-.19-.14-.41-.25-.54-.44-.11-.05-.24-.1-.36-.15l-.18-.15c-.08-.06-.34-.11-.36-.15-.26-.07-.36-.22-.36-.44-.12-.05-.25-.09-.36-.15l-.18-.15c-.31-.15-.6-.28-.9-.44l-.18-.15s-.14.02-.18,0l-.36-.29c-.08-.04-.23-.08-.36-.15-.16-.08-.35-.13-.54-.15v-.29c-.12-.04-.24-.1-.36-.15l-.18-.15c-.48-.2-.97-.39-1.45-.59Z"/>
  <path class="cls-23" d="M61.7,64.62c-.45.17-1.53.29-1.45.74.77-.14,1.18.29,1.45-.74Z"/>
  <path class="cls-3" d="M64.77,5.32c-.05.02-.13-.02-.18,0l-.18.15s-.1.11-.18.15c-.09.96.56,1.74.9,2.65.02.04-.02.1,0,.15.42.16.54.53.54.88,0,.05,0,.1,0,.15h.36c.03.09-.03.22,0,.29.02.05-.02.11,0,.15l.18.15s-.02.1,0,.15l.18.15s-.02.1,0,.15l1.09,1.33c.11-.36-.1-.49-.26-.74-.76-1.18-1.82-2.6-2.36-3.83-.4-.92-.81-1.55.56-1.9,2.11-.54,5.67-.65,7.79-.19,1.45.31,2.23.98,3.5,1.5.11-.18-.67-.62-.9-.74-3.27-1.64-7.48-1.66-11.03-.59Z"/>
  <path class="cls-23" d="M132.78,23.91v.15c.9-.31,1.13-.44,1.45-1.18-.65.2-.94.75-1.45,1.03Z"/>
  <path class="cls-6" d="M80.15,67.27c.08.67,1.48.64,2.17.74l-.18-.15c-.63-.13-1.34-.42-1.99-.59Z"/>
  <path class="cls-23" d="M38.91,65.06v-.29s-.27,0-.27,0c-.24.32-.68.55-.95.78-.09.08-.03.23-.05.25.71.09.86-.46,1.27-.74Z"/>
  <path class="cls-4" d="M11.77,9.31s-.17.1-.16.21c.03.4.27.82.16,1.26h.54c-.02-.39-.32-1.11-.54-1.48Z"/>
  <path class="cls-25" d="M51.03,52.23c-.2.82,1.35.43,1.81.44.06-.13-.18-.26-.18-.29-.49.28-1.08-.03-1.63-.15Z"/>
  <path class="cls-4" d="M100.59,50.02s-.24-.19-.53-.08-1.01.6-1.28.82v.15c.42-.15.79-.39,1.27-.44.14-.07.28-.11.36-.15l.18-.29Z"/>
  <path class="cls-6" d="M31.31,30.84c-.07,1.05-.22.68-.85,1.22-.16.14-.14.42-.27.51-.24.17-.98-.02-.86.48.91-.3,1.58-.63,2.04-1.37s.45-1.04-.05-1.73c-.01.29.02.59,0,.88Z"/>
  <path class="cls-25" d="M25.52,42.05c-.18.19.4.74.55.8.32.13.61.05.71.08-.12-.43-.78-.73-1.27-.88Z"/>
  <path class="cls-4" d="M24.98,5.18c.52.71.9,1.43,1.81,1.92-.37-.72-.45-.49-.68-.78-.24-.31-.19-1.09-1.13-1.14Z"/>
  <path class="cls-17" d="M100.77,47.51c-.16,0-.4-.1-.79.14-.18.11-.1.29-.12.3v.15l.1.14c.5-.07.89-.27.8-.73Z"/>
  <path class="cls-4" d="M13.58,15.35c-.04-.45-.29-1.21-.54-1.62,0,.01-.14.08-.13.19.06.4.38.75.17,1.2l.51.24Z"/>
  <path class="cls-25" d="M26.97,42.94c-.04.33.04.48.42.63.29.11.9.19,1.21.26-.44-.29-1.13-.71-1.63-.88Z"/>
  <path class="cls-25" d="M146.17,52.82c-.85.15-.85.19-1.45.74.61-.13,1.24-.05,1.45-.74Z"/>
  <path class="cls-4" d="M60.07,47.66l-.55-.08c-.16.3-.47.43-.72.67.72.01,1.02-.1,1.27-.59Z"/>
  <path class="cls-3" d="M21.18,39.4c.48.32.95.59,1.45.88.35.21.91.33.9.74.12.04.24.1.36.15.36.16.91.38.9.74.33.03.42.05.72.15.49.15,1.15.45,1.27.88.05.02.13-.02.18,0,.5.18,1.18.6,1.63.88.06.01.12-.01.18,0,.38.09,1.15.4,1.09.74.05.02.13-.02.18,0,.37.12.72.31,1.09.44-1.01-1.05-2.64-1.44-3.96-2.16-1.18-.65-2.34-1.49-3.41-2.12-.83-.49-1.63-1.04-2.58-1.33Z"/>
  <path class="cls-25" d="M28.78,43.82c-.1.75.66.61,1.09.74.07-.33-.7-.65-1.09-.74Z"/>
  <path class="cls-21" d="M96.79,54.44c-.17.63.8.72,1.27.88-.16-.2-.52-.59-.72-.74-.2,0-.36-.09-.54-.15Z"/>
  <path class="cls-23" d="M70.38,16.53c-.06-.15-.08-.31-.18-.44l-.9-1.03c.23.61.24,1.3,1.09,1.47Z"/>
  <path class="cls-23" d="M2.73,36.15s-.32-.04-.36,0c-.37.32.34.28.36.29.27.22-.34.19.72.29l-.72-.29v-.29c.16-.03.44-.06.54-.15.17-.14.31-.53.36-.74-1.01.32-.72.76-.9.88Z"/>
  <path class="cls-6" d="M151.42,35.41c.2.51.67.82,1.09,1.18-.24-.27-.24-.82-.45-1.04s-.53-.1-.63-.14Z"/>
  <path class="cls-23" d="M128.26,18.75s-.07.18.12.3c.29.19.86.34,1.15.29l-1.18-.73-.09.14Z"/>
  <path class="cls-25" d="M129.17,34.68c.76-.07.84.11,1.81-.29l-1.81.29Z"/>
  <path class="cls-4" d="M54.46,51.05c-.55.21-.55.4-.9.59v.15c.14-.05.53.07.69-.02l.21-.72Z"/>
  <path class="cls-6" d="M149.24,33.79c-.02.43.58.51.9.74l-.21-.72c-.16-.09-.54.02-.69-.02Z"/>
  <path class="cls-23" d="M70.92,60.93c.66.37,1.02-.42,1.09-.44v-.15c-.39.12-.85.29-1.09.59Z"/>
  <path class="cls-6" d="M10.33,30.99c-.32.12-1.53.53-1.72.73-.15.15-.04.35-.08.45l1.81-1.03v-.15Z"/>
  <path class="cls-6" d="M12.14,30.25c-.34.02-1.08-.3-.9.44.4-.12,1.04-.02.9-.44Z"/>
  <path class="cls-25" d="M23.89,41.17c-.13.68.41.43.5.49.24.14-.06.2.4.25,0-.36-.55-.58-.9-.74Z"/>
  <path class="cls-4" d="M26.97,7.39c.23.39.35.47.54.74l.17-.09c.07-.37-.28-.63-.72-.65Z"/>
  <path class="cls-4" d="M101.85,49.28c-.24.07-.63.01-.88.17l-.03.42c.51-.11.77-.09.9-.59Z"/>
  <path class="cls-21" d="M85.39,56.95c-.37.11-1.36.09-1.27.59.37-.09.72-.19,1.09-.29.04-.1.13-.19.18-.29Z"/>
  <path class="cls-29" d="M131.7,29.66l2.36,3.83c1.76-.48,3.38-.95,4.69-2.06-1.59.6-2.83,1.64-4.7,1.77,0-.14-.02-.29-.11-.42-.76-1.04-1.51-2.1-2.24-3.12Z"/>
  <path class="cls-6" d="M23.17,35.56s-.43-.22-.7.03l-.02.42c.34-.05.87-.14.72-.44Z"/>
  <path class="cls-23" d="M23.71,33.05c.66.45.39-.38,1.06-.04l.57-.55c-.58.16-1.07.41-1.63.59Z"/>
  <path class="cls-13" d="M91,68.45h.18c-.07-.19-.11-.4-.18-.59-.02-.04.01-.1,0-.15l-.18-.15s.01-.1,0-.15c-1.75-3.06-1.52-6.36-.37-9.52.12-.34.41-.64.55-.95.02-.04-.02-.1,0-.15-1.99,2.43-2.03,6.38-1.18,9.15.26.85.87,1.7,1.18,2.5Z"/>
  <path class="cls-4" d="M103.84,48.25c-.55-.14-.49.22-.77.34-.17.07-.88,0-.86.55.54-.2,1.28-.47,1.63-.88Z"/>
  <path class="cls-29" d="M135.14,25.53c-1.74.52-3.36,1.37-5.06,1.77-.05.26.22.4.36.59l.1-.45c.56,0,1.01-.44,1.31-.57.9-.37,2.55-.76,3.29-1.34Z"/>
  <path class="cls-6" d="M147.98,33.05c.18.24.6.48.9.59.1-.77-.49-.48-.9-.59Z"/>
  <path class="cls-23" d="M65.68,9.31c0-.36-.12-.72-.54-.88.11.32.01.71.54.88Z"/>
  <path class="cls-3" d="M68.03,12.7v.29s0,.1,0,.15c.33.11.41.36.54.59.02.04-.02.1,0,.15l.18.15s-.02.1,0,.15c.43.14.42.45.54.74.02.04-.02.1,0,.15l.9,1.03v-.15c-.74-1.11-1.4-2.33-2.17-3.24Z"/>
  <path class="cls-23" d="M37.46,65.95c-.07.03-.25-.02-.36,0l.17.5c.12.19.4.06.56.09-.06-.1-.12-.2-.18-.29-.06-.09-.19-.16-.18-.29Z"/>
  <path class="cls-5" d="M91,56.8c.07-.16-.02-.45.12-.71.13-.23.47-.09.42-.33-.93,0-2.03.02-2.94.18-1.23.23-2.02.91-3.39,1.29-.22.56-.18.12-.67.34-.81.36-1.27.76-2.23,1.13-2.37,2.8-2.1,5.89-.36,8.85-1.29-.05-2.09-.87-3.26-1.18l.18.29s.14-.02.18,0c.28.13.65.08.54.44.19.04.36.1.54.15.65.17,1.36.46,1.99.59,1.36.28,3.52.6,5.06.74.35.03.72-.05,1.08.02v.42c1.17-.33,1.78.26,2.9.15-.08-.23-.1-.53-.18-.74-.31-.8-.92-1.65-1.18-2.5-.85-2.77-.81-6.72,1.18-9.15Z"/>
  <path class="cls-4" d="M91,67.86c.07.19.11.4.18.59l.36.15c-.11-.28.04-.83-.54-.74Z"/>
  <path class="cls-6" d="M82.68,68.01c-.13.57.73.28.9.29-.23-.2-.59-.26-.9-.29Z"/>
  <path class="cls-6" d="M146.71,32.46c.16.35.55.35.9.44.12-.48-.56-.35-.9-.44Z"/>
  <path class="cls-6" d="M150.33,34.68c.19.14.27.48.72.44-.15-.16,0-.56-.72-.44Z"/>
  <path class="cls-21" d="M97.87,51.2c-.15.03-.37-.02-.54,0-.03.14.04.32,0,.44.1-.03.26.03.36,0l.18-.44Z"/>
  <path class="cls-15" d="M98.78,50.9c-.12.04-.24.11-.36.15-.23.07-.26.09-.54.15l-.18.44c.67-.17,1.62-.82,2.35-1.18-.47.05-.85.29-1.27.44Z"/>
  <path class="cls-23" d="M68.03,13.14c0,.2,0,.39,0,.59h.54c-.14-.23-.22-.48-.54-.59Z"/>
  <path class="cls-17" d="M93.17,58.87v.15c.23.03.95.12,1.09.15l-1.09-.29Z"/>
  <path class="cls-25" d="M22.63,40.28c.25.13.3.64.4.71.13.1.41,0,.5.03,0-.41-.55-.53-.9-.74Z"/>
  <path class="cls-21" d="M78.34,59.9c-.16.03-.36-.04-.53.01v.43c.2-.1.58,0,.53-.44Z"/>
  <path class="cls-21" d="M82.5,58.13c-.14.03-.38-.03-.54,0v.44c.29-.13.65-.09.54-.44Z"/>
  <path class="cls-6" d="M22.27,36c-.22.03-.49-.02-.72,0v.29c.32-.03.61.03.72-.29Z"/>
  <path class="cls-21" d="M73.27,59.75c-.3.12-.64.1-.54.44.16-.02.37.02.54,0v-.44Z"/>
  <path class="cls-6" d="M79.06,66.68v.44c.17.03.4-.03.54,0,.11-.36-.26-.31-.54-.44Z"/>
  <path class="cls-21" d="M77.25,57.98c-.29.12-.64.09-.54.44.14-.03.37.03.54,0v-.44Z"/>
  <path class="cls-6" d="M151.78,48.69h.18s.21-.17.36-.44c-.54-.06-.43.32-.54.44Z"/>
  <path class="cls-21" d="M86.48,56.36c-.14.03-.38-.03-.54,0v.44c.3-.12.64-.1.54-.44Z"/>
  <path class="cls-21" d="M81.23,56.21c-.31.1-.64.12-.54.44.15-.03.37.02.54,0v-.44Z"/>
  <path class="cls-21" d="M85.21,54.44c-.29.12-.65.09-.54.44.14-.03.37.03.54,0v-.44Z"/>
  <path class="cls-23" d="M26.43,31.87c-.3.12-.64.1-.54.44.14-.03.38.03.54,0v-.44Z"/>
  <path class="cls-6" d="M27.51,33.79c-.14.03-.38-.03-.54,0v.44c.29-.12.65-.09.54-.44Z"/>
  <path class="cls-4" d="M54.64,51.05c.73-.24.42-.35.54-.44-.36,0-.56.15-.54.44Z"/>
  <path class="cls-21" d="M88.83,52.82c-.3.12-.64.1-.54.44.14-.03.38.03.54,0v-.44Z"/>
  <path class="cls-21" d="M92.81,51.05c-.39.15-.5.29-.9.44-.24.09-.48.2-.72.29v.15c.22-.08,1.55-.41,1.61-.46l.02-.42Z"/>
  <path class="cls-6" d="M152.68,36.74c.16.35.33.84.72,1.03-.08-.18-.14-.79-.4-.99-.12-.09-.3-.02-.32-.04Z"/>
  <path class="cls-21" d="M79.24,7.68v.29c.19.02.38.06.54.15v-.44c-.17-.04-.42.03-.54,0Z"/>
  <path class="cls-6" d="M19.19,37.04h-.73c0,.09.18.14.18.15.25.07.4-.11.54-.15Z"/>
  <path class="cls-23" d="M65.68,9.45s-.27.09-.18.29h.54c-.03-.07.03-.2,0-.29h-.36Z"/>
  <path class="cls-6" d="M24.8,34.97c-.21.04-.5-.03-.72,0v.29c.24-.08.56-.04.72-.29Z"/>
  <path class="cls-6" d="M20.46,36.59c-.22.03-.49-.02-.72,0v.29c.25-.08.56-.04.72-.29Z"/>
  <path class="cls-6" d="M21.36,36.3c-.24.02-.49-.02-.72,0v.29c.29-.03.56-.07.72-.29Z"/>
  <path class="cls-13" d="M36.01,18.16c.19.64.94,1,1.44,1.44.3.26.35.78.92.77l-.18-.44c-.65-.21-1.66-1.26-2.17-1.77Z"/>
  <path class="cls-4" d="M104.39,47.66s-.27-.05-.34.01c-.1.09.02.34-.02.43l.34-.02.03-.42Z"/>
  <path class="cls-23" d="M66.94,62.55c.13-.02.36.13.46.13s.06-.38.36-.14l-.09-.29c-.21.08-.57.03-.72.29Z"/>
  <path class="cls-6" d="M146.17,32.32c.12.05.24.11.36.15v-.59c-.27.03-.34.25-.36.44Z"/>
  <path class="cls-23" d="M68.75,14.17c.11.25.21.46.19.73h.35c-.12-.28-.11-.59-.54-.73Z"/>
  <path class="cls-4" d="M10.15,26.42c.21-.07.41-.14.54-.29-.2-.01-.36-.11-.54-.15v.44Z"/>
  <path class="cls-6" d="M28.96,33.2c-.14.03-.38-.03-.54,0v.29c.12-.01.26.02.36,0l.18-.29Z"/>
  <path class="cls-21" d="M38.18,19.93l.18.44h.18c-.04-.12.05-.39,0-.44-.04-.04-.27.03-.36,0Z"/>
  <path class="cls-21" d="M132.24,24.2c.17-.05.31-.07.54-.15v-.15c-.13.07-.49.01-.54.29Z"/>
  <path class="cls-21" d="M72.01,60.34v.15c.08-.03.38.06.51-.02l.03-.28c-.21.04-.35.09-.54.15Z"/>
  <path class="cls-21" d="M74.9,61.67c-.13.2-.28.3-.18.59h.36c-.04-.17-.24-.37-.18-.59Z"/>
  <path class="cls-25" d="M144,53.85c.18,0,.51.17.54.15v-.44c-.21.04-.41.16-.54.29Z"/>
  <path class="cls-23" d="M89.55,14.03c.08.21.28.29.54.29.02-.08,0-.2,0-.29-.17-.03-.4.03-.54,0Z"/>
  <path class="cls-29" d="M140.2,30.1c-.61.15-.78.75-1.27,1.18.63-.28.91-.72,1.27-1.18Z"/>
  <path class="cls-23" d="M82.32,9.45c0,.22.1.37.36.44-.2-.35.3-.2-.36-.44Z"/>
  <path class="cls-21" d="M96.25,49.43v.29s.36,0,.36,0v-.44c-.12.05-.24.09-.36.15Z"/>
  <path class="cls-4" d="M58.08,48.69c.12-.03.42.06.52-.02.08-.06-.01-.25.02-.28-.26,0-.46.09-.54.29Z"/>
  <path class="cls-4" d="M13.58,15.65s-.26.13-.18.29h.36s-.18-.29-.18-.29Z"/>
  <path class="cls-6" d="M26.06,34.53s-.26-.23-.36-.15c-.04.03.04.26,0,.29l.36-.15Z"/>
  <path class="cls-4" d="M144.9,31.58l.36.15s.05-.25,0-.3c-.09-.08-.34.15-.36.15Z"/>
  <path class="cls-4" d="M9.97,26.42c-.14.06-.45.11-.51.18-.09.1-.01.22-.04.26l.54-.44Z"/>
  <path class="cls-21" d="M99.32,48.25c.05-.01.12.01.18,0h.18l.18-.15v-.15c-.1.08-.44.12-.54.29Z"/>
  <path class="cls-23" d="M3.82,35.27s.13.02.18,0l-.09-.3-.09.3Z"/>
  <path class="cls-21" d="M120.12,36.15c-.09-.15-.35-.42-.36-.44,0,.22.1.38.36.44Z"/>
  <path class="cls-21" d="M75.26,62.85l-.18-.29c.07.2.17.27.18.29Z"/>
  <path class="cls-21" d="M81.41,56.21c.56-.18,1.29-.29,1.63-.74-.54.22-1.17.41-1.63.74Z"/>
  <path class="cls-21" d="M79.24,59.6l.36-.15c-.14.05-.27.11-.36.15Z"/>
  <path class="cls-21" d="M79.79,56.95l.09.14.64-.44c-.23.06-.49.21-.72.29Z"/>
  <path class="cls-21" d="M78.88,57.39c.12-.05.25-.1.36-.15l-.36.15Z"/>
  <path class="cls-21" d="M83.77,57.69c.08-.03.14-.09.18-.15-.08.02-.15.08-.18.15Z"/>
  <path class="cls-21" d="M83.4,57.83l.18-.15c-.1.04-.15.14-.18.15Z"/>
  <path class="cls-21" d="M77.8,57.83c.09-.04.14-.13.18-.15l-.18.15Z"/>
  <path class="cls-13" d="M38.91,20.81l-.18-.29h-.18c.06.15.18.25.36.29Z"/>
  <path class="cls-21" d="M83.04,57.98l.18-.15c-.1.04-.16.14-.18.15Z"/>
  <path class="cls-21" d="M82.68,58.13l.18-.15c-.1.03-.16.14-.18.15Z"/>
  <path class="cls-21" d="M120.3,36.45c-.05-.05-.14-.1-.18-.15l.18.15Z"/>
  <path class="cls-21" d="M75.99,58.72c.1-.03.16-.14.18-.15l-.18.15Z"/>
  <path class="cls-21" d="M75.63,58.87c.1-.04.15-.14.18-.15l-.18.15Z"/>
  <path class="cls-21" d="M75.26,59.01c.1-.04.15-.14.18-.15l-.18.15Z"/>
  <path class="cls-21" d="M85.57,56.95l.18-.15c-.1.03-.15.14-.18.15Z"/>
  <path class="cls-21" d="M74.9,59.16c.1-.04.15-.14.18-.15l-.18.15Z"/>
  <path class="cls-4" d="M91.18,56.8s.15-.08.18-.15l-.18.15Z"/>
  <path class="cls-21" d="M74.54,59.31c.1-.04.15-.14.18-.15l-.18.15Z"/>
  <path class="cls-21" d="M74.18,59.46c.1-.04.15-.14.18-.15l-.18.15Z"/>
  <path class="cls-4" d="M91.36,56.51c.06-.13,0-.14,0-.15v.15Z"/>
  <path class="cls-21" d="M73.82,59.6c.1-.04.15-.14.18-.15l-.18.15Z"/>
  <path class="cls-23" d="M129.71,19.34h.18l-.09-.15c-.07,0-.08.14-.09.15Z"/>
  <path class="cls-21" d="M86.66,56.36l.18-.15c-.1.03-.16.14-.18.15Z"/>
  <path class="cls-21" d="M87.02,56.21l.18-.15c-.1.04-.15.14-.18.15Z"/>
  <path class="cls-21" d="M78.88,59.75h.18s.02-.06-.18,0Z"/>
  <path class="cls-21" d="M73.45,59.75c.1-.04.15-.14.18-.15l-.18.15Z"/>
  <path class="cls-21" d="M87.38,56.06c.08-.03.14-.09.18-.15-.08.02-.15.08-.18.15Z"/>
  <path class="cls-21" d="M78.52,59.9h.18s-.03-.03-.18,0Z"/>
  <path class="cls-21" d="M131.88,24.35c.12-.04.17-.14.18-.15l-.18.15Z"/>
  <path class="cls-21" d="M77.62,60.64v-.15c-.06.01-.13-.01-.18,0-.03.09.1.16.18.15Z"/>
  <path class="cls-21" d="M83.95,55.18c.1-.03.15-.14.18-.15l-.18.15Z"/>
  <path class="cls-21" d="M36.46,18.16c-.12.05-.12.1,0,.15v-.15Z"/>
  <polygon class="cls-23" points="70.92 61.08 70.74 61.08 70.83 61.22 70.92 61.08"/>
  <path class="cls-21" d="M96.61,54.44l-.18-.15s.09.13.18.15Z"/>
  <path class="cls-21" d="M86.12,54.15c.1-.04.15-.13.18-.15l-.18.15Z"/>
  <path class="cls-21" d="M86.48,54c.1-.04.15-.14.18-.15l-.18.15Z"/>
  <path class="cls-25" d="M143.64,54c.12-.02.17-.15.18-.15l-.18.15Z"/>
  <path class="cls-21" d="M75.44,63.14l-.18-.15c.05.1.18.14.18.15Z"/>
  <path class="cls-21" d="M86.84,53.85c.1-.04.15-.14.18-.15l-.18.15Z"/>
  <path class="cls-21" d="M75.35,63.44c-.12.05-.12.1,0,.15v-.15Z"/>
  <path class="cls-21" d="M87.2,53.7c.1-.04.15-.14.18-.15l-.18.15Z"/>
  <path class="cls-21" d="M87.56,53.56c.1-.04.16-.14.18-.15l-.18.15Z"/>
  <path class="cls-21" d="M87.93,53.41c.1-.03.16-.14.18-.15l-.18.15Z"/>
  <path class="cls-23" d="M67.67,64.47c.09-.07-.17-.23-.18-.07,0,.05.14.11.18.07Z"/>
  <path class="cls-23" d="M61.88,64.62c.12-.05.17-.14.18-.15l-.18.15Z"/>
  <path class="cls-23" d="M68.75,14.03l-.18-.15c.04.08.17.13.18.15Z"/>
  <path class="cls-23" d="M59.89,65.5c.1-.02.16-.14.18-.15l-.18.15Z"/>
  <path class="cls-23" d="M59.53,65.65c.12-.03.17-.14.18-.15l-.18.15Z"/>
  <path class="cls-21" d="M89.01,52.82c.1-.04.15-.14.18-.15l-.18.15Z"/>
  <path class="cls-6" d="M78.88,66.68l-.18-.29h-.18c.09.05.14.19.36.29Z"/>
  <path class="cls-21" d="M89.37,52.67c.1-.04.15-.14.18-.15l-.18.15Z"/>
  <path class="cls-21" d="M89.73,52.52c.1-.04.15-.14.18-.15l-.18.15Z"/>
  <path class="cls-21" d="M90.1,52.38c.1-.04.15-.14.18-.15l-.18.15Z"/>
  <path class="cls-21" d="M90.46,52.23c.1-.04.15-.14.18-.15l-.18.15Z"/>
  <path class="cls-21" d="M90.82,52.08c.1-.04.15-.14.18-.15l-.18.15Z"/>
  <path class="cls-21" d="M96.61,51.93l.18-.15c-.08.02-.14.09-.18.15Z"/>
  <path class="cls-21" d="M96.97,51.79l.18-.15c-.13.03-.17.14-.18.15Z"/>
  <path class="cls-4" d="M91,67.72c-.02-.09-.18-.14-.18-.15l.18.15Z"/>
  <path class="cls-23" d="M25.52,32.46c.12-.03.17-.14.18-.15l-.18.15Z"/>
  <path class="cls-6" d="M23.71,35.41l.18-.15c-.12.04-.17.14-.18.15Z"/>
  <path class="cls-4" d="M91.72,69.04c-.02-.08-.17-.13-.18-.15l.18.15Z"/>
  <path class="cls-4" d="M91.9,69.34c-.03-.1-.18-.14-.18-.15l.18.15Z"/>
  <path class="cls-21" d="M92.99,51.05c.1-.04.15-.13.18-.15l-.18.15Z"/>
  <path class="cls-23" d="M66.4,10.34l-.18-.15c.03.08.17.13.18.15Z"/>
  <path class="cls-21" d="M98.42,51.05c.12-.04.24-.1.36-.15v-.15c-.11.09-.31.13-.36.29Z"/>
  <path class="cls-21" d="M93.35,50.9c.1-.04.15-.13.18-.15l-.18.15Z"/>
  <path class="cls-23" d="M83.22,10.19s-.12-.1-.18-.15l.18.15Z"/>
  <path class="cls-23" d="M66.22,10.04l-.18-.15c.06.11.18.14.18.15Z"/>
  <path class="cls-6" d="M24.98,34.97l.18-.15c-.1.03-.16.14-.18.15Z"/>
  <path class="cls-21" d="M93.71,50.75c.1-.04.15-.13.18-.15l-.18.15Z"/>
  <path class="cls-21" d="M81.96,9.31s-.09-.1-.18-.15l.18.15Z"/>
  <path class="cls-6" d="M25.34,34.82l.18-.15c-.09.05-.17.14-.18.15Z"/>
  <path class="cls-21" d="M94.08,50.61c.08-.03.14-.08.18-.15l-.18.15Z"/>
  <path class="cls-21" d="M94.44,50.46l.18-.15-.18.15Z"/>
  <path class="cls-21" d="M80.87,8.72c-.06-.03-.11-.11-.18-.15l.18.15Z"/>
  <path class="cls-21" d="M80.51,8.57s-.15-.18-.36-.29l.36.29Z"/>
  <path class="cls-6" d="M10.87,30.84l.18-.15c-.12.04-.17.14-.18.15Z"/>
  <path class="cls-21" d="M78.88,7.54s-.09-.11-.18-.15l.18.15Z"/>
  <path class="cls-21" d="M97.15,49.13c.09-.04.15-.13.18-.15l-.18.15Z"/>
  <path class="cls-23" d="M28.23,31.14c.11-.08.37-.11.36-.29l-.36.29Z"/>
  <path class="cls-21" d="M97.51,48.98c.1-.04.15-.14.18-.15l-.18.15Z"/>
  <path class="cls-6" d="M10.51,30.99l.18-.15c-.1.03-.15.14-.18.15Z"/>
  <path class="cls-21" d="M97.87,48.84c.1-.04.15-.14.18-.15l-.18.15Z"/>
  <path class="cls-25" d="M38.45,48.54c-.12.05-.12.1,0,.15v-.15Z"/>
  <path class="cls-21" d="M98.24,48.69c.08-.03.14-.09.18-.15-.05.01-.13-.01-.18,0v.15Z"/>
  <path class="cls-21" d="M28.87,6.06c-.12.05-.12.1,0,.15v-.15Z"/>
  <path class="cls-21" d="M98.6,48.54c.13-.03.17-.14.18-.15l-.18.15Z"/>
  <path class="cls-21" d="M98.96,48.39c.1-.02.15-.14.18-.15l-.18.15Z"/>
  <path class="cls-17" d="M99.68,48.25h-.18s.11.23.18,0Z"/>
  <path class="cls-23" d="M64.41,5.47l.18-.15c-.08.03-.13.12-.18.15Z"/>
  <path class="cls-25" d="M36.19,47.51c-.09-.07-.29.14-.09.15.06,0,.13-.11.09-.15Z"/>
  <path class="cls-6" d="M27.69,33.79l.18-.15c-.1.04-.16.14-.18.15Z"/>
  <path class="cls-6" d="M28.05,33.64c.08-.03.14-.09.18-.15-.09.02-.15.08-.18.15Z"/>
  <path class="cls-17" d="M100.95,47.51s0,.13.19.09c.34-.07.37-.53.89-.39-.15-1.11-.88-.56-1.51-.63-.28-.03-.47-.26-1.11-.27-.41,0-.85.17-1.07.17-.12,0-.01-.27-.36-.31-.59-.07-2.17.19-2.34.15-.22-.05-.23-.35-.33-.4-.11-.06-1.99-.08-2.2-.04s.03.37-.39.3c-.16-.03-.02-.23-.22-.29-.28-.08-1.23-.15-1.58-.16-2-.05-3.92-.16-5.99-.15-3.78.03-9.09-.58-12.84-.15-.48.05-.7.31-1.25.32-2.38.03-2.98-.15-5.21.73-.03.01-.5.33-.49.44.3.04,2.84-.61,3.62-.74.46-.07,1.27-.3,1.34-.31,2.82-.3,12.92-.29,15.76,0,.35.04.17.28.52.32,1.96.2,4.65.02,6.71.13,2.86.15,5.74.33,8.58.6l-.72.59Z"/>
  <path class="cls-23" d="M27.69,31.43c.23-.12.29-.25.36-.29l-.36.29Z"/>
  <path class="cls-17" d="M64.77,46.92h.18l-.09-.15c-.08.03-.06.12-.09.15Z"/>
  <path class="cls-23" d="M27.33,31.58c.1-.04.15-.13.18-.15l-.18.15Z"/>
  <path class="cls-23" d="M26.97,31.73c.1-.04.15-.13.18-.15l-.18.15Z"/>
  <path class="cls-23" d="M26.61,31.87c.1-.04.15-.14.18-.15l-.18.15Z"/>
  <path class="cls-2" d="M62.96,30.55c-.87-.24-.4-.12-1.03-.41-.89-.43-2.35.08-3.09.41-.13.06-.35-.02-.41,0-.41.21-.45.36-.72.59-.13.79-.84,1.43-1.01,2.16-.29,1.21.08,2.57.47,3.74.02.05-.02.1,0,.15h.36s0,.44,0,.44c.28.29.39.36.72.59.51-.05.78.29,1.22.4.96.24,1.64.19,2.54-.01.04,0,.03-.19.12-.21.18-.04.58.05.82-.03.05-.05.12-.1.18-.15.31-.28.94-1.13,1.07-1.44.15-.35.11-.77.21-1.1.04-.13.32-.06.36-.32.15-.95-.3-3.18-.74-3.92-.02-.04.02-.11,0-.15l-.18-.15c-.12-.15-.35-.35-.54-.44l-.18-.15c-.06-.01-.13.01-.18,0ZM58.98,35.27c-.26-.89-.29-1.53.29-2.35.45-.64,1.12-1.13,2.06-.9.48.12,1.18,1.42,1.25,1.86.46,2.93-2.76,4.26-3.6,1.39Z"/>
  <path class="cls-2" d="M88.29,29.81l-.8.28-.1.45-.27-.3c-.13.46-.41.23-.63.3-.05.02-.13-.02-.18,0l-.36.29c-.17.11-.23.16-.36.29.21.39-.34.45-.36.54-.15.63-.49,1.39-.54,2.04-.12,1.36-.08,1.86.52,2.99.3.56-.07.68.74,1.21.34.22,1.08.44,1.49.6.15.06.13.26.22.26.48,0,1.23-.35,1.83,0,.03-.5.4-.1.59-.16.02,0,.03-.21.15-.27,1.18-.58,2.08-1.6,2.35-2.61.21-.81.04-2.5-.25-3.14-.11-.25-.53-1.14-.66-1.3-.1-.12-.58-.15-.67-.47-.01-.04,0-.1,0-.15v-.15c-.06,0-.12,0-.18,0-.8-.11-.46-.24-.76-.34-.46-.15-1.31.1-1.23-.4-.17,0-.37-.01-.54,0ZM89.55,32.46c.35.31.47.64.72.88.02.02.31-.09.37.1.25.81.18,1.73-.37,2.41-.21.27-.94.9-1.27,1.03s-.53.22-.97.15c-.21-.03-.08-.28-.11-.3-1.23-1.02-1.8-2.55-.72-3.83.11-.14.96-.87,1.03-.88.8-.15.87.05,1.32.44Z"/>
  <path class="cls-18" d="M49.58,30.69c-.59.31-1.11-.44-1.39-.56-.52-.23-2.03-.1-2.61.03-.33.07-.29.3-.47.38-.12.05-.36-.03-.41,0-.39.21-.45.34-.72.59.11.43-.1.48-.54.59-.02.04.02.1,0,.15l-.18.29s0,.1,0,.15c-.04.26.16.69-.01,1.07-.06.13-.35.11-.35.19-.05.95.34,2.63.73,3.6.02.04-.02.1,0,.15.16.37.82.42,1,.59.11.1.05.25.08.3,1.04.42,2.36.68,3.48.4l1.41-.4c.12-.08.26-.2.36-.29.17-.52.39-1.04.6-1.55.43-1.07.3-1.42.3-2.66,0-.82-.36-1.37-.84-2.18-.13-.22-.09-.48-.25-.69-.06-.06-.12-.1-.18-.15ZM47.59,32.02c.06,0,.13-.01.18,0,.1.02.24-.03.36,0,.06.13-.04.35,0,.44.08.15.64,1.07.72,1.18.01.02.25-.04.32.03.16.15-.03,1.01.04,1.3h-.36c0,.1,0,.2,0,.29-.04.51-.19.78-.54,1.26l-.3.19c-.12.02-.23-.12-.24-.12-.32.04-.63.19-.98.15-.4-.04-.56-.3-.83-.44-.32-.17-.37-.32-.54-.44-.04-.03-.26.03-.36,0-.09-.17.18-.28.18-.29.01-.09,0-.2,0-.29h-.36s-.02-1.56-.02-1.56l.05-.19.32-.03c.2-.6.32-.61.72-1.03.05-.05.19-.12.18-.15,0,0-.15.03-.18-.08-.08-.34.12-.17.36-.22.05-.01.12,0,.18,0v-.29s.97,0,.97,0l.11.3Z"/>
  <path class="cls-18" d="M107.64,34.53c-.55-.26-.36-1.35-.41-1.45-.01-.02-.27-.04-.3-.14-.11-.29-.35-1.42-.4-1.48-.04-.05-.73-.35-.94-.51-.15-.11-.66-.64-.71-.66-.76-.25-1.93-.17-2.74-.21l-.1.45-.36-.29c-.03.49-.67.52-1.09.74-1.04,1.33-1.31,2.24-1.25,3.77.03.88.24,1.18.35,1.98,0,.05,0,.1,0,.15h.36s0,.74,0,.74c.14.15.25.2.36.29l1.8.68c.5-.06,1.56.23,1.9.21.11,0,.08-.27.22-.29.11-.02.33.1.56.04.21-.05.3-.56.95-.34.26-.18.32-.21.54-.44-.29-.59.32-.74.37-.85.15-.31.13-.83.19-.98.05-.12.34-.09.35-.18.03-.29-.7-1.1.36-.95,0-.1,0-.2,0-.29ZM103.48,32.02c.11,0,.25-.01.36,0,.15.02.34-.05.5.03l.41.85c.07.09.11.21.18.29.02.02.27-.08.36.1.17.35.51,2.11-.36,2.11-.27.88-1.25,1.38-1.27,1.47,0,.01.17.07.18.14-.35-.04-.85.07-1.16.01-.22-.04-.07-.27-.11-.3-.24-.2-.55-.3-.72-.44-.86-.72-.86-1.72-.67-2.69.14-.75.42-.48.49-.55.2-.19.41-.36.54-.59.05-.09-.13-.33.11-.46.1-.05.94-.28,1.07-.28l.09.3Z"/>
  <path class="cls-6" d="M71.65,30.99s-.36.03-.54.21c-2.22,2.28-1.36,7.5,2.8,7.76,3.89.24,5.16-2.88,4.8-5.54-.23-1.69-1.91-3.62-4.1-3.75-.63-.04-1.98.27-2.46.58-.34.22-.37.63-.5.74.28-.2,1.1-.12.91-.74l.36.29c.02-.13-.05-.33.02-.43s2.64-.02,2.8.04.18.25.32.33c.13.07.32.03.48.15.95.73,2.15,2.93,2,3.96-.05.31-.29.45-.33.62-.05.19.12.39.08.52-.03.1-.8,1.71-.89,1.83-.05.07-.35.13-.51.26-.29.24-.57.5-1.03.63-.15.04-1.67.34-1.76.33-.15-.01-1.94-.57-2.04-.64-.12-.08-.23-.33-.4-.48-.14-.12-.47-.17-.53-.24-.06-.08.12-.29.05-.41-.77-1.32-.87-1.93-.96-3.48,0-.07.29-.04.33-.17.23-.67.51-1.99,1.09-2.4Z"/>
  <path class="cls-23" d="M91,30.84c.08.32.57.36.67.47.13.16.55,1.06.66,1.3.29.64.46,2.33.25,3.14-.26,1.01-1.16,2.03-2.35,2.61-.13.06-.13.26-.15.27-.2.06-.57-.34-.59.16-.6-.35-1.35,0-1.83,0-.09,0-.07-.21-.22-.26-.41-.16-1.15-.38-1.49-.6v.29c.69.48,1.07.51,1.84.75.29.09.16.41,1.15.29.32-.04.24-.25.4-.29.57-.16.83-.1,1.44-.42,2.48-1.28,2.75-4.88,1.46-6.87-.25-.38-.61-.91-1.23-.84Z"/>
  <path class="cls-12" d="M99.5,54c.04.2.23.28.45.29,3.14.12,6.27.21,9.41.16,3.38-.06,6.91-.22,10.3-.45.55-.04,1.39-.13,1.9-.29-6.63.41-14.27.73-20.9.45-.4-.02-.77-.13-1.17-.15Z"/>
  <path class="cls-6" d="M49.76,30.84c.16.21.12.47.25.69.48.81.84,1.36.84,2.18,0,1.24.13,1.59-.3,2.66-.21.51-.43,1.02-.6,1.55,2.13-2,1.91-5.1-.18-7.08Z"/>
  <path class="cls-4" d="M107.64,34.53c.02-2.54-1.73-5.18-5.29-4.68-.95.13-1.31.56-1.76,1.14-.56.29-.79.34-1.12.93-.75,1.34-.87,3.04-.28,4.42.1.24.07.47.5.4-.11-.81-.32-1.1-.35-1.98-.05-1.53.22-2.44,1.25-3.77.42-.22,1.05-.24,1.09-.74l.36.29.1-.45c.81.04,1.99-.05,2.74.21.05.02.56.54.71.66.21.15.89.45.94.51.05.06.29,1.19.4,1.48.04.1.29.11.3.14.05.09-.15,1.19.41,1.45Z"/>
  <path class="cls-21" d="M85.94,38.22v-.29c-.81-.53-.44-.65-.74-1.21-.6-1.12-.64-1.63-.52-2.99.06-.65.39-1.41.54-2.04.02-.1.57-.15.36-.54-1.91,1.83-1.94,5.49.36,7.08Z"/>
  <path class="cls-21" d="M64.05,31.43c.43.74.89,2.97.74,3.92-.04.26-.32.19-.36.32-.11.34-.06.76-.21,1.1-.13.31-.76,1.16-1.07,1.44.37-.01.5-.18.7-.39,1.54-1.63,1.86-4.76.21-6.4Z"/>
  <path class="cls-4" d="M100.41,37.92c.92.83.79.68,2.03,1.05.17.05.08.25.4.29,1.02.13.9-.22,1.15-.29,1.02-.29.94-.13,1.85-.75-.65-.22-.74.29-.95.34-.23.06-.46-.06-.56-.04-.14.03-.11.28-.22.29-.34.02-1.4-.27-1.9-.21l-1.8-.68Z"/>
  <path class="cls-21" d="M57.18,37.04c-.39-1.17-.77-2.53-.47-3.74.18-.73.88-1.38,1.01-2.16-1.65,1.42-2.05,4.28-.54,5.9Z"/>
  <path class="cls-21" d="M43.61,37.18c-.38-.97-.78-2.65-.73-3.6,0-.08.29-.06.35-.19.17-.38-.03-.81.01-1.07-.98,1.3-.87,3.7.36,4.87Z"/>
  <path class="cls-21" d="M44.69,30.55c.05-.03.29.05.41,0,.18-.08.14-.3.47-.38.59-.13,2.09-.26,2.61-.03.28.12.8.87,1.39.56-.09-.08-.08-.3-.31-.45-.41-.25-1.8-.59-2.31-.58s-2.23.3-2.26.88Z"/>
  <path class="cls-21" d="M62.96,30.55c-.08-.63-1.69-.89-2.26-.88-.49,0-2.2.32-2.26.88.06-.03.28.05.41,0,.74-.33,2.2-.84,3.09-.41.62.3.16.18,1.03.41Z"/>
  <path class="cls-21" d="M44.69,38.22s-.05.18.03.26c.04.05.94.34,1.09.37,1.52.28,2.58.16,3.76-.64l-1.41.4c-1.12.28-2.44.02-3.48-.4-.03-.05.02-.19-.08-.3-.18-.17-.85-.22-1-.59.25.61.45.63,1.09.88Z"/>
  <path class="cls-21" d="M58.26,38.22c.14.09.19.28.47.42,1.07.51,3.41.53,4.23-.27-.23.09-.64,0-.82.03-.09.02-.08.2-.12.21-.9.21-1.59.25-2.54.01-.44-.11-.72-.45-1.22-.4Z"/>
  <path class="cls-4" d="M107.64,34.82c-1.06-.15-.33.66-.36.95,0,.09-.3.06-.35.18-.06.15-.04.67-.19.98-.05.1-.66.26-.37.85.88-.94,1.18-1.75,1.27-2.95Z"/>
  <path class="cls-12" d="M126.09,53.26c1.35-.07,2.02-.32,3.44-.59-1.04.07-2.61.03-3.44.59Z"/>
  <path class="cls-21" d="M88.83,29.81c-.08.5.77.24,1.23.4.3.1-.04.24.76.34-.1-.66-1.3-.72-1.99-.74Z"/>
  <path class="cls-21" d="M86.48,30.55c.23-.07.5.17.63-.3l.27.3.1-.45.8-.28c-.53.04-1.8.21-1.81.74Z"/>
  <path class="cls-4" d="M99.68,36.89c.05.59.03.38.36.74v-.74s-.36,0-.36,0Z"/>
  <path class="cls-21" d="M57.18,37.18c.14.39.2.27.36.44v-.44s-.36,0-.36,0Z"/>
  <path class="cls-21" d="M43.43,31.73c.45-.11.65-.16.54-.59-.26.24-.34.25-.54.59Z"/>
  <path class="cls-12" d="M121.75,53.7l.54-.15c-.37.03-.51.15-.54.15Z"/>
  <path class="cls-21" d="M43.25,32.17l.18-.29s-.14.05-.18.29Z"/>
  <path class="cls-21" d="M91,30.69s.18-.04.18-.07l-.18-.07v.15Z"/>
  <path class="cls-21" d="M85.94,30.84l.36-.29c-.25.07-.26.23-.36.29Z"/>
  <path class="cls-21" d="M63.33,30.69c-.06-.03-.11-.13-.18-.15l.18.15Z"/>
  <path class="cls-21" d="M64.05,31.28c-.04-.07-.15-.1-.18-.15l.18.15Z"/>
  <path class="cls-12" d="M105.29,59.01c1.93,0,3.86,0,5.79,0-.19-.24-.69-.15-.99-.15-1.27-.01-2.54-.01-3.8,0-.31,0-.8-.09-.99.15Z"/>
  <path class="cls-12" d="M103.3,59.01c.42,0,.84,0,1.27,0-.23-.24-1.04-.24-1.27,0Z"/>
  <path class="cls-12" d="M111.44,59.01c.06,0,.12,0,.18,0h-.18Z"/>
  <path class="cls-3" d="M87.38,14.62c-.13.07-1.16-.06-1.51,0-.06.01-.52.77-.67.01l-.26-.02c-.15.02.02.2-.35.31-1.09.31-4.5.57-5.83.67-1.64.13-3.17.43-4.94.65v.15c4.38-.61,9.56-.72,13.75-1.47l-.18-.29Z"/>
  <path class="cls-17" d="M94.8,59.6l.82,1.91.26,1.41-.18,3.02c.69-1.83.63-4.78-.9-6.34Z"/>
  <path class="cls-22" d="M93.53,66.83c.28.39.71.55,1.27.44v-.44c-.43,0-.89-.11-1.27,0Z"/>
  <path class="cls-17" d="M94.8,66.83v.44c.38-.08.27-.33.36-.44-.12,0-.24,0-.36,0Z"/>
  <path class="cls-17" d="M95.34,66.54s.15-.08.18-.15l-.18.15Z"/>
  <path class="cls-8" d="M22.81,3.41c-.71-.18-1.38-.45-2.13-.55-.8-.11-1.37.17-1.94-.35-.58-.04-.35.28-.71.32-2.08.21-4.24-.05-6.33.14-.46.04-.77.4-1.36.21l4.14,13.88c.08,2.02,1.43,4.29,1.46,6.26l.37,1.32c2.44-.06,4.88-.4,7.32-.58,6.39-.46,12.53-1.08,18.99-1.33l-.27-.3c-.97-.16-2.72-.9-3.08-1.62-.1-.03-.27.03-.36,0-.18-.05-.31-.14-.36-.29-.02-.04.02-.1,0-.15h-.18c-.56.01-.62-.51-.92-.77-.5-.44-1.25-.8-1.44-1.44-2.7-2.7-6.22-6.85-8.5-10.03-.19-.26-.32-.35-.54-.74-.06-.1-.13-.19-.18-.29-.91-.49-1.29-1.21-1.81-1.92-.03-.04.03-.11,0-.15-.79-.32-1.5-1.07-2.17-1.62Z"/>
  <path class="cls-7" d="M61.34,32.02c.08.53-.77.2-1.26.37-1.27.44-.67,2.08-1.09,2.87.84,2.87,4.06,1.54,3.6-1.39-.07-.44-.77-1.74-1.25-1.86Z"/>
  <path class="cls-9" d="M61.34,32.02c-.94-.23-1.61.26-2.06.9-.58.81-.55,1.46-.29,2.35.42-.8-.18-2.44,1.09-2.87.5-.17,1.34.16,1.26-.37Z"/>
  <path class="cls-29" d="M89.55,32.61c1.32,1.14.76,4.96-1.85,3.83-.87-.38-.83-2.86-.32-3.54h-.18c-1.08,1.28-.51,2.81.72,3.83l1.09.15c.33-.14,1.05-.76,1.27-1.03.09-.82.42-1.71,0-2.51-.25-.25-.38-.58-.72-.88v.15Z"/>
  <path class="cls-4" d="M90.28,33.35c.42.8.09,1.69,0,2.51.54-.69.62-1.6.37-2.41-.06-.18-.34-.08-.37-.1Z"/>
  <path class="cls-9" d="M89.55,32.46c-.45-.39-.52-.59-1.32-.44-.07.01-.92.74-1.03.88h.18c.48-.65,1.41-.65,2.17-.29v-.15Z"/>
  <path class="cls-4" d="M87.93,36.74s-.1.27.11.3c.44.07.63-.01.97-.15l-1.09-.15Z"/>
  <path class="cls-7" d="M45.96,32.61c-.8.9-.71,2.72,0,3.69.27.15.43.4.83.44.34.04.65-.11.98-.15.16-.21.37-.39.54-.59.71-1.57.5-4.59-2.35-3.39Z"/>
  <path class="cls-29" d="M45.24,33.5c-.29.9-.07,1,0,1.77,0,.09.01.21,0,.29l.18.29c.18.12.23.27.54.44-.71-.97-.8-2.78,0-3.69v-.15c-.41.42-.53.43-.72,1.03Z"/>
  <path class="cls-9" d="M46.5,32.02c-.06,0-.13-.01-.18,0l-.18.29s-.14.1-.18.15v.15c2.85-1.19,3.06,1.82,2.35,3.39.2-.23.4-.39.54-.74,0-.1,0-.2,0-.29.01-.44,0-.89,0-1.33-.09-.11-.65-1.03-.72-1.18-.26-.06-.36-.23-.36-.44-.05-.01-.12,0-.18,0-.55-.08-.53-.08-1.09,0Z"/>
  <path class="cls-25" d="M48.85,33.64c0,.44.01.89,0,1.33h.36c-.06-.29.12-1.15-.04-1.3-.07-.07-.31,0-.32-.03Z"/>
  <path class="cls-4" d="M45.24,33.5l-.32.03-.05.19.02,1.56h.36c-.07-.77-.29-.87,0-1.77Z"/>
  <path class="cls-25" d="M48.31,36c-.17.2-.38.38-.54.59.01,0,.12.14.24.12l.3-.19c.35-.48.5-.75.54-1.26-.14.35-.35.51-.54.74Z"/>
  <path class="cls-25" d="M47.59,32.02l-.11-.3h-.97s0,.3,0,.3c.55-.08.54-.08,1.09,0Z"/>
  <path class="cls-25" d="M47.77,32.02c0,.22.1.38.36.44-.04-.09.05-.31,0-.44-.11-.03-.26.02-.36,0Z"/>
  <path class="cls-25" d="M46.32,32.02c-.24.05-.44-.12-.36.22.02.1.18.07.18.08l.18-.29Z"/>
  <path class="cls-4" d="M45.24,35.56s-.27.13-.18.29c.1.03.32-.03.36,0l-.18-.29Z"/>
  <path class="cls-7" d="M101.67,35.41c.06.29.13.59.18.88.17.15.49.24.72.44l1.09.15c.01-.09,1-.6,1.27-1.47.23-.75.3-1.47,0-2.21-.07-.08-.11-.21-.18-.29-.37.08-.49-.31-.72-.59-.4.22-.82-.01-1.35.15-1.39.42-.91,2.02-1.01,2.95Z"/>
  <path class="cls-25" d="M101.67,33.05c-.08.07-.35-.2-.49.55-.19.98-.19,1.97.67,2.69-.05-.3-.12-.59-.18-.88-.17-.77-.36-1.56,0-2.36Z"/>
  <path class="cls-25" d="M104.93,33.2c.3.74.23,1.47,0,2.21.87,0,.53-1.75.36-2.11-.09-.19-.34-.09-.36-.1Z"/>
  <path class="cls-9" d="M103.48,32.02c-.84.04-.57.14-1.27.44-.14.23-.34.4-.54.59-.36.8-.17,1.59,0,2.36.09-.93-.39-2.53,1.01-2.95.53-.16.94.07,1.35-.15-.08-.09-.2-.15-.18-.29-.11-.01-.25,0-.36,0Z"/>
  <path class="cls-25" d="M103.84,32.02c-.02.15.11.21.18.29.24.28.35.67.72.59l-.41-.85c-.15-.09-.34-.02-.5-.03Z"/>
  <path class="cls-25" d="M103.48,32.02l-.09-.3c-.12,0-.97.23-1.07.28-.24.13-.06.37-.11.46.7-.3.42-.4,1.27-.44Z"/>
  <path class="cls-25" d="M102.58,36.74s-.11.26.11.3c.31.06.81-.05,1.16-.01,0-.08-.18-.13-.18-.14l-1.09-.15Z"/>
  <path class="cls-18" d="M71.65,30.99c-.58.41-.87,1.74-1.09,2.4-.04.13-.33.1-.33.17.08,1.55.18,2.15.96,3.48.07.12-.11.33-.05.41.06.07.38.12.53.24.17.15.28.41.4.48.1.06,1.89.62,2.04.64.09,0,1.61-.29,1.76-.33.46-.13.74-.39,1.03-.63.16-.13.46-.19.51-.26.09-.12.86-1.73.89-1.83.04-.14-.13-.33-.08-.52.04-.17.29-.31.33-.62.15-1.03-1.05-3.23-2-3.96-.16-.12-.36-.08-.48-.15-.14-.08-.15-.27-.32-.33s-2.74-.14-2.8-.04,0,.3-.02.43l-.36-.29c.19.61-.63.54-.91.74ZM75.26,32.46c1.27.66,1.22,2.41.68,3.43-.11.21-.47.49-.68.7-.03.03.06.19-.03.26-.3.24-1.41.18-1.77-.05-.18-.11-.15-.34-.18-.36-.05-.04-.32,0-.52-.23-.54-.6-.74-2.26-.41-2.96.15-.31.37-.17.39-.2.08-.09.09-.31.23-.4.85-.53,1.41-.66,2.31-.19Z"/>
  <path class="cls-7" d="M87.38,32.91c-.5.67-.55,3.16.32,3.54,2.61,1.13,3.16-2.69,1.85-3.83-.76-.35-1.69-.35-2.17.29Z"/>
  <path class="cls-7" d="M75.26,32.46c-.9-.47-1.45-.34-2.31.19-.13.08-.14.31-.23.4-.4.76-.13,2.83.54,3.39.06.05.73.23.9.29.07.03.13.1.18.15.22-.02.38-.19.54-.29,1.34-.83,1.48-3.06.36-4.13Z"/>
  <path class="cls-25" d="M72.73,33.05s-.25-.11-.39.2c-.33.7-.13,2.36.41,2.96.2.23.47.19.52.23.03.02,0,.25.18.36.36.23,1.47.29,1.77.05.09-.07,0-.24.03-.26h-.36c-.16.1-.32.28-.54.29-.12,0-.2-.04-.18-.15-.17-.07-.85-.25-.9-.29-.68-.56-.95-2.63-.54-3.39Z"/>
  <path class="cls-9" d="M74.9,36.59h.36c.21-.21.56-.49.68-.7.54-1.01.59-2.77-.68-3.43,1.12,1.07.98,3.3-.36,4.13Z"/>
  <path class="cls-18" d="M74.36,36.89c-.05-.05-.11-.12-.18-.15-.02.1.07.16.18.15Z"/>
</svg>