<?xml version="1.0" encoding="UTF-8"?>
<svg id="_레이어_1" data-name="레이어 1" xmlns="http://www.w3.org/2000/svg" viewBox="0 0 497.99 366.95">
  <defs>
    <style>
      .cls-1 {
        fill: #826d4f;
      }

      .cls-2 {
        fill: #22282a;
      }

      .cls-3 {
        fill: #766447;
      }

      .cls-4 {
        fill: #64553f;
      }

      .cls-5 {
        fill: #9f8762;
      }

      .cls-6 {
        fill: #78734a;
      }

      .cls-7 {
        fill: #695841;
      }

      .cls-8 {
        fill: #5f5b38;
      }

      .cls-9 {
        fill: #121314;
      }

      .cls-10 {
        fill: #be9e6f;
      }

      .cls-11 {
        fill: #605b37;
      }

      .cls-12 {
        fill: #947f5b;
      }

      .cls-13 {
        fill: #7e6a4e;
      }

      .cls-14 {
        fill: #6f5f43;
      }

      .cls-15 {
        fill: #eef3f4;
      }
    </style>
  </defs>
  <path class="cls-2" d="M167.61.21c1.17.52,2.65.89,3.71,1.42,7.39,3.68,14.21,23.47,19.66,30.69,2.11,2.79,5.12,3.55,7.6,6.24s4.71,6.52,7.11,9.25c3.79,4.32,9.07,8.14,12.34,12.96,5.69,8.38,6.47,18.55,9.94,27.64,1.07,2.79,2.72,5.39,3.81,8.2,3.15,8.16,4.47,17.31,8.65,25.05.71,1.31,4.01,6.77,4.81,7.59.37.38.51.73,1.15.59.97-4.52,2.19-9.4,4.67-13.35.45-.72,2.77-3.75,3.36-4.09,4.4-2.53,7.86,2.89,9,6.43,2.59,8.03,2.76,21.85,7.99,28.04,3.42,4.05,4.92,3.72,6.93,9.72,3.14,9.39,4.24,23.24,8.06,31.84.22.5,1.77,2.8,2.11,3.03,1.84,1.24,4.76,2.26,6.8,3.48s7.09,4.24,8.7,5.91c.72.74,2.63,3.79,2.8,4.75.64,3.52-1.09,5.99-3.75,7.91s-8.93,4.95-12.03,5.79c-14.25,3.86-29.56.9-44.46,1.59-5.66.26-8.88,1.21-13.68,2.67-1.26.38-4.22.31-4.25,1.84-.02,1.07,5.82,9.49,6.81,11.24,2.26,3.99,4.96,8.05,1.6,12.33-1.56,1.99-4.52,2.84-6.66,3.71-2.49,1.02-6.32,2.86-8.72,3.44-2.12.51-5.53.33-7.6.79-.31.07-.1.7-.82.8-5.42.7-13.49.62-19.03.37-17.03-.75-32.9-10.18-50.34-6.18-12.19-.6-28.07,1.65-38.5-3.87-1.67-.88-3.11-.73-3.55-3.34-.59-3.52,1.55-6.27,4.14-8.31s6.07-3.77,8.91-5.8c.9-.64,2.19-.44,2.43-1.94-1.57.31-4.15.08-5.55.39-5.15,1.14-10.71,1.57-15.89,2.71-.31.07-.1.71-.82.8-4.82.59-17.19,1-21.65-.05-.29-.07-.27-.62-.57-.73-2.33-.8-4.52-.95-4.75-4.11-.08-1.06.07-1.73.38-2.72.77-2.42,2.9-4.1,3.89-6.37-1.15-.08-2.22-.5-3.33-.74-9.22-1.97-17.85-.44-26.73-1.56-.74-.09-.37-.74-1.11-.84-7.55-.96-13.09-.15-19.89-4.21-1.64-.98-2.61-.97-3.11-3.39-.57-2.77.92-5.01,2.76-6.95,4.75-5.01,12.62-8.75,18.4-11.71,6.72-3.44,10.95-9.07,15.59-14.96,8.96-11.38,5.64-31.42,15.1-42.49,4.76-5.57,5.88-5.18,8.42-13,3.23-9.96,6.35-29.56,14.35-36.09,2.27-1.86,3.19-2.16,4.9-5.1,6-10.36,11.05-23.57,17.92-33.22,1.99-2.79,2.27-2.5,5.27-3.56.32-.11.28-.61.59-.71,1.09-.37,2.69-.07,4.09-.8,2.2-1.15,7.31-10.02,9.19-12.47,2.69-3.51,3.77-4.14,7.83-5.38.31-.1.3-.66.57-.73.97-.23,2.37.13,3.43-.04l3.27,2.35c2.34-5.03,3.79-10.77,6.14-15.75.66-1.41,3.01-5.7,4.31-6.15.56-.19,1.22-.04,1.67-.19.33-.11.28-.67.56-.74.63-.15,4.52-.11,5.05.12ZM153.76,30.29c-.98,1.35-1.18,2.69-3.28,2.33-1.31-.22-2.12-2.52-2.92-3.49-2.49-3.01-6.51-.08-8.53,2.24-3.33,3.81-5.93,9.85-9.43,13.51-.09.1-1.99,1.6-2.11,1.65-1.69.71-4.25.14-5.97.84-1.28.52-3.65,4.71-4.46,6.08-6.55,11.14-11.53,23.3-19.1,33.78l-2.81,1.55c-3.15,2.46-5.96,12.93-7.27,17.04-1.74,5.48-2.91,11.2-4.65,16.65-2.28,7.14-3.25,7.98-8.14,13.17-5.62,5.97-5.48,9.57-7.36,17.43-1.51,6.29-2.72,12.69-4.26,18.98-4.03,7.15-14.23,19.9-21.62,23.59-1.27.64-4.1,1.69-5.52,2.17-.63.21-1.37-.07-1.15.96-3.7,1.36-7.19,3.9-10.44,6.38.61,1.96,3.29,1.35,4.73,1.77,2.42.71,3.58.64,5.83,1.15,5.01,1.13,9.06.9,14.43,1.14,8.42.37,17.93,1.05,25.76,3.5,1.47.46.82.43,1.43.77,1.1.61,2.29.51,2.73,2.23.93,3.59-3.61,6.72-4.94,9.77l15.11.39c5.01-.04,14.65-1.23,19.5-2.33,1.2-.27,5.43-1.81,6.63-1.96,2.07-.27,5.25-.54,7.2.03-.3.94.74.72.78.77,1.27,1.98-.76,8.49-2.19,10.41s-3.48,2.56-5.25,3.57c-2.1,1.2-3.26,1.93-5.25,3.44-1.02.77-3.38.91-2.35,3.04.67.48,4.42.57,5.46.86,9.04,2.51,20.71,1.37,30.51,1.14.65-.01,1.29.02,1.94,0,.27,0,.36-.39.39-.39,4.5-.11,10.35-.38,14.73,0,3.28.28,6.39,2.02,9.21,2.68,1.75.41,4.49.36,6.02.82,13.14,4.01,30.86,4.11,44.55.73.87-.22,2.78-1.17,4.38-1.52.7-.15,1.56.49,1.34-.77,2.12-.33,1.76-.57,3.02-1.12.6-.26,2.97-.38,2.8-1.38l-11.41-18.82.17-3.85c.29-.46,2.99-2.5,3.4-2.68,2.85-1.31,5.82-1.58,8.72-2.37,3.36-.92,7.54-1.5,11.13-1.92,12.24-1.42,25.62.57,38.37-.39,1.59-.12,1.1-.73,1.42-.79.76-.14,1.59.5,2.21.42.25-.03.19-.69.52-.78,4.22-1.19,7.92-1.43,11.84-3.9,4.2-2.65-2.21-4.69-3.89-6.54-3.06-1.45-6.79-3.1-9.67-4.95-3.08-1.98-4.42-4.87-5.14-8.44l-.38-.2c-2.52-8.79-3.6-18.5-6.59-27.11-.29-1.42-.66-3.44-1.18-4.75-.19-.47-.74-.25-.76-.28-2.06-3.33-4.22-3.83-6.2-6.38-3.54-4.56-4.92-21.22-7.09-27.79-.27-.81-1.14-3.76-2.23-3.23-4.76,5.38-4.54,13.37-6.6,19.75-.88,2.74-2.18,4.05-5.02,2.15-.6-5.14-9.39-15.21-11.6-21.14-3.65-9.77-5.71-22.91-11.27-31.92-1.92-7.57-3.74-15.75-8.05-22.36-3.05-4.66-8.85-8.75-12.64-13.32-3.05-3.69-5.11-7.91-9.05-10.79-.69-.5-1.69-.51-2.3-.92-4.93-3.32-12.5-22.5-16.86-28.65-.48-.68-1.94-2.6-2.55-2.98s-3.87-1.51-4.35-1.55h-3.6s-1.34,1.84-1.34,1.84l-7.46,21.01Z"/>
  <path class="cls-2" d="M412.13,98.98c2.13,1.23,3.06,4.56,4.24,6.4,2.83,4.4,4.93,6.11,8.05,9.77,6.01,7.06,6.21,16.02,10.5,23.59,3.37,5.94,7.9,9.93,9.87,16.86,1.65,5.79,1.84,12.35,4.78,17.68,1.67,3.03,4.17,5.09,5.21,8.74.69,2.42,2.39,12.3,2.39,14.65s-1,4.74-3.42,5.4c-3.75,1.03-5.64.6-9.53.93-5.24.45-2.95,2.9-5.27,5.58-1.5,1.73-3.29,1.8-5.07,2.6-2.37,1.07-6.03,3.05-8.36,3.81-4.57,1.49-10,1.79-15.02,1.6-7.33-.29-13.83-2.09-20.63-3.86-2.51-.65-5.57-.72-7.72-2.48-2.61-2.13-1.27-4.57-.51-7.23-.25-.22-3.89.2-4.77-.01-.35-.08,0-.89-1.24-.8-.73,0-.36.74-1.13.84-2.51.31-10.75.32-13.23,0-.42-.06-2.23-.6-3.46-.81-3.03-.51-9.65-1.87-11.42-4.55-1.95-2.97-1.16-5.05.51-7.89,1.89-3.22,5.02-6.01,7.9-8.07,4.48-3.21,5.96-2.3,8.13-8.45,2.09-5.91,2.97-16.4,8.09-20.17,1.3-.96,3.93-1.43,4.73-3.02,2.12-4.22,1.23-8.28,5.13-12.6,2.21-2.44,5.71-2.64,7.92-5.35l16.3-31.75c1.69-2.07,4.58-2.83,7.02-1.42ZM408.77,106.2c-.48.37-2.52,4.08-2.99,4.95-4.42,8.19-7.89,17.15-13.04,24.92-3.11,4.69-3.5,3.19-7.33,5.76-1.44.97-1.97,2.36-2.6,3.87-1.49,3.53-1.25,7.29-3.88,10.07-1.57,1.66-4.4,2.31-5.79,3.7-2.44,2.43-3.76,13.17-5.06,16.83-1.86,2.8-1.79,6.36-5.56,8.77-4.42,2.81-6.75,2.21-9.98,7.28-.4.62-1.43.4-1.13,1.58.13.39,1.5.55,1.94.58.74-.04,1.74,1.11,1.84,1.14.44.13.91-.05,1.26.02v.77c2.34-.66,2.18.78,2.33.78h24.61c.65,0,2.7.67,3.5.77.36.04.6.02.57-.38.12.21.76.4.99,1.13.98,3.1-1.39,4.07-2.15,6.61,1.27-.52,1.57.67,1.84.75,1.76.53,4.39.41,6.03.81,7.73,1.89,16,3.44,24.87,2.69,2.46-.21,2.73-.83,4.08-1.54.31-.16,2.81-.18,3.58-.42,1-.32,3.41-1.76,4.48-2.26.88-.41,4.07-1.39,4.55-2.35.64-1.28.22-3.46,1.95-5.02,1.03-.93,2.05-.5,3-.8.45-.15.23-.77.27-.77h10.85c-.62-4.62-.81-12.18-3.54-16.02-6.47-9.12-5.48-12.63-8.47-22.71-2.05-6.91-7.37-11.19-10.41-17.68-4.21-8.99-5.01-19.5-14.01-25.48-1.23-1.76-3.23-6.86-4.63-8.07-.61-.52-1.34-.77-1.96-.28Z"/>
  <path class="cls-2" d="M477.62,169.86c6.61,3.58,7.13,17.48,11.06,23.99,2.02,3.35,5.99,5.43,3.82,9.76-1.03,2.05-1.82,2.32-3.57,3.32-2.97,1.71-4.26,2.01-7.88,2.67-2.89.53-9.76,1.48-12.71.77-.28-.07-.23-.66-.54-.75-1.97-.54-3.78.15-5.27-2-2.76-3.98,1.22-9.91,2.43-14.11,1.87-6.52,2.14-14.75,5.17-20.78,1.56-3.1,4.01-4.76,7.5-2.87ZM471.55,189.08c-1.11,4.82-2.45,9.69-4.62,14.15,0,.14.88.56.93.56h10.85c1.82,0,3.75-.99,5.15-1.51.91-.33,2.2-.6,3.18-.82-.72-3.31-3.42-5.59-4.73-8.63-1.16-2.7-1.74-5.95-2.64-8.79-.95-3-1.23-7.22-5.36-6.9-2.13,3.59-1.88,8.02-2.78,11.94Z"/>
  <path class="cls-15" d="M46.31,261.63c1.91.88,4.49,1.62,6.77,2.63,3.8,1.69,5.42,2.94,10.22,2.31.7-.09.48-.68.83-.79,3.52-1.06,6.08.87,4.47,4.53-.09.2-1.76,1.93-1.93,2.03-1.95,1.1-3.43.52-5.32.8-.75.11-1.27.98-2.29.77-.26-.05-.19-.69-.52-.78-.52-.13-1.22.09-1.76-.1-3.95-1.41-7.26-4.43-11.71-4.57-1.28-.04-2.56-.03-3.78.44-.4.15-2.17,1.69-2.52,1.9-3.09,1.8-4.81,2.8-8.33,3.92-.35.11-.19.68-.86.77s-2.86.1-3.44-.04c-.28-.07-.22-.66-.55-.75-.92-.25-2.3.01-3.33-.49-.53-.26-.57-.88-.96-1.06-5.71-2.73-10.51-3.64-16.52-.34-.42.23-.48.86-.92,1.1-3.28,1.8-5.19-2.16-2.78-5.22.71-.9,6.1-4.45,7.18-4.81,2.29-.78,6.11-.41,8.39.4.52.19,3.22,2.09,3.71,2.26,1.38.48,7.51,1.99,8.79,1.98.71,0,3.71-1.39,4.38-1.82,4.25-2.76,3.32-3.13,8.72-4.42.32-.08.29-.67.56-.74.59-.14,2.99-.12,3.5.11Z"/>
  <path class="cls-15" d="M442.77,354.58c.4.17,2.57,1.89,3.12,2.18,3.72,1.98,8.12,3.77,12.6,2.72.34-.08,2.91-1.14,4.01-1.47.6-.18.4-.78,1.09-.86,4.84-.59,5.4,1.51,2.88,5.2-1.84,2.69-4.95,3.04-7.8,3.76-.32.08-.28.67-.56.74-.6.14-4.28.14-4.88,0-.27-.06-.27-.65-.57-.73-4.19-1.16-5.16-2.86-8.52-4.27-2.63-1.1-6.49-1.12-9.09,0-1.25.54-3.95,3.04-4.87,3.43-.35.15-1.86.46-2.16.38-1.53-1.42-2.5-3.43-1.19-5.35.08-.11,1.74-1.85,1.9-1.98,1.25-1.06,4.23-2.41,5.73-3.09.23-.1.23-.7.54-.76,1.43-.31,6.47-.45,7.76.11Z"/>
  <path class="cls-15" d="M496.26,229.09c.11.05,1.54,1.59,1.58,1.7,1.15,3.6-4.67,7.11-6.95,9.17-2.89.9-10.08,1.02-12.84-.16-.23-.1-1.85-1.74-2.16-1.88-1.18-.56-2.23-.52-3.28-.83-.4-.12.02-.68-1.23-.78-1.99-.16-1.5.5-2.09.76-1.46.63-2.69,1.31-4.03,2.01-.4.21-.27,1.12-1.59.76-2.26-2.32-1.42-4.41.64-6.47,1.22-1.22,2.63-1.55,4.22-2.1.31-.1.3-.66.57-.73.62-.14,4.26-.14,4.88,0,.21.05,3.04,1.79,3.53,1.98,1.41.53,2.67.43,3.83.74.32.08.26.68.54.75.68.16,4.19.15,4.99.04.72-.09.5-.73.82-.8.57-.13,1.29.12,1.84-.03,2.23-.59,4.43-5.11,6.71-4.13Z"/>
  <path class="cls-5" d="M153.76,30.29s.52.19.78-.27c3.08-5.4,3.82-13.83,7.33-19.4.56-.89.35-3.24,1.58-.47-.33,7.31-.87,27.15,2.39,33.05.75,1.36,2.36,2.77,3.18,4.18,2.14,3.71,6.05,19.56,5.63,23.73-1.13,11.32-7.18,24.06-.59,35.14,2.6,4.38,8.99,8.5,9.55,13.69,1.95,18.17-14.04,29.27-20.83,44.25-.29.65-.53,1.31-.48,2.03,1.02.33.63-.57,1.05-.76,5.88-2.56,10.22-6.83,15.25-10.63,1.57-1.19,3.28-1.89,4.63-3.33,1.04.44,1.14-.68,1.43-.76,2-.55,1.57.7,1.67.76,1.64,12.91,7.91,25.43,9.63,38.21,1.17,8.72-1.01,16.27-.34,24.35.62,7.41,8.89,13.17,12.35,19.42.46.84.96,1.61.87,2.63-.91.07-1.17.81-1.73,1.04-1.24.51-2.55,1-3.63,1.46-6.99,2.98-12.18,5.34-19.85,1.58h-.39c-2.09-1.35-4.13-2.5-6.59-3.1-.83-.71-2.16-1.64-3.42-2.28-1.49-.76-9.06-3.43-9.02-4.87,5.8-17.53,14.48-34.73,14.37-53.65-4,2.93-7.17,7.38-10,11.49-6.12,8.88-8.93,17.46-14.01,26.28-1.65,2.87-3.93,4.67-6.03,7.14-.68.02-1,.31-.96-.57.07-1.47.97-4.78,1.36-6.4,2.76-11.45,8.52-22.3,9.5-34.08-1-.24-.68.32-1.01.72-6.91,8.49-13.35,16.69-20.94,24.58-.5.52-2.67,4.19-3.62,3.35,2.68-12.34,6.15-24.51,9.12-36.78,2.72-11.25,4.05-20.78,8.32-31.77.04-.11-.04-.28,0-.39,1-.69,1.28-2.67,1.55-3.87.07-.13.3-.24.39-.39.5-.85,1.21-1.62,1.16-2.71,1.91-3.18,3.94-6.26,5.43-9.68,1.32-3.04,2.42-6.36,2.33-9.68.1-.12.37-.27.39-.39.58-3.14.54-7.29.39-10.46.08-.94.33-1.92.39-3.1.04-.81-.04-1.75,0-2.71.02-.39-.02-.78,0-1.16.06-1.12.37-2.15.41-3.28.01-.43.24-1.47-.4-1.37l-3.49,8.52c-1.17,2.47-2.16,4.72-3.1,7.36-.7.36-.96,1.24-1.16,1.94-.03.12.04.27,0,.39-2.54,3.76-3.46,8.25-5.04,12.39-.15.39-.25.78-.39,1.16-.04.11.04.27,0,.39-.43,1.15-1.02,2.37-1.55,3.49-.05.1-.65.31-.68.66l-2.42,5.15c-.11.14-.27.25-.39.39-1.07,1.24-2.52,3.14-4.26,2.71l1.94-18.98c3.85-17,8.06-33.95,10.07-51.32-.46-3.01.81-6.41.39-9.3-.18-1.27-1.71-.14-2.19.33-4.13,4.08-10.44,26.86-10.93,33.03-.43,5.39.18,11.18-.03,16.62-.34,8.41-1.49,17.11-3.12,25.35-1.23,6.2-2.81,11.37-5.62,17.04-.9,1.42-2.18.4-3.47.37-2.81-.05-5.96-.59-7.76,1.95-6.88,9.72-9.72,23.56-16.92,33.07-.79,1.04-2.47,1.85-3.05,2.94-.69-.2-.75-1.92-.78-2.5-.72-11.69,3.62-34.2,6.6-45.91.03-.11.35-.26.39-.39,1.62.54,4.29.43,5.91-.02.32-.09,2.39-2.68,2.71-3.18,2.79-4.36,6.5-12.7,8.71-17.63,11.35-25.43,18.6-56.04,24.34-83.35.32-1.54.73-3.06.58-4.65.8.97,1.61,3.27,2.92,3.49,2.1.36,2.3-.98,3.28-2.33ZM178.76,175.53v.39c.25-.13.25-.26,0-.39Z"/>
  <path class="cls-13" d="M135.94,131.37c.68.38.39,1.41.29,2.03-.73,4.53-2.88,8.63-4.51,12.62-.41,1.01-.9,2.07-.82,3.17h1.56s0,1.16,0,1.16c-1.85.48-2.97.14-4.73-.42-.33-.1-.31-.66-.58-.72-.73-.17-1.66.07-2.44-.01-.06,2.29,2.68,1.54,2.74,3.68.05,1.68-2.23.27-2.74.19-.11-.3.27-.87-.23-1.2-.38-.25-2.96-.97-3.24-.72l-.79,5.41c-1.27.41-.53-1.77-1.74-1.55-.68.13-.64,1.75-.59,2.32-1.11.44-.52-1.36-1.54-.76-.41.24-2.25,3.73-2.27,4.43-.03,1.16.39,4.67.71,5.82.13.5-.03,1,.59,1.35,2.4-1.64,1.76-3.28.19-5.22l2.35-1.18c.45-1.49-1.23-1.27-.79-2.31.46-1.11,1.74-.23,2.47-.31,2.54-.27,1.72-2.61,2.23-2.94l1.89-.05-.06-1.51-1.12-.23v-1.36c.63.05,1.36-.09,1.95,0,.5,1.36,1.64,1.15,1.16,3.1,1.14.37,2.35-.93,3.25-.8.16.02.46,1.43,2.71.82l.62-1.96c-4.15,1.25-2.73-1.83-.27-3.04.89.8,1.83.82,2.99.72.38,1.1-1.34.89-1.53,1.78-.23,1.09,1.9,1.26,1.94,1.53l-.8,2.5c3.16.83,2.12-1.84,4.26-2.32l.36,1.32c-2.06,1.03-.58,1.38-.43,2.84.2,1.95-1.68,1.99-2.08,2.81-.24.48.28,1.2.07,1.95-.24.82-1.27,1.24-1.43,2.13,0,.99,2.08,1.37,2.27,2.37.15.8-.88,1.84-1.06,2.68-.54,2.52-.03,6.18-.06,8.84-.02,1.59-1.11,3.1,1.58,3.72,4.08-13.83,5.69-28.29,10.6-41.89.2-.56.55-2.11,1.42-1.87-4.27,10.99-5.6,20.52-8.32,31.77-2.97,12.27-6.44,24.43-9.12,36.78.95.84,3.13-2.83,3.62-3.35,7.6-7.89,14.03-16.09,20.94-24.58.33-.41,0-.97,1.01-.72-.98,11.77-6.74,22.63-9.5,34.08-.39,1.62-1.29,4.92-1.36,6.4-.04.88.28.59.96.57,2.1-2.47,4.37-4.27,6.03-7.14,5.08-8.82,7.89-17.4,14.01-26.28,2.84-4.12,6-8.56,10-11.49.1,18.92-8.58,36.12-14.37,53.65-.03,1.44,7.53,4.11,9.02,4.87,1.26.64,2.59,1.57,3.42,2.28,1.8,1.55,4.34,2.51,6.59,3.1h.39c.92,1.69,2.65,1.02,3.86,1.78.29.18.29.84.69.94.47.12,1.27-.18,1.61.04.2.13.26,1.4.65,1.89.48.6,2.21.51-.02,1.54l-.97,3.11c.77.09,1.72-.16,2.44.01.29.07.24.69.53.76,1.54.37,14.27.3,16.23.04.72-.09.51-.72.82-.8,2.45-.57,6.84-.14,9.54-.79,2.55-.62,5.63-1.88,8.41-2.31.23,1.26-.64.62-1.34.77-1.6.35-3.51,1.3-4.38,1.52-13.69,3.39-31.41,3.28-44.55-.73-1.52-.46-4.26-.41-6.02-.82-2.81-.66-5.93-2.4-9.21-2.68,1-.89.1-.75-.58-.77-4.69-.17-10.93-.36-15.53,0-1.19.09-1-.19-.95,1.16-9.8.23-21.47,1.36-30.51-1.14-1.04-.29-4.79-.38-5.46-.86-1.03-2.12,1.33-2.26,2.35-3.04,1.99-1.51,3.14-2.24,5.25-3.44,1.77-1.01,3.88-1.72,5.25-3.57s3.46-8.44,2.19-10.41c-.04-.06-1.07.17-.78-.77.46.13.89-.21.78.77.22.17,1.13-.93,1.31-1.21,5.64-8.55,5.54-13.88,6.06-23.77.38-7.15.85-14.9.38-22.08-.17-2.59-.71-5.09-1.58-7.52-1.6-.4-2.8.62-3.83,1.7-6.95,7.34-8.95,15.53-13.96,23.63-8.63,13.95-20.34,19.87-32.8,28.61-1.17.82-1.86,3.05-3.63,2.57-.38,1.01,1.88,1.1,2.53,1.16,3.52.3,8.02.42,11.43.39l-15.11-.39c1.34-3.05,5.87-6.19,4.94-9.77-.45-1.72-1.63-1.62-2.73-2.23-.61-.34.04-.31-1.43-.77.64-.52,1.45-.24,2.13-.78,1.11-.89,5.23-8.37,6.16-10.11,1.28-2.41,8.6-17.49,7.21-18.93-1.41-.35-1.64.75-2.23,1.16-6.72,4.64-13.27,10.01-20.55,13.14-9.22,3.97-19.08,4.56-28.85,1.55-.3-.09-.3-.66-.57-.73-2.28-.54-2.36.65-2.72.75-.33.1-.73-.05-.89,0-.22-1.03.52-.75,1.15-.96,1.42-.48,4.25-1.53,5.52-2.17,7.39-3.69,17.59-16.44,21.62-23.59,3.44-6.11,11.02-11.52,16.37-16.26.93-.82,1.66-2.1,2.82-2.71.35,3.75-.58,7.66-.98,11.42l.77.2c2.08-4.82,5.92-8.76,7.77-13.74,1.15-3.09,1.4-6.62,2.34-9.59.1-.32.75-.3.75-.52.02-1.03-.4-.82,0-2.49.21-.9.51-1.71.59-2.72,1.91-.2,2.15.89,3.08,1.2,1.4.47,3.34.73,4.75,1.11.85.23,2.25.07,3.21.41-2.98,11.71-7.32,34.22-6.6,45.91.04.58.09,2.3.78,2.5.58-1.1,2.26-1.91,3.05-2.94,7.2-9.51,10.05-23.35,16.92-33.07,1.8-2.54,4.95-2,7.76-1.95,1.29.02,2.57,1.04,3.47-.37,2.81-5.67,4.4-10.84,5.62-17.04ZM164.03,230.91v.39c.25-.13.25-.26,0-.39ZM189.03,245.63h-.57c-.61.41-.68.83-.59,1.55h1.16s0-1.55,0-1.55ZM183.99,247.95h-2.32v.77h2.32v-.77ZM188.25,248.73h-1.16v.77h1.16v-.77Z"/>
  <path class="cls-11" d="M183.22,151.51c.05-.06-.16-.55.23-.81.76-.5,3.1-.53,4.13-.77.32-.07.29-.67.56-.74.66-.16,3.83-.14,4.6-.04.71.09.49.7.83.79,1.67.43,4.35,1.32,5.42,1.56,1.37.31,5.88.39,7.2-.01,2.06-.62,4.1-.94,6.22-1.53.44-.12.22-.77.26-.77h6.98l.4.19c-1.08-2.67-3.57-5.37-5.45-7.75-6.81-8.66-18.11-22.85-21.2-33.41-1.7-5.79-7.31-27.25-6.71-32.06.39-3.12,2.84-.67,3.82.86,5.17,8.03,8.85,20.68,13.74,29.64,1.24,2.27,5.36,9.68,7.91,9.93,1.08.01.95-1.28.92-2.08-.25-8.48-2.26-17.21-2.73-25.56-.15-2.69-.63-5.85,3.04-4.99.82.19.83.78,1.14.89,1.18.46,2.72,1.27,3.49,1.55.97.36,2.26.39,3.31.42.28.08.42.81.65,1.17,5.56,9.02,7.62,22.16,11.27,31.92,2.21,5.93,11,15.99,11.6,21.14.64,5.51,1.27,12.66,1.55,18.2.21,4.05.61,11.02-1.76,14.32-.92,1.28-3.35,3.39-4.43,4.84-3.3,4.43-4.72,7.04-2.74,12.81,2.92,8.52,7.23,11.93,7.77,22.25.01.26,0,.52,0,.77-3.59.42-7.76,1-11.13,1.92-2.9.79-5.87,1.06-8.72,2.37-.41.19-3.11,2.23-3.4,2.68-.49.77-.82,1.37-.78,2.32-.56.12-.63-.05-.95-.4-3.44-3.81-6.44-13.24-6.82-18.36s1.48-10.64,1.14-15.46c-.46-6.47-10.23-22.6-14.13-28.49-2.26-3.42-4.24-5.59-7.83-7.35-1.12-.55-5.99-1.8-6.28-1.97-.1-.06.33-1.31-1.67-.76-.29.08-.39,1.21-1.43.76Z"/>
  <path class="cls-6" d="M166.16,7.44c.49.04,3.76,1.19,4.35,1.55s2.07,2.3,2.55,2.98c4.37,6.15,11.94,25.33,16.86,28.65.6.41,1.61.42,2.3.92,3.94,2.88,6,7.1,9.05,10.79,3.78,4.57,9.59,8.66,12.64,13.32,4.32,6.61,6.13,14.79,8.05,22.36-.22-.36-.37-1.09-.65-1.17-1.04-.02-2.33-.06-3.31-.42-.77-.28-2.31-1.09-3.49-1.55-.3-.12-.31-.7-1.14-.89-3.67-.86-3.19,2.3-3.04,4.99.48,8.35,2.48,17.08,2.73,25.56.02.8.15,2.09-.92,2.08-2.55-.25-6.67-7.67-7.91-9.93-4.89-8.96-8.57-21.61-13.74-29.64-.99-1.53-3.43-3.98-3.82-.86-.6,4.82,5.01,26.28,6.71,32.06,3.09,10.55,14.39,24.75,21.2,33.41,1.88,2.38,4.37,5.08,5.45,7.75l-.4-.19h-6.98s.18.65-.26.77c-2.12.59-4.16.91-6.22,1.53-1.33.4-5.84.32-7.2.01-1.06-.24-3.74-1.12-5.42-1.56-.34-.09-.12-.7-.83-.79-.77-.1-3.94-.12-4.6.04-.28.07-.25.66-.56.74-1.03.24-3.36.27-4.13.77-.39.25-.18.75-.23.81-1.35,1.43-3.06,2.14-4.63,3.33-5.02,3.8-9.37,8.07-15.25,10.63-.43.19-.03,1.09-1.05.76-.05-.73.19-1.39.48-2.03,6.79-14.98,22.78-26.08,20.83-44.25-.56-5.19-6.95-9.31-9.55-13.69-6.59-11.08-.54-23.82.59-35.14.42-4.17-3.49-20.02-5.63-23.73-.82-1.41-2.43-2.82-3.18-4.18-3.26-5.9-2.72-25.74-2.39-33.05.03-.64-.03-1.3,0-1.94h2.72s0-.77,0-.77Z"/>
  <path class="cls-6" d="M97.96,87.22c7.57-10.48,12.56-22.64,19.1-33.78.81-1.38,3.17-5.56,4.46-6.08,1.72-.7,4.28-.14,5.97-.84.12-.05,2.02-1.55,2.11-1.65,3.5-3.66,6.1-9.7,9.43-13.51,2.02-2.32,6.04-5.25,8.53-2.24.15,1.59-.26,3.12-.58,4.65-5.74,27.31-12.99,57.92-24.34,83.35-2.2,4.94-5.92,13.28-8.71,17.63-.32.5-2.38,3.09-2.71,3.18-1.62.45-4.29.56-5.91.02,3.37-12.79,9.41-24.7,12.98-37.57,2.01-7.22,3.32-14.61,4.07-22.07l-1.4,2.29c-9.18,8.67-16.16,19.42-23.79,29.46l-.77-2.32c.11-1.83.73-1.61.73-1.72-.08-1.9-.64-4.16-.36-6.24l1.18-12.57Z"/>
  <path class="cls-3" d="M186.32,151.51c.29.17,5.16,1.42,6.28,1.97,3.6,1.77,5.57,3.94,7.83,7.35,3.9,5.89,13.67,22.02,14.13,28.49.34,4.81-1.52,10.25-1.14,15.46s3.37,14.55,6.82,18.36c.32.35.39.52.95.4-.04-.96.29-1.55.78-2.32l-.17,3.85,11.41,18.82c.17,1-2.2,1.12-2.8,1.38-1.27.55-.9.79-3.02,1.12-2.78.44-5.86,1.7-8.41,2.31-2.71.65-7.09.23-9.54.79-.31.07-.1.7-.82.8-1.96.26-14.69.33-16.23-.04-.29-.07-.24-.69-.53-.76-.73-.17-1.67.08-2.44-.01l.97-3.11c2.23-1.03.5-.94.02-1.54-.39-.49-.45-1.76-.65-1.89-.34-.21-1.14.08-1.61-.04-.39-.1-.39-.76-.69-.94-1.21-.76-2.94-.09-3.86-1.78,7.67,3.76,12.87,1.4,19.85-1.58,1.09-.46,2.4-.95,3.63-1.46.55-.23.81-.97,1.73-1.04.09-1.02-.4-1.79-.87-2.63-3.46-6.25-11.73-12.01-12.35-19.42-.67-8.09,1.52-15.63.34-24.35-1.72-12.78-7.99-25.3-9.63-38.21Z"/>
  <path class="cls-14" d="M271.96,156.55c.53,1.7,1.35,3.36,1.94,5.03,2.99,8.61,4.07,18.32,6.59,27.11l-.38.39-1.57-6.2-1.89.44c-.69.78,2.53,17.35,2.59,19.8-.18.53-.31,1.28-.68,1.68-.97,1.06-5.4,2.28-6.71,2.04-.49-.09-2.37-1.47-2.8-1.88-5.69-5.55-7.64-14.02-12.23-19.45-.5-.59-2.27-2.37-3.05-1.82-.39,1.4-1.35,2.59-1.55,4.07-.82,5.99.8,13.83-.01,19.74-.18,1.27-.91,1.34-1.11,1.99-.31,1.05,0,2.79-.46,3.99h-5.43c-.54-10.32-4.85-13.73-7.77-22.25-1.97-5.77-.55-8.38,2.74-12.81,1.08-1.45,3.52-3.57,4.43-4.84,2.37-3.3,1.96-10.28,1.76-14.32,1.07-.22,1.12.35,1.64.87,1.87,1.87,3.2,4.34,4.96,6.29.5.56,3.71,3.83,3.95,3.97.38.21,2.28.19,2.84.12s5.13-3.66,5.74-4.34c2.56-2.82,3.73-5.96,5.63-9.08.21-.34-.21-.77.81-.56Z"/>
  <path class="cls-7" d="M89.82,225.88c-3.41.03-7.9-.09-11.43-.39-.65-.05-2.9-.14-2.53-1.16,1.78.48,2.46-1.74,3.63-2.57,12.46-8.74,24.17-14.66,32.8-28.61,5.01-8.11,7.01-16.3,13.96-23.63,1.03-1.08,2.22-2.1,3.83-1.7.87,2.43,1.41,4.93,1.58,7.52.47,7.18,0,14.93-.38,22.08-.52,9.89-.42,15.22-6.06,23.77-.18.27-1.1,1.37-1.31,1.21.12-.98-.32-.64-.78-.77-1.94-.57-5.13-.3-7.2-.03-1.2.15-5.43,1.69-6.63,1.96-4.85,1.1-14.49,2.29-19.5,2.33Z"/>
  <path class="cls-5" d="M97.96,87.22l-1.18,12.57c-.28,2.08.27,4.33.36,6.24,0,.11-.62-.11-.73,1.72-.09,1.46.13,3,0,4.45-.78,8.74-2.94,17.35-3.1,26.15-.4,1.67.03,1.45,0,2.49,0,.22-.65.2-.75.52-.94,2.98-1.19,6.5-2.34,9.59-1.85,4.98-5.69,8.92-7.77,13.74l-.77-.2c.4-3.76,1.32-7.67.98-11.42-1.16.61-1.89,1.89-2.82,2.71-5.34,4.74-12.92,10.15-16.37,16.26,1.55-6.29,2.75-12.69,4.26-18.98,1.01.22.79-.5.96-1.15,1.68-6.48,1.27-10.08,6.08-15.11.21-.22,1.09-1,.32-1.17,4.89-5.19,5.86-6.03,8.14-13.17l.44.25c1.01-4.49,2.47-8.86,3.8-13.25.28-.91,1.03-2.82.41-3.65,1.31-4.12,4.12-14.59,7.27-17.04l2.81-1.55Z"/>
  <path class="cls-4" d="M250.65,213.48c.46-1.2.15-2.94.46-3.99.2-.65.93-.72,1.11-1.99.82-5.91-.81-13.75.01-19.74.2-1.48,1.16-2.67,1.55-4.07.78-.56,2.55,1.22,3.05,1.82,4.59,5.44,6.54,13.91,12.23,19.45.42.41,2.3,1.79,2.8,1.88,1.32.24,5.74-.99,6.71-2.04.37-.4.5-1.15.68-1.68-.07-2.44-3.28-19.02-2.59-19.8l1.89-.44,1.57,6.2.38-.39.38.2c.72,3.56,2.06,6.46,5.14,8.44,2.88,1.85,6.61,3.51,9.67,4.95,1.68,1.85,8.1,3.89,3.89,6.54-3.92,2.47-7.61,2.71-11.84,3.9-.33.09-.27.75-.52.78-.62.08-1.45-.56-2.21-.42-.32.06.17.67-1.42.79-2.31-1.05-5.18-.05-7.54.02-8.3.26-16.99-.41-25.4-.41ZM283.79,212.71v.39c.25-.13.25-.26,0-.39Z"/>
  <path class="cls-6" d="M244.84,141.06c2.84,1.9,4.13.59,5.02-2.15,2.06-6.39,1.84-14.37,6.6-19.75,1.09-.53,1.96,2.41,2.23,3.23,2.17,6.57,3.54,23.23,7.09,27.79,1.98,2.55,4.14,3.05,6.2,6.38.02.03.58-.19.76.28.52,1.31.89,3.33,1.18,4.75-.58-1.68-1.4-3.33-1.94-5.03-1.02-.21-.6.21-.81.56-1.9,3.12-3.08,6.26-5.63,9.08-.61.68-5.18,4.27-5.74,4.34s-2.46.09-2.84-.12c-.24-.14-3.45-3.41-3.95-3.97-1.76-1.95-3.09-4.42-4.96-6.29-.52-.52-.58-1.09-1.64-.87-.28-5.54-.91-12.7-1.55-18.2Z"/>
  <path class="cls-7" d="M35.17,198.77c.16-.06.55.09.89,0,.36-.1.44-1.29,2.72-.75.27.07.27.63.57.73,9.78,3.01,19.63,2.42,28.85-1.55,7.28-3.13,13.83-8.5,20.55-13.14.58-.4.82-1.51,2.23-1.16,1.38,1.44-5.93,16.52-7.21,18.93-.93,1.74-5.05,9.22-6.16,10.11-.67.54-1.49.26-2.13.78-7.83-2.45-17.34-3.13-25.76-3.5-5.36-.24-9.42,0-14.43-1.14-2.25-.51-3.41-.44-5.83-1.15-1.44-.42-4.12.19-4.73-1.77,3.25-2.49,6.73-5.02,10.44-6.38Z"/>
  <path class="cls-1" d="M250.65,213.48c8.41,0,17.1.66,25.4.41,2.36-.07,5.23-1.07,7.54-.02-12.75.95-26.13-1.03-38.37.39,0-.26.01-.52,0-.77h5.43Z"/>
  <path class="cls-5" d="M144.85,244.85c-.05-1.35-.24-1.07.95-1.16,4.6-.36,10.84-.17,15.53,0,.67.03,1.57-.12.58.77-4.38-.38-10.23-.11-14.73,0l-.39.39c-.64.02-1.29-.01-1.94,0Z"/>
  <path class="cls-10" d="M166.16,7.44v.77s-2.71,0-2.71,0c-.02.64.03,1.3,0,1.94-1.23-2.77-1.02-.42-1.58.47-3.51,5.57-4.25,14-7.33,19.4-.26.45-.75.23-.78.27l7.46-21.01,1.34-1.84h3.6Z"/>
  <path class="cls-10" d="M75.09,135.64c.77.17-.11.95-.32,1.17-4.81,5.03-4.4,8.63-6.08,15.11-.17.65.05,1.37-.96,1.15,1.89-7.85,1.75-11.46,7.36-17.43Z"/>
  <path class="cls-10" d="M87.88,105.81c.62.84-.14,2.74-.41,3.65-1.33,4.39-2.79,8.75-3.8,13.25l-.44-.25c1.74-5.45,2.91-11.17,4.65-16.65Z"/>
  <path class="cls-13" d="M146.79,244.85l.39-.39s-.11.38-.39.39Z"/>
  <path class="cls-5" d="M408.77,106.2c.58.26.11,1.27.02,1.76-.71,4.25-1.05,9.36-2.07,13.44-1.34,5.39-6.58,11.14-5.68,16.73.4,2.49,5.6,3.53,6.83,6.73,3.02,7.82-8.55,21.64-1.7,28.62,1.87,1.9,8.25,5.93,10.63,7.49,1.11.72,2.37.53,3.2,1.93-.14,1.87.2,3.98,0,5.81-.16,1.49-1.24,5.85-1.86,7.24-.37.82-2.4,3.94-2.97,4.02-2.21.3-2.06-.68-2.44-.77-1.36-.34-3.16-1.01-3.86-1.18-3.57-.85-8.84-.01-12.24-.8-.27-.06-.24-.59-.57-.73-.52-.22-1.14-.08-1.8-.46s-5.41-5.59-5.98-6.4c-3.43-4.85-.86-8.73.22-13.61,1.53-6.92,2.99-13.91,3.6-20.99-1.21-.25-1.17,1.56-1.68,2.19-5.46,6.78-7.89,12.83-12.19,20.16-1.18,2.01-2.49,4.02-4.95,4.01-1.68-.01-3.59-4.37-4.44-5.83-.42-.09-.56.45-.77.77,1.3-3.66,2.63-14.4,5.06-16.83,1.39-1.38,4.22-2.04,5.79-3.7.13.71.99-.03,1.16-.31,1.79-2.93,1.97-6.48,2.72-9.76.64-1.51,1.16-2.9,2.6-3.87,3.83-2.57,4.22-1.07,7.33-5.76,5.16-7.77,8.62-16.72,13.04-24.92.47-.87,2.51-4.58,2.99-4.95Z"/>
  <path class="cls-6" d="M408.77,106.2c.62-.48,1.35-.24,1.96.28,1.4,1.21,3.4,6.3,4.63,8.07,9,5.99,9.81,16.5,14.01,25.48,3.04,6.49,8.36,10.77,10.41,17.68-1.16-.19-1.09.25-1.58.94-.92,1.33-3.82,6.63-5.27,6.73-1.27.08-2.3-2.07-2.98-2.89-5.45-6.51-8.35-13.29-12.94-20.18-.89-1.34-1.97-2.55-3.19-3.58-.16.9-.73,1.4-.7,2.4.07,2.45,1.45,8.09,2.04,10.77,1.1,4.96,2.93,12.61,5.69,16.78,2.2,3.35,6.76,5.26,5.28,10.44-.6,2.09-2.69,1.88-4.26,2.64-.44.21-.77,1.31-1.86,1.13-.83-1.4-2.1-1.21-3.2-1.93-2.38-1.56-8.77-5.59-10.63-7.49-6.85-6.97,4.72-20.8,1.7-28.62-1.23-3.2-6.43-4.24-6.83-6.73-.9-5.59,4.34-11.35,5.68-16.73,1.01-4.07,1.36-9.19,2.07-13.44.08-.49.56-1.5-.02-1.76Z"/>
  <path class="cls-8" d="M420.01,182.89c1.09.19,1.42-.92,1.86-1.13,1.57-.75,3.66-.55,4.26-2.64,1.49-5.18-3.07-7.09-5.28-10.44-2.75-4.17-4.59-11.82-5.69-16.78-.59-2.67-1.97-8.32-2.04-10.77-.03-1,.54-1.5.7-2.4,1.22,1.03,2.3,2.24,3.19,3.58,4.59,6.88,7.49,13.67,12.94,20.18.69.82,1.72,2.98,2.98,2.89,1.45-.1,4.35-5.41,5.27-6.73.48-.69.41-1.14,1.58-.94,2.99,10.08,2,13.59,8.47,22.71,2.73,3.84,2.92,11.4,3.54,16.02h-10.85s.18.62-.27.77c-.95.31-1.97-.12-3,.8-1.73,1.56-1.31,3.75-1.95,5.02-.48.96-3.67,1.94-4.55,2.35-1.07.5-3.48,1.94-4.48,2.26-.76.24-3.27.26-3.58.42l-3.1-19.36c.2-1.83-.14-3.94,0-5.81Z"/>
  <path class="cls-13" d="M368.08,176.3c.21-.32.35-.86.77-.77.85,1.46,2.75,5.82,4.44,5.83,2.46.02,3.77-2,4.95-4.01,4.3-7.32,6.73-13.38,12.19-20.16.51-.63.47-2.45,1.68-2.19-.61,7.08-2.06,14.07-3.6,20.99-1.08,4.89-3.65,8.77-.22,13.61.57.81,5.31,6.01,5.98,6.4s1.28.25,1.8.46c.33.14.31.67.57.73,3.41.79,8.68-.05,12.24.8.69.17,2.5.84,3.86,1.18.38.09.22,1.07,2.44.77.57-.08,2.6-3.2,2.97-4.02.63-1.38,1.7-5.75,1.86-7.24l3.1,19.36c-1.35.71-1.62,1.34-4.08,1.54-8.87.74-17.14-.8-24.87-2.69-1.64-.4-4.26-.29-6.03-.81-.28-.08-.58-1.27-1.84-.75.76-2.54,3.13-3.51,2.15-6.61-.23-.73-.87-.92-.99-1.13-.1-.18.08-.84,0-1.16h-1.16s0,.77,0,.77c-.16-.07-1.02-.35-1.16-.39l.77-.77c-.72.33-1.79-.39-2.13-.39h-25.38s.18-.65-.26-.77c-1.42-.4-3.52-.29-4.77-.39-.44-.04-1.82-.19-1.94-.58-.31-1.17.73-.95,1.13-1.58,3.23-5.07,5.55-4.46,9.98-7.28,3.77-2.4,3.7-5.96,5.56-8.77Z"/>
  <path class="cls-9" d="M385.13,196.83c.15.04,1,.32,1.16.39.38.15.69.48,1.16.39.03.4-.21.42-.57.38-.8-.1-2.85-.77-3.5-.77h-24.61c-.14,0,.02-1.44-2.33-.78v-.77c9.58,1.82,19.46-1.05,28.68,1.16Z"/>
  <path class="cls-12" d="M353.35,194.5c1.25.1,3.36,0,4.77.39.44.12.22.77.26.77h25.38c.34,0,1.41.72,2.13.39l-.77.77c-9.23-2.21-19.1.66-28.68-1.16-.35-.07-.82.11-1.26-.02-.11-.03-1.1-1.18-1.84-1.14Z"/>
  <path class="cls-10" d="M382.8,145.71c-.75,3.28-.93,6.83-2.72,9.76-.17.27-1.02,1.02-1.16.31,2.62-2.78,2.38-6.54,3.88-10.07Z"/>
  <path class="cls-3" d="M479.69,184.05c.9,2.84,1.48,6.09,2.64,8.79,1.31,3.05,4,5.33,4.73,8.63-.97.22-2.27.49-3.18.82-1.41.52-3.34,1.51-5.15,1.51h-10.85c-.05,0-.94-.43-.93-.56,2.17-4.46,3.5-9.33,4.62-14.15,1.04-.91.87.64,1.43.78,3.99,1.02,3.64-4.6,6.71-5.82Z"/>
  <path class="cls-12" d="M479.69,184.05c-3.07,1.22-2.72,6.83-6.71,5.82-.57-.14-.39-1.69-1.43-.78.9-3.91.65-8.35,2.78-11.94,4.13-.32,4.41,3.9,5.36,6.9Z"/>
  <path class="cls-1" d="M124.7,153.06c-.59-.09-1.32.06-1.94,0v1.36s1.11.23,1.11.23l.06,1.51-1.89.05c-.52.33.31,2.66-2.23,2.94-.72.08-2-.8-2.47.31-.44,1.04,1.24.82.79,2.31l-2.35,1.18c1.58,1.94,2.22,3.58-.19,5.22-.63-.35-.46-.85-.59-1.35-.31-1.15-.73-4.67-.71-5.82.02-.7,1.86-4.2,2.27-4.43,1.02-.59.43,1.2,1.54.76-.05-.57-.1-2.19.59-2.32,1.21-.23.46,1.95,1.74,1.55l.79-5.41c.28-.24,2.86.47,3.24.72.5.33.12.9.23,1.2Z"/>
  <path class="cls-1" d="M135.94,131.37c1.63-8.24,2.78-16.94,3.12-25.35.22-5.44-.4-11.23.03-16.62.49-6.17,6.8-28.95,10.93-33.03.48-.47,2.01-1.6,2.19-.33.41,2.89-.85,6.29-.39,9.3-2.01,17.38-6.22,34.32-10.07,51.32-.23,1-.8,2.22-1.05,3.41-.41,1.94-1.86,16.14-1.27,16.73l3.61-1.53,1.04-2.35c.12-.14.28-.25.39-.39,1.25-1.57,2.87-3.81,3.1-5.81.53-1.11,1.12-2.34,1.55-3.49l.38-.19-.38-.2c.14-.38.24-.77.39-1.16l4.67-10.64c.35-.52.22-1.27.37-1.75.04-.12-.03-.27,0-.39,1.01.3.8-.92,1.16-1.94.94-2.64,1.93-4.89,3.1-7.36.84-1.77,1.97-3.44,2.33-5.42l1.16,1.55c-.02.39.02.78,0,1.16h-.77s0,2.47,0,2.47l.78.24c-.06,1.18-.31,2.16-.39,3.1-.18,2.2-.63,4.8-.79,7.15-.06.94-.24,2.57.4,3.31-.02.11-.28.27-.39.39l-2.33,9.68c-1.49,3.43-3.51,6.51-5.43,9.68-.51.85-1.2,1.63-1.16,2.71-.09.15-.32.26-.39.39-.81,1.48-1.01,2.5-1.55,3.87-.04.11.04.28,0,.39-.87-.23-1.21,1.31-1.42,1.87-4.91,13.6-6.53,28.05-10.6,41.89-2.69-.62-1.6-2.13-1.58-3.72.03-2.66-.48-6.32.06-8.84.18-.84,1.21-1.89,1.06-2.68-.19-1-2.27-1.39-2.27-2.37.15-.89,1.19-1.3,1.43-2.13.21-.74-.31-1.47-.07-1.95.4-.82,2.29-.86,2.08-2.81-.15-1.46-1.63-1.81.43-2.84l-.36-1.32c-2.14.48-1.1,3.15-4.26,2.32l.8-2.5c-.05-.26-2.17-.43-1.94-1.53.19-.88,1.92-.68,1.53-1.78-1.15.1-2.09.08-2.99-.72-2.45,1.21-3.87,4.29.27,3.04l-.62,1.96c-2.25.61-2.55-.8-2.71-.82-.9-.13-2.11,1.17-3.25.8.47-1.95-.67-1.74-1.16-3.1.52.08,2.79,1.49,2.74-.19-.06-2.14-2.81-1.39-2.74-3.68.78.08,1.7-.16,2.44.01.27.06.25.62.58.72,1.76.56,2.88.9,4.73.42v-1.16s-1.55,0-1.55,0c-.08-1.1.41-2.16.82-3.17,1.63-3.99,3.78-8.09,4.51-12.62.1-.61.39-1.65-.29-2.03ZM139.42,146.48c-.5-.5-2.58,1.03-2.32,1.93.89.39,3.1-1.15,2.32-1.93ZM140.88,154.13c.15-.15,1.75-3.69.65-3.78-1.83.23-2.41,1.82-4.43.77l-.4,1.55,1.89.44.05,1.89c.49-.5,1.97-.61,2.23-.87Z"/>
  <path class="cls-8" d="M105.32,137.96c-.03.12-.36.27-.39.39-.96-.34-2.36-.17-3.21-.41-1.41-.39-3.35-.65-4.75-1.11-.93-.31-1.17-1.39-3.08-1.2-.08,1-.37,1.82-.59,2.72.16-8.8,2.31-17.41,3.1-26.15.13-1.46-.09-2.99,0-4.45l.77,2.32c7.63-10.05,14.61-20.79,23.79-29.46l1.4-2.29c-.75,7.46-2.06,14.85-4.07,22.07-3.58,12.87-9.61,24.78-12.98,37.57Z"/>
  <path class="cls-13" d="M141.75,116.66l-1.94,18.98c1.75.43,3.19-1.47,4.26-2.71l-1.04,2.35-3.61,1.53c-.59-.6.87-14.8,1.27-16.73.25-1.18.82-2.41,1.05-3.41Z"/>
  <path class="cls-13" d="M161.51,113.17c-.64-.74-.47-2.37-.4-3.31.16-2.34.61-4.95.79-7.15.15,3.17.19,7.32-.39,10.46Z"/>
  <path class="cls-13" d="M162.29,95.74l-1.16-1.55c-.36,1.98-1.49,3.65-2.33,5.42l3.49-8.52c.64-.1.42.94.4,1.37-.04,1.13-.35,2.16-.41,3.28Z"/>
  <path class="cls-13" d="M158.8,123.24l2.33-9.68c.1,3.33-1.01,6.65-2.33,9.68Z"/>
  <path class="cls-13" d="M162.29,96.91c-.04.96.04,1.9,0,2.71l-.78-.24v-2.47s.78,0,.78,0Z"/>
  <path class="cls-13" d="M154.54,109.3c-.15.48-.02,1.23-.37,1.75l-4.67,10.64c1.57-4.14,2.49-8.64,5.04-12.39Z"/>
  <path class="cls-3" d="M176.63,237.11c2.46.6,4.5,1.75,6.59,3.1-2.25-.58-4.79-1.55-6.59-3.1Z"/>
  <path class="cls-3" d="M147.56,126.73c-.23,2-1.85,4.24-3.1,5.81l2.42-5.15c.03-.35.63-.56.68-.66Z"/>
  <path class="cls-13" d="M150.27,139.9c.54-1.38.74-2.39,1.55-3.87-.27,1.2-.55,3.18-1.55,3.87Z"/>
  <path class="cls-13" d="M155.7,106.98c-.36,1.02-.15,2.24-1.16,1.94.2-.7.46-1.57,1.16-1.94Z"/>
  <path class="cls-13" d="M152.21,135.64c-.03-1.08.65-1.86,1.16-2.71.04,1.09-.66,1.86-1.16,2.71Z"/>
  <path class="cls-13" d="M178.76,175.53c.25.13.25.26,0,.39v-.39Z"/>
  <path class="cls-13" d="M149.11,123.24c.04-.11-.04-.27,0-.39l.38.2-.38.19Z"/>
  <rect class="cls-3" x="181.67" y="247.95" width="2.32" height=".77"/>
  <path class="cls-3" d="M189.03,245.63v1.55s-1.16,0-1.16,0c-.09-.71-.02-1.14.59-1.54h.57Z"/>
  <rect class="cls-3" x="187.09" y="248.73" width="1.16" height=".77"/>
  <path class="cls-5" d="M164.03,230.91c.25.13.25.26,0,.39v-.39Z"/>
  <path class="cls-1" d="M283.79,212.71c.25.13.25.26,0,.39v-.39Z"/>
  <path class="cls-12" d="M386.29,197.22v-.77s1.16,0,1.16,0c.08.32-.1.98,0,1.16-.48.09-.78-.23-1.16-.39Z"/>
  <path class="cls-13" d="M140.88,154.13c-.26.26-1.74.37-2.23.87l-.05-1.89-1.89-.44.4-1.55c2.02,1.05,2.6-.54,4.43-.77,1.09.09-.5,3.63-.65,3.78Z"/>
  <path class="cls-13" d="M139.42,146.48c.78.78-1.44,2.33-2.32,1.93-.26-.9,1.82-2.43,2.32-1.93Z"/>
</svg>