<?xml version="1.0" encoding="UTF-8"?>
<svg id="_레이어_1" data-name="레이어 1" xmlns="http://www.w3.org/2000/svg" viewBox="0 0 478.85 374.39">
  <defs>
    <style>
      .cls-1 {
        fill: #36271a;
      }

      .cls-2 {
        fill: #a9c9db;
      }

      .cls-3 {
        fill: #312f27;
      }

      .cls-4 {
        fill: #e4e5e1;
      }

      .cls-5 {
        fill: #4d4530;
      }

      .cls-6 {
        fill: #605841;
      }

      .cls-7 {
        fill: #c4c5c0;
      }

      .cls-8 {
        fill: #f5c633;
      }

      .cls-9 {
        fill: #27232c;
      }

      .cls-10 {
        fill: #b5d6e3;
      }

      .cls-11 {
        fill: #99c1d9;
      }

      .cls-12 {
        fill: #eb8b2c;
      }

      .cls-13 {
        fill: #453724;
      }

      .cls-14 {
        fill: #62512e;
      }

      .cls-15 {
        fill: #45382a;
      }

      .cls-16 {
        fill: #eaa22f;
      }

      .cls-17 {
        fill: #fff;
      }

      .cls-18 {
        fill: #b5d1e2;
      }

      .cls-19 {
        fill: #15110b;
      }

      .cls-20 {
        fill: #231f18;
      }

      .cls-21 {
        fill: #121b2b;
      }

      .cls-22 {
        fill: #311c0f;
      }

      .cls-23 {
        fill: #422717;
      }

      .cls-24 {
        fill: #fefefe;
      }

      .cls-25 {
        fill: #f7f5ef;
      }

      .cls-26 {
        fill: #422f20;
      }

      .cls-27 {
        fill: #eeac31;
      }

      .cls-28 {
        fill: #b0cee0;
      }

      .cls-29 {
        fill: #b76a2a;
      }
    </style>
  </defs>
  <path class="cls-5" d="M389.06,11.24c1.38-.5,2.07-2.84,2.67-3.42,2.36-2.31,10.79-6.35,14.15-6.74,5.95-.69,14.44,1.66,18.97,5.62,1.93,1.69,5.45,6.2,6.47,8.58,2.46,5.75,2.6,11.7.86,17.67-.12.42-.86.37-1.07.86-.24.57.22,1.64-.14,2.31-.38.7-3.56.75-2.73,2.95-2.19.27-1.61,1.19-2.27,2.27-2.89,1.93-6.17,3.99-9.52,4.99-.59.18-1.42-.45-1.74-.3-.1.05-.06.91-.48,1-.5.11-8.48.05-8.91-.06s-.15-1.02-1.2-1.15-2.31-.07-3.15.63c-.75-.15-.51-.1-1.14,0-3.09.51-1,.6-2.24,2.44-2.47,3.66-10.94,8.13-15.12,8.36-1.23.07-5.39-.03-6.65-.15-1.42-.13-4.08-2.1-6.12-.74-.37.25-3.07,7-4.08,7.56-.6.34-1.78,0-2.71.41-1.69.75-2.16,4.1-4.6,5.09-.9.37-3.36,1.08-4.35,1.68-.84.51-2.3,1.49-2.43,2.6-.47.23-1.42-.33-1.14,1.14l.57,40.9c-.02.37.06.79,0,1.14-.01.06-.83.35-.57,1.13,10.91.52,22.42-.68,33.25-.02,1.59.1,4.81.34,6.21.6.71.14,4.56,3.21,4.69,3.54.51,1.31-.56,2.49,1.31,3.02l-.58,1.95,1.13-.58c.15,1.74-.22,3.66.03,5.37.12.83.93,1.46,1.07,2.33,1.38,8.59,2.18,18.68,4.01,26.19,1.35,5.56,2.65,18.71,3.19,24.82.08.86-1.2,1.74.79,1.5.02.19-.02.38,0,.57,1.22,9.39,2.58,19.03,3.95,28.15.83,5.55,1.11,11.25,2.31,16.72l.56-1.7c.54,1.09.79,1.08,1.93,1.18,14.72,1.21,32.14-1.69,46.57.02,6.2.74,11.48,6.27,11.15,12.7-.11,2.03-1,4.99-1.42,7.13-4.48,22.72-12.65,46.1-26.42,64.75-2.65,3.59-5.59,6.96-8.52,10.22l-5.74,5.34c-1.14.14-2.42.7-1.6,1.99.58.91,13.28,5.43,15.3,6.01,2.16,6.96-1.55,6.47-6.7,5-2.56-.73-9.22-3.85-11.22-5.25-.38-.26-1.74-1.68-1.97-.59-.36-.19-.77-.39-1.14-.57.31-1.53-.75-1.15-1.59-1.51-21.92-9.41-27.74,1.41-46.41,7.76-12.55,4.27-24.98,4.45-37.78,1.13-8.03-2.7-15.5-7.92-22.72-10.22-.35-1.24-1.49-1.03-2.45-1.25-13.32-3.04-18.55,1.31-29.35,6.67-1.44.72-1.72.61-3.46,1.61-1.3.74-3.59.32-3.38,2.05-.16.06-.4-.06-.57,0-12.94,4.05-25.07,4.89-38.15.94-3.9-1.18-7.14-3.64-10.7-4.35-.04-.31.15-.77-.07-1.04-2.13-.51-4.04-1.3-6.03-2.21-2.95-1.34-5.72-2.9-9.34-3.75-3.92-.92-9.33-1.98-12.97.18-.19.02-.38-.03-.57,0l-2.23-.19c-.96,1.41-3.73,1-5.16,2.47-1.3.18-2.48,1.29-3.41,1.7-.32.14-.71.37-1.14.57-4.8,2.18-11.01,5.42-15.91,6.82-6.54,1.86-16.57,3.04-23.29,2.27-17.85-2.05-31.17-18.27-50.12-14.05-1.38.31-3.88,1.19-4.98,2.12-.22.08-.79.4-1.14.57l-2.85.58.58.56c-7.15,3.86-16.01,10.04-24.43,7.95-.37-.65-.72-1.8-1.14-2.27,0-.38,0-.76,0-1.14.07-2.86.71-3.14,3.41-3.98,5.85-1.8,10.18-3.16,15.91-5.68,1.7-.75,4.28-.9,5.11-2.84-.32-.09-1.04.09-1.14,0s.09-.46,0-.57c-1.02-1.15-2.02-3.4-3.41-3.41-.5-.54-1.1-1.05-1.7-1.7.24-1.15-.89-1.36-1.14-1.7-6.56-9.14-14.76-16.99-20.61-26.54-.25-.41-4.99-5.04-6.42-6.94-4.07-5.41-8.58-10.31-13.09-15.59-2.05-2.39-3-5.78-5.33-7.17-1.32-2.94-3.52-4.47-4.52-7.55l-2.87-2.11c-.91-1.34-1.87-2.43-2.84-3.98,1.09.06-1.07-3.75-1.24-3.89-.33-.27-.86,0-1.03-.09-4.28-7.02-9.83-14.28-13.63-20.45-1.06-1.72-2.12-3.59-3.01-5.25-1.38-2.55-3.61-7.92-3.22-10.88.24-1.83,2.43-5.25,3.91-6.35,3-2.22,10.76-2.07,14.56-1.96,22.5.6,45.11,1.9,67.6,2.84,4.77.2,18.78,2.38,22.26.71,1.47-.71,2.48-2.43,4.53-2.57l4.72-5.51c28.67-22.62,43.12-49.54,65.9-76.12l5.83-4.98c24.78-1.2,49.56-.07,74.58-.11,5.23,0,10.59-.66,15.91-.62,2.67.02,8.94,2.29,9.77-1.51,2.69-12.29,2.8-26.96,6.1-38.8.83-2.98,1.83-3.33,2.56-5.67.31-.21,1.61-1.09,1.7-1.14,1.4-.69,5.21-2.27,6.53-2.27h12.78v-15.05c0-1.62,2.59-8.27,3.47-10.04.66-1.33,2.78-2.64,2.78-4.45.2-.18.37-.39.57-.57,1.65-1.47,3.42-1.89,3.98-3.41,1.02-.63,2.77-.77,3.41-2.27,3.16-.64,6.14-1.85,8.88-2.2,1.58-.2,3.18-.02,4.76-.07.03-.38-.03-.76,0-1.13.01-.19,0-.38,0-.57,2.17-4.7,2.79-9.94,6.82-13.63,2.21-.19,2.11-.85,2.84-2.27,2.2-.79,4.83-2.18,6.79-2.59,8.4-1.74,14.18-1.51,21.72,2.66.48.26.5.99.72.99l1.91-.63.1-1.57ZM420.31,12.38c-4.86-6.35-15.07-6.42-21.3-1.7-3.77,2.85-4.17,5.86-6.51,8.71-.41.49-1.74.37-2.14,1.49-3.3.76-5.94-2.43-8.55-3.8-6.09-3.17-14.23-4.01-19.44.98-.19.18-.37.38-.57.57-1.5.01-2.05,1.3-2.84,2.27-2.94,3.64-4.38,7.32-4,12.09-1.59,1.97-1.99,2.85-4.86,3.2-6.13.75-9.09-.47-14.44,4.02-.2.17-.37.39-.57.57s-.38.38-.57.57c-8.6,5.08-7.84,15.32-8.34,24.08.1,1.76,1.39,1.34,1.52,1.48.16.16-.36,1.36,1.39,1.42,11.35-.47,22.82,1.2,30.72-8.79,3.15-3.99,3.77-11.63,10.07-10.68,2.17.33,4.86,1.85,6.93,2.65l9.13-1.2c.55-1.06,1.65-1.45,2.55-2.14.8-.62,1.99-1.26,2.65-1.9,2.2-2.15,2.67-5.15,4.17-7.19,2.19-2.98,7.58,1.22,10.54,1.67,4.33.66,11.85.05,14.45-3.94v-.57c.21-.19.38-.25.57-.57.37-.2.78-.35,1.14-.57,7.19-4.39,5.13-16.39-.57-21.59-.49-.45-1.05-1.07-1.14-1.14ZM340.77,74.86l.57-.56c-2.42.46-4.85-.55-7.08-.6-5.57-.13-11.57.64-17.07.64-3.85,0-5.66-1.36-10.04.13-3.07,1.05-1.53,1.38-1.6,1.52-2.5,4.45-3.02,10.16-3.71,15.32-.14,1.08-.95,1.97.87,1.72-.07,0-1.74.85-.85,1.14h40.33s-1.42-1.14-1.42-1.14c.76-.02,1.52.02,2.28,0-.44-5.98,1.4-13.07-2.28-18.18ZM301.01,100.99c-.19,0-.39.03-.57,0-.06-.01-.45-.81-1.13-.57l-2.27,17.04c.38.03.76-.02,1.13,0,14.13.68,28.76-.54,42.95.03l1.36-.6.57-.57c.56-.31.54-.8.6-1.36.34-2.98.28-9.82-.03-12.84-.06-.54.12-1.25-.25-1.72l-1.71-.58c-12.87.43-25.83-.48-38.68.03-1.09.04-2.28-.58-1.96,1.14ZM194.78,123.15c-1.03.16-3.38,2.35-3.41,3.41-.19.18-.38.38-.57.57-.52.53-.48,1.04-.57,1.14-.8.94-3.67,3.24-3.41,4.54.04.71.8.42,1.14.57.55.23,1.03.86,1.92.61,27.1-.34,54.21.31,81.31-.03.96-.01,2.53.36,3.12-.58,2.85-.41,5.28,1.12,7.95,1.7.54.43.71.58,1.14,1.14l.52,5.35-2.22,5.44c-1.63,2.26-3.34,3.74-5.11,5.68l-.28-.56c-.77.59-1.34,1.25-1.42,2.26-1.47,1.51-2.65,3.44-4.54,4.54l-2.01,1.13.3.58-.83,1.14c-2.49.42-3.42,2.83-4.85,3.97-3.2,1.16-5.81,3.68-9.1,4.81-2.17.75-5.07,1.26-7.37,1.43h-39.2c-11.26-.02-22.57.22-33.82.02-4.93-.09-10.88-1.29-15.91-.62-2.79.37-1.89,1.62-2.53,2.3-.18.19-.42.37-.57.57-.3.38-1.4.75-1.69,1.42l.56.28c-2.01,2.1-4.04,3.89-5.68,6.25l-.56-.58c-.09.35.1.92-.01,1.14-.57,1.15-8.51,9.09-9.66,9.66-.22.11-.79-.08-1.14.01l.58.56c-.3,1.57-13.14,11.35-15.34,13.06-.33-1.28-1.78.12-2,.56-1.27,2.54,4.78,1.54,6.23,1.74,15.83,2.2,36.63,2.28,52.58,2.81,1.73.06,5.53,1.49,7.39,2.27-.1,1.57.91,1.4,1.82,1.87,3.31,1.72,6.04,4.03,9.3,6.07,1.27.79,2.64,2.04,4.22,1.71,1.87,1.34,3.36,3.22,5.68,4.54l4.12,3.57c12.19,1.95,25.11,1.44,37.35,1.54.59.94,2.16.57,3.12.58,50.38.53,100.79-.45,151.18.03.95.27,1.37-.34,1.93-.61,2.73-1.29.84-2.08.68-3.82-.49-5.31-1.69-10.72-2.36-15.8-.36-2.73.02-7.65-.59-10.11-.11-.44-1.14-.36-1.15-.7-.15-6.64-1.54-14.29-2.47-21.45-1.11-8.58-3.12-16.06-3.26-24.56l-1.11-.59c-.48-6.92-1.11-16.07-2.42-22.57-.25-1.24-2.07-7.17-2.75-7.7-.13-.1-.44.54-.47.52-.53-.29-1-.45-1.14-1.14.87-.19-.82-1.69-.92-1.69-.63-.03-1.7.59-2.75.59-30.26-.03-60.43-.48-90.63-.6h-98.28ZM186.82,140.19c-1.51.04-3.45-.24-4.82.01-2.38.45-8.69,11.22-10.61,13.82-.57.77-1.53,1.11-2.1,1.87-2.11,2.8-3.71,6.02-6.33,8.44l15.34.85h-13.36s-1.12.57-1.12.57h39.76c.78-.11-.3-.54-.28-.57,2.38-4.56,7.03-10.15,9.89-14.82,2.06-3.36,3.82-6.9,6.01-10.18-.18-.85-2.04-.88-2.27,0-.75-.03-1.52,0-2.27,0-.59-.94-2.16-.57-3.12-.58-3.97-.04-7.97-.05-11.95,0-.96.01-2.53-.36-3.12.58-.38,0-.76,0-1.14,0-2.1-.95-6.3-.96-8.52,0ZM228.29,140.19c-.14.02-.35.47-.57.57-.2.09-.83-.19-1.06.07-.29.5.04,1.21-.07,1.64-.17.65-.2,1.32-.65,1.88l-12.98,20.84c.11.92,1.25.53,1.98.57,11.4.71,24.14-.08,35.52-.58l-.58-.56.29-.56c8.16-2.82,18.14-12.28,23.55-19.06,1.14-1.42,3.09-3.13,1.72-4.81h-47.15ZM63.55,212.33c.32-1.72-.87-1.09-1.96-1.14-12.51-.5-25.02-.73-37.54-1.11-6.77-.2-21.17-3.66-15.72,8.33l16.73,25.02c3.98.85,8-.03,12.1.11,2.04.07,4.68,1.49,6.51.02,3.57.18,7.22-.15,10.79,0-.32,1.71.87,1.1,1.96,1.14,133.78,4.48,267,15.31,401.11,13.64.96-.01,2.53.36,3.12-.58.08-.03-.08-.48,0-.57.54-.57.87-.92,1.14-1.7.75-2.21,2.66-10.86,2.29-12.79-.23-1.17-2.95-3.36-4.27-3.12-.29-.11-.31-.29-.29-.56,0-.07.97-.57.28-.57h-38.91c-.87-.94-3.65-.95-4.54,0-.38,0-.76,0-1.14,0h-172.7c-15.16-.14-26.23,2.14-39.77-5.68-8.91-6.67-17.25-14.19-28.76-15.84-11.32-1.62-24.68-1.15-36.29-1.78-18.03-.98-36.42-1.61-54.26-2.27-6.62-.24-13.26-.35-19.88-.57ZM155.01,255.5c-2.47-2.41-6.68-.94-9.37-1.08-35.78-1.96-70.75-3.43-106.83-4.57-2.59-.08-5.43-1.09-8.22-.59l.92,4.5,3.06,2.31c10.65,15.34,25.38,32.96,37.51,47.42,6.81,8.13,14.13,15.81,21.01,23.88,1.21.75,7.21-.83,9.34-.88,13.31-.36,20.74,6.59,32.13,10.82-.33,1.51.76,1.1,1.68,1.41,7.86,2.66,12.91,3.68,21.89,3.12,16.52-1.03,30.54-16.37,48.23-14.69l15.69,3.9c.77.39,3.88,1.73,3.98,2.27l-.57.56c2.97,1.88,5.3,2.5,8.95,3.82,16.24,5.87,28.96,5.94,44.45-2.11,16.68-8.67,29.18-12.72,46.19-1.89,11.94,7.61,29.72,9.77,43.58,6.15,16.79-4.39,25.72-15.33,45-12.06,1.88.32,7.57,2.37,8.56,2.15.29-.06,3.84-3.65,3.81-4.58.55-.48.63-1.2,1.7-1.7,2.16-1.02.99-.6,1.7-1.14,1.16-.87,2.81-.84,2.84-3.41.19-.19.38-.38.57-.57,1.15-1.12,1.03-.87,2.25-2.43.66-.85,2.18-.85,1.72-2.69.18-.2.39-.37.57-.57,9.63-10.78,17.98-28.58,21.2-42.7.22-.95.94-3.45.82-4.12-.11-.62-.87-.71-1-.9-.08-.12.19-.81-.08-1.03l-91.12-.08c-9.73-.18-21.08-1.57-30.68-1.16-1.09.05-2.28-.59-1.96,1.14-3.53-.12-7.59-1.08-11.36-.57.33-1.69-.82-1.03-1.88-1.21-.79-.13-1.67-.5-2.41-.51-27.17-.3-54.6-2.51-82.06-3.39-3.94-.13-8.73-.38-12.5.57-.75-.03-1.52.03-2.27,0,.32-1.72-.87-1.1-1.96-1.14-2.37-.08-4.77.12-7.13,0-19.09-.99-37.54-2.45-56.81-2.27-.38,0-.76,0-1.14,0Z"/>
  <path class="cls-28" d="M69.23,314.58v1.7s1.7-1.13,1.7-1.13h.57c1.11.6.99,3.15,1.18,3.37.21.25,1.28-.11,1.66.04.64.24.79.7,1.14,1.14,1.29,1.62,1.3,4.03,2.25,5.42,1.3,1.91,4.04.62,4.56,4s-2.76,2.56-4.94,3.53c-2.35,1.04-5.06,3.19-7.54,3.82-1.91.48-5.22-.71-4.55,1.98-2.7.83-3.34,1.12-3.41,3.98h-1.13c-.64,1.57.98.96,1.13,1.14.41.47.76,1.62,1.14,2.27.09.15-.21.81.08,1.04.19.15,3.61.71,4.19.71,3.15-.02,5.89-2.89,9.63-1.71l.34-1.68c3.51,1.09,3.95-2.01,5.21-2.53,1.12-.46,3.56-.23,3.8-.46.18-.18-.12-1.17.15-1.48.21-.24,5.15-2.46,5.68-2.6,3.01-.78,18.59-1.11,21.66-.37.38.09.39.85.58.93,2.83,1.16,3.09,2.48,4.25,2.99,1.51.67,3.59.08,5.22.6l-.57,1.7c2.4-.96,3.81,2.09,4.4,2.27,4.78,1.46,13.91,4.66,18.62,5.11s9.56-.35,14.2-.45c2.02-.04,6.17,1.54,7.72-.37.42-.52.36-1.65.64-1.9.3-.26,2.51-.41,3.42-.73.38-.13.41-.98.83-1.08,1.17-.27,4.82.31,5.23-.09-.49-2.55,2.05-1.58,2.77-2.35.26-.29-.14-1.21.48-1.57,1.46-.84,4.1-.22,5.48-.53.44-.1,1.87-3.56,4.87-2.36.11-4.01,6.04-1.5,8.76-2.18.65-.16.73-1.59,1.26-1.72.75-.19,1.79,1.43,2.9,1.55,2.24.25,5.1-.85,8.21-.17,3.63.8,4.04,3.19,6.05,4.18,1.61.78,4.81,1.1,6.97,1.83.04.32-.15.82.05,1.08,2.77.96,6.58,1.78,9.16,2.95.09.04,1.51,1.03,1.58,1.09,1.25,1.09,1.29,1.5,2.08,2.87,3.28-.02,6.58-.06,9.85-.03.76,0,1.52,0,2.27,0,1.89.02,3.79.02,5.68,0,1.14,0,2.27,0,3.41,0,3.1-.02,6.22,0,9.33.01l.33-2.85c.34.07.9-.11,1.14,0s.42,1.47,1.88,1.08c.86-.23,1.5-1.34,1.53-2.22,1.08-.21,4.3-.49,4.47-.65.87-.81.46-4.03,4.62-2.19v-2.28s4.52-.06,4.52-.06l.06-1.6,3.94.53c.22-.71.3-2.22.71-2.7.68-.79,9.18-1.01,11.03-1.06,1.4-.04,2.89.58,4.48.4,1.2-.14.55-1.65,2.24-1.2.23.06.2,1.03.67,1.14,5.09,1.16,5.51,1.3,9.97,3.46,2.14,1.04,3.98,1.26,6.1,2.58,5.56,3.45,10.15,5.18,17.23,6.02,1.42.17,2.44,1.39,4.08,1.61,5.17.7,10.93-.48,15.92-1.74l.29,1.3c.65,1.56,1.17-.33,1.64-.65,4.74-3.25,11.86-2.58,16.36-5.37,2.89-1.8,3.7-2.44,6.87-3.74.74-.3,2.03-.14,2.64-.56.57-.39.18-1.54.36-1.7.35-.3,1.68.1,2.41-.07.48-.11.15-1.03,1.21-1.17,1.84-.24,4.46.44,6.18.03.46-.11.15-1.03,1.2-1.17,1.38-.18,5.51-.18,6.89,0,1.06.14.75,1.07,1.2,1.17,3.98.88,8.07-1.38,9.36,4.46,1.82.35,3.77-.1,5.59.09.19.02.39-.03.57,0,.45,2.89,4.27.65,3.41,4.55,4.59-1.17,8.45,2.68,13.31,1.72.73-.18.15-1.31.32-1.73.09-.22.53-.42.57-.57h.57l2.84.57c.02-1.26.11-2.69-.38-3.87-.41-.99-1.26-.6-1.32-.68-.58-.69-1.1-1.62-1.7-2.27l.56-1.7c-.64-.23-1.44.56-1.7.57-1.06,0-1.53-.55-1.7-.57.62-.73,1.77-.1,1.72-1.39-.06-1.77-.56-5.21-.39-6.76.18-1.66,1.02-3.19,1.38-4.76.25-1.1-.95-1.87.38-3.01.89-.76,7.73-2.28,9.13-2.29,3.07-.03,3.79,1.75,4.03,1.75.88.02,1.77-.91,3.24-.49.62.18,3.29,3.46,3.25.48.32.09.83-.1,1.14,0l.57.57c.17.06.4-.06.57,0l.57,1.7c-2.83-.15-4.36.82-6.56,1.1-5.37.69-6.98-1.87-7.63,5.44-.32,3.59,1.66,9.43-2.79,9.99l1.41,4.96c3.17-.6,5.73,1.18,6.24-3.35l12.18.03c-4.61,2.05-9.28,2.93-14.18,4.01-.53,2.27,2.23,2.2,3.65,3.97,3.29,4.13.85,7.06-3.1,9.06l-12.88,1.49c-9.23-.25-18.32-.82-27.46-2.05v-2.84s-13.63,0-13.63,0v2.28c-5.09-.53-9.72,1.16-14.54,2.21-4.55.99-2.3.74-4.92,1.94-.99.46-1.82-.2-2.36-.06-.29.08-2.5,2.62-4.87,3.02-1.09.19-4.71-.76-5.12-.31-.18.2.27,1.58-.09,2.17-.45.74-8.04,2.67-9.38,2.73-1.44.06-8.73-.89-9.26-.33-.24.26.37,2.51-.95,2.74-.69.24-9.4.24-10.08,0-1.11-.39-.83-2.32-1.79-2.76-1.77-.81-1.42,1.8-2.82,1.7l-.6-1.75c-3.03.38-5.85-1.13-7.64,1.74-1.15-.41-1.61-.86-2.27-1.14-1.73-.73-3.52-2.03-5.6-2.35l-.08-2.76c-7.23.6-13.79-1.63-21.32-1.16-2.01.13-9.18.78-10.66,1.14-.56.14-1.58,3.18-4.93,1.15.05,4.21-6.54,2.76-8.75,3.37-.67.18-.04,1.72-1.29,2.22-6.03,2.42-20.73,3.09-27.03,1.65-2.3-.52-4.96-.94-4.43-3.81-.57-.6-6.61.51-7.94.29-.36-.06-5.08-1.79-5.3-1.96-.79-.6-.56-2.49-1.01-2.82-.79-.56-4.11.41-5.61.27-.83-.08-5.75-1.29-6.42-1.61-.92-.44-.82-1.56-2.04-1.9-1.51-.42-2.98.02-4.21-.25-.46-.1-.14-1.03-1.2-1.17-1.64-.22-9.73.21-11.29.6-.51.13-.53,1.19-1.35,1.6-4.82,2.38-14.9,2.26-20.28,2.47-1.34.46-.54,4.47-2.92,4.47h-12.78l.06,2.22,1.65.61c-7.3,1.43-14.96,2.27-22.43,1.7-2.17-.17-8.23-1.04-10.13-1.68-.65-.22-.45-1.47-.9-2.04-1.25-1.53-6.04-.58-8.24-.87s-6.21-1.29-5.7-3.94l-.67-.48-9.3.5c-2.45-.62-5.46-1.26-7.95-1.7-6.1-1.1-8.13,1.14-12.78,1.14h-10.51c-.08,0,.03,1.06-.3,1.66-1.07,1.94-10.1,1.71-12.48,2.88h-14.2c-1.32,0-2.76.03-4.26,0-.33-1.34,1.11-1.62,2.02-1.65,2.89-.11,8.26,1.44,10.45-.36.67-.56.98-1.89,1.72-2.25,1.66-.81,4.9-.11,6.27-.53.9-.28,1.53-1.35,2.56-1.44.92-.08,1.9.62,2.82.57,1.71-.1,3.51-.97,5.4-.57-.26-1.7.62-5.42-.55-6.55-.63-.61-2.08-.62-2.83-1.14-1.06-.73-1.03-1.93-2.52-2.59s-3.29-.52-4.89-.51v-2.84c-1.4.24-4.02-.12-3.98-1.98.02-.73.97-1.44,1.13-2.32.68-3.71-2.38-3.23-3.14-4.79-1.75-3.55,4.29-5.57,6.84-4.54,1.12-1.92-.8-2.45-2.53-2.3,1.01-3.42-1.21-4.03-1.99-5.68-1.22-2.58-.74-2.2-2.58-4.81-2.27-3.22-.87-3.36-5.68-3.7l1.53-2.16c4.9-.4,9.77-.52,14.68-.68,1.09-.04,2.28.58,1.96-1.14.38,0,.76,0,1.14,0Z"/>
  <path class="cls-18" d="M467.46,323.1c.95.05,1.93-.2,2.85.28,1.04.54,1.51,4.12,3.97.86,2.19,1.28,3.99,2.44,4.54,5.11l-.56.28.56.28c.04.36,0,.77,0,1.14h-1.14s-.57,5.11-.57,5.11c-.15.21-.4.37-.57.57h-5.12s0,3.98,0,3.98c-.39.21-.72.38-1.14.57l-12.18-.03c-.51,4.53-3.07,2.75-6.24,3.35l-1.41-4.96c4.45-.56,2.47-6.4,2.79-9.99.64-7.31,2.26-4.75,7.63-5.44,2.21-.28,3.74-1.25,6.56-1.1Z"/>
  <path class="cls-11" d="M103.88,364.56l9.3-.5.67.48c-.51,2.65,3.54,3.66,5.7,3.94s6.99-.67,8.24.87c.46.56.25,1.82.9,2.04,1.9.64,7.96,1.52,10.13,1.68,7.47.57,15.13-.28,22.43-1.7l-1.65-.61-.06-2.22h12.78c2.38,0,1.58-4.01,2.92-4.47,5.38-.2,15.46-.09,20.28-2.47.82-.4.83-1.47,1.35-1.6,1.56-.39,9.64-.82,11.29-.6,1.06.14.74,1.07,1.2,1.17,1.24.27,2.71-.17,4.21.25,1.21.34,1.11,1.46,2.04,1.9.67.32,5.59,1.53,6.42,1.61,1.51.14,4.82-.83,5.61-.27.45.32.22,2.21,1.01,2.82.23.17,4.95,1.9,5.3,1.96,1.33.23,7.37-.89,7.94-.29-.53,2.87,2.13,3.29,4.43,3.81,6.3,1.44,21.01.77,27.03-1.65,1.24-.5.62-2.04,1.29-2.22,2.22-.61,8.8.84,8.75-3.37,3.35,2.03,4.37-1.01,4.93-1.15,1.48-.36,8.65-1.02,10.66-1.14,7.53-.47,14.1,1.76,21.32,1.16l.08,2.76c2.08.32,3.87,1.62,5.6,2.35-5.71-.65-10.87-3.76-16.44-4.86-17.65-3.49-32.04,8.68-49.18,9.96-21.51,1.62-38.98-13.35-60.8-11.94-16.75,1.08-32.44,10.83-49.38,11.97-18.12,1.22-29.86-5.49-46.32-9.68Z"/>
  <path class="cls-11" d="M328.28,370.24c1.79-2.87,4.62-1.37,7.64-1.74l.6,1.75c1.41.1,1.05-2.51,2.82-1.7.96.44.68,2.37,1.79,2.76.68.24,9.38.24,10.08,0,1.32-.23.7-2.49.95-2.74.53-.56,7.82.39,9.26.33,1.34-.06,8.92-1.98,9.38-2.73.36-.59-.09-1.97.09-2.17.41-.45,4.03.49,5.12.31,2.37-.41,4.59-2.95,4.87-3.02.54-.14,1.37.51,2.36.06,2.62-1.21.37-.95,4.92-1.94,4.82-1.05,9.45-2.74,14.55-2.21v-2.28s13.63,0,13.63,0v2.84c9.14,1.23,18.23,1.81,27.46,2.05l12.88-1.49c-13.28,6.73-30.85.35-44.6-.56-29.71-1.98-53.71,23.08-83.79,12.49Z"/>
  <path class="cls-2" d="M464.62,320.82c.04,2.98-2.63-.3-3.25-.48-1.47-.43-2.35.5-3.24.49-.23,0-.95-1.78-4.03-1.75-1.4.02-8.23,1.53-9.13,2.29-1.33,1.13-.13,1.9-.38,3.01-.35,1.57-1.2,3.1-1.38,4.76-.17,1.55.33,4.99.39,6.76.05,1.29-1.11.66-1.72,1.39-1.11-.11-2.29.08-3.41,0-1.28-.57-9.07-3.24-9.08-4.26,2.2-2.08,4.22-4.29,6.24-6.53,2.93-3.27,5.87-6.63,8.52-10.22,4.26,1.57,9.15,1.51,13.75,2.44,2.29.46,4.53,1.47,6.7,2.1Z"/>
  <path class="cls-15" d="M301.01,70.32c-.09.05-1.4.93-1.7,1.14-.74,2.35-1.73,2.69-2.56,5.67-3.31,11.84-3.42,26.51-6.1,38.8-.83,3.8-7.1,1.53-9.77,1.51-5.32-.04-10.68.61-15.91.62-25.01.04-49.79-1.09-74.58.11l-5.83,4.98c1.08-1.25,2.31-3.31,3.78-4.46,1.84-1.43,3.86-2.09,6.17-2.35h95.15s5.85-38.75,5.85-38.75c.49-1.62.91-3.51,1.95-4.87.99-1.29,1.24-.85,1.85-1.26.58-1.85.28-.78,1.7-1.7v.57Z"/>
  <path class="cls-11" d="M43.66,348.09c-.04.44.19.91-.36,1.18-1.96,1.3-4.27,1.72-6.4,2.56-.55.21-.96,1.14-1.58,1.29-1.35.32-3.66-1.75-4.15,1.79-.75-.02-1.52-.03-2.27,0-3.91.13-7.62-.94-6.82,4.54-.18.22-4.71-2.2-3.88,1.86.75,3.66,3.76,2.08,5.04,2.94.72.49.17,2.08,2.23,2.88,3.65,1.42,8.67,1.24,12.51,1.4,1.13.05,2.28-.02,3.41,0,1.5.03,2.94,0,4.26,0h14.2c2.38-1.17,11.42-.95,12.48-2.88.33-.6.22-1.66.3-1.66h10.51c4.65,0,6.69-2.23,12.78-1.14-3.07.88-6.57.75-9.79,1.29-20.23,3.37-39.95,10.11-60.91,3.79-7.33-2.21-11.99-9.15-3.47-13.06,6.77-3.11,15.43-2.98,21.9-6.79Z"/>
  <path class="cls-28" d="M36.28,317.98c2.09,1.47,5.11.03,7.36-.32,1.09-.17,1.98-.91,1.73.88-.95.08-3.61.48-4.7.7s-3.64,1.67-4.08,1.56c-.66-.17-.92-3.17-4.21-1.04l-.13,2.71c-2.71,1.15-6.05.12-8.61.76-3.64.91-5.47,6.21-10.65,4.4.16,3.63-1.08,5.93,1.14,9.09h-4.54c-.4-.2-.7-.27-1.14-.57v-3.97c-1.01.16-1.95.77-2.84,0-.22-.96-.67,0,0-1.7l.28.56c.81-.55.96-1.31.86-2.26,4.02-4.86,22.9-9.46,29.54-10.79Z"/>
  <path class="cls-28" d="M21.51,336.73c4.12.06,8.22.47,12.24.59,1.98.06,3.65-.77,6.16-.53,4.51.44,7.17,2.97,7.18,7.6l-1.76.6-.04,5.01c-2.29,1.89-6.03,2.19-4.47,6.04-3.27-.92-6.3-1.04-9.66-1.13.49-3.54,2.8-1.46,4.15-1.79.62-.15,1.03-1.08,1.58-1.29,2.13-.84,4.44-1.26,6.4-2.56.56-.27.32-.74.36-1.18.47-4.71-2.37-4.95-6.25-6.25l-.57-.57c-.17-.05-.39.05-.57,0,.34-1.61-.79-1.07-1.79-1.3-4.01-.94-7.63-.82-11.57-1.55-1.5-.28-1.57.62-1.41-1.69Z"/>
  <path class="cls-26" d="M118.65,199.26l-4.72,5.51c-2.05.14-3.06,1.86-4.53,2.57-3.48,1.67-17.49-.51-22.26-.71-22.5-.94-45.1-2.24-67.6-2.84-3.8-.1-11.55-.26-14.56,1.96-1.49,1.1-3.67,4.53-3.91,6.35-.39,2.95,1.84,8.32,3.22,10.88.9,1.66,1.95,3.53,3.01,5.25,3.8,6.16,9.35,13.43,13.63,20.45.17.08.7-.18,1.03.09.17.14,2.33,3.94,1.24,3.89-.94-1.5-1.57-2.83-2.27-3.98-.16-.08-.63.16-1.01-.11-.63-.46-5.96-8.88-6.96-10.38-2.13-3.2-3.75-6.87-5.67-9.95-.9-1.45-4.12-4.6-5.27-6.97-2.49-5.14-3.36-11.24,1.26-15.51,5.2-4.79,13.39-2.67,19.6-2.49,16.49.46,32.99.8,49.42,2.27,10.86-1.21,24.81,2.57,35.27,1.14,2.06-.28,8.97-5.76,11.05-7.41Z"/>
  <path class="cls-26" d="M405.54,186.77c-2,.25-.72-.64-.79-1.5-.54-6.11-1.83-19.26-3.19-24.82-1.83-7.52-2.62-17.6-4.01-26.19-.14-.88-.95-1.5-1.07-2.33-.26-1.71.11-3.63-.03-5.37l-1.13.58.58-1.95c-1.87-.54-.81-1.71-1.31-3.02-.13-.33-3.97-3.4-4.69-3.54-1.41-.27-4.62-.51-6.21-.6-10.84-.66-22.35.54-33.25.02-.27-.79.56-1.07.57-1.13h35.51c8.51,1.39,10.05,6.63,11.48,14.08,3.49,18.2,5.24,37.99,7.55,55.79Z"/>
  <path class="cls-26" d="M412.35,230.51l-.56,1.7c-1.2-5.47-1.48-11.17-2.31-16.72-1.36-9.12-2.73-18.76-3.95-28.15l6.82,43.17Z"/>
  <path class="cls-13" d="M357.82,12.38c.08-.16-.17-.68.1-1.02.18-.22,4.58-2.3,5.18-2.51,7.36-2.48,14.23-2.02,21.25,1.14,1.77.8,2.89,3.53,4.71.68v.57l-.1,1.57-1.91.63c-.22,0-.24-.73-.72-.99-7.54-4.17-13.32-4.4-21.72-2.66-1.96.41-4.59,1.79-6.79,2.59-.73,1.42-.63,2.08-2.84,2.27h-.57c1.6-1.46,1.03-1.41,3.41-2.27Z"/>
  <path class="cls-1" d="M326.57,38.51c0,1.81-2.11,3.12-2.78,4.45-.88,1.76-3.47,8.42-3.47,10.04v15.05h-12.78c-1.32,0-5.13,1.59-6.53,2.27v-.57c3.53-2.3,7.45-2.82,11.65-2.88,1.78-.02,5.94,1.3,6.86.05-1.01-9.7-.48-21.38,7.06-28.42Z"/>
  <path class="cls-11" d="M68.09,314.58c.32,1.71-.87,1.1-1.96,1.14-4.91.16-9.78.28-14.68.68l-1.53,2.16c-1.36-.1-3.19-.11-4.54,0,.25-1.79-.64-1.05-1.73-.88-2.25.35-5.27,1.79-7.36.32,10.6-2.13,20.96-3.41,31.81-3.41Z"/>
  <path class="cls-13" d="M399.86,46.46c-4.81,8.38-12.61,12.72-22.43,11.92-1.79-.15-5.9-1.73-7.14-.87-3.35,8.9-10.76,12.4-18.72,16.22.13-1.12,1.59-2.1,2.43-2.6.99-.6,3.44-1.31,4.35-1.68,2.43-.99,2.9-4.34,4.6-5.09.93-.41,2.11-.08,2.71-.41,1.01-.57,3.7-7.32,4.08-7.56,2.04-1.37,4.7.6,6.12.74,1.26.12,5.42.21,6.65.15,4.18-.23,12.65-4.7,15.12-8.36,1.24-1.84-.85-1.93,2.24-2.44Z"/>
  <path class="cls-11" d="M14.12,336.73c1.32,0,2.65,0,3.98,0v1.13s1.42,0,1.42,0l.29-1.14c.57,0,1.14,0,1.7,0-.17,2.31-.09,1.41,1.41,1.69,3.94.74,7.56.61,11.57,1.55,1,.23,2.13-.3,1.79,1.3-8.84-2.3-18.41-.48-26.7-4.54h4.54Z"/>
  <path class="cls-1" d="M425.42,6.7c2.96,2.44,4.8,3.79,6.46,7.46,3.45,7.62,3.7,18.57-2.48,24.92-.37.03-.77-.05-1.14,0-.83-2.2,2.35-2.25,2.73-2.95s-.11-1.73.14-2.31c.2-.49.94-.44,1.07-.86,1.74-5.98,1.6-11.92-.86-17.67-1.02-2.39-4.54-6.9-6.47-8.58h.57Z"/>
  <path class="cls-26" d="M389.06,10.68c8.53-13.36,24.7-13.59,36.36-3.98h-.57c-4.53-3.96-13.02-6.31-18.97-5.62-3.36.39-11.79,4.43-14.15,6.74-.6.59-1.29,2.92-2.67,3.42v-.57Z"/>
  <path class="cls-22" d="M351,115.76l-.57-40.9c.65.95.55,2.02.59,3.1.41,11.66.69,26.27-.02,37.8Z"/>
  <path class="cls-26" d="M348.16,28.85c-.02.38.03.76,0,1.13-1.58.05-3.18-.13-4.76.07-2.74.35-5.72,1.56-8.88,2.2-.18.04-.39-.05-.57,0,3.9-2.96,9.43-3.29,14.2-3.41Z"/>
  <path class="cls-15" d="M428.26,39.08c.37-.05.76.03,1.14,0-1.26,1.29-2.22,1.48-3.41,2.27-3.32,5.41-12.82,7.35-18.96,6.75-2.2-.22-4.17-1.27-6.03-1.63.84-.7,2.13-.75,3.15-.63s.75,1.03,1.2,1.15,8.42.17,8.91.06c.42-.09.38-.95.48-1,.32-.16,1.15.47,1.74.3,3.35-1.01,6.63-3.06,9.52-4.99.66-1.08.09-2,2.27-2.27Z"/>
  <path class="cls-28" d="M476.55,336.73c-2.2,2.67-2.25,2.47-5.11,3.98v-3.98s5.11,0,5.11,0Z"/>
  <path class="cls-2" d="M474.28,324.23c-2.46,3.26-2.92-.32-3.97-.86-.91-.47-1.89-.23-2.85-.28l-.57-1.7c2.55.88,5.01,1.44,7.39,2.84Z"/>
  <path class="cls-26" d="M26.05,256.64l2.87,2.11c1,3.08,3.19,4.6,4.52,7.55,2.33,1.39,3.28,4.78,5.33,7.17,4.51,5.27,9.02,10.18,13.09,15.59,1.43,1.9,6.17,6.53,6.42,6.94,5.85,9.55,14.05,17.4,20.61,26.54-.79-.88-2.45-2-3.41-2.84-.35-.44-.5-.9-1.14-1.14l-2.84-3.41h-.57v-.57c-6.24-8.66-13.34-16.56-20.11-25.05-4.9-6.15-14.48-16.77-17.39-23.23-2.79-1.66-5.29-6.59-7.39-9.66Z"/>
  <path class="cls-11" d="M5.6,332.19c.89.77,1.83.16,2.84,0v3.97c-2.21-1.52-2.1-.72-2.84-3.98Z"/>
  <path class="cls-26" d="M354.98,14.65c-4.02,3.69-4.65,8.93-6.82,13.63.15-5.45,2.24-9.98,6.25-13.63h.57Z"/>
  <path class="cls-28" d="M478.82,331.05c-.02,1,.14,1.98-.14,2.98s-1.08,1.44-1.57,2.14l.57-5.12h1.14Z"/>
  <path class="cls-1" d="M333.96,32.26c.18-.05.38.04.57,0-.64,1.5-2.39,1.65-3.41,2.27-.55,1.52-2.33,1.94-3.98,3.41.95-1.93,2.45-2.48,3.98-3.41.57-1.58.89-1.77,2.84-2.27Z"/>
  <polygon class="cls-10" points="70.93 314.58 70.93 315.14 69.23 316.28 69.23 314.58 70.93 314.58"/>
  <path class="cls-11" d="M5.6,330.48c.51-1.31.48-.91,1.14-1.7.11.95-.04,1.71-.86,2.26l-.28-.56Z"/>
  <path class="cls-28" d="M478.82,329.91l-.56-.28.56-.28c.04.18-.02.38,0,.57Z"/>
  <path class="cls-11" d="M37.41,341.84c-.29-.1-.48-.54-.57-.57l.57.57Z"/>
  <path class="cls-2" d="M466.32,321.39l-.57-.57c.4.13.53.56.57.57Z"/>
  <path class="cls-17" d="M155.01,255.5c.38,0,.76,0,1.14,0,18.9,1.42,37.86,1.97,56.81,2.84,3.05.14,6.07.43,9.09.57.75.03,1.52-.03,2.27,0,4.17.19,8.33.4,12.5.57l86.35,3.98c3.78-.51,7.83.45,11.36.57,12.99.43,25.91.33,38.94.54,1.34.02,2.59.59,3.93.61l80.98-.02c.55.54-3.2,12.85-3.81,14.65-3.51,10.33-9.41,22.12-15.97,30.59-.58.75-1.1,1.52-1.23,2.48-.18.2-.39.37-.57.57-1.41,1.54-3.19,3-3.98,5.11-.19.19-.38.38-.57.57-1.52,1.47-1.86,2.3-2.84,3.41-.13.14-1.57.19-1.7,1.14-1.07.51-1.16,1.23-1.7,1.7-.94.82-2.37,2.69-3.44,3.1-2.24.86-6.81-1.37-9.49-1.82-20.98-3.57-34.28,12.43-54.4,14.05-28.66,2.3-41.01-23.22-70.53-10.88-3.14,1.31-6.15,3.27-9.27,4.64-4.21,1.85-8.44,3.86-12.95,4.95-14.28,3.44-27.01-.02-39.88-6.08-.09-.54-3.21-1.89-3.98-2.27-24.31-12.2-33.23.79-54.23,7.4-11.45,3.6-22.06,2.99-33.25-1.16s-18.82-11.18-32.13-10.82c-2.13.06-8.13,1.64-9.34.88-6.87-8.07-14.19-15.75-21.01-23.88-12.13-14.46-26.85-32.08-37.51-47.42-1.07-1.54-2.5-3.92-3.12-5.68,40.99,0,82.74,5.38,123.56,5.12Z"/>
  <path class="cls-25" d="M387.36,124.85c.13.68.6.85,1.14,1.14,1.41,2.63,1.71,5.93,2.18,8.9,5.02,32.06,8.98,64.32,13.76,96.4-.14.69-.88.24-1.17.35h-9.09c-2.46,0-4.93-.01-7.39,0-.38,0-.76,0-1.14,0-.95,0-1.89,0-2.84,0s-1.89,0-2.84,0c-.19,0-.38,0-.57,0-.95,0-1.89,0-2.84,0-.62,0-1.44-.16-1.7.57h-1.14c-.27-.72-1.08-.57-1.7-.57-2.07.02-3.79.55-5.68.57-.09,0-.36-.58-1.7-.57-.95.01-1.89-.01-2.84,0-.4,0-.53.57-.57.57-2.43.03-5.55-.65-8.52-.57-.4.01-.53.57-.57.57-.76.02-1.52-.04-2.27,0-.2,0-.88,0-1.14,0-.57,0-1.14,0-1.7,0-.77-.97-2.74-.57-3.98-.57-3,.01-5.6.44-8.52.57-1.12-1.03-3.51-.56-5.11-.57-3.02-.02-6.07-.07-9.09,0-.76.02-1.52-.02-2.27,0s-1.52-.02-2.27,0c-1.01.03-1.07.57-1.14.57-1.32.04-2.65-.04-3.98,0-.37-.9-2.47-.9-2.84,0-1.88,0-3.8.08-5.68,0-.28-.75-1.08-.53-1.7-.57-.55-.03-1.16-.04-1.7,0-.19.01-.38,0-.57,0-2.29.1-3.5.02-5.68,0-.38,0-.76,0-1.14,0-1.14-.01-2.27,0-3.41,0-.57,0-1.14,0-1.7,0-.95,0-1.89,0-2.84,0-.57,0-1.14,0-1.7,0-.38,0-.76,0-1.14,0-4.35-.02-8.72,0-13.07,0-.76,0-1.51,0-2.27,0-14.63-.02-32.69,1.29-46.86,0-3.8-.35-8.36-2.09-11.66-3.97-2.32-1.32-3.81-3.21-5.68-4.54-5.15-3.69-9.37-7.14-15.34-9.66-1.86-.78-5.65-2.21-7.39-2.27-13.85-2.91-28.72-2.21-42.91-2.82-1.34-.06-2.59-.57-3.93-.61-3.88-.14-7.79.15-11.67.02.23-.71,1.12-1.24,1.7-1.7,2.2-1.72,15.04-11.49,15.34-13.06l.57-.57c1.15-.57,9.09-8.51,9.66-9.66l.57-.57c1.64-2.36,3.67-4.14,5.68-6.25.43-.45.73-1.2,1.14-1.7.15-.19.39-.38.57-.57l1.93-1.17,92.08.03c5.81-.62,9.58-3.34,13.92-6.81,1.44-1.15,2.36-3.55,4.85-3.97l.83-1.14,1.7-1.7c1.9-1.1,3.07-3.04,4.54-4.54.55-.56,1.18-1.13,1.7-1.7,1.77-1.94,3.49-3.42,5.11-5.68,2.81-3.91,5.23-6.21,1.7-10.79-.43-.56-.59-.71-1.14-1.14-2.02-1.61-2.67-2.04-5.37-2.29-9.38-.88-21.02.17-30.72.05s-19.36-.57-28.93-.62c-10.1-.05-20.43-.38-30.42.59-.27-1.3,2.61-3.6,3.41-4.54l.57-1.14c.19-.19.37-.39.57-.57,2.08-1.92,3.54-2.59,6.51-2.86,11.09-1,23.07.54,34.08.62,51.78.37,103.71-.8,155.4.54ZM297.03,153.25c-2.44,1.66-3.67,4.76-3.97,7.68-.55,5.37-.5,16.17-.03,21.6.4,4.6,2.3,8.04,6.67,9.8,8.82-.44,28.48,5.19,30.22-7.6.68-4.99.6-19.24-.01-24.31-.41-3.38-2.28-7.05-5.62-8.3-2.9-1.08-18.06-.9-21.89-.59-2.25.18-3.54.47-5.38,1.72ZM374.86,190.74c2.72-2.22,3.12-3.52,3.43-7.08.49-5.73.55-17.07-.03-22.74-.4-3.97-2.79-8.31-7.08-8.83-4.66-.56-17.49-.53-22.18,0-4.06.46-6.66,4.4-7.09,8.25-.62,5.5-.55,18.29,0,23.85.48,4.79,3.3,8.29,8.23,8.81,4.57.49,15.34.5,19.89,0,2.56-.28,3.06-.83,4.83-2.27ZM221.48,204.38c-.61.32-.83.51-1.14,1.14-1.69,3.42-.02,5.35,3.38,6,4.31.82,19.63.81,24.19.26,6.26-.74,5.51-8.08-.87-7.97-7.52.5-15.87-.67-23.29,0-.93.08-1.42.12-2.27.57ZM266.92,206.65c-.99,3.42.14,4.77,3.7,5.1,5.03.47,19.73.74,24.39-.02,3.86-.63,4.39-4.93,1.44-7.05-8.25.24-17.67-1.7-25.83-.86-3.04.31-2.98.38-3.69,2.84Z"/>
  <path class="cls-7" d="M360.09,20.9c6.44-5.35,15.26-5.8,22.48-1.72,2.27,1.28,4.41,4.69,7.8,3.99.43-.09.43-.88.81-1.12,4.07-2.63,4.15-5.5,6.79-9.16,2.93-1.74,8.06-4.51,11.78-3.91,2.27.37,8.21,2.69,10,4.23,4.84,4.14,6.02,13.18,3.55,18.89-.36.83-1.76,1.41-2.26,2.03-.41.51-.06,1.34-.17,1.53-.19.32-.36.38-.57.57-3.63,3.35-13.84,2.62-18.42,1.67-3.35-.7-4.55-3.92-7.71.61-1.65,2.36-2.53,5.66-4.54,7.95-1.8-.53-1.56,1.08-2.78,1.45-4.44,1.35-11.67,1.02-16.1-.36-.77-.24.26-1.49-2.73-.83-.75.16-4.13,1.93-4.54,2.4-4.19,4.77-2.07,10.16-10.08,14.22-5.69,2.88-8.28,2.3-14.04,2.55-3.36.14-8.15,1.51-11.08-.4v-11.36c0-2.06,3.17-7.71,3.98-9.94.15-.21.41-.36.57-.57,1.86-1.5,3.7-3.11,5.99-3.95,3.51-1.29,6.1-.75,8.98-1.19,2.51-.38,7.87-1.71,8.65-4.46,1.05-3.74.21-8.85,3.08-12.55v-.57c.19-.05.47.07.57,0Z"/>
  <path class="cls-24" d="M275.44,140.19c1.37,1.68-.58,3.39-1.72,4.81-5.41,6.77-15.39,16.24-23.55,19.06l-.29.56-36.93.57,12.98-20.84c.46-.55.48-1.23.65-1.88.81-.25,1.13-.88,1.14-1.7.21-.09.43-.55.57-.57h47.15Z"/>
  <path class="cls-24" d="M186.82,140.19c2.83-.08,5.69.02,8.52,0,.38,0,.76,0,1.14,0,6.04-.06,12.14-.07,18.18,0,.76,0,1.52-.03,2.27,0s1.52-.02,2.27,0c-2.19,3.27-3.95,6.82-6.01,10.18-2.86,4.67-7.51,10.25-9.89,14.82h-22.16c-.18-.85-2.04-.88-2.27,0-.19,0-.38,0-.57,0l-15.34-.85c2.62-2.42,4.22-5.64,6.33-8.44.57-.76,1.54-1.11,2.1-1.87,1.92-2.6,8.23-13.37,10.61-13.82,1.37-.26,3.31.03,4.82-.01Z"/>
  <path class="cls-24" d="M340.77,74.86c3.67,5.11,1.84,12.2,2.28,18.18-.76.02-1.52-.02-2.28,0-.57.01-1.14-.02-1.7,0s-1.14-.01-1.7,0c-.38,0-.76,0-1.14,0s-.76,0-1.14,0-.76,0-1.14,0-.76,0-1.14,0c-.57,0-1.14,0-1.7,0s-1.14,0-1.7,0c-.95,0-1.89,0-2.84,0-.57,0-1.14,0-1.7,0-1.51,0-3.03,0-4.54,0-.57,0-1.14,0-1.7,0-.38,0-.76,0-1.14,0-.19,0-.38,0-.57,0-4.22.02-10.29-.55-14.2,0-1.82.25-1.02-.64-.87-1.72.69-5.16,1.21-10.87,3.71-15.32,1.38-.71,2.67-1.05,4.24-1.16,10.03-.7,20.87.57,30.98.02Z"/>
  <path class="cls-9" d="M120.36,246.41h9.09c17.71,1.63,35.57,2.07,53.4,2.84,1.32.06,2.66-.06,3.98,0,15.8.7,31.81,1.69,47.72,2.27,3.23.12,6.41.46,9.66.57l24.17,1.11c6.82.75,13.82,1.03,20.71,1.16,2.64.05,5.31-.08,7.95,0,7.32,1.16,15.04.75,22.46,1.11,24.97,1.23,49.61,1.63,74.68,1.73l66.47.57c-.59.94-2.15.57-3.12.58-134.11,1.66-267.33-9.17-401.11-13.64-1.1-.04-2.28.58-1.96-1.14,21.91.89,43.92,2.09,65.9,2.84Z"/>
  <path class="cls-20" d="M388.49,125.99s.34-.63.47-.52c.68.53,2.5,6.47,2.75,7.7,1.31,6.5,1.94,15.65,2.42,22.57l1.11.59c.14,8.5,2.14,15.98,3.26,24.56.93,7.16,2.32,14.81,2.47,21.45,0,.34,1.04.26,1.15.7.61,2.46.23,7.37.59,10.11.67,5.08,1.88,10.49,2.36,15.8.16,1.74,2.05,2.53-.68,3.82-50.17-.24-100.38.32-150.54,0l11.36-1.14c.76,0,1.51,0,2.27,0,3.87.95,9.2.95,13.07,0,.38,0,.76,0,1.14,0,.08.85,1.62.85,1.7,0,.95,0,1.89,0,2.84,0,.08.85,1.62.85,1.7,0,1.14,0,2.27-.01,3.41,0l.85.57.29-.57c2.18.02,3.39.1,5.68,0l.28.56.28-.56c.55-.04,1.15-.03,1.7,0,.27.74,1.08.54,1.7.57,1.88.08,3.8,0,5.68,0,.94,0,1.9.03,2.84,0,1.32-.04,2.65.04,3.98,0l1.14-.57c.76-.02,1.52.02,2.27,0,.24.88,2.09.85,2.27,0,3.01-.07,6.07-.02,9.09,0,1.07.97,3.57.63,5.11.57,2.92-.13,5.52-.56,8.52-.57.76.97,2.74.58,3.98.57.57,0,1.14,0,1.7,0h1.14c.75-.04,1.52.02,2.27,0l.57-.57c2.97-.08,6.1.6,8.52.57l.57-.57c.95-.01,1.89.01,2.84,0l1.7.57c1.89-.02,3.61-.55,5.68-.57l1.7.57h1.14l1.7-.57c.95,0,1.89,0,2.84,0l.28.56.28-.56c.95,0,1.89,0,2.84,0,.37.9,2.47.9,2.84,0,.38,0,.76,0,1.14,0,1.71.95,5.56.97,7.39,0h1.7l.28.56.28-.56h1.7c1.43,1.24,3.57.62,5.11,0,.29-.12,1.02.34,1.17-.35-4.78-32.08-8.74-64.35-13.76-96.4-.46-2.96-.77-6.27-2.18-8.9Z"/>
  <path class="cls-20" d="M293.05,123.15c30.2.12,60.37.56,90.63.6,1.06,0,2.12-.61,2.75-.59.1,0,1.78,1.5.92,1.69-51.69-1.34-103.62-.18-155.4-.54-11.01-.08-22.99-1.62-34.08-.62-2.97.27-4.43.94-6.51,2.86.03-1.06,2.37-3.25,3.41-3.41,32.75.09,65.53-.13,98.28,0Z"/>
  <path class="cls-13" d="M155.01,255.5c-40.82.27-82.57-5.12-123.56-5.12.62,1.76,2.06,4.15,3.12,5.68l-3.06-2.31-.92-4.5c2.79-.5,5.63.51,8.22.59,36.08,1.14,71.05,2.61,106.83,4.57,2.69.15,6.9-1.33,9.37,1.08Z"/>
  <path class="cls-13" d="M334.53,264.02c-.32-1.72.87-1.09,1.96-1.14,9.6-.41,20.95.98,30.68,1.16l91.12.08c.27.22,0,.91.08,1.03l-80.98.02c-1.34-.02-2.59-.59-3.93-.61-13.02-.22-25.95-.11-38.94-.54Z"/>
  <path class="cls-10" d="M314.07,335.59c7.23,2.31,14.69,7.53,22.72,10.22,9.64,3.24,17.67,3.77,27.94,2.09,23.11-3.78,32.13-21.75,57.84-9.48.37.18.77.38,1.14.57,1,.52,2.24,1.28,2.84,2.27-1.82-.19-3.77.25-5.59-.09-1.29-5.84-5.38-3.58-9.36-4.46-.45-.1-.15-1.03-1.2-1.17-1.38-.18-5.51-.18-6.89,0-1.05.14-.74,1.06-1.2,1.17-1.72.4-4.35-.28-6.18-.03-1.06.14-.73,1.06-1.21,1.17-.73.17-2.06-.23-2.41.07-.18.16.2,1.31-.36,1.7-.61.42-1.9.26-2.64.56-3.18,1.3-3.98,1.94-6.87,3.74-4.5,2.8-11.62,2.12-16.36,5.37-.47.32-.99,2.22-1.64.65l-.29-1.3c-4.99,1.25-10.75,2.44-15.92,1.74-1.63-.22-2.66-1.44-4.08-1.61-7.08-.84-11.67-2.57-17.23-6.02-2.11-1.31-3.96-1.54-6.1-2.58-4.46-2.16-4.88-2.3-9.97-3.46-.47-.11-.44-1.08-.67-1.14-1.69-.45-1.04,1.06-2.24,1.2-1.59.18-3.08-.44-4.48-.4-1.86.05-10.35.27-11.03,1.06-.41.48-.49,1.99-.71,2.7l-3.94-.53-.06,1.6-4.51.06v2.28c-4.16-1.84-3.75,1.38-4.62,2.19-.17.16-3.39.44-4.47.65-1.19.23-2.5.09-3.41,1.14-.23-.11-.8.07-1.14,0l-9.66,2.84c-1.14,0-2.27,0-3.41,0-1.15-.94-4.42-.97-5.68,0-.76,0-1.52,0-2.27,0l-11.93-2.84c-.07-.06-1.49-1.05-1.58-1.09-2.58-1.16-6.39-1.98-9.16-2.95-.2-.26-.01-.75-.05-1.08-2.16-.73-5.36-1.05-6.97-1.83-2.02-.98-2.42-3.38-6.05-4.18-3.12-.68-5.97.42-8.21.17-1.11-.12-2.14-1.75-2.9-1.55-.53.14-.6,1.56-1.26,1.72-2.72.68-8.65-1.83-8.76,2.18-3-1.2-4.43,2.26-4.87,2.36-1.38.32-4.02-.31-5.48.53-.62.36-.22,1.28-.48,1.57-.72.78-3.26-.2-2.77,2.35-.42.41-4.06-.17-5.23.09-.42.1-.46.94-.83,1.08-.91.32-3.13.47-3.42.73-.28.24-.21,1.37-.64,1.9-1.55,1.91-5.69.32-7.72.37-4.64.1-9.48.91-14.2.45s-13.84-3.66-18.62-5.11c-.59-.18-1.99-3.23-4.4-2.27l.57-1.7c-1.64-.53-3.71.07-5.22-.6-1.16-.52-1.42-1.83-4.25-2.99-.19-.08-.2-.84-.58-.93-3.07-.73-18.65-.41-21.66.37-.53.14-5.48,2.36-5.68,2.6-.27.31.03,1.3-.15,1.48-.24.23-2.68,0-3.8.46-1.26.52-1.71,3.62-5.21,2.53l-.34,1.68c-3.74-1.18-6.48,1.69-9.63,1.71-.58,0-4-.55-4.19-.71-.29-.23.01-.89-.08-1.04,8.42,2.09,17.28-4.1,24.43-7.95,1.11.19,1.7-.86,2.27-1.14.35-.17.91-.49,1.14-.57,22.05-7.57,34.73,9.79,55.1,12.5,7.94,1.05,15.67.04,23.29-2.27,5.39-1.64,11.34-4.1,15.91-7.38.43-.2.81-.42,1.14-.57,1.74.38,2.91-1.25,3.98-1.7,1.37-.59,5.56-2.09,6.82-2.27.18-.03.38.02.57,0,6.58-.72,13.06.3,19.13,2.74,3.29,1.32,5.82,3.38,9.27,4.08.05.37-.05.77,0,1.14,19.58,6.6,28.33,10.05,48.86,2.27.17-.06.4.06.57,0,13.89-5.44,22.21-14.33,38.63-9.09Z"/>
  <path class="cls-27" d="M297.03,254.36c22.24.69,44.91,1.25,67.34,1.68,1.34.03,2.59.59,3.93.61,30.71.53,61.56-.33,92.23-.16l.1-1h1.14c-.26.78-.59,1.14-1.14,1.7-22.15-.07-44.32.09-66.47,0-25.07-.1-49.71-.5-74.68-1.73-7.42-.36-15.15.04-22.46-1.11Z"/>
  <path class="cls-27" d="M63.55,212.33c6.62.22,13.27.33,19.88.57l92.03,5.68c-44.15-3.58-90.19-4.59-134.64-6.25v-.57c7.57.28,15.15.32,22.72.57Z"/>
  <path class="cls-14" d="M415.19,238.46c-33.51-.06-67.04.05-100.55,0-1.14,0-2.27,0-3.41,0-22.9-.03-45.84.21-68.74,0h172.7Z"/>
  <path class="cls-9" d="M202.73,232.78c-3.98-2.3-7.44-5.06-11.36-7.38-.42-.25-.8-.38-1.14-.57-3.74-3.42-9.16-5.85-14.2-6.25-.19-.01-.38.02-.57,0l-92.03-5.68c17.84.65,36.23,1.29,54.26,2.27,11.61.63,24.96.15,36.29,1.78,11.51,1.65,19.85,9.17,28.76,15.84Z"/>
  <path class="cls-13" d="M236.81,258.34c27.46.88,54.89,3.09,82.06,3.39.75,0,1.62.38,2.41.51,1.06.18,2.21-.48,1.88,1.21l-86.35-3.98v-1.14Z"/>
  <path class="cls-21" d="M415.19,238.46c.38,0,.76,0,1.14,0,1.51,0,3.03,0,4.54,0h38.91c.68,0-.28.5-.28.57h-59.08c-11.35,0-22.73,0-34.09,0-5.58,0-11.18-.08-16.77,0-.96.01-2.53-.36-3.12.58h-1.7c-.54-.91-2.84-.93-3.41,0h-5.68c-.37-.9-2.47-.9-2.84,0h-2.84c-1.26-.97-4.53-.94-5.68,0h-3.98c-1.33-1.47-4.35.33-5.68-1.14,33.51.05,67.04-.06,100.55,0Z"/>
  <path class="cls-6" d="M253.86,232.78c50.17.32,100.38-.24,150.54,0-.56.27-.98.88-1.93.61-50.39-.48-100.8.5-151.18-.03-.96-.01-2.53.36-3.12-.58,1.89.02,3.79-.01,5.68,0Z"/>
  <path class="cls-27" d="M24.92,241.3c.95.64,2.02.56,3.1.59,30.15.91,60.25,2.19,90.38,3.38,1.09.04,2.28-.58,1.96,1.14-21.98-.75-43.99-1.95-65.9-2.84-3.58-.15-7.22.18-10.79,0-1.08-.05-2.1-.51-3.12-.56-5.19-.25-10.43-.21-15.62-.59-.11-.35.09-.88,0-1.12Z"/>
  <path class="cls-19" d="M282.26,135.08c-2.67-.58-5.11-2.11-7.95-1.7h-86.35c-.34-.14-1.1.14-1.14-.57,9.99-.97,20.32-.64,30.42-.59,9.56.04,19.45.5,28.93.62s21.34-.93,30.72-.05c2.7.25,3.35.68,5.37,2.29Z"/>
  <path class="cls-19" d="M262.95,165.75c-4.35,3.47-8.12,6.19-13.92,6.81l-92.08-.03-1.93,1.17c.64-.68-.26-1.93,2.53-2.3,5.03-.67,10.98.53,15.91.62,11.26.19,22.57-.04,33.82-.02,12.49.02,26.97.9,39.2,0,2.3-.17,5.2-.68,7.37-1.43,3.3-1.14,5.91-3.65,9.1-4.81Z"/>
  <path class="cls-16" d="M459.5,239.03c-.01.27,0,.45.29.56,1.31-.24,4.04,1.96,4.27,3.12.37,1.93-1.54,10.59-2.29,12.79h-1.14c.11-3.98,5.46-13.65-.53-15.09-20.07-.47-40.18-.22-60.26-.25v-.57c.15-.02.38-.43.57-.57h59.08Z"/>
  <path class="cls-21" d="M242.49,238.46c22.9.21,45.84-.03,68.74,0v1.14h-2.84c-.08-.85-1.62-.85-1.7,0h-2.27c-.59-.94-2.16-.57-3.12-.58-16.19-.17-32.4.09-48.58,0-11.68-.06-39.31,2.28-48.08-4.18-.57-.42-1.07-1.43-1.91-2.06,13.54,7.82,24.61,5.54,39.77,5.68Z"/>
  <path class="cls-13" d="M212.95,257.77v.57c-18.95-.87-37.91-1.42-56.81-2.84,19.27-.18,37.72,1.28,56.81,2.27Z"/>
  <path class="cls-20" d="M121.49,206.08c-.59.46-1.48.99-1.7,1.7,3.87.14,7.79-.16,11.67-.02,1.34.05,2.59.56,3.93.61,14.2.61,29.07-.1,42.91,2.82-15.95-.53-36.75-.61-52.58-2.81-1.45-.2-7.5.8-6.23-1.74.22-.44,1.66-1.84,2-.56Z"/>
  <path class="cls-15" d="M265.22,231.64l-11.36,1.14c-1.89-.01-3.79.02-5.68,0-12.24-.1-25.15.41-37.35-1.54l-4.12-3.57c3.3,1.88,7.85,3.62,11.66,3.97,14.17,1.3,32.23-.01,46.86,0Z"/>
  <path class="cls-6" d="M293.05,123.15c-32.75-.13-65.53.09-98.28,0h98.28Z"/>
  <path class="cls-26" d="M425.99,325.37c.03.93-3.51,4.51-3.81,4.58-.99.22-6.69-1.83-8.56-2.15-19.28-3.27-28.22,7.67-45,12.06-13.85,3.62-31.63,1.46-43.58-6.15-17.01-10.83-29.5-6.78-46.19,1.89v-1.14c3.13-1.37,6.13-3.33,9.27-4.64,29.52-12.33,41.87,13.18,70.53,10.88,20.12-1.62,33.42-17.62,54.4-14.05,2.68.46,7.25,2.68,9.49,1.82,1.07-.41,2.5-2.28,3.44-3.1Z"/>
  <path class="cls-26" d="M222.04,331.05l-15.69-3.9c-17.69-1.68-31.71,13.65-48.23,14.69-8.97.56-14.02-.46-21.89-3.12-.92-.31-2.01.1-1.68-1.41,11.19,4.15,21.81,4.76,33.25,1.16,21-6.61,29.93-19.61,54.23-7.4Z"/>
  <path class="cls-13" d="M278.85,334.46v1.14c-15.49,8.05-28.21,7.98-44.45,2.11-3.65-1.32-5.98-1.95-8.95-3.82l.57-.56c12.88,6.06,25.61,9.52,39.88,6.08,4.51-1.09,8.74-3.1,12.95-4.95Z"/>
  <path class="cls-6" d="M274.31,133.37c-.59.94-2.16.57-3.12.58-27.1.34-54.21-.3-81.31.03-.9.25-1.38-.38-1.92-.61h86.35Z"/>
  <path class="cls-9" d="M43.66,243.57c-1.83,1.47-4.47.05-6.51-.02-4.1-.14-8.13.74-12.1-.11l-16.73-25.02c-5.45-12,8.95-8.54,15.72-8.33,12.52.38,25.03.62,37.54,1.11,1.09.04,2.28-.58,1.96,1.14-7.57-.25-15.16-.29-22.72-.57-7.39-.27-14.89-.98-22.46-1.11-3.65-.07-10.97-2.34-10.52,4.23.19,2.83,8.97,15.24,11.16,18.42,1.44,2.1,3.04,4.47,4.78,6.3.25.44.61.39,1.14,1.7.1.24-.11.77,0,1.12,5.19.38,10.43.33,15.62.59,1.03.05,2.04.51,3.12.56Z"/>
  <path class="cls-3" d="M343.61,102.13h-.57l-.81-1.18c-13.7-.35-27.54.62-41.22.04-.32-1.72.87-1.09,1.96-1.14,12.86-.51,25.82.4,38.68-.03l1.71.58c.37.47.19,1.18.25,1.72Z"/>
  <path class="cls-26" d="M458.37,265.16c.13.19.89.28,1,.9.12.67-.6,3.17-.82,4.12-3.23,14.12-11.57,31.92-21.2,42.7.13-.96.65-1.74,1.23-2.48,6.56-8.46,12.46-20.26,15.97-30.59.61-1.8,4.36-14.11,3.81-14.65Z"/>
  <path class="cls-27" d="M301.01,100.99c13.68.58,27.52-.39,41.22-.04l.81,1.18v14.2l-.57.57h-.57v-1.14c0-4.73,0-9.48,0-14.2h-40.91c-.08.73.12,1.58,0,2.28h-.57c.21-.32-.15-2.19,0-2.84.18.03.38,0,.57,0Z"/>
  <path class="cls-22" d="M316.91,93.04l.28.56.28-.56c.38,0,.76,0,1.14,0,.08.85,1.62.85,1.7,0,1.51,0,3.03,0,4.54,0,.08.85,1.62.85,1.7,0,.95,0,1.89,0,2.84,0,.08.85,1.62.85,1.7,0,.57,0,1.14,0,1.7,0l.85.57.29-.57c.38,0,.76,0,1.14,0l.85.57.29-.57c.38,0,.76,0,1.14,0,.08.85,1.62.85,1.7,0,.57-.02,1.14.01,1.7,0l1.42,1.14h-40.33c-.89-.29.78-1.13.85-1.14,3.91-.55,9.98.02,14.2,0Z"/>
  <path class="cls-29" d="M460.64,257.2c-.08.09.08.54,0,.57l-66.47-.57c22.15.09,44.32-.07,66.47,0Z"/>
  <path class="cls-23" d="M305.55,76c.07-.13-1.47-.47,1.6-1.52,4.38-1.5,6.19-.13,10.04-.13,5.5,0,11.5-.77,17.07-.64,2.23.05,4.66,1.06,7.08.6l-.57.56c-10.11.54-20.95-.72-30.98-.02-1.57.11-2.86.45-4.24,1.16Z"/>
  <path class="cls-26" d="M197.62,334.46c3.64-2.17,9.04-1.1,12.97-.18,3.61.85,6.38,2.41,9.34,3.75,1.99.9,3.9,1.69,6.03,2.21.23.27.03.73.07,1.04,3.56.72,6.8,3.18,10.7,4.35,13.09,3.95,25.21,3.11,38.15-.94-20.52,7.78-29.28,4.33-48.86-2.27-.05-.37.05-.77,0-1.14-3.45-.7-5.98-2.76-9.27-4.08-6.08-2.44-12.56-3.46-19.13-2.74Z"/>
  <path class="cls-23" d="M336.8,345.82c12.81,3.32,25.24,3.14,37.78-1.13,18.67-6.36,24.49-17.18,46.41-7.76.84.36,1.9-.02,1.59,1.51-25.71-12.27-34.73,5.7-57.84,9.48-10.27,1.68-18.3,1.15-27.94-2.09Z"/>
  <path class="cls-21" d="M341.91,116.9h.57l-1.36.6c-14.19-.57-28.83.65-42.95-.03v-.57h43.74Z"/>
  <path class="cls-20" d="M334.53,41.35c-.57.56-1.18,1.59-1.7,2.27-.16.21-.42.35-.57.57-5.16,7.21-6.16,13.81-4.54,22.72.36.06.84-.09,1.14,0,.61.18.48,0,.57,0,1.88.09,3.8-.06,5.68,0l.45.39c.34.11.59-.39.68-.39.38,0,.76,0,1.14,0,.3,0,.63.02,1.14,0,10.91-.39,17.77-1.12,23.21-11.73,1.51-2.95.75-5.6,4.72-6.63,7.03-1.83,13.04,5.56,22.06-.95v.57c-.89.69-1.99,1.08-2.55,2.14l-9.13,1.2c-2.07-.8-4.76-2.33-6.93-2.65-6.3-.94-6.91,6.7-10.07,10.68-7.9,9.99-19.38,8.32-30.72,8.79-1.75-.06-1.23-1.26-1.39-1.42-.13-.13-1.42.28-1.52-1.48.5-8.76-.26-19,8.34-24.08Z"/>
  <path class="cls-22" d="M249.88,164.61l.58.56c-11.38.51-24.12,1.29-35.52.58-.73-.05-1.88.35-1.98-.57l36.93-.57Z"/>
  <path class="cls-22" d="M178.3,165.18c.19,0,.38,0,.57,0,.76,0,1.51,0,2.27,0h22.16s1.06.46.28.57h-39.76s1.12-.57,1.12-.57h13.36Z"/>
  <path class="cls-1" d="M359.52,20.9v.57c-5.66,3.75-.71,14.01-8.27,15.3-5.26.9-11.16-.03-15.59,4.01v-.57c5.35-4.5,8.31-3.27,14.44-4.02,2.86-.35,3.26-1.23,4.86-3.2-.38-4.77,1.05-8.45,4-12.09h.57Z"/>
  <path class="cls-6" d="M246.47,172c-12.23.9-26.71.02-39.2,0h39.2Z"/>
  <path class="cls-23" d="M90.81,336.16c1.11-.93,3.61-1.81,4.98-2.12,18.95-4.23,32.27,11.99,50.12,14.05v.57c-20.37-2.7-33.05-20.07-55.1-12.5Z"/>
  <path class="cls-4" d="M420.31,12.38c.08.06.64.69,1.14,1.14,5.57,6.73,5.85,14.58.57,21.59-.36.22-.77.36-1.14.57.11-.19-.24-1.02.17-1.53.5-.61,1.9-1.2,2.26-2.03,2.47-5.71,1.29-14.75-3.55-18.89-1.79-1.53-7.73-3.86-10-4.23-3.71-.6-8.85,2.17-11.78,3.91-2.64,3.65-2.72,6.53-6.79,9.16-.38.25-.38,1.04-.81,1.12-3.4.7-5.54-2.71-7.8-3.99-7.22-4.08-16.05-3.63-22.48,1.72.5-.39,1.16-1.75,1.7-2.27.19-.19.37-.38.57-.57,6.55-3.1,11.83-3.88,18.57-.67,3.33,1.59,5.16,4.92,9.54,4.07,2.59-.5,4.02-5,5.51-6.99,6.02-8.02,16.79-7.82,24.33-2.09Z"/>
  <path class="cls-10" d="M78.88,322.53c.16.18.37.87,1.14,1.7.61.66,1.2,1.17,1.7,1.7,1.08,1.16,1.89,2.66,3.41,3.41.09.11-.09.47,0,.57l-3.98,2.84c-5.73,2.52-10.06,3.88-15.91,5.68-.66-2.7,2.64-1.5,4.55-1.98,2.48-.63,5.19-2.77,7.54-3.82,2.18-.97,5.44-.27,4.94-3.53s-3.26-2.1-4.56-4c-.95-1.39-.96-3.8-2.25-5.42.96.84,2.62,1.96,3.41,2.84Z"/>
  <path class="cls-26" d="M169.21,345.82v.57c-7.62,2.32-15.35,3.33-23.29,2.27v-.57c6.72.77,16.75-.41,23.29-2.27Z"/>
  <path class="cls-9" d="M300.44,100.99c-.15.65.21,2.52,0,2.84-.03.05-.99-.24-1.14.38-.49,1.92-1.56,9.34-1.67,11.38-.03.57.06.96.54,1.3v.57c-.38-.02-.76.03-1.13,0l2.27-17.04c.68-.25,1.07.55,1.13.57Z"/>
  <path class="cls-20" d="M362.36,18.06c5.21-4.99,13.35-4.15,19.44-.98,2.62,1.36,5.25,4.55,8.55,3.8.41-1.13,1.74-1,2.14-1.49,2.34-2.85,2.73-5.86,6.51-8.71,6.24-4.72,16.44-4.65,21.3,1.7-7.54-5.73-18.31-5.94-24.33,2.09-1.49,1.99-2.92,6.49-5.51,6.99-4.38.85-6.21-2.48-9.54-4.07-6.74-3.21-12.02-2.43-18.57.67Z"/>
  <path class="cls-20" d="M201.02,223.12c-1.58.33-2.95-.92-4.22-1.71-3.26-2.04-5.98-4.35-9.3-6.07-.91-.47-1.92-.31-1.82-1.87,5.97,2.51,10.19,5.97,15.34,9.66Z"/>
  <path class="cls-26" d="M314.07,335.59c-16.42-5.24-24.74,3.65-38.63,9.09-.21-1.73,2.08-1.31,3.38-2.05,1.74-1,2.02-.9,3.46-1.61,10.8-5.37,16.03-9.72,29.35-6.67.95.22,2.09,0,2.45,1.25Z"/>
  <path class="cls-3" d="M394.74,38.51l.57.57c-1.5,2.04-1.97,5.04-4.17,7.19-.65.64-1.84,1.28-2.65,1.9v-.57c.65-.47.69-.63,1.14-1.14,2.01-2.29,2.9-5.59,4.54-7.95h.57Z"/>
  <path class="cls-20" d="M422.01,35.1c5.28-7.01,5-14.86-.57-21.59,5.7,5.2,7.76,17.2.57,21.59Z"/>
  <path class="cls-23" d="M214.66,140.19c-6.04-.07-12.14-.06-18.18,0,.59-.94,2.16-.57,3.12-.58,3.97-.05,7.97-.04,11.95,0,.96.01,2.53-.36,3.12.58Z"/>
  <path class="cls-23" d="M236.81,258.34v1.14c-4.16-.17-8.33-.38-12.5-.57,3.76-.95,8.55-.69,12.5-.57Z"/>
  <path class="cls-23" d="M435.65,326.51c-2.02,2.25-4.04,4.45-6.24,6.53,0,1.02,7.8,3.69,9.08,4.26,4.81,2.14,8,1.6,6.25,7.95-.04.15-.48.35-.57.57-5.87,2.79-12.17-3.65-17.04-4.54-.18-.03-.38.02-.57,0-.6-.99-1.84-1.75-2.84-2.27.23-1.09,1.59.32,1.97.59,2,1.4,8.66,4.52,11.22,5.25,5.15,1.47,8.86,1.97,6.7-5-2.02-.58-14.71-5.1-15.3-6.01-.82-1.29.45-1.85,1.6-1.99l5.74-5.34Z"/>
  <path class="cls-21" d="M343.05,116.33v-14.2h.57c.31,3.02.37,9.86.03,12.84-.06.55-.04,1.05-.6,1.36Z"/>
  <path class="cls-20" d="M395.31,39.08l-.57-.57c3.34-2.97,7.83,1.02,11.79,1.56,5.39.73,9.23-.6,13.77-3.26-2.61,3.99-10.12,4.6-14.45,3.94-2.96-.45-8.35-4.65-10.54-1.67Z"/>
  <path class="cls-19" d="M281.69,147l2.22-5.44-.52-5.35c3.52,4.58,1.11,6.88-1.7,10.79Z"/>
  <path class="cls-23" d="M212.95,257.77c2.36.12,4.76-.08,7.13,0,1.09.04,2.28-.58,1.96,1.14-3.02-.14-6.04-.43-9.09-.57v-.57Z"/>
  <path class="cls-23" d="M195.34,140.19c-2.83.02-5.69-.08-8.52,0,2.22-.96,6.42-.95,8.52,0Z"/>
  <path class="cls-23" d="M85.13,329.91c.09.1.81-.08,1.14,0-.84,1.93-3.41,2.09-5.11,2.84l3.98-2.84Z"/>
  <path class="cls-26" d="M429.4,322.53c-.71.53.46.11-1.7,1.14.13-.95,1.58-.99,1.7-1.14.98-1.11,1.32-1.94,2.84-3.41-.03,2.57-1.68,2.54-2.84,3.41Z"/>
  <path class="cls-23" d="M185.12,339c-4.57,3.29-10.52,5.75-15.91,7.38v-.57c4.89-1.39,11.11-4.64,15.91-6.82Z"/>
  <path class="cls-26" d="M436.78,313.44c.46,1.83-1.06,1.84-1.72,2.69-1.22,1.56-1.1,1.3-2.25,2.43.79-2.11,2.56-3.57,3.98-5.11Z"/>
  <path class="cls-20" d="M361.79,18.63c-.55.52-1.21,1.88-1.7,2.27-.09.07-.38-.05-.57,0h-.57c.79-.97,1.34-2.26,2.84-2.27Z"/>
  <path class="cls-14" d="M420.87,238.46c-1.51,0-3.03,0-4.54,0,.9-.96,3.67-.95,4.54,0Z"/>
  <path class="cls-23" d="M190.23,336.73c-1.06.46-2.23,2.08-3.98,1.7.93-.42,2.11-1.52,3.41-1.7h.57Z"/>
  <path class="cls-22" d="M227.72,140.76c0,.83-.32,1.46-1.14,1.7.11-.43-.21-1.14.07-1.64.23-.26.86.02,1.06-.07Z"/>
  <path class="cls-26" d="M197.05,334.46c-1.25.18-5.44,1.68-6.82,2.27h-.57c1.43-1.47,4.2-1.05,5.16-2.47l2.23.19Z"/>
  <path class="cls-23" d="M219.2,140.19c-.75-.02-1.52.03-2.27,0,.24-.88,2.09-.85,2.27,0Z"/>
  <polygon class="cls-19" points="268.63 160.64 268.33 160.06 270.33 158.93 268.63 160.64"/>
  <path class="cls-10" d="M61.84,342.41c0,.38,0,.76,0,1.14-.15-.17-1.77.43-1.13-1.13h1.13Z"/>
  <path class="cls-23" d="M80.02,324.23c-.77-.83-.98-1.53-1.14-1.7.25.35,1.37.55,1.14,1.7Z"/>
  <path class="cls-23" d="M89.68,336.73c-.57.27-1.16,1.32-2.27,1.14l-.58-.56,2.85-.58Z"/>
  <path class="cls-19" d="M276.58,152.69c-.52.57-1.15,1.14-1.7,1.7.08-1.01.65-1.67,1.42-2.26l.28.56Z"/>
  <path class="cls-23" d="M81.73,325.94c1.38,0,2.39,2.26,3.41,3.41-1.52-.75-2.32-2.25-3.41-3.41Z"/>
  <path class="cls-4" d="M359.52,21.47c-2.87,3.7-2.02,8.81-3.08,12.55-.77,2.75-6.14,4.07-8.65,4.46-2.89.44-5.47-.1-8.98,1.19-2.29.85-4.13,2.46-5.99,3.95.53-.68,1.14-1.71,1.7-2.27.19-.19.37-.39.57-.57h.57c4.43-4.04,10.33-3.11,15.59-4.01,7.56-1.3,2.61-11.56,8.27-15.3Z"/>
  <path class="cls-20" d="M190.23,128.26c.08-.1.05-.6.57-1.14l-.57,1.14Z"/>
  <path class="cls-19" d="M137.4,192.45l-.57.57-.58-.56c.35-.09.93.1,1.14-.01Z"/>
  <path class="cls-19" d="M147.62,182.22l-.57.57c.11-.22-.08-.79.01-1.14l.56.58Z"/>
  <path class="cls-19" d="M153.3,175.97l-.56-.28c.3-.67,1.39-1.04,1.69-1.42-.41.5-.71,1.26-1.14,1.7Z"/>
  <path class="cls-20" d="M335.66,40.78h-.57c.2-.18.36-.4.57-.57v.57Z"/>
  <path class="cls-4" d="M420.31,36.24v.57c-4.54,2.67-8.38,3.99-13.77,3.26-3.96-.54-8.45-4.53-11.79-1.56h-.57c3.16-4.52,4.35-1.31,7.71-.61,4.58.96,14.79,1.68,18.42-1.67Z"/>
  <path class="cls-18" d="M49.91,318.55c4.81.34,3.41.48,5.68,3.7,1.84,2.61,1.36,2.23,2.58,4.81.78,1.65,3,2.26,1.99,5.68,1.73-.15,3.65.38,2.53,2.3-2.54-1.03-8.59.99-6.84,4.54.77,1.55,3.82,1.07,3.14,4.79-.16.88-1.12,1.59-1.13,2.32-.05,1.86,2.58,2.21,3.98,1.98v2.84c1.6-.01,3.38-.16,4.89.51s1.46,1.86,2.52,2.59c.76.52,2.2.53,2.83,1.14,1.17,1.13.29,4.86.55,6.55-1.89-.4-3.68.47-5.4.57-.92.05-1.9-.65-2.82-.57-1.03.09-1.66,1.16-2.56,1.44-1.37.43-4.61-.27-6.27.53-.74.36-1.05,1.7-1.72,2.25-2.19,1.8-7.55.25-10.45.36-.91.04-2.35.31-2.02,1.65-1.13-.02-2.28.05-3.41,0-.23-2.65-3.79-1.88-5.43-2.8-2.31-1.3-2.46-3.66-3.41-5.11-.56-.86-2.71-1.25-2.49-2.52l2.24-3.19c.75-.03,1.52-.02,2.27,0,3.35.09,6.38.21,9.66,1.13-1.55-3.85,2.18-4.15,4.47-6.04l.04-5.01,1.76-.6c-.01-4.63-2.67-7.16-7.18-7.6-2.51-.24-4.18.58-6.16.53-4.02-.12-8.13-.53-12.24-.59-.57,0-1.14,0-1.7,0h-1.7c-1.32,0-2.65,0-3.98,0-2.22-3.16-.97-5.46-1.14-9.09,5.18,1.81,7.02-3.49,10.65-4.4,2.56-.64,5.9.39,8.61-.76l.13-2.71c3.29-2.12,3.55.88,4.21,1.04.44.11,3-1.34,4.08-1.56s3.75-.62,4.7-.7c1.35-.11,3.18-.1,4.54,0Z"/>
  <path class="cls-10" d="M444.17,345.82c-.17.42.41,1.55-.32,1.73-4.86.95-8.72-2.89-13.31-1.72.86-3.9-2.96-1.66-3.41-4.55,4.87.89,11.18,7.34,17.04,4.54Z"/>
  <path class="cls-11" d="M269.76,347.52l-.33,2.85c-3.11,0-6.23-.03-9.33-.01l9.66-2.84Z"/>
  <path class="cls-11" d="M248.74,350.36c-3.28-.03-6.57,0-9.85.03-.79-1.37-.82-1.78-2.08-2.87l11.93,2.84Z"/>
  <path class="cls-10" d="M441.89,337.3c.18.02.65.57,1.7.57.14.64.84.82,1.14,1.14.6.65,1.13,1.59,1.7,2.27.06,1.39.17,3.09-1.14,3.98h-.57c1.75-6.35-1.44-5.81-6.25-7.95,1.12.08,2.3-.11,3.41,0Z"/>
  <path class="cls-2" d="M446.44,341.27c.06.08.91-.31,1.32.68.49,1.18.4,2.61.38,3.87l-2.84-.57c1.31-.89,1.2-2.59,1.14-3.98Z"/>
  <path class="cls-11" d="M274.31,346.39c-.03.88-.66,1.99-1.53,2.22-1.46.38-1.65-.97-1.88-1.08.91-1.05,2.22-.91,3.41-1.14Z"/>
  <path class="cls-11" d="M256.7,350.36c-1.89.02-3.79.02-5.68,0,1.26-.97,4.53-.94,5.68,0Z"/>
  <path class="cls-10" d="M74.34,318.55c-.38-.14-1.45.22-1.66-.04-.19-.23-.07-2.77-1.18-3.37l2.84,3.41Z"/>
  <path class="cls-2" d="M443.6,337.87c.26,0,1.06-.8,1.7-.57l-.56,1.7c-.3-.32-.99-.5-1.14-1.14Z"/>
  <path class="cls-28" d="M28.89,354.91l-2.24,3.19c-.23,1.27,1.93,1.66,2.49,2.52.95,1.46,1.09,3.81,3.41,5.11,1.64.92,5.2.15,5.43,2.8-3.84-.16-8.86.01-12.51-1.4-2.06-.8-1.51-2.39-2.23-2.88-1.28-.86-4.3.71-5.04-2.94-.83-4.06,3.7-1.64,3.88-1.86-.8-5.49,2.92-4.41,6.82-4.54Z"/>
  <polygon class="cls-28" points="19.8 336.73 19.52 337.87 18.1 337.86 18.1 336.73 19.8 336.73"/>
  <path class="cls-3" d="M324.3,152.12c3.34,1.25,5.21,4.92,5.62,8.3.62,5.07.69,19.33.01,24.31-1.74,12.79-21.4,7.16-30.22,7.6-4.37-1.76-6.28-5.2-6.67-9.8-.47-5.43-.52-16.22.03-21.6.3-2.92,1.53-6.01,3.97-7.68v.57l-2.11,3.14c.38.99-.68,1.99-.73,2.54-.8,7.67.59,16.61,0,24.43l.02,1.29c1.74,1.11,1.26,2.98,3.1,4.4,1.01.78,4.97,2.16,6.25,2.28,3.58.35,8.87-.6,12.51-.65,1.9-.03,4.92.72,6.76.62.37-.02.25-.96.74-1.11.72-.21,1.71.18,2.45-.28.4-.25,1.43-3.02,1.76-3.79.22-.5,1.03-.93,1.06-1.06.33-1.32.33-25.4,0-26.7-.05-.2-1.85-3.22-1.99-3.41-.83-1.1-2.65-1.21-2.56-2.84v-.57Z"/>
  <path class="cls-3" d="M266.92,206.65c.71-2.46.65-2.53,3.69-2.84,8.16-.83,17.58,1.11,25.83.86,2.95,2.12,2.42,6.42-1.44,7.05-4.66.76-19.36.5-24.39.02-3.56-.34-4.69-1.69-3.7-5.1-.44.58,1.52,2.96,2.27,3.41.89.53.85.5,1.93.61,5.28.51,18.23.6,23.41,0,.89-.1.88-.35,1.36-.6,1.66-.87,1.22-2.22,1.07-3.94l-1.65-.04.58-1.13c-1.12.06-2.29-.1-3.41,0l-23.86.57-1.7,1.14Z"/>
  <path class="cls-3" d="M223.75,203.81v.57c-.27-.05-.67.22-.57.57-.56-.04-1.14.02-1.7,0v-.57c.85-.45,1.35-.48,2.27-.57Z"/>
  <path class="cls-3" d="M220.34,205.51h.57c-.08.11.07.39,0,.57-.38,1-.79,1.91-.6,3.03.11.52,1.26.75,1.74.95,1.1.46.98.46,2.27.57,8,.68,16.89-.51,25,0l1.76-3.71c-.4-.91-1.34-2.1-2.33-1.97-8.2-.53-16.88.97-25-.57,7.12-.04,14.25.04,21.37.04,1.04,0,1.82-.61,1.92-.61,6.37-.12,7.12,7.22.87,7.97-4.56.54-19.88.56-24.19-.26-3.4-.65-5.07-2.58-3.38-6Z"/>
  <path class="cls-20" d="M374.86,190.74c-1.76,1.44-2.26,1.99-4.83,2.27-4.55.5-15.32.49-19.89,0-4.93-.53-7.75-4.02-8.23-8.81-.56-5.56-.63-18.36,0-23.85.43-3.85,3.03-7.79,7.09-8.25,4.7-.53,17.52-.56,22.18,0,4.29.52,6.68,4.86,7.08,8.83.57,5.67.52,17.01.03,22.74-.31,3.56-.71,4.86-3.43,7.08,1.11-.82,2.12-3.97,2.27-5.39.55-5.1.72-21.26-.04-26.1-.48-3.09-3.12-6.05-6.21-6.57s-18.46-.5-21.59,0c-2.29.36-5.83,2.96-6.22,5.43-.78,4.92-.62,22.04-.03,27.24.51,4.57,2.63,6.16,7.08,6.55,5.07.45,16.09.55,21.06,0,.66-.07,3.28-.86,3.68-1.15Z"/>
  <path class="cls-19" d="M324.3,152.12v.57c-8.77-.48-18.95-1.9-27.27,1.14v-.57c1.84-1.26,3.12-1.54,5.38-1.72,3.83-.31,18.99-.49,21.89.59Z"/>
  <path class="cls-15" d="M248.74,204.94c-8.4,1.13-17.13.55-25.56,0-.1-.35.3-.62.57-.57,8.12,1.54,16.8.04,25,.57Z"/>
  <path class="cls-15" d="M247.04,203.81c-.1,0-.88.61-1.92.61-7.12,0-14.25-.08-21.37-.04v-.57c7.42-.67,15.77.5,23.29,0Z"/>
  <path class="cls-15" d="M280.56,231.64c-3.87.95-9.2.95-13.07,0,4.35,0,8.72-.02,13.07,0Z"/>
  <path class="cls-15" d="M394.17,231.64c-1.82.97-5.68.95-7.39,0,2.46-.01,4.93,0,7.39,0Z"/>
  <path class="cls-15" d="M334.53,232.21c-1.54.07-4.04.4-5.11-.57,1.6,0,3.99-.46,5.11.57Z"/>
  <path class="cls-15" d="M403.26,231.64c-1.54.62-3.68,1.24-5.11,0h5.11Z"/>
  <path class="cls-15" d="M347.02,232.21c-1.23.01-3.21.4-3.98-.57,1.24,0,3.21-.41,3.98.57Z"/>
  <path class="cls-15" d="M310.67,232.21c-.94.03-1.9,0-2.84,0,.37-.9,2.47-.9,2.84,0Z"/>
  <path class="cls-15" d="M385.65,231.64c-.37.9-2.47.9-2.84,0,.95,0,1.89,0,2.84,0Z"/>
  <path class="cls-15" d="M320.32,231.64c-.18.85-2.04.88-2.27,0,.76-.02,1.52.02,2.27,0Z"/>
  <path class="cls-15" d="M283.4,231.64c-.08.85-1.62.85-1.7,0,.57,0,1.14,0,1.7,0Z"/>
  <path class="cls-15" d="M287.94,231.64c-.08.85-1.62.85-1.7,0,.57,0,1.14,0,1.7,0Z"/>
  <path class="cls-15" d="M302.14,232.21c-.62-.03-1.43.17-1.7-.57.62.04,1.43-.18,1.7.57Z"/>
  <path class="cls-15" d="M221.48,204.94c-.07.3-.45.41-.57.57h-.57c.31-.62.53-.82,1.14-1.14v.57Z"/>
  <path class="cls-15" d="M376.56,231.64l-1.7.57c.27-.72,1.08-.57,1.7-.57Z"/>
  <path class="cls-15" d="M373.72,232.21l-1.7-.57c.62,0,1.43-.15,1.7.57Z"/>
  <path class="cls-15" d="M366.34,232.21l-1.7-.57c1.34-.01,1.61.57,1.7.57Z"/>
  <path class="cls-15" d="M349.86,232.21h-1.14c.25,0,.94,0,1.14,0Z"/>
  <path class="cls-15" d="M315.78,231.64l-1.14.57c.06,0,.12-.54,1.14-.57Z"/>
  <path class="cls-15" d="M292.49,231.64l-.29.57-.85-.57c.38,0,.76,0,1.14,0Z"/>
  <path class="cls-15" d="M298.17,231.64c.19,0,.38.01.57,0l-.28.56-.28-.56Z"/>
  <path class="cls-15" d="M352.14,232.21s.16-.56.57-.57l-.57.57Z"/>
  <path class="cls-15" d="M361.23,232.21s.17-.56.57-.57l-.57.57Z"/>
  <path class="cls-15" d="M379.4,231.64c.19,0,.38,0,.57,0l-.28.56-.28-.56Z"/>
  <polygon class="cls-15" points="395.88 231.64 396.45 231.64 396.16 232.2 395.88 231.64"/>
  <path class="cls-4" d="M332.25,44.19c-.81,2.23-3.98,7.88-3.98,9.94v11.36c2.92,1.91,7.72.54,11.08.4,5.76-.24,8.35.33,14.04-2.55,8.01-4.05,5.89-9.45,10.08-14.22.42-.47,3.8-2.24,4.54-2.4,2.99-.66,1.96.6,2.73.83,4.43,1.38,11.66,1.72,16.1.36,1.23-.37.98-1.99,2.78-1.45-.45.51-.49.67-1.14,1.14-9.02,6.51-15.03-.87-22.06.95-3.97,1.03-3.21,3.68-4.72,6.63-5.44,10.6-12.3,11.33-23.21,11.73h-1.14c-.38,0-.76,0-1.14,0h-1.14c-1.88-.06-3.8.09-5.68,0h-.57c-.3-.09-.78.06-1.14,0-1.61-8.92-.62-15.51,4.54-22.72Z"/>
  <path class="cls-5" d="M181.14,165.18c-.76,0-1.51,0-2.27,0,.24-.88,2.09-.85,2.27,0Z"/>
  <path class="cls-5" d="M320.32,93.04c-.08.85-1.62.85-1.7,0,.57,0,1.14,0,1.7,0Z"/>
  <path class="cls-5" d="M326.57,93.04c-.08.85-1.62.85-1.7,0,.57,0,1.14,0,1.7,0Z"/>
  <path class="cls-5" d="M331.12,93.04c-.08.85-1.62.85-1.7,0,.57,0,1.14,0,1.7,0Z"/>
  <path class="cls-5" d="M339.07,93.04c-.08.85-1.62.85-1.7,0,.57-.01,1.14.02,1.7,0Z"/>
  <path class="cls-5" d="M333.96,93.04l-.29.57-.85-.57c.38,0,.76,0,1.14,0Z"/>
  <path class="cls-5" d="M336.23,93.04l-.29.57-.85-.57c.38,0,.76,0,1.14,0Z"/>
  <path class="cls-5" d="M316.91,93.04c.19,0,.38,0,.57,0l-.28.56-.28-.56Z"/>
  <path class="cls-12" d="M40.82,212.33c44.45,1.66,90.48,2.67,134.64,6.25.19.02.38-.01.57,0,5.07,1.7,9.55,3.63,14.2,6.25.33.19.71.32,1.14.57-1.21.09.75,1.4.83,1.46,5.27,3.79,15.24,11.54,21.3,12.48,12.24,1.9,27.74.75,40.36.82,48.65.3,97.35-.07,146,0,20.07.03,40.18-.23,60.26.25,5.99,1.44.64,11.11.53,15.09l-.1,1c-30.67-.17-61.52.69-92.23.16-1.34-.02-2.59-.59-3.93-.61-22.43-.43-45.1-.99-67.34-1.68-2.64-.08-5.31.05-7.95,0-.4-1.31-1.47-1.1-2.53-1.17-14.06-.94-28.45-.64-42.35-1.1-3.25-.11-6.42-.45-9.66-.57l-47.72-2.27c-1.32-.06-2.66.06-3.98,0,.32-1.72-.87-1.1-1.96-1.14-15.82-.53-32.83-.59-48.5-2.12-1.06-.1-2.05-.53-2.94.41h-9.09c.32-1.72-.87-1.09-1.96-1.14-30.13-1.19-60.23-2.48-90.38-3.38-1.08-.03-2.15.05-3.1-.59-.53-1.31-.89-1.26-1.14-1.7-3.99-7.06-10.73-14.62-13.94-21.56-4.76-10.28,6.82-6.42,13.07-6.25s11.93.32,17.92.54Z"/>
  <path class="cls-27" d="M129.44,246.41c.89-.95,1.88-.52,2.94-.41,15.66,1.53,32.67,1.59,48.5,2.12,1.09.04,2.28-.58,1.96,1.14-17.83-.77-35.69-1.21-53.4-2.84Z"/>
  <path class="cls-27" d="M234.54,251.52c-15.91-.58-31.92-1.58-47.72-2.27l47.72,2.27Z"/>
  <path class="cls-27" d="M289.08,254.36c-6.9-.13-13.89-.41-20.71-1.16l-24.17-1.11c13.91.46,28.29.16,42.35,1.1,1.06.07,2.13-.14,2.53,1.17Z"/>
  <path class="cls-16" d="M40.82,211.76v.57c-5.99-.22-11.91-.38-17.92-.54s-17.82-4.03-13.07,6.25c3.21,6.95,9.95,14.5,13.94,21.56-1.74-1.83-3.34-4.2-4.78-6.3-2.19-3.18-10.96-15.59-11.16-18.42-.45-6.57,6.87-4.3,10.52-4.23,7.57.14,15.07.84,22.46,1.11Z"/>
  <path class="cls-5" d="M314.64,238.46c1.33,1.47,4.35-.33,5.68,1.14-3.02,0-6.07,0-9.09,0v-1.14c1.14,0,2.27,0,3.41,0Z"/>
  <path class="cls-27" d="M190.23,224.83c-4.66-2.62-9.13-4.55-14.2-6.25,5.04.39,10.46,2.83,14.2,6.25Z"/>
  <path class="cls-8" d="M304.42,239.6h2.27c.57,0,1.14,0,1.7,0h2.84c3.02,0,6.07,0,9.09,0h3.98c1.89,0,3.79,0,5.68,0h2.84c.95,0,1.89,0,2.84,0h5.68c1.14,0,2.27,0,3.41,0h1.7c6.62,0,13.26,0,19.88,0,9.02,0,25.49,1.36,33.52,0v.57c-48.65-.07-97.35.3-146,0v-.57c16.21.92,34.15,0,50.56,0Z"/>
  <path class="cls-14" d="M400.42,239.03c-.19.14-.42.54-.57.57-8.03,1.36-24.49,0-33.52,0v-.57c11.35,0,22.73,0,34.09,0Z"/>
  <path class="cls-5" d="M366.34,239.03v.57c-6.62,0-13.26,0-19.88,0,.59-.94,2.15-.57,3.12-.58,5.58-.07,11.19.01,16.77,0Z"/>
  <path class="cls-5" d="M329.98,239.6c-1.89,0-3.79,0-5.68,0,1.15-.94,4.42-.97,5.68,0Z"/>
  <path class="cls-5" d="M344.75,239.6c-1.14,0-2.27,0-3.41,0,.57-.93,2.87-.91,3.41,0Z"/>
  <path class="cls-5" d="M335.66,239.6c-.95,0-1.89,0-2.84,0,.37-.9,2.47-.9,2.84,0Z"/>
  <path class="cls-16" d="M202.73,232.78c.84.63,1.34,1.64,1.91,2.06,8.77,6.47,36.4,4.13,48.08,4.18.15.55.65.54,1.14.57v.57c-12.63-.08-28.13,1.08-40.36-.82-6.05-.94-16.03-8.69-21.3-12.48-.08-.06-2.04-1.37-.83-1.46,3.92,2.32,7.38,5.09,11.36,7.38Z"/>
  <path class="cls-5" d="M304.42,239.6c-16.41,0-34.35.92-50.56,0-.48-.03-.99-.02-1.14-.57,16.18.08,32.39-.18,48.58,0,.96.01,2.53-.36,3.12.58Z"/>
  <path class="cls-5" d="M308.39,239.6c-.57,0-1.14,0-1.7,0,.08-.85,1.62-.85,1.7,0Z"/>
  <path class="cls-12" d="M301.01,103.83c.12-.69-.09-1.55,0-2.27h40.91c0,4.73,0,9.48,0,14.2h-43.18c-.21-.21.43-5.25.6-5.84.48-1.74,1.23-3.39,1.68-6.09Z"/>
  <path class="cls-16" d="M300.44,103.83h.57c-.45,2.7-1.19,4.35-1.68,6.09-.16.59-.8,5.63-.6,5.84h43.18v1.14h-43.74c-.48-.35-.58-.73-.54-1.3.11-2.05,1.19-9.47,1.67-11.38.16-.61,1.11-.33,1.14-.38Z"/>
  <path class="cls-5" d="M336.23,66.91c-.09,0-.34.5-.68.39l-.45-.39h1.14Z"/>
  <path class="cls-5" d="M338.5,66.91c-.5.02-.83,0-1.14,0h1.14Z"/>
  <path class="cls-5" d="M328.84,66.91h.57c-.09,0,.04.18-.57,0Z"/>
  <path class="cls-5" d="M324.3,152.69c-.1,1.63,1.73,1.74,2.56,2.84.14.19,1.94,3.21,1.99,3.41v26.7c-.03.13-.85.55-1.06,1.06-.33.77-1.36,3.54-1.76,3.79-.74.46-1.73.08-2.45.28-.49.14-.37,1.09-.74,1.11-1.84.1-4.86-.64-6.76-.62-3.65.05-8.93,1-12.51.65-1.28-.12-5.24-1.5-6.25-2.28-1.84-1.42-1.36-3.29-3.1-4.4l-.02-1.29v-24.43c.06-.55,1.12-1.55.73-2.54l2.11-3.14c8.31-3.04,18.5-1.62,27.27-1.14ZM320.89,159.5c.32-1.72-.87-1.09-1.96-1.14-4.02-.16-11.09-.53-14.82-.03-2.1.28-2.78,1.6-3.28,3.54-.8,3.12-.85,16.05-.41,19.52.1.79,1.03,3.24,1.56,3.7,1.77,1.54,13.51,1.4,16.39,1.14,3.41-.31,4.53-.86,4.82-4.27.22-2.58.27-20.14-.31-21.34-.17-.36-.62-.38-.85-.55-.25-.18-.83-.47-1.14-.57Z"/>
  <path class="cls-6" d="M294.19,183.93c.59-7.82-.8-16.76,0-24.43v24.43Z"/>
  <path class="cls-5" d="M292.49,204.94c1.12-.09,2.29.06,3.41,0l-.58,1.13,1.65.04c.15,1.72.59,3.07-1.07,3.94h-26.7c-.75-.45-2.71-2.83-2.27-3.41l1.7-1.14c7.28-.28,14.66.36,21.94.04,1.03-.05,1.75-.6,1.92-.61Z"/>
  <path class="cls-6" d="M295.9,210.06c-.48.25-.47.5-1.36.6-5.19.6-18.13.52-23.41,0-1.08-.11-1.04-.07-1.93-.61h26.7Z"/>
  <path class="cls-6" d="M292.49,204.94c-.17.01-.89.56-1.92.61-7.28.32-14.66-.32-21.94-.04l23.86-.57Z"/>
  <path class="cls-5" d="M223.18,204.94c8.43.55,17.17,1.13,25.56,0,.99-.13,1.93,1.06,2.33,1.97l-1.76,3.71h-25c-1.29-.11-1.17-.11-2.27-.57l-1.14-3.98c.07-.18-.08-.46,0-.57.12-.16.49-.27.57-.57.57.02,1.14-.04,1.7,0Z"/>
  <path class="cls-6" d="M249.31,210.63c-8.1-.51-17,.68-25,0h25Z"/>
  <path class="cls-15" d="M222.04,210.06c-.48-.2-1.63-.42-1.74-.95-.18-1.12.22-2.03.6-3.03l1.14,3.98Z"/>
  <path class="cls-6" d="M328.84,185.63v-26.7c.33,1.29.33,25.38,0,26.7Z"/>
  <path class="cls-5" d="M370.88,152.69c3.09.52,5.73,3.48,6.21,6.57.76,4.83.59,20.99.04,26.1-.15,1.43-1.17,4.57-2.27,5.39-.39.29-3.02,1.08-3.68,1.15-4.97.56-15.98.45-21.06,0-4.45-.39-6.57-1.98-7.08-6.55-.58-5.2-.74-22.31.03-27.24.39-2.47,3.93-5.07,6.22-5.43.59.94,2.16.57,3.12.58,5.11.06,10.25.05,15.35,0,.96-.01,2.53.36,3.12-.58ZM349.86,160.64s-.45-.73-.86-.06c-.44,6.66-.37,13.52-.29,20.24.01.96-.36,2.53.58,3.12h.57c-.02.19,0,.38,0,.57,0,.14-1.53,1.27.86,1.69,3.58.64,11.32.43,15.23.36,1.26-.02,2.87-.5,4.24-.47.46-.87,1.11-1.71,1.25-2.72.37-2.57-.05-6.31,0-9.09,0-.57,0-1.14,0-1.7,0-3.23.3-7.11,0-10.22-.04-.37.05-.76,0-1.13h-1.14c-.02-.19.01-.38,0-.57l-.57-.57c-1.47-.88-14.81-.83-17.36-.6-1.32.12-1.6.67-2.53,1.16Z"/>
  <path class="cls-6" d="M370.88,152.69c-.59.94-2.16.57-3.12.58-5.11.05-10.25.06-15.35,0-.96-.01-2.53.36-3.12-.58,3.13-.5,18.5-.51,21.59,0Z"/>
  <path class="cls-24" d="M320.89,159.5c.3.1.89.38,1.14.57-.7,6.97.94,15.72.03,22.47-.1.75-.73,2.53-1.45,2.53h-17.89c-.23-1.17-1-1.8-1.17-3.1-.27-2.11-.17-20.38.31-21.34.25-.51.79-.76,1.27-1,2.31-1.2,15.08-1.01,17.77-.13Z"/>
  <path class="cls-26" d="M322.03,160.07c.23.17.68.19.85.55.58,1.21.53,18.76.31,21.34-.29,3.4-1.41,3.96-4.82,4.27-2.87.26-14.62.4-16.39-1.14-.53-.46-1.46-2.91-1.56-3.7-.43-3.47-.38-16.4.41-19.52.49-1.94,1.17-3.26,3.28-3.54,3.74-.5,10.81-.13,14.82.03,1.09.04,2.28-.58,1.96,1.14-2.68-.88-15.46-1.07-17.77.13-.48.25-1.02.49-1.27,1-.47.96-.58,19.22-.31,21.34.17,1.3.93,1.92,1.17,3.1h17.89c.72,0,1.35-1.78,1.45-2.53.91-6.75-.73-15.49-.03-22.47Z"/>
  <path class="cls-24" d="M369.75,160.07l.57.57c.01.19-.02.38,0,.57.62,5.89-.46,12.74,0,18.75-.04.37.05.77,0,1.14s.06.78,0,1.14.07.8,0,1.14c-.11.52-.12,1.04-.53,1.46l-.97.67c-6.27-.28-12.88,1.18-18.96-.99,0-.19-.02-.38,0-.57.03-.37-.17-.63-.57-.57-.56-7.1-.03-15.65.57-22.72.93-.49,1.2-1.04,2.53-1.16,2.55-.23,15.89-.28,17.36.6Z"/>
  <path class="cls-1" d="M371.45,183.36c-.14,1.01-.8,1.85-1.25,2.72-1.38-.02-2.99.45-4.24.47-3.91.06-11.65.27-15.23-.36-2.39-.43-.87-1.55-.86-1.69,6.07,2.16,12.68.71,18.96.99l.97-.67c.41-.41.41-.94.53-1.46h1.14Z"/>
  <path class="cls-22" d="M349.86,160.64c-.6,7.07-1.13,15.62-.57,22.72.01.19-.01.38,0,.57-.94-.59-.57-2.15-.58-3.12-.08-6.72-.15-13.58.29-20.24.41-.66.82.08.86.06Z"/>
  <path class="cls-1" d="M370.31,161.21h1.14c.05.37-.04.77,0,1.14-.96,2.89-.95,7.38,0,10.22,0,.57,0,1.14,0,1.7-1.12.9-.39,2.93-.54,4.31-.08.74-.58,1.27-.6,1.37-.46-6,.62-12.86,0-18.75Z"/>
  <path class="cls-22" d="M371.45,183.36h-1.14c.07-.33-.06-.78,0-1.14l.57-.85-.57-.29c.05-.36-.04-.77,0-1.14.01-.1.52-.63.6-1.37.15-1.38-.58-3.41.54-4.31-.05,2.78.37,6.52,0,9.09Z"/>
  <path class="cls-22" d="M371.45,172.57c-.95-2.84-.96-7.34,0-10.22.3,3.12,0,6.99,0,10.22Z"/>
  <path class="cls-1" d="M349.86,183.93h-.57c-.01-.19.01-.38,0-.57.4-.06.6.2.57.57Z"/>
  <path class="cls-1" d="M370.31,160.64l-.57-.57.57.57Z"/>
  <path class="cls-1" d="M370.31,182.22c.06-.36-.05-.77,0-1.14l.57.29-.57.85Z"/>
</svg>