<?xml version="1.0" encoding="UTF-8"?>
<svg id="_레이어_1" data-name="레이어 1" xmlns="http://www.w3.org/2000/svg" viewBox="0 0 389.7 256.55">
  <defs>
    <style>
      .cls-1 {
        fill: #656769;
      }

      .cls-2 {
        fill: #bdbdbd;
      }

      .cls-3 {
        fill: #646667;
      }

      .cls-4 {
        fill: #656668;
      }

      .cls-5 {
        fill: #49494c;
      }

      .cls-6 {
        fill: #3c3c3f;
      }

      .cls-7 {
        fill: #eae9e9;
      }

      .cls-8 {
        fill: #514f51;
      }

      .cls-9 {
        fill: #edecec;
      }

      .cls-10 {
        fill: #d4d4d2;
      }

      .cls-11 {
        fill: #28292d;
      }

      .cls-12 {
        fill: #484749;
      }

      .cls-13 {
        fill: #3e3e41;
      }

      .cls-14 {
        fill: #d9d8d9;
      }

      .cls-15 {
        fill: #bcbcbc;
      }

      .cls-16 {
        fill: #d5d6d3;
      }

      .cls-17 {
        fill: #434346;
      }

      .cls-18 {
        fill: #d0d0cf;
      }

      .cls-19 {
        fill: #e2e2e1;
      }

      .cls-20 {
        fill: #f2f2f2;
      }

      .cls-21 {
        fill: #f0f0f0;
      }

      .cls-22 {
        fill: #464648;
      }

      .cls-23 {
        fill: #bbbbbc;
      }

      .cls-24 {
        fill: #343538;
      }

      .cls-25 {
        fill: #ededed;
      }

      .cls-26 {
        fill: #504e4f;
      }

      .cls-27 {
        fill: #4d4b4d;
      }

      .cls-28 {
        fill: #414144;
      }

      .cls-29 {
        fill: #f0efef;
      }
    </style>
  </defs>
  <path class="cls-3" d="M146.05,15.85l3.8-1.23c15.07-9.14,36.14-15.88,54.26-12.88,6.58,1.09,12.56,2.55,18.45,6.89.1.07.7,1.18,1.44,1.92,2.98,3.02,4.34,5.84,5.81,10.21.21.63.52.17.92,2.3.74,3.93,1.11,11.75-.03,15.52-.7,2.33-2.33,5.56-3.3,7.94-.29.7-1.29,2.95-1.38,3.34s.37.55.38.61c.02.17-.05.38,0,.48.14.3-.09.83.47,1.2.93.61,5.17,1.75,6.73,2.43,3.56,1.55,7.64,3.31,11.08,5.03.95.47,5.51,2.69,5.77,2.89.39.29-.91.52,1.44.96.07.19-.16.7.05.9,3.1.97,5.69,2.74,8.27,4.56.37.26,1.05,1.71,1.79.32l2.84,1.73c.97,1.61,2.49,2.36,3.9,3.56s2.92,3.36,4.81,3.37c.4.36.6.56.96.96.57.63.09,1.92,1.92,1.44.45.37.67.7.96.96-.25.82,1.23,1.72,1.94,2.12.26.15.44-.21.46-.2,3,1.79,7.39,7.22,10.34,10.1.96.94,1.98,2.33,2.89,3.36,2.33-3.15,4.58-6.48,7.15-9.44,1.91-2.2,5.31-5.7,7.53-7.38l.23.47c1.38-.21,1.09-1.29,1.21-1.43.58-.71.9-.9,1.44-1.44l4.17-2.56,1.12-1.77c.17-.14.3-.35.48-.48l3.97-1.94,2.28-2.39c1.96-1.21,4.02-2.12,6.26-3.37,10.35-4.7,21.35-8.97,32.98-8.2,4.09.27,9.26,1.68,13.03,3.32.87.38,1.49,1.69,3.08,1.51.21.15.37.42.48.48l.05.91,1.4.06c.13.17.33.31.48.48-.03,2.06,1.82,2.1,2.27,2.54.23.22.1.83.31,1.11,5.83,7.95,5.94,16.13,5.6,26.17,0,.16,0,.32,0,.48-1.04,1.03-.63,2.81-1,3.96-3.3,10.15-8.68,19.05-14.88,27.79-.72,1.02-.92.56-1.44,1.92-2.46,1.37-1.59,1.93-2.56,2.77-1.98,1.7-5.32,4.04-7.07,6.37-.17.23-1.06,2.26-.96,2.4,2.44-.13,3.18,2.93,4.19,3.87.93.86,2.67,1.46,3.48,2.19,1.42,1.29,3.3,4.65,4.49,5.85.76.77,1.91.56,2.76,3.01.15.44-.11,1.37,0,1.93h1.44c.06.14-.05.34,0,.48l.48.48c.06.13-.06.35,0,.48,2.25,4.86,5.98,9.71,7.66,14.81.81,2.46.89,5.62,1.51,7.93.11.43.86.16.98,1.03.56,4.3-.05,10.6-1.11,14.34-.97,3.39-2.14,4.66-3.5,7.57-.23.49-1.21,1.63-.24,1.93-.24.34-.21.89-.64,1.28-.25.23-.88.36-1.29.64-2.93,2.04-6.53,4.91-9.51,6.22-1.22.54-2.92.47-3.96,1.48-.16.01-.32-.02-.48,0-10.66,1.12-23.2.54-33.2-3.85-.55-.24-1.28-1.35-1.98-1.63l-8.13-3.66c-3.58-2.58-7.04-4.95-10.59-8.18,1.39-1.46-1.83-2.21-2.25-2.56-1.91-1.63-4.89-6.5-6.9-7.54-1.84-3.34-4.5-6.6-6.72-9.98-.44-.67-.63-1.5-.94-2.23l-1-.3c-1.46-.07-1.99,2.49-2.86,3.51-1.06,1.25-3.45,2.53-4.84,4.19-1.64.18-1.22,1.1-1.44,1.44-.14.21-.37.33-.48.48-2.4.3-2.47,2.27-3.51,3.22-2.97,2.75-7.43,5.77-10.44,8.32-.17.14-.31.33-.48.48-1.16.17-2.42.57-2.41,1.92-2.14,1.4-6.18,4.43-8.18,5.29-3.58,1.55-8.89,3.91-11.55,6.25-2.78,2.46-8.43,3.93-12.03,5.29-7.61,2.87-16.55,4.94-23.74,7.78-.98.39-.56,1.53-1.11,1.89-3.54,2.31-8.51,3.63-12.57,5.12l-10.19,1.12c-.27.24-.32,3.72-.54,4.43-.86,2.85-3.79,8.32-5.75,10.94-.26.35-.84.59-1.17.99-.22.27-.27.6-.28.93l-.48.48-1.4.06-.05.9c-.16.16-.31.33-.48.48l-.48.48c-.17.13-.3.36-.48.48l-12.33,4.27c-9.84,1.18-19.49-1.21-27.38-6.69l-3.12-1.43c-3.49-2.59-6.63-5.15-9.62-8.66.91-.35-.82-2.79-1.03-3.05-.64-.8-1.54-1.02-2.07-1.78-.84-1.22-.96-4.02-3.15-4.3-.07-.13.07-.38,0-.48-.37-.53-.67-.7-1.3-.85-3.15-.76-7.01-1.06-10.27-1.78-16.58-3.64-32.96-9-47.62-16.61-4.84-2.51-9.51-5.32-14.44-8.18-.25-.14-.21-.66-.96,0-.16-.16-.32-.33-.48-.48-2.84-2.67-5.8-4.28-9.14-6.73-.05-.04.12-.64-.13-.82l-5.17-3.03c-.41-.35-.68-.72-.96-.96-.06-1.11-1.76-1.83-2.89-2.89-.23-.22-.71-2.08-2.41-1.92-.12-.17-.37-.3-.48-.48-.94-1.53-2.61-2.86-4.33-4.33-.33-.28.76-.35-.96-.96-2.31-3.08-5.52-6.48-7.7-9.62-.59-.85-2.25-2.97-2.53-3.49-1.64-3.02-.86-4.23-3.73-7.57-.7-3.58-2.14-7.16-2.43-11.28-.97-14.03,4.8-30.01,12.55-41.26.37-.54,2.14-1.68,2.27-1.92.39-.72-.11-1.94.18-2.26.14-.16,1.1.19,1.44-.31.22-.33,1.15-3.13,1.52-3.45.7-.6.64.61,1.32-1.08.41-1.02.86-1.97,1.44-2.89,2.12.34,2.17-1.77,2.89-2.89.1-.15.37.63.96-.96,1.21-.44,2.54-1.91,3.35-3.13l-.47-.23c2.08-2.14,4.09-4.04,6.26-6.25l.24.47c.41-.79,1.64-1.1,2.06-1.55.26-.29.05-.79.11-.84.33-.35.62-.63.96-.96l1.4-.05.04-.91c.46-.42.81-.9,1.44-1.44l4.56-2.88.74-1.45c3.11-2.35,6.78-5.02,10.11-6.73h1.93c.07-.3-.08-.74,0-.96,4.24-2.05,8.29-4.11,12.3-6.25.66-.35,1.39-.47,1.18-1.44,1.6-.78,3.58-1.63,5.29-2.41,5.62-1.26,10.77-4.31,16.25-6.12,3-.99,7.02-2.08,10.12-2.88,4.82-1.24,11.19-1.81,15.6-3.17.9-.28,3.02-1.56,1.82-2.74,2.11-1.99,4.64-5.46,6.74-7.7l2.17-.94c.97-.9,2.32-3.09,3.12-3.87.16-.16.32-.32.48-.48l1.4-.05.04-.91c.46-.42.79-.89,1.44-1.44,1.43.3,1.8-.86,2.65-1.46,1.49-1.05,1.33-1.19,2.16-1.91,1.68-1.45,2.47-2.09,4.33-3.37ZM212.45,12.48c-.5-.41-.81-.71-1.09-1.3-14.94-5.09-31.5-1.49-45.69,4.36-.73.3-1.6-.01-1.35,1.28-2.26.97-4.23,1.81-6.26,3.37-2.08.97-5.29,2.65-7.22,3.85-1.48.92-3.91,2.65-5.26,3.64-2.04,1.49-4.7,4.19-5.81,5.98-.89.45-.87.57-1.44.96-1.22.84-.62.61-.96.96-.91.93-1.62,2.22-2.88,2.41v.47c.3.06.72-.07.96,0,2.87.92,3.17,0,5.05,0h25.5c2.03,0,5.84.35,7.94.48,1.27.08,2.58-.09,3.85,0,.32,1.13,1.29.85,2.13,1,12.5,2.29,23.58,4.23,35.89,7.66.25.07.7.81,1.44.48.31-.93.62-2.22,1.08-3.03,1.8-3.18,2.3-4.49,3.14-8.38.52-2.44,1.68-6.41,1.07-8.93-.09-.36-.85-.29-.94-.66-.45-1.91-.77-6.85-1.9-8.51-.31-.45-.97-.26-1-.3-2.21-3.07-2.5-4.33-6.26-5.77ZM218.71,58.18c.24-1.24-.56-1.02-1.34-1.28-28.34-9.58-49.95-11.19-79.77-10.26-.93.03-1.93-.49-1.66.96-2.57.13-5.14.26-7.7.48-5.23.44-8.35.92-13.47,1.92-12.41,2.43-22.24,5.64-33.79,10.74-.71.32-1.61.13-1.34,1.28-.41.17-1.17.16-1.92.48-3.71,1.59-9.16,4.11-11.55,6.73-2.67,2.94-8.27,4.72-11.55,8.18-1.83-.09-2.33.92-2.89,2.41-.55.33-1.21.83-1.44.96-.49.27-.96.78-1.44.96-3.34,1.23-4.34,2.96-6.74,5.29-.45.44-.36.27-.96.96-1.08,1.24-6.27,6.19-6.26,7.22-.92.07-1.35.57-1.92,1.2-2.89,3.24-5.16,6.88-7.71,10.34-.16.22-.62.48-.96.96-4.17,5.85-6.79,9.74-9.14,16.84-1.3-.28-.92.66-1.19,1.43-1.96,5.57-4.11,11.48-4.12,17.59,0,4.76,2.07,5.24,5.31,7.44,2.43,1.65,3.74,2.59,6.74,3.85,6.99,2.94,14.33,3.75,21.66.48,2.15-.96,3.03-1.78,4.81-2.89,2.36-1.47,3.66-1.08,6.26-.48,2.09,2.88,2.16,3.89.96,7.22-2.25.87-4.36,2.08-6.74,2.89-5.42,1.85-12.51,3.47-18.29,2.89-2.19-.22-6.98-1.41-9.25-2.06-1.39-.39-2.66-1.56-3.98-1.79-1.4-.24-.28.6-.24.97.19,1.57.37,1.55,1.44,2.89.35.99.99,2.4,1.59,3.22.92,1.25,2.89,2.87,4.18,3.99,1.09.95,2.29,1.35,2.41,1.44.06.05-.03.8.48,1.44.24.3.3.65.7.98,2.92,2.4,5.52,5.71,8.7,8.15,2.02,1.55,4.21,2.34,6.11,3.86,3.98,3.18,7.41,5.77,11.93,8.66.49.31.95.66,1.44.96,6.85,4.25,11.7,6.05,18.77,9.14.86.38,1.83,1,2.89,1.44.17.07.33.42.48.48,7.21,2.94,14.53,5.67,22.14,7.22.15.03.33-.03.48,0,2.22,1.51,5.13,1.53,7.7,1.92,4.94,1.46,11.15,2.77,16.29,3.27.72.07.98-.39,1.03-.38.63.06,1.29-.06,1.92,0,.35,1.15,1.27.89,2.15.98,4.37.46,8.86.79,13.25.94,7.61.26,15.27-.22,22.89.04,1.06.09.56-.66.69-1,.12-.31,1.08-.1-.14-.59-5.05-2-11.39-10.17-14.3-14.81-.14-.22-.31-.64-.48-.96-.27-.49-.74-.96-.96-1.44.66-1.45-.49-3.31.08-4.97.81-2.35,5.53-1.92,7.25-.8.98.64.28,2.2,1.81,1.92,1.02,1.97,1.77,3.98,3.85,4.81.56,1.08.62,1.36,1.44,2.41,2.89,3.67,5.22,5.53,9.62,8.18l-.3.53c4.58,3.27,8.84,4.66,14.25,5.72,4.69.92,4.83,1.47,9.62,0s4.99-2.42,8.66-5.29c.13-.1.95.23,1.33-.1.31-.27,3.37-6.9,3.43-7.41.23-2.06.18-4.97-.08-7.03-.16-1.28,0-2.77-1.78-2.3-1.16-3.74-1.73-3.46-3.85-5.77-.6-.66-1.28-1.32-1.92-1.92-3.96-3.71-7.26-4.35-12.51-5.29-3.82-.69-7.2-1.15-11.07-1.44.27-1.45-.74-.93-1.66-.96-3.65-.12-14.01.68-16.62-.73-1.34-.72-1.7-4.13-.97-5.52.16-.16.31-.35.48-.48,1.17-.6,2.27-.89,3.59-.98,5.13-.36,13.43-.12,18.55.5,2.78.34,6.72,1.33,9.62,1.92,4.67.96,8.42,1.91,12.88,3.72,1.19,1.26,2.94,2.61,4.93,2.53.91.89,1.86,2.1,2.89,2.89.59.7,1.03,2.32,1.44,2.89,3.47,4.72,5.24,7.15,5.32,13.69.03,2.22-1.08,4.73-.03,6.51s2.38.26,3.85-.48c3.45-.24,6.73-2.15,9.62-3.85,2.99-1.24,5.46-2.93,8.18-4.33s7.39-2.26,8.66-5.29c2.86-1.28,5.53-2.23,7.97-3.81,1.96-1.27,4.79-3.81,6.95-5.33,3.03-2.14,5.57-2.99,7.7-6.25.15-.23.16-.37.48-.48.28-.1.91.2,1.35-.09.27-.18.33-1,.58-1.35,1.36-1.92,1.69-1.25,2.69-2.36.54-.6,3.2-4.61,3.56-4.86.96-.67.45.3,1.92-1.44s2.88-3.53,4.33-5.29l1.37-.09c.08-.7.66-1.73,1.03-2.32,1.23-.77,2.85-1.83,4.62-1.88,2.53-.07,3.83,1.19,4.96,3.23,2.15,3.91,2.74,7.96,6.15,10.79.46.38.86,1.61,2.08,2.77,1.15,3.12,3.9,5.65,6.26,7.7.17.15.31.33.48.48l.57,1.85,1.36.07c1.28,1.54,5.03,5.09,6.74,6.25,7.32,4.99,15.25,9.58,24.06,11.06-.38,1.3,1.98,1.28,2.71,1.38,6.38.87,12.27.92,17.98-2.39l-.48-.44c.21-.81.93-1.01,1.44-1.44.47-.4,1.26-1.06,1.79-1.47.62-.48,1.93-.05,1.58-1.41.17-.01.38.04.48,0,3.99-1.66,4.58-11.89,4.32-15.63-.34-5.05-1.53-7.99-3.36-12.27-2.45-5.71-4.51-10.84-9.14-14.91-.44-.39-.54-1.18-1.44-.96-.54-1.31-2.23-2.95-3.37-3.85-.26-.49-.77-.95-.96-1.44-.36-.91.08-2.36-1.92-1.92h-.48c-.06-.14.06-.35,0-.48-1.51-3.38-6.49-5.07-8.82-7.19-.29-.27-.86-1.96-1.58-2.39-.4-1.86.58-3.71,2.03-4.78,1.28-.94,1.78.17,2.6-1.99.05-.14-.06-.35,0-.48.7-.15,1.51-.49,2.04-.95,1.58-1.37,2.86-2.73,4.21-4.34.14-.17.33-.31.48-.48,1.38-.21,2-1.78,2.89-2.64,2.81-2.7,5.96-5.62,7.69-9.39l.48-.48v-.48c2.14.51,2.08-2.49,2.76-3.72,2.12-3.85,3.17-6.04,4.46-10.23,2.07-6.72,3.4-11.06,2.44-18.55-.11-.86-.84-.6-.97-1.05-1.09-3.71-.87-4.48-3.32-7.63-.41-.53-.5-1.49-1.05-1.92-.32-.25-.45.29-.47.29-.29-.07-.71.08-.96,0-1.2-1.46-.98-1.79-2.89-2.89,1.24-.39-.92-.96-1.13-1.03-1.41-.53-3.62-1.52-5-1.74-9.1-1.41-19.08,2.16-27.07,6.14-1.51.67-4.02,2-5.4,2.89-2.58,1.67-5.32,4.43-7.59,6.25-2.48,1.98-5.31,3.45-7.7,5.77-2.94,2.85-9.22,9.15-11.07,12.51-2.22.47-2.5,2.93-3.44,4.52-.32.54-1.13.69-1.39,1.11-.66,1.08-.72,3.44-1.38,4.75-1.75,3.44-6.41,2.18-9.18.68-.37-1.94-7.4-8.96-8.98-10.75-.49-.55-1.84-3.21-2.2-3.56-1.92-1.9-4.95-3.71-6.63-5.89-.36-.46-1.41-2.19-1.57-2.29-.48-.3-1.03-.02-1.32-.11-.32-.11-.65-.4-.96-.48-.15-.32-.34-.63-.48-.96-.08-.17.17-.7-.06-.9-.3-.27-1.17.06-1.39-.06s-.33-.39-.48-.48c-.71-1.24-1.07-2.16-2.67-2.28l-.22.35c-5.27-3.97-9.48-6.89-14.92-10.1-3.21-1.9-9.03-5.83-12.51-6.73.09-1.58-.92-1.13-1.68-1.45-3.56-1.52-7.09-3.15-10.58-4.81-.95-.45-1.33-1.09-1.21.49-1.19-.59-1.96-.61-2.89-.96ZM220.4,211.63v.48c.31-.16.31-.32,0-.48ZM141.23,230.39c-2.71-.09-5.46.07-8.18,0-.27.89.41.83.48.96.83,1.71,2.03,3.41,3.37,4.81,1.23,1.29,1.28.84,2.41,1.44,1.46,2.36,2.96,3.23,5.29,4.81,3.75,2.54,5.26,3.22,9.62,4.33,6.35,1.61,11.37,1.54,17.21-1.81l-.36-.6c1.27-.78,3.07-2.86,3.85-2.89.04,0,.2.47.45.49,3.22-3.42,3.05-6.36,4.4-10.23.1-.3,1.69-.84.93-1.79-.2-.25-1.25.49-1.44.48-2.52-.16-3.23-.15-5.77,0h-32.24Z"/>
  <path class="cls-26" d="M20.93,96.66c-.68,1.7-.62.49-1.32,1.08-.37.31-1.29,3.12-1.52,3.45-.34.5-1.3.15-1.44.31-.29.33.21,1.55-.18,2.26-.13.24-1.89,1.38-2.27,1.92-7.75,11.25-13.52,27.24-12.55,41.26.29,4.12,1.73,7.71,2.43,11.28-.05-.06-.62.12-.85-.09-1.39-1.32-1.6-7.76-2.05-9.68-.1-.41-.87-.13-.99-1.02-.61-4.62.31-9.71,1.13-13.85,1.92-9.69,5.94-17.56,10.93-25.74,2.34-3.84,4.71-8.89,8.67-11.19Z"/>
  <path class="cls-26" d="M146.05,15.85c18.43-12.61,58.5-24.46,76.51-7.22.35.33,1.85.43,1.92,1.92h-.48c-.74-.75-1.34-1.85-1.44-1.92-5.89-4.34-11.87-5.8-18.45-6.89-18.12-3-39.19,3.74-54.26,12.88l-3.8,1.23Z"/>
  <path class="cls-8" d="M377.52,157.27c.57-.17,1.7.99,1.91,1.32,3.76,6.06,8.61,16.49,9.15,23.46.76,9.8-.41,15.13-5.77,22.84-.97-.29,0-1.44.24-1.93,1.36-2.91,2.53-4.18,3.5-7.57,1.07-3.74,1.68-10.05,1.11-14.34-.11-.88-.87-.61-.98-1.03-.62-2.31-.7-5.48-1.51-7.93-1.67-5.1-5.4-9.95-7.66-14.81Z"/>
  <path class="cls-8" d="M328.91,64.91c14.96-8.33,33.6-14.23,49.08-3.37-1.59.17-2.2-1.13-3.08-1.51-3.76-1.64-8.93-3.04-13.03-3.32-11.63-.78-22.64,3.5-32.98,8.2Z"/>
  <path class="cls-8" d="M237,214.99l-3.72,2.29c-7.94,2.58-14.91,4.94-22.19,8.72-6.66,3.46-13.02,5.79-20.72,5.39-.54,2.2-.77,4.67-1.53,6.79-1.14,3.19-3.02,5.51-5.26,8.07h-.48c1.96-2.62,4.89-8.09,5.75-10.94.21-.71.27-4.18.54-4.43l10.19-1.12c4.07-1.48,9.03-2.8,12.57-5.12.55-.36.13-1.51,1.11-1.89,7.19-2.84,16.14-4.91,23.74-7.78Z"/>
  <path class="cls-8" d="M231.22,23.06c1.47,9.43,1.14,16.21-2.75,24.89-.15.34-1.7,2.02-2.06,2.53,0-.06-.46-.24-.38-.61s1.09-2.64,1.38-3.34c.98-2.38,2.6-5.61,3.3-7.94,1.14-3.78.77-11.59.03-15.52h.48Z"/>
  <path class="cls-26" d="M121.5,37.98c1.2,1.18-.92,2.46-1.82,2.74-4.42,1.36-10.79,1.94-15.6,3.17-3.1.79-7.12,1.88-10.12,2.88-5.48,1.81-10.63,4.86-16.25,6.12,13.2-5.98,26.9-10.89,41.51-13.1.49-.79,2.05-1.6,2.28-1.81Z"/>
  <path class="cls-27" d="M366.93,214.51c-.59,1.15-3.39,1.35-4.58,1.44-10.5.79-19.2-1.29-28.63-5.28,10.01,4.39,22.54,4.97,33.2,3.85Z"/>
  <path class="cls-8" d="M380.4,63.47c1.57,1.74,3.38,2.91,4.8,5.17,3.97,6.31,4.92,14.49,4.34,22.01-.07.93-.23,1.98-.96,2.65.34-10.04.23-18.23-5.6-26.17-.21-.28-.08-.89-.31-1.11-.45-.44-2.3-.47-2.27-2.54Z"/>
  <path class="cls-27" d="M135.46,247.22l3.12,1.43c7.89,5.48,17.55,7.86,27.38,6.69l12.33-4.27c-13.82,9.66-30.35,5.41-42.83-3.85Z"/>
  <path class="cls-27" d="M60.39,209.7c14.66,7.61,31.05,12.98,47.62,16.61,3.25.71,7.12,1.01,10.27,1.78.63.15.93.32,1.3.85-18.78-2.46-37.37-8-54.49-16-1.59-.74-3.29-2.05-4.7-2.76v-.48Z"/>
  <path class="cls-26" d="M388.58,93.77c-.42,9.75-9.02,25.46-15.88,32.23v-.48c6.2-8.74,11.58-17.64,14.88-27.79.37-1.15-.04-2.93,1-3.96Z"/>
  <path class="cls-26" d="M72.42,55.29c.21.98-.52,1.09-1.18,1.44-4.01,2.14-8.06,4.2-12.3,6.25-.08.22.07.66,0,.96h-1.93c.64-.33,1.24-.63,1.92-.96.07-.19-.15-.59.08-.87.11-.13,2.32-1.37,2.88-1.71,3.34-2.03,7.07-3.44,10.52-5.11Z"/>
  <path class="cls-27" d="M224.49,10.56c1.5.07,1.7,1.63,2.49,2.59,3.27,3.98,3.51,5.14,4.25,9.92h-.48c-.4-2.13-.71-1.67-.92-2.3-1.47-4.37-2.83-7.19-5.81-10.21h.48Z"/>
  <path class="cls-27" d="M244.7,59.14v.48c-3.44-1.72-7.52-3.49-11.08-5.03-1.56-.68-5.81-1.82-6.73-2.43-.56-.37-.33-.89-.47-1.2,6.42,1.99,12.32,5.17,18.29,8.18Z"/>
  <path class="cls-8" d="M4.08,158.23c2.87,3.35,2.09,4.55,3.73,7.57.28.51,1.94,2.64,2.53,3.49h-.48c-2.65-3.92-4.82-6.2-5.77-11.06Z"/>
  <path class="cls-27" d="M295.23,174.59l1,.3c.31.73.5,1.56.94,2.23,2.23,3.38,4.89,6.64,6.72,9.98,2.01,1.04,4.98,5.91,6.9,7.54.42.36,3.64,1.1,2.25,2.56-3.4-3.09-6.91-6.04-9.14-10.1-.29-.15-.74-.04-1.22-.44-1.12-.93-2.59-4.1-3.4-5.28-1.5-2.19-3.56-3.86-4.04-6.79Z"/>
  <path class="cls-26" d="M10.34,169.3c2.18,3.14,5.39,6.54,7.7,9.62,1.72.61.64.68.96.96v.48c-.28-.42-.77-1.18-.96-1.44-1.11-.4-2.72-2.03-3.66-3.06-1.74-1.9-3.11-4.49-4.52-6.56h.48Z"/>
  <path class="cls-27" d="M119.58,229.42c2.19.29,2.31,3.08,3.15,4.3.53.76,1.43.98,2.07,1.78.21.27,1.94,2.7,1.03,3.05-2.54-2.98-4.53-5.73-6.26-9.14Z"/>
  <path class="cls-26" d="M244.7,59.14c2.17,1.1,4.22,2.48,5.77,3.37.81.46.73-.9,1.44.96,3.59.68,6.81,4.06,10.11,5.77-.74,1.4-1.41-.06-1.79-.32-2.58-1.82-5.16-3.58-8.27-4.56-.22-.19.02-.7-.05-.9-2.36-.44-1.06-.67-1.44-.96-.26-.2-4.83-2.41-5.77-2.89v-.48Z"/>
  <path class="cls-22" d="M23.81,184.69c1.7-.15,2.17,1.71,2.41,1.92v.48c-1.31-1.17-1.02-.32-2.41-2.41Z"/>
  <path class="cls-8" d="M372.7,126c-.68.67.19.53-1.44,1.44-1.09,2.82-2.24,2.7-4.19,4.46-.46.42-.49,1.46-1.07,2.06-.65.66-3.35,2.01-4.36,2.62,1.75-2.34,5.09-4.67,7.07-6.37.97-.83.1-1.4,2.56-2.77.52-1.36.72-.9,1.44-1.92v.48Z"/>
  <path class="cls-8" d="M285.6,184.21c-2.59,3.61-7,5.73-9.78,8.99l-4.18,2.56c3.02-2.55,7.47-5.57,10.44-8.32,1.04-.96,1.11-2.92,3.51-3.22Z"/>
  <path class="cls-26" d="M35.36,194.31c3.35,2.46,6.3,4.06,9.14,6.73-3.37-1.54-6.22-4.02-9.14-6.25v-.48Z"/>
  <path class="cls-26" d="M133.53,25.47c-.8.79-2.16,2.97-3.12,3.87l-2.17.94c1.39-1.49,1.52-1.46,2.88-2.65.86-.75.99-1.96,2.41-2.16Z"/>
  <path class="cls-5" d="M45.95,201.52c4.93,2.85,9.6,5.67,14.44,8.18v.48c-4.81-2.42-9.93-4.78-14.44-8.18v-.48Z"/>
  <path class="cls-27" d="M380.88,206.82c-1.5,2.46-4.23,4.14-6.8,5.47-2.11,1.09-4.58,2.04-6.68,2.23,1.04-1.01,2.74-.94,3.96-1.48,2.98-1.31,6.58-4.18,9.51-6.22Z"/>
  <path class="cls-8" d="M323.62,205.37l8.13,3.66c.7.28,1.43,1.39,1.98,1.63-3.75-1.59-6.77-2.89-10.11-5.29Z"/>
  <path class="cls-5" d="M260.58,203.45c-3.64,2.29-7.39,5-11.55,6.25,2.66-2.35,7.97-4.7,11.55-6.25Z"/>
  <path class="cls-12" d="M29.11,86.56l.47.23c-.82,1.22-2.15,2.69-3.35,3.13-.59,1.59-.86.81-.96.96-.72,1.12-.77,3.23-2.89,2.89.63-.98,2.27-2.26,2.89-2.89.32-.33-.69-.36.96-.96.63-1.71,1.86-2.31,2.89-3.37Z"/>
  <path class="cls-8" d="M375.59,153.9c1.18-.28,1.05.96,1.44,1.92h-1.44c-.11-.56.15-1.48,0-1.92Z"/>
  <path class="cls-26" d="M141.71,19.22c-.83.72-.66.86-2.16,1.91-.85.6-1.22,1.76-2.65,1.46.91-.76,1.55-.92,2.18-1.43.86-.68.86-2.35,2.63-1.94Z"/>
  <path class="cls-12" d="M322.66,68.28l-2.28,2.39-3.97,1.94c2.14-1.62,3.98-2.92,6.26-4.33Z"/>
  <path class="cls-22" d="M19,179.88c1.72,1.47,3.39,2.8,4.33,4.33-1.4.07-1.44-1.15-2.1-1.78-.56-.54-1.22-.58-2.23-2.06v-.48Z"/>
  <path class="cls-27" d="M30.07,190.46l5.17,3.03c.24.18.08.78.13.82v.48c-1.78-1.36-3.54-2.84-5.29-4.33Z"/>
  <path class="cls-27" d="M183.58,246.26c-.51.58-.4,1.83-1.92,1.92,0-.33.06-.67.28-.93.33-.4.91-.64,1.17-.99h.48Z"/>
  <path class="cls-5" d="M46.91,70.68l-.74,1.45-4.56,2.88c1.73-1.47,3.48-2.96,5.29-4.33Z"/>
  <path class="cls-8" d="M378.48,62.03c1.09.61.28-.58,1.44.96l-1.4-.06-.05-.91Z"/>
  <path class="cls-12" d="M268.76,74.53c1.71-.5,1.48,1.02,2.36,1.72.81.65,1.47.76,2.45,1.65-1.9,0-3.39-2.16-4.81-3.37Z"/>
  <path class="cls-5" d="M37.77,78.38c-.05.06.15.56-.11.84-.42.45-1.65.76-2.06,1.55l-.24-.47c.77-.79,1.36-1.83,2.41-1.92Z"/>
  <path class="cls-8" d="M271.16,196.23c-.98.88-1.24,1.16-2.41,1.92-.01-1.35,1.25-1.75,2.41-1.92Z"/>
  <path class="cls-27" d="M181.18,248.66c-.1.9-1.3.83-1.44.96l.05-.9,1.4-.06Z"/>
  <path class="cls-12" d="M276.46,80.31c-1.83.47-1.36-.81-1.92-1.44,1,.13,1.37,1,1.92,1.44Z"/>
  <path class="cls-12" d="M315.92,73.09l-1.12,1.77-4.17,2.56c1.73-1.72,3.44-2.86,5.29-4.33Z"/>
  <path class="cls-5" d="M40.18,76.46l-.04.91-1.4.05c.75-.74,1.31-.84,1.44-.96Z"/>
  <path class="cls-26" d="M135.46,24.03l-.04.91-1.4.05c.76-.76,1.29-.82,1.44-.96Z"/>
  <path class="cls-8" d="M287.53,182.28c-.43.52-.2,1.71-1.44,1.44.22-.34-.2-1.27,1.44-1.44Z"/>
  <path class="cls-12" d="M309.18,78.86c-.12.14.17,1.22-1.21,1.43l-.23-.47c.41-.31.49-1.23,1.44-.96Z"/>
  <path class="cls-27" d="M26.22,186.61c1.13,1.05,2.83,1.77,2.89,2.89-.81-.7-1.94-1.56-2.89-2.41v-.48Z"/>
  <path class="cls-12" d="M277.42,81.27c.07.06.55-.09.81.14.52.47.65,1.55,1.6,1.78-.02-.01-.2.35-.46.2-.71-.4-2.19-1.3-1.94-2.12Z"/>
  <path class="cls-26" d="M45.95,201.52v.48c-.16-.12-.56-.08-.96-.48.75-.66.71-.14.96,0Z"/>
  <path class="cls-8" d="M377.52,156.79l-.48-.48s.33.16.48.48Z"/>
  <path class="cls-27" d="M178.77,250.59l.48-.48c-.17.15-.3.34-.48.48Z"/>
  <path class="cls-14" d="M136.42,48.08c.73-.47,3.89.51,5.03.5,1.58-.02,3.77-.98,5.34-.99,21.3-.24,45.49,2.47,65.76,9.2,1.89.63,4.58,2.09,6.94,2.78.59.17,2.2.75,2.59.06.31.17.6.24.96.48.59.38,1.92,2.17,2.41.96.3.16.65.32.96.48,2.51,1.27,5.28,2.86,7.7,3.37.16.03.33-.04.48,0-.26,1.17.6.99,1.27,1.36,3.33,1.79,6.48,3.28,9.79,5.14.52.29,1.38,1.45,1.93.23,5.43,3.21,9.65,6.13,14.92,10.1.89.67,1.93,1.33,2.89,1.92.15.09.27.37.48.48.12.32.38.64.48.96.07.22-.17.7.06.9.28.25,1.04-.03,1.39.06.31.08.64.37.96.48.15.33.34.63.48.96.26.63-.23,1,1.21,1.43l.23-.47c.25.2.68.29.96.48,1.68,2.18,4.71,3.99,6.63,5.89.36.36,1.71,3.01,2.2,3.56,1.58,1.79,8.61,8.81,8.98,10.75,0,.03-.49.21-.49.45,1.47-.34,1.65,1.14,2.31,1.45.76.36,4.06.69,4.91.5-.92,1.54.4,3.82,1.01,5.38,3.46,8.8,5.38,15.03,4.76,25.16-.26,4.15-2.2,11.5-3.78,15.45-.34.85-1.55,1.23-1.52,2.83l1.93.73c-1.69-.64-6.1.12-7.12,1.55-.23.32-.04.75-.1.85-1.75,1.09-1.33,1.11-2.41,2.41-1.45,1.76-2.86,3.56-4.33,5.29-1.85-.44-1.57,1.06-1.92,1.44-.78.86-2.14,1.96-3.33,3.15-1.51,1.51-4.09,3.12-4.85,5.03v.48c-.32.11-.33.26-.48.48h-1.93s0,.96,0,.96c-.57.54.3,1.01-1.92,1.92l-.96-.48c-.07.29.09.79,0,.96-.52.93-.98.94-1.44,1.44h-1.44s0,.48,0,.48h.96c-.34.3-.61.68-.96.97-2.16,1.53-4.98,4.06-6.95,5.33-2.44,1.58-5.11,2.52-7.97,3.81-3.46,1.55-5.97,3.29-9.14,4.81-4.55,2.18-9.24,4.45-13.96,6.25-1.67.64-1.76.66-3.27,1.4-4.07,2.01-1.34-3.09-1.53-5.48-.08-.99-.73-3.62-1.01-4.7-.11-.4-.79-.31-.91-.71-.27-.9-.02-2.14-.43-3.32-.33-.96-4.74-6.67-5.53-7.25-.46-.33-1.18-.06-1.28-.15-1.03-.79-1.98-2-2.89-2.89-2.72-2.65-9.95-6.18-14.06-7.35-6.57-1.86-13.35-2.34-19.84-3.26-2.27-.32-13.3-.18-15.03.67-.14.07-2.31,1.79-2.42,1.9-2.06,2.27-1.09,3.46-.57,6.05l2.35.54c.12.16.34.29.48.48.07.09-.18.67.07.87,1.06.87,7.54.47,9.33.55,9.14.41,16.95,1.02,25.83,3.52,1.12.32,2.16.94,3.27,1.31,1.1.63,1.93,1.37,3.37,1.44.65.61,1.32,1.27,1.92,1.92-.46,1.36.78,1.33,1.04,2.1.33.95.16,2.14.41,2.83.33.92,1.59.95,1.9,3.98.25,2.42.58,8.53-1.91,9.38v.95s.96.24.96.24c-1.45.3-.76,1.28-.97,1.68-.13.26-4.06,3.37-4.36,3.58-.49.34-8.24,2.68-8.87,2.73-1.39.09-2.21-.76-3.42-.96-5.64-.94-8.21-1.23-13.13-4.18-.41-.24-1.77-1.1-1.98-.2-.31-.18-.66-.3-.96-.48-4.41-2.64-6.74-4.51-9.62-8.18h.96s0-.96,0-.96c-2.05.43-1.16-.87-1.51-1.36-.2-.28-.71,0-.89-.08-.55-1.04-.96-1.52-1.34-2.25-1.35-2.56-1.49-4.45-4.47-6.13-2.3-1.29-4.29-.59-6.67-.24-.15.29.05.72-.02.93-.38,1.03-.49,1.11-1.44,1.92-.81.7-2.07.04-1.42,2.54.09.35.72.39.88.75.49,1.06.9,2.29,1.41,3.31.62,1.24.57.24,1.06-.34.17.32.34.74.48.96-2.7.22.14,1.81.41,2.22,1.69,2.56,4.96,7.19,7.04,8.88.44.35,1.25.29,1.55.59.12.12,1.23,2.62,1.1,2.74-6.18-.02-12.36.04-18.54-.02-15.8-.16-32.14-3.18-47.77-7.52-4.71-1.31-8.55-2.69-13.08-3.52-.15-.03-.32.03-.48,0,.19-2.11.15-1.02-.91-1.24-1.72-.37-2.49-1.16-3.91-1.64-.14-.05-.33.04-.48,0-.28-1.17-1.25-.76-1.92-.96-.14-.04-.33.04-.48,0-.03,0-.14-.42-.48-.48-.15-.03-.32.01-.48,0-.48-.03-.96.02-1.44,0-.41-.15-.7-.38-.96-.48.28-1.3-.66-.93-1.43-1.19-4.89-1.71-8.86-4.47-12.93-6.95-.33-.2-2.96-1.91-2.48-.03-4.51-2.89-7.95-5.48-11.93-8.66-1.9-1.52-4.08-2.3-6.11-3.86-3.18-2.44-5.78-5.75-8.7-8.15-.4-.33-.47-.68-.7-.98,1.36-1.86-.39-1.33-.48-1.44-1.03-1.19-2.57-2.85-3.37-3.85-.39-.48-1.53-1.72-1.66-1.94-.27-.45-.91-3.18-.74-3.35,1.65-.29,3.32,1.19,4.6,1.41,6.89,1.17,13.53.96,19.86-1.35,2.03-.74,9.12-2.88,9.91-4.42l.28-.94c.36-.14,1.08.34,1.49-.29.85-1.28,1.21-3.81.37-5.2-.73-1.2-1.72-1.48-2.82-1.73-2.6-.6-3.9-.98-6.26.48-1.42-1.55-1.76.18-2.32.44-1.66.77-5.61,2.24-7.59,2.41-8.83.77-15.14-.79-22.82-4.77l-3.27-3.18c.81-2.82.12-5.76.39-8.6.47-4.88,2.13-9.25,3.72-13.62.23-.64,0-1.35.19-1.99l1.33-.06c-.65-1.86.93-2.47,1-2.73.74-2.75,1.18-2.69,2.23-4.88.38-.79.67-2.78.78-2.88.2-.2.99.04,1.22-.16.25-.22,2.2-4.53,3.01-5.68,1.3-1.86,3.22-4.44,4.61-6.21s4.08-3.5,4.05-5.33c-.02-1.02,5.17-5.98,6.26-7.22.76.1,1.06-.21.96-.96h.96l.48.48c.06-.3-.07-.72,0-.96.53-1.59.52-1.03,1.44-1.44l.96.48c.06-.3-.09-.76,0-.96.2-.45.41-1.11.74-1.43.48-.48.82-.33,1.19-.49l.25.48h.71s0-.96,0-.96v-.48c.49-.18.96-.69,1.44-.96h1.44c.11-.31-.07-.75,0-.96,2.15-1.28,1.53-.97,2.89-2.41,3.28-3.46,8.88-5.24,11.55-8.18h.48l1.61.52c.61-1.77,1.82-1.13,2.6-1.6.32-.19.39-1.04.8-1.35.92-.7,2.75-.07,2.69-1.9.12-.07.36.07.48,0l9.83-4.36c13.17-5.92,27.41-8.83,41.88-10.57,1.22-.15,4.6-1.32,5.77-1.37,1.04-.04,2.46.8,3.8.43.51-.14.27-.94.32-.97ZM198.98,78.38c-.16,0-.33-.02-.48,0-.48.06-.72.4-.96.48-3.35,1.12-4.49,3.06-2.15,6.24.13.17,2.3,2.27,2.46,2.32.77.26,1.76-.02,2.6.31,1.47.57,7.42,3.66,8.43,4.57,1.22,1.09.53,5.04,2.62,5.32.15,2.62.73,5.21-.02,7.83-.12.43-.83.4-1.08.95-.58,1.25-.88,2.64-1.78,3.73-1.97,1.4-4.25,2.24-6.33,3.4-.54.3-.65,1.02-1.2,1.32-2.92,1.55-2.28.28-4.98,2.98-.04.04-.58-.14-.99.33-.35.42-1.45,2.27-1.44,2.78,1.76.39,1.69,2.27,2.43,2.89.48.4,1.43.39,2.07.73,1.22.65.63.28,1.75.72,2.12.82,4.33,1.44,6.28,2.65,1.1.69,3.18,2.65,3.79,3.65.89,1.44.25,2.56.53,3.71.12.51,1.15.46,1.38,1.11.25.72.23,3.46-.16,4.06s-1.69.14-1.2,1.42l.96.24-.97,2.16c-.14.22-.15.55-.48.96l-.89.09c.02,1.85-1.65,1.07-2.48,3.28-.05.14.04.33,0,.48h-.96l-6.74,3.37c-.14.05-.33-.04-.48,0-.61.17-1.58.23-2.05.49-.54.29-.3.9-.36.95-.56.56-.44.23-1.27,1.38-.49.67-1.63.46-1.15,2.14.11.39,1.2.69,1.7,1.29.42.5.52,1.6.83,1.84.4.3,1.08-.01,1.33.09,6.36,2.58,8.11-.85,13.93-1.96l.02-.93v-.48c.15-.03.32.02.48,0,2.97-.29,1.23-.13,1.92-.96.15-.19.36-.33.48-.48.11-.14.36-.41.48-.48.17-.11.32-.41.48-.48.28-.12,1.03.1,1.44,0,.07-.3-.08-.73,0-.96.07-.21-.16-.71.05-.92s.77.04.91-.05c1.78-1.07,1.47-1.3,2.41-2.41,1.47-1.73,3.03-3.46,3.7-5.69.47-1.58.14-3.1.54-4.21s1.5-.51,1.09-3.35c-.14-.97-.93-.68-1.16-1.3-1.36-3.65-.6-3.88-3.12-7.88-.76-1.2-1.24-4.01-2.97-3.55-.16-.16-.32-.33-.48-.48-.36-1.76-1.17-2.52-2.88-2.89v.96c-.25-1-3.25-1.97-2.89-2.64s1.42-.55,1.76-.89c.49-.48.71-1.24,1.34-1.79,1.18-1.05,4.07-2.98,4.6-3.82-.03,1.8.24.89.81.08.66-.94,3.11-4.21,3.3-4.87.39-1.33.13-2.82.62-4.17.25-.67.95-.66,1.03-1,.19-.83.16-4.38-.23-4.96-.23-.33-1-.36-1.14-.55-.2-.29.4-1.05.28-1.51-.93-3.32-2.76-5.13-4.49-7.97-.47-.77.05-1.35-1.62-1.02-.13-.15-.32-.28-.48-.48v-.48c-.84-2.15-1.21-1.47-2.41-1.92-.32-.12-.33-.25-.48-.48-1.5-2.28-3.51-2.55-5.92-3.84-.18-.09-1.07-2.58-1.29,0-.37-.16-1.03-.36-1.44-.48.28-1.36-.67-.9-1.52-1.1-1.75-.42-4.42-1.52-5.7.14ZM134.5,80.79c-.52-.37-1.1-1.38-1.3-1.43-2.01-.45-4.85.29-6.55,1.42-.45.3-.28.93-.33.97-.06.05-.66-.08-.96.34-1.34,1.84-1.07,4.17.96,5.43.04.16-.05.35,0,.48.56,1.45,2.01,2.59,2.75,4.22.43.96-.18,1.33,1.58,1.07.07.12-.07.35,0,.48.37.72.9,1.33.96,1.44.26.53.38.85.48,1.44.09.53-1.06,2.36,1.44,1.92.04.15-.04.33,0,.48,1.6,5.85,5,12.07,6.35,17.99.32,1.41-.06,3.55.4,4.74.25.63,1.25.58,1.37,1.11.22.95-1.47,2.31.57,2.92-.44,1.8-.14,4.2.08,6.08.87,7.4.69,16.06-.28,23.13s-5.32,15.32-8.01,21.97c-.15.37-.41.75-.48.96l-1.44-.48v2.41c-.14.22-.26.59-.49.96l-2.41,2.29-2.88,4.44c-.15.09-.3.35-.48.48-1.11.82-.91,1.93-2.89,1.44l.59,4.23c.61.35,1.25.64,1.82,1.06.19.14,1.12.75,1.44.96,1.82,1.19,3.48,2.38,5.91.95.52-.31.3-.92.35-.95.47-.33.64-.2,1.44-.96l.25.48h.71s.47-1.2.47-1.2l-.47-.23c.31-.34-.62-.3.96-.96.48-.2,1.73-.45,1.83-.57.13-.16,1.32-3.16,1.54-3.76.05-.14-.05-.34,0-.48,2.48.5,1.98-2.86,3.04-3.73,2.42-1.98,3.3-3.9,4.18-6.85.04-.15-.05-.33,0-.48l2.54-3.01c1.62-4.86,3.83-8.01,4.63-13.15.19-1.21-.2-2.75.04-3.71.13-.53,1.24-.31,1.46-1.52,1.27-6.77,1.18-18.14.48-24.98-.16-1.56-1.48-3.01-.47-5.33l-1.46-.25c-.51-1.25.86-.79.98-1.25.43-1.74-.77-1.51-.94-1.99-1.11-3.22-.92-7.62-1.99-10.82-.92-2.76-3.47-6.56-4.62-9.42s-1.08-2.32-2.31-4.42c-.79-1.34-.35-3.96-2.66-4.32-.18-.33-.33-.69-.48-.96,1.17-1.19-1.35-2.87-2.09-3.91-1.89-2.67-2.63-4.06-4.65-6.19-.42-.44.13-.17-.96-.96ZM263.71,83.19v.48c.31-.16.31-.32,0-.48ZM98.4,100.03c-8.21-6.58-19.96-6.5-29.49-2.76-.75.3-1.55.13-1.31,1.32-.14.05-.34-.05-.48,0-2.4.9-6.47,3.18-8.19,5.18-.47.54-.8,1.33-.95,2.04-2.69.36-2.77,4.53-3.5,5.19-1.14,1.04-1.23-.21-2.04,2.98-.33,1.28-.93,10.7-.71,11.72.08.37.85.25.88.54.11,1.15-.27,2.8.55,4.27.29.51,1.05.17,1.32.42.43.4.04,2.03,1.58,1.81.03.14-.01.32,0,.48.27,3.32,5.4,6.3,8.18,7.7.12.22-.2,1.2.03,1.39.3.24,1.42-.07,2.04.06.37.08.17.59,2.27.95.57.1,1.01.38,1.44.48-.29,1.42.71.85,1.52,1.1,5.43,1.64,6.68,1.89,12.43,1.31,9.43-.96,15.04-3.89,21.17-11.06,2.02-2.36,2.29-2.53,3.92-5.48.29-.53,1.09-.58,1.35-1.15,1.26-2.76.64-6.21.55-8.95-.02-.7.53-1.6.49-2.48s-.96-.62-1-1c-.31-2.92-1.09-6.46-2.86-9.02-.3-.44-1.09-.26-1.46-.57-.72-.6-1.03-3.17-2.92-2.62-.05-.15.05-.34,0-.48-.74-2.03-1.5-2.66-3.85-2.41-.34-.29-.62-.68-.96-.96ZM260.1,113.98c.86-1.08.14-1.75-.72-2.41-2.44-1.85-9.4-5.17-12.38-4.72-1.32.2-2.33,1.42-3.74,1.36-.18.42.49.89.49.96-.12.98-1.1,1.69-1.01,3.64.09,1.84.84.98,1.01,1.17.06.07-.12.67.33.97.96.65,2.83,1.29,4,1.91l.09.89c1.5.37,2.06,1.28,3.76,2,.8,1.52,2.17,3.49,2.31,5.19.08,1.02-.16,3.72-.39,4.67-.24,1-1.5,1.61-2.2,2.36-.29.31-.23,1.04-.7,1.46-.5.44-1.67.29-1.91,1.24-2.06.74-4.9,1.31-6.2,3.19-.55.8-.19,1.99-1.5,2.37v.92c1.37.35.92,1.66,1.42,2.35.32.45.92.25.99.31.05.05-.15.66.11.85.38.29,1.23-.06,1.7.22.3.18.32,1.11.9,1.3.18.06,3.48-.08,3.71-.13,2.26-.45,5.53-2.48,6.58-3.69.15-.17.33-.31.48-.48s.32-.33.48-.48.32-.33.48-.48h.48l.25.37c.15-.07.14-.28.23-.37.81-.77,2.15-1.48,2.42-1.77.62-.65,1.12-2.58,1.58-2.93.26-.2,1,0,1.19-.19.24-.25,1.55-4.84,1.64-5.63l1.37-.3c-.17-2.05-1.4-2.13-1.01-4.85.13-.89.88-.62.98-1.02.74-2.8-1.01-1.82-1.34-2.13-.26-.24-.51-4.23-2.67-6.02-.28-.23-.72-.11-.79-.17-.34-.29-.62-.68-.96-.96-.19-.16-.9-.55-1.44-.96ZM252.64,129.85v.48c.31-.16.31-.32,0-.48Z"/>
  <path class="cls-23" d="M354.42,65.39v.48c-.11-.11-.49.07-.48.24.04.53.71-.01.48-.24,1.72-.14,3.33.4,5.03.51,2.88.18,5.58-.41,8.57,1.04,1.34.65,2.81,2.19,4.68,2.78,1.16,1.42,3.22,4.39,3.81,6.15,2.16,6.38.84,12.86.52,19.35,0,.16,0,.32,0,.48-.33.17-.4.9-.48.96-.09.07-.65-.16-.85.09-.22.27-1.23,5.36-1.78,6.68-3.18,7.7-9.96,15.88-15.18,22.09-.15.17-.34.31-.48.48-1.91.5-2.55,2.03-3.6,2.9-1.34,1.11-1.66.01-2.66,2.39-.06.13.05.34,0,.48-1.09-.2-1.64.57-2.41.96-.54.27-1.61.37-1.83.59-.26.25-.03.79-.09.86-.15.17-.38.34-.48.48-.62.9-1.46,1.26-1.48,2.64s.82,2.12,1.48,3.14c.09.14.33.31.48.48.06.07-.16.6.1.84.12.11,1.74.78,2.3,1.08,1.69,1.45,3.43,2.56,5.07,3.83.74.57.46,1.97,2.14,1.47h.48c.06.13-.06.35,0,.48.78,1.81,1.5,2.58,2.99,3.75.14.11.36-.4.38-.39,1.13.9,2.83,2.54,3.37,3.85,1.26,3.07,5.18,7.36,7.11,10.91.91,1.68.7,3.96,2.52,4.96.05.4,0,.84.48.96,0,.16,0,.32,0,.48.08,2.02.55,3.2.96,5.07.19.86-.6,1.94.96,1.66-.29,2.8.74,6.39.42,9.8-.15,1.56-2.12,7.37-3.06,8.51-.3.37-1.11.37-1.2.47-.68.73.23,1.01.96.95.36,1.36-.96.93-1.58,1.41-.54.42-1.32,1.07-1.79,1.47l-4.33,2.17c-3.47,1.17-12.29,1.4-15.88.72-6.24-1.18-17.33-6.28-22.57-9.91-.15-.1-2.88-3.62-2.94-1.15-1.71-1.16-5.45-4.71-6.74-6.25-.69-.82-.91-1.04-1.92-1.92-.17-.15-.31-.33-.48-.48v-.48c.76-1.17-1.55-2.12-2.14-2.9-1.53-2.06-1.98-3.76-4.12-5.28-.99-3.28-4.6-7.56-6.22-10.95-.39-.82-.49-2.56-.95-3.19-.39-.54-.94-.22-1.01-.29-.13-.13.06-1.58-1.92-1.44-.18-.12-.35-.43-.48-.48l-1.93-.73c-.03-1.6,1.18-1.98,1.52-2.83,1.58-3.95,3.52-11.3,3.78-15.45.62-10.13-1.29-16.36-4.76-25.16-.61-1.56-1.93-3.84-1.01-5.38.11-.03.29-.4.48-.48l.24.48c1.56.14,1.06.04,1.2-.96.23-1.71.6-.68.96-.96,3.25-2.59,1.79-4.31,3.25-7.1.45-.85.92-.74,1.56-2.04.38-.78.66-1.85.96-2.41,1.85-3.35,8.13-9.65,11.07-12.51-.1,1.61.25.82,1.02.29,2.58-1.78,4.63-4.49,6.68-6.07,8.91-6.87,17.43-10.01,28.02-13.12.79-.23,1.48-.48,1.81-1.32.3-.05.65.04.96,0Z"/>
  <path class="cls-15" d="M213.9,13.92c2.1,1.3,3.91,5.62,4.87,7.78.19.42.72.43.86.78.41,1.04.11,2.52,1.01,3.47.03.26.46.68.48.96-1.06,3.52-.24,7.7-1.48,11.17-.12.32-.77.33-.89.74-.67,2.31-.94,5-2.01,7.29-3.77-.1-7.25-2.29-11.02-2.36-1.71-.94-4.14-1.43-6.07-1.87-19.24-4.34-39.9-5.76-59.63-4.89-1.1.05-2.03.49-3.11.5.15-.95.96-1.32,1.44-1.92h-.96c.34-.35-.26-.12.96-.96v.96c.68-.85.77-.85,1.44-1.92,2.88-1.45,5.6-4.51,8.43-6.73,1.09-.86,2.95-.68,2.64-2.89,1.92-1.19,5.13-2.88,7.22-3.85,15.18-7.05,35.03-13.1,51.59-8.03.35.11,4.04,1.66,4.23,1.78Z"/>
  <path class="cls-2" d="M133.53,231.35l24.7.78,20.05-1.26c.23.23-.31,3.33-.53,3.94-.48,1.35-2.29,3.54-2.84,5.68l-5.64,4.23c-6.2,2.51-12.16,1.92-18.32-.24-4.94-1.73-7.35-4.56-11.65-6.87-.61-.98-.53-1.8-2.17-2.4l-.24.96c-1.34-1.4-2.54-3.1-3.37-4.81Z"/>
  <path class="cls-9" d="M152.3,206.33c2.91,4.63,9.25,12.8,14.3,14.81,1.22.48.26.28.14.59-.45.06-1.04-.09-1.44,0l-1.44.48c-6.15.46-14.45.25-20.69,0-5.12-.21-10.3-.97-15.4-1.44-.63-.06-1.29.06-1.92,0-5.53-1.36-11.22-2.01-16.84-2.89-2.32-1.44-5.59-1.42-8.18-1.92-.15-.03-.33.03-.48,0l-17.32-6.25c4.53.82,8.37,2.21,13.08,3.52,15.63,4.35,31.97,7.36,47.77,7.52,6.18.06,12.37,0,18.54.02.13-.12-.98-2.63-1.1-2.74-.31-.3-1.12-.24-1.55-.59-2.08-1.68-5.35-6.31-7.04-8.88-.27-.41-3.11-2-.41-2.22Z"/>
  <path class="cls-7" d="M161.93,183.73l-2.35-.54c-.52-2.6-1.49-3.79.57-6.05.1-.11,2.28-1.84,2.42-1.9,1.73-.85,12.76-.99,15.03-.67,6.48.92,13.27,1.4,19.84,3.26,4.11,1.17,11.34,4.7,14.06,7.35-1.98.08-3.74-1.27-4.93-2.53-4.46-1.81-8.21-2.76-12.88-3.72.28-1.33-.66-.93-1.51-1.11-2.59-.55-5.49-1.03-8.12-1.29-4.03-.4-18.37-1.3-21.33.11-.55.26-.63.73-.81.86s-.32.33-.48.48c-2.78,2.76-1.45,3.11.48,5.77Z"/>
  <path class="cls-12" d="M135.94,47.6c-.27-1.45.73-.93,1.66-.96,29.82-.92,51.42.68,79.77,10.26.78.26,1.58.04,1.34,1.28-27.18-10.34-53.46-11.95-82.29-10.58-.16,0-.32,0-.48,0Z"/>
  <path class="cls-19" d="M138.35,35.57c-.48.6-1.3.97-1.44,1.92,1.08-.01,2.01-.45,3.11-.5,19.73-.86,40.39.56,59.63,4.89,1.93.44,4.36.93,6.07,1.87-.32,0-.64,0-.96,0-8.54-2.05-18.19-4.21-26.95-4.81-1.27-.09-2.58.08-3.85,0-1.33-.5-3.64-.87-5.06-.96-7.52-.47-15.06-.54-22.63-.51l-10.81.98c-.24-.08-.66.05-.96,0v-.47c1.26-.19,1.98-1.48,2.88-2.41h.96Z"/>
  <path class="cls-18" d="M179.25,230.39c-.1,3.97-1.79,7.6-4.33,10.58.03-.15-.04-.33,0-.48.55-2.14,2.36-4.33,2.84-5.68.22-.61.76-3.72.53-3.94l-20.05,1.26-24.7-.78c-.06-.13-.75-.07-.48-.96,2.72.06,5.46-.1,8.18,0,10.75.37,21.37.64,32.24,0,2.55-.15,3.25-.16,5.77,0Z"/>
  <path class="cls-7" d="M15.63,150.54c7.67,3.99,13.99,5.54,22.82,4.77,1.97-.17,5.93-1.64,7.59-2.41.55-.26.9-1.99,2.32-.44-1.79,1.11-2.67,1.93-4.81,2.89-2.38.24-4.58,1.24-6.99,1.44-5.13.42-9.76-.81-14.67-1.92-3-1.26-4.3-2.2-6.74-3.85v-.48c.12.07.35-.07.48,0Z"/>
  <path class="cls-25" d="M135.94,47.6c.16,0,.32,0,.48,0v.48s.19.83-.32.97c-1.34.37-2.76-.47-3.8-.43-1.17.05-4.55,1.22-5.77,1.37-14.47,1.74-28.7,4.64-41.88,10.57l-9.83,4.36c.1-.05.32-.59.82-.86.94-.51,2.4-.16,2.07-1.55.75-.32,1.52-.31,1.92-.48,11.91-5.03,22.31-9,35.13-11.54,4.44-.88,9.11-1.12,13.47-2.41,2.56-.22,5.13-.35,7.7-.48Z"/>
  <path class="cls-9" d="M54.61,151.98c1.1.25,2.09.53,2.82,1.73.84,1.39.48,3.92-.37,5.2-.41.63-1.14.15-1.49.29l-.28.94c-.79,1.54-7.88,3.67-9.91,4.42-6.33,2.32-12.97,2.53-19.86,1.35-1.28-.22-2.95-1.71-4.6-1.41-.17.17.47,2.9.74,3.35.13.22,1.28,1.46,1.66,1.94.8,1,2.34,2.66,3.37,3.85.1.11,1.84-.42.48,1.44-.51-.64-.42-1.39-.48-1.44-.11-.1-1.31-.49-2.41-1.44-.25-.53-.71-2.1-.96-2.41-1.04-1.26-3.56-3.24-4.81-4.81-1.07-1.34-1.25-1.32-1.44-2.89,4.26,1.42,8.96,3.01,13.47,3.37,5.77.46,11.4-.37,16.86-2.17.78-.26,1.7.08,1.42-1.2,2.38-.81,4.49-2.02,6.74-2.89,1.19-3.32,1.12-4.33-.96-7.22Z"/>
  <path class="cls-7" d="M206.2,193.83c2.12,2.31,2.69,2.03,3.85,5.77.35,1.13,1.38,3.5,1.43,3.7.62,2.63-1.39,8.9-2.9,11.32-.34.55-.91.33-.94.37-.15.18-.14,1.12-.48,1.44-3.68,2.87-3.74,3.78-8.66,5.29-3.35.1-6.33.08-9.62-.48-5.04-.86-8.67-2.84-12.99-5.29.21-.89,1.57-.04,1.98.2,4.92,2.95,7.49,3.23,13.13,4.18,1.21.2,2.03,1.05,3.42.96.63-.04,8.38-2.39,8.87-2.73.3-.21,4.23-3.32,4.36-3.58.21-.41-.48-1.38.97-1.68l-.96-.24v-.95c2.5-.85,2.16-6.96,1.91-9.38-.31-3.03-1.57-3.06-1.9-3.98-.25-.68-.08-1.88-.41-2.83-.27-.76-1.51-.74-1.04-2.1Z"/>
  <path class="cls-29" d="M180.69,185.17c3.87.29,7.24.76,11.07,1.44,2.83,1.33,5.79,1.69,8.63,3.16.32.17.41.63.51.69-1.1-.36-2.15-.99-3.27-1.31-8.88-2.5-16.68-3.12-25.83-3.52-1.79-.08-8.28.32-9.33-.55-.25-.2,0-.78-.07-.87,6.05.7,12.18.5,18.29.96Z"/>
  <path class="cls-8" d="M173.96,38.94c-2.1-.13-5.91-.48-7.94-.48h-25.5c-1.89,0-2.18.92-5.05,0l10.81-.98c7.57-.03,15.11.03,22.63.51,1.42.09,3.73.45,5.06.96Z"/>
  <path class="cls-9" d="M214.38,188.06c.11.08.83-.19,1.28.15.8.58,5.2,6.28,5.53,7.25.41,1.18.16,2.42.43,3.32.12.4.8.31.91.71.29,1.08.93,3.71,1.01,4.7.19,2.39-2.55,7.49,1.53,5.48,1.5-.74,1.6-.76,3.27-1.4v.48c-1.16.48-2.36,1.42-3.37,1.92-1.47.74-2.84,2.2-3.85.48.72-4.19.97-12.63-1.25-16.33-.21-.36-.92-.46-1.17-.86-.77-1.22-.71-3.33-2.88-3.01-.41-.56-.86-2.19-1.44-2.89Z"/>
  <path class="cls-17" d="M373.67,70.2s.16-.54.47-.29c.55.43.63,1.39,1.05,1.92,2.45,3.15,2.23,3.92,3.32,7.63.13.45.86.18.97,1.05.96,7.49-.37,11.83-2.44,18.55h-.48c.04-.47-.03-.97,0-1.44.63-.24.46-.91.48-1.44,0-.16,0-.32,0-.48,1.68-5.57,2.23-15.76-.34-21.04-.29-.6-.89-.62-1.09-.96-.66-1.14-1.02-2.48-1.94-3.49Z"/>
  <path class="cls-5" d="M164.33,16.81c-.26-1.29.62-.98,1.35-1.28,14.19-5.84,30.75-9.44,45.69-4.36.28.59.59.9,1.09,1.3-15.56-6-33.28-2.07-48.12,4.33Z"/>
  <path class="cls-27" d="M218.71,18.25s.69-.15,1,.3c1.13,1.66,1.45,6.6,1.9,8.51.09.37.85.3.94.66.61,2.52-.55,6.49-1.07,8.93-.84,3.89-1.34,5.21-3.14,8.38-.46.82-.77,2.11-1.08,3.03-.74.33-1.18-.41-1.44-.48v-.48c.48.07,1.2.19,1.49-.29,2.6-6.67,4.36-12.62,3.8-19.92-.02-.28-.45-.7-.48-.96-.4-3.42-.34-4.74-2.41-7.7h.48Z"/>
  <path class="cls-13" d="M15.15,124.56c-.05.14.05.34,0,.48-1.53,4.72-4.18,11.58-4.35,16.57-.05,1.48-.2,4.16.34,5.44.11.27,3.35,3.57,4.01,3.48v.48c-3.24-2.19-5.32-2.68-5.31-7.44,0-6.11,2.16-12.02,4.12-17.59.27-.77-.1-1.71,1.19-1.43Z"/>
  <path class="cls-8" d="M375.11,172.18c1.84,4.28,3.02,7.23,3.36,12.27.25,3.74-.34,13.97-4.32,15.63-.19-1.67,2.04-3.46,2.38-4.22,1.57-3.48,1.18-12.16.51-15.99-.41-2.34-1.14-4.22-2.41-6.25,0-.16,0-.32,0-.48,0-.32,0-.64,0-.96h.48Z"/>
  <path class="cls-18" d="M369.82,67.32c1.91,1.1,1.69,1.42,2.89,2.89-1.87-.59-3.34-2.14-4.68-2.78-2.99-1.44-5.7-.86-8.57-1.04-1.71-.11-3.31-.65-5.03-.51v-.48c5.24-.7,10.67-.79,15.4,1.92Z"/>
  <path class="cls-6" d="M141.23,230.39h32.24c-10.87.64-21.49.37-32.24,0Z"/>
  <path class="cls-7" d="M34.88,95.22c.03,1.84-2.64,3.54-4.05,5.33s-3.31,4.35-4.61,6.21h-.96c2.54-3.46,4.81-7.1,7.71-10.34.57-.63,1-1.13,1.92-1.2Z"/>
  <path class="cls-18" d="M376.55,97.14v.48c-.03.48.04.97,0,1.44-.1,1.05-2.22,6.37-2.93,7.79-.8,1.61-3.31,4.02-3.81,6.16v.48l-.48.48c-1.74,3.76-4.89,6.69-7.69,9.39-.89.86-1.51,2.43-2.89,2.64,5.22-6.21,11.99-14.39,15.18-22.09.55-1.32,1.56-6.41,1.78-6.68.2-.25.76-.02.85-.09Z"/>
  <path class="cls-26" d="M368.85,204.41l.48.44c-5.71,3.3-11.6,3.26-17.98,2.39-.72-.1-3.08-.08-2.71-1.38.56.09,1.15.45,1.44.48,6.44.76,12.83,1.22,18.77-1.92Z"/>
  <path class="cls-10" d="M324.58,194.79c.06-2.47,2.79,1.04,2.94,1.15,5.24,3.64,16.32,8.73,22.57,9.91v.48c-.3-.04-.89-.39-1.44-.48-8.82-1.48-16.74-6.08-24.06-11.06Z"/>
  <path class="cls-25" d="M242.29,202l.48.48c-2.72,1.4-5.19,3.08-8.18,4.33-1.87.78-4.38,1.15-6.26,1.92v-.48c4.72-1.8,9.4-4.07,13.96-6.25Z"/>
  <path class="cls-12" d="M204.76,43.75c3.28.79,7.92,2.94,11.07,3.37v.48c-12.31-3.42-23.39-5.37-35.89-7.66-.83-.15-1.81.13-2.13-1,8.76.6,18.41,2.76,26.95,4.81Z"/>
  <path class="cls-13" d="M125.83,220.76c-.05,0-.31.45-1.03.38-5.15-.5-11.35-1.81-16.29-3.27.16.02.32-.02.48,0,5.62.88,11.31,1.53,16.84,2.89Z"/>
  <path class="cls-22" d="M336.61,70.68c7.99-3.98,17.97-7.55,27.07-6.14,1.38.22,3.59,1.21,5,1.74.21.08,2.37.64,1.13,1.03-4.73-2.72-10.16-2.62-15.4-1.92-.31.04-.66-.05-.96,0-4.58.74-12.54,3.39-16.84,5.29Z"/>
  <path class="cls-24" d="M166.74,221.73c-.13.34.37,1.09-.69,1-7.62-.25-15.28.22-22.89-.04v-.48c6.24.25,14.55.46,20.69,0,.86-.06,1.1-.4,1.44-.48.41-.09.99.06,1.44,0Z"/>
  <path class="cls-13" d="M215.82,190.94c2.17-.32,2.1,1.8,2.88,3.01.25.4.96.5,1.17.86,2.22,3.71,1.97,12.14,1.25,16.33-1.05-1.78.06-4.29.03-6.51-.08-6.55-1.85-8.97-5.32-13.69Z"/>
  <path class="cls-29" d="M218.71,58.18c.93.35,1.7.37,2.89.96.17.09.31.39.48.48-.4.69-2,.12-2.59-.06-2.36-.7-5.05-2.15-6.94-2.78-20.26-6.73-44.46-9.44-65.76-9.2-1.58.02-3.77.97-5.34.99-1.14.01-4.3-.97-5.03-.5v-.48c28.83-1.37,55.11.24,82.29,10.58Z"/>
  <path class="cls-17" d="M114.77,50v.48c-12.82,2.54-23.22,6.51-35.13,11.54-.27-1.15.63-.97,1.34-1.28,11.55-5.1,21.38-8.32,33.79-10.74Z"/>
  <path class="cls-13" d="M210.05,199.6c1.79-.47,1.62,1.02,1.78,2.3.26,2.07.32,4.97.08,7.03-.06.51-3.12,7.13-3.43,7.41-.38.33-1.2,0-1.33.1.34-.33.33-1.26.48-1.44.03-.04.6.18.94-.37,1.51-2.42,3.52-8.69,2.9-11.32-.05-.2-1.08-2.57-1.43-3.7Z"/>
  <path class="cls-24" d="M161.45,177.95c-.73,1.39-.37,4.8.97,5.52,2.61,1.4,12.97.61,16.62.73.93.03,1.93-.49,1.66.96-6.1-.46-12.24-.26-18.29-.96-.14-.19-.36-.32-.48-.48-1.93-2.67-3.27-3.01-.48-5.77Z"/>
  <path class="cls-24" d="M184.06,176.51v.48c-5.12-.62-13.41-.86-18.55-.5-1.33.09-2.42.38-3.59.98.18-.13.25-.59.81-.86,2.96-1.41,17.3-.51,21.33-.11Z"/>
  <path class="cls-28" d="M128.24,48.08c-4.37,1.28-9.03,1.52-13.47,2.41v-.48c5.12-1,8.25-1.48,13.47-1.92Z"/>
  <path class="cls-10" d="M323.62,79.82c-2.05,1.58-4.11,4.29-6.68,6.07-.77.53-1.12,1.32-1.02-.29,2.39-2.32,5.22-3.79,7.7-5.77,2.28-1.82,5.01-4.58,7.59-6.25,1.38-.89,3.89-2.22,5.4-2.89,4.3-1.9,12.26-4.56,16.84-5.29-.33.84-1.02,1.08-1.81,1.32-10.6,3.11-19.11,6.25-28.02,13.12Z"/>
  <path class="cls-5" d="M235.07,64.91c-.15-.04-.33.04-.48,0s-.33.03-.48,0c-1.97-1.78-5.21-2.5-7.7-3.37-.31-.16-.66-.32-.96-.48-.79-.43-1.43-.95-2.41-.96-.37-.24-.66-.32-.96-.48-.17-.09-.31-.39-.48-.48-.12-1.58.26-.94,1.21-.49,3.49,1.66,7.03,3.3,10.58,4.81.76.32,1.77-.13,1.68,1.45Z"/>
  <path class="cls-6" d="M43.54,155.35c-7.33,3.27-14.67,2.46-21.66-.48,4.91,1.11,9.54,2.34,14.67,1.92,2.4-.2,4.61-1.19,6.99-1.44Z"/>
  <path class="cls-6" d="M143.16,222.21v.48c-4.39-.15-8.88-.48-13.25-.94-.87-.09-1.79.17-2.15-.98,5.1.47,10.28,1.24,15.4,1.44Z"/>
  <path class="cls-16" d="M212.45,12.48c.42.34.93,1,1.44,1.44-.2-.12-3.89-1.67-4.23-1.78-16.55-5.06-36.4.98-51.59,8.03,2.03-1.56,3.99-2.39,6.26-3.37,14.84-6.39,32.56-10.33,48.12-4.33Z"/>
  <path class="cls-7" d="M251.43,197.19c-1.27,3.03-5.84,3.84-8.66,5.29l-.48-.48c3.17-1.52,5.69-3.26,9.14-4.81Z"/>
  <path class="cls-13" d="M48.84,162.08c.28,1.28-.64.94-1.42,1.2-5.46,1.8-11.09,2.63-16.86,2.17v-.48c5.78.59,12.86-1.04,18.29-2.89Z"/>
  <path class="cls-27" d="M184.06,176.51c2.63.26,5.53.74,8.12,1.29.85.18,1.79-.22,1.51,1.11-2.9-.6-6.84-1.59-9.62-1.92v-.48Z"/>
  <path class="cls-10" d="M139.31,237.6c4.3,2.31,6.72,5.14,11.65,6.87,6.16,2.16,12.12,2.75,18.32.24l5.64-4.23c-.04.15.03.33,0,.48v.48c-.78.02-2.58,2.11-3.85,2.89-6.2,3.8-9.15,2.75-15.88,2.41-3.69-1.1-7.11-2.7-10.59-4.33-2.34-1.58-3.83-2.45-5.29-4.81-1.12-.6-1.17-.15-2.41-1.44l.24-.96c1.63.6,1.56,1.42,2.17,2.4Z"/>
  <path class="cls-21" d="M151.34,197.19c.08-.21-.13-.63.02-.93,2.38-.34,4.38-1.05,6.67.24,2.98,1.68,3.12,3.57,4.47,6.13.38.72.8,1.21,1.34,2.25.18.07.7-.2.89.08.35.49-.53,1.79,1.51,1.36v.96s-.96,0-.96,0c-.83-1.05-.88-1.33-1.44-2.41-2.08-.83-2.83-2.84-3.85-4.81-.14-.26.06-.95-.44-1.7-1.55-2.3-5.89-1.74-8.22-1.18Z"/>
  <path class="cls-29" d="M247.58,71.65c-.55,1.22-1.41.06-1.93-.23-3.31-1.86-6.47-3.35-9.79-5.14-.67-.36-1.52-.19-1.27-1.36.15.04.33-.04.48,0,3.48.9,9.3,4.84,12.51,6.73Z"/>
  <path class="cls-22" d="M198.5,221.73c-4.79,1.47-4.94.92-9.62,0v-.48c3.29.56,6.27.58,9.62.48Z"/>
  <path class="cls-22" d="M298.59,161.12c.13.05.3.36.48.48.22.15,1.84,1.35,1.92,1.44.43.45,1.59,4.68,2.09,5.61.92,1.71,4.87,7.95,6.09,8.82.08.27-.09.72,0,.96-1.22-1.15-1.61-2.38-2.08-2.77-3.42-2.83-4.01-6.88-6.15-10.79-1.13-2.05-2.42-3.31-4.96-3.23-1.77.05-3.38,1.11-4.62,1.88-.37.59-.96,1.62-1.03,2.32l-1.37.09c1.07-1.3.66-1.31,2.41-2.41.06-.1-.13-.53.1-.85,1.01-1.44,5.43-2.19,7.12-1.55Z"/>
  <path class="cls-10" d="M139.79,33.65c-.67,1.08-.76,1.08-1.44,1.92v-.96c.58-.4.55-.51,1.44-.96,1.11-1.79,3.78-4.48,5.81-5.98,1.35-.99,3.77-2.72,5.26-3.64.3,2.21-1.55,2.03-2.64,2.89-2.83,2.22-5.55,5.28-8.43,6.73Z"/>
  <path class="cls-28" d="M30.55,164.97v.48c-4.52-.36-9.21-1.95-13.47-3.37-.05-.36-1.16-1.21.24-.97s2.6,1.4,3.98,1.79c2.27.64,7.06,1.84,9.25,2.06Z"/>
  <path class="cls-28" d="M171.07,244.34l.36.6c-5.84,3.35-10.85,3.42-17.21,1.81.32.01.64-.02.96,0,6.73.34,9.68,1.4,15.88-2.41Z"/>
  <path class="cls-28" d="M82.52,209.7c.16.03.33-.03.48,0l17.32,6.25c-7.61-1.55-14.93-4.28-22.14-7.22,1.56-.18,2.87.73,4.33.96Z"/>
  <path class="cls-12" d="M377.03,99.07c-1.29,4.19-2.34,6.38-4.46,10.23-.68,1.23-.61,4.24-2.76,3.72.5-2.14,3.01-4.55,3.81-6.16.71-1.43,2.83-6.74,2.93-7.79h.48Z"/>
  <path class="cls-28" d="M160,200.08c-1.54.28-.83-1.28-1.81-1.92-1.72-1.13-6.44-1.55-7.25.8-.57,1.66.58,3.52-.08,4.97-.78-1.7-1.28-2.75-.96-4.81.96-.82,1.07-.89,1.44-1.92,2.33-.56,6.67-1.12,8.22,1.18.51.76.31,1.44.44,1.7Z"/>
  <path class="cls-6" d="M234.59,206.82c-2.89,1.7-6.17,3.61-9.62,3.85,1.01-.51,2.21-1.45,3.37-1.92,1.88-.77,4.38-1.15,6.26-1.92Z"/>
  <path class="cls-5" d="M352.01,132.26c-.82,2.16-1.32,1.05-2.6,1.99-1.45,1.07-2.43,2.92-2.03,4.78.72.43,1.29,2.12,1.58,2.39,2.34,2.13,7.31,3.81,8.82,7.19h-.48c-.91-.62-1.92-2.2-2.57-2.73-1.3-1.07-3.27-1.81-4.65-2.56-.67-.57-1.03-2.01-2.41-1.92-.15-.17-.39-.34-.48-.48-.68-1.93-.67-3.85,0-5.77.1-.14.33-.32.48-.48.95-.03,1.56-.61,1.92-1.44.77-.39,1.31-1.17,2.41-.96Z"/>
  <path class="cls-26" d="M365.97,157.27c4.63,4.07,6.69,9.2,9.14,14.91h-.48c-.16-.04-.37.06-.48,0-.36-3.07-5.01-10.22-7.14-12.81-.5-.61-.92-1.3-1.04-2.1Z"/>
  <path class="cls-28" d="M108.99,217.88c-.16-.02-.32.02-.48,0-2.57-.4-5.48-.41-7.7-1.92,2.59.5,5.86.48,8.18,1.92Z"/>
  <path class="cls-27" d="M304.85,98.1c-.3.55-.58,1.63-.96,2.41-2,.23-2.33,3.09-2.95,4.41-.19.42-.71.42-.86.78-.42,1.06-.51,2.78-1.01,3.95-.36.29-.73-.74-.96.96-.75-.27-1.08.33-1.44.48-.19.08-.37.46-.48.48-.85.19-4.16-.14-4.91-.5-.66-.32-.84-1.79-2.31-1.45,0-.24.49-.42.49-.45,2.77,1.5,7.44,2.76,9.18-.68.66-1.31.72-3.67,1.38-4.75.26-.43,1.07-.57,1.39-1.11.94-1.59,1.23-4.04,3.44-4.52Z"/>
  <path class="cls-9" d="M77.71,206.82c1.42.48,2.18,1.27,3.91,1.64,1.05.23,1.09-.87.91,1.24-1.46-.23-2.77-1.15-4.33-.96-.15-.06-.31-.41-.48-.48v-1.44Z"/>
  <path class="cls-17" d="M174.92,215.47c.31.18.65.31.96.48,4.33,2.45,7.96,4.43,12.99,5.29v.48c-5.41-1.06-9.67-2.46-14.25-5.72l.3-.53Z"/>
  <path class="cls-17" d="M71.46,204.89c.27.1.55.34.96.48.29.1.99,1.13,1.44,0,.16.01.33-.03.48,0l.48.48c.15.04.34-.04.48,0v.48c-.21-.03-.57.19-.48.48-7.07-3.09-11.91-4.89-18.77-9.14,4.9,1.71,9.22,4.94,13.96,6.99.51.22,1.12.1,1.44.22Z"/>
  <path class="cls-5" d="M191.76,186.61c5.25.94,8.55,1.58,12.51,5.29-1.44-.07-2.27-.82-3.37-1.44-.1-.06-.19-.52-.51-.69-2.85-1.47-5.81-1.83-8.63-3.16Z"/>
  <path class="cls-22" d="M179.25,230.39c.19.01,1.24-.73,1.44-.48.76.95-.83,1.5-.93,1.79-1.35,3.87-1.18,6.81-4.4,10.23-.24-.01-.4-.49-.45-.49v-.48c2.54-2.98,4.23-6.61,4.33-10.58Z"/>
  <path class="cls-20" d="M54.61,77.42c-1.36,1.44-.73,1.12-2.89,2.41-.08.21.1.65,0,.95h-1.44c.24-.12.89-.62,1.44-.95.55-1.49,1.06-2.5,2.89-2.41Z"/>
  <path class="cls-26" d="M212.45,12.48c3.75,1.45,4.05,2.71,6.26,5.77h-.48c-1.54-2.2-2.42-2.66-4.33-4.33-.51-.45-1.02-1.1-1.44-1.44Z"/>
  <path class="cls-20" d="M284.64,171.22c-1.48,1.74-.96.78-1.92,1.44-.36.25-3.02,4.25-3.56,4.86-1,1.11-1.33.44-2.69,2.36l-1.92.96c.76-1.9,3.34-3.51,4.85-5.03,1.19-1.2,2.55-2.3,3.33-3.15.35-.39.08-1.88,1.92-1.44Z"/>
  <path class="cls-28" d="M24.3,107.72c.14,1.65-1.46,2.5-1.91,3.24-2.2,3.61-4.51,7.89-5.94,11.75-.3.82-.8,1.6-1.29,2.32.05-.15-.05-.34,0-.48,2.35-7.1,4.97-10.99,9.14-16.84Z"/>
  <path class="cls-20" d="M54.61,196.71c-.48-1.88,2.15-.17,2.48.03,4.07,2.48,8.04,5.25,12.93,6.95.77.27,1.71-.1,1.43,1.19-.32-.12-.93,0-1.44-.22-4.73-2.05-9.06-5.28-13.96-6.99-.49-.3-.96-.65-1.44-.96Z"/>
  <path class="cls-9" d="M26.22,106.76c-.81,1.15-2.77,5.46-3.01,5.68-.22.2-1.02-.03-1.22.16-.11.1-.4,2.09-.78,2.88-1.05,2.18-1.49,2.13-2.23,4.88-.07.26-1.65.87-1,2.73l-1.33.06c-.19.64.04,1.35-.19,1.99-1.59,4.37-3.24,8.74-3.72,13.62-.27,2.84.42,5.79-.39,8.6l3.27,3.18c-.13-.07-.36.07-.48,0-.66.09-3.9-3.21-4.01-3.48-.54-1.28-.39-3.97-.34-5.44.18-4.99,2.83-11.85,4.35-16.57.49-.72.98-1.5,1.29-2.32,1.43-3.87,3.75-8.14,5.94-11.75.45-.75,2.05-1.59,1.91-3.24.35-.48.8-.74.96-.96h.96Z"/>
  <path class="cls-22" d="M77.71,62.51c.33,1.39-1.13,1.04-2.07,1.55-.49.27-.72.8-.82.86-.12.07-.36-.07-.48,0l-7.7,4.33h-.48c2.38-2.62,7.84-5.15,11.55-6.73Z"/>
  <path class="cls-20" d="M77.23,206.82c.15.04.34-.05.48,0v1.44c-1.06-.44-2.02-1.07-2.89-1.44-.09-.29.27-.51.48-.48.42.07,1.46.35,1.92.48Z"/>
  <path class="cls-18" d="M358.27,126.48c-1.35,1.62-2.64,2.98-4.21,4.34-.53.46-1.34.8-2.04.95,1-2.38,1.32-1.28,2.66-2.39,1.05-.87,1.68-2.4,3.6-2.9Z"/>
  <path class="cls-12" d="M18.52,164.97c1.26,1.57,3.77,3.55,4.81,4.81.26.31.72,1.88.96,2.41-1.29-1.12-3.26-2.74-4.18-3.99-.6-.82-1.24-2.23-1.59-3.22Z"/>
  <path class="cls-5" d="M155.19,246.74c-.32-.02-.64.01-.96,0-4.36-1.1-5.87-1.79-9.62-4.33,3.47,1.63,6.9,3.23,10.59,4.33Z"/>
  <path class="cls-16" d="M364.52,156.31c.9-.22,1,.57,1.44.96.12.8.54,1.49,1.04,2.1,2.12,2.58,6.78,9.73,7.14,12.81-1.82-1-1.61-3.28-2.52-4.96-1.92-3.56-5.85-7.84-7.11-10.91Z"/>
  <path class="cls-14" d="M358.27,149.09c-.39,1.48,1.56.66,1.92,1.92.2.49.71.96.96,1.44-.02-.02-.24.49-.38.39-1.49-1.17-2.21-1.95-2.99-3.75h.48Z"/>
  <path class="cls-21" d="M150.86,203.93c.22.49.7.95.96,1.44-.49.58-.44,1.58-1.06.34-.51-1.02-.91-2.25-1.41-3.31-.16-.35-.79-.4-.88-.75-.65-2.49.61-1.84,1.42-2.54-.32,2.06.18,3.11.96,4.81Z"/>
  <path class="cls-17" d="M48.84,81.75v.48c-.41-.02-.7.37-.96.48-.37.16-.71.01-1.19.49-.32.32-.54.98-.74,1.43-.4,0-.68.35-.96.48-.93.42-.92-.14-1.44,1.44l-.48.48h-.96c.1.75-.2,1.07-.96.96.6-.69.51-.52.96-.96,2.4-2.33,3.4-4.06,6.74-5.29Z"/>
  <path class="cls-16" d="M377.03,179.88c.67,3.83,1.06,12.51-.51,15.99-.34.75-2.56,2.55-2.38,4.22-.11.04-.31-.01-.48,0-.73.06-1.64-.23-.96-.95.09-.09.9-.1,1.2-.47.94-1.14,2.91-6.95,3.06-8.51.33-3.41-.7-7-.42-9.8.02-.22.26-.43.48-.48Z"/>
  <path class="cls-16" d="M373.67,70.2c.91,1.02,1.28,2.36,1.94,3.49.19.34.8.36,1.09.96,2.57,5.29,2.02,15.47.34,21.04.32-6.49,1.64-12.97-.52-19.35-.59-1.76-2.65-4.72-3.81-6.15.25.08.68-.07.96,0Z"/>
  <path class="cls-13" d="M274.05,181.8c-2.13,3.26-4.67,4.11-7.7,6.25.35-.29.63-.66.96-.96.17-.15.33-.32.48-.48.47-.5.92-.52,1.44-1.44.41.02.7-.37.96-.48,2.23-.91,1.35-1.38,1.92-1.92.17-.16,1.3-.14,1.44-.96h.48Z"/>
  <path class="cls-5" d="M309.18,178.43c2.23,2.11,3.86,5.19,6.26,7.22v.48c-2.36-2.05-5.1-4.58-6.26-7.7Z"/>
  <path class="cls-5" d="M358.27,149.09c2-.44,1.56,1.02,1.92,1.92-.36-1.26-2.32-.45-1.92-1.92Z"/>
  <path class="cls-16" d="M370.3,202.97c-.51.43-1.23.64-1.44,1.44-5.93,3.14-12.32,2.68-18.77,1.92v-.48c3.6.68,12.41.45,15.88-.72l4.33-2.17Z"/>
  <path class="cls-5" d="M315.92,186.61c1.01.89,1.24,1.1,1.92,1.92l-1.36-.07-.57-1.85Z"/>
  <path class="cls-6" d="M265.87,84.15c.22.12,1.09-.21,1.39.06.23.2-.02.73.06.9h-.96c-.1-.32-.36-.64-.48-.96Z"/>
  <path class="cls-6" d="M262.5,81.75l.22-.35c1.6.12,1.96,1.03,2.67,2.28-.96-.59-1.99-1.25-2.89-1.92Z"/>
  <path class="cls-20" d="M267.31,85.12c.14.33.33.64.48.96-.35-.09-1.1.19-1.39-.06-.22-.2,0-.68-.06-.9h.96Z"/>
  <path class="cls-6" d="M268.76,86.56c.28.09.83-.19,1.32.11.16.1,1.22,1.83,1.57,2.29-.28-.19-.72-.28-.96-.48-.37-.3-.49-1.11-1.44-.96-.14-.33-.33-.64-.48-.96Z"/>
  <path class="cls-13" d="M276.46,179.88c-.25.35-.31,1.17-.58,1.35-.44.29-1.07,0-1.35.09v-.48l1.92-.96Z"/>
  <path class="cls-12" d="M369.33,113.98l.48-.48-.48.48Z"/>
  <path class="cls-13" d="M220.4,211.63c.31.16.31.32,0,.48v-.48Z"/>
  <path class="cls-4" d="M93.59,98.58c1.7.54,3.05,1.58,4.81,1.44.35.28.62.67.96.96,1.13.95,2.38,2.04,3.85,2.41.05.14-.05.33,0,.48.6,1.94,1.44,2.26,2.41,4.33,1.07,2.29,2.09,3.75,2.65,6.25,1.11,4.97,1.12,10.22-.77,15.02-.77,1.95-3.12,4.45-3.81,5.67-1.93,3.44-6.05,5.83-9.62,7.22-2.94,1.14-5.82,1.85-8.96,2.35l-9.81.06c-.3-.05-.66.05-.96,0,.29-1.43-.72-.84-1.53-1.09-3.31-1.02-6.35-2.44-9.54-3.72l-7.22-6.73c-.01-.17.03-.34,0-.48-.44-1.81-1.68-4.08-1.92-6.25-.65-5.79.19-12.78,2.89-17.8.4-.74,1.14-2.48,1.44-2.89.64-.86,3.77-3.48,4.81-4.33,2.57-.57,4.66-2.37,7.1-3.25,8.15-2.94,15.17-2.2,23.22.36ZM83.01,104.36c-2.48-.24-6.61.46-8.93,1.41-1.09.45-4.64,3.14-5.51,3.88-1.5,1.27-2.25,2.28-3.37,3.85-.22.31-.9.35-1.32,1.31-1.55,3.56-1.29,10.09.76,13.39.47.76.59.94,1.53,1.16,1.18,1.77,3.37,4.56,5.77,4.33-.03.15.04.34,0,.48-.03.08-.57.1-.48.47,7.6,3.58,13.65,3.63,20.7-.95,3.56-2.31,7.14-5.53,7.22-9.62.04-2.23.04-4.5,0-6.73-.04-1.82-1.59-5.39-2.87-6.89-.09-.11-2.35-1.59-1.94-.81h-.48l-1.44-.96v-.48l.96-.48c-3.35-1.27-6.74-4.22-10.58-3.37Z"/>
  <path class="cls-3" d="M209.57,81.27l5.29,2.41c.15.23.16.36.48.48.1.31.43.68.48.96,0,.03-.43.23-.25.47.87,1.13,3.54,3.14,4.43,4.71.37.66,2.98,6.92,3.04,7.32.55,4.19-.37,8.22-1.9,11.81-.45,1.05-.91,2.11-1.47,3.1-.07.12.07.37,0,.48-.53.84-3.42,2.77-4.6,3.82-.62.55-.84,1.31-1.34,1.79-.34.33-1.41.25-1.76.89-.36.67,2.64,1.64,2.88,2.64.16.16.31.34.48.48l4.52,4.84c1.9,5.14,4.99,11.16,1.78,16.21l-1.48,5.4c-.34.45-.61,1.04-.96,1.44-.31.36-1.03,1.03-1.44,1.44-.54.53-2.64,2.53-3.12,2.9-1.05.81-3.02,1.42-4.1,2.4-1.11.24-2.63,1.43-3.76,1.77-2.67.79-5.47,1.39-8.27,1.12l-2.39-2.74v-1.25c1.12-.44,1-1.78,1.63-2.3.78-.65,3.62-1.19,4.72-1.56.78-.26,1.58-.04,1.34-1.28.6-.22,1.3-.2,1.85-.56l.07-.88c.31-.03.66.05.96,0,2.2-.33,2.41-1.68,3.67-3.31.38-.49,1.15-.71,1.57-1.32.76-1.11.7-2.5,1.06-3.66.13-.42.85-.22.96-1.06s.12-3.51-.05-4.26c-.08-.34-.78-.33-.91-.71-1.02-3.2-.91-4.1-3.89-6.36-.52-.39-2.01-.91-2.89-1.44-3.61-2.19-5.84-2.32-8.8-3.85-.53-.27-.29-.91-.35-.96.45-1.62-1.16-1.1-1-2.65.01-.14,1.36-2.32,1.45-2.42.27-.31,5.09-2.41,6.29-3.1,2.23-1.28,3.61-2.42,5.29-4.33.29-.33.71-.62.96-.96.14.86,1.26-.03,1.44-.37.41-.74.85-2.36,1.31-3.36.24-.52.88-.59.95-.74.71-1.64.63-4.99.1-6.71-.11-.37-.7-.36-.86-.77-.42-1.08-.95-3.1-1.5-4.05-.2-.34-1.29-1.23-1.44-.37-1.45-1.85-1.91-2.64-4.08-3.86-3.16-1.77-7.99-1.93-9.92-5.04-1.12-1.81.43-3.13,1.48-4.57,1.8.25,3.63-.16,5.48.05,2.48.29,4.17,1.88,6.55,1.87Z"/>
  <path class="cls-4" d="M260.1,113.98c.54.41,1.25.8,1.44.96,2.52,5.69,4.43,9.34,2.89,15.87-.48,2.05-.69,1.14-1.11,2.04-2.25,4.86-3.63,6.45-8.04,9.51-1.64.35-3.16,1.53-5.18,1.8-1.78.24-3.29-.1-4.93.13-.47-.21-.91-.45-1.44-.48-2.52-6.88,2.46-5.51,5.77-9.14.48-.17.96-.3,1.44-.48.02,0,.17.34.46.2,1.32-.62,1.48-1.19,1.94-2.12,2.02-1.13,1.24-1.31,1.97-3.47.14-.41.82-.38.9-.72.32-1.37.54-4.4-1.43-4.47-.11-.84-.87-3.01-1.41-3.54-.62-.62-1.15-.17-1.48-.31-.15-.28-.03-.75-.44-1.23-.31-.36-1.43-.89-1.97-1.18.67-.1,1.78.36.31-.54-1.05-.64-5.86-2.29-6.08-2.83-.11-.27-.09-3.07,0-3.52.08-.34.68-.32.94-.65.13-.17-.06-.58.01-.64,4.79-4.07,11.7,2,15.4,4.81Z"/>
  <path class="cls-9" d="M142.68,92.81c2.31.36,1.87,2.98,2.66,4.32,1.24,2.1,1.14,1.48,2.31,4.42s3.7,6.66,4.62,9.42c1.07,3.2.88,7.6,1.99,10.82.17.49,1.37.26.94,1.99-.12.47-1.48,0-.98,1.25l1.46.25c-1.01,2.31.31,3.77.47,5.33.7,6.85.79,18.22-.48,24.98-.23,1.21-1.33.99-1.46,1.52-.24.96.15,2.5-.04,3.71-.79,5.15-3.01,8.29-4.63,13.15l-2.54,3.01c.65-2.1,1.95-3.62,2.37-4.7,2.83-7.27,5.23-17.18,5.81-25.12.32-4.33-.12-8.83-.48-12.99-.25-2.85-.53-5.83-.96-8.66-.82-5.37-1.8-9.89-3.37-14.91-1.79-5.72-4.82-12.59-7.7-17.8Z"/>
  <path class="cls-29" d="M133.53,99.07c2.42,2.35,2.75,5.33,3.89,8.28,1.91,4.93,4.3,10.39,5.25,15.77.08.44-.08,1,0,1.44.64,3.51,1.21,7.03,1.42,10.37.06.89-.11,1.8.99,2.14-.37,6.12-.6,11.23-1.92,17.32-.98,4.51-2.22,8.37-3.85,12.51-1.2,3.04-2.29,5.56-3.69,8.58-.3.65-.3,1.18-1.12,1.52h-.48c2.69-6.65,7.04-14.99,8.01-21.97s1.16-15.73.28-23.13c-.22-1.88-.52-4.29-.08-6.08-2.04-.61-.35-1.97-.57-2.92-.12-.53-1.13-.48-1.37-1.11-.46-1.18-.07-3.33-.4-4.74-1.35-5.92-4.76-12.13-6.35-17.99Z"/>
  <path class="cls-19" d="M103.22,103.88c1.89-.55,2.2,2.03,2.92,2.62.37.31,1.16.13,1.46.57,1.77,2.56,2.55,6.1,2.86,9.02.04.37.97.11,1,1s-.52,1.78-.49,2.48c.09,2.74.71,6.19-.55,8.95-.26.58-1.06.62-1.35,1.15-1.63,2.95-1.9,3.12-3.92,5.48h-.48c2.07-3.34,4.06-5.9,4.76-9.91.34-1.96-.63-3.26,1.05-4.75-1.26-1.77-.69-3.14-1.12-5.19s-1.58-6.61-3.73-7.09c-.97-2.07-1.81-2.39-2.41-4.33Z"/>
  <path class="cls-7" d="M58.46,105.8c-.3.41-1.05,2.15-1.44,2.89-1.89.38-2.4,4.27-2.92,5.88-.11.33-.82.34-.91.71-.69,3.02-.53,6.53-.03,9.55.15.9-.54,1.93.97,1.65.25,2.17,1.49,4.44,1.92,6.25-1.54.22-1.16-1.42-1.58-1.81-.27-.25-1.03.09-1.32-.42-.82-1.47-.44-3.12-.55-4.27-.03-.29-.8-.18-.88-.54-.22-1.02.38-10.44.71-11.72.82-3.19.9-1.94,2.04-2.98.73-.66.81-4.82,3.5-5.19h.48Z"/>
  <path class="cls-7" d="M197.54,78.86h.48c-.15.16-.36.32-.48.48-1.06,1.44-2.6,2.76-1.48,4.57,1.92,3.11,6.76,3.27,9.92,5.04,2.17,1.22,2.63,2.01,4.08,3.86.51.65,1.65,2.19,1.92,2.89-.4.11-.5,1.63-.48,1.92-2.09-.28-1.4-4.23-2.62-5.32-1.01-.9-6.96-3.99-8.43-4.57-.84-.33-1.83-.05-2.6-.31-.16-.05-2.33-2.15-2.46-2.32-2.35-3.18-1.2-5.12,2.15-6.24Z"/>
  <path class="cls-7" d="M218.23,87.04c1.66-.33,1.14.24,1.62,1.02,1.73,2.84,3.56,4.65,4.49,7.97.13.46-.48,1.22-.28,1.51.14.19.91.22,1.14.55.39.58.42,4.13.23,4.96-.08.34-.78.32-1.03,1-.49,1.35-.23,2.84-.62,4.17-.2.66-2.65,3.94-3.3,4.87-.57.81-.84,1.72-.81-.08.07-.11-.07-.36,0-.48l2.84-4.23c.99-3.41,1.38-7.13,1.01-10.68-.34-3.3-3.18-8.11-5.29-10.58Z"/>
  <path class="cls-9" d="M218.23,124.56c1.73-.46,2.21,2.35,2.97,3.55,2.52,3.99,1.76,4.23,3.12,7.88.23.62,1.02.33,1.16,1.3.41,2.83-.71,2.28-1.09,3.35s-.07,2.63-.54,4.21c-.67,2.23-2.23,3.96-3.7,5.69h-.96c.35-.4.62-.99.96-1.44,3.19-4.23,3.8-7.81,3.36-13.22-.28-3.44-2.93-8.93-5.29-11.31Z"/>
  <path class="cls-25" d="M104.66,135.14h.48c-6.14,7.18-11.74,10.1-21.17,11.06h1.44s0-.96,0-.96c2.84-.37,6.49-.83,8.66-2.89,3.57-1.38,7.69-3.78,9.62-7.22h.96Z"/>
  <path class="cls-29" d="M98.4,100.03c-1.77.13-3.11-.9-4.81-1.44.28-1.28-.65-.94-1.42-1.2-9.07-3.01-15.83-1.98-24.56,1.2-.25-1.19.55-1.02,1.31-1.32,9.53-3.74,21.28-3.82,29.49,2.76Z"/>
  <path class="cls-28" d="M67.61,98.58c8.73-3.18,15.49-4.2,24.56-1.2.78.26,1.7-.08,1.42,1.2-8.05-2.56-15.07-3.3-23.22-.36-2.44.88-4.53,2.68-7.1,3.25,1.32-1.08,2.79-1.66,3.85-2.89.14-.05.34.05.48,0Z"/>
  <path class="cls-25" d="M262.5,115.9c.08.06.52-.05.79.17,2.15,1.79,2.41,5.78,2.67,6.02.33.32,2.08-.67,1.34,2.13-.1.4-.86.13-.98,1.02-.39,2.72.84,2.79,1.01,4.85l-1.37.3c-.08.8-1.4,5.39-1.64,5.63-.19.2-.92,0-1.19.19-.45.35-.95,2.28-1.58,2.93-.27.28-1.62.99-2.42,1.77h-.96c3.07-2.87,6.3-5.81,7.22-10.1.7-3.25.58-8.39-.82-11.43-.35-.76-2.27-1.81-2.06-3.49Z"/>
  <path class="cls-12" d="M209.09,128.89c2.99,2.26,2.87,3.16,3.89,6.36.12.39.83.37.91.71.18.75.16,3.42.05,4.26s-.83.65-.96,1.06c-.37,1.16-.3,2.54-1.06,3.66-.42.61-1.19.82-1.57,1.32-1.26,1.63-1.46,2.98-3.67,3.31v-.48c.04-.15-.05-.34,0-.48.83-.62,2-1.14,2.69-1.9.52-.58.53-1.29.68-1.47.33-.41.34-.74.48-.96.04-.06.69.16.88-.07,1.18-1.42,1.25-6.47,1.05-8.35-.34-3.27-2.44-4.06-3.37-6.97Z"/>
  <path class="cls-21" d="M74.34,144.76c.3.05.66-.05.96,0,4.31.73,5.58,1.07,10.11.48v.96s-1.44,0-1.44,0c-5.75.59-7,.34-12.43-1.31-.81-.25-1.82.32-1.52-1.1,1.44.33,2.87.72,4.33.96Z"/>
  <path class="cls-25" d="M211.97,95.7c2,5.09,1.17,9.26-1.92,13.47-.25.34-.67.63-.96.96h-.48c.9-1.09,1.2-2.48,1.78-3.73.25-.54.96-.51,1.08-.95.75-2.62.17-5.2.02-7.83-.02-.3.08-1.81.48-1.92Z"/>
  <path class="cls-21" d="M249.51,134.66c-3.32,3.63-8.3,2.26-5.77,9.14.53.03.97.27,1.44.48,3.95,1.74,6.91.29,10.11-1.92.41-.09.99.06,1.44,0-1.05,1.21-4.33,3.24-6.58,3.69-.22.04-3.53.18-3.71.13-.58-.19-.6-1.12-.9-1.3-.47-.28-1.32.06-1.7-.22-.26-.19-.05-.8-.11-.85-.07-.06-.67.13-.99-.31-.5-.7-.05-2-1.42-2.35v-.92c1.31-.37.95-1.57,1.5-2.37,1.3-1.88,4.15-2.45,6.2-3.19.14-.05.34.05.48,0Z"/>
  <path class="cls-29" d="M209.09,128.89c.93,2.91,3.03,3.71,3.37,6.97.19,1.88.12,6.92-1.05,8.35-.19.23-.84.02-.88.07l.97-2.16-.96-.24c-.49-1.28.83-.85,1.2-1.42.39-.6.42-3.33.16-4.06-.23-.66-1.26-.61-1.38-1.11-.28-1.15.36-2.28-.53-3.71-.61-.99-2.69-2.96-3.79-3.65v-.48c.87.53,2.37,1.05,2.89,1.44Z"/>
  <path class="cls-9" d="M208.61,110.13h.48c-1.68,1.91-3.06,3.04-5.29,4.33-1.59.49-3.71,1.06-5.15,1.83-.35.19-2.46,1.42-2.55,1.54-.23.3-.61,3.47-.42,4.04.27.81,1.23.63,1.39.77.05.05-.19.68.35.96,2.95,1.53,5.18,1.67,8.8,3.85v.48c-1.95-1.21-4.16-1.83-6.28-2.65-1.12-.43-.53-.06-1.75-.72-.64-.34-1.59-.33-2.07-.73-.74-.62-.67-2.5-2.43-2.89-.01-.51,1.08-2.36,1.44-2.78.4-.48.94-.29.99-.33,2.69-2.7,2.06-1.43,4.98-2.98.55-.29.66-1.01,1.2-1.32,2.08-1.16,4.36-2,6.33-3.4Z"/>
  <path class="cls-7" d="M63.28,139.95c.22.34.81.67.96.96-2.78-1.4-7.91-4.38-8.18-7.7l7.22,6.73Z"/>
  <path class="cls-7" d="M126.32,81.75s-.13-.67.33-.97c1.71-1.13,4.54-1.86,6.55-1.42.2.04.79,1.06,1.3,1.43v.48c-.31-.04-.68.06-.96,0-2.28-.51-3.04-.67-5.29,0-.61.18-1.18.6-1.92.48-.63,2.33-.54,3.51,0,5.77-2.03-1.26-2.3-3.59-.96-5.43.31-.42.91-.29.96-.34Z"/>
  <path class="cls-17" d="M130.65,92.33c.55.81,1.45,2.67,1.57,2.79.23.22,1.05-.05,1.36.38.77,1.08-.39,3.05,1.82,2.64.14.83-.04,1.63.2,2.47.36,1.28,1.45,2.5,1.74,3.19,1.16,2.79,3.03,7.29,3.86,10.07s1.78,6.25,1.49,9.24c-.96-5.38-3.34-10.84-5.25-15.77-1.15-2.95-1.47-5.93-3.89-8.28-.04-.15.04-.33,0-.48-.28-.97-.17-2.22-1.44-1.92-.1-.59-.22-.91-.48-1.44l-.96-1.44c-.07-.13.07-.36,0-.48-.17-.31-.3-.66-.48-.96h.48Z"/>
  <path class="cls-20" d="M260.1,113.98c-3.7-2.81-10.61-8.88-15.4-4.81h-.96c0-.06-.67-.54-.49-.96,1.41.05,2.42-1.16,3.74-1.36,2.99-.45,9.94,2.87,12.38,4.72.87.66,1.58,1.32.72,2.41Z"/>
  <path class="cls-29" d="M249.51,117.34c.54.29,1.66.82,1.97,1.18.41.48.29.94.44,1.23.34.14.86-.31,1.48.31.53.53,1.3,2.7,1.41,3.54.4,3.05-.09,5.94-1.44,8.66-.9.5-1.91.55-2.41,1.92-.48.18-.96.31-1.44.48-.14.05-.34-.05-.48,0,.23-.95,1.4-.8,1.91-1.24.48-.42.41-1.14.7-1.46.69-.75,1.96-1.36,2.2-2.36.23-.94.47-3.65.39-4.67-.13-1.7-1.51-3.67-2.31-5.19-1.7-.72-2.25-1.63-3.76-2l-.09-.89c.33.18.93.2,1.44.48Z"/>
  <path class="cls-22" d="M206.2,79.34c.42.12,1.07.33,1.44.48.49.21,1.42,1.06,1.92,1.44-2.38.01-4.07-1.58-6.55-1.87-1.86-.22-3.68.2-5.48-.05.12-.16.33-.32.48-.48s.33-.31.48-.48c.16-.02.32,0,.48,0,2.27-.14,5.03.31,7.22.96Z"/>
  <path class="cls-21" d="M207.64,79.82c.22-2.57,1.12-.09,1.29,0,2.41,1.3,4.42,1.57,5.92,3.84l-5.29-2.41c-.5-.38-1.43-1.23-1.92-1.44Z"/>
  <path class="cls-17" d="M134.5,81.27l.96.48c1.56,3.63,4.8,6.73,6.74,10.1.16.27.3.63.48.96,2.88,5.21,5.91,12.08,7.7,17.8h-.48c-.29-1.03-1.66-2-2.11-3.41-2.66-8.2-7.29-17.88-13.12-24.18-.47-.51-.71-1.21-1.12-1.76.28.06.66-.04.96,0Z"/>
  <path class="cls-28" d="M203.79,151.02c.24,1.24-.56,1.02-1.34,1.28-1.1.37-3.94.92-4.72,1.56-.62.51-.51,1.86-1.63,2.3v1.25s2.4,2.74,2.4,2.74c-.16-.02-.33.03-.48,0-.17-.03-.36.05-.48,0-2.04-.84-2.67-4.9-1.44-6.25.16-.17,2.11-.59,2.41-1.44.15-.04.34.05.48,0,1.57-.49,3.26-.86,4.81-1.44Z"/>
  <path class="cls-22" d="M139.79,188.06c-.05.14.05.34,0,.48-.38.84-2.3,1.8-2.41,1.92-.25.29-.73,1.88-.96,2.41-1.58.67-.65.62-.96.96s-.63.65-.96.96c-.8.76-.98.63-1.44.96-2.06.69-4.19.69-6.26,0-.33-.21-1.26-.82-1.44-.96-1.48-2.55-1.02-4.39.48-6.73.18-.14.33-.39.48-.48.33-.19,1.06-.16,1.44-.48-.22.31-.3.84-.62,1.29-.93,1.3-2.12.3-1.8,3.76s5.09,4.42,7.7,2.86c.18-.1,2.57-2.47,2.93-2.86.41-.44.97-1.18,1.42-1.69,1.07-1.21,1.47-2.59,2.89-3.85-.17.49-.29.95-.48,1.44Z"/>
  <path class="cls-9" d="M147.01,177.47c-.88,2.95-1.76,4.88-4.18,6.85-1.06.86-.56,4.23-3.04,3.73.19-.49.31-.95.48-1.44,2.38-2.12,3.77-4.87,5.38-7.87.36-.67.19-1.52,1.35-1.27Z"/>
  <path class="cls-29" d="M67.12,98.58c-1.06,1.23-2.53,1.81-3.85,2.89-1.04.85-4.18,3.47-4.81,4.33h-.48c.15-.71.49-1.5.95-2.04,1.73-2,5.8-4.27,8.19-5.18Z"/>
  <path class="cls-22" d="M63.28,139.95c3.19,1.28,6.23,2.7,9.54,3.72.81.25,1.82-.34,1.53,1.09-1.46-.24-2.89-.63-4.33-.96-.43-.1-.88-.38-1.44-.48-1.26-1.07-2.87-1.67-4.33-2.41-.15-.3-.74-.62-.96-.96Z"/>
  <path class="cls-29" d="M131.61,180.84c-.48.78-1.29,3.15-1.44,3.37-.46.69-1.68,1.87-2.41,2.89-.39.32-1.12.29-1.44.48l2.88-4.44,2.41-2.29Z"/>
  <path class="cls-21" d="M198.5,152.46c-.29.85-2.25,1.27-2.41,1.44-1.22,1.35-.59,5.41,1.44,6.25v.48c-.25-.1-.93.21-1.33-.09-.31-.23-.42-1.33-.83-1.84-.5-.6-1.59-.89-1.7-1.29-.48-1.69.67-1.47,1.15-2.14.83-1.15.71-.82,1.27-1.38.06-.06-.18-.66.36-.95.47-.25,1.44-.32,2.05-.49Z"/>
  <path class="cls-29" d="M125.35,194.79c-.57-.42-1.21-.71-1.82-1.06l-.59-4.23c1.98.48,1.78-.62,2.89-1.44-1.5,2.34-1.96,4.19-.48,6.73Z"/>
  <path class="cls-21" d="M198.98,78.38c1.28-1.67,3.95-.56,5.7-.14.84.2,1.8-.26,1.52,1.1-2.18-.65-4.95-1.1-7.22-.96Z"/>
  <path class="cls-22" d="M135.46,177.47l-5.29,6.73c.15-.22.97-2.59,1.44-3.37.23-.37.34-.74.48-.96.09-.14.58.53,1.44-1.92.07-.21.33-.59.48-.96h.48l.96.48Z"/>
  <path class="cls-13" d="M244.7,109.17c-.07.06.12.47-.01.64-.27.33-.86.31-.94.65-.1.45-.12,3.25,0,3.52.22.53,5.04,2.19,6.08,2.83,1.47.9.37.44-.31.54-.51-.28-1.11-.31-1.44-.48-1.18-.62-3.05-1.26-4-1.91-.45-.31-.27-.9-.33-.97-.16-.19-.92.67-1.01-1.17-.09-1.95.88-2.66,1.01-3.64h.96Z"/>
  <path class="cls-20" d="M211.49,157.75l-.02.93c-5.82,1.11-7.57,4.54-13.93,1.96v-.48c.12.05.31-.03.48,0,4.01,2.81,9.42-1.35,13.47-2.41Z"/>
  <path class="cls-29" d="M133.05,195.75s.18.65-.35.95c-2.43,1.43-4.09.24-5.91-.95,2.06.69,4.19.69,6.26,0Z"/>
  <path class="cls-21" d="M205.72,149.09v.48l-.07.88c-.55.37-1.26.34-1.85.56-1.55.58-3.24.95-4.81,1.44l6.74-3.37Z"/>
  <path class="cls-28" d="M155.19,147.17c-.58,7.95-2.98,17.86-5.81,25.12-.42,1.08-1.73,2.6-2.37,4.7-.05.15.04.33,0,.48-1.17-.26-.99.59-1.35,1.27-1.61,3-3,5.75-5.38,7.87.96-2.82,5.03-8.03,6.69-11.46,3.97-8.23,6.71-18.79,7.27-27.98h.96Z"/>
  <path class="cls-13" d="M128.24,81.27c-.97,1.94-2.53,1.92-1.91,4.48.1.4.81.38.94.67.99,2.11,2.16,4.12,3.38,5.91h-.48c-.41-.7-2.22-3.34-2.68-3.84-.33-.37-.68-.51-1.17-.49-.05-.13.04-.32,0-.48-.54-2.26-.63-3.45,0-5.77.74.12,1.31-.3,1.92-.48Z"/>
  <path class="cls-19" d="M103.22,103.39c-1.47-.36-2.72-1.46-3.85-2.41,2.35-.26,3.11.37,3.85,2.41Z"/>
  <path class="cls-9" d="M214.86,122.15v-.96c1.72.36,2.52,1.13,2.89,2.89-.67-.62-1.85-.97-2.41-1.44-.17-.15-.32-.32-.48-.48Z"/>
  <path class="cls-20" d="M220.15,150.54c-.94,1.11-.62,1.34-2.41,2.41l.47-.72-.47-.24c.41-.41,1.13-1.09,1.44-1.44h.96Z"/>
  <path class="cls-9" d="M139.79,188.54c-.22.59-1.41,3.6-1.54,3.76-.1.13-1.35.37-1.83.57.24-.52.72-2.11.96-2.41.1-.12,2.03-1.08,2.41-1.92Z"/>
  <path class="cls-29" d="M132.09,96.66c1.28-.29,1.17.95,1.44,1.92-2.51.43-1.35-1.4-1.44-1.92Z"/>
  <path class="cls-25" d="M74.34,64.91c.05,1.82-1.77,1.2-2.69,1.9-.41.31-.48,1.15-.8,1.35-.77.47-1.98-.17-2.6,1.6l-1.61-.52,7.7-4.33Z"/>
  <path class="cls-29" d="M133.53,177.95c-.86,2.46-1.36,1.78-1.44,1.92v-2.41s1.44.48,1.44.48Z"/>
  <path class="cls-21" d="M68.57,143.32c-2.09-.36-1.89-.88-2.27-.95-.62-.13-1.73.18-2.04-.06-.23-.18.09-1.16-.03-1.39,1.46.73,3.07,1.33,4.33,2.41Z"/>
  <path class="cls-9" d="M134.5,80.79c1.1.79.54.52.96.96,2.03,2.14,2.76,3.52,4.65,6.19.73,1.04,3.25,2.72,2.09,3.91-1.94-3.37-5.18-6.47-6.74-10.1l-.96-.48v-.48Z"/>
  <path class="cls-20" d="M213.9,156.31c-.69.83,1.04.67-1.92.96.25-.88,1.09-1.04,1.92-.96Z"/>
  <path class="cls-29" d="M234.11,64.91c-2.42-.5-5.19-2.09-7.7-3.37,2.49.86,5.73,1.58,7.7,3.37Z"/>
  <path class="cls-29" d="M126.32,88c.49-.02.84.12,1.17.49.46.5,2.26,3.14,2.68,3.84.18.31.31.65.48.96-1.76.26-1.15-.11-1.58-1.07-.74-1.63-2.19-2.77-2.75-4.22Z"/>
  <path class="cls-9" d="M77.23,206.82c-.47-.13-1.51-.41-1.92-.48v-.48c.67.2,1.64-.21,1.92.96Z"/>
  <path class="cls-20" d="M270.68,88.48l-.23.47c-1.44-.43-.95-.8-1.21-1.43.96-.15,1.08.67,1.44.96Z"/>
  <path class="cls-17" d="M217.75,152.94c-.14.08-.71-.15-.91.05s.02.7-.05.92c-.71,0-1.21.29-1.44.96-.16.07-.31.38-.48.48l-.48.48c-.12.15-.33.3-.48.48-.84-.08-1.67.08-1.92.96-.16.02-.33-.03-.48,0-.3.05-.68-.06-.96,0,1.09-.98,3.05-1.59,4.1-2.4.48-.37,2.58-2.36,3.12-2.9l.47.24-.47.72Z"/>
  <path class="cls-21" d="M215.34,84.15c1.2.45,1.57-.22,2.41,1.92h-.48c-.39-.38-.46-1.09-1.44-.96-.05-.28-.38-.65-.48-.96Z"/>
  <path class="cls-20" d="M216.79,153.9c-.08.23.07.66,0,.96-.42.1-1.16-.12-1.44,0,.24-.67.74-.96,1.44-.96Z"/>
  <path class="cls-17" d="M265.39,130.81c-.92,4.29-4.15,7.23-7.22,10.1-.17.15-.32.32-.48.48l-.48.48c-.15.17-.33.31-.48.48-.46.06-1.03-.09-1.44,0,4.41-3.06,5.79-4.65,8.04-9.51.42-.9.62.02,1.11-2.04h.96Z"/>
  <path class="cls-29" d="M225.45,61.06c-.48,1.21-1.82-.58-2.41-.96.98.02,1.61.54,2.41.96Z"/>
  <path class="cls-29" d="M210.05,145.24c-.14.18-.15.89-.68,1.47-.69.77-1.86,1.28-2.69,1.9.82-2.21,2.49-1.43,2.48-3.28l.89-.09Z"/>
  <path class="cls-20" d="M273.57,181.8c-.15.82-1.27.8-1.44.96v-.96s1.44,0,1.44,0Z"/>
  <path class="cls-20" d="M270.2,184.69c-.26.11-.55.5-.96.48.09-.17-.07-.67,0-.96l.96.48Z"/>
  <path class="cls-17" d="M217.27,86.08c.16.15.34.32.48.48.17.2.35.33.48.48,2.12,2.47,4.95,7.29,5.29,10.58h-.48c-.05-.4-2.67-6.66-3.04-7.32-.89-1.57-3.56-3.58-4.43-4.71-.19-.24.25-.45.25-.47.98-.13,1.05.58,1.44.96Z"/>
  <path class="cls-28" d="M217.75,124.08c.16.15.32.32.48.48,2.36,2.38,5.01,7.87,5.29,11.31.44,5.41-.17,8.99-3.36,13.22l1.48-5.4c3.22-5.05.12-11.08-1.78-16.21l-4.52-4.84c.56.47,1.73.82,2.41,1.44Z"/>
  <path class="cls-20" d="M45.95,84.63c-.09.2.06.66,0,.96l-.96-.48c.28-.13.56-.48.96-.48Z"/>
  <path class="cls-20" d="M48.84,82.23v.96s-.72,0-.72,0l-.25-.48c.27-.11.55-.5.96-.48Z"/>
  <path class="cls-9" d="M135.46,193.83l.47.23-.47,1.21h-.71s-.25-.48-.25-.48c.33-.32.65-.63.96-.96Z"/>
  <path class="cls-27" d="M211.49,157.27v.48c-4.06,1.05-9.47,5.22-13.47,2.41.15.03.32-.02.48,0,2.8.28,5.6-.32,8.27-1.12,1.13-.34,2.66-1.53,3.76-1.77.28-.06.66.05.96,0Z"/>
  <path class="cls-20" d="M267.8,186.61c-.15.17-.31.33-.48.48h-.96s0-.48,0-.48h1.44Z"/>
  <path class="cls-20" d="M73.86,205.37c-.45,1.13-1.15.1-1.44,0,.48.02.97-.03,1.44,0Z"/>
  <path class="cls-29" d="M206.68,149.09v.48c-.3.05-.65-.03-.96,0v-.48h.96Z"/>
  <path class="cls-29" d="M131.61,95.22c-.06-.12-.59-.73-.96-1.44l.96,1.44Z"/>
  <path class="cls-22" d="M262.5,115.9c-.21,1.67,1.72,2.73,2.06,3.49,1.4,3.04,1.52,8.17.82,11.43h-.96c1.54-6.54-.37-10.18-2.89-15.87.34.28.62.67.96.96Z"/>
  <path class="cls-21" d="M198.5,78.38c-.15.17-.32.32-.48.48h-.48c.24-.08.49-.42.96-.48Z"/>
  <path class="cls-20" d="M43.54,86.56c-.08.24.05.66,0,.96l-.48-.48.48-.48Z"/>
  <path class="cls-20" d="M263.71,83.19c.31.16.31.32,0,.48v-.48Z"/>
  <path class="cls-7" d="M217.75,86.56c-.14-.17-.32-.33-.48-.48h.48v.48Z"/>
  <path class="cls-9" d="M74.82,205.85l-.48-.48c.34.07.45.47.48.48Z"/>
  <path class="cls-20" d="M214.38,155.83l.48-.48c-.12.07-.38.34-.48.48Z"/>
  <path class="cls-29" d="M252.64,129.85c.31.16.31.32,0,.48v-.48Z"/>
  <path class="cls-21" d="M257.21,141.88l.48-.48c-.16.16-.33.32-.48.48Z"/>
  <path class="cls-21" d="M258.65,140.91h.48c-.09.09-.08.31-.23.37l-.25-.37Z"/>
  <path class="cls-10" d="M374.63,173.62c1.27,2.03,2,3.92,2.41,6.25-.22.06-.46.26-.48.48-1.56.28-.77-.8-.96-1.66-.41-1.88-.88-3.06-.96-5.07Z"/>
  <path class="cls-10" d="M303.89,100.51c-.64,1.3-1.12,1.19-1.56,2.04-1.46,2.79,0,4.51-3.25,7.1.5-1.16.59-2.89,1.01-3.95.14-.35.66-.36.86-.78.61-1.33.94-4.18,2.95-4.41Z"/>
  <path class="cls-16" d="M299.08,161.6c1.99-.14,1.79,1.31,1.92,1.44.06.07.61-.25,1.01.29.46.63.56,2.37.95,3.19,1.63,3.39,5.23,7.67,6.22,10.95,2.14,1.52,2.59,3.22,4.12,5.28.58.78,2.9,1.73,2.14,2.9-2.39-2.03-4.03-5.11-6.26-7.22-.09-.24.08-.69,0-.96-1.22-.86-5.17-7.11-6.09-8.82-.5-.93-1.66-5.16-2.09-5.61-.09-.09-1.7-1.29-1.92-1.44Z"/>
  <path class="cls-10" d="M347.2,140.91c-.66-1.01-1.5-1.71-1.48-3.14s.86-1.74,1.48-2.64c-.67,1.92-.68,3.84,0,5.77Z"/>
  <path class="cls-14" d="M350.09,143.32c1.38.75,3.35,1.49,4.65,2.56.64.53,1.65,2.1,2.57,2.73-1.68.5-1.4-.89-2.14-1.47-1.65-1.26-3.38-2.38-5.07-3.83Z"/>
  <path class="cls-10" d="M298.11,110.61c-.13,1,.36,1.1-1.2.96l-.24-.48c.36-.16.7-.75,1.44-.48Z"/>
  <path class="cls-10" d="M347.68,134.66c.06-.07-.16-.6.09-.86.22-.21,1.29-.31,1.83-.59-.37.83-.97,1.41-1.92,1.44Z"/>
  <path class="cls-10" d="M350.09,143.32c-.56-.3-2.18-.98-2.3-1.08-.26-.24-.04-.77-.1-.84,1.38-.08,1.74,1.36,2.41,1.92Z"/>
  <path class="cls-16" d="M376.55,97.62v-.48c.09-.06.15-.79.48-.96-.02.53.14,1.2-.48,1.44Z"/>
  <path class="cls-10" d="M374.63,173.14c-.48-.12-.43-.56-.48-.96.11.06.32-.04.48,0,0,.32,0,.64,0,.96Z"/>
  <path class="cls-10" d="M354.42,65.87c.23.23-.45.77-.48.24-.01-.17.37-.35.48-.24Z"/>
  <path class="cls-14" d="M221.12,26.91c.56,7.3-1.21,13.25-3.8,19.92-.29.48-1.01.35-1.49.29-3.15-.43-7.78-2.58-11.07-3.37.32,0,.64,0,.96,0,3.77.08,7.25,2.27,11.02,2.36,1.07-2.29,1.34-4.98,2.01-7.29.12-.41.77-.42.89-.74,1.25-3.47.43-7.65,1.48-11.17Z"/>
  <path class="cls-10" d="M218.23,18.25c2.06,2.96,2.01,4.27,2.41,7.7-.9-.95-.6-2.43-1.01-3.47-.13-.34-.67-.36-.86-.78-.96-2.16-2.77-6.48-4.87-7.78,1.91,1.67,2.79,2.13,4.33,4.33Z"/>
  <path class="cls-3" d="M165.29,221.73c-.35.08-.58.42-1.44.48l1.44-.48Z"/>
  <path class="cls-14" d="M90.7,107.24c.75.14,1.5.2,1.92.96v1.44s1.44,0,1.44,0h.48v.48c-.52,1.68.91,1.35.96,1.44.29.5-.78,1.88,1.44,1.44.04.15-.04.33,0,.48,1.27,5.05,1.36,9.38,0,14.43-.04.15.04.33,0,.48h-1.44c-.06.46.08,1.01,0,1.44-.05.29.09.87,0,.96-.11.11-.7-.08-.96,0-1.42.46-.89.75-1.92,1.44-5.78,3.85-14.71,4.74-20.69.96-1.95-1.23-2.14-1.77-3.54-3.23-.2-.2-.93-.04-1.13-.25-1.11-1.09-1.31-4.95-1.59-6.29-.11-.54-2.25-.61-.91-3.81.93-2.23.58-2.41,1.15-4.72.63-2.57,1.75-2.25,2.53-2.98.34-.32.24-1.33.61-1.82,1.85-2.43,8.77-4.68,11.8-4.81,3.55-.16,6.86,1.37,9.85,1.92ZM88.78,114.94c-.07-.07.22-.63-.29-1-2.09-1.5-7.88-1.81-10.4-1.27-.42.09-2.68.85-2.3,1.79-.17.06-.88.7-1.44.96-.23.1-.95-.23-1.33.11-.24.21-.05.79-.11.85s-.66-.11-.98.33c-.21.3-1.8,2.77-1.87,2.94-1.71,4.11,1.25,9.24,4.8,11.37,2.79,1.68,6.6,2.22,9.8,1.69.7-.12,5.51-2.54,5.95-2.97.25-.24.04-.8.1-.85.12-.1.37-.36.48-.48.51-.55.57-.49,1.41-1.58.35-.46,1.12-.57,1.26-.82.44-.76-.84-1.43.71-2.6-.8-1.25-.65-3.43-1.12-4.49-.07-.15-.63-.19-.81-.49-.66-1.06-1.57-3.3-3.38-3-.15-.16-.33-.31-.48-.48Z"/>
  <path class="cls-7" d="M69.05,110.13c-.37.49-.27,1.5-.61,1.82-.78.73-1.91.41-2.53,2.98-.56,2.3-.21,2.49-1.15,4.72-1.34,3.2.8,3.27.91,3.81.28,1.34.48,5.2,1.59,6.29.21.2.94.04,1.13.25,1.4,1.46,1.59,2,3.54,3.23v.48c-2.41.23-4.6-2.56-5.77-4.33-.92-1.38-2.23-4.25-2.41-6.01-.33-3.29.08-6.85,1.45-9.86,1.11-1.57,1.87-2.58,3.37-3.85l.48.48Z"/>
  <path class="cls-21" d="M83.01,104.36c2.27.22,5.9,1.39,7.7,2.89-3-.55-6.3-2.08-9.85-1.92-3.03.13-9.95,2.38-11.8,4.81l-.48-.48c.87-.74,4.41-3.43,5.51-3.88,2.32-.96,6.45-1.66,8.93-1.41Z"/>
  <path class="cls-28" d="M57.02,108.69c-2.69,5.02-3.54,12.01-2.89,17.8-1.52.27-.82-.75-.97-1.65-.5-3.02-.66-6.54.03-9.55.09-.37.8-.38.91-.71.52-1.61,1.04-5.5,2.92-5.88Z"/>
  <path class="cls-21" d="M96.96,113.5c1.1.9,1.17,2.49,1.51,3.79l.89.06c.04,2.23.04,4.5,0,6.73l-.89.06c-.32,1.32-.44,2.83-1.51,3.79,1.36-5.05,1.27-9.38,0-14.43Z"/>
  <path class="cls-17" d="M105.62,108.2c2.15.48,3.33,5.14,3.73,7.09.43,2.05-.15,3.42,1.12,5.19-1.69,1.49-.71,2.79-1.05,4.75-.7,4.01-2.69,6.57-4.76,9.91h-.96c.69-1.22,3.04-3.72,3.81-5.67,1.89-4.8,1.88-10.05.77-15.02-.56-2.5-1.58-3.96-2.65-6.25Z"/>
  <path class="cls-12" d="M94.07,142.36c-2.17,2.06-5.82,2.51-8.66,2.89-4.53.59-5.79.25-10.11-.48l9.81-.06c3.14-.5,6.02-1.21,8.96-2.35Z"/>
  <path class="cls-17" d="M65.2,113.5c-1.37,3.01-1.78,6.58-1.45,9.86.18,1.76,1.49,4.63,2.41,6.01-.94-.23-1.06-.41-1.53-1.16-2.05-3.31-2.31-9.84-.76-13.39.42-.96,1.1-1.01,1.32-1.31Z"/>
  <path class="cls-6" d="M92.15,133.7c-7.05,4.58-13.1,4.53-20.7.95-.08-.36.46-.38.48-.47,6.74,3.59,13.86,3.13,20.21-.96v.48Z"/>
  <path class="cls-17" d="M94.55,109.65c-.41-.78,1.85.7,1.94.81,1.27,1.5,2.83,5.06,2.87,6.89l-.89-.06c-.34-1.3-.41-2.89-1.51-3.79-.04-.15.04-.33,0-.48-.43-1.7-1.31-1.29-1.44-1.44-.19-.2-.1-1.33-.96-1.44v-.48Z"/>
  <path class="cls-28" d="M99.37,124.08c-.08,4.09-3.66,7.31-7.22,9.62v-.48c.47-.3,1.03-.62,1.44-.96.5-.42,1.04-.49.96-1.44.26-.08.85.11.96,0,.09-.09-.05-.67,0-.96.93.28,1.25-.67,1.44-1.44.04-.15-.04-.33,0-.48,1.08-.96,1.2-2.47,1.51-3.79l.89-.06Z"/>
  <path class="cls-6" d="M83.01,104.36c3.84-.85,7.24,2.1,10.58,3.37l-.96.48c-.42-.76-1.18-.82-1.92-.96-1.8-1.49-5.43-2.66-7.7-2.89Z"/>
  <path class="cls-9" d="M93.59,132.26c-.41.35-.98.66-1.44.96-6.35,4.09-13.48,4.55-20.21.96.04-.14-.03-.33,0-.48v-.48c5.99,3.78,14.91,2.89,20.69-.96h.96Z"/>
  <polygon class="cls-21" points="94.07 109.65 92.63 109.65 92.63 108.69 94.07 109.65"/>
  <path class="cls-13" d="M210.05,92.81c.15-.86,1.24.03,1.44.37.55.94,1.08,2.96,1.5,4.05.16.41.75.39.86.77.52,1.71.61,5.07-.1,6.71-.06.15-.71.22-.95.74-.46,1-.9,2.61-1.31,3.36-.19.34-1.3,1.23-1.44.37,3.09-4.21,3.93-8.37,1.92-13.47-.28-.7-1.42-2.24-1.92-2.89Z"/>
  <path class="cls-24" d="M223.52,97.62c.37,3.56-.02,7.27-1.01,10.68l-2.84,4.23c.56-.99,1.03-2.05,1.47-3.1,1.53-3.59,2.44-7.62,1.9-11.81h.48Z"/>
  <path class="cls-13" d="M203.79,114.46c-1.2.69-6.02,2.8-6.29,3.1-.09.11-1.44,2.28-1.45,2.42-.15,1.55,1.46,1.03,1,2.65-.16-.15-1.12.04-1.39-.77-.19-.57.2-3.73.42-4.04.09-.12,2.2-1.36,2.55-1.54,1.44-.77,3.55-1.34,5.15-1.83Z"/>
  <path class="cls-17" d="M254.8,123.6c1.97.08,1.74,3.1,1.43,4.47-.08.33-.76.31-.9.72-.73,2.16.04,2.34-1.97,3.47-.46.93-.62,1.5-1.94,2.12-.29.14-.44-.21-.46-.2.49-1.38,1.51-1.42,2.41-1.92,1.35-2.72,1.84-5.6,1.44-8.66Z"/>
  <path class="cls-6" d="M255.28,142.36c-3.19,2.22-6.15,3.67-10.11,1.92,1.64-.22,3.15.11,4.93-.13,2.02-.27,3.54-1.44,5.18-1.8Z"/>
  <path class="cls-4" d="M133.53,81.27c.42.55.65,1.25,1.12,1.76,5.83,6.29,10.46,15.97,13.12,24.18.46,1.41,1.82,2.38,2.11,3.41,1.03,3.68,2.27,9.63,2.88,13.26.15.9-.55,1.92.97,1.65.43,2.83.71,5.81.96,8.66-1.08,4.09-.22,8.75-.48,12.99-.56,9.19-3.3,19.75-7.27,27.98-1.66,3.43-5.73,8.64-6.69,11.46-1.42,1.26-1.81,2.64-2.89,3.85-.45.51-1.01,1.25-1.42,1.69-.36.39-2.75,2.76-2.93,2.86-2.61,1.56-7.36.71-7.7-2.86s.86-2.46,1.8-3.76c.32-.45.4-.98.62-1.29.72-1.02,1.94-2.2,2.41-2.89l5.29-6.73c1.97-3.61,3.05-6.76,4.33-10.58.18-.54,1.17-.81,1.4-1.35.81-1.86,1.21-5.2,1.56-7.27l1.41-.3c-.12-1.19.49-3.01-1-3.59,1.33-6.09,1.56-11.2,1.92-17.32l-.94-11.31-1.47-1.2c-.08-.44.08-1,0-1.44.3-2.99-.64-6.38-1.49-9.24s-2.7-7.28-3.86-10.07c-.29-.69-1.38-1.92-1.74-3.19-.24-.84-.05-1.64-.2-2.47-2.21.41-1.05-1.56-1.82-2.64-.31-.43-1.13-.15-1.36-.38-.12-.12-1.02-1.98-1.57-2.79-1.21-1.8-2.39-3.8-3.38-5.91-.14-.29-.85-.27-.94-.67-.62-2.56.94-2.53,1.91-4.48,2.25-.67,3.02-.51,5.29,0Z"/>
  <path class="cls-28" d="M150.38,110.61c1.57,5.02,2.55,9.54,3.37,14.91-1.52.27-.82-.75-.97-1.65-.61-3.64-1.84-9.58-2.88-13.26h.48Z"/>
  <path class="cls-11" d="M155.19,147.17h-.96c.26-4.24-.59-8.9.48-12.99.36,4.16.8,8.66.48,12.99Z"/>
  <path class="cls-17" d="M143.16,154.38c1.49.58.87,2.39,1,3.59l-1.41.3c-.35,2.07-.75,5.41-1.56,7.27-.23.53-1.22.81-1.4,1.35h-.48c1.63-4.13,2.87-8,3.85-12.51Z"/>
  <path class="cls-28" d="M142.68,124.56l1.47,1.2.94,11.31c-1.1-.34-.94-1.24-.99-2.14-.21-3.34-.77-6.86-1.42-10.37Z"/>
  <path class="cls-6" d="M139.79,166.89c-1.28,3.83-2.36,6.98-4.33,10.58l-.96-.48c.82-.34.82-.87,1.12-1.52,1.4-3.02,2.49-5.54,3.69-8.58h.48Z"/>
  <path class="cls-25" d="M74.34,115.42c-.07.82-1.36.85-1.44.96s-.26,1-.48,1.44c-2.66,5.15-1.49,9.49,3.37,12.51,3.45,2.14,6.57,2.39,10.44,1.05,1.95-.67,2.74-1.79,4.48-2.5-.06.05.16.6-.1.85-.44.43-5.24,2.85-5.95,2.97-3.2.53-7.01,0-9.8-1.69-3.55-2.13-6.52-7.26-4.8-11.37.07-.16,1.66-2.64,1.87-2.94.31-.44.91-.27.98-.33s-.13-.64.11-.85c.39-.35,1.11,0,1.33-.11Z"/>
  <path class="cls-25" d="M89.26,115.42c1.8-.29,2.72,1.94,3.38,3,.18.3.74.34.81.49.48,1.06.32,3.24,1.12,4.49-1.56,1.17-.27,1.84-.71,2.6-.15.25-.91.36-1.26.82-.84,1.09-.9,1.02-1.41,1.58,2.42-5.62,2.14-8.64-1.92-12.99Z"/>
  <path class="cls-25" d="M75.79,114.46c-.39-.94,1.88-1.7,2.3-1.79,2.52-.54,8.31-.23,10.4,1.27.51.37.23.93.29,1-4.18-1.94-8.69-1.96-12.99-.48Z"/>
  <path class="cls-28" d="M88.78,114.94c.15.17.33.32.48.48,4.06,4.35,4.35,7.37,1.92,12.99-.11.13-.36.38-.48.48-1.74.7-2.53,1.82-4.48,2.5-3.86,1.34-6.99,1.09-10.44-1.05l6.99.99c2.93.02,7.83-2.22,8.77-5.19.86-2.73.31-5.6-.37-8.3l-1.43.49c-.01-.63.08-1.37-.24-1.93-.88-1.54-10.24-3.2-12.22-1.62l-4.87,3.07c.23-.44.4-1.34.48-1.44s1.37-.14,1.44-.96c.56-.26,1.27-.9,1.44-.96,4.31-1.48,8.81-1.46,12.99.48Z"/>
  <path class="cls-21" d="M94.55,130.81c.07.95-.47,1.02-.96,1.44h-.96c1.04-.69.51-.98,1.92-1.44Z"/>
  <path class="cls-21" d="M95.52,111.57c.14.15,1.01-.26,1.44,1.44-2.22.44-1.15-.94-1.44-1.44-.06-.09-1.48.24-.96-1.44.86.11.78,1.24.96,1.44Z"/>
  <path class="cls-21" d="M96.96,128.41c-.19.77-.51,1.73-1.44,1.44.08-.43-.06-.98,0-1.44h1.44Z"/>
  <path class="cls-1" d="M72.42,117.83l4.87-3.07c1.99-1.57,11.35.09,12.22,1.62.32.56.23,1.3.24,1.93l1.43-.49c.68,2.7,1.23,5.57.37,8.3-.94,2.98-5.85,5.21-8.77,5.19l-6.99-.99c-4.86-3.01-6.03-7.35-3.37-12.51Z"/>
</svg>