<?xml version="1.0" encoding="UTF-8"?>
<svg id="_레이어_1" data-name="레이어 1" xmlns="http://www.w3.org/2000/svg" viewBox="0 0 375.3 316.98">
  <defs>
    <style>
      .cls-1 {
        fill: #e5cfb5;
      }

      .cls-2 {
        fill: #cb471c;
      }

      .cls-3 {
        fill: #291609;
      }

      .cls-4 {
        fill: #281b10;
      }

      .cls-5 {
        fill: #443014;
      }

      .cls-6 {
        fill: #de6d1b;
      }

      .cls-7 {
        fill: #e17438;
      }

      .cls-8 {
        fill: #e3763b;
      }

      .cls-9 {
        fill: #35241a;
      }

      .cls-10 {
        fill: #ba5c2a;
      }

      .cls-11 {
        fill: #e79426;
      }

      .cls-12 {
        fill: #dd6c1b;
      }

      .cls-13 {
        fill: #191007;
      }

      .cls-14 {
        fill: #e48d24;
      }

      .cls-15 {
        fill: #f2b62e;
      }

      .cls-16 {
        fill: #fff;
      }

      .cls-17 {
        fill: #854622;
      }

      .cls-18 {
        fill: #f19a25;
      }

      .cls-19 {
        fill: #dc6d35;
      }

      .cls-20 {
        fill: #f8f3ea;
      }

      .cls-21 {
        fill: #a43e24;
      }

      .cls-22 {
        fill: #fdfefe;
      }

      .cls-23 {
        fill: #54411d;
      }

      .cls-24 {
        fill: #eec532;
      }

      .cls-25 {
        fill: #2e1c0c;
      }

      .cls-26 {
        fill: #f3e1cb;
      }

      .cls-27 {
        fill: #c56b36;
      }

      .cls-28 {
        fill: #2f1f15;
      }

      .cls-29 {
        fill: #422e14;
      }

      .cls-30 {
        fill: #bc5d2b;
      }
    </style>
  </defs>
  <path class="cls-29" d="M128.87,1.69c.43.33.56.47.88.88,2.7,4.81.42,10.59,1.73,15.74l-.18,172.18c.28.46.64-.08.67-.05,2.45,2.49,4.43,9.11,6.64,10.61.2.13.82.52.88.44,3.25-14.56,7.53-28.88,11.3-43.3.46-1.75.63-4.01,1.09-5.76.06-.23.53-.7.68-1.29,2.7-10.37,5.33-20.75,8.06-31.1l-.64-1.22c-5.13.02-9.99,1.16-14.75-1.31-.15-.14-.32-.28-.44-.44-.24-2.01-1.34-3.81-.83-5.92l3.49-9.55c6.93-11.11,18.85-20.27,32.3-21.22.46.73,1.68.44,2.43.45,6.41.07,12.84-.06,19.25-.01.1-.77-1-.42-1.54-.44-5.57-.23-11.91-.19-17.48,0l19.03-.44c.52-5.51-.29-13.04.91-18.31.42-1.86,1.28-3.01,2.62-4.23l3.42-1.23c5.79-.48,12.25-.96,18.06-.56,3,.21,5.85.65,8.17,2.67l1.76,5.97.89,16.57h22.34c6.51,0,17.51,7.84,21.02,13.26,3.16,4.88,6.16,15.29,4.28,20.85-2.33,6.88-11.78,3.01-13.57,4.79-.59.59-.41.79-.47,1.51l.02,57.5c.66.75.44-.83.44-1.1.98.22.94-.54,1.32-1.09,21.55-30.98,40.84-63.65,62.29-94.71,4.64-6.71,8.58-13.57,17.24-15.48,16.03-3.54,29.25,13.59,20.12,27.62-2.33,3.58-6.7,7.13-11.16,7.19l-.46,1.08.02,45.55.44-.22c3.24,1.63,5.62,5.39,3.88,8.96-.45.93-2.39,2.27-2.43,2.75-.05.68,4.56,7.74,5.2,9.71,7.02,21.48-22.46,33.63-32.67,15.4-2.41-4.3-4.99-17.52,2.78-16.96,5.96.43,3.56,6.2,4.31,9.87,1.45,7.11,12.32,8.33,15.75,1.79s-2.83-11.86-5.32-17.5c-.44-1-.26-2.25-.83-3.15s-1.71-.93-2.4-1.58c-2.07-1.91-1.16-6.26.68-7.97.21.68,2.44-.43,2.55-.54.39-.38.48-1.32.54-1.88v-44.65c-.32-1.76-2.36-1.3-3.54-1.77-.95-.38-2.71-1.1-3.54-1.55-1.46-.78-3.34-3.15-4.19-2.2l-70.57,110.72,3.84,3.76c4.11-.43,9.23.55,13.2.02,1.8-.24,3.64-3.26,6.28-4.34,6.61-2.69,12.32-.4,17.14,4.32,9.74.62,20.51-.85,30.12-.02,2.04.17,2.22.61,3.74,1.34l2.65,1.77c.14.15.33.28.44.44,1.48,3.65,1.87,6.88,1.77,10.83-.24,9.28-2.44,18.55-4.81,27.46-.15.56-.68,2.02-.05,2.38-5.7,18.95-14.25,35-28.47,48.91-.59.57-1.68,1.29-2.5,1.49-.57.83,6.59,2.74,7.24,3.15,2.85,1.78,1.91,7.06-1.36,7.8-4.83,1.1-13.16-4.45-18.03-6.11-21.32-7.27-32.86,8.13-53.55,6.64-11.53-.83-20.92-8.23-31.84-8.85-12.97-.74-24.52,8.03-37.61,8.88-12.67.82-17.97-3.62-28.91-6.96-21.32-6.52-31.45,8.39-51.19,6.94-10.66-.79-18.52-7.61-29.64-6.62-3.67.33-8.25,3.17-11.3.67-1.73-1.41-2.12-2.88-1.47-5.03,1.51-4.92,8.58-3.79,12.54-5.15-27.86-24.42-47.78-56.94-60.17-91.73.71-.39.04-1.72-.13-2.3-2.91-10.08-8.87-24.71-8.75-35.05.1-8.68,6.77-11.27,14.41-10.83,3.32.19,7.25,1.82,10.4.88,1.7.25,5.08,1.48,6.45.47,28.06-32.58,56.5-64.6,84.89-96.86,1.26-1.9.49-4.44.68-6.61-.94.49-1.86.97-2.86,1.33-5.15,1.87-9.78,3.52-15.27,4.41l-15.26.44c-6.81-.15-11.51-1.03-17.65-3.16-2.17-.76-5.29-.93-6.68-3.02-1.27-1.89-.78-4.27.21-6.19.68-.86,1.14-1.12,1.77-1.77,1.66-.87,3.81-2.58,4.42-4.42.14-.15.3-.29.44-.44,1.53-.76,5.96-5.46,6.1-6.94.12-1.32-1.84-2.79-2.56-3.67-1.32-1.62-3.64-3.85-4.42-5.75,0-.02.51.03.43-.22-.43-1.3-2.18-2.58-3.53-2.88-.14-.15-.3-.28-.44-.44-.39-.47-1.22-1.36-1.53-1.78-2.06-2.88-1.9-4.2-.69-7.5.12-.15.29-.32.44-.44,4.59-1.08,9.7.69,14.26,1.81,7.24,1.78,17.91,3.17,25.68.82.36-.11.29-.75.65-.83,5.72-1.28,11.37-2.32,16.87-4.5.12-5.19-.67-12.11,6.08-12.72,2.16-.2,3.06.44,5.04.84ZM75.77,26.88c-.42-.05-1.55-.17-1.77.22l6.19,8.18c1.98,5.64-.2,7.68-3.54,11.94-.95,1.21-2.07,2.38-3.1,3.54-.14.15-.3.29-.44.44s-.3.29-.44.44c-.25.28-.57.54-.88.88-.14.15-.3.29-.44.44s-.3.29-.44.44c-.35.39-1.11.52-1.33,1.33-.07.27-.16.95.29.89,11.79,2.79,24.29,2.46,35.99-.67,2.85-.76,7.79-2.13,10.31-3.43.59-.3.55-.59.76-.77.15-.14.29-.31.44-.44v-28.29h-.44c-.43-.94-1.37-.14-1.93.06-12.76,4.5-25.66,6.34-39.21,4.8ZM210.27,64.02h-.44l-.36.29c.31,1.17-.53,3.17-.53,3.91v9.72c0,.37-.72,1.16-.46,2.14.13.49.85.24.9.29s-.13.6.08.78c.75.65,17.34-.28,19.83.1.02-.29-.02-.59,0-.88.09-1.89.02-3.85,0-5.75-.04-3.35-.33-6.62-.43-9.97l-.46-.64h-18.14ZM117.36,77.28l-76.54,86.64c-1.06.71,1.59,1.09,2.12,1.2,13.57,2.73,28.13,3.61,41.85,5.93,3.85.65,8.01,1.43,12.22,2.15,5.78.99,11.59,2.14,17.37,3.19,1.19.22,1.04,1.15,2.54.34.17-.09.3-.3.44-.44v-99.02ZM356.18,76.93c-9.71.97-8.97,16,2.05,14.45,9.05-1.28,7.28-15.39-2.05-14.45ZM266.9,91.86c.23-1.05-.53-.92-1.16-1.25-2.47-1.26-6.42-2.1-9.22-2.31-24.56-1.82-51.33,1.41-76.13,0-4.79.62-9.47,2.05-13.62,4.52-.63.37-2.2,1.23-2.07,2.13-.29.14-.58.33-.88.44-.21.08-.61-.06-.89,0l.45.43c-2.99,2.9-6.94,5.76-8.41,9.72-.84,1.68-3.22,3.91-2.65,5.75.06.2-.14.57.05.82l.59.09,124.57-.47c.6-.1.26-.51.25-.86-.13-4.06-1.5-9.34-4.24-12.4-1.28-2.26-1.57-2.47-3.54-3.98-.17-.27-.26-.64-.44-.88-.12-.17-.31-.29-.44-.44s-.29-.32-.44-.44c-.12-.1-.17-.5-.45-.66-.34-.19-.7-.14-.88-.23-.12-.06-.32.06-.44,0ZM237.26,208.56c.4.39.99,1.03,1.33,1.33-.51.44.33,1.19.64,1.35,1.57.83,9.54.46,11.98.43.75,0,1.97.28,2.43-.45l.65-.44c.21-.27.13-.73.24-.89.29-.45.61-.87.88-1.33.19-.33.73-.32.88-.44,1.63-.15,2.92-1.34,4.42-1.99.97-.42,2.44,0,3.1-1.11v-79.57c-.03-1.81.02-3.64.02-5.45-.12-.53-1.51-.69-2-.74-9.14-.82-21.46-.35-30.95-.46-20.71-.24-41.52.04-62.19.24l-.77,1c-6.5,24.78-12.92,49.58-19.35,74.37-.83,3.21-2.8,7.95-3.23,10.94-.09.65-.28,1.28.1,1.91.72,1.01,17.51,2.71,20.01,2.9,13.32.99,27.23,1.24,40.61,1.51,2.35.05,9.22.4,10.99-.11.86-.25,2.99-3.31,4.59-4.25,2.77-1.62,6.41-1.78,9.55-1.3,2.4.37,3.9,2.02,6.08,2.55ZM8.97,168.78c-.18.17-.26.66-.44.88-.05.06-.78-.24-.9.28-.54,2.19.58,7.13,1.04,9.53.75,3.9,2.52,11.47,4.07,14.95.27.6.5,1.19,1.13,1.52,28.68,5.12,57.51,9.45,86.36,13.62,2.68.44,4.07,2.08,3.32,4.86-.81,3.05-3.72,2.7-6.3,2.53-1.57-.1-5.59-.55-7-.89-14.37-3.49-30.49-5.2-45.58-7.58-9.45-1.49-18.87-3.26-28.32-4.75-1.44.43-.07,3.13.26,4.06,1.32,3.75,5.64,15.13,7.86,17.12.07.06-.06.31,0,.44.45.93.85,1.74,1.33,2.65,1.73,3.29,3.46,6.43,4.99,9.84.3.66.06,1.45,1.2,1.21.89,1.75,1.73,3.58,2.65,5.3,2,3.72,4.23,7.15,6.64,10.61.93,1.34,2.11,2.68,3.1,3.98,1.02,3.24,3.91,6.37,6.19,8.84,2.94,5.65,15.18,17.79,20.35,22.33,5.34,4.69,18.75,15.92,25.22,17.01,3.92,2.09,8.3,1.32,12.39.44,2.94-.63,6.25-1.35,9.38-2.69.61-.26.92-1.88,2.56-.84l.02-1.29c2.01.63,2.14-.94,3.03-1.18,5.58-1.51,13.59-2.9,19.31-2.41,13.02,1.1,22.08,10.36,35.81,9.29,6.33-.49,10.29-2.48,15.65-4.68s9.93-3.5,15.55-4.6c5.65-.13,11.31-.07,16.81,1.33,2.1.53,4.16,1.46,6.19,2.21,2.45,1.75,5.35,3.05,8.41,3.54.93.34,1.7.6,2.65.88,3.71,1.09,7.34,1.65,11.23,1.27.96-.09,2.92-.24,3.38-1.27,2.52-.24,2.43-.29,4.31-.86,1.58-.47,6.22-1.23,7.29-1.8.64-.34.61-1.41,1.53-1.69,2.72-.8,5.6-1.94,8.55-2.73,4.64-.49,9.27-1.25,13.96-.89.67.05,1.18.41,1.53.44,1.62.18,3.29.36,4.89.64,1.03.18,2.53,1.05,3.22,1.02,2.05-.09,6.84-3.75,8.49-5.19,6.88-5.98,11.26-12.71,15.79-20.47.4-.68.93-1.16.79-2.09h.44l.92-.28c7.86-16.55,13.62-34.65,13.23-53.21-.23,0-.4.46-.43.45-.09-.02-1.21-1.15-1.33-1.33-.01-.02.77-.42.22-.44-7.96.08-15.93-.1-23.9,0-.75,0-1.97-.28-2.43.45-.14.04-.33-.05-.44,0-.6.29-.45.54-.48,1.1-.09,1.84.58,3.93.47,6.19-.66,13.23-11.71,25.1-23.88,14.15-.66-.59-.97-1.25-.89.22-.17-.18-.72-.26-.88-.44-.56-2.62-2.23-4.87-2.97-7.42-1.39-4.76-.98-8.95-.57-13.8h-6.64c.32,2.99.69,5.99.39,9.01-.35,3.43-1.88,6.78-3.04,10-.05.13.05.31,0,.44-.03.08-.57.27-.88,1.33-2.18,1.75-3.06,3.31-5.75,4.42-1.54.64-3.87,1.31-5.53,1.35-2.36.06-3.87-1.06-5.98-.91-1.32-.71-4.75-3.39-4.87-4.86-.14-1.7-.95-2.31-1.67-4.29-1.56-4.24-1.99-7.79-1.88-12.3.03-1.26,1.4-4.62-.65-4.62h-6.64c-1.12,0-.22,2.6-.2,3.3.09,3.48.24,7.51-.7,10.84-.64,2.26-2.16,4.03-2.86,6.2-3.17,2.74-4.54,5.2-9.12,5.7-3.96.43-7.28-1-10.35-2.6-1.15-.6-1.18-.37-2.14-1.62-1.06-1.37-1.72-3.03-2.28-4.57-1.9-5.25-2.72-10.55-1.8-16.12l-.42-.24c-.96-.63-2.61-.84-3.74-.9-9.95-.57-20.49.03-30.56-.41-13.48-.59-26.13-.54-38.27-5.97-.36-.16-1.62-.95-1.75-.24-2.04-1.44-4.41-2.66-6.19-4.42-.12-.12.08-.65-.88-1.33-.14-.1-.26-.39-.44-.44-.29-.81-.53-2.03-.92-2.74-1.44-2.6-3.81-6.32-5.71-8.75.17-1-.32-1.35-.87-2.01-1.42-1.71-3.28-2.99-4.88-4.18-.54-.41-1.25-1-1.77-1.33.75-.88.13-.98-.55-1.44-2.4-1.61-4.97-2.29-7.76-2.85-22.89-4.59-47.51-5.93-70.56-10.32-7.18-1.56-17.17-3.81-24.93-4.34-1.96-.13-2.68-.53-4.15.83ZM262.48,213.43c-.26.27-2.08,1.37-2.65,1.77-.28.2-1.23-.56-.88,1.33v.44h-.88c-.06.43.07.92,0,1.33-.02.14.03.3,0,.44-1.25-.26-.83.62-1.02,1.39-1.08,4.62-1.47,10.42,1.9,14.08.34.37,1.46,1.51,1.77,1.77,1.14.95,2.82,2.24,4.22,2.25.43-.02,2.32-1.07,2.62-1.37.27-.28.17-.81.24-.88.89-.89.67-.93,1.77-1.33.21-.07.61.07.88,0,.07-.42-.08-.94,0-1.33.03-.15-.04-.31,0-.44,1.17.25.87-.59,1.1-1.31.86-2.74,1.37-5.28,1.11-8.19-.22-2.47-1.64-7.12-3.53-8.18-.7-.39-2.08-1.28-2.65-1.77-.06-.05.14-.63-.06-.8-.17-.14-3.77-.2-3.92-.08-.1.08.1.78,0,.88ZM306.72,217.85c-1.46-4.21-4.32-6.63-8.98-4.77-.85.34-1.25.98.13.79-.1.03-1.67.81-1.77.88-4.2,3.05-4.69,15.5-1.8,19.17.37.47.85.22.91.28.16.14.29.32.44.44.6,2.29,2.04,1.99,3.64,2.68.32.14.31.75.65.84,2.28.61,1.79-.8,1.9-.87.13-.08.8.17,1.21-.1.35-.23.35-1.02.56-1.22.32-.32.56-.52.88-.88.38-.43.8-.61,1.33-1.33.11-.16.34-.27.44-.44.06-.11-.06-.32,0-.44h.88c.07-.42-.08-.95,0-1.33.03-.14-.03-.3,0-.44,2.18-2.37,1.61-8.66.66-11.51-.24-.72.09-1.57-1.1-1.31-.04-.13.05-.31,0-.44ZM226.64,213.87c.02-2.3-2.95.38-3.34.86-3.29,4.07-3.56,11.55-2.17,16.38.21.73-.09,1.57,1.09,1.32.04.14-.04.31,0,.44.1.29.43.41.44.44.12.3.33.58.44.88.08.21-.06.61,0,.89l.43-.45c.49.09.71.46.88.88.01.03-.4.19-.41.37,1.97,1.17,4.7,2.05,6.96,1.1.77-.33.47-.98.53-1.03.52-.43,1.33-.88,1.77-1.33.75-.76.47-.53.88-1.33.06-.11-.05-.31,0-.44.02-.04.35-.15.44-.44.04-.13-.04-.3,0-.44,1.25.26.83-.62,1.02-1.39,1.09-4.64,1.44-14.75-4.11-16.73-.7-.25-3.17-.81-3.79-.83-.08,0-.17.41-1.07.83Z"/>
  <path class="cls-29" d="M97.01,173.2v-.44c.14.03.3-.03.44,0l-.44.44Z"/>
  <path class="cls-3" d="M131.96,190.44s-.39.51-.67.05l.18-172.18c-1.31-5.15.97-10.93-1.73-15.74,1.42,1.8,2.01,3.11,2.23,5.51l-.02,182.36Z"/>
  <path class="cls-28" d="M128.87,1.69c-1.98-.4-2.87-1.04-5.04-.84-6.74.61-5.95,7.54-6.08,12.72-5.5,2.18-11.15,3.22-16.87,4.5-.36.08-.29.72-.65.83-7.77,2.34-18.44.96-25.68-.82-4.56-1.12-9.67-2.89-14.26-1.81.39-.31.44-.86,1.29-1.13,3.07-.96,10.65,1.91,14.17,2.7,4.51,1.01,8.49,1.66,13.54,1.54,4.72-.11,11.75-1.67,16.58-2.88,1.87-.47,10.01-2.69,11.05-3.55,1.35-1.12-1.03-7.45,2.44-10.83,2.86-2.79,6.51-2.74,9.51-.45Z"/>
  <path class="cls-9" d="M234.61,57.83c1.12,1.04,1.8,2.26,2.17,3.8.61,2.49.81,7.37.94,10.11s-.13,5.48-.02,8.2c9.31.32,19.45-1.04,28.41,1.89,5.26,1.72,12.08,7.46,14.95,12.25h-.44c-3.51-5.42-14.5-13.26-21.02-13.26h-22.34l-.89-16.57-1.76-5.97v-.44Z"/>
  <path class="cls-3" d="M346.1,98.5c.83.45,2.59,1.17,3.54,1.55,1.18.47,3.22.01,3.54,1.77v44.65c-.06.56-.15,1.5-.54,1.88-.11.11-2.34,1.22-2.55.54.65-.61,1.33-.8,2-1.32l.24-46.17c-2.28-.67-4.76-.79-6.22-2.91Z"/>
  <path class="cls-9" d="M151.87,152.42c-.46,1.75-.63,4.02-1.09,5.76-3.77,14.42-8.06,28.74-11.3,43.3-.06.08-.68-.31-.88-.44,4.26-16.21,8.57-32.42,12.83-48.62h.44Z"/>
  <path class="cls-28" d="M25.34,161.71c-3.15.94-7.08-.69-10.4-.88-7.64-.44-14.31,2.15-14.41,10.83-.12,10.34,5.84,24.96,8.75,35.05.17.58.85,1.91.13,2.3-3.39-9.52-11.32-31.62-8.99-41.03,2.73-11.04,17.05-7.44,24.92-6.27Z"/>
  <path class="cls-13" d="M271.33,177.62c0,.28.21,1.85-.44,1.1l-.02-57.5c.06-.72-.12-.92.47-1.51-.37,19.28.49,38.64,0,57.91Z"/>
  <path class="cls-28" d="M59.85,52.52c-.99,1.91-1.48,4.29-.21,6.19,1.4,2.09,4.51,2.27,6.68,3.02,6.13,2.13,10.83,3.01,17.65,3.16l15.26-.44c-7.97,1.29-27.35,1.65-34.6-1.78-.5-.24-.48-.9-1.1-1.21-1.51-.75-3.66-.83-4.68-2.87-1.48-2.96-.73-3.87,1.01-6.07Z"/>
  <path class="cls-28" d="M145.24,117.5c4.76,2.47,9.62,1.32,14.75,1.31l.64,1.22c-2.74,10.35-5.36,20.74-8.06,31.1-.15.59-.62,1.06-.68,1.29h-.44c2.87-10.92,5.48-21.93,8.85-32.71h-11.72c-1.22,0-2.57-1.49-3.32-2.21Z"/>
  <path class="cls-28" d="M345.66,254.98c-.64-.37-.1-1.82.05-2.38,2.38-8.91,4.57-18.17,4.81-27.46.1-3.94-.28-7.18-1.77-10.83,2.92,4.06,2.54,10.25,2.21,15.25-.55,8.38-2.89,17.4-5.3,25.42Z"/>
  <polygon class="cls-13" points="361.14 147.56 360.7 147.78 360.68 102.23 361.14 101.15 361.14 147.56"/>
  <path class="cls-4" d="M234.61,57.83v.44c-2.31-2.02-5.17-2.46-8.17-2.67-5.81-.41-12.27.08-18.06.56l-3.42,1.23c1.45-1.32,2.6-1.98,4.64-2.21,3.51-.4,19.19-.4,21.9.67.81.32,2.44,1.38,3.1,1.99Z"/>
  <path class="cls-28" d="M271.33,119.71c1.79-1.78,11.24,2.09,13.57-4.79,1.88-5.56-1.12-15.96-4.28-20.85h.44c3.23,5.38,6.85,15.28,4.33,21.35-2.46,5.95-8.98,4.01-14.07,4.29Z"/>
  <path class="cls-28" d="M147.45,101.59l-3.49,9.55c-.5,2.11.59,3.9.83,5.92-.31-.4-.76-.39-1.11-1.31-1.88-4.95,1.24-10.12,3.77-14.16Z"/>
  <path class="cls-13" d="M182.4,80.37c5.57-.19,11.92-.23,17.48,0,.54.02,1.65-.33,1.54.44-6.41-.05-12.84.08-19.25.01-.75,0-1.97.28-2.43-.45.88-.06,1.77.03,2.65,0Z"/>
  <path class="cls-28" d="M59.85,16.72c-1.21,3.3-1.37,4.62.69,7.5.3.42,1.14,1.31,1.53,1.78-3.12-1-4.08-4.73-3.44-7.64.25-1.12.8-1.1,1.23-1.64Z"/>
  <path class="cls-28" d="M70.02,35.28c.72.88,2.68,2.35,2.56,3.67-.14,1.48-4.57,6.18-6.1,6.94.87-.95,3.55-3.66,4-4.29.41-.58.52-2.01,1.23-2.68l-1.7-3.64Z"/>
  <path class="cls-28" d="M65.6,29.54c-1.14-.9-2.14-2.01-3.1-3.09,1.35.3,3.1,1.58,3.53,2.88.08.25-.44.19-.43.22Z"/>
  <path class="cls-28" d="M345.66,212.1c1.44.69,1.43.41,2.65,1.77l-2.65-1.77Z"/>
  <path class="cls-28" d="M66.04,46.33c-.61,1.84-2.76,3.55-4.42,4.42,1.47-1.5,2.99-2.88,4.42-4.42Z"/>
  <path class="cls-30" d="M339.91,240.83c-.05.26.04.6,0,.88h-.88c-.19.5.43.83.44.88.04.26.02.61,0,.88h-1.33c-.02.92.39,1.74.44,2.65.02.29,0,.59,0,.88l-1.33.89c.5-2.88-2.34-1.61-3.37-3.96l-.76.03c-.99.85-1.26,1.29-2.51,1.72-.06-.55-.07-1.16.06-1.7l1.65-.57c.14-1,.07-2.03.06-3.04.5.16,2.48.48,2.82.43.54-.08.47-1.58,1.38-1.31.88,1.19,1.84,1.54,3.32,1.32ZM336.36,241.28h-.88v.88h.88v-.88Z"/>
  <path class="cls-30" d="M335.04,220.06c2.38,1.22,4.97-.5,7.08,1.33.07.39-.02.9,0,1.33-.74.7-.74,2.86,0,3.54-.09,1-.17,1.67-.44,2.65-.57,2.08-.62,2.4-2.65,3.32l2.21,1.98c-.14.58,0,1.01-.88,1.33-.55.2-1.7-.31-2.21.67l1.32,2.21c-.1,1.74-2.32-.94-3.53.21-.37-1.18,1.22-1.17,1.32-1.33,1.03-1.58-2.7-1.23-3.25-.49l-1.23-2.08-1.7-.07c.86,2.4,1.3,3.1,1.33,5.74-1.41-.45-.83-.76-1.62-2.12-.44-.75-1.46-2.13-1.78-2.87-.25-.56-.17-1.06-.14-1.65-2.81.05-.07,4.77-.89,5.74-3.17-.63-4.9,0-3.54-3.97-.87-.09-1.14.67-2.01.87-3.41.8-3.37-3.9-4.41-4.4-1.14-.56-.06,1.91-1.54,1.32l-.45-2.65c.07-.4-.08-.92,0-1.33l.43-.22-.43-.22c.1-.6.36-1.19.44-1.77.02-.18.4-.68.47-1.5.12-1.29.21-3.71-.47-4.69.55-.58.67-.37,1.33-.44.97-.1,2.09.02,3.1,0,.29,0,.59,0,.88,0,2.2-.05,4.43.06,6.64,0,.88-.03,1.77.02,2.65,0,1.12-.02,2.22-.43,2.65-.44s.89.01,1.33,0ZM319.55,230.23h-.88v.88h.88v-.88Z"/>
  <path class="cls-30" d="M101.88,208.56c.29-2.84,3.4-.61,3.56-3.3.02-.37-.03-.75-.02-1.12-1.2.73-4.04-1.31-3.53-2.42.11-.23,3.93-2.87,4.18-2.91.53-.09,1.83-.29,1.56.69-1.75.33-1.18,2.28-1.33,2.43-.2.2-2.97-.52-2.65,1.33.98-.07,3.68.08,4.24.87.49.69-.91,2.85.41,3.11,1.59.3.69-3.41,2.28-3.91l4.12-.06v1.77c4.48.06-.65-5.38,3.98-4.86l-.44,2.21c1.54-.65,1.88.91,2.01.91.94.04,1.92-1.74,2.86-.24l-2.65,1.77c.26,1.92,1.71.45,2.81.64.32.05.1,1.42,1.75.83l1.25-2.07,3.04-.07v1.78c.12.13,1.37-.12,1.77,0,.18.05.3.34.44.44l.05,1.29.84.04c1.78,1.76,4.15,2.98,6.19,4.42.46.32.73.77.88.88.31.21.56.67.88.88l-.44,2.65c1.38.09,2.61-.39,3.98-.44.14,0,.3-.02.44,0,.14.4.52.39.88.44.15.02.3-.02.44,0h.88c10.28,2.16,20.27,2.21,30.73,3.11l35.19.42v9.06c0,.81,1.2,4.47,1.55,5.54.24.72-.08,1.56,1.1,1.31.56,1.54,1.23,3.2,2.28,4.57.97,1.25.99,1.02,2.14,1.62.89.23,1.29,1.38,1.77,1.77,4.38,3.52,9.93,2.81,14.16-.44,2.04-1.57,2.59-2.52,3.98-4.42,4.13-5.65,4.58-10.25,3.98-17.24l.69-1.8,5.06.03c-1.1,6.71-.47,14.54,3.98,19.89h.44c.12,1.47,3.55,4.15,4.87,4.86,4.79,2.59,7.39,1.15,11.95,0,2.61-.66,2.55-.17,4.86.88-.38-2.5-.24-3.45.44-5.74.32-1.06.86-1.25.88-1.33l.23.44h.66c.05-.72.9-1.82,0-2.21,1.08-2.18,1.74-3.83,2.21-6.19h.88s-.44-2.65-.44-2.65c.11-1.6-.05-3.25,0-4.86l.44-2.66c1.45.25,3.64-.76,4.43.89.01.29-.01.59,0,.88-1.04,1.13-2.33,4.85,0,4.86v.88c-1.17.65-.09,1.8,0,2.21.16.76.56,1.11.44,2.21,0,.06-.62.42-.44.88h.88c.47,1.14,1.51,2.89,1.77,3.98-.71.61-.23.57,0,.88.54.74,1.15,1.52,1.77,2.21.16.18.71.26.88.44.25.26,1.06,1.65,1.77,2.21,1.26.99,4.25,2.62,5.75,3.09,1.37.43,4.53.8,5.92.46.51-.13.22-.86.28-.9,1.05-.83,2.97-1.18,3.98-1.77.21-.12.3-.3.44-.44.18-.17.26-.65.44-.88.31-.1,1.03.18,1.29-.05.19-.17-.03-.73.04-.84,1.33-.13,3.89.76,2.87,2.22-1.95-.66-2.64-.47-2.42,1.76l1.77-.26.88,2.47,1.71-.41.73,1.29c1.16.31,1.92-3.68,1.36-4.46-.39-.54-2.02-.09-1.58-1.06.52-1.14,1.85-.15,2.65-.23-.39-1.65.3-2.8,1.99-3.1,1.01-.18.5.27.66.68.35.91.74,1.89.9,2.87l3.53-.44-.44-2.65c1.99-.46,1.57.54,2.42,1.32,1.3,1.19,3.08,1.47-.21,2.22.34,2.48,1.46,2.48,3.54,1.76.04.33-.06.71.06,1.04l.65.68,1.49.03.04-1.27c.14-.13,1.18-.11,1.52-.04,1.1.23,1.23.67,1.11,1.76-2.83.54-5.46.06-8.21,1.3l-.19,1.35c2.29.18,4.09.02,6.19-.88.36,2.5-.92,1.97-2.57,2.53-.33.11-1.75.18-.97,1,.97,1.01,3.13-.92,4.42-.44l.06-1.69,3.04-.07c-.08.22.08.66,0,.88-.01.03-.32.11-.44.44-.08.23.08.65,0,.88-.01.03-.33.11-.44.44-.08.23.08.65,0,.88-.01.03-.35.16-.44.44-.2.61-.19,1.48-.44,2.21-.02.07-.36.21-.44.44-.05.13.05.31,0,.44-2.89.57.5-2.81-2.05-3.41-.25-.06-4.88-.03-5.19.01-.88.12-2.88,1.11-2.05,2.07.46.53,1.7-1.65,2.44-.45l-.68,5.31c.16.22,2.21.13,1.77,1.11-.71,1.56-3.34-.79-3.92.95l-.06,1.49h2.66s0,1.33,0,1.33l-3.26.03c-.75-1.36-1.59-3.01-1.09-4.6s2.94.86,2.59-1.17c-1.55.37-1.93-1.96-3.28-1.81-.33.04-.94,2.47-2.47,1.8v-3.53s1.73.06,1.73.06l.04,1.27h1.32c-.13-.58.35-1.21.37-1.65.04-1.19-1.23-.68-1.73-1.29-.41-.5-.25-2.75-1.95-1.04-1.09,1.1.02,2.81-.22,3.08-.16.17-2.05-.04-2.62,2.04-.31,1.13,1.61.51,2.09,1.17.13.17.62,2.88.53,3l-1.77-1.32c.05,1.11.26,2.74-1.32,2.65l-.49-3.05-5.26-1.82c-.18-1.12.91-1.34,1.77-1.32.18-.18-1.3-2.59.65-2.65,1.89.9.2,3.91,2.44,3.97.38-1.6,1.11-3.95-.23-5.3-.95-.18-2.97,2.66-2.87-1.33-1.36-.48-.95,2.29-2.44.89-.92-1.37,1.13-2.66.67-3.1-1.43.01-3.42.98-2.53,2.56.11.19,1.19-.15.76.97-1.86-.72-3.63-.62-3.53,1.76.86,0,1.95.21,1.77,1.33-1.54-.38-2.58,1.64-2.96,1.78-.44.16-1.65.32-1.47-.67.23-1.23,2.8-1.57,1.57-3.33-1.11-1.58-1.88.65-2.11.79-.51.31-2.23.2-2.99.55-.13-.17.18-4.48-1.1-3.97-.29.11-.92.84-1.05,1.17-.52,1.4,1.97.86.14,2.36-1.87-1.41-3.55.11-5.81-.81-.87-.35-.35-1.19-1.26-.96l-2,1.78.66,2.2-1.55-.45.45-1.76h-1.77c.11,1.17,1.1,1.34.44,2.65l-3.5-.84c-1.08,1.09.45,4.6-.71,4.83-.91-.84-2.61-.69-3.32-1.11-.51-.3-.08-1.47-1.31-1.1l-.02,1.75c-2.03-.41-2.45,1.49-3.86,2.11-1.09.48-2.59.35-3.66.77s-1.71,1.74-3.09,1.56l.4,1.91c-.36,1.37-4.83,1.47-5.88,1.12-.73-.25-.54-1.27-.94-1.27-.89-.02-1.12,1.09-1.85,1.26-.95.22-2.56-.73-3.55-.7-.6.02-.94.61-1.58.65s-1.7-.54-2.53-.33c-.29-.29.59-2.08-.67-1.77-1.45.4-2.17,1.66-1.99,3.1l-3.74-1.36-1.55,3.37-.67.21c-1.69-1.13-3.27-1.52-3.78.86-1.72-.03-1.92-1.72-1.76-3.09-1.67-.36-.25,1.78-.88,2.65-1.19.46-2.34-1.18-2.95-1.26-.52-.07-.94.69-1.6.71-.25,0-4.61-.28-4.93-.33-.7-.1-1.24-.89-1.81-.9s-2.67,2.49-4.19.89c-1.14-1.2,3.51-1.57,3.98-1.32l-.03-1.29c-2.93-.67-5.36-.34-7.28-3.13-1.16-.13-.64.7-.4,1.3.55,1.35.99,1.37,2.38,1.57,1.84,2.85-1.75.73-2.2,1.11l.45,1.09-.89.23c.22-2.19-1.21-1.39-2.09-1.89-.39-.22-.53-1.41-1.77-1.59-1.65-.23-1.7,2.53-3.16,1.64-.56-.34-.07-1.86-2.72-.81l-.04-1.27c-2.2-.12-4.75-.34-4.39-3.15-1.1-.29-1.09.91-1.56,1.31-1.48,1.28-2.22-.22-1.98-1.76.39-.05.88.16,1.25-.08.28-.37.33-.84.52-1.25h1.32s-.07-1.48-.07-1.48l-.37-.28c.27-.66.37-1.49.44-2.21.39.18,2.06.6,2.21.44v-1.76c-.9.27-2.25.36-3.09,0-.21-.09-.4-.61-.45-.88l-.43.44c-.03-.07-.82-1.28-.88-1.33-2.2-1.7-5.88-.64-8.62-.89-12.36-1.11-22.05-6.63-34.97-5.76-5.32.36-10.19,2.17-15.25,3.55-.05.01-.02-.23-.88,0-.59.16-1.18.28-1.77.44-.22.06-.37.42-.44.44-2.58.71-4.43,1.27-7.08,1.77-.53.1-1.46-.29-1.77.44h-.88c-.09-.97-.98-2.04-1.99-2.21l.22,2.21c-.59.01-1.18.02-1.77,0-2.3-.06-7.94-.02-9.86-.88-.21-.09-2.42-4.59-2.53-.89h-2.65c-.19-.1-.31-.27-.44-.44-.11-.14-.42-.74-.44-.88.8-.06,1.63.04,2.43,0l.22-.88-2.65-.89c.05.57-.09,1.21,0,1.77-.37.03-.77.01-.88.44-.39-.16-.91-.31-1.33-.44-.05-.02-.36-.28-.88-.44-.13-.04-.31.04-.44,0v-1.32s-3.1.44-3.1.44c-.83-.23-1.77-.78-2.21-.88.54-1.23,1.62-2.05,1.32-3.53l-4.6.39-.26,2.26c-.39-.08-.92.07-1.33,0v-.88c-.97.1-2.48-.4-3.1.44-.89-.1-1.94-.4-2.65-.44-.82-.74-3.16-.74-3.98,0-.44.02-.89-.03-1.33,0-1.91.18-1.06-1.93-3.09,0l.88-2.42-1.11-.68c-1.78,1.18-1.03,2.89-2.44,3.99-.67.19-.92.66-1.33.88-2.53.43-2.58-.03-3.54,2.65-.01.03-.38.14-.44.44-.03.13,0,.3,0,.44l-1.32.88v-3.98c-5.51-.35-4.56,5.51-6.09,8.28-.32.57-.25.96-1.2.56-1.46-.62,0-2.72-.2-3.67-.05-.22-2.65-1.67-1.8-3.4l3.98.88c.59-5.23-5.8-.53-6.19-.88-.03-.56-.63-4.01-1.55-3.53-.45.23-.51,1.17-1.22,1.48-1.52.66-2.64-.43-3.6-.13-.8.25-.35,1.73-1.6,1.3.82-1.27-.21-1.85-.3-2.49-.32-2.27,1.17-2.6-2.8-1.92v-3.1s-1.33,0-1.33,0l.43,2.63c-3.71,1.61-1.68-3.3-.87-4.94.3-.61,2.13-1.45,1.76-2.99h-2.63s-.69,1.77-.69,1.77c-1.7-.57-2.32-1.09-4.19-.45-.12-.82.05-1.22.64-1.79,1.01-.97,3.45-.52,2.26-2.22-.5-.71-2.08-.17-2.9-.64-1-.57-1.05-3.21-3.76-2.88-1.02.88.03.68.42.92,1.12.7,1.4,1.42,2.44,1.74l-.21.88c-3.61.51-5.85-3.34-5.28-6.64l-2.92-.17c-.51-.42-.35-1.68-.82-2.29-.8-1.04-3.84-.11-3.6-2.59.27-2.76,4.12-.97,4.06-3.72l2.6-.06v-2.66s1.77,0,1.77,0c.19.16-1.4,3.01.66,2.2,1.6-.62-.58-2.14-.21-2.64,1.75-.64,3.72.21,5.45-.54.68-.3.64-1.17,1.03-1.26,1.15-.27,1.9.92,2.59.91.62,0,1.19-.9,2.2-.92,1.08-.02,1.93.95,2.67.91,1.15-.06,3.46-.96,5.3-.91,3.41.09,4.78,1.84,7.96-.85,1.58.99-.52,1.75-.2,2.84.55.79,2.84,1.51,3.56.96.67-1.67.29-2.84,2.62-2.47v3.54c1.39.12,1.62-2.3,2.93-2.54.61-.11,1.97.49,2.79.4-.27,1.98,1.35,1.63,1.2-.07s-1.62-2.35-1.6-3.97c.28.05.61-.05.88,0-.32,1.62,3.02.91,3.48,1.39l.95,3.92h1.32s0-1.33,0-1.33c.36-.35,2.84.98,3.28,1.36,1.24,1.1,1.37,3.88,2.92,2.83l-.45-2.86,2.15.06.47,1.44.91.26,1.2-1.73c1.12-.28,1.81,1.28,2.94,1.19s3.71-1.79,4.72-2.55c.37.04.96.05,1.33,0,.2-.03.39-.24.44-.44.48-.29.95-.67,1.33-.88s1.04-.83,1.33-.88c1.79-.32,4.21,1.53,4.42-1.77-2.3.83-3.86-1.85-2.41-3.52.62-.72,2.63-.64,2.41-2.22-1.85.06-3.41.5-5.31.44-.15,0-.3,0-.44,0l-.88-.88ZM123.56,211.21l.85-1.93c-1.02-2.84-3.98,1.1-3.51,1.49l1.29.02.04,1.75c2.72-.77,2.21,2.36,4.58.81,1.15-.75.49-1.62.96-2.58.37-.77,2.19-1.04,1.99-1.98-.61-2.82-4.96,3.55-6.19,2.42ZM131.96,210.33c-.7-.7-2.02.62-1.32,1.32s2.02-.62,1.32-1.32ZM110.28,212.55c-1.64-.46-3.17-1.9-3.09.87.93-.25,3.46.76,3.09-.87ZM137.71,216.08c.03-2.7-1.2-3.38-3.71-3.51l-.68.67.41,1.51h-2.65c.01,3.27,2.85,1.37,3.76-.44,1.49.1,1.09,2.29,2.87,1.77ZM72.67,220.94h-.88v.88h.88v-.88ZM77.54,221.83h-.88v.88h.88v-.88ZM80.2,223.59c.32.32,1.97-.17,1.77-1.1-.36-1.63-2.62.24-1.77,1.1ZM98.78,221.83c-2.68-.16-2.12,2.65,0,.65v-.65ZM282.83,235.53c-1.11-.19-.95.22-.91,1.12.09,1.74,1.47,3.07.91,5.06h1.32c.06-2.27-.57-4.15-1.33-6.19ZM73.12,238.18c.85-.85-1.41-2.73-1.77-1.1-.2.93,1.44,1.42,1.77,1.1ZM93.03,238.62c1.24.87,2.67-1.76,1.1-2.2-1.77-.49-1.61,1.85-1.1,2.2ZM75.33,237.3h-.88v.88h.88v-.88ZM90.81,237.3h-.88v1.32h.88v-1.32ZM98.78,237.3h-1.77v.88h1.77v-.88ZM109.84,238.62v-.65c-.47-.69-.95-.77-1.77-.67v1.32s1.77,0,1.77,0ZM98.78,239.95l-3.53,1.54,2.62,1.1.91-2.64ZM325.3,247.91c-.44-.95,2.45-3.17.66-3.54-1.33-.27-3.36,3.55-.66,3.54ZM51.88,244.81c-1.42-1.25-2,2.37-.44,1.11.34-.27.66-.91.44-1.11ZM88.16,244.81h-.88v.88h.88v-.88ZM91.26,244.81c-2.72-.62-2.32,1.96,0,1.76v-1.76ZM93.47,244.81h-1.32v.88h1.32v-.88ZM108.07,244.81c-1.23-.25-.86.46-.88,1.33l-3.09-.44.25,1.36c2.12-.18,4.73,2.51,1.07,2.17l.45,2.65,3.97-1.55-1.77-5.52ZM322.65,244.81h-2.21c.47.97-.37,4.15.7,4.38l1.96-.41-1.3-2.04.85-1.93ZM100.99,245.25c-.68-.55-2.9,1.18-2.65,2.21.26.27,3.32-1.67,2.65-2.21ZM310.7,247.46c-.54-.58-1.89,1.16-1.32,1.76s1.89-1.16,1.32-1.76ZM313.36,248.35h-1.32s0,2.21,0,2.21c1.35.12,1.44-1.11,1.32-2.21ZM114.26,248.79h-.88v.88h.88v-.88ZM276.19,249.23h-.88v.88h.88v-.88ZM307.61,253.21c-.03-1.5-.19-3.9-2.21-3.53l.45,3.53h1.76ZM323.53,249.68c-2.68-.16-2.12,2.65,0,.65v-.65ZM318.23,251.01c-.05-.07-1.68-.51-1.76-.45-.07.05-.52,1.68-.45,1.76.05.07,1.68.51,1.76.45.07-.05.52-1.68.45-1.76ZM131.96,252.77h-.88v.88h.88v-.88ZM277.62,257.28c.22-.38,2.19-.47.82-2.11-1.21-1.46-3.65-.49-4.46.93l1.32.66c.73,1.93-3.62,2.28-3.09,3.31l2.15.75.29,1.28c3.44.94,2.21-3.54,2.95-4.8ZM206.73,254.98h-.88v.88h.88v-.88ZM283.27,258.07l-.21-2.66-1.56-.43.21,2.66,1.56.43ZM211.6,256.74c.14-.84-.52-1.47-1.32-1.32v1.32s1.32,0,1.32,0ZM206.73,257.63h-.88v.88h.88v-.88ZM279.29,260.72c2.71.35,3.97-2.54.48-2.16l-.48,2.16ZM268.03,258.98v1.7s3.73-.62,3.73-.62l-3.73-1.08ZM233.28,262.94h-.88v.88h.88v-.88ZM225.31,266.47h-1.32v.88h1.32v-.88ZM236.37,268.68l-3.48.93.14,1.74,1.35.45c.79.22,2.16-2.97,1.99-3.12ZM227.97,269.57h-.88v.88h.88v-.88ZM242.57,270.01l-4.43-.44v2.21l4.43-.44v-1.32ZM230.18,270.45c-1.59-1.42-1.85,2.89-.22.88.23-.28.33-.78.22-.88Z"/>
  <path class="cls-10" d="M59.4,212.1c5.16.83,10.37,1.81,15.49,2.65-.02,1.62,1.44,2.24,1.6,3.97s-1.46,2.05-1.2.07c-.82.1-2.18-.51-2.79-.4-1.31.24-1.54,2.66-2.92,2.54v-3.54c-2.33-.37-1.95.8-2.63,2.47-.72.55-3.02-.17-3.56-.96-.32-1.09,1.78-1.86.2-2.84-3.18,2.69-4.55.94-7.96.85-1.84-.05-4.15.84-5.3.91-.74.04-1.58-.94-2.67-.91-1.01.02-1.59.92-2.2.92-.68,0-1.43-1.18-2.59-.91-.39.09-.34.97-1.03,1.26-1.74.75-3.71-.1-5.45.54-.37.5,1.81,2.02.21,2.64-2.06.8-.47-2.04-.66-2.2h-1.77s0,2.65,0,2.65l-2.6.06c.06,2.75-3.79.96-4.06,3.72-.24,2.48,2.8,1.55,3.6,2.59.48.62.31,1.87.82,2.29l2.92.17c-.57,3.3,1.67,7.14,5.28,6.64l.21-.88c-1.04-.32-1.32-1.05-2.44-1.74-.39-.24-1.44-.04-.42-.92,2.71-.33,2.76,2.3,3.76,2.88.82.47,2.4-.07,2.9.64,1.19,1.7-1.24,1.24-2.26,2.22-.59.56-.76.97-.64,1.79,1.87-.64,2.49-.13,4.19.45l.69-1.77h2.63c.38,1.54-1.46,2.39-1.76,2.99-.81,1.64-2.85,6.55.87,4.94l-.43-2.63h1.32s0,3.09,0,3.09c3.97-.67,2.48-.35,2.8,1.92.09.64,1.12,1.22.3,2.49,1.25.44.79-1.05,1.6-1.3.97-.3,2.09.79,3.6.13.71-.31.77-1.25,1.22-1.48.92-.48,1.52,2.98,1.55,3.53.39.35,6.78-4.34,6.19.88l-3.98-.88c-.85,1.72,1.75,3.17,1.8,3.4.19.95-1.27,3.05.2,3.67.95.4.89.01,1.2-.56,1.53-2.77.59-8.62,6.09-8.28v3.98s1.33-.88,1.33-.88c-.14,2.12.13,2.16,1.33,3.54.74.85,1.41,1.73,2.65,2.01.82.18,1.3-.26,1.77-.24,1.05.04,1.82.36,3.21-.03.4-.11.18-.78.97-.88,1.5-.19,6.55-.21,8.03,0,1.26.17-.37.92,1.96.48.4-.08.92.07,1.33,0l14.95,5.18c2.69.65,5.76,1.67,8.5,1.9,13.89,1.16,23.54-4.26,36.55-6.58,2.3-.41,6.94-1.46,9.16-.93.34.08.27.79.61.87,10.21,2.34,21.83,5.45,32.22,5.32.75,0,1.97.28,2.43-.45.29-.01.6.04.88,0-.24,1.54.5,3.03,1.98,1.76.47-.4.46-1.6,1.56-1.31-.36,2.81,2.2,3.03,4.39,3.15l.04,1.27c2.64-1.05,2.15.47,2.72.81,1.46.89,1.51-1.87,3.16-1.64,1.24.18,1.38,1.37,1.77,1.59.89.51,2.32-.3,2.09,1.89l.89-.23-.45-1.09c.46-.38,4.04,1.74,2.2-1.11-1.4-.2-1.83-.22-2.38-1.57-.24-.59-.77-1.43.4-1.3,1.91,2.79,4.34,2.45,7.28,3.13l.03,1.29c-.48-.25-5.12.13-3.98,1.32,1.53,1.6,3.59-.9,4.19-.89s1.11.8,1.81.9c.32.05,4.68.34,4.93.33.66-.02,1.08-.78,1.6-.71.61.08,1.76,1.72,2.95,1.26.64-.88-.78-3.01.88-2.65-.15,1.38.04,3.07,1.76,3.09.51-2.38,2.09-1.99,3.78-.86l.67-.21,1.55-3.37,3.74,1.36c-.18-1.45.53-2.7,1.99-3.1,1.26-.31.38,1.48.67,1.77.83-.21,1.88.37,2.53.33s.97-.63,1.58-.65c.99-.03,2.6.92,3.55.7.73-.17.96-1.28,1.85-1.26.4,0,.2,1.02.94,1.27,1.05.36,5.52.26,5.88-1.12l-.4-1.91c1.38.18,1.97-1.13,3.09-1.56s2.56-.29,3.66-.77c1.4-.62,1.82-2.53,3.86-2.11l.02-1.75c1.23-.37.8.81,1.31,1.1.72.42,2.41.28,3.32,1.11,1.16-.22-.37-3.74.71-4.83l3.5.84c.66-1.31-.33-1.48-.44-2.65h1.77s-.45,1.76-.45,1.76l1.55.45-.66-2.2,2-1.78c.91-.23.39.61,1.26.96,2.26.92,3.94-.6,5.81.81,1.83-1.51-.67-.96-.14-2.36.13-.33.76-1.06,1.05-1.17,1.28-.51.97,3.81,1.1,3.97.76-.35,2.49-.24,2.99-.55.22-.14.99-2.37,2.11-.79,1.24,1.76-1.34,2.1-1.57,3.33-.18.99,1.02.83,1.47.67.38-.14,1.42-2.16,2.96-1.78.18-1.12-.9-1.33-1.77-1.33-.1-2.38,1.67-2.49,3.53-1.76.43-1.13-.65-.78-.76-.97-.89-1.58,1.1-2.55,2.53-2.56.46.44-1.59,1.73-.67,3.1,1.49,1.4,1.08-1.38,2.44-.89-.1,3.98,1.92,1.15,2.87,1.33,1.34,1.35.6,3.7.23,5.3-2.23-.06-.54-3.07-2.44-3.97-1.96.06-.47,2.47-.65,2.65-.86-.02-1.95.21-1.77,1.32l5.26,1.82.49,3.05c1.58.1,1.37-1.54,1.32-2.65l1.77,1.32c.1-.12-.4-2.82-.53-3-.48-.65-2.4-.04-2.09-1.17.56-2.07,2.46-1.87,2.62-2.04.25-.27-.87-1.98.22-3.08,1.69-1.71,1.54.54,1.95,1.04.5.61,1.77.11,1.73,1.29-.02.44-.5,1.07-.37,1.65h-1.32s-.04-1.27-.04-1.27l-1.73-.06v3.53c1.53.67,2.14-1.76,2.47-1.8,1.35-.15,1.73,2.17,3.28,1.81.35,2.03-2.07-.47-2.59,1.17s.34,3.24,1.09,4.6l3.26-.03v-1.32s-2.66,0-2.66,0l.06-1.49c.58-1.74,3.21.61,3.92-.95.45-.98-1.61-.89-1.77-1.11l.68-5.31c-.74-1.19-1.99.98-2.44.45-.83-.96,1.17-1.95,2.05-2.07.31-.04,4.94-.07,5.19-.01,2.55.6-.84,3.98,2.05,3.41l-.57,2.74c-1.29,2.37-2.04,4.91-3.31,7.3-.41.77-1.1,1.12.34,1.01-.32.64-1.26,1.3-1.77,2.65l-50.44,8.4c-.13.02-.64.36-1.33.44-2.64-.96-6.28.09-9.07.44-35.11,4.37-71.63,3.53-107.52,3.97-.75,0-1.97-.28-2.43.45-.59-.01-1.18,0-1.77,0,.25-1.33-.68-.86-1.53-.88-2.41-.08-5.52-.31-7.76.44h-.88c.25-1.33-.68-.86-1.53-.88-9.52-.32-19.79-1.01-29.25-2.17-.85-.1-.41-.84-1.27-.95-.56-.08-3.35-.45-2.91.92-.66-.1-2.57-1.09-3.98-1.33,1.24-.49-1.55-.73-1.68-.75-5.32-.8-10.71-1.45-16.01-2.35-.14-.02-.3.02-.44,0-1.49-.67-4.36-1.71-5.75-.88-2.4-.5-4.77-1.41-7.08-2.21-1.56-.54-2.05-.87-3.98-1.33-.14-.03-.3.03-.44,0-1.52-1.23-3.52-1.33-5.31-1.77-.14-.03-.3.03-.44,0l-18.12-6.43c-1.76-1.76-2.95-3.98-4.44-5.95-.99-1.3-2.17-2.64-3.1-3.98l-1.19-2.99c-1.8-1.71-2.93-4.27-4.19-6.47-.35-.6-.19-1.4-1.25-1.16-.93-1.73-1.76-3.56-2.65-5.3-2.32-4.55-4.92-9.56-7.08-14.15-1.33-2.81-2.84-5.98-3.98-8.84-.15-.38-.01-1.37-.3-2.12l-3.24-8.49c14.01,2.17,28.03,4.38,42.03,6.63ZM65.6,217.85h-.88v.88h.88v-.88Z"/>
  <path class="cls-21" d="M66.93,271.33c.14.03.3-.03.44,0,1.34,1.32,3.57,1.35,5.31,1.77.14.03.3-.03.44,0,.96,1.04,2.62,1.33,3.98,1.33,2.31.8,4.68,1.71,7.08,2.21,1.87.39,3.87.56,5.75.88.14.02.3-.02.44,0,5.72,1.86,11.82,2.11,17.7,3.09,1.41.24,3.32,1.23,3.98,1.33,6.53.97,13.97,1.68,20.58,2.21,4.78.38,9.6.5,14.38.89h.88l9.29.44c.59,0,1.18-.01,1.77,0,24.32.56,49.87.3,74.13-.87,15.12-.73,30.32-2.23,44.89-4,.68-.08,1.19-.43,1.33-.44,16.39-2.02,32.85-3.48,48.92-7.55l.64.92c.15.93-.39,1.4-.79,2.09-4.54,7.76-8.91,14.49-15.79,20.47-1.65,1.44-6.44,5.09-8.49,5.19-.69.03-2.19-.84-3.22-1.02-1.6-.28-3.27-.46-4.89-.64-.31-1.02-1.14-.85-1.97-.91-4.68-.31-9.03.14-13.52,1.35-2.95.79-5.83,1.92-8.55,2.73-.92.27-.88,1.34-1.53,1.69-1.08.57-5.72,1.33-7.29,1.8-1.89.57-1.79.61-4.31.86-1.11.11-2.16.53-3.3.46l-11.3-.46c-.96-.28-1.73-.54-2.65-.88-2.97-1.08-5.57-2.49-8.41-3.54-2.03-.75-4.1-1.68-6.19-2.21l-2.63-1.13c-4.65-.71-9.64-1.09-14.18-.2-5.62,1.1-10.29,2.45-15.55,4.6s-9.32,4.19-15.65,4.68c-13.73,1.07-22.8-8.19-35.81-9.29-5.72-.48-13.73.91-19.31,2.41-.89.24-1.02,1.81-3.03,1.18l-.02,1.29c-1.64-1.04-1.96.58-2.56.84-3.13,1.34-6.44,2.06-9.38,2.69l-12.39-.44c-6.47-1.09-19.89-12.32-25.22-17.01-5.17-4.54-17.41-16.68-20.35-22.33-.3-.58-.6-1.18-.88-1.76,5.85,1.35,11.35,3.81,17.25,5.3Z"/>
  <path class="cls-16" d="M117.36,77.28v99.02c-.14.14-.27.35-.44.44-6.25-2.21-12.96-2.83-19.47-3.98-.14-.03-.3.03-.44,0-1.78-.31-4.42-.03-5.18-1.31l-51-7.54,76.54-86.64Z"/>
  <path class="cls-10" d="M23.12,170.55c1.81.22,3.63.24,5.31.44-.1,1.75-.13,1.13,1.1,1.31,4.64.68,9.29,1.2,13.94,1.79.15.02.3-.02.44,0,3.44,1.42,7.49,1.24,11.06,1.77,18.76,2.8,37.46,6.17,56.3,8.51l3.43,1.22c.72.41,1.51.88,2.21,1.33.52.33,1.22.92,1.77,1.33,1.88,2.07,4.03,3.98,5.75,6.19,1.9,2.43,4.27,6.15,5.71,8.75.39.71.63,1.93.92,2.74-.39-.12-1.65.14-1.77,0v-1.78s-3.03.07-3.03.07l-1.25,2.07c-1.65.59-1.43-.77-1.75-.83-1.1-.19-2.55,1.28-2.81-.64l2.65-1.77c-.93-1.5-1.92.28-2.86.24-.13,0-.47-1.56-2.01-.91l.44-2.21c-4.63-.52.49,4.93-3.98,4.86v-1.77s-4.13.06-4.13.06c-1.59.51-.7,4.22-2.28,3.91-1.32-.25.08-2.41-.41-3.11-.56-.79-3.26-.94-4.24-.87-.32-1.85,2.45-1.13,2.65-1.33.14-.15-.42-2.1,1.33-2.43.26-.98-1.04-.77-1.56-.69-.25.04-4.07,2.68-4.18,2.91-.51,1.11,2.33,3.15,3.53,2.42-.01.37.04.75.02,1.12-.15,2.7-3.27.46-3.56,3.3l-87.31-13.77-.65-.68c-1.84-7.98-5.32-15.83-4.89-24.17l.66-.66c4.46.09,9.01.73,13.43,1.26Z"/>
  <path class="cls-6" d="M270,94.52c1.97,1.5,2.26,1.72,3.54,3.98,2.13,3.77,3.53,7.98,3.54,12.38h-124.32l2.21-5.3c1.46-3.97,5.42-6.82,8.41-9.72l.44-.44c.3-.11.59-.3.88-.44,1.46-.71,2.91-1.61,4.42-2.21,3.49-1.38,7.07-2.58,10.82-3.11,25.12,1.39,52.12-1.79,77.02,0,4.81.35,9.24,1.98,13.03,4.88Z"/>
  <path class="cls-11" d="M297.87,213.87c2.16-.61,3.47-.51,5.48.49.43.21,2.24,1.6,2.36,1.85.25.52.05.98.13,1.19,2.31,6.09,2.25,12.1-1.33,17.68-.32.37-.56.57-.88.88-.68.55-1.51.32-2.21.44-.8.14-1.57.56-2.43.46-.9-.11-.97-.83-1.11-.9-5.41-4.15-4.24-11.75-3.1-17.68.48-1.16,1.41-2.16,1.33-3.54.1-.07,1.67-.86,1.77-.88Z"/>
  <path class="cls-11" d="M231.51,213.87c2.38,2.35,2.79,4.37,3.54,7.51.2,5.02.19,14.98-6.79,14.86-4.98-.09-5.87-4.42-6.48-8.46v-7.29c.98-3.52,1.43-5.05,4.86-6.63.9-.42,1-.83,1.07-.83.62.02,3.1.58,3.79.83Z"/>
  <path class="cls-22" d="M356.18,76.93c9.33-.94,11.1,13.18,2.05,14.45-11.01,1.55-11.76-13.48-2.05-14.45Z"/>
  <path class="cls-25" d="M8.52,169.66c-.8,3.14.33,7.45,1.02,10.69,1.1,5.14,2.94,10.11,4.25,15.2l88.96,13.89c.15,0,.3,0,.44,0,1.72,2.39,1.37,4.35.88,7.07-.29.05-.95.67-1.33.88-5.18.77-11.32-.5-16.57-1.36-.76-.13-1.31-.8-1.57-.85-8.36-1.36-16.86-2.2-25.22-3.54-14.3-2.28-28.57-5.02-42.91-7.07l4.42,11.49c1.14,2.86,2.65,6.03,3.98,8.84h-.44c-2.22-1.99-6.54-13.37-7.86-17.12-.33-.93-1.7-3.62-.26-4.06,9.45,1.49,18.87,3.26,28.32,4.75,15.09,2.37,31.22,4.09,45.58,7.58,1.41.34,5.43.79,7,.89,2.58.17,5.49.51,6.3-2.53.74-2.78-.64-4.42-3.32-4.86-28.85-4.17-57.68-8.5-86.36-13.62-.63-.34-.86-.92-1.13-1.52-1.54-3.48-3.31-11.05-4.07-14.95-.46-2.4-1.58-7.33-1.04-9.53.13-.52.85-.22.9-.28Z"/>
  <path class="cls-4" d="M237.26,208.56c-2.18-.52-3.68-2.18-6.08-2.55-3.14-.49-6.78-.33-9.55,1.3-1.6.94-3.73,4-4.59,4.25-1.77.51-8.63.16-10.99.11-13.38-.27-27.29-.52-40.61-1.51-2.5-.19-19.3-1.89-20.01-2.9-.37-.62-.19-1.25-.1-1.91.43-2.99,2.39-7.73,3.23-10.94,6.44-24.8,12.86-49.59,19.35-74.37l.77-1c20.67-.19,41.48-.47,62.19-.24,9.49.11,21.81-.36,30.95.46.5.04,1.88.21,2,.74,0,1.81-.05,3.64-.02,5.45.39,26.5-.29,53.06,0,79.57-.65,1.1-2.12.68-3.1,1.11-1.51.65-2.79,1.84-4.42,1.99,2.24-1.77,3.87-2.61,6.66-3.36-.03-6.24-.05-12.5-.03-18.74.71-.42.72-2.21,0-2.65,0-.44,0-.88,0-1.33.73-.46.44-1.68.45-2.42.04-3.68.05-7.38,0-11.06,0-.75.28-1.97-.45-2.42,0-.29,0-.59,0-.88,0-.48,0-1.27,0-1.77,0-14.58,0-29.18,0-43.76l-94.22-.42-23.03,87.5c11.38,2.49,23.12,2.55,34.73,3.1,7.12.34,14.29.78,21.46.88,4.94.07,9.93-.27,14.86.27.49-.06.46-.57.62-.71.96-.87,1.6-2.02,2.21-2.65,5.54-3.37,12.08-3.84,17.25.44.15.14.29.3.44.44Z"/>
  <path class="cls-13" d="M277.52,111.76l-124.57.47-.59-.09c-.18-.26.01-.62-.05-.82l125.21.44Z"/>
  <path class="cls-25" d="M8.97,168.78c1.47-1.35,2.19-.96,4.15-.83,7.76.53,17.74,2.78,24.93,4.34,23.05,4.39,47.67,5.73,70.56,10.32,2.8.56,5.36,1.24,7.76,2.85.68.46,1.3.56.55,1.44-.7-.45-1.49-.91-2.21-1.33-2.71-1.55-4.26-1.95-7.42-2.53-16.82-3.06-35.27-5.3-52.31-7.64-3.68-.5-7.38-.86-11.06-1.33-.15-.02-.3.02-.44,0-.52-.58-1.4-.61-2.13-.75-4.32-.82-8.89-1.86-12.91-2.35-1.68-.2-3.5-.22-5.31-.44-3.64-.95-8.06-1.86-11.8-2.17-.85-.07-1.62-.11-2.36.4Z"/>
  <path class="cls-14" d="M116.92,22.02h.44v28.29c-.16.14-.29.3-.44.44-15.12,5.72-31.45,8.54-47.34,3.98.21-.8.98-.93,1.33-1.33-.06,1.18.61,1.15,1.47,1.41,9.97,3.05,24.95,1.28,34.91-1.53,1.08-.3,8.11-2.43,8.36-2.79,1.91-2.75-.72-11.39.75-14.99l-.36-12.6c-12.63,4.72-26.6,7.34-40.04,4.87,1.24,2.71,3.25,4.76,4.21,7.5l-6.19-8.18c.22-.39,1.35-.27,1.77-.22,6.61.83,11.02,1.56,17.91.88,8-.8,15.66-3.25,23.23-5.74Z"/>
  <path class="cls-18" d="M277.52,111.76l-125.21-.44c-.56-1.84,1.82-4.07,2.65-5.75l-2.21,5.3h124.32c-.01-4.4-1.41-8.61-3.54-12.38,2.73,3.06,4.1,8.34,4.24,12.4.01.34.34.75-.25.86Z"/>
  <path class="cls-8" d="M139.48,212.98c2.04.9,4.19,1.51,6.29,2.25,10.39,3.68,22.6,2.84,33.75,3.5l33.41.88.42.24c-.92,5.57-.11,10.87,1.8,16.12-1.18.26-.86-.59-1.1-1.31-.36-1.07-1.55-4.74-1.55-5.54v-9.06l-35.19-.42c-10.46-.9-20.45-.96-30.73-3.11-.26-.05-.6.04-.88,0-.14-.02-.3.02-.44,0-.14-.43-.51-.4-.88-.44-.14-.02-.3,0-.44,0l-.06-.81c-1.2-.24-2.47-.73-3.48-1.4-.32-.21-.58-.67-.88-.88Z"/>
  <path class="cls-25" d="M138.6,212.1c.14-.71,1.39.07,1.75.24,12.14,5.43,24.78,5.38,38.27,5.97,10.08.44,20.61-.16,30.56.41,1.14.06,2.79.27,3.74.9l-33.41-.88c-11.14-.67-23.36.17-33.75-3.5-2.1-.74-4.25-1.34-6.29-2.25-.16-.11-.43-.56-.88-.88Z"/>
  <path class="cls-19" d="M341.68,219.17c.12.18,1.24,1.3,1.33,1.33.1,3.01-.15,6.03-.5,9.01-.26,2.23-.95,4.43-1.27,6.46h-.44l-.44-.44c.88-.31.74-.74.88-1.33.4-1.6.46-3.64.44-5.3.27-.98.35-1.65.44-2.65.1-1.05.06-2.46,0-3.54-.02-.43.07-.94,0-1.33-.1-.57-.01-1.04-.72-1.26-2.11-.09-4.25-.13-6.36-.07-.44.01-.89-.01-1.33,0-.83.06-2.16-.34-2.65.44-.88.02-1.77-.03-2.65,0-1.73-.75-5-.74-6.64,0-.29,0-.59,0-.88,0-.56-.73-2.54-.73-3.1,0-.65.07-.78-.14-1.33.44-.9.95.5,4.53,0,6.19-.08.58-.35,1.17-.44,1.77-.02.14.03.3,0,.44-.08.4.07.92,0,1.33-.29,1.58-1.76,5.6-2.67,7.19-.29.5-.85.28-.87.32.48-2.1,1.77-3.67,2.34-5.84,1.08-4.05,1.05-9.08.31-13.17.11-.05.3.04.44,0h26.1Z"/>
  <path class="cls-13" d="M164.7,94.96c-.13-.9,1.44-1.76,2.07-2.13,4.15-2.46,8.83-3.89,13.62-4.52,24.8,1.41,51.57-1.82,76.13,0,2.79.21,6.75,1.04,9.22,2.31.63.32,1.39.19,1.16,1.25-3.89-1.83-6.28-2.43-10.62-2.65h-75.66c-3.73.15-8.67,1-11.5,3.54-1.51.6-2.97,1.5-4.42,2.21Z"/>
  <path class="cls-9" d="M40.82,163.92l51,7.54c.76,1.27,3.4.99,5.18,1.31v.44c-4.21-.72-8.37-1.5-12.22-2.15-13.72-2.32-28.28-3.2-41.85-5.93-.52-.11-3.18-.49-2.12-1.2Z"/>
  <path class="cls-9" d="M116.92,176.74c-1.5.81-1.35-.12-2.54-.34-5.78-1.05-11.59-2.21-17.37-3.19l.44-.44c6.51,1.15,13.21,1.77,19.47,3.98Z"/>
  <path class="cls-25" d="M239.03,239.06c.71-2.17,2.23-3.94,2.86-6.2.94-3.33.79-7.36.7-10.84-.02-.7-.92-3.3.2-3.3h6.64c2.05,0,.67,3.37.65,4.62-.11,4.51.32,8.06,1.88,12.3.73,1.98,1.54,2.59,1.67,4.29h-.44c-3.46-6.48-4.52-13.05-3.54-20.34h-6.64c-.3.81.4,1.7.44,2.21.6,6.99.15,11.59-3.98,17.24h-.44Z"/>
  <path class="cls-23" d="M263.81,205.03c-.29-26.51.39-53.06,0-79.57v79.57Z"/>
  <path class="cls-25" d="M343,220.5s.21-.44.43-.45c.39,18.56-5.37,36.66-13.23,53.21l-.92.28c.18-.57.23-1.21.44-1.77.51-1.35,1.45-2.02,1.77-2.65,2.39-4.67,6.54-15.33,7.08-20.33.02-.14,0-.3,0-.44,1.13-1.89,1.56-4.45,2-6.63s.36-3.91.66-5.75c.32-2.04,1.01-4.24,1.27-6.46.35-2.98.59-6,.5-9.01Z"/>
  <path class="cls-15" d="M228.41,64.02l.46.64c.1,3.35.39,6.62.43,9.97h-.44c-.03-.67-.42-1.51-.46-2.41-.12-2.42.12-4.89.02-7.32h-17.03c-.13,0-.32-.54-.66-.44-.37.52.74,3.6-.89,3.98.07-1.46-.05-2.96,0-4.42h18.58Z"/>
  <path class="cls-3" d="M116.92,50.75c-.21.19-.16.47-.76.77-2.51,1.29-7.46,2.66-10.31,3.43-11.69,3.14-24.19,3.46-35.99.67-.45.06-.37-.62-.29-.89,15.89,4.56,32.22,1.74,47.34-3.98Z"/>
  <path class="cls-8" d="M276.64,238.18c1.16-3.22,2.7-6.57,3.04-10,.31-3.02-.07-6.02-.39-9.01h6.64c-.41,4.84-.82,9.03.57,13.8.74,2.55,2.41,4.8,2.97,7.42-.62-.69-1.23-1.47-1.77-2.21-.04-.28.06-.63,0-.88-.26-1.09-1.3-2.84-1.77-3.98-.11-.27.03-.72-.44-.88.12-1.1-.28-1.45-.44-2.21v-3.09c0-1.61.06-3.25,0-4.86-.01-.29.01-.59,0-.88-.02-.44.02-.89,0-1.33h-4.87c-.02,1.03.03,2.07,0,3.1-.05,1.61.11,3.26,0,4.86-.07,1.03-.25,1.7-.44,2.65-.47,2.35-1.14,4.01-2.21,6.19-.24.49-.38,1.01-.88,1.33Z"/>
  <path class="cls-7" d="M23.12,170.55c-4.43-.53-8.97-1.18-13.43-1.26l-.66.66c-.43,8.34,3.05,16.19,4.89,24.17l.65.68,87.31,13.77.88.88-88.96-13.89c-1.31-5.09-3.15-10.06-4.25-15.2-.69-3.24-1.82-7.56-1.02-10.69.18-.22.26-.72.44-.88.74-.51,1.51-.47,2.36-.4,3.74.31,8.16,1.22,11.8,2.17Z"/>
  <path class="cls-13" d="M116.92,22.02c-7.57,2.49-15.24,4.94-23.23,5.74-6.89.69-11.3-.05-17.91-.88,13.56,1.53,26.45-.31,39.21-4.8.57-.2,1.5-.99,1.93-.06Z"/>
  <path class="cls-13" d="M209.83,68.44c-.13,2.8-.47,5.61-.44,8.4,0,1.18,0,2.36,0,3.54h19.91c-.01.29.02.59,0,.88-2.49-.38-19.08.55-19.83-.1-.21-.18-.02-.72-.08-.78s-.78.2-.9-.29c-.26-.98.46-1.77.46-2.14v-9.72c0-.74.84-2.74.53-3.91l.36-.29c-.05,1.46.07,2.96,0,4.42Z"/>
  <path class="cls-13" d="M222.22,232.43c-1.18.25-.88-.59-1.09-1.32-1.38-4.83-1.11-12.31,2.17-16.38.39-.49,3.36-3.16,3.34-.86-3.43,1.58-3.88,3.11-4.87,6.63-1.32,4.69-.92,7.29.44,11.94Z"/>
  <path class="cls-3" d="M294.78,218.29c-.38.91-.84,1.28-1.13,2.63-.94,4.3-.28,9.31,1.57,13.28-.06-.06-.55.19-.91-.28-2.9-3.68-2.4-16.12,1.8-19.17.08,1.38-.84,2.38-1.33,3.54Z"/>
  <path class="cls-24" d="M229.3,80.37h-19.91c0-1.17,0-2.36,0-3.54l.44,3.1h19.03c-.05-1.76.07-3.55,0-5.31h.44c.02,1.89.09,3.86,0,5.75Z"/>
  <path class="cls-3" d="M269.12,215.19c1.9,1.06,3.31,5.71,3.53,8.18.26,2.91-.24,5.46-1.11,8.19-.23.72.07,1.56-1.1,1.31.4-1.47,1.08-2.54,1.27-4.26.57-5.16-.26-8.9-2.6-13.43Z"/>
  <path class="cls-3" d="M231.51,213.87c5.55,1.98,5.2,12.09,4.11,16.73-.18.78.24,1.65-1.02,1.39,1.23-4.43,1.49-6.18.44-10.61-.75-3.15-1.16-5.17-3.54-7.51Z"/>
  <path class="cls-13" d="M315.57,219.17c.46-.73,1.68-.44,2.43-.45,7.96-.1,15.93.09,23.9,0,.55.03-.23.42-.22.44h-26.1Z"/>
  <path class="cls-10" d="M275.75,239.95c-.69,2.29-.83,3.24-.44,5.74-2.31-1.05-2.25-1.54-4.86-.88l-.44-.44c2.69-1.11,3.57-2.67,5.75-4.42Z"/>
  <path class="cls-25" d="M312.47,238.18c-.78,1.33-1.32,2.25-2.21,3.54-.07.11.15.66-.04.84-.25.22-.97-.05-1.29.05-3.21.98-4.47,3.08-8.65,3.11-3.05.02-5.41-1.9-8.17-2.67-.71-.56-1.52-1.95-1.77-2.21-.09-1.47.23-.81.89-.22,12.17,10.95,23.23-.92,23.88-14.15.11-2.26-.56-4.35-.47-6.19.03-.56-.12-.81.48-1.1.73,4.09.77,9.12-.31,13.17-.58,2.17-1.87,3.74-2.34,5.84Z"/>
  <path class="cls-3" d="M258.06,218.73c-1.06,5.39-1.77,10.32.88,15.47-3.38-3.66-2.98-9.46-1.9-14.08.18-.78-.24-1.65,1.02-1.39Z"/>
  <path class="cls-2" d="M258.5,307.14c-.46,1.03-2.41,1.18-3.38,1.27-3.89.38-7.52-.18-11.23-1.27l11.3.46c1.14.06,2.19-.36,3.3-.46Z"/>
  <path class="cls-15" d="M221.78,220.5v7.29c.62,4.04,1.5,8.37,6.49,8.46,6.98.12,6.99-9.84,6.79-14.86,1.05,4.43.79,6.18-.44,10.61-.04.14.04.31,0,.44l-.44.44c-.05.13.06.33,0,.44-.63.19-.88.68-.88,1.33-.44.45-1.25.9-1.77,1.33-2.52,1.39-4.75,1.1-7.08-.44-.17-.43-.39-.8-.88-.88l-.44-.44c-.12-.3-.32-.58-.44-.88l-.44-.44c-.04-.13.04-.3,0-.44-1.37-4.64-1.76-7.24-.44-11.94Z"/>
  <path class="cls-13" d="M306.72,217.85l-.88-.44c-.08-.21.13-.67-.13-1.19-.12-.24-1.93-1.63-2.36-1.85-2.01-1.01-3.32-1.1-5.48-.49-1.38.19-.98-.46-.13-.79,4.66-1.85,7.51.56,8.98,4.77Z"/>
  <path class="cls-2" d="M108.51,307.58c-4.09.88-8.47,1.64-12.39-.44l12.39.44Z"/>
  <path class="cls-3" d="M239.47,239.06c-1.39,1.9-1.94,2.86-3.98,4.42-4.73,2.32-9.35,2.85-14.16.44-.48-.38-.88-1.54-1.77-1.77,3.07,1.6,6.39,3.04,10.35,2.6,4.57-.5,5.95-2.96,9.12-5.7h.44Z"/>
  <path class="cls-24" d="M306.72,217.85c.05.13-.04.31,0,.44,1.73,5.41,1.58,7.34.44,12.82-.03.14.03.3,0,.44-.51.31-.64.84-.88,1.33-.06.12.06.33,0,.44l-.44.44c-.52.72-.95.9-1.33,1.33,3.57-5.59,3.64-11.59,1.33-17.68l.88.44Z"/>
  <path class="cls-24" d="M266.46,213.43c.57.49,1.95,1.38,2.65,1.77,2.34,4.52,3.17,8.26,2.6,13.43-.19,1.72-.87,2.79-1.27,4.26-.04.13.03.3,0,.44-.63.19-.88.68-.88,1.33-1.1.4-.88.44-1.77,1.33h-.44c.75-.35,2.65-3.35,2.97-4.32,1.9-5.7,1.33-18.87-7.14-17.75-3.31.44-5.17,6.14-5.51,9.09-.56,4.69.23,13.09,6.43,13.41.42.02,3.04-.32,3.26-.42-1.77,1.75-4.59.78-6.64,0-.31-.26-1.43-1.4-1.77-1.77-2.66-5.15-1.95-10.08-.88-15.47.03-.14-.02-.3,0-.44l.88-1.33v-.44c.63-.19.88-.68.88-1.33.57-.4,2.39-1.5,2.65-1.77,1.41-.27,2.59-.64,3.98,0Z"/>
  <path class="cls-27" d="M329.73,271.77c-.21.56-.26,1.2-.44,1.77h-.44l-.64-.92c-16.06,4.07-32.53,5.53-48.92,7.55l50.44-8.4Z"/>
  <path class="cls-2" d="M209.83,299.18c4.54-.89,9.54-.52,14.18.2l2.63,1.13c-5.5-1.39-11.16-1.45-16.81-1.33Z"/>
  <path class="cls-13" d="M306.72,218.29c1.18-.26.86.6,1.1,1.31.96,2.85,1.53,9.14-.66,11.51,1.13-5.48,1.29-7.41-.44-12.82Z"/>
  <path class="cls-8" d="M270,244.37l.44.44c-4.56,1.15-7.15,2.59-11.95,0,2.1-.15,3.62.98,5.98.91,1.65-.05,3.99-.72,5.53-1.35Z"/>
  <path class="cls-19" d="M31.97,239.06c-1.14.24-.91-.55-1.2-1.21-1.53-3.42-3.27-6.55-4.99-9.84l-1.33-2.65c-.06-.13.07-.38,0-.44h.44c2.16,4.58,4.76,9.59,7.08,14.15Z"/>
  <path class="cls-3" d="M267.35,235.97h.44c-.07.07.03.6-.24.88-.3.31-2.19,1.35-2.62,1.37-1.4-.02-3.08-1.31-4.22-2.25,2.05.78,4.87,1.75,6.64,0Z"/>
  <path class="cls-13" d="M239.03,210.33c.15.13.29.37.44.44.32.15.31.38,1.06.47,2.79.31,9.87.3,12.66-.03.15-.02.3.01.44,0-.46.73-1.68.44-2.43.45-2.44.03-10.41.41-11.98-.43-.3-.16-1.14-.91-.64-1.35.15.14.28.31.44.44Z"/>
  <path class="cls-2" d="M295.66,299.62c-.34-.04-.86-.39-1.53-.44-4.69-.36-9.32.4-13.96.89,4.49-1.21,8.84-1.67,13.52-1.35.82.06,1.66-.11,1.97.91Z"/>
  <path class="cls-27" d="M66.93,271.33c-5.9-1.49-11.4-3.95-17.25-5.3.29.59.58,1.18.88,1.76-2.29-2.47-5.18-5.6-6.19-8.84,1.49,1.97,2.68,4.18,4.44,5.95l18.12,6.43Z"/>
  <path class="cls-3" d="M297.87,235.97c.14.07.21.79,1.11.9s1.62-.32,2.43-.46l.44.88c-.11.07.39,1.48-1.9.87-.34-.09-.33-.7-.65-.84-1.61-.69-3.04-.39-3.64-2.68.84.66,1.31.86,2.21,1.33Z"/>
  <path class="cls-8" d="M118.69,188.23c1.6,1.2,3.47,2.47,4.88,4.18.54.66,1.03,1,.87,2.01-1.72-2.21-3.87-4.12-5.75-6.19Z"/>
  <path class="cls-19" d="M34.63,244.37c1.06-.24.91.55,1.25,1.16,1.26,2.2,2.4,4.75,4.19,6.47l1.19,2.99c-2.4-3.46-4.64-6.89-6.64-10.61Z"/>
  <path class="cls-3" d="M231.51,235.97c-.06.05.24.7-.53,1.03-2.25.95-4.98.07-6.96-1.1,0-.18.42-.34.41-.37,2.33,1.54,4.56,1.83,7.08.44Z"/>
  <path class="cls-3" d="M262.48,213.43c.1-.1-.11-.81,0-.88.16-.12,3.76-.06,3.92.08.2.17,0,.75.06.8-1.39-.64-2.57-.27-3.98,0Z"/>
  <path class="cls-10" d="M277.52,236.85c.9.39.05,1.49,0,2.21h-.66s-.23-.44-.23-.44c.05-.13-.05-.31,0-.44.51-.31.64-.83.88-1.33Z"/>
  <path class="cls-13" d="M303.63,235.97c-.2.2-.21,1-.56,1.22-.42.27-1.09.02-1.21.1l-.44-.88c.71-.12,1.53.11,2.21-.44Z"/>
  <path class="cls-2" d="M232.84,302.72c2.84,1.04,5.44,2.45,8.41,3.54-3.06-.49-5.96-1.78-8.41-3.54Z"/>
  <path class="cls-18" d="M180.63,89.21c24.93.97,50.84-1.29,75.66,0,4.34.23,6.73.82,10.62,2.65.12.06.33-.06.44,0,.19.63.68.88,1.33.88.15.13.31.29.44.44l.44.44c.18.24.27.62.44.88-3.79-2.9-8.22-4.53-13.03-4.88-24.89-1.79-51.9,1.39-77.02,0-3.75.53-7.33,1.73-10.82,3.11,2.83-2.54,7.77-3.38,11.5-3.54Z"/>
  <path class="cls-3" d="M270.44,233.32c-.08.39.07.9,0,1.33-.28.06-.68-.08-.88,0,0-.65.25-1.13.88-1.33Z"/>
  <path class="cls-10" d="M132.4,207.68l-.84-.04-.05-1.29c.96.68.77,1.21.88,1.33Z"/>
  <path class="cls-3" d="M259.83,215.19c0,.65-.25,1.13-.88,1.33-.35-1.88.6-1.13.88-1.33Z"/>
  <path class="cls-13" d="M307.17,231.55c-.08.38.07.91,0,1.33h-.88c.24-.49.38-1.01.88-1.33Z"/>
  <path class="cls-3" d="M233.28,234.64c0-.65.25-1.13.88-1.33-.41.8-.14.57-.88,1.33Z"/>
  <path class="cls-24" d="M297.87,235.97c-.9-.46-1.37-.66-2.21-1.33-.15-.12-.29-.31-.44-.44-1.86-3.97-2.51-8.98-1.57-13.28.29-1.35.75-1.72,1.13-2.63-1.14,5.93-2.31,13.53,3.1,17.68Z"/>
  <path class="cls-20" d="M201.87,210.77c-7.17-.1-14.35-.54-21.46-.88-11.61-.56-23.35-.62-34.73-3.1l23.03-87.5,94.22.42c0,14.58-.01,29.18,0,43.76v1.77c0,.29,0,.59,0,.88,0,5.3.02,10.62,0,15.91,0,.44,0,.88,0,1.33,0,.88,0,1.77,0,2.65-.02,6.24,0,12.49.03,18.74-2.79.76-4.42,1.59-6.66,3.36-.16.13-.7.11-.88.44.29-.48,2.66-3.21,3.2-3.42.64-.25,1.28.02,1.79-.13.43-.12.16-1.44,2.07-.65l-.43-83.33c-6.88.19-13.72-.35-20.6-.46-21.79-.36-44.23-.98-65.91.02-2.12.1-4.26-.11-6.37.05l-21.66,85.43c.29.84,2.45.94,3.32,1.1,5.65,1.04,13.56,1.47,19.43,1.85,10.38.67,21.03.39,31.61.87v.88Z"/>
  <path class="cls-13" d="M268.67,92.75c-.65,0-1.14-.25-1.33-.88.17.09.54.03.88.23.28.16.33.55.45.66Z"/>
  <path class="cls-3" d="M258.94,216.96l-.88,1.33c.07-.4-.06-.9,0-1.33h.88Z"/>
  <path class="cls-14" d="M73.56,50.75c1.03-1.16,2.14-2.32,3.1-3.54l.43.22-3.53,3.32Z"/>
  <path class="cls-13" d="M163.82,95.4l-.44.44-.45-.43c.28-.06.68.07.89,0Z"/>
  <path class="cls-13" d="M223.55,234.64l-.43.45c-.06-.28.07-.68,0-.89l.44.44Z"/>
  <path class="cls-25" d="M25.78,228.01c-.48-.92-.88-1.72-1.33-2.65l1.33,2.65Z"/>
  <path class="cls-4" d="M253.63,211.22c-.15.01-.3-.02-.44,0v-.44c.29-.03.59.04.88,0v-.88h.44c-.1.16-.02.62-.24.89l-.65.44Z"/>
  <path class="cls-3" d="M234.16,232.88l.44-.44c-.09.29-.42.4-.44.44Z"/>
  <path class="cls-13" d="M222.66,233.32s-.34-.15-.44-.44l.44.44Z"/>
  <path class="cls-13" d="M305.84,233.76l.44-.44c-.1.17-.33.29-.44.44Z"/>
  <path class="cls-13" d="M269.56,93.63l-.44-.44c.14.15.32.28.44.44Z"/>
  <path class="cls-14" d="M71.35,52.96c.14-.15.3-.29.44-.44l-.44.44Z"/>
  <path class="cls-14" d="M72.68,51.64c.14-.15.3-.29.44-.44l-.44.44Z"/>
  <path class="cls-10" d="M332.38,240.39c-.03-2.65-.46-3.35-1.33-5.74l1.7.07,1.23,2.08c.55-.75,4.29-1.09,3.25.49-.11.16-1.69.15-1.32,1.33,1.21-1.15,3.43,1.53,3.53-.21l-1.32-2.21c.51-.98,1.66-.48,2.21-.67l.44.44c.18,1.7-.56,3.27-.88,4.86-1.48.22-2.45-.14-3.32-1.32-.9-.27-.84,1.23-1.38,1.31-.34.05-2.32-.27-2.82-.43Z"/>
  <path class="cls-10" d="M330.61,245.69c1.25-.43,1.52-.87,2.51-1.72l.76-.03c1.03,2.35,3.87,1.08,3.37,3.96l1.33-.89c0,.44.02.89,0,1.33,0,.15.02.3,0,.44-.51.51-1.08,1.56-1.33,2.21l-3.04.07-.06,1.69c-1.29-.48-3.45,1.45-4.42.44-.79-.81.64-.89.97-1,1.65-.56,2.94-.03,2.57-2.53-2.1.9-3.9,1.06-6.19.88l.19-1.35c2.75-1.24,5.38-.76,8.21-1.3.12-1.09-.01-1.53-1.11-1.76-.33-.07-1.38-.09-1.52.04l-.04,1.27-1.49-.03-.65-.68c-.12-.33-.03-.7-.06-1.04Z"/>
  <path class="cls-10" d="M316.01,230.67l.45,2.65c1.48.59.39-1.88,1.54-1.32,1.04.51.99,5.2,4.41,4.4.87-.2,1.14-.96,2.01-.87-1.36,3.97.37,3.35,3.54,3.97.82-.97-1.92-5.69.89-5.74-.03.58-.1,1.08.14,1.65.32.74,1.34,2.11,1.78,2.87.79,1.36.21,1.67,1.62,2.12.01,1.01.08,2.04-.06,3.04l-1.65.57c-.13.54-.12,1.15-.06,1.7-2.08.72-3.19.72-3.54-1.76,3.28-.75,1.5-1.03.21-2.22-.84-.78-.43-1.78-2.42-1.32l.44,2.65-3.53.44c-.16-.97-.55-1.95-.9-2.87-.15-.4.35-.85-.66-.68-1.69.3-2.38,1.45-1.99,3.1-.8.08-2.12-.91-2.65.23-.45.97,1.19.52,1.58,1.06.56.78-.19,4.77-1.36,4.46l-.73-1.29-1.71.41-.88-2.47-1.77.26c-.21-2.23.47-2.42,2.42-1.76,1.02-1.46-1.54-2.35-2.87-2.22.89-1.29,1.43-2.21,2.21-3.54.02-.04.59.18.87-.32.91-1.59,2.38-5.61,2.67-7.19ZM317.78,240.83c-.2-2.12-2.92-1.79-4.42-1.77l.67,2.65c.86.31.53-.78.95-.88.82-.19,1.93.12,2.81,0Z"/>
  <path class="cls-10" d="M75.77,214.75c3.3.54,5.74,1.25,8.85,1.77,4.88.82,10.23,1.64,15.04,2.21-1.01.76-3.59,2.46-4.72,2.55s-1.82-1.47-2.94-1.19l-1.2,1.73-.91-.26-.47-1.44-2.15-.06.45,2.86c-1.55,1.04-1.67-1.73-2.92-2.83-.44-.39-2.92-1.71-3.28-1.36v1.33s-1.33,0-1.33,0l-.95-3.92c-.45-.48-3.79.23-3.48-1.39Z"/>
  <path class="cls-25" d="M199.65,256.75c.06.05.85,1.25.88,1.33.45,1.02.64,3.11.43,4.19-.22,1.16-.78,1.03-1.32,1.55,1.17-.95,1.11-6.05-.86-6.43-4.08-.27-7.99-.18-12.07-.76-10.83-1.55-18.52-5.93-30.23-5.2-10.32.64-19.89,6.38-29.61,7.11-16.78,1.25-28.46-9.52-45.98-7.04-3.14.44-6.8.46-6.88,4.2-.11,5.19,6.66,2.54,9.47,2.36,14.03-.93,21.52,6.5,34.09,7.52,19.51,1.6,34.46-11.59,53.41-6.15,2.38.68,5.51,2.3,8.56,3.03,3.44.81,17.82,3.2,20.1,1.36-.6.59-1.02.94-1.77,1.33-10.69.37-19.59-2.45-29.75-4.89-.36-.09-.32-.77-.64-.84-13.45-3.02-24.89,4.55-37.64,6.5-3.68.56-8.82.94-12.49.56-5.17-.52-16.52-4.37-21.79-6.22-.87-.31.58-.83-1.66-.41-.4.07-.92-.08-1.33,0-1.6-1.5-5.29-1.43-7.32-1.34-1.85.08-5.55.43-6.84,1.78-.47-.02-.96.43-1.77.24-1.24-.28-1.91-1.16-2.65-2.01-1.17-3.52-.45-5.34,2.65-7.07,1.08-.18,4.45-.88,5.09-.88h10.62c5.85,0,15.11,4.84,21.18,6.25,18.17,4.23,27.96-5.54,44.73-6.27,10.21-.44,18.3,3.88,27.96,5.25,2.33.33,12.74.45,13.42.95Z"/>
  <path class="cls-8" d="M85.06,249.67c1.26-.06,2.73-.07,3.98,0,.71.04,1.76.34,2.65.44,1.05.12,2.06.26,3.1.44.41.07.93-.08,1.33,0,.95.19,2.47.62,3.54.88.44.11,1.38.65,2.21.88,1.01.29,2.1.57,3.1.88.13.04.31-.04.44,0l.88.44c.42.13.94.29,1.33.44.36.14.7.64,1.33.44.13.17.25.34.44.44,3.2,1.74,11.45,2.74,15.04,1.77.59.02,1.18.01,1.77,0,.33,0,1.16.9,1.77,0h.88l1.77-.44c2.65-.5,4.5-1.06,7.08-1.77l.44-.44c.59-.16,1.18-.28,1.77-.44h.88c5.06-1.38,9.93-3.19,15.25-3.55,12.92-.87,22.62,4.65,34.97,5.76,2.74.25,6.42-.81,8.62.89-.68-.5-11.09-.62-13.42-.95-9.66-1.37-17.76-5.7-27.96-5.25-16.77.73-26.55,10.5-44.73,6.27-6.06-1.41-15.33-6.25-21.18-6.25h-10.62c-.64,0-4.01.7-5.09.88.41-.23.66-.69,1.33-.88.94-.27,4.79-.81,5.75-.88.44-.03.89.02,1.33,0Z"/>
  <path class="cls-10" d="M277.62,257.28c-.74,1.26.48,5.74-2.95,4.8l-.29-1.28-2.15-.75c-.53-1.03,3.82-1.38,3.09-3.31l-1.32-.66c.81-1.42,3.25-2.38,4.46-.93,1.36,1.64-.6,1.74-.82,2.11Z"/>
  <path class="cls-10" d="M123.56,211.21c1.23,1.13,5.58-5.24,6.19-2.42.21.95-1.62,1.22-1.99,1.98-.46.96.19,1.82-.96,2.58-2.37,1.56-1.86-1.58-4.58-.81l-.04-1.75-1.29-.02c-.46-.39,2.5-4.33,3.51-1.49l-.85,1.93Z"/>
  <path class="cls-10" d="M103.2,209.45c1.9.06,3.46-.37,5.31-.44.22,1.58-1.79,1.5-2.41,2.22-1.45,1.67.11,4.35,2.41,3.52-.22,3.29-2.63,1.45-4.42,1.77.49-2.72.84-4.68-.88-7.07Z"/>
  <path class="cls-10" d="M108.07,244.81l1.77,5.52-3.97,1.55-.45-2.65c3.66.33,1.06-2.35-1.07-2.17l-.25-1.36,3.09.44c.02-.87-.35-1.58.88-1.33Z"/>
  <path class="cls-8" d="M84.62,215.19v1.33c-3.11-.52-5.55-1.22-8.85-1.77-.28-.05-.61.05-.88,0-5.11-.84-10.32-1.82-15.49-2.65v-.44c8.36,1.33,16.86,2.17,25.22,3.54Z"/>
  <path class="cls-8" d="M243.46,221.82c-.04-.51-.75-1.4-.44-2.21h6.64c-.98,7.28.08,13.85,3.54,20.33-4.45-5.35-5.08-13.18-3.98-19.89l-5.06-.03-.69,1.8Z"/>
  <path class="cls-10" d="M96.13,250.56l.26-2.26,4.6-.39c.3,1.48-.79,2.31-1.32,3.53-1.07-.26-2.59-.69-3.54-.88Z"/>
  <path class="cls-10" d="M137.71,216.08c-1.78.52-1.38-1.67-2.87-1.77-.92,1.81-3.75,3.7-3.76.44h2.65s-.41-1.52-.41-1.52l.68-.67c2.52.13,3.75.81,3.71,3.51Z"/>
  <path class="cls-7" d="M102.76,217.4c-.37.21-.85.6-1.33.88-.17.1-.31.29-.44.44-.37.05-.95.04-1.33,0-4.81-.57-10.16-1.39-15.04-2.21v-1.33c.26.04.81.72,1.57.85,5.25.87,11.39,2.14,16.57,1.36Z"/>
  <path class="cls-10" d="M109.4,254.98h2.65c.11-3.7,2.32.8,2.53.89,1.93.86,7.56.81,9.86.88-3.59.98-11.85-.03-15.04-1.77Z"/>
  <path class="cls-10" d="M77.99,250.56c1.41-1.1.65-2.8,2.44-3.99l1.11.68-.88,2.42c2.04-1.93,1.18.18,3.09,0-.97.08-4.82.62-5.75.88Z"/>
  <path class="cls-7" d="M331.5,269.12c-1.45.12-.75-.24-.34-1.01,1.27-2.39,2.02-4.93,3.31-7.3l.57-2.74c.05-.13-.05-.31,0-.44l.44-.44c.25-.73.24-1.6.44-2.21l.44-.44c.08-.24-.08-.65,0-.88l.44-.44c.08-.23-.08-.65,0-.88l.44-.44c.08-.23-.08-.66,0-.88.25-.65.82-1.7,1.33-2.21-.54,5.01-4.69,15.66-7.08,20.33Z"/>
  <path class="cls-10" d="M322.65,244.81l-.85,1.93,1.3,2.04-1.96.41c-1.07-.23-.23-3.41-.7-4.38h2.21Z"/>
  <path class="cls-10" d="M282.83,235.53c.76,2.04,1.39,3.91,1.33,6.19h-1.32c.55-1.99-.83-3.32-.91-5.06-.05-.91-.2-1.31.91-1.12Z"/>
  <path class="cls-8" d="M235.49,243.48c-4.23,3.25-9.78,3.96-14.16.44,4.81,2.41,9.43,1.87,14.16-.44Z"/>
  <path class="cls-10" d="M236.37,268.68c.17.15-1.2,3.34-1.99,3.12l-1.35-.45-.14-1.74,3.48-.93Z"/>
  <polygon class="cls-10" points="242.57 270.01 242.57 271.33 238.15 271.78 238.15 269.56 242.57 270.01"/>
  <path class="cls-10" d="M140.37,213.87c1.01.67,2.28,1.15,3.48,1.4l.06.81c-1.37.05-2.61.54-3.98.44l.44-2.65Z"/>
  <path class="cls-7" d="M76.66,251.44c-3.1,1.73-3.82,3.55-2.65,7.07-1.2-1.37-1.47-1.42-1.33-3.54,0-.15-.03-.31,0-.44l.44-.44c.96-2.68,1.01-2.22,3.54-2.65Z"/>
  <path class="cls-10" d="M307.61,253.21h-1.76s-.45-3.53-.45-3.53c2.02-.37,2.18,2.03,2.21,3.53Z"/>
  <path class="cls-10" d="M325.3,247.91c-2.7,0-.67-3.81.66-3.54,1.79.36-1.11,2.59-.66,3.54Z"/>
  <polygon class="cls-10" points="98.78 239.95 97.87 242.59 95.24 241.49 98.78 239.95"/>
  <path class="cls-7" d="M308.94,242.6c-.18.24-.27.71-.44.88l-.44.44c-1.01.58-2.94.94-3.98,1.77l-6.19.44c-1.51-.47-4.49-2.1-5.75-3.09,2.75.77,5.12,2.69,8.17,2.67,4.17-.03,5.44-2.12,8.65-3.11Z"/>
  <polygon class="cls-10" points="268.03 258.98 271.76 260.06 268.04 260.68 268.03 258.98"/>
  <polygon class="cls-10" points="283.27 258.07 281.72 257.64 281.51 254.98 283.06 255.41 283.27 258.07"/>
  <path class="cls-10" d="M285.04,227.13c-2.33,0-1.04-3.73,0-4.86.06,1.61,0,3.25,0,4.86Z"/>
  <path class="cls-10" d="M279.29,260.72l.48-2.16c3.48-.38,2.23,2.51-.48,2.16Z"/>
  <path class="cls-19" d="M201.42,258.51c-.17.64.34,1.08.88,1.33-.07.72-.17,1.55-.44,2.21-.14.35-.63,1.22-.88,1.77-.19.41-.24.88-.52,1.25-.37.24-.86.03-1.25.08-.28.04-.59-.01-.88,0-.15,0-.3,0-.44,0,.75-.39,1.17-.74,1.77-1.33.53-.53,1.1-.4,1.32-1.55.2-1.08.02-3.17-.43-4.19l.43-.44c.05.27.24.79.45.88Z"/>
  <path class="cls-10" d="M110.28,212.55c.36,1.63-2.16.63-3.09.87-.08-2.78,1.45-1.33,3.09-.87Z"/>
  <path class="cls-10" d="M201.42,258.51c.85.36,2.2.27,3.09,0v1.76c-.15.16-1.82-.26-2.21-.44-.54-.25-1.06-.68-.88-1.33Z"/>
  <path class="cls-10" d="M93.03,238.62c-.51-.36-.67-2.7,1.1-2.2,1.58.44.14,3.08-1.1,2.2Z"/>
  <path class="cls-10" d="M127.98,256.75c-.61.9-1.44,0-1.77,0l-.22-2.21c1.01.17,1.9,1.25,1.99,2.21Z"/>
  <path class="cls-10" d="M108.51,253.65c-.08-.55.05-1.2,0-1.77l2.65.89-.22.88c-.81.04-1.63-.06-2.43,0,.02.14.33.74.44.88-.63.2-.97-.3-1.33-.44.12-.43.51-.41.88-.44Z"/>
  <path class="cls-10" d="M280.18,223.15c.03-1.03-.02-2.07,0-3.1h4.87c.02.44-.02.89,0,1.33-.78-1.65-2.98-.64-4.43-.89l-.44,2.66Z"/>
  <path class="cls-10" d="M318.23,251.01c.06.09-.38,1.71-.45,1.76-.09.06-1.71-.38-1.76-.45-.06-.09.38-1.71.45-1.76.09-.06,1.71.38,1.76.45Z"/>
  <path class="cls-10" d="M304.07,245.69c-.06.05.24.78-.28.9-1.38.34-4.54-.03-5.92-.46l6.19-.44Z"/>
  <path class="cls-10" d="M100.99,245.25c.67.54-2.39,2.47-2.65,2.21-.25-1.02,1.97-2.75,2.65-2.21Z"/>
  <path class="cls-10" d="M91.26,244.81v1.76c-2.32.19-2.72-2.38,0-1.76Z"/>
  <path class="cls-10" d="M313.36,248.35c.12,1.09.03,2.33-1.32,2.21v-2.21s1.32,0,1.32,0Z"/>
  <path class="cls-10" d="M73.12,238.18c-.32.32-1.97-.17-1.77-1.1.36-1.63,2.62.24,1.77,1.1Z"/>
  <path class="cls-10" d="M80.2,223.59c-.85-.85,1.41-2.73,1.77-1.1.2.93-1.44,1.42-1.77,1.1Z"/>
  <path class="cls-10" d="M101.88,252.33l3.09-.44v1.32c-1-.31-2.08-.6-3.09-.88Z"/>
  <path class="cls-10" d="M109.84,238.62h-1.77s0-1.32,0-1.32c.82-.1,1.3-.03,1.76.67v.65Z"/>
  <path class="cls-10" d="M201.87,262.05l.37.28.07,1.48h-1.32c.26-.54.74-1.41.88-1.76Z"/>
  <path class="cls-10" d="M323.53,249.68v.65c-2.12,1.99-2.68-.81,0-.65Z"/>
  <path class="cls-10" d="M91.7,250.11c.62-.84,2.13-.34,3.1-.44v.88c-1.04-.18-2.05-.32-3.1-.44Z"/>
  <path class="cls-10" d="M310.7,247.46c.57.61-.78,2.34-1.32,1.76-.57-.61.78-2.34,1.32-1.76Z"/>
  <path class="cls-10" d="M98.78,221.83v.65c-2.12,1.99-2.68-.81,0-.65Z"/>
  <path class="cls-10" d="M89.05,249.67c-1.25-.07-2.73-.06-3.98,0,.82-.74,3.16-.74,3.98,0Z"/>
  <path class="cls-10" d="M131.96,210.33c.7.7-.62,2.02-1.32,1.32s.62-2.02,1.32-1.32Z"/>
  <path class="cls-10" d="M51.88,244.81c.22.2-.1.83-.44,1.11-1.56,1.27-.98-2.36.44-1.11Z"/>
  <path class="cls-10" d="M280.18,228.01l.44,2.66h-.88c.19-.96.37-1.63.44-2.66Z"/>
  <path class="cls-10" d="M230.18,270.45c.12.1.01.6-.22.88-1.63,2-1.38-2.3.22-.88Z"/>
  <path class="cls-10" d="M211.6,256.74h-1.32s0-1.32,0-1.32c.81-.14,1.46.49,1.32,1.32Z"/>
  <rect class="cls-10" x="97.01" y="237.3" width="1.77" height=".88"/>
  <rect class="cls-10" x="89.93" y="237.3" width=".88" height="1.32"/>
  <rect class="cls-10" x="223.99" y="266.47" width="1.32" height=".88"/>
  <rect class="cls-10" x="92.15" y="244.81" width="1.32" height=".88"/>
  <path class="cls-10" d="M285.04,230.22c-.09-.41-1.17-1.56,0-2.21v2.21Z"/>
  <rect class="cls-10" x="87.28" y="244.81" width=".88" height=".88"/>
  <rect class="cls-10" x="205.85" y="254.98" width=".88" height=".88"/>
  <rect class="cls-10" x="227.09" y="269.57" width=".88" height=".88"/>
  <rect class="cls-10" x="131.08" y="252.77" width=".88" height=".88"/>
  <path class="cls-10" d="M130.64,256.3l-1.77.44c.31-.73,1.24-.34,1.77-.44Z"/>
  <rect class="cls-10" x="205.85" y="257.63" width=".88" height=".88"/>
  <rect class="cls-10" x="76.66" y="221.83" width=".88" height=".88"/>
  <rect class="cls-10" x="275.31" y="249.23" width=".88" height=".88"/>
  <rect class="cls-10" x="71.79" y="220.94" width=".88" height=".88"/>
  <rect class="cls-10" x="113.38" y="248.79" width=".88" height=".88"/>
  <rect class="cls-10" x="232.4" y="262.94" width=".88" height=".88"/>
  <path class="cls-10" d="M285.93,233.32h-.88c-.17-.46.44-.83.44-.88.47.16.33.61.44.88Z"/>
  <rect class="cls-10" x="74.45" y="237.3" width=".88" height=".88"/>
  <path class="cls-10" d="M287.7,238.18c-.23-.32-.71-.28,0-.88.06.25-.04.6,0,.88Z"/>
  <path class="cls-10" d="M106.3,253.65l-.88-.44c.53.16.84.43.88.44Z"/>
  <path class="cls-10" d="M140.81,253.65h-.88c.86-.23.83.01.88,0Z"/>
  <path class="cls-10" d="M146.56,216.52h-.88c.28.04.62-.05.88,0Z"/>
  <path class="cls-10" d="M145.24,216.52c-.36-.05-.74-.04-.88-.44.38.04.75.01.88.44Z"/>
  <path class="cls-10" d="M335.04,257.63c.08-.24.42-.37.44-.44l-.44.44Z"/>
  <path class="cls-10" d="M335.92,254.98c.09-.28.43-.41.44-.44l-.44.44Z"/>
  <path class="cls-10" d="M137.71,254.54c.07-.02.22-.38.44-.44l-.44.44Z"/>
  <path class="cls-10" d="M72.68,254.54c.06-.3.43-.41.44-.44l-.44.44Z"/>
  <path class="cls-10" d="M336.37,253.65c.11-.33.43-.41.44-.44l-.44.44Z"/>
  <path class="cls-10" d="M100.99,218.73c.14-.15.27-.34.44-.44-.05.21-.24.42-.44.44Z"/>
  <path class="cls-10" d="M336.81,252.33c.12-.33.43-.41.44-.44l-.44.44Z"/>
  <path class="cls-10" d="M308.05,243.93l.44-.44c-.14.14-.24.32-.44.44Z"/>
  <path class="cls-5" d="M178.42,134.74c2.58-1.82,6.66-3.93,9.73-4.65,6.16-1.44,27.49-1.33,34.29-.65,16.81,1.68,17.66,20.66,16.59,33.8-.32,3.87-1.98,6.04-2.65,9.07-.06.26.04.6,0,.88-.13.16-.29.3-.44.44-.39.37-.99.43-.88,1.33-.3.43-.46,1.24-1.33,1.77-.12.06-.33-.06-.44,0-3.15,1.58-6.33,3.24-9.94,3.55-9.47.82-25.83.65-35.41-.02-23.09-1.61-20.25-25.53-13.06-41.11,1.21-.56,1.61-2.28,2.21-3.09.52-.7.6-.81,1.33-1.33ZM229.3,141.81c-2.64-3.87-4.95-5.28-9.96-5.74-6.58-.6-18.1-.48-24.76,0-13.32.96-17.03,10.98-17.87,22.82-.38,5.42.23,9.46,5.25,12.1.46,1.71,1.72,2.04,3.32,2.21,7.82.82,20.6.46,28.76.35,2.5-.03,5.95-.15,8.42-.34,3.24-.25,5.3-1.52,6.84-4.44.14-.15.31-.29.44-.44,1.51-1.85,1.89-2.65,2.16-5.14.41-3.75.34-15.98-.86-19.28-.05-.13-1.41-1.62-1.74-2.11Z"/>
  <path class="cls-22" d="M181.51,131.65c1.45-.97,2.17-1.47,3.87-2.1,7.6-2.83,11.41-1.91,19.34-1.86,4.5.03,15.35-.85,18.95,0,.31.07.3.72.65.83,4.08,1.27,4.82,1.19,8.06,4.02h-.44c-2.97-2.26-7.53-3.74-11.26-4-9.94-.7-30.78-1.19-39.18,3.56v-.44Z"/>
  <path class="cls-9" d="M174.88,139.16c-7.19,15.57-10.03,39.5,13.06,41.11,9.58.67,25.94.84,35.41.02,3.61-.31,6.79-1.98,9.94-3.55-.12.3-.34.58-.44.88-8.51,5.05-20.12,3.68-29.89,3.55-5.65-.07-17.29.17-22-1.44-2.04-.7-3.69-2.13-5.63-3-.31-.32-1.26-1.24-1.33-1.33-7.55-9.36-5.67-27.27.88-36.69v.44Z"/>
  <path class="cls-13" d="M231.95,132.53c4.94,3.77,7.16,10.31,7.52,16.36.26,4.27.23,9.86,0,14.15-.15,2.89-.79,6.73-2.21,9.28h-.88c.67-3.03,2.33-5.2,2.65-9.07,1.08-13.15.22-32.13-16.59-33.8-6.8-.68-28.13-.79-34.29.65-3.07.72-7.15,2.83-9.73,4.65.17-.28.26-.62.44-.88.92-.53,1.73-1.25,2.65-1.77,8.4-4.75,29.24-4.25,39.18-3.56,3.73.26,8.29,1.73,11.26,4Z"/>
  <path class="cls-20" d="M232.84,177.62c-.06.17.16.53-.09.78-.1.1-1.99,1.06-2.46,1.31-1.55.85-3.67,1.57-5.41,1.89h-38.05c-2.16-.3-6.94-1.09-8.73-2.07-.62-.34-2.15-2.15-2.78-2.79,1.93.87,3.59,2.3,5.63,3,4.71,1.61,16.35,1.37,22,1.44,9.77.13,21.38,1.5,29.89-3.55Z"/>
  <path class="cls-20" d="M174.88,138.72c-6.56,9.42-8.43,27.33-.88,36.69l-3.51-3.45c-1.74-4.48-2.53-8.4-2.7-13.1l.93-.49c-.57-5.97,1.26-13.06,4.47-18.47.49-.83,2.22-2.83,3.03-3.38-.33.8-.84,1.51-1.33,2.21Z"/>
  <path class="cls-20" d="M232.39,132.53c5.36,4.67,7.42,9.33,7.98,16.56s.91,24.06-6.65,27.64c.87-.53,1.03-1.34,1.33-1.77.21-.3,1.04-.48.88-1.33.15-.14.31-.28.44-.44.21-.25.55-.29.88-.88,1.42-2.55,2.06-6.39,2.21-9.28.73-.46.44-1.68.45-2.42.04-3.09.03-6.2,0-9.3,0-.75.28-1.97-.45-2.42-.36-6.04-2.58-12.59-7.52-16.36h.44Z"/>
  <path class="cls-1" d="M224.87,181.6c-7.62,1.39-30.15,1.09-38.05,0h38.05Z"/>
  <path class="cls-22" d="M217.35,210.33c-.16.15-.14.65-.62.71-4.93-.54-9.92-.2-14.86-.27v-.88c5.13.23,10.3.74,15.49.44Z"/>
  <path class="cls-22" d="M254.07,209.89v.88c-.29.04-.6-.03-.88,0-4.34.42-9.3-.31-13.72,0-.15-.07-.29-.32-.44-.44,4.3-.27,8.76.32,13.07.03.95-.06,1.61-1.02,1.97-.47Z"/>
  <path class="cls-20" d="M236.82,208.12c-5.17-4.28-11.71-3.82-17.25-.44,3.85-4,12.21-4.22,16.55-.83.77.6.65,1.22.71,1.27Z"/>
  <path class="cls-13" d="M174.88,139.16v-.44c.49-.7,1-1.41,1.33-2.21.27-.18.61-.28.88-.44-.6.81-1,2.53-2.21,3.09Z"/>
  <path class="cls-20" d="M181.51,132.09c-.92.52-1.74,1.24-2.65,1.77.8-1.17,1.56-1.47,2.65-2.21v.44Z"/>
  <path class="cls-27" d="M277.97,280.62c-14.57,1.76-29.76,3.27-44.89,4-24.26,1.16-49.81,1.43-74.13.87.46-.73,1.68-.44,2.43-.45,35.88-.44,72.4.39,107.52-3.97,2.79-.35,6.43-1.4,9.07-.44Z"/>
  <path class="cls-7" d="M59.4,211.66v.44c-14-2.25-28.02-4.45-42.03-6.63l3.24,8.49c.29.75.14,1.73.3,2.12l-4.42-11.49c14.34,2.05,28.61,4.79,42.91,7.07Z"/>
  <path class="cls-8" d="M117.36,266.47c3.67.37,8.81,0,12.49-.56,12.75-1.95,24.2-9.52,37.64-6.5.32.07.27.76.64.84,10.16,2.44,19.06,5.26,29.75,4.89.15,0,.3,0,.44,0-.46.73-1.68.44-2.43.45-10.39.13-22.01-2.98-32.22-5.32-.34-.08-.27-.79-.61-.87-2.21-.53-6.86.52-9.16.93-13.01,2.32-22.66,7.74-36.55,6.58v-.44Z"/>
  <path class="cls-27" d="M112.05,281.94c-.44-1.37,2.35-1,2.91-.92.85.12.42.85,1.27.95,9.46,1.17,19.73,1.85,29.25,2.17.85.03,1.78-.45,1.53.88-4.78-.39-9.6-.5-14.38-.89-6.6-.53-14.05-1.24-20.58-2.21Z"/>
  <path class="cls-19" d="M92.59,259.84c-2.33.44-.7-.31-1.96-.48-1.48-.2-6.53-.19-8.03,0-.78.1-.57.77-.97.88-1.39.4-2.16.07-3.21.03,1.28-1.35,4.99-1.71,6.84-1.78,2.03-.09,5.72-.16,7.32,1.34Z"/>
  <path class="cls-27" d="M90.37,277.52c5.3.9,10.69,1.55,16.01,2.35.14.02,2.93.26,1.68.75-5.88-.98-11.97-1.24-17.7-3.09Z"/>
  <path class="cls-7" d="M93.91,259.84c2.25-.42.79.1,1.66.41,5.27,1.85,16.62,5.7,21.79,6.22v.44c-2.74-.23-5.81-1.24-8.5-1.9l-14.95-5.18Z"/>
  <path class="cls-27" d="M147.89,285.04c2.24-.75,5.36-.52,7.76-.44.85.03,1.78-.45,1.53.88l-9.29-.44Z"/>
  <path class="cls-27" d="M77.1,274.43c-1.36,0-3.02-.29-3.98-1.33,1.93.46,2.42.78,3.98,1.33Z"/>
  <path class="cls-27" d="M72.68,273.1c-1.74-.41-3.97-.45-5.31-1.77,1.79.44,3.79.54,5.31,1.77Z"/>
  <path class="cls-27" d="M89.93,277.52c-1.88-.32-3.88-.49-5.75-.88,1.39-.82,4.26.21,5.75.88Z"/>
  <rect class="cls-30" x="64.72" y="217.85" width=".88" height=".88"/>
  <path class="cls-7" d="M114.71,185.58l-3.43-1.22c-18.84-2.34-37.54-5.71-56.3-8.51v-.44c17.03,2.34,35.49,4.58,52.31,7.64,3.16.58,4.71.98,7.42,2.53Z"/>
  <path class="cls-7" d="M28.43,170.99c4.02.49,8.6,1.53,12.91,2.35.73.14,1.61.17,2.13.75-4.65-.59-9.3-1.11-13.94-1.79-1.24-.18-1.21.44-1.1-1.31Z"/>
  <path class="cls-8" d="M54.98,175.41v.44c-3.57-.53-7.62-.35-11.06-1.77,3.68.47,7.38.82,11.06,1.33Z"/>
  <path class="cls-29" d="M262.92,182.04c.02-5.3,0-10.62,0-15.91.73.46.44,1.68.45,2.42.05,3.68.04,7.38,0,11.06,0,.75.28,1.97-.45,2.42Z"/>
  <path class="cls-29" d="M262.92,186.02c0-.88,0-1.77,0-2.65.72.45.71,2.23,0,2.65Z"/>
  <path class="cls-29" d="M262.92,165.24v-1.77c0,.5,0,1.29,0,1.77Z"/>
  <path class="cls-12" d="M80.2,35.28c-.96-2.74-2.97-4.8-4.21-7.5,13.44,2.46,27.41-.15,40.04-4.87l.36,12.6c-1.46,3.6,1.16,12.23-.75,14.99-.25.36-7.28,2.49-8.36,2.79-9.96,2.81-24.93,4.58-34.91,1.53-.85-.26-1.52-.23-1.47-1.41.14-.16.3-.29.44-.44l.44-.44c.31-.34.63-.61.88-.88l.44-.44c.14-.15.3-.29.44-.44l3.53-3.32-.43-.22c3.34-4.25,5.52-6.29,3.54-11.94Z"/>
  <path class="cls-7" d="M338.58,248.35c.02-.44,0-.89,0-1.33,0-.29.02-.59,0-.88.52-.6.84-1.9.88-2.65.02-.27.04-.62,0-.88.45-.13.39-.51.44-.88.04-.28-.05-.62,0-.88.33-1.59,1.07-3.16.88-4.86h.44c-.29,1.84-.24,3.68-.66,5.75s-.87,4.74-2,6.63Z"/>
  <path class="cls-10" d="M341.23,234.2l-2.21-1.98c2.03-.92,2.08-1.24,2.65-3.32.02,1.66-.05,3.71-.44,5.3Z"/>
  <path class="cls-10" d="M342.12,221.38c-2.11-1.83-4.7-.1-7.08-1.33,2.11-.07,4.25-.02,6.36.07.71.22.63.69.72,1.26Z"/>
  <path class="cls-10" d="M316.46,227.13c.5-1.66-.9-5.24,0-6.19.68.99.59,3.4.47,4.69-.08.82-.45,1.31-.47,1.5Z"/>
  <path class="cls-10" d="M328.4,220.5c-2.2.06-4.43-.05-6.64,0,1.64-.74,4.91-.75,6.64,0Z"/>
  <path class="cls-10" d="M342.12,226.24c-.74-.68-.74-2.84,0-3.54.06,1.08.1,2.49,0,3.54Z"/>
  <path class="cls-10" d="M320.88,220.5c-1.01.02-2.13-.1-3.1,0,.56-.73,2.54-.73,3.1,0Z"/>
  <path class="cls-10" d="M333.71,220.06c-.43.01-1.54.42-2.65.44.5-.78,1.82-.38,2.65-.44Z"/>
  <path class="cls-10" d="M316.01,229.34c.03-.14-.02-.3,0-.44l.43.22-.43.22Z"/>
  <path class="cls-17" d="M256.29,89.21c-24.81-1.29-50.73.97-75.66,0h75.66Z"/>
  <path class="cls-14" d="M209.83,68.44c1.63-.38.52-3.46.89-3.98.34-.1.53.44.66.44h17.03c.1,2.42-.13,4.89-.02,7.32.04.89.43,1.74.46,2.41.07,1.76-.05,3.55,0,5.31h-19.03s-.44-3.1-.44-3.1c-.02-2.79.32-5.6.44-8.4Z"/>
  <path class="cls-11" d="M267.35,235.97c-.21.1-2.84.44-3.26.42-6.2-.32-6.99-8.72-6.43-13.41.35-2.95,2.2-8.65,5.51-9.09,8.47-1.11,9.05,12.06,7.14,17.75-.32.97-2.22,3.97-2.97,4.32Z"/>
  <path class="cls-17" d="M253.19,210.77v.44c-2.79.32-9.87.34-12.66.03-.74-.08-.73-.32-1.06-.47,4.42-.31,9.37.42,13.72,0Z"/>
  <path class="cls-30" d="M317.78,240.83c-.88.12-1.99-.19-2.81,0-.42.1-.08,1.19-.95.88l-.67-2.65c1.5-.02,4.22-.35,4.42,1.77Z"/>
  <path class="cls-5" d="M199.65,263.82c-2.28,1.84-16.66-.54-20.1-1.36-3.05-.72-6.17-2.34-8.56-3.03-18.95-5.44-33.9,7.74-53.41,6.15-12.57-1.03-20.06-8.45-34.09-7.52-2.81.19-9.58,2.83-9.47-2.36.08-3.75,3.74-3.76,6.88-4.2,17.52-2.48,29.2,8.29,45.98,7.04,9.71-.73,19.28-6.47,29.61-7.11,11.71-.73,19.4,3.65,30.23,5.2,4.08.59,7.99.5,12.07.76,1.97.38,2.03,5.49.86,6.43Z"/>
  <path class="cls-22" d="M182.4,170.99c-4.82-2.99-5.23-7.23-4.86-12.59.73-10.56,3.74-20.33,15.7-21.44,6.62-.62,20.39-.65,26.98,0,3.62.36,7.24,2.12,9.07,5.3,1.13,1.99,1.62,4.55,1.79,6.83.42,5.84.48,13.77-1.34,19.25-.13.16-.3.29-.44.44-1.57,1.64-3.24,2.08-4.76,3.51-11.65.27-24.56,1.23-36.18.49-.85-.05-3.19-.28-3.86-.48-.12-.04-1.18-.88-2.09-1.31Z"/>
  <path class="cls-9" d="M181.96,170.99c-5.03-2.64-5.63-6.68-5.25-12.1.83-11.83,4.54-21.86,17.87-22.82,6.66-.48,18.19-.6,24.76,0,5.01.46,7.32,1.87,9.96,5.74v.44c-1.84-3.18-5.45-4.94-9.07-5.3-6.59-.65-20.36-.62-26.98,0-11.96,1.11-14.98,10.88-15.7,21.44-.37,5.36.04,9.61,4.86,12.59-.12-.06-.33.06-.44,0Z"/>
  <path class="cls-4" d="M229.3,168.78c-1.54,2.92-3.6,4.18-6.84,4.44-2.47.19-5.92.31-8.42.34-8.16.1-20.94.47-28.76-.35-1.6-.17-2.86-.5-3.32-2.21.11.06.32-.06.44,0,.92.43,1.97,1.27,2.09,1.31.67.2,3.01.43,3.86.48,11.63.74,24.54-.22,36.18-.49,1.52-1.42,3.19-1.86,4.76-3.51Z"/>
  <path class="cls-4" d="M229.3,141.81c.33.49,1.69,1.98,1.74,2.11,1.2,3.3,1.27,15.52.86,19.28-.27,2.49-.65,3.29-2.16,5.14,1.82-5.48,1.77-13.41,1.34-19.25-.17-2.28-.66-4.84-1.79-6.83v-.44Z"/>
  <path class="cls-9" d="M235.05,174.97c-.11-.89.5-.95.88-1.33.15.85-.67,1.02-.88,1.33Z"/>
  <path class="cls-9" d="M237.26,172.32c-.33.59-.67.63-.88.88.04-.28-.06-.63,0-.88h.88Z"/>
  <path class="cls-26" d="M201.87,209.89c-10.58-.48-21.23-.2-31.61-.87-5.87-.38-13.77-.8-19.43-1.85-.87-.16-3.03-.26-3.32-1.1l21.66-85.43c2.11-.16,4.25.05,6.37-.05,21.68-.99,44.11-.38,65.91-.02,6.87.11,13.72.65,20.6.46l.43,83.33c-1.91-.79-1.64.53-2.07.65-.51.15-1.15-.12-1.79.13-.54.21-2.91,2.93-3.2,3.42-.28.46-.6.88-.88,1.33h-.44c-.36-.55-1.02.4-1.97.47-4.31.29-8.78-.29-13.07-.03-.16-.13-.29-.3-.44-.44-.34-.3-.93-.93-1.33-1.33-.15-.15-.29-.3-.44-.44-.05-.05.06-.67-.71-1.27-4.34-3.39-12.7-3.17-16.55.83-.61.63-1.26,1.78-2.21,2.65-5.18.3-10.36-.21-15.49-.44ZM232.39,132.53c-3.24-2.82-3.99-2.74-8.06-4.02-.36-.11-.34-.76-.65-.83-3.6-.84-14.45.03-18.95,0-7.93-.05-11.74-.97-19.34,1.86-1.7.63-2.42,1.13-3.87,2.1-1.09.74-1.86,1.04-2.65,2.21-.18.27-.28.61-.44.88-.73.51-.81.63-1.33,1.33-.28.17-.62.26-.88.44-.81.55-2.54,2.55-3.03,3.38-3.21,5.42-5.04,12.5-4.47,18.47l-.93.49c.17,4.7.96,8.62,2.7,13.1l3.51,3.45c.07.08,1.02,1.01,1.33,1.33.62.64,2.15,2.45,2.78,2.79,1.79.98,6.57,1.78,8.73,2.07,7.9,1.09,30.43,1.39,38.05,0,1.74-.32,3.86-1.04,5.41-1.89.47-.26,2.36-1.22,2.46-1.31.25-.25.03-.61.09-.78.1-.3.32-.58.44-.88.12-.06.32.06.44,0,7.57-3.58,7.21-20.44,6.65-27.64s-2.62-11.89-7.98-16.56Z"/>
  <path class="cls-1" d="M239.47,163.03c.23-4.28.26-9.88,0-14.15.73.46.44,1.68.45,2.42.03,3.09.04,6.2,0,9.3,0,.75.28,1.97-.45,2.42Z"/>
  <rect class="cls-10" x="318.67" y="230.23" width=".88" height=".88"/>
  <path class="cls-10" d="M339.46,243.48c-.05.76-.37,2.05-.88,2.65-.05-.91-.46-1.74-.44-2.65h1.33Z"/>
  <path class="cls-10" d="M339.91,241.72c-.05.37,0,.76-.44.88,0-.05-.63-.38-.44-.88h.88Z"/>
  <rect class="cls-10" x="335.48" y="241.28" width=".88" height=".88"/>
</svg>